0
SECTION
2
HEADER
9
$INSUNITS
70
4
9
$ACADVER
1
AC1014
9
$HANDSEED
5
FFFF
0
ENDSEC
0
SECTION
2
TABLES
0
TABLE
2
VPORT
5
8
100
AcDbSymbolTable
0
ENDTAB
0
TABLE
2
LTYPE
5
5
100
AcDbSymbolTable
0
LTYPE
5
14
100
AcDbSymbolTableRecord
100
AcDbLinetypeTableRecord
2
BYBLOCK
70
0
0
LTYPE
5
15
100
AcDbSymbolTableRecord
100
AcDbLinetypeTableRecord
2
BYLAYER
70
0
0
ENDTAB
0
TABLE
2
LAYER
5
2
100
AcDbSymbolTable
70
2
0
LAYER
5
50
100
AcDbSymbolTableRecord
100
AcDbLayerTableRecord
2
0
70
0
6
CONTINUOUS
0
ENDTAB
0
TABLE
2
STYLE
5
3
100
AcDbSymbolTable
70
1
0
STYLE
5
11
100
AcDbSymbolTableRecord
100
AcDbTextStyleTableRecord
2
STANDARD
70
0
0
ENDTAB
0
TABLE
2
VIEW
5
6
100
AcDbSymbolTable
70
0
0
ENDTAB
0
TABLE
2
UCS
5
7
100
AcDbSymbolTable
70
0
0
ENDTAB
0
TABLE
2
APPID
5
9
100
AcDbSymbolTable
70
2
0
APPID
5
12
100
AcDbSymbolTableRecord
100
AcDbRegAppTableRecord
2
ACAD
70
0
0
ENDTAB
0
TABLE
2
DIMSTYLE
5
A
100
AcDbSymbolTable
70
1
0
ENDTAB
0
TABLE
2
BLOCK_RECORD
5
1
100
AcDbSymbolTable
70
1
0
BLOCK_RECORD
5
1F
100
AcDbSymbolTableRecord
100
AcDbBlockTableRecord
2
*MODEL_SPACE
0
BLOCK_RECORD
5
1B
100
AcDbSymbolTableRecord
100
AcDbBlockTableRecord
2
*PAPER_SPACE
0
ENDTAB
0
ENDSEC
0
SECTION
2
BLOCKS
0
BLOCK
5
20
100
AcDbEntity
100
AcDbBlockBegin
2
*MODEL_SPACE
0
ENDBLK
5
21
100
AcDbEntity
100
AcDbBlockEnd
0
BLOCK
5
1C
100
AcDbEntity
100
AcDbBlockBegin
2
*PAPER_SPACE
0
ENDBLK
5
1D
100
AcDbEntity
100
AcDbBlockEnd
0
ENDSEC
0
SECTION
2
ENTITIES
0
CIRCLE
5
100
100
AcDbEntity
8
0
100
AcDbCircle
10
-1.308500878749347e-06
20
10.000000383688217
30
0
40
1.5000000000000002
210
0
220
0
230
1
0
CIRCLE
5
101
100
AcDbEntity
8
0
100
AcDbCircle
10
-1.5082979721804393e-06
20
3.8368822246450093e-07
30
0
40
27
210
0
220
0
230
1
0
CIRCLE
5
102
100
AcDbEntity
8
0
100
AcDbCircle
10
8.660252429647862
20
-4.9999997893411363
30
0
40
1.4999999999999989
210
0
220
0
230
1
0
LWPOLYLINE
5
103
100
AcDbEntity
8
0
100
AcDbPolyline
90
4
70
1
43
0.0
10
14.745328952593777
20
19.426919985870658
42
-1.124344672863022
10
16.571280651100111
20
17.89476451245346
10
14.402880304227828
20
15.851350717921342
42
-0.88940698002650709
10
13.109497851119176
20
16.936627511591855
0
CIRCLE
5
104
100
AcDbEntity
8
0
100
AcDbCircle
10
-1.5082979721804393e-06
20
3.8368822246450093e-07
30
0
40
4.9999999999999991
210
0
220
0
230
1
0
CIRCLE
5
105
100
AcDbEntity
8
0
100
AcDbCircle
10
-8.6602556460409019
20
-4.9999994432824142
30
0
40
1.5000000000000002
210
0
220
0
230
1
0
LWPOLYLINE
5
106
100
AcDbEntity
8
0
100
AcDbPolyline
90
4
70
1
43
0.0
10
49.624242297594272
20
-21.62037927911587
10
50.574356911625209
20
-18.776564548827544
42
0.9672041516493709
10
49.731187739531919
20
-18.46325041376225
10
48.593702198369201
20
-21.237439780702751
42
1.0339078862458517
0
LWPOLYLINE
5
107
100
AcDbEntity
8
0
100
AcDbPolyline
90
4
70
1
43
0.0
10
43.603627384366376
20
-14.833496565653327
42
0.96720415164935958
10
42.923710950105928
20
-14.244587708169634
10
40.88622602975056
20
-16.444282050419115
42
1.0339078862458302
10
41.717235004957701
20
-17.16405954289916
0
LWPOLYLINE
5
108
100
AcDbEntity
8
0
100
AcDbPolyline
90
4
70
1
43
0.0
10
33.623567854071553
20
-5.0363491755258334
42
1.0339078862458568
10
33.969374789767699
20
-6.079935836412278
10
36.782501603019988
20
-5.0424785926855407
42
0.96720415164938855
10
36.499568655632203
20
-4.1886349610511298
0
LWPOLYLINE
5
109
100
AcDbEntity
8
0
100
AcDbPolyline
90
4
70
1
43
0.0
10
40.007566549749136
20
15.969870133283106
42
0.96720415164937334
10
40.562305104122636
20
16.677941553615664
10
38.265016261308013
20
18.604717091315727
42
1.033907886245844
10
37.587002472629329
20
17.7392964664649
0
LWPOLYLINE
5
110
100
AcDbEntity
8
0
100
AcDbPolyline
90
4
70
1
43
0.0
10
34.687690525431336
20
12.794497543671973
42
1.0339078862458526
10
34.263565925735847
20
11.780212633260305
10
37.066817058932543
20
10.716359690306492
42
0.9672041516493709
10
37.413828095047052
20
11.546229162461563
0
LWPOLYLINE
5
111
100
AcDbEntity
8
0
100
AcDbPolyline
90
4
70
1
43
0.0
10
42.700846928781417
20
18.954848776613296
42
0.96720415164936691
10
43.372795888499141
20
19.552832551923661
10
41.455285318126542
20
21.857860363580013
42
1.0339078862458595
10
40.63401436736045
20
21.12699130486742
0
LWPOLYLINE
5
112
100
AcDbEntity
8
0
100
AcDbPolyline
90
4
70
1
43
0.0
10
32.678625744914967
20
-0.57901340007486168
42
1.0339078862458362
10
32.833092554106187
20
-1.6674965466664715
10
35.785990841442867
20
-1.1475045230313345
42
0.96720415164936446
10
35.65960890665005
20
-0.25692740309268991
0
LWPOLYLINE
5
113
100
AcDbEntity
8
0
100
AcDbPolyline
90
4
70
1
43
0.0
10
51.634172024573004
20
-19.117252571438961
10
50.749209461535962
20
-21.982011071212174
42
1.033907886245844
10
51.809853396449348
20
-22.271303309073964
10
52.50197160768402
20
-19.353946220598615
42
0.96720415164936513
0
LWPOLYLINE
5
114
100
AcDbEntity
8
0
100
AcDbPolyline
90
4
70
1
43
0.0
10
44.959390827929994
20
20.790485374621348
10
43.255589709506395
20
23.257682518924678
42
1.0339078862458284
10
42.37227770936542
20
22.603147977465952
10
44.236681009632768
20
20.254957113427785
42
0.96720415164936124
0
LWPOLYLINE
5
115
100
AcDbEntity
8
0
100
AcDbPolyline
90
4
70
1
43
0.0
10
35.498917847989311
20
2.8626632786506887
42
0.96720415164935314
10
35.533125894475525
20
3.7615124370503423
10
32.54242792530421
20
3.9753480215412837
42
1.0339078862458482
10
32.500618090709949
20
2.8767546057195559
0
LWPOLYLINE
5
116
100
AcDbEntity
8
0
100
AcDbPolyline
90
4
70
1
43
0.0
10
64.141990241712691
20
24.087191250877545
10
65.001276947385392
20
26.959755672688527
42
1.0339078862458568
10
63.938086247629769
20
27.23954325552382
10
63.272106941912575
20
24.316108364106451
42
0.96720415164935314
0
LWPOLYLINE
5
117
100
AcDbEntity
8
0
100
AcDbPolyline
90
4
70
1
43
0.0
10
38.308608565170623
20
13.348570950703868
10
35.704959203089125
20
14.835517486169284
42
1.033907886245844
10
35.191870835211702
20
13.863202782842972
10
37.888808991452706
20
12.553040738891383
42
0.96720415164936513
0
LWPOLYLINE
5
118
100
AcDbEntity
8
0
100
AcDbPolyline
90
4
70
1
43
0.0
10
54.044898487635535
20
-22.724261815539922
10
54.473479453096196
20
-19.756717653097695
42
0.96720415164934348
10
53.587996742174454
20
-19.598539371848712
10
52.962641840953509
20
-22.5309328051245
42
1.0339078862458293
0
LWPOLYLINE
5
119
100
AcDbEntity
8
0
100
AcDbPolyline
90
4
70
1
43
0.0
10
67.894939994215292
20
22.64523949842236
10
69.251966519594319
20
25.318903465606294
42
1.0339078862458466
10
68.255581971829798
20
25.783525234932455
10
67.079716273316947
20
23.025384582416525
42
0.96720415164934259
0
LWPOLYLINE
5
120
100
AcDbEntity
8
0
100
AcDbPolyline
90
4
70
1
43
0.0
10
57.283477665205318
20
24.935542725735761
42
0.96720415164937801
10
58.182921231143574
20
24.945606109484455
10
58.249333433716394
20
27.943203383860933
42
1.0339078862458637
10
57.150013519791962
20
27.93090369261256
0
LWPOLYLINE
5
121
100
AcDbEntity
8
0
100
AcDbPolyline
90
4
70
1
43
0.0
10
59.295522159536375
20
24.908248693582152
42
0.96720415164934992
10
60.192264930474018
20
24.837875383504674
10
60.526350359226946
20
27.817537600316349
42
1.0339078862458535
10
59.430331416969921
20
27.903549423744369
0
LWPOLYLINE
5
122
100
AcDbEntity
8
0
100
AcDbPolyline
90
4
70
1
43
0.0
10
33.302434894524708
20
-3.8991586482638221
10
36.197033990886183
20
-3.1173043962811158
42
0.96720415164935314
10
35.991554051514029
20
-2.2415886921192025
10
33.05129274640322
20
-2.8288394542882127
42
1.0339078862458586
0
LWPOLYLINE
5
123
100
AcDbEntity
8
0
100
AcDbPolyline
90
4
70
1
43
0.0
10
38.871681660346546
20
14.308896464200435
42
0.96720415164937157
10
39.360909011204768
20
15.063718694379446
10
36.90059171259179
20
16.777439438884105
42
1.0339078862458508
10
36.302647172653984
20
15.85487893533206
0
LWPOLYLINE
5
124
100
AcDbEntity
8
0
100
AcDbPolyline
90
4
70
1
43
0.0
10
48.706067136803703
20
-18.029194942370026
42
0.96720415164936036
10
47.894278476954248
20
-17.641768598738047
10
46.513376247127376
20
-20.303179696569259
42
1.0339078862458595
10
47.505562386943282
20
-20.776700783230542
0
LWPOLYLINE
5
125
100
AcDbEntity
8
0
100
AcDbPolyline
90
4
70
1
43
0.0
10
39.787309769832092
20
20.302721932922729
42
1.0339078862458619
10
39.034654660588444
20
19.501369424918217
10
41.287370184426322
20
17.522664603915377
42
0.96720415164938389
10
41.903178910171135
20
18.178316655919112
0
LWPOLYLINE
5
126
100
AcDbEntity
8
0
100
AcDbPolyline
90
4
70
1
43
0.0
10
55.27704734731239
20
24.782881693382436
42
0.96720415164936446
10
56.171991094995697
20
24.873301207220795
10
55.970198399803579
20
27.864835881625734
42
1.0339078862458466
10
54.87637826374629
20
27.754323142489973
0
LWPOLYLINE
5
127
100
AcDbEntity
8
0
100
AcDbPolyline
90
4
70
1
43
0.0
10
49.451073968831771
20
23.264522797917518
42
0.96720415164934836
10
50.289960858779025
20
23.589128383012415
10
49.301753184759619
20
26.419931377395649
42
1.0339078862458249
10
48.276446985935252
20
26.02319121783529
0
LWPOLYLINE
5
128
100
AcDbEntity
8
0
100
AcDbPolyline
90
4
70
1
43
0.0
10
45.882577106117921
20
21.412581426810164
42
0.9672041516493578
10
46.650262034900308
20
21.881366932260747
10
45.173810371403988
20
24.490981939375583
42
1.0339078862458371
10
44.235528791781135
20
23.918021877158253
0
LWPOLYLINE
5
129
100
AcDbEntity
8
0
100
AcDbPolyline
90
4
70
1
43
0.0
10
46.138149854497705
20
-16.659383606615329
10
44.524885929646381
20
-19.186710160263122
42
1.0339078862458293
10
45.470775033977091
20
-19.747022000102397
10
46.912059121677451
20
-17.117820566483857
42
0.96720415164936602
0
LWPOLYLINE
5
130
100
AcDbEntity
8
0
100
AcDbPolyline
90
4
70
1
43
0.0
10
55.577020292692502
20
-19.903257810482962
10
55.216279413843957
20
-22.879810517613741
42
1.0339078862458362
10
56.311484624980537
20
-22.975628579872129
10
56.473097283622479
20
-19.981654406876192
42
0.96720415164934492
0
LWPOLYLINE
5
131
100
AcDbEntity
8
0
100
AcDbPolyline
90
4
70
1
43
0.0
10
40.19059945896857
20
-11.296035813047139
10
37.794008369853167
20
-13.097799158099047
42
1.0339078862458215
10
38.483579470697613
20
-13.954039341946917
10
40.754793996023182
20
-11.996595963468167
42
0.96720415164936602
0
LWPOLYLINE
5
132
100
AcDbEntity
8
0
100
AcDbPolyline
90
4
70
1
43
0.0
10
42.115689745716907
20
-13.478834395645876
42
0.96720415164937801
10
41.491134279773114
20
-12.831508766646119
10
39.265186215672394
20
-14.840278344254807
42
1.0339078862458535
10
40.028531785159188
20
-15.631454113032234
0
LWPOLYLINE
5
133
100
AcDbEntity
8
0
100
AcDbPolyline
90
4
70
1
43
0.0
10
37.537706640204277
20
-6.9076148781002402
42
0.96720415164937013
10
37.179585741563216
20
-6.0824788760031918
10
34.390869644602091
20
-7.1838700556255022
42
1.0339078862458526
10
34.828572965163325
20
-8.1923696137440452
0
LWPOLYLINE
5
134
100
AcDbEntity
8
0
100
AcDbPolyline
90
4
70
1
43
0.0
10
43.536169995319526
20
-18.539586158073416
10
45.206695032349522
20
-16.049737548086036
42
0.9672041516493709
10
44.476860789826695
20
-15.523960049098726
10
42.644150365569516
20
-17.896969214866726
42
1.0339078862458457
0
LWPOLYLINE
5
135
100
AcDbEntity
8
0
100
AcDbPolyline
90
4
70
1
43
0.0
10
32.565105150082026
20
0.59718460517362648
10
35.552662814451907
20
0.85115153621938067
42
0.96720415164936691
10
35.506390651367987
20
1.7494604401737508
10
32.508550284090575
20
1.6951177100066761
42
1.0339078862458535
0
LWPOLYLINE
5
136
100
AcDbEntity
8
0
100
AcDbPolyline
90
4
70
1
43
0.0
10
36.124161818067527
20
7.7382615161652604
10
33.219327064227514
20
8.4811848317794336
42
1.0339078862458406
10
32.982576762674697
20
7.4075904715714849
10
35.930457025887968
20
6.8598661305405164
42
0.96720415164938212
0
CIRCLE
5
137
100
AcDbEntity
8
0
100
AcDbCircle
10
49.32450197363012
20
-2.5430181882114153
30
0
40
1.5000000000000002
210
0
220
0
230
1
0
LWPOLYLINE
5
138
100
AcDbEntity
8
0
100
AcDbPolyline
90
4
70
1
43
0.0
10
32.779987456662653
20
6.2434228521577948
42
1.0339078862458517
10
32.640147635588818
20
5.1529640588062611
10
35.625186204422384
20
4.8709272835869912
42
0.96720415164934992
10
35.739600603482806
20
5.7631208417837607
0
LWPOLYLINE
5
139
100
AcDbEntity
8
0
100
AcDbPolyline
90
4
70
1
43
0.0
10
33.85692955723583
20
10.670719263827706
42
1.0339078862458482
10
33.525164110747255
20
9.6225841370086922
10
36.412286426847452
20
8.8135571091064975
42
0.96720415164939033
10
36.68373088306538
20
9.6711222128675711
0
LWPOLYLINE
5
140
100
AcDbEntity
8
0
100
AcDbPolyline
90
4
70
1
43
0.0
10
47.194590737106068
20
25.547885284913114
42
1.0339078862458508
10
46.208851114061545
20
25.061086608748383
10
47.625358781494839
20
22.418454203720621
42
0.96720415164934836
10
48.431873018531284
20
22.816744029673615
0
LWPOLYLINE
5
141
100
AcDbEntity
8
0
100
AcDbPolyline
90
4
70
1
43
0.0
10
35.34705538302719
20
-9.2542098349486697
42
1.0339078862458446
10
35.873150997200455
20
-10.219548615016736
10
38.456603209614471
20
-8.6977816597396735
42
0.96720415164937801
10
38.026161343472644
20
-7.9079590215021156
0
LWPOLYLINE
5
142
100
AcDbEntity
8
0
100
AcDbPolyline
90
4
70
1
43
0.0
10
39.032518089514411
20
-9.650461277183684
10
36.484470199198647
20
-11.230794137266413
42
1.0339078862458491
10
37.094746379648768
20
-12.145243993262289
10
39.531834964428192
20
-10.398647522998527
42
0.96720415164936369
0
LWPOLYLINE
5
143
100
AcDbEntity
8
0
100
AcDbPolyline
90
4
70
1
43
0.0
10
52.627627533623681
20
27.375221412095051
10
53.2922939465236
20
24.451487744408684
42
0.96720415164930951
10
54.1755732865807
20
24.621539523077619
10
53.707191171471173
20
27.583062474912641
42
1.0339078862458431
0
LWPOLYLINE
5
144
100
AcDbEntity
8
0
100
AcDbPolyline
90
4
70
1
43
0.0
10
65.20481215972076
20
23.756002523736868
42
0.96720415164935136
10
66.050751810397571
20
23.450247544361275
10
67.163361999208774
20
26.234506614159475
42
1.0339078862458431
10
66.12943575949275
20
26.6082071445074
0
LWPOLYLINE
5
145
100
AcDbEntity
8
0
100
AcDbPolyline
90
4
70
1
43
0.0
10
50.421763997883779
20
26.796633449976525
10
51.345106666106339
20
23.944013896471397
42
0.96720415164935547
10
52.209650390108777
20
24.192336568187336
10
51.478428549442263
20
27.100138937629289
42
1.0339078862458828
0
CIRCLE
5
146
100
AcDbEntity
8
0
100
AcDbCircle
10
57.984756311170329
20
12.456981638759112
30
0
40
1.5000000000000002
210
0
220
0
230
1
0
LWPOLYLINE
5
147
100
AcDbEntity
8
0
100
AcDbPolyline
90
4
70
1
43
0.0
10
61.699076571730693
20
27.672479324067059
10
61.297073144614849
20
24.701218102870378
42
0.96720415164935136
10
62.183936128864403
20
24.550971481716424
10
62.783020219146721
20
27.488844564878917
42
1.0339078862458568
0
CIRCLE
5
148
100
AcDbEntity
8
0
100
AcDbCircle
10
57.984756111373116
20
2.4569816387591139
30
0
40
4.9999999999999991
210
0
220
0
230
1
0
CIRCLE
5
149
100
AcDbEntity
8
0
100
AcDbCircle
10
66.645010049318898
20
-2.5430185342703497
30
0
40
1.4999999999999989
210
0
220
0
230
1
0
CIRCLE
5
150
100
AcDbEntity
8
0
100
AcDbCircle
10
57.984756111373116
20
2.4569816387591139
30
0
40
27
210
0
220
0
230
1
0
LWPOLYLINE
5
151
100
AcDbEntity
8
0
100
AcDbPolyline
90
4
70
1
43
0.0
10
103.804167102563
20
-102.26517998363013
10
3.8041671025328849
20
-102.26517998363192
42
-0.99999999999999989
10
3.8041671025372992
20
-32.265179983626062
10
103.80416710256748
20
-32.265179983622744
42
-0.99999999999999989
0
CIRCLE
5
152
100
AcDbEntity
8
0
100
AcDbCircle
10
53.804165171744231
20
-96.265179983631498
30
0
40
1.5500000000000005
210
0
220
0
230
1
0
CIRCLE
5
153
100
AcDbEntity
8
0
100
AcDbCircle
10
-25.1958328974683
20
-67.265174848528289
30
-1.7763568394002498e-14
40
1.5500000000000005
210
0
220
0
230
1
0
CIRCLE
5
154
100
AcDbEntity
8
0
100
AcDbCircle
10
132.80416710256927
20
-67.2651777445802
30
0
40
1.5500000000000005
210
0
220
0
230
1
0
CIRCLE
5
155
100
AcDbEntity
8
0
100
AcDbCircle
10
53.80416801825335
20
-38.265179983624208
30
0
40
1.5500000000000005
210
0
220
0
230
1
0
CIRCLE
5
156
100
AcDbEntity
8
0
100
AcDbCircle
10
72.300249847808473
20
70.776084985099004
30
0
40
4.0000000000000027
210
0
220
0
230
1
0
LWPOLYLINE
5
157
100
AcDbEntity
8
0
100
AcDbPolyline
90
8
70
1
43
0.0
10
-17.699750152191456
20
34.776084985099097
10
88.300249847808601
20
34.776084985098962
42
0.41421356237309132
10
95.300249847808573
20
41.776084985098962
10
95.300249847808487
20
99.776084985098962
42
0.41421356237309354
10
88.300249847808431
20
106.776084985099
10
-17.699750152191541
20
106.77608498509912
42
0.41421356237309453
10
-24.699750152191552
20
99.776084985099089
10
-24.699750152191484
20
41.776084985099111
42
0.41421356237309581
0
CIRCLE
5
158
100
AcDbEntity
8
0
100
AcDbCircle
10
-18.699750152191559
20
100.7760849850991
30
0
40
1.6000000000000003
210
0
220
0
230
1
0
LWPOLYLINE
5
159
100
AcDbEntity
8
0
100
AcDbPolyline
90
4
70
1
43
0.0
10
19.300249847808495
20
65.276085039353603
10
19.300249847808484
20
79.276085039353589
10
45.300249847808487
20
79.276085039353589
10
45.300249847808516
20
65.276085039353603
0
CIRCLE
5
160
100
AcDbEntity
8
0
100
AcDbCircle
10
-18.699750152191477
20
40.776084985099111
30
0
40
1.6000000000000003
210
0
220
0
230
1
0
LWPOLYLINE
5
161
100
AcDbEntity
8
0
100
AcDbPolyline
90
4
70
1
43
0.0
10
0.30024984780850694
20
60.776084985099089
10
-12.69975015219149
20
60.776084985099104
10
-12.699750152191516
20
80.776084985099089
10
0.3002498478084803
20
80.776084985099061
0
CIRCLE
5
162
100
AcDbEntity
8
0
100
AcDbCircle
10
89.300249847808459
20
100.77608498509896
30
0
40
1.6000000000000014
210
0
220
0
230
1
0
CIRCLE
5
163
100
AcDbEntity
8
0
100
AcDbCircle
10
89.300249847808558
20
40.776084985098969
30
0
40
1.6000000000000014
210
0
220
0
230
1
0
ENDSEC
0
SECTION
2
OBJECTS
0
DICTIONARY
5
C
100
AcDbDictionary
3
ACAD_GROUP
350
D
3
ACAD_MLINESTYLE
350
17
0
DICTIONARY
5
D
100
AcDbDictionary
0
DICTIONARY
5
1A
330
C
100
AcDbDictionary
0
DICTIONARY
5
17
100
AcDbDictionary
0
ENDSEC
0
EOF
