0
SECTION
2
HEADER
9
$INSUNITS
70
4
9
$ACADVER
1
AC1014
9
$HANDSEED
5
FFFF
0
ENDSEC
0
SECTION
2
TABLES
0
TABLE
2
VPORT
5
8
100
AcDbSymbolTable
0
ENDTAB
0
TABLE
2
LTYPE
5
5
100
AcDbSymbolTable
0
LTYPE
5
14
100
AcDbSymbolTableRecord
100
AcDbLinetypeTableRecord
2
BYBLOCK
70
0
0
LTYPE
5
15
100
AcDbSymbolTableRecord
100
AcDbLinetypeTableRecord
2
BYLAYER
70
0
0
ENDTAB
0
TABLE
2
LAYER
5
2
100
AcDbSymbolTable
70
2
0
LAYER
5
50
100
AcDbSymbolTableRecord
100
AcDbLayerTableRecord
2
0
70
0
6
CONTINUOUS
0
ENDTAB
0
TABLE
2
STYLE
5
3
100
AcDbSymbolTable
70
1
0
STYLE
5
11
100
AcDbSymbolTableRecord
100
AcDbTextStyleTableRecord
2
STANDARD
70
0
0
ENDTAB
0
TABLE
2
VIEW
5
6
100
AcDbSymbolTable
70
0
0
ENDTAB
0
TABLE
2
UCS
5
7
100
AcDbSymbolTable
70
0
0
ENDTAB
0
TABLE
2
APPID
5
9
100
AcDbSymbolTable
70
2
0
APPID
5
12
100
AcDbSymbolTableRecord
100
AcDbRegAppTableRecord
2
ACAD
70
0
0
ENDTAB
0
TABLE
2
DIMSTYLE
5
A
100
AcDbSymbolTable
70
1
0
ENDTAB
0
TABLE
2
BLOCK_RECORD
5
1
100
AcDbSymbolTable
70
1
0
BLOCK_RECORD
5
1F
100
AcDbSymbolTableRecord
100
AcDbBlockTableRecord
2
*MODEL_SPACE
0
BLOCK_RECORD
5
1B
100
AcDbSymbolTableRecord
100
AcDbBlockTableRecord
2
*PAPER_SPACE
0
ENDTAB
0
ENDSEC
0
SECTION
2
BLOCKS
0
BLOCK
5
20
100
AcDbEntity
100
AcDbBlockBegin
2
*MODEL_SPACE
0
ENDBLK
5
21
100
AcDbEntity
100
AcDbBlockEnd
0
BLOCK
5
1C
100
AcDbEntity
100
AcDbBlockBegin
2
*PAPER_SPACE
0
ENDBLK
5
1D
100
AcDbEntity
100
AcDbBlockEnd
0
ENDSEC
0
SECTION
2
ENTITIES
0
LINE
5
100
100
AcDbEntity
8
0
100
AcDbLine
10
0.58680041589499443
20
-8.0951001879032951
30
-7.0410580863173997e-32
11
0.6134580797103848
21
-8.4523906783912643
31
0
0
ARC
5
101
100
AcDbEntity
8
0
100
AcDbCircle
10
5.3838576097333855
20
-6.0852001172592685
30
-6.8422776578360184e-48
40
0.375000000000001
210
0
220
-0
230
1
100
AcDbArc
50
44.146010707917398
51
131.44250227750877
0
ARC
5
102
100
AcDbEntity
8
0
100
AcDbCircle
10
-2.5068486131374361e-06
20
9.436367331971952e-07
30
0
40
7.7500000000004103
210
0
220
0
230
1
100
AcDbArc
50
328.49650358590964
51
331.50349641409753
0
SPLINE
5
103
100
AcDbEntity
8
0
100
AcDbSpline
70
0
71
3
72
8
73
4
74
0
42
0.000000001
43
0.0000000001
44
0.0000000001
40
0
40
0
40
0
40
0
40
1
40
1
40
1
40
1
10
-8.2174569947906111
20
-2.0718822002662667
30
0
10
-8.2609952575316132
20
-2.085862806698267
30
0
10
-8.3900080146376119
20
-2.1333607041512668
30
0
10
-8.5885708447196141
20
-2.259157001099267
30
0
0
LINE
5
104
100
AcDbEntity
8
0
100
AcDbLine
10
-5.6529503315358722
20
5.8240185338714801
30
-1.4539840022901544e-46
11
-5.9030331871116122
21
6.0805837126857343
31
-1.5407439555097887e-32
0
SPLINE
5
105
100
AcDbEntity
8
0
100
AcDbSpline
70
0
71
3
72
8
73
4
74
0
42
0.000000001
43
0.0000000001
44
0.0000000001
40
0
40
0
40
0
40
0
40
1
40
1
40
1
40
1
10
-8.8432943211156143
20
-0.81454838038626687
30
-5.5511151231257827e-16
10
-8.6136814274136135
20
-0.86484574474726694
30
0
10
-8.476203853878614
20
-0.865354206809267
30
-5.5511151231257827e-16
10
-8.4305096206436136
20
-0.86360071664526705
30
-5.5511151231257827e-16
0
SPLINE
5
106
100
AcDbEntity
8
0
100
AcDbSpline
70
0
71
3
72
8
73
4
74
0
42
0.000000001
43
0.0000000001
44
0.0000000001
40
0
40
0
40
0
40
0
40
1
40
1
40
1
40
1
10
9.9953388359913848
20
0.34032632492873333
30
1.1102230246251563e-15
10
9.5119644315993863
20
0.6217044478057332
30
0
10
9.1177358247403877
20
0.75341345895973311
30
1.1102230246251563e-15
10
8.843289307418388
20
0.81455026765973326
30
0
0
SPLINE
5
107
100
AcDbEntity
8
0
100
AcDbSpline
70
0
71
3
72
8
73
4
74
0
42
0.000000001
43
0.0000000001
44
0.0000000001
40
0
40
0
40
0
40
0
40
1
40
1
40
1
40
1
10
-8.0313862916236154
20
3.7900108664737342
30
0
10
-8.3101916788256087
20
3.8264272956697343
30
0
10
-8.7256925264656147
20
3.837495434418734
30
0
10
-9.2761528732646088
20
3.7384102717707335
30
0
0
LINE
5
108
100
AcDbEntity
8
0
100
AcDbLine
10
8.0740131070944443
20
-0.82781054807571375
30
5.4738221262688167e-47
11
8.4305046069463874
21
-0.86360071664526705
31
-5.5511151231257827e-16
0
LINE
5
109
100
AcDbEntity
8
0
100
AcDbLine
10
-2.3144263145266111
20
8.1524668565877292
30
0
11
-2.2172757797356111
21
7.8076061612017345
31
0
0
LINE
5
110
100
AcDbEntity
8
0
100
AcDbLine
10
0.61345807971038935
20
8.452392565664729
30
0
11
0.58680041589499921
21
8.0951020751767615
31
1.7789921910373654e-46
0
SPLINE
5
111
100
AcDbEntity
8
0
100
AcDbSpline
70
0
71
3
72
8
73
4
74
0
42
0.000000001
43
0.0000000001
44
0.0000000001
40
0
40
0
40
0
40
0
40
1
40
1
40
1
40
1
10
-0.7334495254646155
20
-8.8503864029392645
30
0
10
-0.64404443052561533
20
-8.6329958906922677
30
-5.5511151231257827e-16
10
-0.61967096302961533
20
-8.4976952039212676
30
-5.5511151231257827e-16
10
-0.61346309340761551
20
-8.4523906783912643
30
-5.5511151231257827e-16
0
LINE
5
112
100
AcDbEntity
8
0
100
AcDbLine
10
-7.870223604422657
20
-1.9835866836930929
30
-5.5511151231257827e-16
11
-8.2174569947906111
21
-2.0718822002662667
31
0
0
ARC
5
113
100
AcDbEntity
8
0
100
AcDbCircle
10
7.9618662573143872
20
1.6199600445707332
30
-7.5265054236196229e-47
40
0.37500000000000044
210
0
220
0
230
1
100
AcDbArc
50
104.14601070797305
51
191.44250227753625
0
ARC
5
114
100
AcDbEntity
8
0
100
AcDbCircle
10
0.0001944256204512623
20
-0.001115915894854803
30
0
40
10.00000000000238
210
0
220
0
230
1
100
AcDbArc
50
278.04970259861614
51
281.95029740138369
0
LINE
5
115
100
AcDbEntity
8
0
100
AcDbLine
10
2.2172707660386042
20
7.8076061612016732
30
3.0790249460262089e-47
11
2.3144213008293892
21
8.152466856587731
31
0
0
SPLINE
5
116
100
AcDbEntity
8
0
100
AcDbSpline
70
0
71
3
72
8
73
4
74
0
42
0.000000001
43
0.0000000001
44
0.0000000001
40
0
40
0
40
0
40
0
40
1
40
1
40
1
40
1
10
-3.7162280067426168
20
-8.0657890826082674
30
0
10
-3.5578627646116168
20
-7.8920871658062675
30
0
10
-3.4886836367816154
20
-7.7732823257062655
30
0
10
-3.467355087191617
20
-7.7328332138352671
30
0
0
ARC
5
117
100
AcDbEntity
8
0
100
AcDbCircle
10
-7.1404374687576153
20
-3.8768289805672662
30
-1.3684555315672042e-46
40
0.37499999999999895
210
0
220
-0
230
1
100
AcDbArc
50
28.557497722551375
51
115.8539892921013
0
SPLINE
5
118
100
AcDbEntity
8
0
100
AcDbSpline
70
0
71
3
72
8
73
4
74
0
42
0.000000001
43
0.0000000001
44
0.0000000001
40
0
40
0
40
0
40
0
40
1
40
1
40
1
40
1
10
-3.7162280067426123
20
8.0657909698817338
30
0
10
-3.9063972948446128
20
8.2729002215137335
30
0
10
-4.2175749478396094
20
8.5484577043747336
30
0
10
-4.702942752516611
20
8.8263831566787339
30
0
0
ARC
5
119
100
AcDbEntity
8
0
100
AcDbCircle
10
-0.0010682018114551372
20
0.0003888248820186973
30
0
40
10.000000000001263
210
0
220
0
230
1
100
AcDbArc
50
158.04970259861096
51
161.95029740138463
0
ARC
5
120
100
AcDbEntity
8
0
100
AcDbCircle
10
-2.5780111544296163
20
-7.705159218193268
30
-6.8422776578360184e-48
40
0.37500000000000078
210
0
220
0
230
1
100
AcDbArc
50
-15.853989292126776
51
71.442502277556628
0
SPLINE
5
121
100
AcDbEntity
8
0
100
AcDbSpline
70
0
71
3
72
8
73
4
74
0
42
0.000000001
43
0.0000000001
44
0.0000000001
40
0
40
0
40
0
40
0
40
1
40
1
40
1
40
1
10
2.3377934907843847
20
-8.5674963914662676
30
1.1102230246251563e-15
10
2.3474548646023847
20
-8.3326377878942672
30
1.1102230246251563e-15
10
2.3240828718693844
20
-8.1971605141012649
30
1.1102230246251563e-15
10
2.3144213008293848
20
-8.1524649693142646
30
1.1102230246251563e-15
0
SPLINE
5
122
100
AcDbEntity
8
0
100
AcDbSpline
70
0
71
3
72
8
73
4
74
0
42
0.000000001
43
0.0000000001
44
0.0000000001
40
0
40
0
40
0
40
0
40
1
40
1
40
1
40
1
10
7.4381162475543894
20
6.6855868805927363
30
-1.1102230246251563e-15
10
6.8869636001013923
20
6.5904279500557328
30
0
10
6.5003060460463891
20
6.4379176422857363
30
0
10
6.2507698333893877
20
6.3083403340037325
30
0
0
SPLINE
5
123
100
AcDbEntity
8
0
100
AcDbSpline
70
0
71
3
72
8
73
4
74
0
42
0.000000001
43
0.0000000001
44
0.0000000001
40
0
40
0
40
0
40
0
40
1
40
1
40
1
40
1
10
7.8756301242673867
20
-6.1641762589372684
30
0
10
7.6862102188593866
20
-5.6379210335092669
30
0
10
7.4688745057103878
20
-5.2836208135332665
30
0
10
7.297934259310388
20
-5.0603764801022679
30
0
0
ARC
5
124
100
AcDbEntity
8
0
100
AcDbCircle
10
-5.3838626234306126
20
6.0852020045327313
30
-1.4539840022901544e-46
40
0.37499999999999711
210
0
220
0
230
1
100
AcDbArc
50
224.14601070791721
51
311.44250227750592
0
ARC
5
125
100
AcDbEntity
8
0
100
AcDbCircle
10
5.0578531785013894
20
6.3587522025417353
30
-1.0776587311091733e-46
40
0.37500000000000178
210
0
220
0
230
1
100
AcDbArc
50
144.14601070796445
51
231.4425022776083
0
ARC
5
126
100
AcDbEntity
8
0
100
AcDbCircle
10
0.00019442562044206285
20
0.0011178031682661973
30
0
40
10.000000000002681
210
0
220
-0
230
1
100
AcDbArc
50
78.049702598616463
51
81.950297401383708
0
ARC
5
127
100
AcDbEntity
8
0
100
AcDbCircle
10
0.00056453759850906245
20
-0.00098120615586430289
30
0
40
9.9999999999981419
210
0
220
0
230
1
100
AcDbArc
50
298.04970259861261
51
301.95029740138921
0
LINE
5
128
100
AcDbEntity
8
0
100
AcDbLine
10
4.9631520266033844
20
-6.8692315535542665
30
0
11
4.7539110814903172
21
-6.5783959427333158
31
-4.2764235361475135e-47
0
SPLINE
5
129
100
AcDbEntity
8
0
100
AcDbSpline
70
0
71
3
72
8
73
4
74
0
42
0.000000001
43
0.0000000001
44
0.0000000001
40
0
40
0
40
0
40
0
40
1
40
1
40
1
40
1
10
5.1270638075243848
20
-7.2512397585862685
30
0
10
5.0558161559523853
20
-7.0272404774232688
30
0
10
4.9875177102483859
20
-6.9079271752602667
30
0
10
4.9631520266033844
20
-6.8692315535542665
30
0
0
ARC
5
130
100
AcDbEntity
8
0
100
AcDbCircle
10
-8.0357704760816127
20
1.2008568263727328
30
2.7369110631344083e-47
40
0.37499999999944456
210
0
220
0
230
1
100
AcDbArc
50
264.14601070785858
51
351.44250227762029
0
LINE
5
131
100
AcDbEntity
8
0
100
AcDbLine
10
8.4305046069463874
20
0.86360260391873345
30
0
11
8.0740131070944408
21
0.82781243534918114
31
2.6963019221421302e-32
0
LINE
5
132
100
AcDbEntity
8
0
100
AcDbLine
10
3.4673500734943898
20
7.7328351011087326
30
0
11
3.3200995187549709
21
7.4062093217194747
31
3.2158704991829294e-46
0
LINE
5
133
100
AcDbEntity
8
0
100
AcDbLine
10
7.0132530672823856
20
-4.757467319557267
30
-5.5511151231257778e-16
11
6.7171592578972694
21
-4.5557358602444413
31
-5.5511151231257827e-16
0
SPLINE
5
134
100
AcDbEntity
8
0
100
AcDbSpline
70
0
71
3
72
8
73
4
74
0
42
0.000000001
43
0.0000000001
44
0.0000000001
40
0
40
0
40
0
40
0
40
1
40
1
40
1
40
1
10
8.843289307418388
20
0.81455026765973326
30
0
10
8.6136764137163873
20
0.86484763202073323
30
0
10
8.4761988401813877
20
0.86535609408273317
30
0
10
8.4305046069463874
20
0.86360260391873345
30
0
0
ARC
5
135
100
AcDbEntity
8
0
100
AcDbCircle
10
-7.9618712710116135
20
-1.6199581572972677
30
-5.5511151231257827e-16
40
0.37500000000000039
210
0
220
0
230
1
100
AcDbArc
50
-75.853989292026924
51
11.442502277542433
0
LINE
5
136
100
AcDbEntity
8
0
100
AcDbLine
10
-4.9631570403006124
20
6.8692334408277329
30
0
11
-4.7539160951875452
21
6.5783978300067849
31
-7.4409769528966727e-47
0
SPLINE
5
137
100
AcDbEntity
8
0
100
AcDbSpline
70
0
71
3
72
8
73
4
74
0
42
0.000000001
43
0.0000000001
44
0.0000000001
40
0
40
0
40
0
40
0
40
1
40
1
40
1
40
1
10
-5.1270688212216156
20
-7.2512397585862685
30
0
10
-5.2113460504416151
20
-7.5194858189172677
30
0
10
-5.2943970043046162
20
-7.9267523129322681
30
0
10
-5.2924036040206159
20
-8.4860558881132668
30
0
0
LINE
5
138
100
AcDbEntity
8
0
100
AcDbLine
10
8.2174519810933848
20
-2.0718822002662667
30
0
11
7.8702185907254307
21
-1.9835866836930929
31
1.984260520772446e-46
0
SPLINE
5
139
100
AcDbEntity
8
0
100
AcDbSpline
70
0
71
3
72
8
73
4
74
0
42
0.000000001
43
0.0000000001
44
0.0000000001
40
0
40
0
40
0
40
0
40
1
40
1
40
1
40
1
10
-2.3144263145266155
20
-8.1524649693142646
30
-5.5511151231257827e-16
10
-2.3240878855666152
20
-8.1971605141012649
30
-5.5511151231257827e-16
10
-2.3474598782996154
20
-8.3326377878942672
30
-5.5511151231257827e-16
10
-2.3377985044816154
20
-8.5674963914662676
30
-5.5511151231257827e-16
0
ARC
5
140
100
AcDbEntity
8
0
100
AcDbCircle
10
5.0578531785013858
20
-6.3587503152682689
30
-4.2764235361475135e-47
40
0.37499999999999967
210
0
220
0
230
1
100
AcDbArc
50
128.55749772239798
51
215.85398929203569
0
ARC
5
141
100
AcDbEntity
8
0
100
AcDbCircle
10
-2.5068486131374361e-06
20
9.436367331971952e-07
30
0
40
7.750000000000405
210
0
220
-0
230
1
100
AcDbArc
50
88.496503585905572
51
91.503496414094485
0
SPLINE
5
142
100
AcDbEntity
8
0
100
AcDbSpline
70
0
71
3
72
8
73
4
74
0
42
0.000000001
43
0.0000000001
44
0.0000000001
40
0
40
0
40
0
40
0
40
1
40
1
40
1
40
1
10
8.588565831022386
20
-2.259157001099267
30
0
10
8.3900030009403874
20
-2.1333607041512668
30
0
10
8.260990243834387
20
-2.085862806698267
30
0
10
8.2174519810933848
20
-2.0718822002662667
30
0
0
SPLINE
5
143
100
AcDbEntity
8
0
100
AcDbSpline
70
0
71
3
72
8
73
4
74
0
42
0.000000001
43
0.0000000001
44
0.0000000001
40
0
40
0
40
0
40
0
40
1
40
1
40
1
40
1
10
5.9030281734143859
20
-6.0805818254122679
30
0
10
5.9369048651163858
20
-6.1112967637662674
30
0
10
6.0425456294893864
20
-6.199276140106269
30
0
10
6.2507698333893869
20
-6.3083384467302679
30
0
0
LINE
5
144
100
AcDbEntity
8
0
100
AcDbLine
10
7.3039621806413457
20
-3.5393633840223506
30
1.1102230246251563e-15
11
7.6267136538413869
21
-3.6949224151962667
31
0
0
SPLINE
5
145
100
AcDbEntity
8
0
100
AcDbSpline
70
0
71
3
72
8
73
4
74
0
42
0.000000001
43
0.0000000001
44
0.0000000001
40
0
40
0
40
0
40
0
40
1
40
1
40
1
40
1
10
5.1270638075243893
20
7.251241645859734
30
0
10
5.2113410367443889
20
7.519487706190735
30
0
10
5.29439199060739
20
7.9267542002057345
30
0
10
5.2923985903233897
20
8.4860577753867332
30
0
0
SPLINE
5
146
100
AcDbEntity
8
0
100
AcDbSpline
70
0
71
3
72
8
73
4
74
0
42
0.000000001
43
0.0000000001
44
0.0000000001
40
0
40
0
40
0
40
0
40
1
40
1
40
1
40
1
10
-7.297939273007616
20
-5.0603764801022679
30
0
10
-7.4688795194076167
20
-5.2836208135332665
30
-5.5511151231257827e-16
10
-7.6862152325566147
20
-5.6379210335092669
30
0
10
-7.8756351379646148
20
-6.1641762589372684
30
0
0
SPLINE
5
147
100
AcDbEntity
8
0
100
AcDbSpline
70
0
71
3
72
8
73
4
74
0
42
0.000000001
43
0.0000000001
44
0.0000000001
40
0
40
0
40
0
40
0
40
1
40
1
40
1
40
1
10
-5.1270688212216111
20
7.251241645859734
30
0
10
-5.0558211696496116
20
7.0272423646967352
30
0
10
-4.9875227239456121
20
6.9079290625337331
30
0
10
-4.9631570403006124
20
6.8692334408277329
30
0
0
SPLINE
5
148
100
AcDbEntity
8
0
100
AcDbSpline
70
0
71
3
72
8
73
4
74
0
42
0.000000001
43
0.0000000001
44
0.0000000001
40
0
40
0
40
0
40
0
40
1
40
1
40
1
40
1
10
2.3144213008293892
20
8.152466856587731
30
0
10
2.3240828718693889
20
8.1971624013747331
30
0
10
2.3474548646023887
20
8.3326396751677336
30
0
10
2.3377934907843887
20
8.567498278739734
30
0
0
ARC
5
149
100
AcDbEntity
8
0
100
AcDbCircle
10
6.9276481746183904
20
-4.2453821653452666
30
-5.5511151231257827e-16
40
0.3750000000000025
210
1.2629365332520471e-15
220
-7.7218625036829758e-16
230
1
100
AcDbArc
50
148.55749772238323
51
235.85398929202165
0
LINE
5
150
100
AcDbEntity
8
0
100
AcDbLine
10
5.6529453178386468
20
-5.8240166465980137
30
-6.8422776578360184e-48
11
5.9030281734143859
21
-6.0805818254122679
31
0
0
ARC
5
151
100
AcDbEntity
8
0
100
AcDbCircle
10
0.21278177359338776
20
8.1222139768227368
30
1.7789921910373654e-46
40
0.3750000000000025
210
-1.1942376764456591e-47
220
-4.7424757655667899e-46
230
1
100
AcDbArc
50
268.55749772250812
51
355.85398929202103
0
ARC
5
152
100
AcDbEntity
8
0
100
AcDbCircle
10
-2.5068486131374361e-06
20
9.436367331971952e-07
30
0
40
7.7499999999999405
210
0
220
-0
230
1
100
AcDbArc
50
48.496503585904456
51
51.503496414094187
0
LINE
5
153
100
AcDbEntity
8
0
100
AcDbLine
10
4.7539110814903189
20
6.5783978300067822
30
-1.0776587311091733e-46
11
4.9631520266033915
21
6.8692334408277329
31
-1.5407439555097887e-32
0
ARC
5
154
100
AcDbEntity
8
0
100
AcDbCircle
10
7.1404324550603882
20
-3.8768289805672689
30
1.1102230246251563e-15
40
0.37500000000000194
210
0
220
-0
230
1
100
AcDbArc
50
64.146010707898895
51
151.4425022774501
0
ARC
5
155
100
AcDbEntity
8
0
100
AcDbCircle
10
-8.0357704760816127
20
-1.2008549390992675
30
-5.5511151231257837e-16
40
0.37500000000000044
210
0
220
-0
230
1
100
AcDbArc
50
8.5574977223833262
51
95.853989292141193
0
ARC
5
156
100
AcDbEntity
8
0
100
AcDbCircle
10
-7.1404374687576144
20
3.8768308678407335
30
-5.1317082433770156e-47
40
0.37500000000000089
210
0
220
0
230
1
100
AcDbArc
50
244.14601070789882
51
331.44250227745107
0
SPLINE
5
157
100
AcDbEntity
8
0
100
AcDbSpline
70
0
71
3
72
8
73
4
74
0
42
0.000000001
43
0.0000000001
44
0.0000000001
40
0
40
0
40
0
40
0
40
1
40
1
40
1
40
1
10
-8.5885708447196141
20
-2.259157001099267
30
0
10
-8.8255561917736163
20
-2.4104730462832662
30
0
10
-9.1509627696696167
20
-2.6690731567752675
30
0
10
-9.5089491446386152
20
-3.0988058855642664
30
0
0
ARC
5
158
100
AcDbEntity
8
0
100
AcDbCircle
10
-0.00019943931767673722
20
0.0011178031683421977
30
0
40
10.000000000002361
210
0
220
0
230
1
100
AcDbArc
50
98.049702598616122
51
101.95029740138351
0
ARC
5
159
100
AcDbEntity
8
0
100
AcDbCircle
10
-0.21278678729061015
20
8.1222139768227368
30
-1.3577644727268354e-47
40
0.37500000000000144
210
0
220
0
230
1
100
AcDbArc
50
184.14601070797846
51
271.44250227749041
0
ARC
5
160
100
AcDbEntity
8
0
100
AcDbCircle
10
2.5780061407323847
20
-7.7051592181932671
30
2.3947971802426073e-47
40
0.37499999999999989
210
0
220
0
230
1
100
AcDbArc
50
108.55749772244212
51
195.85398929212693
0
LINE
5
161
100
AcDbEntity
8
0
100
AcDbLine
10
-7.303967194338572
20
3.5393652712958157
30
-5.1317082433770156e-47
11
-7.6267186675386123
21
3.6949243024697331
31
-5.5511151231257827e-16
0
SPLINE
5
162
100
AcDbEntity
8
0
100
AcDbSpline
70
0
71
3
72
8
73
4
74
0
42
0.000000001
43
0.0000000001
44
0.0000000001
40
0
40
0
40
0
40
0
40
1
40
1
40
1
40
1
10
-7.875635137964613
20
6.1641781462107348
30
0
10
-7.6862152325566147
20
5.6379229207827333
30
0
10
-7.4688795194076141
20
5.2836227008067329
30
0
10
-7.2979392730076142
20
5.0603783673757343
30
0
0
ARC
5
163
100
AcDbEntity
8
0
100
AcDbCircle
10
-0.00019943931767733768
20
-0.001115915894854803
30
0
40
10.000000000002622
210
0
220
0
230
1
100
AcDbArc
50
258.04970259861648
51
261.95029740138392
0
SPLINE
5
164
100
AcDbEntity
8
0
100
AcDbSpline
70
0
71
3
72
8
73
4
74
0
42
0.000000001
43
0.0000000001
44
0.0000000001
40
0
40
0
40
0
40
0
40
1
40
1
40
1
40
1
10
-2.0708303902346108
20
9.7843937097937328
30
-5.5511151231257827e-16
10
-2.2639966627186108
20
9.2595020504677308
30
0
10
-2.3252476388796111
20
8.8483916322057308
30
0
10
-2.337798504481611
20
8.567498278739734
30
0
0
ARC
5
165
100
AcDbEntity
8
0
100
AcDbCircle
10
2.9779097770343905
20
7.5596080852777314
30
3.2158704991829294e-46
40
0.37500000000000033
210
0
220
0
230
1
100
AcDbArc
50
248.55749772238443
51
335.85398929208912
0
LINE
5
166
100
AcDbEntity
8
0
100
AcDbLine
10
-7.0132580809796119
20
4.7574692068307325
30
0
11
-6.7171642715944957
21
4.5557377475179086
31
-5.5511151231257827e-16
0
SPLINE
5
167
100
AcDbEntity
8
0
100
AcDbSpline
70
0
71
3
72
8
73
4
74
0
42
0.000000001
43
0.0000000001
44
0.0000000001
40
0
40
0
40
0
40
0
40
1
40
1
40
1
40
1
10
0.73344451176738923
20
8.8503882902127309
30
0
10
0.64403941682838906
20
8.6329977779657305
30
0
10
0.61966594933238905
20
8.497697091194734
30
0
10
0.61345807971038935
20
8.452392565664729
30
0
0
ARC
5
168
100
AcDbEntity
8
0
100
AcDbCircle
10
2.5780061407323891
20
7.7051611054667344
30
3.0790249460262089e-47
40
0.37500000000000022
210
0
220
0
230
1
100
AcDbArc
50
164.14601070787324
51
251.44250227755933
0
LINE
5
169
100
AcDbEntity
8
0
100
AcDbLine
10
-0.61346309340761551
20
-8.4523906783912643
30
-5.5511151231257827e-16
11
-0.5868054295922247
21
-8.0951001879032951
31
-5.5511151231257827e-16
0
ARC
5
170
100
AcDbEntity
8
0
100
AcDbCircle
10
-0.00056955129576153772
20
-0.00098120615590600304
30
0
40
9.9999999999986073
210
0
220
0
230
1
100
AcDbArc
50
238.04970259861082
51
241.95029740138733
0
ARC
5
171
100
AcDbEntity
8
0
100
AcDbCircle
10
0.0010631881142658625
20
-0.00038693760855880281
30
0
40
10.000000000001227
210
0
220
0
230
1
100
AcDbArc
50
338.04970259861091
51
341.95029740138472
0
LINE
5
172
100
AcDbEntity
8
0
100
AcDbLine
10
-2.2172757797358309
20
-7.8076042739282068
30
-6.8422776578360184e-48
11
-2.3144263145266155
21
-8.1524649693142646
31
-5.5511151231257827e-16
0
LINE
5
173
100
AcDbEntity
8
0
100
AcDbLine
10
-4.7539160951875452
20
-6.5783959427333185
30
3.6352941013141476e-47
11
-4.9631570403006151
21
-6.8692315535542665
31
0
0
SPLINE
5
174
100
AcDbEntity
8
0
100
AcDbSpline
70
0
71
3
72
8
73
4
74
0
42
0.000000001
43
0.0000000001
44
0.0000000001
40
0
40
0
40
0
40
0
40
1
40
1
40
1
40
1
10
-4.9631570403006151
20
-6.8692315535542665
30
0
10
-4.9875227239456157
20
-6.9079271752602667
30
0
10
-5.0558211696496169
20
-7.0272404774232688
30
0
10
-5.1270688212216156
20
-7.2512397585862685
30
0
0
SPLINE
5
175
100
AcDbEntity
8
0
100
AcDbSpline
70
0
71
3
72
8
73
4
74
0
42
0.000000001
43
0.0000000001
44
0.0000000001
40
0
40
0
40
0
40
0
40
1
40
1
40
1
40
1
10
-8.4305096206436136
20
0.86360260391873345
30
0
10
-8.476203853878614
20
0.86535609408273317
30
0
10
-8.6136814274136135
20
0.86484763202073323
30
0
10
-8.8432943211156143
20
0.81455026765973326
30
0
0
SPLINE
5
176
100
AcDbEntity
8
0
100
AcDbSpline
70
0
71
3
72
8
73
4
74
0
42
0.000000001
43
0.0000000001
44
0.0000000001
40
0
40
0
40
0
40
0
40
1
40
1
40
1
40
1
10
-7.0132580809796163
20
-4.757467319557267
30
0
10
-7.049389016184616
20
-4.7854957551192667
30
0
10
-7.154376114329617
20
-4.8742541405342665
30
-5.5511151231257827e-16
10
-7.297939273007616
20
-5.0603764801022679
30
0
0
ARC
5
177
100
AcDbEntity
8
0
100
AcDbCircle
10
-7.9618712710116144
20
1.6199600445707329
30
6.5001637749442208e-47
40
0.37500000000000111
210
0
220
0
230
1
100
AcDbArc
50
-11.442502277535274
51
75.853989292026839
0
SPLINE
5
178
100
AcDbEntity
8
0
100
AcDbSpline
70
0
71
3
72
8
73
4
74
0
42
0.000000001
43
0.0000000001
44
0.0000000001
40
0
40
0
40
0
40
0
40
1
40
1
40
1
40
1
10
-0.61346309340761118
20
8.452392565664729
30
0
10
-0.619670963029611
20
8.497697091194734
30
0
10
-0.64404443052561089
20
8.6329977779657305
30
0
10
-0.73344952546461106
20
8.8503882902127309
30
0
0
SPLINE
5
179
100
AcDbEntity
8
0
100
AcDbSpline
70
0
71
3
72
8
73
4
74
0
42
0.000000001
43
0.0000000001
44
0.0000000001
40
0
40
0
40
0
40
0
40
1
40
1
40
1
40
1
10
-8.8432943211156143
20
0.81455026765973326
30
0
10
-9.117740838437614
20
0.75341345895973311
30
0
10
-9.5119694452966108
20
0.6217044478057332
30
0
10
-9.9953438496886129
20
0.34032632492873333
30
0
0
LINE
5
180
100
AcDbEntity
8
0
100
AcDbLine
10
7.8702185907254307
20
1.9835885709665591
30
-7.5265054236196229e-47
11
8.2174519810933848
21
2.0718840875397326
31
-5.5511151231257827e-16
0
SPLINE
5
181
100
AcDbEntity
8
0
100
AcDbSpline
70
0
71
3
72
8
73
4
74
0
42
0.000000001
43
0.0000000001
44
0.0000000001
40
0
40
0
40
0
40
0
40
1
40
1
40
1
40
1
10
9.2761478595673896
20
3.7384102717707335
30
-5.5511151231257827e-16
10
8.7256875127683902
20
3.837495434418734
30
0
10
8.3101866651283878
20
3.8264272956697343
30
-5.5511151231257827e-16
10
8.0313812779263927
20
3.7900108664737342
30
0
0
SPLINE
5
182
100
AcDbEntity
8
0
100
AcDbSpline
70
0
71
3
72
8
73
4
74
0
42
0.000000001
43
0.0000000001
44
0.0000000001
40
0
40
0
40
0
40
0
40
1
40
1
40
1
40
1
10
8.2174519810933848
20
2.0718840875397326
30
1.1102230246251563e-15
10
8.260990243834387
20
2.0858646939717334
30
-5.5511151231257827e-16
10
8.3900030009403874
20
2.1333625914247327
30
-5.5511151231257827e-16
10
8.5885658310223878
20
2.2591588883727334
30
-5.5511151231257827e-16
0
LINE
5
183
100
AcDbEntity
8
0
100
AcDbLine
10
7.6267136538413869
20
3.6949243024697331
30
-5.5511151231257827e-16
11
7.3039621806413457
21
3.5393652712958161
31
-5.5511151231257827e-16
0
SPLINE
5
184
100
AcDbEntity
8
0
100
AcDbSpline
70
0
71
3
72
8
73
4
74
0
42
0.000000001
43
0.0000000001
44
0.0000000001
40
0
40
0
40
0
40
0
40
1
40
1
40
1
40
1
10
8.5885658310223878
20
2.2591588883727334
30
-5.5511151231257827e-16
10
8.82555117807639
20
2.410474933556733
30
-5.5511151231257827e-16
10
9.1509577559723869
20
2.6690750440487339
30
-5.5511151231257827e-16
10
9.5089441309413907
20
3.0988077728377328
30
-5.5511151231257827e-16
0
SPLINE
5
185
100
AcDbEntity
8
0
100
AcDbSpline
70
0
71
3
72
8
73
4
74
0
42
0.000000001
43
0.0000000001
44
0.0000000001
40
0
40
0
40
0
40
0
40
1
40
1
40
1
40
1
10
8.0313812779263927
20
3.7900108664737342
30
0
10
7.798413024309391
20
3.7587426937947339
30
-5.5511151231257827e-16
10
7.6690524586683884
20
3.712200392438735
30
-5.5511151231257827e-16
10
7.6267136538413869
20
3.6949243024697331
30
-5.5511151231257827e-16
0
ARC
5
186
100
AcDbEntity
8
0
100
AcDbCircle
10
6.9276481746183913
20
4.2453840526187321
30
2.0526832973508067e-47
40
0.3750000000000025
210
0
220
0
230
1
100
AcDbArc
50
124.14601070797771
51
211.44250227761512
0
LINE
5
187
100
AcDbEntity
8
0
100
AcDbLine
10
6.717159257897273
20
4.5557377475179104
30
2.0526832973508067e-47
11
7.0132530672823901
21
4.7574692068307325
31
-5.5511151231257827e-16
0
ARC
5
188
100
AcDbEntity
8
0
100
AcDbCircle
10
7.140432455060389
20
3.8768308678407335
30
-5.4738221262688167e-47
40
0.375
210
0
220
0
230
1
100
AcDbArc
50
208.55749772255169
51
295.85398929210106
0
ARC
5
189
100
AcDbEntity
8
0
100
AcDbCircle
10
-2.5068486131374361e-06
20
9.436367331971952e-07
30
0
40
7.7500000000001741
210
6.2072876575636525e-48
220
3.3697917675270464e-48
230
1
100
AcDbArc
50
28.496503585902399
51
31.503496414090449
0
SPLINE
5
190
100
AcDbEntity
8
0
100
AcDbSpline
70
0
71
3
72
8
73
4
74
0
42
0.000000001
43
0.0000000001
44
0.0000000001
40
0
40
0
40
0
40
0
40
1
40
1
40
1
40
1
10
7.0132530672823901
20
4.7574692068307325
30
0
10
7.0493840024873897
20
4.7854976423927331
30
0
10
7.1543711006323907
20
4.8742560278077329
30
0
10
7.2979342593103889
20
5.0603783673757343
30
0
0
ARC
5
191
100
AcDbEntity
8
0
100
AcDbCircle
10
7.9618662573143872
20
-1.6199581572972677
30
1.984260520772446e-46
40
0.37499999999999978
210
0
220
0
230
1
100
AcDbArc
50
168.55749772246406
51
255.85398929202691
0
LINE
5
192
100
AcDbEntity
8
0
100
AcDbLine
10
-8.0740181207916137
20
0.82781243534973292
30
2.7369110631344083e-47
11
-8.4305096206436136
21
0.86360260391873345
31
0
0
ARC
5
193
100
AcDbEntity
8
0
100
AcDbCircle
10
2.9779097770343861
20
-7.5596061980042677
30
-5.5511151231257827e-16
40
0.37499999999999878
210
0
220
-0
230
1
100
AcDbArc
50
24.146010707911305
51
111.44250227761958
0
ARC
5
194
100
AcDbEntity
8
0
100
AcDbCircle
10
-2.5068486131374361e-06
20
9.436367331971952e-07
30
0
40
7.7499999999998597
210
0
220
0
230
1
100
AcDbArc
50
248.49650358590577
51
251.50349641409287
0
SPLINE
5
195
100
AcDbEntity
8
0
100
AcDbSpline
70
0
71
3
72
8
73
4
74
0
42
0.000000001
43
0.0000000001
44
0.0000000001
40
0
40
0
40
0
40
0
40
1
40
1
40
1
40
1
10
-7.4381212612516157
20
-6.685584993319269
30
0
10
-6.8869686137986186
20
-6.5904260627822664
30
0
10
-6.5003110597436153
20
-6.437915755012269
30
0
10
-6.2507748470866131
20
-6.3083384467302679
30
0
0
LINE
5
196
100
AcDbEntity
8
0
100
AcDbLine
10
5.9030281734143895
20
6.0805837126857343
30
0
11
5.6529453178386486
21
5.8240185338714809
31
-2.3111159332646836e-32
0
ARC
5
197
100
AcDbEntity
8
0
100
AcDbCircle
10
-6.9276531883156096
20
4.2453840526187339
30
-5.5511151231257827e-16
40
0.37499999999999833
210
0
220
0
230
1
100
AcDbArc
50
-31.442502277617947
51
55.853989292022554
0
SPLINE
5
198
100
AcDbEntity
8
0
100
AcDbSpline
70
0
71
3
72
8
73
4
74
0
42
0.000000001
43
0.0000000001
44
0.0000000001
40
0
40
0
40
0
40
0
40
1
40
1
40
1
40
1
10
-7.6267186675386123
20
3.6949243024697331
30
-5.5511151231257827e-16
10
-7.669057472365612
20
3.712200392438735
30
-5.5511151231257827e-16
10
-7.798418038006611
20
3.7587426937947339
30
-5.5511151231257827e-16
10
-8.0313862916236154
20
3.7900108664737342
30
0
0
SPLINE
5
199
100
AcDbEntity
8
0
100
AcDbSpline
70
0
71
3
72
8
73
4
74
0
42
0.000000001
43
0.0000000001
44
0.0000000001
40
0
40
0
40
0
40
0
40
1
40
1
40
1
40
1
10
6.2507698333893869
20
-6.3083384467302679
30
0
10
6.5003060460463855
20
-6.437915755012269
30
0
10
6.8869636001013852
20
-6.5904260627822664
30
0
10
7.4381162475543885
20
-6.685584993319269
30
0
0
ARC
5
200
100
AcDbEntity
8
0
100
AcDbCircle
10
-5.0578581921986085
20
6.3587522025417353
30
-7.4409769528966727e-47
40
0.37499999999999706
210
0
220
0
230
1
100
AcDbArc
50
-51.442502277602813
51
35.853989292036509
0
ARC
5
201
100
AcDbEntity
8
0
100
AcDbCircle
10
-2.5068486131374361e-06
20
9.436367331971952e-07
30
0
40
7.7500000000001741
210
-1.5518219143909129e-47
220
-8.424479418817617e-48
230
1
100
AcDbArc
50
208.49650358590239
51
211.50349641409005
0
ARC
5
202
100
AcDbEntity
8
0
100
AcDbCircle
10
8.0357654623843864
20
-1.2008549390992671
30
5.4738221262688167e-47
40
0.37500000000000067
210
0
220
-0
230
1
100
AcDbArc
50
84.146010707858537
51
171.44250227761589
0
CIRCLE
5
203
100
AcDbEntity
8
0
100
AcDbCircle
10
-2.5068486131374361e-06
20
9.436367331971952e-07
30
0
40
5
210
0
220
0
230
1
0
SPLINE
5
204
100
AcDbEntity
8
0
100
AcDbSpline
70
0
71
3
72
8
73
4
74
0
42
0.000000001
43
0.0000000001
44
0.0000000001
40
0
40
0
40
0
40
0
40
1
40
1
40
1
40
1
10
9.5089441309413907
20
-3.0988058855642664
30
0
10
9.1509577559723869
20
-2.6690731567752675
30
0
10
8.8255511780763882
20
-2.4104730462832662
30
0
10
8.588565831022386
20
-2.259157001099267
30
0
0
ARC
5
205
100
AcDbEntity
8
0
100
AcDbCircle
10
-2.5068486131374361e-06
20
9.436367331971952e-07
30
0
40
7.7500000000000107
210
-2.5089054969616347e-47
220
5.1060203504661193e-48
230
1
100
AcDbArc
50
348.4965035859052
51
351.50349641409497
0
SPLINE
5
206
100
AcDbEntity
8
0
100
AcDbSpline
70
0
71
3
72
8
73
4
74
0
42
0.000000001
43
0.0000000001
44
0.0000000001
40
0
40
0
40
0
40
0
40
1
40
1
40
1
40
1
10
-3.467355087191613
20
7.7328351011087326
30
0
10
-3.4886836367816114
20
7.7732842129797319
30
0
10
-3.5578627646116123
20
7.8920890530797347
30
0
10
-3.7162280067426123
20
8.0657909698817338
30
0
0
SPLINE
5
207
100
AcDbEntity
8
0
100
AcDbSpline
70
0
71
3
72
8
73
4
74
0
42
0.000000001
43
0.0000000001
44
0.0000000001
40
0
40
0
40
0
40
0
40
1
40
1
40
1
40
1
10
-6.2507748470866131
20
-6.3083384467302679
30
0
10
-6.0425506431866136
20
-6.199276140106269
30
0
10
-5.9369098788136139
20
-6.1112967637662674
30
0
10
-5.9030331871116148
20
-6.0805818254122679
30
0
0
SPLINE
5
208
100
AcDbEntity
8
0
100
AcDbSpline
70
0
71
3
72
8
73
4
74
0
42
0.000000001
43
0.0000000001
44
0.0000000001
40
0
40
0
40
0
40
0
40
1
40
1
40
1
40
1
10
-9.9953438496886129
20
-0.34032443765526688
30
0
10
-9.5119694452966108
20
-0.6217025605322668
30
0
10
-9.117740838437614
20
-0.75341157168626716
30
0
10
-8.8432943211156143
20
-0.81454838038626687
30
-5.5511151231257827e-16
0
SPLINE
5
209
100
AcDbEntity
8
0
100
AcDbSpline
70
0
71
3
72
8
73
4
74
0
42
0.000000001
43
0.0000000001
44
0.0000000001
40
0
40
0
40
0
40
0
40
1
40
1
40
1
40
1
10
3.4673500734943858
20
-7.7328332138352671
30
0
10
3.4886786230843847
20
-7.7732823257062655
30
0
10
3.5578577509143852
20
-7.8920871658062675
30
0
10
3.7162229930453861
20
-8.0657890826082674
30
-5.5511151231257827e-16
0
ARC
5
210
100
AcDbEntity
8
0
100
AcDbCircle
10
-2.9779147907316155
20
-7.5596061980042695
30
1.3000327549888442e-46
40
0.37499999999999867
210
1.2673320619659294e-46
220
3.2268022612905232e-46
230
1
100
AcDbArc
50
68.557497722385534
51
155.85398929208844
0
ARC
5
211
100
AcDbEntity
8
0
100
AcDbCircle
10
5.3838576097333881
20
6.0852020045327313
30
7.5265054236196229e-47
40
0.374999999999999
210
-1.328414397084137e-46
220
-1.5045389990630071e-46
230
1
100
AcDbArc
50
228.55749772249823
51
315.85398929208299
0
ARC
5
212
100
AcDbEntity
8
0
100
AcDbCircle
10
-5.0578581921986139
20
-6.3587503152682689
30
3.6352941013141476e-47
40
0.37500000000000089
210
0
220
0
230
1
100
AcDbArc
50
-35.853989292036019
51
51.442502277602578
0
ARC
5
213
100
AcDbEntity
8
0
100
AcDbCircle
10
-2.5068486131374361e-06
20
9.436367331971952e-07
30
0
40
7.7500000000000826
210
-9.8031188005956394e-49
220
2.9304376543284776e-48
230
1
100
AcDbArc
50
288.49650358590719
51
291.503496414094
0
LINE
5
214
100
AcDbEntity
8
0
100
AcDbLine
10
-0.58680542959222082
20
8.0951020751767651
30
-1.3577644727268354e-47
11
-0.61346309340761118
21
8.452392565664729
31
0
0
SPLINE
5
215
100
AcDbEntity
8
0
100
AcDbSpline
70
0
71
3
72
8
73
4
74
0
42
0.000000001
43
0.0000000001
44
0.0000000001
40
0
40
0
40
0
40
0
40
1
40
1
40
1
40
1
10
3.7162229930453923
20
8.0657909698817338
30
0
10
3.5578577509143905
20
7.8920890530797347
30
0
10
3.4886786230843891
20
7.7732842129797319
30
0
10
3.4673500734943898
20
7.7328351011087326
30
0
0
SPLINE
5
216
100
AcDbEntity
8
0
100
AcDbSpline
70
0
71
3
72
8
73
4
74
0
42
0.000000001
43
0.0000000001
44
0.0000000001
40
0
40
0
40
0
40
0
40
1
40
1
40
1
40
1
10
-4.7029427525166163
20
-8.8263812694052675
30
0
10
-4.2175749478396156
20
-8.548455817101269
30
0
10
-3.9063972948446168
20
-8.2728983342402671
30
0
10
-3.7162280067426168
20
-8.0657890826082674
30
0
0
SPLINE
5
217
100
AcDbEntity
8
0
100
AcDbSpline
70
0
71
3
72
8
73
4
74
0
42
0.000000001
43
0.0000000001
44
0.0000000001
40
0
40
0
40
0
40
0
40
1
40
1
40
1
40
1
10
-7.2979392730076142
20
5.0603783673757343
30
0
10
-7.1543761143296125
20
4.8742560278077329
30
0
10
-7.0493890161846151
20
4.7854976423927331
30
0
10
-7.0132580809796119
20
4.7574692068307325
30
0
0
ARC
5
218
100
AcDbEntity
8
0
100
AcDbCircle
10
-0.001068201811502138
20
-0.00038693760856060291
30
0
40
10.000000000001297
210
0
220
0
230
1
100
AcDbArc
50
198.04970259861531
51
201.95029740138887
0
ARC
5
219
100
AcDbEntity
8
0
100
AcDbCircle
10
-0.00056955129573803731
20
0.00098309342933069728
30
0
40
9.9999999999981437
210
0
220
0
230
1
100
AcDbArc
50
118.04970259861264
51
121.95029740138918
0
SPLINE
5
220
100
AcDbEntity
8
0
100
AcDbSpline
70
0
71
3
72
8
73
4
74
0
42
0.000000001
43
0.0000000001
44
0.0000000001
40
0
40
0
40
0
40
0
40
1
40
1
40
1
40
1
10
-2.3377985044816154
20
-8.5674963914662676
30
-5.5511151231257827e-16
10
-2.3252476388796155
20
-8.8483897449322644
30
-5.5511151231257827e-16
10
-2.2639966627186161
20
-9.2595001631942662
30
-5.5511151231257827e-16
10
-2.0708303902346161
20
-9.7843918225202664
30
0
0
SPLINE
5
221
100
AcDbEntity
8
0
100
AcDbSpline
70
0
71
3
72
8
73
4
74
0
42
0.000000001
43
0.0000000001
44
0.0000000001
40
0
40
0
40
0
40
0
40
1
40
1
40
1
40
1
10
4.7029377388193891
20
8.8263831566787339
30
1.1102230246251563e-15
10
4.2175699341423893
20
8.5484577043747336
30
0
10
3.906392281147391
20
8.2729002215137335
30
1.1102230246251563e-15
10
3.7162229930453923
20
8.0657909698817338
30
0
0
ARC
5
222
100
AcDbEntity
8
0
100
AcDbCircle
10
0.00056453759853876276
20
0.00098309342937059679
30
0
40
9.9999999999986073
210
0
220
-0
230
1
100
AcDbArc
50
58.049702598610828
51
61.950297401387381
0
ARC
5
223
100
AcDbEntity
8
0
100
AcDbCircle
10
-2.5068486131374361e-06
20
9.436367331971952e-07
30
0
40
7.7500000000000027
210
3.4347509755375775e-48
220
-4.3186146959355184e-48
230
1
100
AcDbArc
50
308.49650358590549
51
311.5034964140952
0
SPLINE
5
224
100
AcDbEntity
8
0
100
AcDbSpline
70
0
71
3
72
8
73
4
74
0
42
0.000000001
43
0.0000000001
44
0.0000000001
40
0
40
0
40
0
40
0
40
1
40
1
40
1
40
1
10
7.297934259310388
20
-5.0603764801022679
30
0
10
7.1543711006323862
20
-4.8742541405342665
30
1.1102230246251563e-15
10
7.0493840024873888
20
-4.7854957551192667
30
-5.5511151231257827e-16
10
7.0132530672823856
20
-4.757467319557267
30
-5.5511151231257827e-16
0
SPLINE
5
225
100
AcDbEntity
8
0
100
AcDbSpline
70
0
71
3
72
8
73
4
74
0
42
0.000000001
43
0.0000000001
44
0.0000000001
40
0
40
0
40
0
40
0
40
1
40
1
40
1
40
1
10
1.4005152284513891
20
9.9025874743437328
30
-5.5511151231257827e-16
10
1.0394747870603895
20
9.4754174115637309
30
-5.5511151231257827e-16
10
0.84130965256938917
20
9.1100490528397309
30
0
10
0.73344451176738923
20
8.8503882902127309
30
0
0
SPLINE
5
226
100
AcDbEntity
8
0
100
AcDbSpline
70
0
71
3
72
8
73
4
74
0
42
0.000000001
43
0.0000000001
44
0.0000000001
40
0
40
0
40
0
40
0
40
1
40
1
40
1
40
1
10
-0.73344952546461106
20
8.8503882902127309
30
0
10
-0.841314666266611
20
9.1100490528397309
30
0
10
-1.0394798007576107
20
9.4754174115637309
30
-5.5511151231257827e-16
10
-1.4005202421486107
20
9.9025874743437328
30
-5.5511151231257827e-16
0
SPLINE
5
227
100
AcDbEntity
8
0
100
AcDbSpline
70
0
71
3
72
8
73
4
74
0
42
0.000000001
43
0.0000000001
44
0.0000000001
40
0
40
0
40
0
40
0
40
1
40
1
40
1
40
1
10
4.9631520266033888
20
6.8692334408277329
30
0
10
4.9875177102483885
20
6.9079290625337331
30
0
10
5.0558161559523898
20
7.0272423646967352
30
0
10
5.1270638075243893
20
7.251241645859734
30
0
0
SPLINE
5
228
100
AcDbEntity
8
0
100
AcDbSpline
70
0
71
3
72
8
73
4
74
0
42
0.000000001
43
0.0000000001
44
0.0000000001
40
0
40
0
40
0
40
0
40
1
40
1
40
1
40
1
10
8.843289307418388
20
-0.81454838038626687
30
0
10
9.1177358247403877
20
-0.75341157168626716
30
-5.5511151231257827e-16
10
9.5119644315993863
20
-0.6217025605322668
30
0
10
9.9953388359913848
20
-0.34032443765526688
30
-5.5511151231257827e-16
0
SPLINE
5
229
100
AcDbEntity
8
0
100
AcDbSpline
70
0
71
3
72
8
73
4
74
0
42
0.000000001
43
0.0000000001
44
0.0000000001
40
0
40
0
40
0
40
0
40
1
40
1
40
1
40
1
10
6.2507698333893877
20
6.3083403340037325
30
0
10
6.0425456294893873
20
6.1992780273797363
30
0
10
5.9369048651163876
20
6.1112986510397338
30
0
10
5.9030281734143886
20
6.0805837126857343
30
0
0
ARC
5
230
100
AcDbEntity
8
0
100
AcDbCircle
10
8.0357654623843864
20
1.2008568263727324
30
-2.1553174622183466e-46
40
0.37499999999999784
210
0
220
0
230
1
100
AcDbArc
50
188.55749772238516
51
275.85398929214097
0
SPLINE
5
231
100
AcDbEntity
8
0
100
AcDbSpline
70
0
71
3
72
8
73
4
74
0
42
0.000000001
43
0.0000000001
44
0.0000000001
40
0
40
0
40
0
40
0
40
1
40
1
40
1
40
1
10
-5.9030331871116122
20
6.0805837126857343
30
0
10
-5.9369098788136121
20
6.1112986510397338
30
0
10
-6.0425506431866127
20
6.1992780273797363
30
0
10
-6.2507748470866131
20
6.3083403340037325
30
0
0
ARC
5
232
100
AcDbEntity
8
0
100
AcDbCircle
10
-5.3838626234306144
20
-6.0852001172592658
30
1.7105694144590054e-46
40
0.37499999999999833
210
0
220
-0
230
1
100
AcDbArc
50
48.557497722498212
51
135.8539892920827
0
LINE
5
233
100
AcDbEntity
8
0
100
AcDbLine
10
-8.4305096206436136
20
-0.86360071664526705
30
-5.5511151231257827e-16
11
-8.0740181207916688
21
-0.8278105480757143
31
-5.5511151231257837e-16
0
LINE
5
234
100
AcDbEntity
8
0
100
AcDbLine
10
-3.467355087191617
20
-7.7328332138352671
30
0
11
-3.3201045324521941
21
-7.4062074344460083
31
1.3000327549888442e-46
0
SPLINE
5
235
100
AcDbEntity
8
0
100
AcDbSpline
70
0
71
3
72
8
73
4
74
0
42
0.000000001
43
0.0000000001
44
0.0000000001
40
0
40
0
40
0
40
0
40
1
40
1
40
1
40
1
10
8.0313812779263891
20
-3.7900089792002678
30
1.1102230246251563e-15
10
8.3101866651283842
20
-3.8264254083962679
30
0
10
8.7256875127683884
20
-3.837493547145268
30
1.1102230246251563e-15
10
9.2761478595673843
20
-3.7384083844972671
30
0
0
SPLINE
5
236
100
AcDbEntity
8
0
100
AcDbSpline
70
0
71
3
72
8
73
4
74
0
42
0.000000001
43
0.0000000001
44
0.0000000001
40
0
40
0
40
0
40
0
40
1
40
1
40
1
40
1
10
2.0708253765373845
20
-9.7843918225202664
30
0
10
2.2639916490213845
20
-9.2595001631942662
30
-5.5511151231257827e-16
10
2.3252426251823848
20
-8.8483897449322644
30
-5.5511151231257827e-16
10
2.3377934907843847
20
-8.5674963914662676
30
1.1102230246251563e-15
0
SPLINE
5
237
100
AcDbEntity
8
0
100
AcDbSpline
70
0
71
3
72
8
73
4
74
0
42
0.000000001
43
0.0000000001
44
0.0000000001
40
0
40
0
40
0
40
0
40
1
40
1
40
1
40
1
10
-8.0313862916236172
20
-3.7900089792002678
30
0
10
-7.7984180380066146
20
-3.758740806521268
30
0
10
-7.6690574723656146
20
-3.7121985051652691
30
0
10
-7.6267186675386132
20
-3.6949224151962667
30
0
0
SPLINE
5
238
100
AcDbEntity
8
0
100
AcDbSpline
70
0
71
3
72
8
73
4
74
0
42
0.000000001
43
0.0000000001
44
0.0000000001
40
0
40
0
40
0
40
0
40
1
40
1
40
1
40
1
10
3.7162229930453861
20
-8.0657890826082674
30
-5.5511151231257827e-16
10
3.9063922811473861
20
-8.2728983342402671
30
-5.5511151231257827e-16
10
4.217569934142384
20
-8.548455817101269
30
0
10
4.7029377388193847
20
-8.8263812694052675
30
-5.5511151231257827e-16
0
SPLINE
5
239
100
AcDbEntity
8
0
100
AcDbSpline
70
0
71
3
72
8
73
4
74
0
42
0.000000001
43
0.0000000001
44
0.0000000001
40
0
40
0
40
0
40
0
40
1
40
1
40
1
40
1
10
7.6267136538413869
20
-3.6949224151962667
30
-5.5511151231257827e-16
10
7.6690524586683857
20
-3.7121985051652691
30
-5.5511151231257827e-16
10
7.7984130243093865
20
-3.758740806521268
30
-5.5511151231257827e-16
10
8.0313812779263891
20
-3.7900089792002678
30
1.1102230246251563e-15
0
ARC
5
240
100
AcDbEntity
8
0
100
AcDbCircle
10
0.0010631881142528633
20
0.00038882488201809719
30
0
40
10.000000000001322
210
5.2779341690593187e-17
220
1.7199680279771887e-17
230
1
100
AcDbArc
50
18.049702598615312
51
21.950297401389072
0
ARC
5
241
100
AcDbEntity
8
0
100
AcDbCircle
10
-0.00087126934339383738
20
-0.00072803465221850275
30
0
40
9.9999999999992397
210
0
220
0
230
1
100
AcDbArc
50
218.04970259861517
51
221.95029740138685
0
SPLINE
5
242
100
AcDbEntity
8
0
100
AcDbSpline
70
0
71
3
72
8
73
4
74
0
42
0.000000001
43
0.0000000001
44
0.0000000001
40
0
40
0
40
0
40
0
40
1
40
1
40
1
40
1
10
-9.2761528732646141
20
-3.7384083844972671
30
0
10
-8.7256925264656164
20
-3.837493547145268
30
0
10
-8.310191678825614
20
-3.8264254083962679
30
0
10
-8.0313862916236172
20
-3.7900089792002678
30
0
0
ARC
5
243
100
AcDbEntity
8
0
100
AcDbCircle
10
-2.5068486131374361e-06
20
9.436367331971952e-07
30
0
40
7.7499999999999689
210
-7.0841173889922361e-17
220
-1.0582864850524532e-17
230
1
100
AcDbArc
50
188.49650358590515
51
191.50349641409446
0
LINE
5
244
100
AcDbEntity
8
0
100
AcDbLine
10
-8.2174569947906111
20
2.0718840875397326
30
-5.5511151231257827e-16
11
-7.870223604422657
21
1.9835885709665591
31
6.5001637749442208e-47
0
SPLINE
5
245
100
AcDbEntity
8
0
100
AcDbSpline
70
0
71
3
72
8
73
4
74
0
42
0.000000001
43
0.0000000001
44
0.0000000001
40
0
40
0
40
0
40
0
40
1
40
1
40
1
40
1
10
-6.2507748470866131
20
6.3083403340037325
30
0
10
-6.5003110597436127
20
6.4379176422857363
30
0
10
-6.8869686137986132
20
6.5904279500557328
30
0
10
-7.4381212612516112
20
6.6855868805927363
30
0
0
ARC
5
246
100
AcDbEntity
8
0
100
AcDbCircle
10
-0.0011365957347391376
20
9.4363673321107289e-07
30
0
40
10.000000000006786
210
0
220
0
230
1
100
AcDbArc
50
178.04970259861597
51
181.95029740138406
0
SPLINE
5
247
100
AcDbEntity
8
0
100
AcDbSpline
70
0
71
3
72
8
73
4
74
0
42
0.000000001
43
0.0000000001
44
0.0000000001
40
0
40
0
40
0
40
0
40
1
40
1
40
1
40
1
10
0.73344451176738479
20
-8.8503864029392645
30
-5.5511151231257827e-16
10
0.84130965256938472
20
-9.1100471655662663
30
-5.5511151231257827e-16
10
1.0394747870603844
20
-9.4754155242902662
30
0
10
1.4005152284513844
20
-9.9025855870702664
30
0
0
SPLINE
5
248
100
AcDbEntity
8
0
100
AcDbSpline
70
0
71
3
72
8
73
4
74
0
42
0.000000001
43
0.0000000001
44
0.0000000001
40
0
40
0
40
0
40
0
40
1
40
1
40
1
40
1
10
-1.4005202421486156
20
-9.9025855870702664
30
0
10
-1.0394798007576158
20
-9.4754155242902662
30
0
10
-0.84131466626661555
20
-9.1100471655662663
30
0
10
-0.7334495254646155
20
-8.8503864029392645
30
0
0
ARC
5
249
100
AcDbEntity
8
0
100
AcDbCircle
10
-2.5068486131374361e-06
20
9.436367331971952e-07
30
0
40
7.7499999999998579
210
-1.52103622014728e-47
220
-3.8606844892395081e-47
230
1
100
AcDbArc
50
68.496503585905785
51
71.503496414092737
0
ARC
5
250
100
AcDbEntity
8
0
100
AcDbCircle
10
0.00086625564616756262
20
0.00072992192568489724
30
0
40
9.9999999999992397
210
0
220
-0
230
1
100
AcDbArc
50
38.049702598615156
51
41.950297401386862
0
ARC
5
251
100
AcDbEntity
8
0
100
AcDbCircle
10
-2.5068486131374361e-06
20
9.436367331971952e-07
30
0
40
7.7500000000000826
210
0
220
0
230
1
100
AcDbArc
50
108.49650358590722
51
111.50349641409403
0
SPLINE
5
252
100
AcDbEntity
8
0
100
AcDbSpline
70
0
71
3
72
8
73
4
74
0
42
0.000000001
43
0.0000000001
44
0.0000000001
40
0
40
0
40
0
40
0
40
1
40
1
40
1
40
1
10
-8.5885708447196123
20
2.2591588883727334
30
-5.5511151231257827e-16
10
-8.3900080146376119
20
2.1333625914247327
30
-5.5511151231257827e-16
10
-8.2609952575316132
20
2.0858646939717334
30
1.1102230246251563e-15
10
-8.2174569947906111
20
2.0718840875397326
30
-5.5511151231257827e-16
0
ARC
5
253
100
AcDbEntity
8
0
100
AcDbCircle
10
-2.9779147907316124
20
7.5596080852777359
30
2.1211060739291665e-46
40
0.37500000000000022
210
0
220
0
230
1
100
AcDbArc
50
204.14601070791139
51
291.44250227761847
0
SPLINE
5
254
100
AcDbEntity
8
0
100
AcDbSpline
70
0
71
3
72
8
73
4
74
0
42
0.000000001
43
0.0000000001
44
0.0000000001
40
0
40
0
40
0
40
0
40
1
40
1
40
1
40
1
10
-2.337798504481611
20
8.567498278739734
30
0
10
-2.347459878299611
20
8.3326396751677336
30
0
10
-2.3240878855666107
20
8.1971624013747331
30
0
10
-2.3144263145266111
20
8.152466856587731
30
0
0
LINE
5
255
100
AcDbEntity
8
0
100
AcDbLine
10
-6.7171642715944984
20
-4.5557358602444413
30
-4.7211715839068536e-46
11
-7.0132580809796163
21
-4.757467319557267
31
0
0
ARC
5
256
100
AcDbEntity
8
0
100
AcDbCircle
10
-2.5780111544296118
20
7.7051611054667335
30
6.8422776578360209e-47
40
0.37500000000000061
210
5.8069254148091739e-47
220
-1.7297364674181523e-46
230
1
100
AcDbArc
50
-71.442502277558617
51
15.853989292126926
0
LINE
5
257
100
AcDbEntity
8
0
100
AcDbLine
10
-5.9030331871116148
20
-6.0805818254122679
30
0
11
-5.652950331535874
21
-5.8240166465980137
31
1.7105694144590054e-46
0
LINE
5
258
100
AcDbEntity
8
0
100
AcDbLine
10
2.3144213008293848
20
-8.1524649693142646
30
1.1102230246251563e-15
11
2.2172707660385997
21
-7.8076042739282068
31
2.3947971802426073e-47
0
ARC
5
259
100
AcDbEntity
8
0
100
AcDbCircle
10
0.21278177359338574
20
-8.1222120895492687
30
-1.8816263559049053e-46
40
0.37499999999999917
210
1.872701856576852e-31
220
1.3574860396075606e-32
230
1
100
AcDbArc
50
4.1460107079788253
51
91.4425022774995
0
LINE
5
260
100
AcDbEntity
8
0
100
AcDbLine
10
-3.3201045324521923
20
7.4062093217194755
30
2.1211060739291665e-46
11
-3.467355087191613
21
7.7328351011087326
31
0
0
ARC
5
261
100
AcDbEntity
8
0
100
AcDbCircle
10
-2.5068486131374361e-06
20
9.436367331971952e-07
30
0
40
7.7500000000000027
210
-5.9764666974353866e-48
220
7.5143895709277994e-48
230
1
100
AcDbArc
50
128.49650358590551
51
131.50349641409534
0
ARC
5
262
100
AcDbEntity
8
0
100
AcDbCircle
10
-0.00087126934337163726
20
0.0007299219256728973
30
0
40
9.9999999999989306
210
0
220
0
230
1
100
AcDbArc
50
138.04970259861315
51
141.95029740138486
0
ARC
5
263
100
AcDbEntity
8
0
100
AcDbCircle
10
-6.9276531883156123
20
-4.2453821653452666
30
-4.7211715839068536e-46
40
0.37499999999999861
210
0
220
0
230
1
100
AcDbArc
50
-55.853989292022561
51
31.442502277623326
0
SPLINE
5
264
100
AcDbEntity
8
0
100
AcDbSpline
70
0
71
3
72
8
73
4
74
0
42
0.000000001
43
0.0000000001
44
0.0000000001
40
0
40
0
40
0
40
0
40
1
40
1
40
1
40
1
10
-9.5089491446386116
20
3.0988077728377328
30
-5.5511151231257827e-16
10
-9.1509627696696132
20
2.6690750440487339
30
1.1102230246251563e-15
10
-8.8255561917736145
20
2.410474933556733
30
-5.5511151231257827e-16
10
-8.5885708447196123
20
2.2591588883727334
30
-5.5511151231257827e-16
0
ARC
5
265
100
AcDbEntity
8
0
100
AcDbCircle
10
-2.5068486131374361e-06
20
9.436367331971952e-07
30
0
40
7.7499999999999405
210
1.4626267948752204e-47
220
1.6529955849481792e-47
230
1
100
AcDbArc
50
228.49650358590446
51
231.50349641409449
0
ARC
5
266
100
AcDbEntity
8
0
100
AcDbCircle
10
0.0008662556461471626
20
-0.00072803465220650269
30
0
40
9.9999999999989253
210
0
220
0
230
1
100
AcDbArc
50
318.04970259861318
51
321.95029740138483
0
SPLINE
5
267
100
AcDbEntity
8
0
100
AcDbSpline
70
0
71
3
72
8
73
4
74
0
42
0.000000001
43
0.0000000001
44
0.0000000001
40
0
40
0
40
0
40
0
40
1
40
1
40
1
40
1
10
5.2923985903233852
20
-8.4860558881132668
30
0
10
5.2943919906073855
20
-7.9267523129322681
30
0
10
5.2113410367443844
20
-7.5194858189172677
30
0
10
5.1270638075243848
20
-7.2512397585862685
30
0
0
ARC
5
268
100
AcDbEntity
8
0
100
AcDbCircle
10
-0.21278678729061432
20
-8.1222120895492722
30
-5.5511151231257827e-16
40
0.37500000000000233
210
0
220
-0
230
1
100
AcDbArc
50
88.557497722509027
51
175.85398929202063
0
ARC
5
269
100
AcDbEntity
8
0
100
AcDbCircle
10
-2.5068486131374361e-06
20
9.436367331971952e-07
30
0
40
7.7500000000000107
210
8.2188283521157023e-48
220
-1.6726618389458021e-48
230
1
100
AcDbArc
50
168.49650358590517
51
171.50349641409471
0
SPLINE
5
270
100
AcDbEntity
8
0
100
AcDbSpline
70
0
71
3
72
8
73
4
74
0
42
0.000000001
43
0.0000000001
44
0.0000000001
40
0
40
0
40
0
40
0
40
1
40
1
40
1
40
1
10
7.2979342593103889
20
5.0603783673757343
30
0
10
7.4688745057103914
20
5.2836227008067329
30
-5.5511151231257827e-16
10
7.6862102188593884
20
5.6379229207827333
30
0
10
7.8756301242673885
20
6.1641781462107348
30
0
0
ARC
5
271
100
AcDbEntity
8
0
100
AcDbCircle
10
-2.5068486131374361e-06
20
9.436367331971952e-07
30
0
40
7.7500000000004103
210
-6.1070022003304117e-17
220
3.7428884021061238e-17
230
1
100
AcDbArc
50
148.49650358590966
51
151.50349641409747
0
ARC
5
272
100
AcDbEntity
8
0
100
AcDbCircle
10
-2.5068486131374361e-06
20
9.436367331971952e-07
30
0
40
7.750000000000405
210
-1.8793533958935843e-18
220
-7.16026324750665e-17
230
1
100
AcDbArc
50
268.49650358590554
51
271.50349641409406
0
SPLINE
5
273
100
AcDbEntity
8
0
100
AcDbSpline
70
0
71
3
72
8
73
4
74
0
42
0.000000001
43
0.0000000001
44
0.0000000001
40
0
40
0
40
0
40
0
40
1
40
1
40
1
40
1
10
0.61345807971038491
20
-8.4523906783912643
30
0
10
0.61966594933238472
20
-8.4976952039212676
30
0
10
0.64403941682838461
20
-8.6329958906922677
30
0
10
0.73344451176738479
20
-8.8503864029392645
30
-5.5511151231257827e-16
0
SPLINE
5
274
100
AcDbEntity
8
0
100
AcDbSpline
70
0
71
3
72
8
73
4
74
0
42
0.000000001
43
0.0000000001
44
0.0000000001
40
0
40
0
40
0
40
0
40
1
40
1
40
1
40
1
10
8.4305046069463874
20
-0.86360071664526705
30
0
10
8.4761988401813877
20
-0.865354206809267
30
0
10
8.6136764137163873
20
-0.86484574474726694
30
0
10
8.843289307418388
20
-0.81454838038626687
30
0
0
ARC
5
275
100
AcDbEntity
8
0
100
AcDbCircle
10
-2.5068486131374361e-06
20
9.436367331971952e-07
30
0
40
7.7499999999999725
210
2.7505323838973164e-47
220
4.1089822327064629e-48
230
1
100
AcDbArc
50
8.4965035859050033
51
11.503496414094805
0
SPLINE
5
276
100
AcDbEntity
8
0
100
AcDbSpline
70
0
71
3
72
8
73
4
74
0
42
0.000000001
43
0.0000000001
44
0.0000000001
40
0
40
0
40
0
40
0
40
1
40
1
40
1
40
1
10
2.3377934907843887
20
8.567498278739734
30
0
10
2.3252426251823888
20
8.8483916322057308
30
0
10
2.2639916490213894
20
9.2595020504677308
30
0
10
2.0708253765373899
20
9.7843937097937328
30
1.1102230246251563e-15
0
LINE
5
277
100
AcDbEntity
8
0
100
AcDbLine
10
3.3200995187549647
20
-7.4062074344460083
30
-5.5511151231257827e-16
11
3.4673500734943858
21
-7.7328332138352671
31
0
0
ARC
5
278
100
AcDbEntity
8
0
100
AcDbCircle
10
0.0011315820375128625
20
9.4363673196207198e-07
30
0
40
10.000000000006786
210
5.5478995031001432e-17
220
-1.8891853708709984e-18
230
1
100
AcDbArc
50
-1.950297401384026
51
1.9502974013840495
0
SPLINE
5
279
100
AcDbEntity
8
0
100
AcDbSpline
70
0
71
3
72
8
73
4
74
0
42
0.000000001
43
0.0000000001
44
0.0000000001
40
0
40
0
40
0
40
0
40
1
40
1
40
1
40
1
10
-5.2924036040206124
20
8.4860577753867332
30
0
10
-5.2943970043046118
20
7.9267542002057345
30
0
10
-5.2113460504416107
20
7.519487706190735
30
0
10
-5.1270688212216111
20
7.251241645859734
30
0
0
LINE
5
280
100
AcDbEntity
8
0
100
AcDbLine
10
-7.6267186675386132
20
-3.6949224151962667
30
0
11
-7.3039671943385729
21
-3.5393633840223506
31
-1.3684555315672042e-46
0
LWPOLYLINE
5
281
100
AcDbEntity
8
0
100
AcDbPolyline
90
8
70
1
43
0.0
10
-8.3516054032808622
20
-79.181954128180621
42
0.41421356237309548
10
-1.3516054032808533
20
-86.181954128180649
10
104.64839459671919
20
-86.181954128180763
42
0.41421356237309542
10
111.64839459671919
20
-79.181954128180777
10
111.64839459671919
20
-21.181954128180777
42
0.41421356237309281
10
104.64839459671919
20
-14.181954128180783
10
-1.3516054032808338
20
-14.18195412818064
42
0.41421356237309404
10
-8.3516054032808498
20
-21.181954128180642
0
CIRCLE
5
282
100
AcDbEntity
8
0
100
AcDbCircle
10
37.148394596719179
20
-61.681954128180685
30
0
40
0.84999999999999964
210
0
220
0
230
1
0
LWPOLYLINE
5
283
100
AcDbEntity
8
0
100
AcDbPolyline
90
4
70
1
43
0.0
10
3.6483945967191556
20
-40.181954128180635
10
16.648394596719154
20
-40.181954128180664
10
16.648394596719154
20
-60.181954128180664
10
3.6483945967191556
20
-60.181954128180635
0
CIRCLE
5
284
100
AcDbEntity
8
0
100
AcDbCircle
10
60.148394596719179
20
-61.68195412818072
30
0
40
0.84999999999999964
210
0
220
0
230
1
0
CIRCLE
5
285
100
AcDbEntity
8
0
100
AcDbCircle
10
60.148394596719179
20
-38.68195412818072
30
0
40
0.84999999999999964
210
0
220
0
230
1
0
CIRCLE
5
286
100
AcDbEntity
8
0
100
AcDbCircle
10
-2.3516054032808507
20
-80.181954128180621
30
1.1102230246251563e-15
40
1.6000000000000003
210
0
220
0
230
1
0
CIRCLE
5
287
100
AcDbEntity
8
0
100
AcDbCircle
10
-2.3516054032808551
20
-20.181954128180635
30
1.1102230246251563e-15
40
1.6000000000000003
210
0
220
0
230
1
0
CIRCLE
5
288
100
AcDbEntity
8
0
100
AcDbCircle
10
88.648394596719143
20
-50.181954128180749
30
1.1102230246251563e-15
40
4.0000000000000027
210
0
220
0
230
1
0
CIRCLE
5
289
100
AcDbEntity
8
0
100
AcDbCircle
10
37.148394596719179
20
-38.681954128180685
30
0
40
0.84999999999999964
210
0
220
0
230
1
0
CIRCLE
5
290
100
AcDbEntity
8
0
100
AcDbCircle
10
105.64839459671917
20
-80.181954128180763
30
1.1102230246251563e-15
40
1.6000000000000014
210
0
220
0
230
1
0
CIRCLE
5
291
100
AcDbEntity
8
0
100
AcDbCircle
10
105.64839459671917
20
-20.18195412818077
30
1.1102230246251563e-15
40
1.6000000000000014
210
0
220
0
230
1
0
ENDSEC
0
SECTION
2
OBJECTS
0
DICTIONARY
5
C
100
AcDbDictionary
3
ACAD_GROUP
350
D
3
ACAD_MLINESTYLE
350
17
0
DICTIONARY
5
D
100
AcDbDictionary
0
DICTIONARY
5
1A
330
C
100
AcDbDictionary
0
DICTIONARY
5
17
100
AcDbDictionary
0
ENDSEC
0
EOF
