0
SECTION
2
HEADER
9
$INSUNITS
70
4
9
$ACADVER
1
AC1014
9
$HANDSEED
5
FFFF
0
ENDSEC
0
SECTION
2
TABLES
0
TABLE
2
VPORT
5
8
100
AcDbSymbolTable
0
ENDTAB
0
TABLE
2
LTYPE
5
5
100
AcDbSymbolTable
0
LTYPE
5
14
100
AcDbSymbolTableRecord
100
AcDbLinetypeTableRecord
2
BYBLOCK
70
0
0
LTYPE
5
15
100
AcDbSymbolTableRecord
100
AcDbLinetypeTableRecord
2
BYLAYER
70
0
0
ENDTAB
0
TABLE
2
LAYER
5
2
100
AcDbSymbolTable
70
2
0
LAYER
5
50
100
AcDbSymbolTableRecord
100
AcDbLayerTableRecord
2
0
70
0
6
CONTINUOUS
0
ENDTAB
0
TABLE
2
STYLE
5
3
100
AcDbSymbolTable
70
1
0
STYLE
5
11
100
AcDbSymbolTableRecord
100
AcDbTextStyleTableRecord
2
STANDARD
70
0
0
ENDTAB
0
TABLE
2
VIEW
5
6
100
AcDbSymbolTable
70
0
0
ENDTAB
0
TABLE
2
UCS
5
7
100
AcDbSymbolTable
70
0
0
ENDTAB
0
TABLE
2
APPID
5
9
100
AcDbSymbolTable
70
2
0
APPID
5
12
100
AcDbSymbolTableRecord
100
AcDbRegAppTableRecord
2
ACAD
70
0
0
ENDTAB
0
TABLE
2
DIMSTYLE
5
A
100
AcDbSymbolTable
70
1
0
ENDTAB
0
TABLE
2
BLOCK_RECORD
5
1
100
AcDbSymbolTable
70
1
0
BLOCK_RECORD
5
1F
100
AcDbSymbolTableRecord
100
AcDbBlockTableRecord
2
*MODEL_SPACE
0
BLOCK_RECORD
5
1B
100
AcDbSymbolTableRecord
100
AcDbBlockTableRecord
2
*PAPER_SPACE
0
ENDTAB
0
ENDSEC
0
SECTION
2
BLOCKS
0
BLOCK
5
20
100
AcDbEntity
100
AcDbBlockBegin
2
*MODEL_SPACE
0
ENDBLK
5
21
100
AcDbEntity
100
AcDbBlockEnd
0
BLOCK
5
1C
100
AcDbEntity
100
AcDbBlockBegin
2
*PAPER_SPACE
0
ENDBLK
5
1D
100
AcDbEntity
100
AcDbBlockEnd
0
ENDSEC
0
SECTION
2
ENTITIES
0
CIRCLE
5
100
100
AcDbEntity
8
0
100
AcDbCircle
10
1.4980684248878056e-06
20
4.2186525376221778e-07
30
0
40
13
210
0
220
0
230
1
0
CIRCLE
5
101
100
AcDbEntity
8
0
100
AcDbCircle
10
1.4980684248878056e-06
20
4.2186525376221778e-07
30
0
40
5
210
0
220
0
230
1
0
CIRCLE
5
102
100
AcDbEntity
8
0
100
AcDbCircle
10
5.0000014985252905
20
8.6602544594458664
30
0
40
1.5000000000000002
210
0
220
0
230
1
0
CIRCLE
5
103
100
AcDbEntity
8
0
100
AcDbCircle
10
5.0000014976115583
20
-8.6602536162429047
30
0
40
1.4999999999999996
210
0
220
0
230
1
0
CIRCLE
5
104
100
AcDbEntity
8
0
100
AcDbCircle
10
-9.9999985019315716
20
4.2239279488706895e-07
30
0
40
1.5000000000000002
210
0
220
0
230
1
0
LWPOLYLINE
5
105
100
AcDbEntity
8
0
100
AcDbPolyline
90
11
70
1
43
0.0
10
18.366479093099368
20
-8.9014811215025915
42
-0.95266655585161575
10
-17.908637512962216
20
7.8424642304318315
10
-6.1874264595757955
20
36.853479614786551
42
0.53170943166147822
10
-13.60489729611011
20
47.850332362113846
10
-34.364960421626485
20
47.850332362113832
42
0.41421356237309176
10
-42.364960421626492
20
39.850332362113846
10
-42.364960421626492
20
-72.149667637886154
10
43.635039578373593
20
-72.149667637886225
10
43.635039578373558
20
-5.9938447958954093
42
0.59493748153889303
10
31.277927298253161
20
0.71551974766794313
10
21.101942618869284
20
-5.8928419713856943
42
0.1291922970315226
0
CIRCLE
5
106
100
AcDbEntity
8
0
100
AcDbCircle
10
-29.364960421626485
20
-44.149667637886168
30
0
40
1.9999999999999929
210
0
220
0
230
1
0
CIRCLE
5
107
100
AcDbEntity
8
0
100
AcDbCircle
10
30.635039578373515
20
-44.149667637886196
30
0
40
1.9999999999999929
210
0
220
0
230
1
0
CIRCLE
5
108
100
AcDbEntity
8
0
100
AcDbCircle
10
30.635039578373515
20
-66.149667637886211
30
0
40
1.9999999999999929
210
0
220
0
230
1
0
CIRCLE
5
109
100
AcDbEntity
8
0
100
AcDbCircle
10
-29.364960421626485
20
-66.149667637886154
30
0
40
1.9999999999999929
210
0
220
0
230
1
0
CIRCLE
5
110
100
AcDbEntity
8
0
100
AcDbCircle
10
125.96166194038418
20
-44.406448988955056
30
0
40
1.9999999999999929
210
0
220
0
230
1
0
LWPOLYLINE
5
111
100
AcDbEntity
8
0
100
AcDbPolyline
90
11
70
1
43
0.0
10
68.146146303380533
20
11.331748813522093
10
78.353848475658964
20
36.596698263717705
42
0.53170943166147444
10
70.936377639124757
20
47.59355101104493
10
60.96166194038414
20
47.593551011044973
42
0.41421356237309231
10
52.961661940384133
20
39.59355101104498
10
52.961661940384133
20
-72.406448988955034
10
138.96166194038418
20
-72.406448988955077
10
138.96166194038418
20
-16.017894435581557
42
0.59493748153889903
10
126.60454966026386
20
-9.3085298920181927
10
125.7568471910794
20
-9.8590343122789292
42
0.13606535107838713
10
122.92400209629113
20
-13.06061993649767
42
-0.96563436589178875
0
CIRCLE
5
112
100
AcDbEntity
8
0
100
AcDbCircle
10
65.961661940384147
20
-44.406448988955056
30
0
40
1.9999999999999929
210
0
220
0
230
1
0
CIRCLE
5
113
100
AcDbEntity
8
0
100
AcDbCircle
10
65.961661940384147
20
-66.406448988955034
30
0
40
1.9999999999999929
210
0
220
0
230
1
0
CIRCLE
5
114
100
AcDbEntity
8
0
100
AcDbCircle
10
125.96166194038418
20
-66.406448988955049
30
0
40
1.9999999999999929
210
0
220
0
230
1
0
ENDSEC
0
SECTION
2
OBJECTS
0
DICTIONARY
5
C
100
AcDbDictionary
3
ACAD_GROUP
350
D
3
ACAD_MLINESTYLE
350
17
0
DICTIONARY
5
D
100
AcDbDictionary
0
DICTIONARY
5
1A
330
C
100
AcDbDictionary
0
DICTIONARY
5
17
100
AcDbDictionary
0
ENDSEC
0
EOF
