G04 start of page 6 for group -4062 idx -4062 *
G04 Title: (unknown), soldermask *
G04 Creator: pcb 4.0.2 *
G04 CreationDate: Wed Apr  1 14:15:11 2020 UTC *
G04 For: shyam *
G04 Format: Gerber/RS-274X *
G04 PCB-Dimensions (mil): 4100.00 2500.00 *
G04 PCB-Coordinate-Origin: lower left *
%MOIN*%
%FSLAX25Y25*%
%LNBOTTOMMASK*%
%ADD105C,0.0257*%
%ADD104C,0.0720*%
%ADD103C,0.0640*%
%ADD102C,0.0750*%
%ADD101C,0.1190*%
%ADD100C,0.0001*%
%ADD99C,0.0660*%
G54D99*X271000Y47500D03*
G54D100*G36*
X237700Y50800D02*Y44200D01*
X244300D01*
Y50800D01*
X237700D01*
G37*
G54D99*X251000Y47500D03*
X261000D03*
G54D100*G36*
X151700Y50800D02*Y44200D01*
X158300D01*
Y50800D01*
X151700D01*
G37*
G54D99*X165000Y47500D03*
X175000D03*
X185000D03*
X195000D03*
X205000D03*
X215000D03*
X225000D03*
G54D100*G36*
X73650Y53850D02*Y41150D01*
X86350D01*
Y53850D01*
X73650D01*
G37*
G54D101*X20000Y47500D03*
G54D100*G36*
X176250Y13750D02*Y6250D01*
X183750D01*
Y13750D01*
X176250D01*
G37*
G54D102*X170000Y10000D03*
X160000D03*
X150000D03*
G54D100*G36*
X241250Y13750D02*Y6250D01*
X248750D01*
Y13750D01*
X241250D01*
G37*
G54D102*X235000Y10000D03*
X225000D03*
X215000D03*
G54D100*G36*
X61250Y13750D02*Y6250D01*
X68750D01*
Y13750D01*
X61250D01*
G37*
G54D102*X55000Y10000D03*
X45000D03*
X35000D03*
G54D99*X210000Y72500D03*
X220000D03*
X230000D03*
X240000D03*
X250000D03*
G54D100*G36*
X176700Y75800D02*Y69200D01*
X183300D01*
Y75800D01*
X176700D01*
G37*
G54D99*X190000Y72500D03*
X200000D03*
X260000D03*
X270000D03*
G54D100*G36*
X396250Y68750D02*Y61250D01*
X403750D01*
Y68750D01*
X396250D01*
G37*
G36*
X351700Y75800D02*Y69200D01*
X358300D01*
Y75800D01*
X351700D01*
G37*
G54D102*X400000Y55000D03*
Y45000D03*
Y35000D03*
G54D100*G36*
X371250Y13750D02*Y6250D01*
X378750D01*
Y13750D01*
X371250D01*
G37*
G54D102*X365000Y10000D03*
X355000D03*
X345000D03*
G54D100*G36*
X176700Y135800D02*Y129200D01*
X183300D01*
Y135800D01*
X176700D01*
G37*
G54D99*X190000Y132500D03*
X200000D03*
X210000D03*
X220000D03*
X230000D03*
X320000D03*
X240000D03*
X250000D03*
X260000D03*
X270000D03*
X280000D03*
X290000D03*
X300000D03*
X310000D03*
G54D100*G36*
X306250Y13750D02*Y6250D01*
X313750D01*
Y13750D01*
X306250D01*
G37*
G54D102*X300000Y10000D03*
X290000D03*
X280000D03*
G54D103*X311000Y47500D03*
G54D99*X281000D03*
X301000D03*
X291000D03*
X331000D03*
X321000D03*
X280000Y72500D03*
X290000D03*
X300000D03*
X310000D03*
X320000D03*
G54D100*G36*
X396250Y163750D02*Y156250D01*
X403750D01*
Y163750D01*
X396250D01*
G37*
G36*
X371700Y180800D02*Y174200D01*
X378300D01*
Y180800D01*
X371700D01*
G37*
G54D102*X400000Y150000D03*
Y140000D03*
Y130000D03*
G54D99*X375000Y187500D03*
Y197500D03*
Y207500D03*
Y217500D03*
Y227500D03*
Y237500D03*
G54D100*G36*
X291700Y240800D02*Y234200D01*
X298300D01*
Y240800D01*
X291700D01*
G37*
G54D99*X285000Y237500D03*
X275000D03*
X265000D03*
X255000D03*
X245000D03*
X235000D03*
X225000D03*
G54D100*G36*
X201700Y240800D02*Y234200D01*
X208300D01*
Y240800D01*
X201700D01*
G37*
G54D99*X154500Y137500D03*
X144500D03*
X154500Y147500D03*
X144500D03*
G54D100*G36*
X151200Y130800D02*Y124200D01*
X157800D01*
Y130800D01*
X151200D01*
G37*
G54D99*X144500Y127500D03*
G54D100*G36*
X113900Y121100D02*Y113900D01*
X121100D01*
Y121100D01*
X113900D01*
G37*
G54D104*X117500Y87500D03*
G54D102*X150000Y165000D03*
G54D99*X195000Y237500D03*
X185000D03*
X175000D03*
X165000D03*
X155000D03*
G54D100*G36*
X31250Y243750D02*Y236250D01*
X38750D01*
Y243750D01*
X31250D01*
G37*
G54D102*X45000Y240000D03*
X55000D03*
X65000D03*
G54D100*G36*
X146250Y198750D02*Y191250D01*
X153750D01*
Y198750D01*
X146250D01*
G37*
G36*
X113200Y195800D02*Y189200D01*
X119800D01*
Y195800D01*
X113200D01*
G37*
G54D99*X116500Y172500D03*
G54D105*X48367Y187323D03*
X44037D03*
X52697Y178663D03*
Y182993D03*
Y187323D03*
X57028Y178663D03*
Y182993D03*
Y187323D03*
X44037Y178663D03*
X39706D03*
Y182993D03*
X44037D03*
X39706Y187323D03*
X48367Y182993D03*
Y178663D03*
G54D100*G36*
X10850Y206050D02*Y198950D01*
X24150D01*
Y206050D01*
X10850D01*
G37*
G36*
Y179050D02*Y171950D01*
X24150D01*
Y179050D01*
X10850D01*
G37*
G36*
X37421Y181680D02*Y179976D01*
X59313D01*
Y181680D01*
X37421D01*
G37*
G36*
Y186010D02*Y184306D01*
X59313D01*
Y186010D01*
X37421D01*
G37*
M02*
