G04 start of page 11 for group -3984 idx -3984 *
G04 Title: (unknown), fab *
G04 Creator: pcb 4.0.2 *
G04 CreationDate: Wed Apr  1 14:15:11 2020 UTC *
G04 For: shyam *
G04 Format: Gerber/RS-274X *
G04 PCB-Dimensions (mil): 4100.00 2500.00 *
G04 PCB-Coordinate-Origin: lower left *
%MOIN*%
%FSLAX25Y25*%
%LNFAB*%
%ADD143C,0.0100*%
%ADD142C,0.0075*%
%ADD141C,0.0060*%
%ADD140R,0.0080X0.0080*%
%ADD139C,0.0001*%
G54D139*G36*
X395100Y15466D02*X400466Y10100D01*
X399900Y9534D01*
X394534Y14900D01*
X395100Y15466D01*
G37*
G36*
X394534Y10100D02*X399900Y15466D01*
X400466Y14900D01*
X395100Y9534D01*
X394534Y10100D01*
G37*
G54D140*X395900Y14100D02*X399100D01*
X395900D02*Y10900D01*
X399100D01*
Y14100D02*Y10900D01*
G54D139*G36*
X342600Y50466D02*X347966Y45100D01*
X347400Y44534D01*
X342034Y49900D01*
X342600Y50466D01*
G37*
G36*
X342034Y45100D02*X347400Y50466D01*
X347966Y49900D01*
X342600Y44534D01*
X342034Y45100D01*
G37*
G54D140*X343400Y49100D02*X346600D01*
X343400D02*Y45900D01*
X346600D01*
Y49100D02*Y45900D01*
G54D139*G36*
X347600Y240466D02*X352966Y235100D01*
X352400Y234534D01*
X347034Y239900D01*
X347600Y240466D01*
G37*
G36*
X347034Y235100D02*X352400Y240466D01*
X352966Y239900D01*
X347600Y234534D01*
X347034Y235100D01*
G37*
G54D140*X348400Y239100D02*X351600D01*
X348400D02*Y235900D01*
X351600D01*
Y239100D02*Y235900D01*
G54D139*G36*
X10100Y240466D02*X15466Y235100D01*
X14900Y234534D01*
X9534Y239900D01*
X10100Y240466D01*
G37*
G36*
X9534Y235100D02*X14900Y240466D01*
X15466Y239900D01*
X10100Y234534D01*
X9534Y235100D01*
G37*
G54D140*X10900Y239100D02*X14100D01*
X10900D02*Y235900D01*
X14100D01*
Y239100D02*Y235900D01*
G54D139*G36*
X10100Y15466D02*X15466Y10100D01*
X14900Y9534D01*
X9534Y14900D01*
X10100Y15466D01*
G37*
G36*
X9534Y10100D02*X14900Y15466D01*
X15466Y14900D01*
X10100Y9534D01*
X9534Y10100D01*
G37*
G54D140*X10900Y14100D02*X14100D01*
X10900D02*Y10900D01*
X14100D01*
Y14100D02*Y10900D01*
G54D139*G36*
X12600Y264216D02*X17966Y258850D01*
X17400Y258284D01*
X12034Y263650D01*
X12600Y264216D01*
G37*
G36*
X12034Y258850D02*X17400Y264216D01*
X17966Y263650D01*
X12600Y258284D01*
X12034Y258850D01*
G37*
G54D140*X13400Y262850D02*X16600D01*
X13400D02*Y259650D01*
X16600D01*
Y262850D02*Y259650D01*
G54D141*X135000Y263500D02*X136500Y260500D01*
X138000Y263500D01*
X136500Y260500D02*Y257500D01*
X139800Y260800D02*X142050D01*
X139800Y257500D02*X142800D01*
X139800Y263500D02*Y257500D01*
Y263500D02*X142800D01*
X147600D02*X148350Y262750D01*
X145350Y263500D02*X147600D01*
X144600Y262750D02*X145350Y263500D01*
X144600Y262750D02*Y261250D01*
X145350Y260500D01*
X147600D01*
X148350Y259750D01*
Y258250D01*
X147600Y257500D02*X148350Y258250D01*
X145350Y257500D02*X147600D01*
X144600Y258250D02*X145350Y257500D01*
X98000Y263500D02*X101000D01*
X98000D02*Y260500D01*
X98750Y261250D01*
X100250D01*
X101000Y260500D01*
Y258250D01*
X100250Y257500D02*X101000Y258250D01*
X98750Y257500D02*X100250D01*
X98000Y258250D02*X98750Y257500D01*
X45000Y258250D02*X45750Y257500D01*
X45000Y262750D02*Y258250D01*
Y262750D02*X45750Y263500D01*
X47250D01*
X48000Y262750D01*
Y258250D01*
X47250Y257500D02*X48000Y258250D01*
X45750Y257500D02*X47250D01*
X45000Y259000D02*X48000Y262000D01*
X49800Y257500D02*X50550D01*
X52350Y262300D02*X53550Y263500D01*
Y257500D01*
X52350D02*X54600D01*
X56400Y259750D02*X59400Y263500D01*
X56400Y259750D02*X60150D01*
X59400Y263500D02*Y257500D01*
X61950Y263500D02*X64950D01*
X61950D02*Y260500D01*
X62700Y261250D01*
X64200D01*
X64950Y260500D01*
Y258250D01*
X64200Y257500D02*X64950Y258250D01*
X62700Y257500D02*X64200D01*
X61950Y258250D02*X62700Y257500D01*
X80000Y50700D02*Y44300D01*
X76800Y47500D02*X83200D01*
X78400Y49100D02*X81600D01*
X78400D02*Y45900D01*
X81600D01*
Y49100D02*Y45900D01*
X20000Y50700D02*Y44300D01*
X16800Y47500D02*X23200D01*
X18400Y49100D02*X21600D01*
X18400D02*Y45900D01*
X21600D01*
Y49100D02*Y45900D01*
X15000Y279450D02*Y273050D01*
X11800Y276250D02*X18200D01*
X13400Y277850D02*X16600D01*
X13400D02*Y274650D01*
X16600D01*
Y277850D02*Y274650D01*
X135000Y278500D02*X136500Y275500D01*
X138000Y278500D01*
X136500Y275500D02*Y272500D01*
X139800Y275800D02*X142050D01*
X139800Y272500D02*X142800D01*
X139800Y278500D02*Y272500D01*
Y278500D02*X142800D01*
X147600D02*X148350Y277750D01*
X145350Y278500D02*X147600D01*
X144600Y277750D02*X145350Y278500D01*
X144600Y277750D02*Y276250D01*
X145350Y275500D01*
X147600D01*
X148350Y274750D01*
Y273250D01*
X147600Y272500D02*X148350Y273250D01*
X145350Y272500D02*X147600D01*
X144600Y273250D02*X145350Y272500D01*
X98000Y277750D02*X98750Y278500D01*
X101000D01*
X101750Y277750D01*
Y276250D01*
X98000Y272500D02*X101750Y276250D01*
X98000Y272500D02*X101750D01*
X45000Y273250D02*X45750Y272500D01*
X45000Y277750D02*Y273250D01*
Y277750D02*X45750Y278500D01*
X47250D01*
X48000Y277750D01*
Y273250D01*
X47250Y272500D02*X48000Y273250D01*
X45750Y272500D02*X47250D01*
X45000Y274000D02*X48000Y277000D01*
X49800Y272500D02*X50550D01*
X52350Y273250D02*X53100Y272500D01*
X52350Y277750D02*Y273250D01*
Y277750D02*X53100Y278500D01*
X54600D01*
X55350Y277750D01*
Y273250D01*
X54600Y272500D02*X55350Y273250D01*
X53100Y272500D02*X54600D01*
X52350Y274000D02*X55350Y277000D01*
X59400Y278500D02*X60150Y277750D01*
X57900Y278500D02*X59400D01*
X57150Y277750D02*X57900Y278500D01*
X57150Y277750D02*Y273250D01*
X57900Y272500D01*
X59400Y275800D02*X60150Y275050D01*
X57150Y275800D02*X59400D01*
X57900Y272500D02*X59400D01*
X60150Y273250D01*
Y275050D02*Y273250D01*
X61950D02*X62700Y272500D01*
X61950Y277750D02*Y273250D01*
Y277750D02*X62700Y278500D01*
X64200D01*
X64950Y277750D01*
Y273250D01*
X64200Y272500D02*X64950Y273250D01*
X62700Y272500D02*X64200D01*
X61950Y274000D02*X64950Y277000D01*
X310000Y10000D02*Y6800D01*
Y10000D02*X312773Y11600D01*
X310000Y10000D02*X307227Y11600D01*
X308400Y10000D02*G75*G03X311600Y10000I1600J0D01*G01*
G75*G03X308400Y10000I-1600J0D01*G01*
X300000D02*Y6800D01*
Y10000D02*X302773Y11600D01*
X300000Y10000D02*X297227Y11600D01*
X298400Y10000D02*G75*G03X301600Y10000I1600J0D01*G01*
G75*G03X298400Y10000I-1600J0D01*G01*
X290000D02*Y6800D01*
Y10000D02*X292773Y11600D01*
X290000Y10000D02*X287227Y11600D01*
X288400Y10000D02*G75*G03X291600Y10000I1600J0D01*G01*
G75*G03X288400Y10000I-1600J0D01*G01*
X280000D02*Y6800D01*
Y10000D02*X282773Y11600D01*
X280000Y10000D02*X277227Y11600D01*
X278400Y10000D02*G75*G03X281600Y10000I1600J0D01*G01*
G75*G03X278400Y10000I-1600J0D01*G01*
X180000D02*Y6800D01*
Y10000D02*X182773Y11600D01*
X180000Y10000D02*X177227Y11600D01*
X178400Y10000D02*G75*G03X181600Y10000I1600J0D01*G01*
G75*G03X178400Y10000I-1600J0D01*G01*
X170000D02*Y6800D01*
Y10000D02*X172773Y11600D01*
X170000Y10000D02*X167227Y11600D01*
X168400Y10000D02*G75*G03X171600Y10000I1600J0D01*G01*
G75*G03X168400Y10000I-1600J0D01*G01*
X160000D02*Y6800D01*
Y10000D02*X162773Y11600D01*
X160000Y10000D02*X157227Y11600D01*
X158400Y10000D02*G75*G03X161600Y10000I1600J0D01*G01*
G75*G03X158400Y10000I-1600J0D01*G01*
X150000D02*Y6800D01*
Y10000D02*X152773Y11600D01*
X150000Y10000D02*X147227Y11600D01*
X148400Y10000D02*G75*G03X151600Y10000I1600J0D01*G01*
G75*G03X148400Y10000I-1600J0D01*G01*
X245000D02*Y6800D01*
Y10000D02*X247773Y11600D01*
X245000Y10000D02*X242227Y11600D01*
X243400Y10000D02*G75*G03X246600Y10000I1600J0D01*G01*
G75*G03X243400Y10000I-1600J0D01*G01*
X235000D02*Y6800D01*
Y10000D02*X237773Y11600D01*
X235000Y10000D02*X232227Y11600D01*
X233400Y10000D02*G75*G03X236600Y10000I1600J0D01*G01*
G75*G03X233400Y10000I-1600J0D01*G01*
X225000D02*Y6800D01*
Y10000D02*X227773Y11600D01*
X225000Y10000D02*X222227Y11600D01*
X223400Y10000D02*G75*G03X226600Y10000I1600J0D01*G01*
G75*G03X223400Y10000I-1600J0D01*G01*
X215000D02*Y6800D01*
Y10000D02*X217773Y11600D01*
X215000Y10000D02*X212227Y11600D01*
X213400Y10000D02*G75*G03X216600Y10000I1600J0D01*G01*
G75*G03X213400Y10000I-1600J0D01*G01*
X400000Y65000D02*Y61800D01*
Y65000D02*X402773Y66600D01*
X400000Y65000D02*X397227Y66600D01*
X398400Y65000D02*G75*G03X401600Y65000I1600J0D01*G01*
G75*G03X398400Y65000I-1600J0D01*G01*
X400000Y55000D02*Y51800D01*
Y55000D02*X402773Y56600D01*
X400000Y55000D02*X397227Y56600D01*
X398400Y55000D02*G75*G03X401600Y55000I1600J0D01*G01*
G75*G03X398400Y55000I-1600J0D01*G01*
X400000Y45000D02*Y41800D01*
Y45000D02*X402773Y46600D01*
X400000Y45000D02*X397227Y46600D01*
X398400Y45000D02*G75*G03X401600Y45000I1600J0D01*G01*
G75*G03X398400Y45000I-1600J0D01*G01*
X400000Y35000D02*Y31800D01*
Y35000D02*X402773Y36600D01*
X400000Y35000D02*X397227Y36600D01*
X398400Y35000D02*G75*G03X401600Y35000I1600J0D01*G01*
G75*G03X398400Y35000I-1600J0D01*G01*
X400000Y160000D02*Y156800D01*
Y160000D02*X402773Y161600D01*
X400000Y160000D02*X397227Y161600D01*
X398400Y160000D02*G75*G03X401600Y160000I1600J0D01*G01*
G75*G03X398400Y160000I-1600J0D01*G01*
X400000Y150000D02*Y146800D01*
Y150000D02*X402773Y151600D01*
X400000Y150000D02*X397227Y151600D01*
X398400Y150000D02*G75*G03X401600Y150000I1600J0D01*G01*
G75*G03X398400Y150000I-1600J0D01*G01*
X400000Y140000D02*Y136800D01*
Y140000D02*X402773Y141600D01*
X400000Y140000D02*X397227Y141600D01*
X398400Y140000D02*G75*G03X401600Y140000I1600J0D01*G01*
G75*G03X398400Y140000I-1600J0D01*G01*
X400000Y130000D02*Y126800D01*
Y130000D02*X402773Y131600D01*
X400000Y130000D02*X397227Y131600D01*
X398400Y130000D02*G75*G03X401600Y130000I1600J0D01*G01*
G75*G03X398400Y130000I-1600J0D01*G01*
X65000Y10000D02*Y6800D01*
Y10000D02*X67773Y11600D01*
X65000Y10000D02*X62227Y11600D01*
X63400Y10000D02*G75*G03X66600Y10000I1600J0D01*G01*
G75*G03X63400Y10000I-1600J0D01*G01*
X55000D02*Y6800D01*
Y10000D02*X57773Y11600D01*
X55000Y10000D02*X52227Y11600D01*
X53400Y10000D02*G75*G03X56600Y10000I1600J0D01*G01*
G75*G03X53400Y10000I-1600J0D01*G01*
X45000D02*Y6800D01*
Y10000D02*X47773Y11600D01*
X45000Y10000D02*X42227Y11600D01*
X43400Y10000D02*G75*G03X46600Y10000I1600J0D01*G01*
G75*G03X43400Y10000I-1600J0D01*G01*
X35000D02*Y6800D01*
Y10000D02*X37773Y11600D01*
X35000Y10000D02*X32227Y11600D01*
X33400Y10000D02*G75*G03X36600Y10000I1600J0D01*G01*
G75*G03X33400Y10000I-1600J0D01*G01*
X35000Y240000D02*Y236800D01*
Y240000D02*X37773Y241600D01*
X35000Y240000D02*X32227Y241600D01*
X33400Y240000D02*G75*G03X36600Y240000I1600J0D01*G01*
G75*G03X33400Y240000I-1600J0D01*G01*
X45000D02*Y236800D01*
Y240000D02*X47773Y241600D01*
X45000Y240000D02*X42227Y241600D01*
X43400Y240000D02*G75*G03X46600Y240000I1600J0D01*G01*
G75*G03X43400Y240000I-1600J0D01*G01*
X55000D02*Y236800D01*
Y240000D02*X57773Y241600D01*
X55000Y240000D02*X52227Y241600D01*
X53400Y240000D02*G75*G03X56600Y240000I1600J0D01*G01*
G75*G03X53400Y240000I-1600J0D01*G01*
X65000D02*Y236800D01*
Y240000D02*X67773Y241600D01*
X65000Y240000D02*X62227Y241600D01*
X63400Y240000D02*G75*G03X66600Y240000I1600J0D01*G01*
G75*G03X63400Y240000I-1600J0D01*G01*
X375000Y10000D02*Y6800D01*
Y10000D02*X377773Y11600D01*
X375000Y10000D02*X372227Y11600D01*
X373400Y10000D02*G75*G03X376600Y10000I1600J0D01*G01*
G75*G03X373400Y10000I-1600J0D01*G01*
X365000D02*Y6800D01*
Y10000D02*X367773Y11600D01*
X365000Y10000D02*X362227Y11600D01*
X363400Y10000D02*G75*G03X366600Y10000I1600J0D01*G01*
G75*G03X363400Y10000I-1600J0D01*G01*
X355000D02*Y6800D01*
Y10000D02*X357773Y11600D01*
X355000Y10000D02*X352227Y11600D01*
X353400Y10000D02*G75*G03X356600Y10000I1600J0D01*G01*
G75*G03X353400Y10000I-1600J0D01*G01*
X345000D02*Y6800D01*
Y10000D02*X347773Y11600D01*
X345000Y10000D02*X342227Y11600D01*
X343400Y10000D02*G75*G03X346600Y10000I1600J0D01*G01*
G75*G03X343400Y10000I-1600J0D01*G01*
X150000Y195000D02*Y191800D01*
Y195000D02*X152773Y196600D01*
X150000Y195000D02*X147227Y196600D01*
X148400Y195000D02*G75*G03X151600Y195000I1600J0D01*G01*
G75*G03X148400Y195000I-1600J0D01*G01*
X150000Y165000D02*Y161800D01*
Y165000D02*X152773Y166600D01*
X150000Y165000D02*X147227Y166600D01*
X148400Y165000D02*G75*G03X151600Y165000I1600J0D01*G01*
G75*G03X148400Y165000I-1600J0D01*G01*
X15000Y291250D02*Y288050D01*
Y291250D02*X17773Y292850D01*
X15000Y291250D02*X12227Y292850D01*
X13400Y291250D02*G75*G03X16600Y291250I1600J0D01*G01*
G75*G03X13400Y291250I-1600J0D01*G01*
X135000Y293500D02*X136500Y290500D01*
X138000Y293500D01*
X136500Y290500D02*Y287500D01*
X139800Y290800D02*X142050D01*
X139800Y287500D02*X142800D01*
X139800Y293500D02*Y287500D01*
Y293500D02*X142800D01*
X147600D02*X148350Y292750D01*
X145350Y293500D02*X147600D01*
X144600Y292750D02*X145350Y293500D01*
X144600Y292750D02*Y291250D01*
X145350Y290500D01*
X147600D01*
X148350Y289750D01*
Y288250D01*
X147600Y287500D02*X148350Y288250D01*
X145350Y287500D02*X147600D01*
X144600Y288250D02*X145350Y287500D01*
X98000Y292750D02*X98750Y293500D01*
X100250D01*
X101000Y292750D01*
X100250Y287500D02*X101000Y288250D01*
X98750Y287500D02*X100250D01*
X98000Y288250D02*X98750Y287500D01*
Y290800D02*X100250D01*
X101000Y292750D02*Y291550D01*
Y290050D02*Y288250D01*
Y290050D02*X100250Y290800D01*
X101000Y291550D02*X100250Y290800D01*
X102800Y289750D02*X105800Y293500D01*
X102800Y289750D02*X106550D01*
X105800Y293500D02*Y287500D01*
X45000Y288250D02*X45750Y287500D01*
X45000Y292750D02*Y288250D01*
Y292750D02*X45750Y293500D01*
X47250D01*
X48000Y292750D01*
Y288250D01*
X47250Y287500D02*X48000Y288250D01*
X45750Y287500D02*X47250D01*
X45000Y289000D02*X48000Y292000D01*
X49800Y287500D02*X50550D01*
X52350Y288250D02*X53100Y287500D01*
X52350Y292750D02*Y288250D01*
Y292750D02*X53100Y293500D01*
X54600D01*
X55350Y292750D01*
Y288250D01*
X54600Y287500D02*X55350Y288250D01*
X53100Y287500D02*X54600D01*
X52350Y289000D02*X55350Y292000D01*
X57150Y289750D02*X60150Y293500D01*
X57150Y289750D02*X60900D01*
X60150Y293500D02*Y287500D01*
X62700Y288250D02*X63450Y287500D01*
X62700Y292750D02*Y288250D01*
Y292750D02*X63450Y293500D01*
X64950D01*
X65700Y292750D01*
Y288250D01*
X64950Y287500D02*X65700Y288250D01*
X63450Y287500D02*X64950D01*
X62700Y289000D02*X65700Y292000D01*
X178400Y134100D02*X181600D01*
X178400D02*Y130900D01*
X181600D01*
Y134100D02*Y130900D01*
X188400Y134100D02*X191600D01*
X188400D02*Y130900D01*
X191600D01*
Y134100D02*Y130900D01*
X198400Y134100D02*X201600D01*
X198400D02*Y130900D01*
X201600D01*
Y134100D02*Y130900D01*
X208400Y134100D02*X211600D01*
X208400D02*Y130900D01*
X211600D01*
Y134100D02*Y130900D01*
X218400Y134100D02*X221600D01*
X218400D02*Y130900D01*
X221600D01*
Y134100D02*Y130900D01*
X228400Y134100D02*X231600D01*
X228400D02*Y130900D01*
X231600D01*
Y134100D02*Y130900D01*
X238400Y134100D02*X241600D01*
X238400D02*Y130900D01*
X241600D01*
Y134100D02*Y130900D01*
X248400Y134100D02*X251600D01*
X248400D02*Y130900D01*
X251600D01*
Y134100D02*Y130900D01*
X258400Y134100D02*X261600D01*
X258400D02*Y130900D01*
X261600D01*
Y134100D02*Y130900D01*
X268400Y134100D02*X271600D01*
X268400D02*Y130900D01*
X271600D01*
Y134100D02*Y130900D01*
X278400Y134100D02*X281600D01*
X278400D02*Y130900D01*
X281600D01*
Y134100D02*Y130900D01*
X288400Y134100D02*X291600D01*
X288400D02*Y130900D01*
X291600D01*
Y134100D02*Y130900D01*
X298400Y134100D02*X301600D01*
X298400D02*Y130900D01*
X301600D01*
Y134100D02*Y130900D01*
X308400Y134100D02*X311600D01*
X308400D02*Y130900D01*
X311600D01*
Y134100D02*Y130900D01*
X318400Y134100D02*X321600D01*
X318400D02*Y130900D01*
X321600D01*
Y134100D02*Y130900D01*
X309400Y49100D02*X312600D01*
X309400D02*Y45900D01*
X312600D01*
Y49100D02*Y45900D01*
X329400Y49100D02*X332600D01*
X329400D02*Y45900D01*
X332600D01*
Y49100D02*Y45900D01*
X319400Y49100D02*X322600D01*
X319400D02*Y45900D01*
X322600D01*
Y49100D02*Y45900D01*
X279400Y49100D02*X282600D01*
X279400D02*Y45900D01*
X282600D01*
Y49100D02*Y45900D01*
X269400Y49100D02*X272600D01*
X269400D02*Y45900D01*
X272600D01*
Y49100D02*Y45900D01*
X239400Y49100D02*X242600D01*
X239400D02*Y45900D01*
X242600D01*
Y49100D02*Y45900D01*
X249400Y49100D02*X252600D01*
X249400D02*Y45900D01*
X252600D01*
Y49100D02*Y45900D01*
X259400Y49100D02*X262600D01*
X259400D02*Y45900D01*
X262600D01*
Y49100D02*Y45900D01*
X299400Y49100D02*X302600D01*
X299400D02*Y45900D01*
X302600D01*
Y49100D02*Y45900D01*
X289400Y49100D02*X292600D01*
X289400D02*Y45900D01*
X292600D01*
Y49100D02*Y45900D01*
X293400Y239100D02*X296600D01*
X293400D02*Y235900D01*
X296600D01*
Y239100D02*Y235900D01*
X283400Y239100D02*X286600D01*
X283400D02*Y235900D01*
X286600D01*
Y239100D02*Y235900D01*
X273400Y239100D02*X276600D01*
X273400D02*Y235900D01*
X276600D01*
Y239100D02*Y235900D01*
X263400Y239100D02*X266600D01*
X263400D02*Y235900D01*
X266600D01*
Y239100D02*Y235900D01*
X253400Y239100D02*X256600D01*
X253400D02*Y235900D01*
X256600D01*
Y239100D02*Y235900D01*
X243400Y239100D02*X246600D01*
X243400D02*Y235900D01*
X246600D01*
Y239100D02*Y235900D01*
X233400Y239100D02*X236600D01*
X233400D02*Y235900D01*
X236600D01*
Y239100D02*Y235900D01*
X223400Y239100D02*X226600D01*
X223400D02*Y235900D01*
X226600D01*
Y239100D02*Y235900D01*
X153400Y49100D02*X156600D01*
X153400D02*Y45900D01*
X156600D01*
Y49100D02*Y45900D01*
X163400Y49100D02*X166600D01*
X163400D02*Y45900D01*
X166600D01*
Y49100D02*Y45900D01*
X173400Y49100D02*X176600D01*
X173400D02*Y45900D01*
X176600D01*
Y49100D02*Y45900D01*
X183400Y49100D02*X186600D01*
X183400D02*Y45900D01*
X186600D01*
Y49100D02*Y45900D01*
X193400Y49100D02*X196600D01*
X193400D02*Y45900D01*
X196600D01*
Y49100D02*Y45900D01*
X203400Y49100D02*X206600D01*
X203400D02*Y45900D01*
X206600D01*
Y49100D02*Y45900D01*
X213400Y49100D02*X216600D01*
X213400D02*Y45900D01*
X216600D01*
Y49100D02*Y45900D01*
X223400Y49100D02*X226600D01*
X223400D02*Y45900D01*
X226600D01*
Y49100D02*Y45900D01*
X203400Y239100D02*X206600D01*
X203400D02*Y235900D01*
X206600D01*
Y239100D02*Y235900D01*
X193400Y239100D02*X196600D01*
X193400D02*Y235900D01*
X196600D01*
Y239100D02*Y235900D01*
X183400Y239100D02*X186600D01*
X183400D02*Y235900D01*
X186600D01*
Y239100D02*Y235900D01*
X173400Y239100D02*X176600D01*
X173400D02*Y235900D01*
X176600D01*
Y239100D02*Y235900D01*
X163400Y239100D02*X166600D01*
X163400D02*Y235900D01*
X166600D01*
Y239100D02*Y235900D01*
X153400Y239100D02*X156600D01*
X153400D02*Y235900D01*
X156600D01*
Y239100D02*Y235900D01*
X152900Y139100D02*X156100D01*
X152900D02*Y135900D01*
X156100D01*
Y139100D02*Y135900D01*
X142900Y139100D02*X146100D01*
X142900D02*Y135900D01*
X146100D01*
Y139100D02*Y135900D01*
X152900Y149100D02*X156100D01*
X152900D02*Y145900D01*
X156100D01*
Y149100D02*Y145900D01*
X142900Y149100D02*X146100D01*
X142900D02*Y145900D01*
X146100D01*
Y149100D02*Y145900D01*
X152900Y129100D02*X156100D01*
X152900D02*Y125900D01*
X156100D01*
Y129100D02*Y125900D01*
X142900Y129100D02*X146100D01*
X142900D02*Y125900D01*
X146100D01*
Y129100D02*Y125900D01*
X115900Y119100D02*X119100D01*
X115900D02*Y115900D01*
X119100D01*
Y119100D02*Y115900D01*
X115900Y89100D02*X119100D01*
X115900D02*Y85900D01*
X119100D01*
Y89100D02*Y85900D01*
X178400Y74100D02*X181600D01*
X178400D02*Y70900D01*
X181600D01*
Y74100D02*Y70900D01*
X188400Y74100D02*X191600D01*
X188400D02*Y70900D01*
X191600D01*
Y74100D02*Y70900D01*
X198400Y74100D02*X201600D01*
X198400D02*Y70900D01*
X201600D01*
Y74100D02*Y70900D01*
X208400Y74100D02*X211600D01*
X208400D02*Y70900D01*
X211600D01*
Y74100D02*Y70900D01*
X218400Y74100D02*X221600D01*
X218400D02*Y70900D01*
X221600D01*
Y74100D02*Y70900D01*
X228400Y74100D02*X231600D01*
X228400D02*Y70900D01*
X231600D01*
Y74100D02*Y70900D01*
X238400Y74100D02*X241600D01*
X238400D02*Y70900D01*
X241600D01*
Y74100D02*Y70900D01*
X248400Y74100D02*X251600D01*
X248400D02*Y70900D01*
X251600D01*
Y74100D02*Y70900D01*
X258400Y74100D02*X261600D01*
X258400D02*Y70900D01*
X261600D01*
Y74100D02*Y70900D01*
X268400Y74100D02*X271600D01*
X268400D02*Y70900D01*
X271600D01*
Y74100D02*Y70900D01*
X278400Y74100D02*X281600D01*
X278400D02*Y70900D01*
X281600D01*
Y74100D02*Y70900D01*
X288400Y74100D02*X291600D01*
X288400D02*Y70900D01*
X291600D01*
Y74100D02*Y70900D01*
X298400Y74100D02*X301600D01*
X298400D02*Y70900D01*
X301600D01*
Y74100D02*Y70900D01*
X308400Y74100D02*X311600D01*
X308400D02*Y70900D01*
X311600D01*
Y74100D02*Y70900D01*
X318400Y74100D02*X321600D01*
X318400D02*Y70900D01*
X321600D01*
Y74100D02*Y70900D01*
X353400Y74100D02*X356600D01*
X353400D02*Y70900D01*
X356600D01*
Y74100D02*Y70900D01*
X373400Y179100D02*X376600D01*
X373400D02*Y175900D01*
X376600D01*
Y179100D02*Y175900D01*
X373400Y189100D02*X376600D01*
X373400D02*Y185900D01*
X376600D01*
Y189100D02*Y185900D01*
X373400Y199100D02*X376600D01*
X373400D02*Y195900D01*
X376600D01*
Y199100D02*Y195900D01*
X373400Y209100D02*X376600D01*
X373400D02*Y205900D01*
X376600D01*
Y209100D02*Y205900D01*
X373400Y219100D02*X376600D01*
X373400D02*Y215900D01*
X376600D01*
Y219100D02*Y215900D01*
X373400Y229100D02*X376600D01*
X373400D02*Y225900D01*
X376600D01*
Y229100D02*Y225900D01*
X373400Y239100D02*X376600D01*
X373400D02*Y235900D01*
X376600D01*
Y239100D02*Y235900D01*
X13400Y307850D02*X16600D01*
X13400D02*Y304650D01*
X16600D01*
Y307850D02*Y304650D01*
X135000Y308500D02*X136500Y305500D01*
X138000Y308500D01*
X136500Y305500D02*Y302500D01*
X139800Y305800D02*X142050D01*
X139800Y302500D02*X142800D01*
X139800Y308500D02*Y302500D01*
Y308500D02*X142800D01*
X147600D02*X148350Y307750D01*
X145350Y308500D02*X147600D01*
X144600Y307750D02*X145350Y308500D01*
X144600Y307750D02*Y306250D01*
X145350Y305500D01*
X147600D01*
X148350Y304750D01*
Y303250D01*
X147600Y302500D02*X148350Y303250D01*
X145350Y302500D02*X147600D01*
X144600Y303250D02*X145350Y302500D01*
X98750D02*X101750Y308500D01*
X98000D02*X101750D01*
X103550Y303250D02*X104300Y302500D01*
X103550Y304450D02*Y303250D01*
Y304450D02*X104600Y305500D01*
X105500D01*
X106550Y304450D01*
Y303250D01*
X105800Y302500D02*X106550Y303250D01*
X104300Y302500D02*X105800D01*
X103550Y306550D02*X104600Y305500D01*
X103550Y307750D02*Y306550D01*
Y307750D02*X104300Y308500D01*
X105800D01*
X106550Y307750D01*
Y306550D01*
X105500Y305500D02*X106550Y306550D01*
X45000Y303250D02*X45750Y302500D01*
X45000Y307750D02*Y303250D01*
Y307750D02*X45750Y308500D01*
X47250D01*
X48000Y307750D01*
Y303250D01*
X47250Y302500D02*X48000Y303250D01*
X45750Y302500D02*X47250D01*
X45000Y304000D02*X48000Y307000D01*
X49800Y302500D02*X50550D01*
X52350Y303250D02*X53100Y302500D01*
X52350Y307750D02*Y303250D01*
Y307750D02*X53100Y308500D01*
X54600D01*
X55350Y307750D01*
Y303250D01*
X54600Y302500D02*X55350Y303250D01*
X53100Y302500D02*X54600D01*
X52350Y304000D02*X55350Y307000D01*
X57150Y307750D02*X57900Y308500D01*
X59400D01*
X60150Y307750D01*
X59400Y302500D02*X60150Y303250D01*
X57900Y302500D02*X59400D01*
X57150Y303250D02*X57900Y302500D01*
Y305800D02*X59400D01*
X60150Y307750D02*Y306550D01*
Y305050D02*Y303250D01*
Y305050D02*X59400Y305800D01*
X60150Y306550D02*X59400Y305800D01*
X61950Y303250D02*X62700Y302500D01*
X61950Y304450D02*Y303250D01*
Y304450D02*X63000Y305500D01*
X63900D01*
X64950Y304450D01*
Y303250D01*
X64200Y302500D02*X64950Y303250D01*
X62700Y302500D02*X64200D01*
X61950Y306550D02*X63000Y305500D01*
X61950Y307750D02*Y306550D01*
Y307750D02*X62700Y308500D01*
X64200D01*
X64950Y307750D01*
Y306550D01*
X63900Y305500D02*X64950Y306550D01*
X115700Y192500D02*G75*G03X117300Y192500I800J0D01*G01*
G75*G03X115700Y192500I-800J0D01*G01*
Y172500D02*G75*G03X117300Y172500I800J0D01*G01*
G75*G03X115700Y172500I-800J0D01*G01*
X261700Y209500D02*G75*G03X263300Y209500I800J0D01*G01*
G75*G03X261700Y209500I-800J0D01*G01*
X243200Y197000D02*G75*G03X244800Y197000I800J0D01*G01*
G75*G03X243200Y197000I-800J0D01*G01*
X290200Y175000D02*G75*G03X291800Y175000I800J0D01*G01*
G75*G03X290200Y175000I-800J0D01*G01*
X309200Y161000D02*G75*G03X310800Y161000I800J0D01*G01*
G75*G03X309200Y161000I-800J0D01*G01*
X345200Y178000D02*G75*G03X346800Y178000I800J0D01*G01*
G75*G03X345200Y178000I-800J0D01*G01*
X352200Y204000D02*G75*G03X353800Y204000I800J0D01*G01*
G75*G03X352200Y204000I-800J0D01*G01*
X322700Y233500D02*G75*G03X324300Y233500I800J0D01*G01*
G75*G03X322700Y233500I-800J0D01*G01*
X282700Y213500D02*G75*G03X284300Y213500I800J0D01*G01*
G75*G03X282700Y213500I-800J0D01*G01*
X85200Y131500D02*G75*G03X86800Y131500I800J0D01*G01*
G75*G03X85200Y131500I-800J0D01*G01*
X261700Y153000D02*G75*G03X263300Y153000I800J0D01*G01*
G75*G03X261700Y153000I-800J0D01*G01*
X14200Y321250D02*G75*G03X15800Y321250I800J0D01*G01*
G75*G03X14200Y321250I-800J0D01*G01*
X135000Y323500D02*X136500Y320500D01*
X138000Y323500D01*
X136500Y320500D02*Y317500D01*
X139800Y320800D02*X142050D01*
X139800Y317500D02*X142800D01*
X139800Y323500D02*Y317500D01*
Y323500D02*X142800D01*
X147600D02*X148350Y322750D01*
X145350Y323500D02*X147600D01*
X144600Y322750D02*X145350Y323500D01*
X144600Y322750D02*Y321250D01*
X145350Y320500D01*
X147600D01*
X148350Y319750D01*
Y318250D01*
X147600Y317500D02*X148350Y318250D01*
X145350Y317500D02*X147600D01*
X144600Y318250D02*X145350Y317500D01*
X98000Y322300D02*X99200Y323500D01*
Y317500D01*
X98000D02*X100250D01*
X102050Y322750D02*X102800Y323500D01*
X105050D01*
X105800Y322750D01*
Y321250D01*
X102050Y317500D02*X105800Y321250D01*
X102050Y317500D02*X105800D01*
X45000Y318250D02*X45750Y317500D01*
X45000Y322750D02*Y318250D01*
Y322750D02*X45750Y323500D01*
X47250D01*
X48000Y322750D01*
Y318250D01*
X47250Y317500D02*X48000Y318250D01*
X45750Y317500D02*X47250D01*
X45000Y319000D02*X48000Y322000D01*
X49800Y317500D02*X50550D01*
X52350Y318250D02*X53100Y317500D01*
X52350Y322750D02*Y318250D01*
Y322750D02*X53100Y323500D01*
X54600D01*
X55350Y322750D01*
Y318250D01*
X54600Y317500D02*X55350Y318250D01*
X53100Y317500D02*X54600D01*
X52350Y319000D02*X55350Y322000D01*
X57150Y322750D02*X57900Y323500D01*
X59400D01*
X60150Y322750D01*
X59400Y317500D02*X60150Y318250D01*
X57900Y317500D02*X59400D01*
X57150Y318250D02*X57900Y317500D01*
Y320800D02*X59400D01*
X60150Y322750D02*Y321550D01*
Y320050D02*Y318250D01*
Y320050D02*X59400Y320800D01*
X60150Y321550D02*X59400Y320800D01*
X61950Y318250D02*X62700Y317500D01*
X61950Y322750D02*Y318250D01*
Y322750D02*X62700Y323500D01*
X64200D01*
X64950Y322750D01*
Y318250D01*
X64200Y317500D02*X64950Y318250D01*
X62700Y317500D02*X64200D01*
X61950Y319000D02*X64950Y322000D01*
X352300Y186200D02*X354700Y183800D01*
X352300D02*X354700Y186200D01*
X332300Y241200D02*X334700Y238800D01*
X332300D02*X334700Y241200D01*
X390300Y241700D02*X392700Y239300D01*
X390300D02*X392700Y241700D01*
X309699Y202301D02*X312099Y199901D01*
X309699D02*X312099Y202301D01*
X315300Y188200D02*X317700Y185800D01*
X315300D02*X317700Y188200D01*
X181300Y200700D02*X183700Y198300D01*
X181300D02*X183700Y200700D01*
X220800Y170200D02*X223200Y167800D01*
X220800D02*X223200Y170200D01*
X196300Y151700D02*X198700Y149300D01*
X196300D02*X198700Y151700D01*
X178300Y170200D02*X180700Y167800D01*
X178300D02*X180700Y170200D01*
X230300Y155700D02*X232700Y153300D01*
X230300D02*X232700Y155700D01*
X89800Y195700D02*X92200Y193300D01*
X89800D02*X92200Y195700D01*
X7800Y220200D02*X10200Y217800D01*
X7800D02*X10200Y220200D01*
X38800Y19200D02*X41200Y16800D01*
X38800D02*X41200Y19200D01*
X25300Y8200D02*X27700Y5800D01*
X25300D02*X27700Y8200D01*
X26300Y235200D02*X28700Y232800D01*
X26300D02*X28700Y235200D01*
X72300Y235700D02*X74700Y233300D01*
X72300D02*X74700Y235700D01*
X204300Y216200D02*X206700Y213800D01*
X204300D02*X206700Y216200D01*
X186800Y220700D02*X189200Y218300D01*
X186800D02*X189200Y220700D01*
X342300Y138200D02*X344700Y135800D01*
X342300D02*X344700Y138200D01*
X214300Y190700D02*X216700Y188300D01*
X214300D02*X216700Y190700D01*
X13800Y337450D02*X16200Y335050D01*
X13800D02*X16200Y337450D01*
X135000Y338500D02*X136500Y335500D01*
X138000Y338500D01*
X136500Y335500D02*Y332500D01*
X139800Y335800D02*X142050D01*
X139800Y332500D02*X142800D01*
X139800Y338500D02*Y332500D01*
Y338500D02*X142800D01*
X147600D02*X148350Y337750D01*
X145350Y338500D02*X147600D01*
X144600Y337750D02*X145350Y338500D01*
X144600Y337750D02*Y336250D01*
X145350Y335500D01*
X147600D01*
X148350Y334750D01*
Y333250D01*
X147600Y332500D02*X148350Y333250D01*
X145350Y332500D02*X147600D01*
X144600Y333250D02*X145350Y332500D01*
X98000Y337750D02*X98750Y338500D01*
X101000D01*
X101750Y337750D01*
Y336250D01*
X98000Y332500D02*X101750Y336250D01*
X98000Y332500D02*X101750D01*
X103550Y333250D02*X104300Y332500D01*
X103550Y337750D02*Y333250D01*
Y337750D02*X104300Y338500D01*
X105800D01*
X106550Y337750D01*
Y333250D01*
X105800Y332500D02*X106550Y333250D01*
X104300Y332500D02*X105800D01*
X103550Y334000D02*X106550Y337000D01*
X45000Y333250D02*X45750Y332500D01*
X45000Y337750D02*Y333250D01*
Y337750D02*X45750Y338500D01*
X47250D01*
X48000Y337750D01*
Y333250D01*
X47250Y332500D02*X48000Y333250D01*
X45750Y332500D02*X47250D01*
X45000Y334000D02*X48000Y337000D01*
X49800Y332500D02*X50550D01*
X52350Y333250D02*X53100Y332500D01*
X52350Y337750D02*Y333250D01*
Y337750D02*X53100Y338500D01*
X54600D01*
X55350Y337750D01*
Y333250D01*
X54600Y332500D02*X55350Y333250D01*
X53100Y332500D02*X54600D01*
X52350Y334000D02*X55350Y337000D01*
X57150Y337750D02*X57900Y338500D01*
X60150D01*
X60900Y337750D01*
Y336250D01*
X57150Y332500D02*X60900Y336250D01*
X57150Y332500D02*X60900D01*
X62700Y333250D02*X63450Y332500D01*
X62700Y337750D02*Y333250D01*
Y337750D02*X63450Y338500D01*
X64950D01*
X65700Y337750D01*
Y333250D01*
X64950Y332500D02*X65700Y333250D01*
X63450Y332500D02*X64950D01*
X62700Y334000D02*X65700Y337000D01*
X23000Y146600D02*Y143400D01*
X21400Y145000D02*X24600D01*
X45000Y206100D02*Y202900D01*
X43400Y204500D02*X46600D01*
X53705Y205305D02*Y202105D01*
X52105Y203705D02*X55305D01*
X57000Y223600D02*Y220400D01*
X55400Y222000D02*X58600D01*
X56000Y217600D02*Y214400D01*
X54400Y216000D02*X57600D01*
X40500Y147100D02*Y143900D01*
X38900Y145500D02*X42100D01*
X51000Y147100D02*Y143900D01*
X49400Y145500D02*X52600D01*
X34000Y81600D02*Y78400D01*
X32400Y80000D02*X35600D01*
X118500Y35600D02*Y32400D01*
X116900Y34000D02*X120100D01*
X28000Y86100D02*Y82900D01*
X26400Y84500D02*X29600D01*
X123000Y32600D02*Y29400D01*
X121400Y31000D02*X124600D01*
X23500Y78100D02*Y74900D01*
X21900Y76500D02*X25100D01*
X16500Y78100D02*Y74900D01*
X14900Y76500D02*X18100D01*
X123000Y26600D02*Y23400D01*
X121400Y25000D02*X124600D01*
X153500Y205100D02*Y201900D01*
X151900Y203500D02*X155100D01*
X142500Y191600D02*Y188400D01*
X140900Y190000D02*X144100D01*
X140500Y170600D02*Y167400D01*
X138900Y169000D02*X142100D01*
X156500Y172100D02*Y168900D01*
X154900Y170500D02*X158100D01*
X43000Y84100D02*Y80900D01*
X41400Y82500D02*X44600D01*
X13500Y97100D02*Y93900D01*
X11900Y95500D02*X15100D01*
X14500Y134600D02*Y131400D01*
X12900Y133000D02*X16100D01*
X32000Y113100D02*Y109900D01*
X30400Y111500D02*X33600D01*
X10500Y149600D02*Y146400D01*
X8900Y148000D02*X12100D01*
X6000Y190100D02*Y186900D01*
X4400Y188500D02*X7600D01*
X60000Y120600D02*Y117400D01*
X58400Y119000D02*X61600D01*
X75000Y118600D02*Y115400D01*
X73400Y117000D02*X76600D01*
X64000Y111600D02*Y108400D01*
X62400Y110000D02*X65600D01*
X63000Y95600D02*Y92400D01*
X61400Y94000D02*X64600D01*
X76500Y104600D02*Y101400D01*
X74900Y103000D02*X78100D01*
X39500Y49100D02*Y45900D01*
X37900Y47500D02*X41100D01*
X30000Y34600D02*Y31400D01*
X28400Y33000D02*X31600D01*
X9000Y41600D02*Y38400D01*
X7400Y40000D02*X10600D01*
X29000Y58600D02*Y55400D01*
X27400Y57000D02*X30600D01*
X250500Y211100D02*Y207900D01*
X248900Y209500D02*X252100D01*
X273000Y211100D02*Y207900D01*
X271400Y209500D02*X274600D01*
X283500Y186600D02*Y183400D01*
X281900Y185000D02*X285100D01*
X198500Y230600D02*Y227400D01*
X196900Y229000D02*X200100D01*
X337000Y172100D02*Y168900D01*
X335400Y170500D02*X338600D01*
X321500Y58100D02*Y54900D01*
X319900Y56500D02*X323100D01*
X371000Y64600D02*Y61400D01*
X369400Y63000D02*X372600D01*
X128000Y29600D02*Y26400D01*
X126400Y28000D02*X129600D01*
X89000Y39600D02*Y36400D01*
X87400Y38000D02*X90600D01*
X89000Y60100D02*Y56900D01*
X87400Y58500D02*X90600D01*
X69000Y42600D02*Y39400D01*
X67400Y41000D02*X70600D01*
X69000Y58600D02*Y55400D01*
X67400Y57000D02*X70600D01*
X81500Y65100D02*Y61900D01*
X79900Y63500D02*X83100D01*
X43500Y96100D02*Y92900D01*
X41900Y94500D02*X45100D01*
X100000Y203100D02*Y199900D01*
X98400Y201500D02*X101600D01*
X99000Y187600D02*Y184400D01*
X97400Y186000D02*X100600D01*
X36500Y217100D02*Y213900D01*
X34900Y215500D02*X38100D01*
X36500Y206100D02*Y202900D01*
X34900Y204500D02*X38100D01*
X91500Y10600D02*Y7400D01*
X89900Y9000D02*X93100D01*
X55500Y148600D02*Y145400D01*
X53900Y147000D02*X57100D01*
X31500Y148100D02*Y144900D01*
X29900Y146500D02*X33100D01*
X27500Y190100D02*Y186900D01*
X25900Y188500D02*X29100D01*
X10000Y193600D02*Y190400D01*
X8400Y192000D02*X11600D01*
X28500Y179100D02*Y175900D01*
X26900Y177500D02*X30100D01*
X3000Y182100D02*Y178900D01*
X1400Y180500D02*X4600D01*
X71000Y175100D02*Y171900D01*
X69400Y173500D02*X72600D01*
X112500Y162100D02*Y158900D01*
X110900Y160500D02*X114100D01*
X109000Y179600D02*Y176400D01*
X107400Y178000D02*X110600D01*
X12000Y157100D02*Y153900D01*
X10400Y155500D02*X13600D01*
X361000Y146600D02*Y143400D01*
X359400Y145000D02*X362600D01*
X362000Y131600D02*Y128400D01*
X360400Y130000D02*X363600D01*
X172000Y93600D02*Y90400D01*
X170400Y92000D02*X173600D01*
X137000Y74600D02*Y71400D01*
X135400Y73000D02*X138600D01*
X138500Y116600D02*Y113400D01*
X136900Y115000D02*X140100D01*
X340000Y85100D02*Y81900D01*
X338400Y83500D02*X341600D01*
X290000Y110100D02*Y106900D01*
X288400Y108500D02*X291600D01*
X108500Y11600D02*Y8400D01*
X106900Y10000D02*X110100D01*
X9500Y169100D02*Y165900D01*
X7900Y167500D02*X11100D01*
X29000Y18600D02*Y15400D01*
X27400Y17000D02*X30600D01*
X59000Y146100D02*Y142900D01*
X57400Y144500D02*X60600D01*
X23500Y104100D02*Y100900D01*
X21900Y102500D02*X25100D01*
X59000Y232600D02*Y229400D01*
X57400Y231000D02*X60600D01*
X44500Y232600D02*Y229400D01*
X42900Y231000D02*X46100D01*
X58500Y19100D02*Y15900D01*
X56900Y17500D02*X60100D01*
X72500Y16600D02*Y13400D01*
X70900Y15000D02*X74100D01*
X68000Y4100D02*Y900D01*
X66400Y2500D02*X69600D01*
X72500Y218600D02*Y215400D01*
X70900Y217000D02*X74100D01*
X74500Y225600D02*Y222400D01*
X72900Y224000D02*X76100D01*
X315500Y215100D02*Y211900D01*
X313900Y213500D02*X317100D01*
X342500Y215100D02*Y211900D01*
X340900Y213500D02*X344100D01*
X69000Y184600D02*Y181400D01*
X67400Y183000D02*X70600D01*
X20000Y187100D02*Y183900D01*
X18400Y185500D02*X21600D01*
X15000Y352850D02*Y349650D01*
X13400Y351250D02*X16600D01*
X135000Y353500D02*X136500Y350500D01*
X138000Y353500D01*
X136500Y350500D02*Y347500D01*
X139800Y350800D02*X142050D01*
X139800Y347500D02*X142800D01*
X139800Y353500D02*Y347500D01*
Y353500D02*X142800D01*
X147600D02*X148350Y352750D01*
X145350Y353500D02*X147600D01*
X144600Y352750D02*X145350Y353500D01*
X144600Y352750D02*Y351250D01*
X145350Y350500D01*
X147600D01*
X148350Y349750D01*
Y348250D01*
X147600Y347500D02*X148350Y348250D01*
X145350Y347500D02*X147600D01*
X144600Y348250D02*X145350Y347500D01*
X98000Y348250D02*X98750Y347500D01*
X98000Y349450D02*Y348250D01*
Y349450D02*X99050Y350500D01*
X99950D01*
X101000Y349450D01*
Y348250D01*
X100250Y347500D02*X101000Y348250D01*
X98750Y347500D02*X100250D01*
X98000Y351550D02*X99050Y350500D01*
X98000Y352750D02*Y351550D01*
Y352750D02*X98750Y353500D01*
X100250D01*
X101000Y352750D01*
Y351550D01*
X99950Y350500D02*X101000Y351550D01*
X102800Y353500D02*X105800D01*
X102800D02*Y350500D01*
X103550Y351250D01*
X105050D01*
X105800Y350500D01*
Y348250D01*
X105050Y347500D02*X105800Y348250D01*
X103550Y347500D02*X105050D01*
X102800Y348250D02*X103550Y347500D01*
X45000Y348250D02*X45750Y347500D01*
X45000Y352750D02*Y348250D01*
Y352750D02*X45750Y353500D01*
X47250D01*
X48000Y352750D01*
Y348250D01*
X47250Y347500D02*X48000Y348250D01*
X45750Y347500D02*X47250D01*
X45000Y349000D02*X48000Y352000D01*
X49800Y347500D02*X50550D01*
X52350Y348250D02*X53100Y347500D01*
X52350Y352750D02*Y348250D01*
Y352750D02*X53100Y353500D01*
X54600D01*
X55350Y352750D01*
Y348250D01*
X54600Y347500D02*X55350Y348250D01*
X53100Y347500D02*X54600D01*
X52350Y349000D02*X55350Y352000D01*
X57150Y352300D02*X58350Y353500D01*
Y347500D01*
X57150D02*X59400D01*
X61200Y353500D02*X64200D01*
X61200D02*Y350500D01*
X61950Y351250D01*
X63450D01*
X64200Y350500D01*
Y348250D01*
X63450Y347500D02*X64200Y348250D01*
X61950Y347500D02*X63450D01*
X61200Y348250D02*X61950Y347500D01*
X52697Y178663D02*Y177063D01*
Y178663D02*X54084Y179463D01*
X52697Y178663D02*X51310Y179463D01*
X52697Y182993D02*Y181393D01*
Y182993D02*X54084Y183793D01*
X52697Y182993D02*X51310Y183793D01*
X52697Y187323D02*Y185723D01*
Y187323D02*X54084Y188123D01*
X52697Y187323D02*X51310Y188123D01*
X48367Y187323D02*Y185723D01*
Y187323D02*X49754Y188123D01*
X48367Y187323D02*X46980Y188123D01*
X57028Y187323D02*Y185723D01*
Y187323D02*X58415Y188123D01*
X57028Y187323D02*X55641Y188123D01*
X44037Y178663D02*Y177063D01*
Y178663D02*X45424Y179463D01*
X44037Y178663D02*X42650Y179463D01*
X57028Y178663D02*Y177063D01*
Y178663D02*X58415Y179463D01*
X57028Y178663D02*X55641Y179463D01*
X39706Y178663D02*Y177063D01*
Y178663D02*X41093Y179463D01*
X39706Y178663D02*X38319Y179463D01*
X39706Y182993D02*Y181393D01*
Y182993D02*X41093Y183793D01*
X39706Y182993D02*X38319Y183793D01*
X39706Y187323D02*Y185723D01*
Y187323D02*X41093Y188123D01*
X39706Y187323D02*X38319Y188123D01*
X44037Y187323D02*Y185723D01*
Y187323D02*X45424Y188123D01*
X44037Y187323D02*X42650Y188123D01*
X44037Y182993D02*Y181393D01*
Y182993D02*X45424Y183793D01*
X44037Y182993D02*X42650Y183793D01*
X57028Y182993D02*Y181393D01*
Y182993D02*X58415Y183793D01*
X57028Y182993D02*X55641Y183793D01*
X48367Y182993D02*Y181393D01*
Y182993D02*X49754Y183793D01*
X48367Y182993D02*X46980Y183793D01*
X48367Y178663D02*Y177063D01*
Y178663D02*X49754Y179463D01*
X48367Y178663D02*X46980Y179463D01*
X15000Y366250D02*Y364650D01*
Y366250D02*X16387Y367050D01*
X15000Y366250D02*X13613Y367050D01*
X135000Y368500D02*X136500Y365500D01*
X138000Y368500D01*
X136500Y365500D02*Y362500D01*
X139800Y365800D02*X142050D01*
X139800Y362500D02*X142800D01*
X139800Y368500D02*Y362500D01*
Y368500D02*X142800D01*
X147600D02*X148350Y367750D01*
X145350Y368500D02*X147600D01*
X144600Y367750D02*X145350Y368500D01*
X144600Y367750D02*Y366250D01*
X145350Y365500D01*
X147600D01*
X148350Y364750D01*
Y363250D01*
X147600Y362500D02*X148350Y363250D01*
X145350Y362500D02*X147600D01*
X144600Y363250D02*X145350Y362500D01*
X98000Y367300D02*X99200Y368500D01*
Y362500D01*
X98000D02*X100250D01*
X102050Y368500D02*X105050D01*
X102050D02*Y365500D01*
X102800Y366250D01*
X104300D01*
X105050Y365500D01*
Y363250D01*
X104300Y362500D02*X105050Y363250D01*
X102800Y362500D02*X104300D01*
X102050Y363250D02*X102800Y362500D01*
X45000Y363250D02*X45750Y362500D01*
X45000Y367750D02*Y363250D01*
Y367750D02*X45750Y368500D01*
X47250D01*
X48000Y367750D01*
Y363250D01*
X47250Y362500D02*X48000Y363250D01*
X45750Y362500D02*X47250D01*
X45000Y364000D02*X48000Y367000D01*
X49800Y362500D02*X50550D01*
X52350Y363250D02*X53100Y362500D01*
X52350Y367750D02*Y363250D01*
Y367750D02*X53100Y368500D01*
X54600D01*
X55350Y367750D01*
Y363250D01*
X54600Y362500D02*X55350Y363250D01*
X53100Y362500D02*X54600D01*
X52350Y364000D02*X55350Y367000D01*
X57150Y363250D02*X57900Y362500D01*
X57150Y367750D02*Y363250D01*
Y367750D02*X57900Y368500D01*
X59400D01*
X60150Y367750D01*
Y363250D01*
X59400Y362500D02*X60150Y363250D01*
X57900Y362500D02*X59400D01*
X57150Y364000D02*X60150Y367000D01*
X61950Y363250D02*X62700Y362500D01*
X61950Y364450D02*Y363250D01*
Y364450D02*X63000Y365500D01*
X63900D01*
X64950Y364450D01*
Y363250D01*
X64200Y362500D02*X64950Y363250D01*
X62700Y362500D02*X64200D01*
X61950Y366550D02*X63000Y365500D01*
X61950Y367750D02*Y366550D01*
Y367750D02*X62700Y368500D01*
X64200D01*
X64950Y367750D01*
Y366550D01*
X63900Y365500D02*X64950Y366550D01*
X3000Y383500D02*X3750Y382750D01*
X750Y383500D02*X3000D01*
X0Y382750D02*X750Y383500D01*
X0Y382750D02*Y381250D01*
X750Y380500D01*
X3000D01*
X3750Y379750D01*
Y378250D01*
X3000Y377500D02*X3750Y378250D01*
X750Y377500D02*X3000D01*
X0Y378250D02*X750Y377500D01*
X5550Y380500D02*Y378250D01*
X6300Y377500D01*
X8550Y380500D02*Y376000D01*
X7800Y375250D02*X8550Y376000D01*
X6300Y375250D02*X7800D01*
X5550Y376000D02*X6300Y375250D01*
Y377500D02*X7800D01*
X8550Y378250D01*
X11100Y379750D02*Y377500D01*
Y379750D02*X11850Y380500D01*
X12600D01*
X13350Y379750D01*
Y377500D01*
Y379750D02*X14100Y380500D01*
X14850D01*
X15600Y379750D01*
Y377500D01*
X10350Y380500D02*X11100Y379750D01*
X17400Y383500D02*Y377500D01*
Y378250D02*X18150Y377500D01*
X19650D01*
X20400Y378250D01*
Y379750D02*Y378250D01*
X19650Y380500D02*X20400Y379750D01*
X18150Y380500D02*X19650D01*
X17400Y379750D02*X18150Y380500D01*
X22200Y379750D02*Y378250D01*
Y379750D02*X22950Y380500D01*
X24450D01*
X25200Y379750D01*
Y378250D01*
X24450Y377500D02*X25200Y378250D01*
X22950Y377500D02*X24450D01*
X22200Y378250D02*X22950Y377500D01*
X27000Y383500D02*Y378250D01*
X27750Y377500D01*
X0Y374250D02*X29250D01*
X41750Y383500D02*Y377500D01*
X43700Y383500D02*X44750Y382450D01*
Y378550D01*
X43700Y377500D02*X44750Y378550D01*
X41000Y377500D02*X43700D01*
X41000Y383500D02*X43700D01*
G54D142*X46550Y382000D02*Y381850D01*
G54D141*Y379750D02*Y377500D01*
X50300Y380500D02*X51050Y379750D01*
X48800Y380500D02*X50300D01*
X48050Y379750D02*X48800Y380500D01*
X48050Y379750D02*Y378250D01*
X48800Y377500D01*
X51050Y380500D02*Y378250D01*
X51800Y377500D01*
X48800D02*X50300D01*
X51050Y378250D01*
X54350Y379750D02*Y377500D01*
Y379750D02*X55100Y380500D01*
X55850D01*
X56600Y379750D01*
Y377500D01*
Y379750D02*X57350Y380500D01*
X58100D01*
X58850Y379750D01*
Y377500D01*
X53600Y380500D02*X54350Y379750D01*
X60650Y377500D02*X61400D01*
X65900Y378250D02*X66650Y377500D01*
X65900Y382750D02*X66650Y383500D01*
X65900Y382750D02*Y378250D01*
X68450Y383500D02*X69950D01*
X69200D02*Y377500D01*
X68450D02*X69950D01*
X72500Y379750D02*Y377500D01*
Y379750D02*X73250Y380500D01*
X74000D01*
X74750Y379750D01*
Y377500D01*
X71750Y380500D02*X72500Y379750D01*
X77300Y380500D02*X79550D01*
X76550Y379750D02*X77300Y380500D01*
X76550Y379750D02*Y378250D01*
X77300Y377500D01*
X79550D01*
X81350Y383500D02*Y377500D01*
Y379750D02*X82100Y380500D01*
X83600D01*
X84350Y379750D01*
Y377500D01*
X86150Y383500D02*X86900Y382750D01*
Y378250D01*
X86150Y377500D02*X86900Y378250D01*
X41000Y374250D02*X88700D01*
X96050Y377500D02*X98000D01*
X95000Y378550D02*X96050Y377500D01*
X95000Y382450D02*Y378550D01*
Y382450D02*X96050Y383500D01*
X98000D01*
X99800Y379750D02*Y378250D01*
Y379750D02*X100550Y380500D01*
X102050D01*
X102800Y379750D01*
Y378250D01*
X102050Y377500D02*X102800Y378250D01*
X100550Y377500D02*X102050D01*
X99800Y378250D02*X100550Y377500D01*
X104600Y380500D02*Y378250D01*
X105350Y377500D01*
X106850D01*
X107600Y378250D01*
Y380500D02*Y378250D01*
X110150Y379750D02*Y377500D01*
Y379750D02*X110900Y380500D01*
X111650D01*
X112400Y379750D01*
Y377500D01*
X109400Y380500D02*X110150Y379750D01*
X114950Y383500D02*Y378250D01*
X115700Y377500D01*
X114200Y381250D02*X115700D01*
X95000Y374250D02*X117200D01*
X130750Y383500D02*Y377500D01*
X130000Y383500D02*X133000D01*
X133750Y382750D01*
Y381250D01*
X133000Y380500D02*X133750Y381250D01*
X130750Y380500D02*X133000D01*
X135550Y383500D02*Y378250D01*
X136300Y377500D01*
X140050Y380500D02*X140800Y379750D01*
X138550Y380500D02*X140050D01*
X137800Y379750D02*X138550Y380500D01*
X137800Y379750D02*Y378250D01*
X138550Y377500D01*
X140800Y380500D02*Y378250D01*
X141550Y377500D01*
X138550D02*X140050D01*
X140800Y378250D01*
X144100Y383500D02*Y378250D01*
X144850Y377500D01*
X143350Y381250D02*X144850D01*
X147100Y377500D02*X149350D01*
X146350Y378250D02*X147100Y377500D01*
X146350Y379750D02*Y378250D01*
Y379750D02*X147100Y380500D01*
X148600D01*
X149350Y379750D01*
X146350Y379000D02*X149350D01*
Y379750D02*Y379000D01*
X154150Y383500D02*Y377500D01*
X153400D02*X154150Y378250D01*
X151900Y377500D02*X153400D01*
X151150Y378250D02*X151900Y377500D01*
X151150Y379750D02*Y378250D01*
Y379750D02*X151900Y380500D01*
X153400D01*
X154150Y379750D01*
X157450Y380500D02*Y379750D01*
Y378250D02*Y377500D01*
X155950Y382750D02*Y382000D01*
Y382750D02*X156700Y383500D01*
X158200D01*
X158950Y382750D01*
Y382000D01*
X157450Y380500D02*X158950Y382000D01*
X130000Y374250D02*X160750D01*
X0Y398500D02*X3000D01*
X1500D02*Y392500D01*
X4800Y398500D02*Y392500D01*
Y394750D02*X5550Y395500D01*
X7050D01*
X7800Y394750D01*
Y392500D01*
X10350D02*X12600D01*
X9600Y393250D02*X10350Y392500D01*
X9600Y394750D02*Y393250D01*
Y394750D02*X10350Y395500D01*
X11850D01*
X12600Y394750D01*
X9600Y394000D02*X12600D01*
Y394750D02*Y394000D01*
X15150Y394750D02*Y392500D01*
Y394750D02*X15900Y395500D01*
X17400D01*
X14400D02*X15150Y394750D01*
X19950Y392500D02*X22200D01*
X19200Y393250D02*X19950Y392500D01*
X19200Y394750D02*Y393250D01*
Y394750D02*X19950Y395500D01*
X21450D01*
X22200Y394750D01*
X19200Y394000D02*X22200D01*
Y394750D02*Y394000D01*
X28950Y395500D02*X29700Y394750D01*
X27450Y395500D02*X28950D01*
X26700Y394750D02*X27450Y395500D01*
X26700Y394750D02*Y393250D01*
X27450Y392500D01*
X29700Y395500D02*Y393250D01*
X30450Y392500D01*
X27450D02*X28950D01*
X29700Y393250D01*
X33000Y394750D02*Y392500D01*
Y394750D02*X33750Y395500D01*
X35250D01*
X32250D02*X33000Y394750D01*
X37800Y392500D02*X40050D01*
X37050Y393250D02*X37800Y392500D01*
X37050Y394750D02*Y393250D01*
Y394750D02*X37800Y395500D01*
X39300D01*
X40050Y394750D01*
X37050Y394000D02*X40050D01*
Y394750D02*Y394000D01*
X44550Y393250D02*X45300Y392500D01*
X44550Y394450D02*Y393250D01*
Y394450D02*X45600Y395500D01*
X46500D01*
X47550Y394450D01*
Y393250D01*
X46800Y392500D02*X47550Y393250D01*
X45300Y392500D02*X46800D01*
X44550Y396550D02*X45600Y395500D01*
X44550Y397750D02*Y396550D01*
Y397750D02*X45300Y398500D01*
X46800D01*
X47550Y397750D01*
Y396550D01*
X46500Y395500D02*X47550Y396550D01*
X55050Y398500D02*Y392500D01*
X54300D02*X55050Y393250D01*
X52800Y392500D02*X54300D01*
X52050Y393250D02*X52800Y392500D01*
X52050Y394750D02*Y393250D01*
Y394750D02*X52800Y395500D01*
X54300D01*
X55050Y394750D01*
G54D142*X56850Y397000D02*Y396850D01*
G54D141*Y394750D02*Y392500D01*
X59100Y397750D02*Y392500D01*
Y397750D02*X59850Y398500D01*
X60600D01*
X58350Y395500D02*X59850D01*
X62850Y397750D02*Y392500D01*
Y397750D02*X63600Y398500D01*
X64350D01*
X62100Y395500D02*X63600D01*
X66600Y392500D02*X68850D01*
X65850Y393250D02*X66600Y392500D01*
X65850Y394750D02*Y393250D01*
Y394750D02*X66600Y395500D01*
X68100D01*
X68850Y394750D01*
X65850Y394000D02*X68850D01*
Y394750D02*Y394000D01*
X71400Y394750D02*Y392500D01*
Y394750D02*X72150Y395500D01*
X73650D01*
X70650D02*X71400Y394750D01*
X76200Y392500D02*X78450D01*
X75450Y393250D02*X76200Y392500D01*
X75450Y394750D02*Y393250D01*
Y394750D02*X76200Y395500D01*
X77700D01*
X78450Y394750D01*
X75450Y394000D02*X78450D01*
Y394750D02*Y394000D01*
X81000Y394750D02*Y392500D01*
Y394750D02*X81750Y395500D01*
X82500D01*
X83250Y394750D01*
Y392500D01*
X80250Y395500D02*X81000Y394750D01*
X85800Y398500D02*Y393250D01*
X86550Y392500D01*
X85050Y396250D02*X86550D01*
X93750Y398500D02*Y392500D01*
X93000D02*X93750Y393250D01*
X91500Y392500D02*X93000D01*
X90750Y393250D02*X91500Y392500D01*
X90750Y394750D02*Y393250D01*
Y394750D02*X91500Y395500D01*
X93000D01*
X93750Y394750D01*
X96300D02*Y392500D01*
Y394750D02*X97050Y395500D01*
X98550D01*
X95550D02*X96300Y394750D01*
G54D142*X100350Y397000D02*Y396850D01*
G54D141*Y394750D02*Y392500D01*
X101850Y398500D02*Y393250D01*
X102600Y392500D01*
X104100Y398500D02*Y393250D01*
X104850Y392500D01*
X109800D02*X112050D01*
X112800Y393250D01*
X112050Y394000D02*X112800Y393250D01*
X109800Y394000D02*X112050D01*
X109050Y394750D02*X109800Y394000D01*
X109050Y394750D02*X109800Y395500D01*
X112050D01*
X112800Y394750D01*
X109050Y393250D02*X109800Y392500D01*
G54D142*X114600Y397000D02*Y396850D01*
G54D141*Y394750D02*Y392500D01*
X116100Y395500D02*X119100D01*
X116100Y392500D02*X119100Y395500D01*
X116100Y392500D02*X119100D01*
X121650D02*X123900D01*
X120900Y393250D02*X121650Y392500D01*
X120900Y394750D02*Y393250D01*
Y394750D02*X121650Y395500D01*
X123150D01*
X123900Y394750D01*
X120900Y394000D02*X123900D01*
Y394750D02*Y394000D01*
X126450Y392500D02*X128700D01*
X129450Y393250D01*
X128700Y394000D02*X129450Y393250D01*
X126450Y394000D02*X128700D01*
X125700Y394750D02*X126450Y394000D01*
X125700Y394750D02*X126450Y395500D01*
X128700D01*
X129450Y394750D01*
X125700Y393250D02*X126450Y392500D01*
X133950Y395500D02*Y393250D01*
X134700Y392500D01*
X136200D01*
X136950Y393250D01*
Y395500D02*Y393250D01*
X139500Y392500D02*X141750D01*
X142500Y393250D01*
X141750Y394000D02*X142500Y393250D01*
X139500Y394000D02*X141750D01*
X138750Y394750D02*X139500Y394000D01*
X138750Y394750D02*X139500Y395500D01*
X141750D01*
X142500Y394750D01*
X138750Y393250D02*X139500Y392500D01*
X145050D02*X147300D01*
X144300Y393250D02*X145050Y392500D01*
X144300Y394750D02*Y393250D01*
Y394750D02*X145050Y395500D01*
X146550D01*
X147300Y394750D01*
X144300Y394000D02*X147300D01*
Y394750D02*Y394000D01*
X152100Y398500D02*Y392500D01*
X151350D02*X152100Y393250D01*
X149850Y392500D02*X151350D01*
X149100Y393250D02*X149850Y392500D01*
X149100Y394750D02*Y393250D01*
Y394750D02*X149850Y395500D01*
X151350D01*
X152100Y394750D01*
G54D142*X156600Y397000D02*Y396850D01*
G54D141*Y394750D02*Y392500D01*
X158850Y394750D02*Y392500D01*
Y394750D02*X159600Y395500D01*
X160350D01*
X161100Y394750D01*
Y392500D01*
X158100Y395500D02*X158850Y394750D01*
X166350Y398500D02*Y393250D01*
X167100Y392500D01*
X165600Y396250D02*X167100D01*
X168600Y398500D02*Y392500D01*
Y394750D02*X169350Y395500D01*
X170850D01*
X171600Y394750D01*
Y392500D01*
G54D142*X173400Y397000D02*Y396850D01*
G54D141*Y394750D02*Y392500D01*
X175650D02*X177900D01*
X178650Y393250D01*
X177900Y394000D02*X178650Y393250D01*
X175650Y394000D02*X177900D01*
X174900Y394750D02*X175650Y394000D01*
X174900Y394750D02*X175650Y395500D01*
X177900D01*
X178650Y394750D01*
X174900Y393250D02*X175650Y392500D01*
X183150Y398500D02*Y393250D01*
X183900Y392500D01*
X187650Y395500D02*X188400Y394750D01*
X186150Y395500D02*X187650D01*
X185400Y394750D02*X186150Y395500D01*
X185400Y394750D02*Y393250D01*
X186150Y392500D01*
X188400Y395500D02*Y393250D01*
X189150Y392500D01*
X186150D02*X187650D01*
X188400Y393250D01*
X190950Y395500D02*Y393250D01*
X191700Y392500D01*
X193950Y395500D02*Y391000D01*
X193200Y390250D02*X193950Y391000D01*
X191700Y390250D02*X193200D01*
X190950Y391000D02*X191700Y390250D01*
Y392500D02*X193200D01*
X193950Y393250D01*
X195750Y394750D02*Y393250D01*
Y394750D02*X196500Y395500D01*
X198000D01*
X198750Y394750D01*
Y393250D01*
X198000Y392500D02*X198750Y393250D01*
X196500Y392500D02*X198000D01*
X195750Y393250D02*X196500Y392500D01*
X200550Y395500D02*Y393250D01*
X201300Y392500D01*
X202800D01*
X203550Y393250D01*
Y395500D02*Y393250D01*
X206100Y398500D02*Y393250D01*
X206850Y392500D01*
X205350Y396250D02*X206850D01*
X208350Y391000D02*X209850Y392500D01*
X214350Y397750D02*X215100Y398500D01*
X217350D01*
X218100Y397750D01*
Y396250D01*
X214350Y392500D02*X218100Y396250D01*
X214350Y392500D02*X218100D01*
X219900Y398500D02*X222900D01*
X219900D02*Y395500D01*
X220650Y396250D01*
X222150D01*
X222900Y395500D01*
Y393250D01*
X222150Y392500D02*X222900Y393250D01*
X220650Y392500D02*X222150D01*
X219900Y393250D02*X220650Y392500D01*
X224700Y397300D02*X225900Y398500D01*
Y392500D01*
X224700D02*X226950D01*
X231450Y398500D02*Y392500D01*
Y394750D02*X232200Y395500D01*
X233700D01*
X234450Y394750D01*
Y392500D01*
X236250Y394750D02*Y393250D01*
Y394750D02*X237000Y395500D01*
X238500D01*
X239250Y394750D01*
Y393250D01*
X238500Y392500D02*X239250Y393250D01*
X237000Y392500D02*X238500D01*
X236250Y393250D02*X237000Y392500D01*
X241050Y398500D02*Y393250D01*
X241800Y392500D01*
X244050D02*X246300D01*
X243300Y393250D02*X244050Y392500D01*
X243300Y394750D02*Y393250D01*
Y394750D02*X244050Y395500D01*
X245550D01*
X246300Y394750D01*
X243300Y394000D02*X246300D01*
Y394750D02*Y394000D01*
X248850Y392500D02*X251100D01*
X251850Y393250D01*
X251100Y394000D02*X251850Y393250D01*
X248850Y394000D02*X251100D01*
X248100Y394750D02*X248850Y394000D01*
X248100Y394750D02*X248850Y395500D01*
X251100D01*
X251850Y394750D01*
X248100Y393250D02*X248850Y392500D01*
X257100Y398500D02*Y393250D01*
X257850Y392500D01*
X256350Y396250D02*X257850D01*
X259350Y394750D02*Y393250D01*
Y394750D02*X260100Y395500D01*
X261600D01*
X262350Y394750D01*
Y393250D01*
X261600Y392500D02*X262350Y393250D01*
X260100Y392500D02*X261600D01*
X259350Y393250D02*X260100Y392500D01*
X264900Y398500D02*Y393250D01*
X265650Y392500D01*
X264150Y396250D02*X265650D01*
X269400Y395500D02*X270150Y394750D01*
X267900Y395500D02*X269400D01*
X267150Y394750D02*X267900Y395500D01*
X267150Y394750D02*Y393250D01*
X267900Y392500D01*
X270150Y395500D02*Y393250D01*
X270900Y392500D01*
X267900D02*X269400D01*
X270150Y393250D01*
X272700Y398500D02*Y393250D01*
X273450Y392500D01*
G54D143*X0Y250000D02*X410000D01*
X0D02*Y0D01*
X410000Y250000D02*Y0D01*
X0D02*X410000D01*
G54D141*X200000Y263500D02*Y257500D01*
Y263500D02*X202250Y260500D01*
X204500Y263500D01*
Y257500D01*
X208550Y260500D02*X209300Y259750D01*
X207050Y260500D02*X208550D01*
X206300Y259750D02*X207050Y260500D01*
X206300Y259750D02*Y258250D01*
X207050Y257500D01*
X209300Y260500D02*Y258250D01*
X210050Y257500D01*
X207050D02*X208550D01*
X209300Y258250D01*
X211850Y260500D02*X214850Y257500D01*
X211850D02*X214850Y260500D01*
G54D142*X216650Y262000D02*Y261850D01*
G54D141*Y259750D02*Y257500D01*
X218900Y259750D02*Y257500D01*
Y259750D02*X219650Y260500D01*
X220400D01*
X221150Y259750D01*
Y257500D01*
Y259750D02*X221900Y260500D01*
X222650D01*
X223400Y259750D01*
Y257500D01*
X218150Y260500D02*X218900Y259750D01*
X225200Y260500D02*Y258250D01*
X225950Y257500D01*
X227450D01*
X228200Y258250D01*
Y260500D02*Y258250D01*
X230750Y259750D02*Y257500D01*
Y259750D02*X231500Y260500D01*
X232250D01*
X233000Y259750D01*
Y257500D01*
Y259750D02*X233750Y260500D01*
X234500D01*
X235250Y259750D01*
Y257500D01*
X230000Y260500D02*X230750Y259750D01*
X240500Y263500D02*Y257500D01*
X242450Y263500D02*X243500Y262450D01*
Y258550D01*
X242450Y257500D02*X243500Y258550D01*
X239750Y257500D02*X242450D01*
X239750Y263500D02*X242450D01*
G54D142*X245300Y262000D02*Y261850D01*
G54D141*Y259750D02*Y257500D01*
X247550Y259750D02*Y257500D01*
Y259750D02*X248300Y260500D01*
X249050D01*
X249800Y259750D01*
Y257500D01*
Y259750D02*X250550Y260500D01*
X251300D01*
X252050Y259750D01*
Y257500D01*
X246800Y260500D02*X247550Y259750D01*
X254600Y257500D02*X256850D01*
X253850Y258250D02*X254600Y257500D01*
X253850Y259750D02*Y258250D01*
Y259750D02*X254600Y260500D01*
X256100D01*
X256850Y259750D01*
X253850Y259000D02*X256850D01*
Y259750D02*Y259000D01*
X259400Y259750D02*Y257500D01*
Y259750D02*X260150Y260500D01*
X260900D01*
X261650Y259750D01*
Y257500D01*
X258650Y260500D02*X259400Y259750D01*
X264200Y257500D02*X266450D01*
X267200Y258250D01*
X266450Y259000D02*X267200Y258250D01*
X264200Y259000D02*X266450D01*
X263450Y259750D02*X264200Y259000D01*
X263450Y259750D02*X264200Y260500D01*
X266450D01*
X267200Y259750D01*
X263450Y258250D02*X264200Y257500D01*
G54D142*X269000Y262000D02*Y261850D01*
G54D141*Y259750D02*Y257500D01*
X270500Y259750D02*Y258250D01*
Y259750D02*X271250Y260500D01*
X272750D01*
X273500Y259750D01*
Y258250D01*
X272750Y257500D02*X273500Y258250D01*
X271250Y257500D02*X272750D01*
X270500Y258250D02*X271250Y257500D01*
X276050Y259750D02*Y257500D01*
Y259750D02*X276800Y260500D01*
X277550D01*
X278300Y259750D01*
Y257500D01*
X275300Y260500D02*X276050Y259750D01*
X280850Y257500D02*X283100D01*
X283850Y258250D01*
X283100Y259000D02*X283850Y258250D01*
X280850Y259000D02*X283100D01*
X280100Y259750D02*X280850Y259000D01*
X280100Y259750D02*X280850Y260500D01*
X283100D01*
X283850Y259750D01*
X280100Y258250D02*X280850Y257500D01*
X285650Y261250D02*X286400D01*
X285650Y259750D02*X286400D01*
X290900D02*X293900Y263500D01*
X290900Y259750D02*X294650D01*
X293900Y263500D02*Y257500D01*
X296450Y262300D02*X297650Y263500D01*
Y257500D01*
X296450D02*X298700D01*
X300500Y258250D02*X301250Y257500D01*
X300500Y262750D02*Y258250D01*
Y262750D02*X301250Y263500D01*
X302750D01*
X303500Y262750D01*
Y258250D01*
X302750Y257500D02*X303500Y258250D01*
X301250Y257500D02*X302750D01*
X300500Y259000D02*X303500Y262000D01*
X305300Y258250D02*X306050Y257500D01*
X305300Y262750D02*Y258250D01*
Y262750D02*X306050Y263500D01*
X307550D01*
X308300Y262750D01*
Y258250D01*
X307550Y257500D02*X308300Y258250D01*
X306050Y257500D02*X307550D01*
X305300Y259000D02*X308300Y262000D01*
X310100Y257500D02*X310850D01*
X312650Y258250D02*X313400Y257500D01*
X312650Y262750D02*Y258250D01*
Y262750D02*X313400Y263500D01*
X314900D01*
X315650Y262750D01*
Y258250D01*
X314900Y257500D02*X315650Y258250D01*
X313400Y257500D02*X314900D01*
X312650Y259000D02*X315650Y262000D01*
X317450Y258250D02*X318200Y257500D01*
X317450Y262750D02*Y258250D01*
Y262750D02*X318200Y263500D01*
X319700D01*
X320450Y262750D01*
Y258250D01*
X319700Y257500D02*X320450Y258250D01*
X318200Y257500D02*X319700D01*
X317450Y259000D02*X320450Y262000D01*
X322250Y258250D02*X323000Y257500D01*
X322250Y262750D02*Y258250D01*
Y262750D02*X323000Y263500D01*
X324500D01*
X325250Y262750D01*
Y258250D01*
X324500Y257500D02*X325250Y258250D01*
X323000Y257500D02*X324500D01*
X322250Y259000D02*X325250Y262000D01*
X327050Y258250D02*X327800Y257500D01*
X327050Y262750D02*Y258250D01*
Y262750D02*X327800Y263500D01*
X329300D01*
X330050Y262750D01*
Y258250D01*
X329300Y257500D02*X330050Y258250D01*
X327800Y257500D02*X329300D01*
X327050Y259000D02*X330050Y262000D01*
X331850Y258250D02*X332600Y257500D01*
X331850Y262750D02*Y258250D01*
Y262750D02*X332600Y263500D01*
X334100D01*
X334850Y262750D01*
Y258250D01*
X334100Y257500D02*X334850Y258250D01*
X332600Y257500D02*X334100D01*
X331850Y259000D02*X334850Y262000D01*
X336650Y258250D02*X337400Y257500D01*
X336650Y262750D02*Y258250D01*
Y262750D02*X337400Y263500D01*
X338900D01*
X339650Y262750D01*
Y258250D01*
X338900Y257500D02*X339650Y258250D01*
X337400Y257500D02*X338900D01*
X336650Y259000D02*X339650Y262000D01*
X344900Y259750D02*Y257500D01*
Y259750D02*X345650Y260500D01*
X346400D01*
X347150Y259750D01*
Y257500D01*
Y259750D02*X347900Y260500D01*
X348650D01*
X349400Y259750D01*
Y257500D01*
X344150Y260500D02*X344900Y259750D01*
G54D142*X351200Y262000D02*Y261850D01*
G54D141*Y259750D02*Y257500D01*
X352700Y263500D02*Y258250D01*
X353450Y257500D01*
X355700D02*X357950D01*
X358700Y258250D01*
X357950Y259000D02*X358700Y258250D01*
X355700Y259000D02*X357950D01*
X354950Y259750D02*X355700Y259000D01*
X354950Y259750D02*X355700Y260500D01*
X357950D01*
X358700Y259750D01*
X354950Y258250D02*X355700Y257500D01*
X363200Y260500D02*Y258250D01*
X363950Y257500D01*
X364700D01*
X365450Y258250D01*
Y260500D02*Y258250D01*
X366200Y257500D01*
X366950D01*
X367700Y258250D01*
Y260500D02*Y258250D01*
G54D142*X369500Y262000D02*Y261850D01*
G54D141*Y259750D02*Y257500D01*
X374000Y263500D02*Y257500D01*
X373250D02*X374000Y258250D01*
X371750Y257500D02*X373250D01*
X371000Y258250D02*X371750Y257500D01*
X371000Y259750D02*Y258250D01*
Y259750D02*X371750Y260500D01*
X373250D01*
X374000Y259750D01*
X376550Y257500D02*X378800D01*
X375800Y258250D02*X376550Y257500D01*
X375800Y259750D02*Y258250D01*
Y259750D02*X376550Y260500D01*
X378050D01*
X378800Y259750D01*
X375800Y259000D02*X378800D01*
Y259750D02*Y259000D01*
X380600Y256000D02*X382100Y257500D01*
X386600Y262750D02*X387350Y263500D01*
X389600D01*
X390350Y262750D01*
Y261250D01*
X386600Y257500D02*X390350Y261250D01*
X386600Y257500D02*X390350D01*
X392150Y263500D02*X395150D01*
X392150D02*Y260500D01*
X392900Y261250D01*
X394400D01*
X395150Y260500D01*
Y258250D01*
X394400Y257500D02*X395150Y258250D01*
X392900Y257500D02*X394400D01*
X392150Y258250D02*X392900Y257500D01*
X396950Y258250D02*X397700Y257500D01*
X396950Y262750D02*Y258250D01*
Y262750D02*X397700Y263500D01*
X399200D01*
X399950Y262750D01*
Y258250D01*
X399200Y257500D02*X399950Y258250D01*
X397700Y257500D02*X399200D01*
X396950Y259000D02*X399950Y262000D01*
X401750Y258250D02*X402500Y257500D01*
X401750Y262750D02*Y258250D01*
Y262750D02*X402500Y263500D01*
X404000D01*
X404750Y262750D01*
Y258250D01*
X404000Y257500D02*X404750Y258250D01*
X402500Y257500D02*X404000D01*
X401750Y259000D02*X404750Y262000D01*
X406550Y257500D02*X407300D01*
X409100Y258250D02*X409850Y257500D01*
X409100Y262750D02*Y258250D01*
Y262750D02*X409850Y263500D01*
X411350D01*
X412100Y262750D01*
Y258250D01*
X411350Y257500D02*X412100Y258250D01*
X409850Y257500D02*X411350D01*
X409100Y259000D02*X412100Y262000D01*
X413900Y258250D02*X414650Y257500D01*
X413900Y262750D02*Y258250D01*
Y262750D02*X414650Y263500D01*
X416150D01*
X416900Y262750D01*
Y258250D01*
X416150Y257500D02*X416900Y258250D01*
X414650Y257500D02*X416150D01*
X413900Y259000D02*X416900Y262000D01*
X418700Y258250D02*X419450Y257500D01*
X418700Y262750D02*Y258250D01*
Y262750D02*X419450Y263500D01*
X420950D01*
X421700Y262750D01*
Y258250D01*
X420950Y257500D02*X421700Y258250D01*
X419450Y257500D02*X420950D01*
X418700Y259000D02*X421700Y262000D01*
X423500Y258250D02*X424250Y257500D01*
X423500Y262750D02*Y258250D01*
Y262750D02*X424250Y263500D01*
X425750D01*
X426500Y262750D01*
Y258250D01*
X425750Y257500D02*X426500Y258250D01*
X424250Y257500D02*X425750D01*
X423500Y259000D02*X426500Y262000D01*
X428300Y258250D02*X429050Y257500D01*
X428300Y262750D02*Y258250D01*
Y262750D02*X429050Y263500D01*
X430550D01*
X431300Y262750D01*
Y258250D01*
X430550Y257500D02*X431300Y258250D01*
X429050Y257500D02*X430550D01*
X428300Y259000D02*X431300Y262000D01*
X433100Y258250D02*X433850Y257500D01*
X433100Y262750D02*Y258250D01*
Y262750D02*X433850Y263500D01*
X435350D01*
X436100Y262750D01*
Y258250D01*
X435350Y257500D02*X436100Y258250D01*
X433850Y257500D02*X435350D01*
X433100Y259000D02*X436100Y262000D01*
X441350Y259750D02*Y257500D01*
Y259750D02*X442100Y260500D01*
X442850D01*
X443600Y259750D01*
Y257500D01*
Y259750D02*X444350Y260500D01*
X445100D01*
X445850Y259750D01*
Y257500D01*
X440600Y260500D02*X441350Y259750D01*
G54D142*X447650Y262000D02*Y261850D01*
G54D141*Y259750D02*Y257500D01*
X449150Y263500D02*Y258250D01*
X449900Y257500D01*
X452150D02*X454400D01*
X455150Y258250D01*
X454400Y259000D02*X455150Y258250D01*
X452150Y259000D02*X454400D01*
X451400Y259750D02*X452150Y259000D01*
X451400Y259750D02*X452150Y260500D01*
X454400D01*
X455150Y259750D01*
X451400Y258250D02*X452150Y257500D01*
X459650Y263500D02*Y257500D01*
Y259750D02*X460400Y260500D01*
X461900D01*
X462650Y259750D01*
Y257500D01*
G54D142*X464450Y262000D02*Y261850D01*
G54D141*Y259750D02*Y257500D01*
X468200Y260500D02*X468950Y259750D01*
X466700Y260500D02*X468200D01*
X465950Y259750D02*X466700Y260500D01*
X465950Y259750D02*Y258250D01*
X466700Y257500D01*
X468200D01*
X468950Y258250D01*
X465950Y256000D02*X466700Y255250D01*
X468200D01*
X468950Y256000D01*
Y260500D02*Y256000D01*
X470750Y263500D02*Y257500D01*
Y259750D02*X471500Y260500D01*
X473000D01*
X473750Y259750D01*
Y257500D01*
X1900Y-9500D02*X4900D01*
X5650Y-8750D01*
Y-6950D02*Y-8750D01*
X4900Y-6200D02*X5650Y-6950D01*
X2650Y-6200D02*X4900D01*
X2650Y-3500D02*Y-9500D01*
X1900Y-3500D02*X4900D01*
X5650Y-4250D01*
Y-5450D01*
X4900Y-6200D02*X5650Y-5450D01*
X7450Y-7250D02*Y-8750D01*
Y-7250D02*X8200Y-6500D01*
X9700D01*
X10450Y-7250D01*
Y-8750D01*
X9700Y-9500D02*X10450Y-8750D01*
X8200Y-9500D02*X9700D01*
X7450Y-8750D02*X8200Y-9500D01*
X14500Y-6500D02*X15250Y-7250D01*
X13000Y-6500D02*X14500D01*
X12250Y-7250D02*X13000Y-6500D01*
X12250Y-7250D02*Y-8750D01*
X13000Y-9500D01*
X15250Y-6500D02*Y-8750D01*
X16000Y-9500D01*
X13000D02*X14500D01*
X15250Y-8750D01*
X18550Y-7250D02*Y-9500D01*
Y-7250D02*X19300Y-6500D01*
X20800D01*
X17800D02*X18550Y-7250D01*
X25600Y-3500D02*Y-9500D01*
X24850D02*X25600Y-8750D01*
X23350Y-9500D02*X24850D01*
X22600Y-8750D02*X23350Y-9500D01*
X22600Y-7250D02*Y-8750D01*
Y-7250D02*X23350Y-6500D01*
X24850D01*
X25600Y-7250D01*
X30100D02*Y-8750D01*
Y-7250D02*X30850Y-6500D01*
X32350D01*
X33100Y-7250D01*
Y-8750D01*
X32350Y-9500D02*X33100Y-8750D01*
X30850Y-9500D02*X32350D01*
X30100Y-8750D02*X30850Y-9500D01*
X34900Y-6500D02*Y-8750D01*
X35650Y-9500D01*
X37150D01*
X37900Y-8750D01*
Y-6500D02*Y-8750D01*
X40450Y-3500D02*Y-8750D01*
X41200Y-9500D01*
X39700Y-5750D02*X41200D01*
X42700Y-3500D02*Y-8750D01*
X43450Y-9500D01*
G54D142*X44950Y-5000D02*Y-5150D01*
G54D141*Y-7250D02*Y-9500D01*
X47200Y-7250D02*Y-9500D01*
Y-7250D02*X47950Y-6500D01*
X48700D01*
X49450Y-7250D01*
Y-9500D01*
X46450Y-6500D02*X47200Y-7250D01*
X52000Y-9500D02*X54250D01*
X51250Y-8750D02*X52000Y-9500D01*
X51250Y-7250D02*Y-8750D01*
Y-7250D02*X52000Y-6500D01*
X53500D01*
X54250Y-7250D01*
X51250Y-8000D02*X54250D01*
Y-7250D02*Y-8000D01*
G54D142*X58750Y-5000D02*Y-5150D01*
G54D141*Y-7250D02*Y-9500D01*
X61000D02*X63250D01*
X64000Y-8750D01*
X63250Y-8000D02*X64000Y-8750D01*
X61000Y-8000D02*X63250D01*
X60250Y-7250D02*X61000Y-8000D01*
X60250Y-7250D02*X61000Y-6500D01*
X63250D01*
X64000Y-7250D01*
X60250Y-8750D02*X61000Y-9500D01*
X69250Y-3500D02*Y-8750D01*
X70000Y-9500D01*
X68500Y-5750D02*X70000D01*
X71500Y-3500D02*Y-9500D01*
Y-7250D02*X72250Y-6500D01*
X73750D01*
X74500Y-7250D01*
Y-9500D01*
X77050D02*X79300D01*
X76300Y-8750D02*X77050Y-9500D01*
X76300Y-7250D02*Y-8750D01*
Y-7250D02*X77050Y-6500D01*
X78550D01*
X79300Y-7250D01*
X76300Y-8000D02*X79300D01*
Y-7250D02*Y-8000D01*
X84550Y-6500D02*X86800D01*
X83800Y-7250D02*X84550Y-6500D01*
X83800Y-7250D02*Y-8750D01*
X84550Y-9500D01*
X86800D01*
X89350D02*X91600D01*
X88600Y-8750D02*X89350Y-9500D01*
X88600Y-7250D02*Y-8750D01*
Y-7250D02*X89350Y-6500D01*
X90850D01*
X91600Y-7250D01*
X88600Y-8000D02*X91600D01*
Y-7250D02*Y-8000D01*
X94150Y-7250D02*Y-9500D01*
Y-7250D02*X94900Y-6500D01*
X95650D01*
X96400Y-7250D01*
Y-9500D01*
X93400Y-6500D02*X94150Y-7250D01*
X98950Y-3500D02*Y-8750D01*
X99700Y-9500D01*
X98200Y-5750D02*X99700D01*
X101950Y-9500D02*X104200D01*
X101200Y-8750D02*X101950Y-9500D01*
X101200Y-7250D02*Y-8750D01*
Y-7250D02*X101950Y-6500D01*
X103450D01*
X104200Y-7250D01*
X101200Y-8000D02*X104200D01*
Y-7250D02*Y-8000D01*
X106750Y-7250D02*Y-9500D01*
Y-7250D02*X107500Y-6500D01*
X109000D01*
X106000D02*X106750Y-7250D01*
X110800Y-3500D02*Y-8750D01*
X111550Y-9500D01*
G54D142*X113050Y-5000D02*Y-5150D01*
G54D141*Y-7250D02*Y-9500D01*
X115300Y-7250D02*Y-9500D01*
Y-7250D02*X116050Y-6500D01*
X116800D01*
X117550Y-7250D01*
Y-9500D01*
X114550Y-6500D02*X115300Y-7250D01*
X120100Y-9500D02*X122350D01*
X119350Y-8750D02*X120100Y-9500D01*
X119350Y-7250D02*Y-8750D01*
Y-7250D02*X120100Y-6500D01*
X121600D01*
X122350Y-7250D01*
X119350Y-8000D02*X122350D01*
Y-7250D02*Y-8000D01*
X126850Y-7250D02*Y-8750D01*
Y-7250D02*X127600Y-6500D01*
X129100D01*
X129850Y-7250D01*
Y-8750D01*
X129100Y-9500D02*X129850Y-8750D01*
X127600Y-9500D02*X129100D01*
X126850Y-8750D02*X127600Y-9500D01*
X132400Y-4250D02*Y-9500D01*
Y-4250D02*X133150Y-3500D01*
X133900D01*
X131650Y-6500D02*X133150D01*
X138850Y-3500D02*Y-8750D01*
X139600Y-9500D01*
X138100Y-5750D02*X139600D01*
X141100Y-3500D02*Y-9500D01*
Y-7250D02*X141850Y-6500D01*
X143350D01*
X144100Y-7250D01*
Y-9500D01*
G54D142*X145900Y-5000D02*Y-5150D01*
G54D141*Y-7250D02*Y-9500D01*
X148150D02*X150400D01*
X151150Y-8750D01*
X150400Y-8000D02*X151150Y-8750D01*
X148150Y-8000D02*X150400D01*
X147400Y-7250D02*X148150Y-8000D01*
X147400Y-7250D02*X148150Y-6500D01*
X150400D01*
X151150Y-7250D01*
X147400Y-8750D02*X148150Y-9500D01*
X155650Y-8750D02*X156400Y-9500D01*
X155650Y-7550D02*Y-8750D01*
Y-7550D02*X156700Y-6500D01*
X157600D01*
X158650Y-7550D01*
Y-8750D01*
X157900Y-9500D02*X158650Y-8750D01*
X156400Y-9500D02*X157900D01*
X155650Y-5450D02*X156700Y-6500D01*
X155650Y-4250D02*Y-5450D01*
Y-4250D02*X156400Y-3500D01*
X157900D01*
X158650Y-4250D01*
Y-5450D01*
X157600Y-6500D02*X158650Y-5450D01*
X160450Y-9500D02*X161200D01*
X163000Y-8750D02*X163750Y-9500D01*
X163000Y-4250D02*Y-8750D01*
Y-4250D02*X163750Y-3500D01*
X165250D01*
X166000Y-4250D01*
Y-8750D01*
X165250Y-9500D02*X166000Y-8750D01*
X163750Y-9500D02*X165250D01*
X163000Y-8000D02*X166000Y-5000D01*
X167800Y-8750D02*X168550Y-9500D01*
X167800Y-4250D02*Y-8750D01*
Y-4250D02*X168550Y-3500D01*
X170050D01*
X170800Y-4250D01*
Y-8750D01*
X170050Y-9500D02*X170800Y-8750D01*
X168550Y-9500D02*X170050D01*
X167800Y-8000D02*X170800Y-5000D01*
X172600Y-8750D02*X173350Y-9500D01*
X172600Y-4250D02*Y-8750D01*
Y-4250D02*X173350Y-3500D01*
X174850D01*
X175600Y-4250D01*
Y-8750D01*
X174850Y-9500D02*X175600Y-8750D01*
X173350Y-9500D02*X174850D01*
X172600Y-8000D02*X175600Y-5000D01*
X177400Y-8750D02*X178150Y-9500D01*
X177400Y-4250D02*Y-8750D01*
Y-4250D02*X178150Y-3500D01*
X179650D01*
X180400Y-4250D01*
Y-8750D01*
X179650Y-9500D02*X180400Y-8750D01*
X178150Y-9500D02*X179650D01*
X177400Y-8000D02*X180400Y-5000D01*
X182200Y-8750D02*X182950Y-9500D01*
X182200Y-4250D02*Y-8750D01*
Y-4250D02*X182950Y-3500D01*
X184450D01*
X185200Y-4250D01*
Y-8750D01*
X184450Y-9500D02*X185200Y-8750D01*
X182950Y-9500D02*X184450D01*
X182200Y-8000D02*X185200Y-5000D01*
X187000Y-8750D02*X187750Y-9500D01*
X187000Y-4250D02*Y-8750D01*
Y-4250D02*X187750Y-3500D01*
X189250D01*
X190000Y-4250D01*
Y-8750D01*
X189250Y-9500D02*X190000Y-8750D01*
X187750Y-9500D02*X189250D01*
X187000Y-8000D02*X190000Y-5000D01*
X195250Y-7250D02*Y-9500D01*
Y-7250D02*X196000Y-6500D01*
X196750D01*
X197500Y-7250D01*
Y-9500D01*
Y-7250D02*X198250Y-6500D01*
X199000D01*
X199750Y-7250D01*
Y-9500D01*
X194500Y-6500D02*X195250Y-7250D01*
G54D142*X201550Y-5000D02*Y-5150D01*
G54D141*Y-7250D02*Y-9500D01*
X203050Y-3500D02*Y-8750D01*
X203800Y-9500D01*
X208750Y-7250D02*Y-9500D01*
Y-7250D02*X209500Y-6500D01*
X211000D01*
X208000D02*X208750Y-7250D01*
X213550Y-9500D02*X215800D01*
X212800Y-8750D02*X213550Y-9500D01*
X212800Y-7250D02*Y-8750D01*
Y-7250D02*X213550Y-6500D01*
X215050D01*
X215800Y-7250D01*
X212800Y-8000D02*X215800D01*
Y-7250D02*Y-8000D01*
X218350Y-6500D02*X220600D01*
X217600Y-7250D02*X218350Y-6500D01*
X217600Y-7250D02*Y-8750D01*
X218350Y-9500D01*
X220600D01*
X223150Y-3500D02*Y-8750D01*
X223900Y-9500D01*
X222400Y-5750D02*X223900D01*
X227650Y-6500D02*X228400Y-7250D01*
X226150Y-6500D02*X227650D01*
X225400Y-7250D02*X226150Y-6500D01*
X225400Y-7250D02*Y-8750D01*
X226150Y-9500D01*
X228400Y-6500D02*Y-8750D01*
X229150Y-9500D01*
X226150D02*X227650D01*
X228400Y-8750D01*
X231700Y-7250D02*Y-9500D01*
Y-7250D02*X232450Y-6500D01*
X233200D01*
X233950Y-7250D01*
Y-9500D01*
X230950Y-6500D02*X231700Y-7250D01*
X238000Y-6500D02*X238750Y-7250D01*
X236500Y-6500D02*X238000D01*
X235750Y-7250D02*X236500Y-6500D01*
X235750Y-7250D02*Y-8750D01*
X236500Y-9500D01*
X238000D01*
X238750Y-8750D01*
X235750Y-11000D02*X236500Y-11750D01*
X238000D01*
X238750Y-11000D01*
Y-6500D02*Y-11000D01*
X240550Y-3500D02*Y-8750D01*
X241300Y-9500D01*
X243550D02*X245800D01*
X242800Y-8750D02*X243550Y-9500D01*
X242800Y-7250D02*Y-8750D01*
Y-7250D02*X243550Y-6500D01*
X245050D01*
X245800Y-7250D01*
X242800Y-8000D02*X245800D01*
Y-7250D02*Y-8000D01*
X250300Y-6500D02*X253300D01*
X257800Y-8750D02*X258550Y-9500D01*
X257800Y-4250D02*Y-8750D01*
Y-4250D02*X258550Y-3500D01*
X260050D01*
X260800Y-4250D01*
Y-8750D01*
X260050Y-9500D02*X260800Y-8750D01*
X258550Y-9500D02*X260050D01*
X257800Y-8000D02*X260800Y-5000D01*
X262600Y-11000D02*X264100Y-9500D01*
X265900Y-8750D02*X266650Y-9500D01*
X265900Y-4250D02*Y-8750D01*
Y-4250D02*X266650Y-3500D01*
X268150D01*
X268900Y-4250D01*
Y-8750D01*
X268150Y-9500D02*X268900Y-8750D01*
X266650Y-9500D02*X268150D01*
X265900Y-8000D02*X268900Y-5000D01*
X274150Y-3500D02*Y-8750D01*
X274900Y-9500D01*
X273400Y-5750D02*X274900D01*
X276400Y-7250D02*Y-8750D01*
Y-7250D02*X277150Y-6500D01*
X278650D01*
X279400Y-7250D01*
Y-8750D01*
X278650Y-9500D02*X279400Y-8750D01*
X277150Y-9500D02*X278650D01*
X276400Y-8750D02*X277150Y-9500D01*
X283900Y-7250D02*X286900Y-3500D01*
X283900Y-7250D02*X287650D01*
X286900Y-3500D02*Y-9500D01*
X289450Y-4700D02*X290650Y-3500D01*
Y-9500D01*
X289450D02*X291700D01*
X293500Y-8750D02*X294250Y-9500D01*
X293500Y-4250D02*Y-8750D01*
Y-4250D02*X294250Y-3500D01*
X295750D01*
X296500Y-4250D01*
Y-8750D01*
X295750Y-9500D02*X296500Y-8750D01*
X294250Y-9500D02*X295750D01*
X293500Y-8000D02*X296500Y-5000D01*
X298300Y-8750D02*X299050Y-9500D01*
X298300Y-4250D02*Y-8750D01*
Y-4250D02*X299050Y-3500D01*
X300550D01*
X301300Y-4250D01*
Y-8750D01*
X300550Y-9500D02*X301300Y-8750D01*
X299050Y-9500D02*X300550D01*
X298300Y-8000D02*X301300Y-5000D01*
X303100Y-9500D02*X303850D01*
X305650Y-8750D02*X306400Y-9500D01*
X305650Y-4250D02*Y-8750D01*
Y-4250D02*X306400Y-3500D01*
X307900D01*
X308650Y-4250D01*
Y-8750D01*
X307900Y-9500D02*X308650Y-8750D01*
X306400Y-9500D02*X307900D01*
X305650Y-8000D02*X308650Y-5000D01*
X310450Y-8750D02*X311200Y-9500D01*
X310450Y-4250D02*Y-8750D01*
Y-4250D02*X311200Y-3500D01*
X312700D01*
X313450Y-4250D01*
Y-8750D01*
X312700Y-9500D02*X313450Y-8750D01*
X311200Y-9500D02*X312700D01*
X310450Y-8000D02*X313450Y-5000D01*
X315250Y-8750D02*X316000Y-9500D01*
X315250Y-4250D02*Y-8750D01*
Y-4250D02*X316000Y-3500D01*
X317500D01*
X318250Y-4250D01*
Y-8750D01*
X317500Y-9500D02*X318250Y-8750D01*
X316000Y-9500D02*X317500D01*
X315250Y-8000D02*X318250Y-5000D01*
X320050Y-8750D02*X320800Y-9500D01*
X320050Y-4250D02*Y-8750D01*
Y-4250D02*X320800Y-3500D01*
X322300D01*
X323050Y-4250D01*
Y-8750D01*
X322300Y-9500D02*X323050Y-8750D01*
X320800Y-9500D02*X322300D01*
X320050Y-8000D02*X323050Y-5000D01*
X324850Y-8750D02*X325600Y-9500D01*
X324850Y-4250D02*Y-8750D01*
Y-4250D02*X325600Y-3500D01*
X327100D01*
X327850Y-4250D01*
Y-8750D01*
X327100Y-9500D02*X327850Y-8750D01*
X325600Y-9500D02*X327100D01*
X324850Y-8000D02*X327850Y-5000D01*
X329650Y-8750D02*X330400Y-9500D01*
X329650Y-4250D02*Y-8750D01*
Y-4250D02*X330400Y-3500D01*
X331900D01*
X332650Y-4250D01*
Y-8750D01*
X331900Y-9500D02*X332650Y-8750D01*
X330400Y-9500D02*X331900D01*
X329650Y-8000D02*X332650Y-5000D01*
X334450Y-11000D02*X335950Y-9500D01*
X337750Y-4250D02*X338500Y-3500D01*
X340750D01*
X341500Y-4250D01*
Y-5750D01*
X337750Y-9500D02*X341500Y-5750D01*
X337750Y-9500D02*X341500D01*
X343300Y-3500D02*X346300D01*
X343300D02*Y-6500D01*
X344050Y-5750D01*
X345550D01*
X346300Y-6500D01*
Y-8750D01*
X345550Y-9500D02*X346300Y-8750D01*
X344050Y-9500D02*X345550D01*
X343300Y-8750D02*X344050Y-9500D01*
X348100Y-8750D02*X348850Y-9500D01*
X348100Y-4250D02*Y-8750D01*
Y-4250D02*X348850Y-3500D01*
X350350D01*
X351100Y-4250D01*
Y-8750D01*
X350350Y-9500D02*X351100Y-8750D01*
X348850Y-9500D02*X350350D01*
X348100Y-8000D02*X351100Y-5000D01*
X352900Y-8750D02*X353650Y-9500D01*
X352900Y-4250D02*Y-8750D01*
Y-4250D02*X353650Y-3500D01*
X355150D01*
X355900Y-4250D01*
Y-8750D01*
X355150Y-9500D02*X355900Y-8750D01*
X353650Y-9500D02*X355150D01*
X352900Y-8000D02*X355900Y-5000D01*
X357700Y-9500D02*X358450D01*
X360250Y-8750D02*X361000Y-9500D01*
X360250Y-4250D02*Y-8750D01*
Y-4250D02*X361000Y-3500D01*
X362500D01*
X363250Y-4250D01*
Y-8750D01*
X362500Y-9500D02*X363250Y-8750D01*
X361000Y-9500D02*X362500D01*
X360250Y-8000D02*X363250Y-5000D01*
X365050Y-8750D02*X365800Y-9500D01*
X365050Y-4250D02*Y-8750D01*
Y-4250D02*X365800Y-3500D01*
X367300D01*
X368050Y-4250D01*
Y-8750D01*
X367300Y-9500D02*X368050Y-8750D01*
X365800Y-9500D02*X367300D01*
X365050Y-8000D02*X368050Y-5000D01*
X369850Y-8750D02*X370600Y-9500D01*
X369850Y-4250D02*Y-8750D01*
Y-4250D02*X370600Y-3500D01*
X372100D01*
X372850Y-4250D01*
Y-8750D01*
X372100Y-9500D02*X372850Y-8750D01*
X370600Y-9500D02*X372100D01*
X369850Y-8000D02*X372850Y-5000D01*
X374650Y-8750D02*X375400Y-9500D01*
X374650Y-4250D02*Y-8750D01*
Y-4250D02*X375400Y-3500D01*
X376900D01*
X377650Y-4250D01*
Y-8750D01*
X376900Y-9500D02*X377650Y-8750D01*
X375400Y-9500D02*X376900D01*
X374650Y-8000D02*X377650Y-5000D01*
X379450Y-8750D02*X380200Y-9500D01*
X379450Y-4250D02*Y-8750D01*
Y-4250D02*X380200Y-3500D01*
X381700D01*
X382450Y-4250D01*
Y-8750D01*
X381700Y-9500D02*X382450Y-8750D01*
X380200Y-9500D02*X381700D01*
X379450Y-8000D02*X382450Y-5000D01*
X384250Y-8750D02*X385000Y-9500D01*
X384250Y-4250D02*Y-8750D01*
Y-4250D02*X385000Y-3500D01*
X386500D01*
X387250Y-4250D01*
Y-8750D01*
X386500Y-9500D02*X387250Y-8750D01*
X385000Y-9500D02*X386500D01*
X384250Y-8000D02*X387250Y-5000D01*
X392500Y-7250D02*Y-9500D01*
Y-7250D02*X393250Y-6500D01*
X394000D01*
X394750Y-7250D01*
Y-9500D01*
Y-7250D02*X395500Y-6500D01*
X396250D01*
X397000Y-7250D01*
Y-9500D01*
X391750Y-6500D02*X392500Y-7250D01*
G54D142*X398800Y-5000D02*Y-5150D01*
G54D141*Y-7250D02*Y-9500D01*
X400300Y-3500D02*Y-8750D01*
X401050Y-9500D01*
X403300D02*X405550D01*
X406300Y-8750D01*
X405550Y-8000D02*X406300Y-8750D01*
X403300Y-8000D02*X405550D01*
X402550Y-7250D02*X403300Y-8000D01*
X402550Y-7250D02*X403300Y-6500D01*
X405550D01*
X406300Y-7250D01*
X402550Y-8750D02*X403300Y-9500D01*
X200750Y278500D02*Y272500D01*
X202700Y278500D02*X203750Y277450D01*
Y273550D01*
X202700Y272500D02*X203750Y273550D01*
X200000Y272500D02*X202700D01*
X200000Y278500D02*X202700D01*
X207800Y275500D02*X208550Y274750D01*
X206300Y275500D02*X207800D01*
X205550Y274750D02*X206300Y275500D01*
X205550Y274750D02*Y273250D01*
X206300Y272500D01*
X208550Y275500D02*Y273250D01*
X209300Y272500D01*
X206300D02*X207800D01*
X208550Y273250D01*
X211850Y278500D02*Y273250D01*
X212600Y272500D01*
X211100Y276250D02*X212600D01*
X214850Y272500D02*X217100D01*
X214100Y273250D02*X214850Y272500D01*
X214100Y274750D02*Y273250D01*
Y274750D02*X214850Y275500D01*
X216350D01*
X217100Y274750D01*
X214100Y274000D02*X217100D01*
Y274750D02*Y274000D01*
X218900Y276250D02*X219650D01*
X218900Y274750D02*X219650D01*
X224150Y278500D02*Y275500D01*
X224900Y272500D01*
X226400Y275500D01*
X227900Y272500D01*
X228650Y275500D01*
Y278500D02*Y275500D01*
X231200Y272500D02*X233450D01*
X230450Y273250D02*X231200Y272500D01*
X230450Y274750D02*Y273250D01*
Y274750D02*X231200Y275500D01*
X232700D01*
X233450Y274750D01*
X230450Y274000D02*X233450D01*
Y274750D02*Y274000D01*
X238250Y278500D02*Y272500D01*
X237500D02*X238250Y273250D01*
X236000Y272500D02*X237500D01*
X235250Y273250D02*X236000Y272500D01*
X235250Y274750D02*Y273250D01*
Y274750D02*X236000Y275500D01*
X237500D01*
X238250Y274750D01*
X242750Y277000D02*Y272500D01*
Y277000D02*X243800Y278500D01*
X245450D01*
X246500Y277000D01*
Y272500D01*
X242750Y275500D02*X246500D01*
X249050Y274750D02*Y270250D01*
X248300Y275500D02*X249050Y274750D01*
X249800Y275500D01*
X251300D01*
X252050Y274750D01*
Y273250D01*
X251300Y272500D02*X252050Y273250D01*
X249800Y272500D02*X251300D01*
X249050Y273250D02*X249800Y272500D01*
X254600Y274750D02*Y272500D01*
Y274750D02*X255350Y275500D01*
X256850D01*
X253850D02*X254600Y274750D01*
X264050Y277300D02*X265250Y278500D01*
Y272500D01*
X264050D02*X266300D01*
X270800Y277300D02*X272000Y278500D01*
Y272500D01*
X270800D02*X273050D01*
X274850Y274750D02*X277850Y278500D01*
X274850Y274750D02*X278600D01*
X277850Y278500D02*Y272500D01*
X280400Y276250D02*X281150D01*
X280400Y274750D02*X281150D01*
X282950Y277300D02*X284150Y278500D01*
Y272500D01*
X282950D02*X285200D01*
X287000Y278500D02*X290000D01*
X287000D02*Y275500D01*
X287750Y276250D01*
X289250D01*
X290000Y275500D01*
Y273250D01*
X289250Y272500D02*X290000Y273250D01*
X287750Y272500D02*X289250D01*
X287000Y273250D02*X287750Y272500D01*
X291800Y276250D02*X292550D01*
X291800Y274750D02*X292550D01*
X294350Y277300D02*X295550Y278500D01*
Y272500D01*
X294350D02*X296600D01*
X298400Y277300D02*X299600Y278500D01*
Y272500D01*
X298400D02*X300650D01*
X305150Y277750D02*X305900Y278500D01*
X308150D01*
X308900Y277750D01*
Y276250D01*
X305150Y272500D02*X308900Y276250D01*
X305150Y272500D02*X308900D01*
X310700Y273250D02*X311450Y272500D01*
X310700Y277750D02*Y273250D01*
Y277750D02*X311450Y278500D01*
X312950D01*
X313700Y277750D01*
Y273250D01*
X312950Y272500D02*X313700Y273250D01*
X311450Y272500D02*X312950D01*
X310700Y274000D02*X313700Y277000D01*
X315500Y277750D02*X316250Y278500D01*
X318500D01*
X319250Y277750D01*
Y276250D01*
X315500Y272500D02*X319250Y276250D01*
X315500Y272500D02*X319250D01*
X321050Y273250D02*X321800Y272500D01*
X321050Y277750D02*Y273250D01*
Y277750D02*X321800Y278500D01*
X323300D01*
X324050Y277750D01*
Y273250D01*
X323300Y272500D02*X324050Y273250D01*
X321800Y272500D02*X323300D01*
X321050Y274000D02*X324050Y277000D01*
X328550Y278500D02*Y273250D01*
X329300Y272500D01*
X330800D01*
X331550Y273250D01*
Y278500D02*Y273250D01*
X333350Y278500D02*X336350D01*
X334850D02*Y272500D01*
X339200D02*X341150D01*
X338150Y273550D02*X339200Y272500D01*
X338150Y277450D02*Y273550D01*
Y277450D02*X339200Y278500D01*
X341150D01*
X200000Y292000D02*Y287500D01*
Y292000D02*X201050Y293500D01*
X202700D01*
X203750Y292000D01*
Y287500D01*
X200000Y290500D02*X203750D01*
X205550D02*Y288250D01*
X206300Y287500D01*
X207800D01*
X208550Y288250D01*
Y290500D02*Y288250D01*
X211100Y293500D02*Y288250D01*
X211850Y287500D01*
X210350Y291250D02*X211850D01*
X213350Y293500D02*Y287500D01*
Y289750D02*X214100Y290500D01*
X215600D01*
X216350Y289750D01*
Y287500D01*
X218150Y289750D02*Y288250D01*
Y289750D02*X218900Y290500D01*
X220400D01*
X221150Y289750D01*
Y288250D01*
X220400Y287500D02*X221150Y288250D01*
X218900Y287500D02*X220400D01*
X218150Y288250D02*X218900Y287500D01*
X223700Y289750D02*Y287500D01*
Y289750D02*X224450Y290500D01*
X225950D01*
X222950D02*X223700Y289750D01*
X227750Y291250D02*X228500D01*
X227750Y289750D02*X228500D01*
X233750Y287500D02*X236000D01*
X236750Y288250D01*
X236000Y289000D02*X236750Y288250D01*
X233750Y289000D02*X236000D01*
X233000Y289750D02*X233750Y289000D01*
X233000Y289750D02*X233750Y290500D01*
X236000D01*
X236750Y289750D01*
X233000Y288250D02*X233750Y287500D01*
X238550Y293500D02*Y287500D01*
Y289750D02*X239300Y290500D01*
X240800D01*
X241550Y289750D01*
Y287500D01*
X243350Y290500D02*Y288250D01*
X244100Y287500D01*
X246350Y290500D02*Y286000D01*
X245600Y285250D02*X246350Y286000D01*
X244100Y285250D02*X245600D01*
X243350Y286000D02*X244100Y285250D01*
Y287500D02*X245600D01*
X246350Y288250D01*
X250400Y290500D02*X251150Y289750D01*
X248900Y290500D02*X250400D01*
X248150Y289750D02*X248900Y290500D01*
X248150Y289750D02*Y288250D01*
X248900Y287500D01*
X251150Y290500D02*Y288250D01*
X251900Y287500D01*
X248900D02*X250400D01*
X251150Y288250D01*
X254450Y289750D02*Y287500D01*
Y289750D02*X255200Y290500D01*
X255950D01*
X256700Y289750D01*
Y287500D01*
Y289750D02*X257450Y290500D01*
X258200D01*
X258950Y289750D01*
Y287500D01*
X253700Y290500D02*X254450Y289750D01*
X200000Y308500D02*X203000D01*
X201500D02*Y302500D01*
G54D142*X204800Y307000D02*Y306850D01*
G54D141*Y304750D02*Y302500D01*
X207050Y308500D02*Y303250D01*
X207800Y302500D01*
X206300Y306250D02*X207800D01*
X209300Y308500D02*Y303250D01*
X210050Y302500D01*
X212300D02*X214550D01*
X211550Y303250D02*X212300Y302500D01*
X211550Y304750D02*Y303250D01*
Y304750D02*X212300Y305500D01*
X213800D01*
X214550Y304750D01*
X211550Y304000D02*X214550D01*
Y304750D02*Y304000D01*
X216350Y306250D02*X217100D01*
X216350Y304750D02*X217100D01*
X221600Y303250D02*X222350Y302500D01*
X221600Y307750D02*X222350Y308500D01*
X221600Y307750D02*Y303250D01*
X224150Y305500D02*Y303250D01*
X224900Y302500D01*
X226400D01*
X227150Y303250D01*
Y305500D02*Y303250D01*
X229700Y304750D02*Y302500D01*
Y304750D02*X230450Y305500D01*
X231200D01*
X231950Y304750D01*
Y302500D01*
X228950Y305500D02*X229700Y304750D01*
X233750Y308500D02*Y302500D01*
Y304750D02*X236000Y302500D01*
X233750Y304750D02*X235250Y306250D01*
X238550Y304750D02*Y302500D01*
Y304750D02*X239300Y305500D01*
X240050D01*
X240800Y304750D01*
Y302500D01*
X237800Y305500D02*X238550Y304750D01*
X242600D02*Y303250D01*
Y304750D02*X243350Y305500D01*
X244850D01*
X245600Y304750D01*
Y303250D01*
X244850Y302500D02*X245600Y303250D01*
X243350Y302500D02*X244850D01*
X242600Y303250D02*X243350Y302500D01*
X247400Y305500D02*Y303250D01*
X248150Y302500D01*
X248900D01*
X249650Y303250D01*
Y305500D02*Y303250D01*
X250400Y302500D01*
X251150D01*
X251900Y303250D01*
Y305500D02*Y303250D01*
X254450Y304750D02*Y302500D01*
Y304750D02*X255200Y305500D01*
X255950D01*
X256700Y304750D01*
Y302500D01*
X253700Y305500D02*X254450Y304750D01*
X258500Y308500D02*X259250Y307750D01*
Y303250D01*
X258500Y302500D02*X259250Y303250D01*
X263750Y305500D02*X266750D01*
X271250Y308500D02*Y302500D01*
Y308500D02*X274250D01*
X271250Y305800D02*X273500D01*
X278300Y305500D02*X279050Y304750D01*
X276800Y305500D02*X278300D01*
X276050Y304750D02*X276800Y305500D01*
X276050Y304750D02*Y303250D01*
X276800Y302500D01*
X279050Y305500D02*Y303250D01*
X279800Y302500D01*
X276800D02*X278300D01*
X279050Y303250D01*
X281600Y308500D02*Y302500D01*
Y303250D02*X282350Y302500D01*
X283850D01*
X284600Y303250D01*
Y304750D02*Y303250D01*
X283850Y305500D02*X284600Y304750D01*
X282350Y305500D02*X283850D01*
X281600Y304750D02*X282350Y305500D01*
X287150Y304750D02*Y302500D01*
Y304750D02*X287900Y305500D01*
X289400D01*
X286400D02*X287150Y304750D01*
G54D142*X291200Y307000D02*Y306850D01*
G54D141*Y304750D02*Y302500D01*
X293450Y305500D02*X295700D01*
X292700Y304750D02*X293450Y305500D01*
X292700Y304750D02*Y303250D01*
X293450Y302500D01*
X295700D01*
X299750Y305500D02*X300500Y304750D01*
X298250Y305500D02*X299750D01*
X297500Y304750D02*X298250Y305500D01*
X297500Y304750D02*Y303250D01*
X298250Y302500D01*
X300500Y305500D02*Y303250D01*
X301250Y302500D01*
X298250D02*X299750D01*
X300500Y303250D01*
X303800Y308500D02*Y303250D01*
X304550Y302500D01*
X303050Y306250D02*X304550D01*
G54D142*X306050Y307000D02*Y306850D01*
G54D141*Y304750D02*Y302500D01*
X307550Y304750D02*Y303250D01*
Y304750D02*X308300Y305500D01*
X309800D01*
X310550Y304750D01*
Y303250D01*
X309800Y302500D02*X310550Y303250D01*
X308300Y302500D02*X309800D01*
X307550Y303250D02*X308300Y302500D01*
X313100Y304750D02*Y302500D01*
Y304750D02*X313850Y305500D01*
X314600D01*
X315350Y304750D01*
Y302500D01*
X312350Y305500D02*X313100Y304750D01*
X320600Y308500D02*Y302500D01*
X322550Y308500D02*X323600Y307450D01*
Y303550D01*
X322550Y302500D02*X323600Y303550D01*
X319850Y302500D02*X322550D01*
X319850Y308500D02*X322550D01*
X326150Y304750D02*Y302500D01*
Y304750D02*X326900Y305500D01*
X328400D01*
X325400D02*X326150Y304750D01*
X332450Y305500D02*X333200Y304750D01*
X330950Y305500D02*X332450D01*
X330200Y304750D02*X330950Y305500D01*
X330200Y304750D02*Y303250D01*
X330950Y302500D01*
X333200Y305500D02*Y303250D01*
X333950Y302500D01*
X330950D02*X332450D01*
X333200Y303250D01*
X335750Y305500D02*Y303250D01*
X336500Y302500D01*
X337250D01*
X338000Y303250D01*
Y305500D02*Y303250D01*
X338750Y302500D01*
X339500D01*
X340250Y303250D01*
Y305500D02*Y303250D01*
G54D142*X342050Y307000D02*Y306850D01*
G54D141*Y304750D02*Y302500D01*
X344300Y304750D02*Y302500D01*
Y304750D02*X345050Y305500D01*
X345800D01*
X346550Y304750D01*
Y302500D01*
X343550Y305500D02*X344300Y304750D01*
X350600Y305500D02*X351350Y304750D01*
X349100Y305500D02*X350600D01*
X348350Y304750D02*X349100Y305500D01*
X348350Y304750D02*Y303250D01*
X349100Y302500D01*
X350600D01*
X351350Y303250D01*
X348350Y301000D02*X349100Y300250D01*
X350600D01*
X351350Y301000D01*
Y305500D02*Y301000D01*
M02*
