G04 start of page 9 for group -4015 idx -4015 *
G04 Title: (unknown), toppaste *
G04 Creator: pcb 4.0.2 *
G04 CreationDate: Wed Apr  1 14:15:11 2020 UTC *
G04 For: shyam *
G04 Format: Gerber/RS-274X *
G04 PCB-Dimensions (mil): 4100.00 2500.00 *
G04 PCB-Coordinate-Origin: lower left *
%MOIN*%
%FSLAX25Y25*%
%LNTOPPASTE*%
%ADD137C,0.0177*%
%ADD136C,0.0001*%
G54D136*G36*
X377559Y57952D02*X372441D01*
Y52048D01*
X377559D01*
Y57952D01*
G37*
G36*
X370473D02*X365355D01*
Y52048D01*
X370473D01*
Y57952D01*
G37*
G36*
Y162952D02*X365355D01*
Y157048D01*
X370473D01*
Y162952D01*
G37*
G36*
X377559D02*X372441D01*
Y157048D01*
X377559D01*
Y162952D01*
G37*
G36*
X370473Y72952D02*X365355D01*
Y67048D01*
X370473D01*
Y72952D01*
G37*
G36*
X377559D02*X372441D01*
Y67048D01*
X377559D01*
Y72952D01*
G37*
G36*
Y102952D02*X372441D01*
Y97048D01*
X377559D01*
Y102952D01*
G37*
G36*
X370473D02*X365355D01*
Y97048D01*
X370473D01*
Y102952D01*
G37*
G36*
X377559Y87952D02*X372441D01*
Y82048D01*
X377559D01*
Y87952D01*
G37*
G36*
X370473D02*X365355D01*
Y82048D01*
X370473D01*
Y87952D01*
G37*
G36*
X377559Y117952D02*X372441D01*
Y112048D01*
X377559D01*
Y117952D01*
G37*
G36*
X370473D02*X365355D01*
Y112048D01*
X370473D01*
Y117952D01*
G37*
G36*
X377559Y42952D02*X372441D01*
Y37048D01*
X377559D01*
Y42952D01*
G37*
G36*
X370473D02*X365355D01*
Y37048D01*
X370473D01*
Y42952D01*
G37*
G36*
X377559Y147952D02*X372441D01*
Y142048D01*
X377559D01*
Y147952D01*
G37*
G36*
X370473D02*X365355D01*
Y142048D01*
X370473D01*
Y147952D01*
G37*
G36*
X347559Y35452D02*X342441D01*
Y29548D01*
X347559D01*
Y35452D01*
G37*
G36*
X354645D02*X349527D01*
Y29548D01*
X354645D01*
Y35452D01*
G37*
G36*
X182559D02*X177441D01*
Y29548D01*
X182559D01*
Y35452D01*
G37*
G36*
X175473D02*X170355D01*
Y29548D01*
X175473D01*
Y35452D01*
G37*
G36*
X240473D02*X235355D01*
Y29548D01*
X240473D01*
Y35452D01*
G37*
G36*
X247559D02*X242441D01*
Y29548D01*
X247559D01*
Y35452D01*
G37*
G36*
X157559Y92952D02*X152441D01*
Y87048D01*
X157559D01*
Y92952D01*
G37*
G36*
X150473D02*X145355D01*
Y87048D01*
X150473D01*
Y92952D01*
G37*
G36*
X113950Y50050D02*Y44950D01*
X121050D01*
Y50050D01*
X113950D01*
G37*
G36*
Y57450D02*Y52350D01*
X121050D01*
Y57450D01*
X113950D01*
G37*
G36*
X212559Y92952D02*X207441D01*
Y87048D01*
X212559D01*
Y92952D01*
G37*
G36*
X219645D02*X214527D01*
Y87048D01*
X219645D01*
Y92952D01*
G37*
G36*
X150473Y105452D02*X145355D01*
Y99548D01*
X150473D01*
Y105452D01*
G37*
G36*
X157559D02*X152441D01*
Y99548D01*
X157559D01*
Y105452D01*
G37*
G36*
X377559Y132952D02*X372441D01*
Y127048D01*
X377559D01*
Y132952D01*
G37*
G36*
X370473D02*X365355D01*
Y127048D01*
X370473D01*
Y132952D01*
G37*
G36*
X311000Y96750D02*X309000D01*
Y88250D01*
X311000D01*
Y96750D01*
G37*
G36*
X316000D02*X314000D01*
Y88250D01*
X316000D01*
Y96750D01*
G37*
G36*
X321000D02*X319000D01*
Y88250D01*
X321000D01*
Y96750D01*
G37*
G36*
X326000D02*X324000D01*
Y88250D01*
X326000D01*
Y96750D01*
G37*
G36*
X331000D02*X329000D01*
Y88250D01*
X331000D01*
Y96750D01*
G37*
G36*
X336000D02*X334000D01*
Y88250D01*
X336000D01*
Y96750D01*
G37*
G36*
X341000D02*X339000D01*
Y88250D01*
X341000D01*
Y96750D01*
G37*
G36*
Y117250D02*X339000D01*
Y108750D01*
X341000D01*
Y117250D01*
G37*
G36*
X336000D02*X334000D01*
Y108750D01*
X336000D01*
Y117250D01*
G37*
G36*
X331000D02*X329000D01*
Y108750D01*
X331000D01*
Y117250D01*
G37*
G36*
X326000D02*X324000D01*
Y108750D01*
X326000D01*
Y117250D01*
G37*
G36*
X321000D02*X319000D01*
Y108750D01*
X321000D01*
Y117250D01*
G37*
G36*
X316000D02*X314000D01*
Y108750D01*
X316000D01*
Y117250D01*
G37*
G36*
X311000D02*X309000D01*
Y108750D01*
X311000D01*
Y117250D01*
G37*
G36*
X150473Y117952D02*X145355D01*
Y112048D01*
X150473D01*
Y117952D01*
G37*
G36*
X157559D02*X152441D01*
Y112048D01*
X157559D01*
Y117952D01*
G37*
G36*
X147559Y76240D02*X142441D01*
Y68760D01*
X147559D01*
Y76240D01*
G37*
G36*
X159369D02*X154251D01*
Y68760D01*
X159369D01*
Y76240D01*
G37*
G36*
X219645Y117952D02*X214527D01*
Y112048D01*
X219645D01*
Y117952D01*
G37*
G36*
X212559D02*X207441D01*
Y112048D01*
X212559D01*
Y117952D01*
G37*
G36*
X200665Y177692D02*X194335D01*
Y162307D01*
X200665D01*
Y177692D01*
G37*
G36*
Y208793D02*X194335D01*
Y193408D01*
X200665D01*
Y208793D01*
G37*
G36*
X159645Y35452D02*X154527D01*
Y29548D01*
X159645D01*
Y35452D01*
G37*
G36*
X152559D02*X147441D01*
Y29548D01*
X152559D01*
Y35452D01*
G37*
G36*
X96450Y12550D02*Y7450D01*
X103550D01*
Y12550D01*
X96450D01*
G37*
G36*
Y19950D02*Y14850D01*
X103550D01*
Y19950D01*
X96450D01*
G37*
G36*
X82048Y12559D02*Y7441D01*
X87952D01*
Y12559D01*
X82048D01*
G37*
G36*
Y19645D02*Y14527D01*
X87952D01*
Y19645D01*
X82048D01*
G37*
G36*
X255059Y157952D02*X249941D01*
Y152048D01*
X255059D01*
Y157952D01*
G37*
G36*
X247973D02*X242855D01*
Y152048D01*
X247973D01*
Y157952D01*
G37*
G36*
X275059D02*X269941D01*
Y152048D01*
X275059D01*
Y157952D01*
G37*
G36*
X282145D02*X277027D01*
Y152048D01*
X282145D01*
Y157952D01*
G37*
G36*
X67973Y212952D02*X62855D01*
Y207048D01*
X67973D01*
Y212952D01*
G37*
G36*
X75059D02*X69941D01*
Y207048D01*
X75059D01*
Y212952D01*
G37*
G36*
X29548Y162559D02*Y157441D01*
X35452D01*
Y162559D01*
X29548D01*
G37*
G36*
Y155473D02*Y150355D01*
X35452D01*
Y155473D01*
X29548D01*
G37*
G36*
X79548Y162559D02*Y157441D01*
X85452D01*
Y162559D01*
X79548D01*
G37*
G36*
Y155473D02*Y150355D01*
X85452D01*
Y155473D01*
X79548D01*
G37*
G36*
X17048Y195059D02*Y189941D01*
X22952D01*
Y195059D01*
X17048D01*
G37*
G36*
Y202145D02*Y197027D01*
X22952D01*
Y202145D01*
X17048D01*
G37*
G36*
Y155473D02*Y150355D01*
X22952D01*
Y155473D01*
X17048D01*
G37*
G36*
Y162559D02*Y157441D01*
X22952D01*
Y162559D01*
X17048D01*
G37*
G36*
X29548Y135059D02*Y129941D01*
X35452D01*
Y135059D01*
X29548D01*
G37*
G36*
Y142145D02*Y137027D01*
X35452D01*
Y142145D01*
X29548D01*
G37*
G36*
X17048Y219645D02*Y214527D01*
X22952D01*
Y219645D01*
X17048D01*
G37*
G36*
Y212559D02*Y207441D01*
X22952D01*
Y212559D01*
X17048D01*
G37*
G36*
X42048Y162559D02*Y157441D01*
X47952D01*
Y162559D01*
X42048D01*
G37*
G36*
Y155473D02*Y150355D01*
X47952D01*
Y155473D01*
X42048D01*
G37*
G36*
X54548Y135059D02*Y129941D01*
X60452D01*
Y135059D01*
X54548D01*
G37*
G36*
Y142145D02*Y137027D01*
X60452D01*
Y142145D01*
X54548D01*
G37*
G36*
Y162559D02*Y157441D01*
X60452D01*
Y162559D01*
X54548D01*
G37*
G36*
Y155473D02*Y150355D01*
X60452D01*
Y155473D01*
X54548D01*
G37*
G36*
X67048Y135059D02*Y129941D01*
X72952D01*
Y135059D01*
X67048D01*
G37*
G36*
Y142145D02*Y137027D01*
X72952D01*
Y142145D01*
X67048D01*
G37*
G36*
Y162559D02*Y157441D01*
X72952D01*
Y162559D01*
X67048D01*
G37*
G36*
Y155473D02*Y150355D01*
X72952D01*
Y155473D01*
X67048D01*
G37*
G36*
X42048Y135059D02*Y129941D01*
X47952D01*
Y135059D01*
X42048D01*
G37*
G36*
Y142145D02*Y137027D01*
X47952D01*
Y142145D01*
X42048D01*
G37*
G36*
X17048Y179645D02*Y174527D01*
X22952D01*
Y179645D01*
X17048D01*
G37*
G36*
Y172559D02*Y167441D01*
X22952D01*
Y172559D01*
X17048D01*
G37*
G36*
X92048Y219645D02*Y214527D01*
X97952D01*
Y219645D01*
X92048D01*
G37*
G36*
Y212559D02*Y207441D01*
X97952D01*
Y212559D01*
X92048D01*
G37*
G36*
X79548Y219645D02*Y214527D01*
X85452D01*
Y219645D01*
X79548D01*
G37*
G36*
Y212559D02*Y207441D01*
X85452D01*
Y212559D01*
X79548D01*
G37*
G36*
X32559Y212952D02*X27441D01*
Y207048D01*
X32559D01*
Y212952D01*
G37*
G36*
X39645D02*X34527D01*
Y207048D01*
X39645D01*
Y212952D01*
G37*
G36*
X79548Y202145D02*Y197027D01*
X85452D01*
Y202145D01*
X79548D01*
G37*
G36*
Y195059D02*Y189941D01*
X85452D01*
Y195059D01*
X79548D01*
G37*
G36*
X55398Y105665D02*Y99335D01*
X69602D01*
Y105665D01*
X55398D01*
G37*
G36*
X30990D02*Y99335D01*
X45194D01*
Y105665D01*
X30990D01*
G37*
G36*
X330665Y177692D02*X324335D01*
Y162307D01*
X330665D01*
Y177692D01*
G37*
G36*
Y208793D02*X324335D01*
Y193408D01*
X330665D01*
Y208793D01*
G37*
G36*
X256300Y178600D02*X250700D01*
Y166400D01*
X256300D01*
Y178600D01*
G37*
G36*
X265300D02*X259700D01*
Y166400D01*
X265300D01*
Y178600D01*
G37*
G36*
X274400D02*X268800D01*
Y166400D01*
X274400D01*
Y178600D01*
G37*
G36*
X251900Y203000D02*Y190800D01*
X273100D01*
Y203000D01*
X251900D01*
G37*
G36*
X33171Y189095D02*Y176891D01*
X63563D01*
Y189095D01*
X33171D01*
G37*
G54D137*X65000Y173249D02*Y168722D01*
X62441Y173249D02*Y168722D01*
X59882Y173249D02*Y168722D01*
X57323Y173249D02*Y168722D01*
X54764Y173249D02*Y168722D01*
X52205Y173249D02*Y168722D01*
X49646Y173249D02*Y168722D01*
X47088Y173249D02*Y168722D01*
X44529Y173249D02*Y168722D01*
X41970Y173249D02*Y168722D01*
X39411Y173249D02*Y168722D01*
X36852Y173249D02*Y168722D01*
X34293Y173249D02*Y168722D01*
X31734Y173249D02*Y168722D01*
Y197264D02*Y192737D01*
X34293Y197264D02*Y192737D01*
X36852Y197264D02*Y192737D01*
X39411Y197264D02*Y192737D01*
X41970Y197264D02*Y192737D01*
X44529Y197264D02*Y192737D01*
X47088Y197264D02*Y192737D01*
X49646Y197264D02*Y192737D01*
X52205Y197264D02*Y192737D01*
X54764Y197264D02*Y192737D01*
X57323Y197264D02*Y192737D01*
X59882Y197264D02*Y192737D01*
X62441Y197264D02*Y192737D01*
X65000Y197264D02*Y192737D01*
G54D136*G36*
X113950Y12550D02*Y7450D01*
X121050D01*
Y12550D01*
X113950D01*
G37*
G36*
Y19950D02*Y14850D01*
X121050D01*
Y19950D01*
X113950D01*
G37*
G36*
Y232650D02*Y227550D01*
X121050D01*
Y232650D01*
X113950D01*
G37*
G36*
Y240050D02*Y234950D01*
X121050D01*
Y240050D01*
X113950D01*
G37*
G36*
X96450Y232650D02*Y227550D01*
X103550D01*
Y232650D01*
X96450D01*
G37*
G36*
Y240050D02*Y234950D01*
X103550D01*
Y240050D01*
X96450D01*
G37*
G36*
X82048Y240059D02*Y234941D01*
X87952D01*
Y240059D01*
X82048D01*
G37*
G36*
Y232973D02*Y227855D01*
X87952D01*
Y232973D01*
X82048D01*
G37*
G36*
X292559Y117952D02*X287441D01*
Y112048D01*
X292559D01*
Y117952D01*
G37*
G36*
X299645D02*X294527D01*
Y112048D01*
X299645D01*
Y117952D01*
G37*
G36*
X305473Y35059D02*X300355D01*
Y29155D01*
X305473D01*
Y35059D01*
G37*
G36*
X312559D02*X307441D01*
Y29155D01*
X312559D01*
Y35059D01*
G37*
G36*
X181000Y96750D02*X179000D01*
Y88250D01*
X181000D01*
Y96750D01*
G37*
G36*
X186000D02*X184000D01*
Y88250D01*
X186000D01*
Y96750D01*
G37*
G36*
X191000D02*X189000D01*
Y88250D01*
X191000D01*
Y96750D01*
G37*
G36*
X196000D02*X194000D01*
Y88250D01*
X196000D01*
Y96750D01*
G37*
G36*
Y117250D02*X194000D01*
Y108750D01*
X196000D01*
Y117250D01*
G37*
G36*
X191000D02*X189000D01*
Y108750D01*
X191000D01*
Y117250D01*
G37*
G36*
X186000D02*X184000D01*
Y108750D01*
X186000D01*
Y117250D01*
G37*
G36*
X181000D02*X179000D01*
Y108750D01*
X181000D01*
Y117250D01*
G37*
G36*
X387048Y180059D02*Y174941D01*
X392952D01*
Y180059D01*
X387048D01*
G37*
G36*
Y187145D02*Y182027D01*
X392952D01*
Y187145D01*
X387048D01*
G37*
M02*
