M48
; DRILL file {KiCad 5.1.5-52549c5~86~ubuntu18.04.1} date Wednesday 20 May 2020 04:48:00 PM IST
; FORMAT={-:-/ absolute / metric / decimal}
; #@! TF.CreationDate,2020-05-20T16:48:00+05:30
; #@! TF.GenerationSoftware,Kicad,Pcbnew,5.1.5-52549c5~86~ubuntu18.04.1
; #@! TF.FileFunction,Plated,1,2,PTH
FMAT,2
METRIC
T1C0.300
T2C0.400
T3C0.500
T4C0.500
T5C0.600
T6C0.650
T7C0.800
T8C0.950
T9C1.000
T10C1.100
T11C1.600
%
G90
G05
T1
X24.76Y-29.845
X26.54Y-28.545
X26.54Y-29.845
X26.54Y-31.145
X28.32Y-28.545
X28.32Y-29.845
X28.32Y-31.145
X30.1Y-28.545
X30.1Y-29.845
X30.1Y-31.145
X31.88Y-28.545
X31.88Y-29.845
X31.88Y-31.145
X33.66Y-29.845
T2
X14.478Y-30.353
X16.637Y-30.988
X17.018Y-40.767
X17.907Y-25.527
X18.161Y-27.559
X19.939Y-48.895
X21.336Y-19.812
X21.971Y-24.511
X22.606Y-71.501
X22.86Y-33.274
X23.622Y-48.006
X23.876Y-26.797
X25.4Y-53.594
X25.781Y-59.309
X26.162Y-43.053
X27.559Y-22.479
X28.448Y-51.562
X29.718Y-53.34
X30.607Y-71.12
X30.734Y-23.241
X30.861Y-38.608
X31.496Y-45.085
X32.258Y-22.352
X32.512Y-69.088
X33.02Y-41.402
X33.655Y-67.183
X34.036Y-53.467
X35.052Y-27.686
X35.433Y-32.004
X36.703Y-66.294
X37.465Y-30.226
X38.227Y-62.103
X38.608Y-34.036
X40.894Y-27.559
X43.307Y-73.66
X44.831Y-23.622
X46.228Y-29.591
X48.26Y-48.133
X51.943Y-28.067
X59.563Y-52.07
X59.69Y-22.606
X62.357Y-41.91
X64.008Y-70.866
X67.437Y-70.612
X73.025Y-22.606
X73.533Y-28.575
X74.803Y-17.526
X78.486Y-25.146
X81.28Y-50.165
X88.9Y-18.669
X90.424Y-47.625
X94.615Y-54.229
X95.377Y-21.717
X96.266Y-18.415
X97.536Y-16.002
X104.013Y-52.07
X104.902Y-55.372
X106.172Y-34.163
X109.982Y-35.814
X110.744Y-23.114
X114.3Y-42.164
X120.396Y-19.304
T3
X14.478Y-22.479
X14.732Y-57.531
X17.907Y-33.02
X21.59Y-15.748
X21.59Y-74.295
X25.654Y-70.612
X26.543Y-47.117
X27.559Y-20.701
X28.575Y-49.022
X29.21Y-23.622
X30.734Y-21.59
X32.258Y-20.828
X33.909Y-18.161
X34.417Y-71.12
X35.433Y-14.351
X35.56Y-43.815
X36.195Y-73.914
X37.338Y-19.939
X38.227Y-49.53
X41.783Y-25.146
X43.561Y-27.559
X48.641Y-34.544
X49.53Y-26.035
X61.595Y-28.575
X66.04Y-21.209
X69.215Y-27.94
X82.042Y-23.114
X87.757Y-28.702
X94.742Y-27.305
X101.346Y-21.971
X102.743Y-28.702
T4
X22.352Y-60.706
X27.686Y-70.993
X31.305Y-65.468
X33.147Y-57.531
T5
X82.423Y-37.592
T6
X27.94Y-47.625
X28.575Y-64.77
X30.48Y-47.625
T7
X59.055Y-15.875
X59.055Y-64.135
X61.595Y-15.875
X61.595Y-64.135
X64.135Y-15.875
X64.135Y-64.135
X66.675Y-15.875
X66.675Y-64.135
X69.215Y-15.875
X69.215Y-64.135
X71.755Y-15.875
X71.755Y-64.135
X74.295Y-64.135
X76.835Y-15.875
X76.835Y-64.135
X79.375Y-15.875
X80.895Y-64.135
X81.915Y-15.875
X83.435Y-64.135
X84.455Y-15.875
X85.975Y-64.135
X86.995Y-15.875
X88.515Y-64.135
X89.535Y-15.875
X91.055Y-64.135
X92.075Y-15.875
X93.595Y-64.135
X94.615Y-15.875
X96.135Y-64.135
X98.675Y-64.135
X101.215Y-64.135
X103.755Y-64.135
X43.895Y-42.545
X48.895Y-42.545
X64.135Y-41.91
X64.135Y-57.15
X66.675Y-41.91
X66.675Y-57.15
X69.215Y-41.91
X69.215Y-57.15
X71.755Y-41.91
X71.755Y-57.15
X74.295Y-41.91
X74.295Y-57.15
X76.835Y-41.91
X76.835Y-57.15
X79.375Y-41.91
X79.375Y-57.15
X81.915Y-41.91
X81.915Y-57.15
X84.455Y-41.91
X84.455Y-57.15
X86.995Y-41.91
X86.995Y-57.15
X89.535Y-41.91
X89.535Y-57.15
X92.075Y-41.91
X92.075Y-57.15
X94.615Y-41.91
X94.615Y-57.15
X97.155Y-41.91
X97.155Y-57.15
X99.695Y-41.91
X99.695Y-57.15
T8
X102.99Y-73.66
X105.49Y-73.66
X107.99Y-73.66
X110.49Y-73.66
X120.65Y-35.56
X120.65Y-38.06
X120.65Y-40.56
X120.65Y-43.06
X69.97Y-73.66
X72.47Y-73.66
X74.97Y-73.66
X77.47Y-73.66
X86.48Y-73.66
X88.98Y-73.66
X91.48Y-73.66
X93.98Y-73.66
X25.52Y-73.66
X28.02Y-73.66
X30.52Y-73.66
X33.02Y-73.66
X25.4Y-15.875
X27.9Y-15.875
X30.4Y-15.875
X32.9Y-15.875
X53.46Y-73.66
X55.96Y-73.66
X58.46Y-73.66
X60.96Y-73.66
X120.65Y-59.69
X120.65Y-62.19
X120.65Y-64.69
X120.65Y-67.19
T9
X76.2Y-45.72
X78.74Y-45.72
X114.3Y-69.85
X69.215Y-38.1
X71.755Y-38.1
X46.355Y-55.245
X46.355Y-62.845
X80.01Y-67.31
X82.55Y-67.31
X114.3Y-15.875
X114.3Y-18.415
X114.3Y-20.955
X114.3Y-23.495
X114.3Y-26.035
X114.3Y-28.575
X114.3Y-31.115
T10
X55.88Y-25.4
X55.88Y-35.56
X31.75Y-53.34
X31.75Y-63.5
T11
X25.4Y-50.8
X25.4Y-66.04
T0
M30
