G04 start of page 8 for group -4078 idx -4078 *
G04 Title: (unknown), bottomsilk *
G04 Creator: pcb 4.0.2 *
G04 CreationDate: Wed Apr  1 14:15:11 2020 UTC *
G04 For: shyam *
G04 Format: Gerber/RS-274X *
G04 PCB-Dimensions (mil): 4100.00 2500.00 *
G04 PCB-Coordinate-Origin: lower left *
%MOIN*%
%FSLAX25Y25*%
%LNBOTTOMSILK*%
%ADD135C,0.0040*%
%ADD134C,0.0080*%
%ADD133C,0.0066*%
%ADD132C,0.0053*%
%ADD131C,0.0083*%
%ADD130C,0.0057*%
%ADD129C,0.0048*%
%ADD128C,0.0038*%
%ADD127C,0.0160*%
%ADD126C,0.0100*%
%ADD125C,0.0030*%
G54D125*X0Y250000D02*X410000D01*
X0D02*Y0D01*
X410000Y250000D02*Y0D01*
X0D02*X410000D01*
G54D126*X146000Y87500D02*Y37500D01*
Y87500D02*X136000Y97500D01*
Y226500D02*X146000Y236500D01*
Y246500D02*Y236500D01*
X136000Y226500D02*Y97500D01*
X367914Y120000D02*Y75000D01*
X405000Y246500D02*Y37500D01*
X368000Y119500D02*X405000D01*
X367500Y74500D02*X404500D01*
G54D127*X96500Y107000D02*Y21500D01*
X109500Y107000D02*Y21500D01*
G54D128*X183060Y19030D02*X182575Y18545D01*
X183060Y19030D02*X184515D01*
X185000Y18545D02*X184515Y19030D01*
X185000Y15635D02*Y18545D01*
Y15635D02*X184515Y15150D01*
X183060D02*X184515D01*
X183060D02*X182575Y15635D01*
Y16605D01*
X183060Y17090D02*X182575Y16605D01*
X183060Y17090D02*X184030D01*
X181411Y15150D02*Y19030D01*
X178986Y15150D01*
Y19030D01*
X177337Y15150D02*Y19030D01*
X176076D02*X175397Y18351D01*
Y15829D02*Y18351D01*
X176076Y15150D02*X175397Y15829D01*
X176076Y15150D02*X177822D01*
X176076Y19030D02*X177822D01*
X170547D02*X172487D01*
Y17090D02*Y19030D01*
Y17090D02*X172002Y17575D01*
X171032D02*X172002D01*
X171032D02*X170547Y17090D01*
Y15635D02*Y17090D01*
X171032Y15150D02*X170547Y15635D01*
X171032Y15150D02*X172002D01*
X172487Y15635D02*X172002Y15150D01*
X169383Y19030D02*X168413Y15150D01*
X167443Y19030D01*
X164533Y15635D02*Y18545D01*
X164048Y19030D01*
X163078D02*X164048D01*
X163078D02*X162593Y18545D01*
Y15635D02*Y18545D01*
X163078Y15150D02*X162593Y15635D01*
X163078Y15150D02*X164048D01*
X164533Y15635D02*X164048Y15150D01*
X161429D02*Y19030D01*
Y17090D02*X159489Y19030D01*
X161429Y17090D02*X159489Y15150D01*
X156579Y17090D02*Y19030D01*
Y17090D02*X156094Y15150D01*
X155124Y17090D01*
X154154Y15150D01*
X153669Y17090D01*
Y19030D01*
X152505Y15150D02*Y18060D01*
X151826Y19030D01*
X150759D02*X151826D01*
X150759D02*X150080Y18060D01*
Y15150D02*Y18060D01*
Y17090D02*X152505D01*
X146976Y19030D02*X148916D01*
X146976D02*X146491Y18545D01*
Y17575D02*Y18545D01*
X146976Y17090D02*X146491Y17575D01*
X146976Y17090D02*X148431D01*
Y15150D02*Y19030D01*
X147655Y17090D02*X146491Y15150D01*
X145327D02*Y19030D01*
X142902Y15150D01*
Y19030D01*
X250060D02*X249575Y18545D01*
X250060Y19030D02*X251515D01*
X252000Y18545D02*X251515Y19030D01*
X252000Y15635D02*Y18545D01*
Y15635D02*X251515Y15150D01*
X250060D02*X251515D01*
X250060D02*X249575Y15635D01*
Y16605D01*
X250060Y17090D02*X249575Y16605D01*
X250060Y17090D02*X251030D01*
X248411Y15150D02*Y19030D01*
X245986Y15150D01*
Y19030D01*
X244337Y15150D02*Y19030D01*
X243076D02*X242397Y18351D01*
Y15829D02*Y18351D01*
X243076Y15150D02*X242397Y15829D01*
X243076Y15150D02*X244822D01*
X243076Y19030D02*X244822D01*
X238032Y17284D02*X239487D01*
X237547Y15150D02*X239487D01*
Y19030D01*
X237547D02*X239487D01*
X236383Y15150D02*Y19030D01*
X233958Y15150D01*
Y19030D01*
X230563Y15150D02*Y19030D01*
X229108D02*X231048D01*
X229108D02*X228623Y18545D01*
Y17575D02*Y18545D01*
X229108Y17090D02*X228623Y17575D01*
X229108Y17090D02*X230563D01*
X227459D02*Y19030D01*
Y17090D02*X226974Y15150D01*
X226004Y17090D01*
X225034Y15150D01*
X224549Y17090D01*
Y19030D01*
X223385Y15150D02*Y19030D01*
X221930Y17090D01*
X220475Y19030D01*
Y15150D02*Y19030D01*
X219311Y18254D02*X218535Y19030D01*
Y15150D02*Y19030D01*
X217856Y15150D02*X219311D01*
X214461D02*Y19030D01*
X213006D02*X214946D01*
X213006D02*X212521Y18545D01*
Y17575D02*Y18545D01*
X213006Y17090D02*X212521Y17575D01*
X213006Y17090D02*X214461D01*
X211357D02*Y19030D01*
Y17090D02*X210872Y15150D01*
X209902Y17090D01*
X208932Y15150D01*
X208447Y17090D01*
Y19030D01*
X207283Y15150D02*Y19030D01*
X205828Y17090D01*
X204373Y19030D01*
Y15150D02*Y19030D01*
X203209Y18545D02*X202724Y19030D01*
X201269D02*X202724D01*
X201269D02*X200784Y18545D01*
Y17575D02*Y18545D01*
X203209Y15150D02*X200784Y17575D01*
Y15150D02*X203209D01*
X312060Y19530D02*X311575Y19045D01*
X312060Y19530D02*X313515D01*
X314000Y19045D02*X313515Y19530D01*
X314000Y16135D02*Y19045D01*
Y16135D02*X313515Y15650D01*
X312060D02*X313515D01*
X312060D02*X311575Y16135D01*
Y17105D01*
X312060Y17590D02*X311575Y17105D01*
X312060Y17590D02*X313030D01*
X310411Y15650D02*Y19530D01*
X307986Y15650D01*
Y19530D01*
X306337Y15650D02*Y19530D01*
X305076D02*X304397Y18851D01*
Y16329D02*Y18851D01*
X305076Y15650D02*X304397Y16329D01*
X305076Y15650D02*X306822D01*
X305076Y19530D02*X306822D01*
X299547D02*X301487D01*
Y17590D02*Y19530D01*
Y17590D02*X301002Y18075D01*
X300032D02*X301002D01*
X300032D02*X299547Y17590D01*
Y16135D02*Y17590D01*
X300032Y15650D02*X299547Y16135D01*
X300032Y15650D02*X301002D01*
X301487Y16135D02*X301002Y15650D01*
X298383Y19530D02*X297413Y15650D01*
X296443Y19530D01*
X291593D02*X291108Y19045D01*
X291593Y19530D02*X293048D01*
X293533Y19045D02*X293048Y19530D01*
X293533Y18075D02*Y19045D01*
Y18075D02*X293048Y17590D01*
X291593D02*X293048D01*
X291593D02*X291108Y17105D01*
Y16135D02*Y17105D01*
X291593Y15650D02*X291108Y16135D01*
X291593Y15650D02*X293048D01*
X293533Y16135D02*X293048Y15650D01*
X289944D02*Y19530D01*
X287519Y15650D01*
Y19530D01*
X284415D02*X283930Y19045D01*
X284415Y19530D02*X285870D01*
X286355Y19045D02*X285870Y19530D01*
X286355Y18075D02*Y19045D01*
Y18075D02*X285870Y17590D01*
X284415D02*X285870D01*
X284415D02*X283930Y17105D01*
Y16135D02*Y17105D01*
X284415Y15650D02*X283930Y16135D01*
X284415Y15650D02*X285870D01*
X286355Y16135D02*X285870Y15650D01*
X281020D02*Y19530D01*
X278595Y15650D01*
Y19530D01*
X275491Y15650D02*X276752D01*
X277431Y16329D02*X276752Y15650D01*
X277431Y16329D02*Y18851D01*
X276752Y19530D01*
X275491D02*X276752D01*
X377560Y20530D02*X377075Y20045D01*
X377560Y20530D02*X379015D01*
X379500Y20045D02*X379015Y20530D01*
X379500Y17135D02*Y20045D01*
Y17135D02*X379015Y16650D01*
X377560D02*X379015D01*
X377560D02*X377075Y17135D01*
Y18105D01*
X377560Y18590D02*X377075Y18105D01*
X377560Y18590D02*X378530D01*
X375911Y16650D02*Y20530D01*
X373486Y16650D01*
Y20530D01*
X371837Y16650D02*Y20530D01*
X370576D02*X369897Y19851D01*
Y17329D02*Y19851D01*
X370576Y16650D02*X369897Y17329D01*
X370576Y16650D02*X372322D01*
X370576Y20530D02*X372322D01*
X365047D02*X366987D01*
Y18590D02*Y20530D01*
Y18590D02*X366502Y19075D01*
X365532D02*X366502D01*
X365532D02*X365047Y18590D01*
Y17135D02*Y18590D01*
X365532Y16650D02*X365047Y17135D01*
X365532Y16650D02*X366502D01*
X366987Y17135D02*X366502Y16650D01*
X363883Y20530D02*X362913Y16650D01*
X361943Y20530D01*
X357093D02*X356608Y20045D01*
X357093Y20530D02*X358548D01*
X359033Y20045D02*X358548Y20530D01*
X359033Y19075D02*Y20045D01*
Y19075D02*X358548Y18590D01*
X357093D02*X358548D01*
X357093D02*X356608Y18105D01*
Y17135D02*Y18105D01*
X357093Y16650D02*X356608Y17135D01*
X357093Y16650D02*X358548D01*
X359033Y17135D02*X358548Y16650D01*
X355444D02*Y20530D01*
X353019Y16650D01*
Y20530D01*
X349915D02*X349430Y20045D01*
X349915Y20530D02*X351370D01*
X351855Y20045D02*X351370Y20530D01*
X351855Y19075D02*Y20045D01*
Y19075D02*X351370Y18590D01*
X349915D02*X351370D01*
X349915D02*X349430Y18105D01*
Y17135D02*Y18105D01*
X349915Y16650D02*X349430Y17135D01*
X349915Y16650D02*X351370D01*
X351855Y17135D02*X351370Y16650D01*
X346520D02*Y20530D01*
X344095Y16650D01*
Y20530D01*
X340991Y16650D02*X342252D01*
X342931Y17329D02*X342252Y16650D01*
X342931Y17329D02*Y19851D01*
X342252Y20530D01*
X340991D02*X342252D01*
G54D129*X68500Y229600D02*Y230800D01*
X67900Y231400D01*
X66700D02*X67900D01*
X66700D02*X66100Y230800D01*
Y229600D02*Y230800D01*
X66700Y229000D02*X66100Y229600D01*
X66700Y229000D02*X67900D01*
X68500Y229600D02*X67900Y229000D01*
X64660Y229600D02*Y231400D01*
Y229600D02*X64060Y229000D01*
X62860D02*X64060D01*
X62860D02*X62260Y229600D01*
Y231400D01*
X60220Y229600D02*Y233800D01*
Y229600D02*X59620Y229000D01*
Y232000D02*X60820D01*
X58420Y233200D02*X57820Y233800D01*
X56020D02*X57820D01*
X56020D02*X55420Y233200D01*
Y232000D02*Y233200D01*
X58420Y229000D02*X55420Y232000D01*
Y229000D02*X58420D01*
G54D130*X43000Y229565D02*Y230995D01*
X42285Y231710D01*
X40855D02*X42285D01*
X40855D02*X40140Y230995D01*
Y229565D02*Y230995D01*
X40855Y228850D02*X40140Y229565D01*
X40855Y228850D02*X42285D01*
X43000Y229565D02*X42285Y228850D01*
X38424Y229565D02*Y231710D01*
Y229565D02*X37709Y228850D01*
X36279D02*X37709D01*
X36279D02*X35564Y229565D01*
Y231710D01*
X33133Y229565D02*Y234570D01*
Y229565D02*X32418Y228850D01*
Y232425D02*X33848D01*
X30988Y233426D02*X29844Y234570D01*
Y228850D02*Y234570D01*
X28843Y228850D02*X30988D01*
G54D125*X390740Y66520D02*X391110Y66150D01*
X390740Y66520D02*Y67630D01*
X391110Y68000D02*X390740Y67630D01*
X391110Y68000D02*X393330D01*
X393700Y67630D01*
Y66520D02*Y67630D01*
Y66520D02*X393330Y66150D01*
X392590D02*X393330D01*
X392220Y66520D02*X392590Y66150D01*
X392220Y66520D02*Y67260D01*
X390740Y65262D02*X393700D01*
X390740D02*X393700Y63412D01*
X390740D02*X393700D01*
X390740Y62154D02*X393700D01*
X390740Y61192D02*X391258Y60674D01*
X393182D01*
X393700Y61192D02*X393182Y60674D01*
X393700Y61192D02*Y62524D01*
X390740Y61192D02*Y62524D01*
Y56974D02*X391110Y56604D01*
X390740Y56974D02*Y58084D01*
X391110Y58454D02*X390740Y58084D01*
X391110Y58454D02*X391850D01*
X392220Y58084D01*
Y56974D02*Y58084D01*
Y56974D02*X392590Y56604D01*
X393330D01*
X393700Y56974D02*X393330Y56604D01*
X393700Y56974D02*Y58084D01*
X393330Y58454D02*X393700Y58084D01*
X390740Y55716D02*X392220D01*
X393700Y55346D01*
X392220Y54606D01*
X393700Y53866D01*
X392220Y53496D01*
X390740D02*X392220D01*
X393700Y52608D02*X390740Y50758D01*
Y52608D02*X393700Y50758D01*
X390740Y47058D02*X391110Y46688D01*
X390740Y47058D02*Y48168D01*
X391110Y48538D02*X390740Y48168D01*
X391110Y48538D02*X393330D01*
X393700Y48168D01*
Y47058D02*Y48168D01*
Y47058D02*X393330Y46688D01*
X392590D02*X393330D01*
X392220Y47058D02*X392590Y46688D01*
X392220Y47058D02*Y47798D01*
X390740Y45800D02*X393700D01*
X390740D02*X393700Y43950D01*
X390740D02*X393700D01*
X390740Y42692D02*X393700D01*
X390740Y41730D02*X391258Y41212D01*
X393182D01*
X393700Y41730D02*X393182Y41212D01*
X393700Y41730D02*Y43062D01*
X390740Y41730D02*Y43062D01*
Y37512D02*X391110Y37142D01*
X390740Y37512D02*Y38622D01*
X391110Y38992D02*X390740Y38622D01*
X391110Y38992D02*X391850D01*
X392220Y38622D01*
Y37512D02*Y38622D01*
Y37512D02*X392590Y37142D01*
X393330D01*
X393700Y37512D02*X393330Y37142D01*
X393700Y37512D02*Y38622D01*
X393330Y38992D02*X393700Y38622D01*
X390740Y36254D02*X392220D01*
X393700Y35884D01*
X392220Y35144D01*
X393700Y34404D01*
X392220Y34034D01*
X390740D02*X392220D01*
X390740Y33146D02*X392220Y32406D01*
X390740Y31666D01*
X392220Y32406D02*X393700D01*
G54D128*X390460Y164580D02*X390940Y164100D01*
X390460Y164580D02*Y166020D01*
X390940Y166500D02*X390460Y166020D01*
X390940Y166500D02*X393820D01*
X394300Y166020D01*
Y164580D02*Y166020D01*
Y164580D02*X393820Y164100D01*
X392860D02*X393820D01*
X392380Y164580D02*X392860Y164100D01*
X392380Y164580D02*Y165540D01*
X390460Y162948D02*X394300D01*
X390460D02*X394300Y160548D01*
X390460D02*X394300D01*
X390460Y158916D02*X394300D01*
X390460Y157668D02*X391132Y156996D01*
X393628D01*
X394300Y157668D02*X393628Y156996D01*
X394300Y157668D02*Y159396D01*
X390460Y157668D02*Y159396D01*
Y150468D02*X390940Y149988D01*
X390460Y150468D02*Y151908D01*
X390940Y152388D02*X390460Y151908D01*
X390940Y152388D02*X391900D01*
X392380Y151908D01*
Y150468D02*Y151908D01*
Y150468D02*X392860Y149988D01*
X393820D01*
X394300Y150468D02*X393820Y149988D01*
X394300Y150468D02*Y151908D01*
X393820Y152388D02*X394300Y151908D01*
X390460Y148836D02*X392380D01*
X394300Y148356D01*
X392380Y147396D01*
X394300Y146436D01*
X392380Y145956D01*
X390460D02*X392380D01*
X391420Y141348D02*X394300D01*
X391420D02*X390460Y140676D01*
Y139620D02*Y140676D01*
Y139620D02*X391420Y138948D01*
X394300D01*
X392380D02*Y141348D01*
X394300Y127236D02*Y129156D01*
Y127236D02*X393820Y126756D01*
X392668D02*X393820D01*
X392188Y127236D02*X392668Y126756D01*
X392188Y127236D02*Y128676D01*
X390460D02*X394300D01*
X390460Y127236D02*Y129156D01*
Y127236D02*X390940Y126756D01*
X391708D01*
X392188Y127236D02*X391708Y126756D01*
X386850Y237560D02*Y238821D01*
X386171Y239500D02*X386850Y238821D01*
X383649Y239500D02*X386171D01*
X383649D02*X382970Y238821D01*
Y237560D02*Y238821D01*
X384716Y234941D02*Y236396D01*
X386850Y234456D02*Y236396D01*
X382970D02*X386850D01*
X382970Y234456D02*Y236396D01*
Y229315D02*X386850D01*
X382970Y228054D02*X383649Y227375D01*
X386171D01*
X386850Y228054D02*X386171Y227375D01*
X386850Y228054D02*Y229800D01*
X382970Y228054D02*Y229800D01*
X386850Y224271D02*Y225532D01*
X386171Y226211D02*X386850Y225532D01*
X383649Y226211D02*X386171D01*
X383649D02*X382970Y225532D01*
Y224271D02*Y225532D01*
Y219421D02*Y221361D01*
Y219421D02*X383455Y218936D01*
X384425D01*
X384910Y219421D02*X384425Y218936D01*
X384910Y219421D02*Y220876D01*
X382970D02*X386850D01*
X384910Y220100D02*X386850Y218936D01*
X382970Y215832D02*X383455Y215347D01*
X382970Y215832D02*Y217287D01*
X383455Y217772D02*X382970Y217287D01*
X383455Y217772D02*X384425D01*
X384910Y217287D01*
Y215832D02*Y217287D01*
Y215832D02*X385395Y215347D01*
X386365D01*
X386850Y215832D02*X386365Y215347D01*
X386850Y215832D02*Y217287D01*
X386365Y217772D02*X386850Y217287D01*
X382970Y212243D02*Y214183D01*
Y213213D02*X386850D01*
X382970Y208848D02*X386850D01*
X382970Y207587D02*X383649Y206908D01*
X386171D01*
X386850Y207587D02*X386171Y206908D01*
X386850Y207587D02*Y209333D01*
X382970Y207587D02*Y209333D01*
Y203804D02*Y205744D01*
Y204774D02*X386850D01*
Y197208D02*Y198469D01*
X386171Y199148D02*X386850Y198469D01*
X383649Y199148D02*X386171D01*
X383649D02*X382970Y198469D01*
Y197208D02*Y198469D01*
Y196044D02*X386850D01*
X384910D02*X382970Y194104D01*
X384910Y196044D02*X386850Y194104D01*
X382970Y187508D02*Y189448D01*
X384910D01*
X384425Y188963D01*
Y187993D02*Y188963D01*
Y187993D02*X384910Y187508D01*
X386365D01*
X386850Y187993D02*X386365Y187508D01*
X386850Y187993D02*Y188963D01*
X386365Y189448D02*X386850Y188963D01*
X382970Y186344D02*X386850Y185374D01*
X382970Y184404D01*
Y179554D02*X383455Y179069D01*
X382970Y179554D02*Y181009D01*
X383455Y181494D02*X382970Y181009D01*
X383455Y181494D02*X386365D01*
X386850Y181009D01*
Y179554D02*Y181009D01*
Y179554D02*X386365Y179069D01*
X385395D02*X386365D01*
X384910Y179554D02*X385395Y179069D01*
X384910Y179554D02*Y180524D01*
X382970Y177905D02*X386850D01*
X382970D02*X386850Y175480D01*
X382970D02*X386850D01*
X382970Y173831D02*X386850D01*
X382970Y172570D02*X383649Y171891D01*
X386171D01*
X386850Y172570D02*X386171Y171891D01*
X386850Y172570D02*Y174316D01*
X382970Y172570D02*Y174316D01*
X71060Y19030D02*X70575Y18545D01*
X71060Y19030D02*X72515D01*
X73000Y18545D02*X72515Y19030D01*
X73000Y15635D02*Y18545D01*
Y15635D02*X72515Y15150D01*
X71060D02*X72515D01*
X71060D02*X70575Y15635D01*
Y16605D01*
X71060Y17090D02*X70575Y16605D01*
X71060Y17090D02*X72030D01*
X69411Y15150D02*Y19030D01*
X66986Y15150D01*
Y19030D01*
X65337Y15150D02*Y19030D01*
X64076D02*X63397Y18351D01*
Y15829D02*Y18351D01*
X64076Y15150D02*X63397Y15829D01*
X64076Y15150D02*X65822D01*
X64076Y19030D02*X65822D01*
X58547D02*X58062Y18545D01*
X58547Y19030D02*X60002D01*
X60487Y18545D02*X60002Y19030D01*
X60487Y15635D02*Y18545D01*
Y15635D02*X60002Y15150D01*
X58547D02*X60002D01*
X58547D02*X58062Y15635D01*
Y16605D01*
X58547Y17090D02*X58062Y16605D01*
X58547Y17090D02*X59517D01*
X56898Y15150D02*Y19030D01*
X54473Y15150D01*
Y19030D01*
X52824Y15150D02*Y19030D01*
X51563D02*X50884Y18351D01*
Y15829D02*Y18351D01*
X51563Y15150D02*X50884Y15829D01*
X51563Y15150D02*X53309D01*
X51563Y19030D02*X53309D01*
G54D131*X32000Y17240D02*X36160D01*
X34080Y15160D02*Y19320D01*
X42400Y17240D02*X46560D01*
X44480Y15160D02*Y19320D01*
G54D132*X101389Y22628D02*Y25268D01*
X102049Y25928D01*
X103633D01*
X104293Y25268D02*X103633Y25928D01*
X104293Y23288D02*Y25268D01*
X101389Y23288D02*X106669D01*
Y22628D02*Y25268D01*
X106009Y25928D01*
X104953D02*X106009D01*
X104293Y25268D02*X104953Y25928D01*
X101389Y28172D02*X103369D01*
X104029Y28832D01*
Y30152D01*
Y27512D02*X103369Y28172D01*
X101389Y32396D02*Y34376D01*
X102049Y31736D02*X101389Y32396D01*
X102049Y31736D02*X103369D01*
X104029Y32396D01*
Y33716D01*
X103369Y34376D01*
X102709Y31736D02*Y34376D01*
X103369D01*
X104029Y37940D02*X103369Y38600D01*
X104029Y36620D02*Y37940D01*
X103369Y35960D02*X104029Y36620D01*
X102049Y35960D02*X103369D01*
X102049D02*X101389Y36620D01*
X102049Y38600D02*X104029D01*
X102049D02*X101389Y39260D01*
Y36620D02*Y37940D01*
X102049Y38600D01*
Y41504D02*X106669D01*
X102049D02*X101389Y42164D01*
X104689Y40844D02*Y42164D01*
X101389Y43484D02*X106669D01*
X103369D02*X104029Y44144D01*
Y45464D01*
X103369Y46124D01*
X101389D02*X103369D01*
X102049Y50084D02*X103369D01*
X104029Y50744D01*
Y52064D01*
X103369Y52724D01*
X102049D02*X103369D01*
X101389Y52064D02*X102049Y52724D01*
X101389Y50744D02*Y52064D01*
X102049Y50084D02*X101389Y50744D01*
Y54968D02*X106009D01*
X106669Y55628D01*
Y56288D01*
X104029Y54308D02*Y55628D01*
X101389Y59984D02*X106669D01*
X101389Y63284D02*X106669D01*
X104029Y59984D02*Y63284D01*
X102049Y64868D02*X103369D01*
X104029Y65528D01*
Y66848D01*
X103369Y67508D01*
X102049D02*X103369D01*
X101389Y66848D02*X102049Y67508D01*
X101389Y65528D02*Y66848D01*
X102049Y64868D02*X101389Y65528D01*
X99409Y69752D02*X103369D01*
X104029Y69092D02*X103369Y69752D01*
X104029Y70412D01*
Y71732D01*
X103369Y72392D01*
X102049D02*X103369D01*
X101389Y71732D02*X102049Y72392D01*
X101389Y70412D02*Y71732D01*
X102049Y69752D02*X101389Y70412D01*
Y74636D02*Y76616D01*
X102049Y73976D02*X101389Y74636D01*
X102049Y73976D02*X103369D01*
X104029Y74636D01*
Y75956D01*
X103369Y76616D01*
X102709Y73976D02*Y76616D01*
X103369D01*
X101389Y81236D02*X106669D01*
Y80576D02*Y83216D01*
X106009Y83876D01*
X104689D02*X106009D01*
X104029Y83216D02*X104689Y83876D01*
X104029Y81236D02*Y83216D01*
X101389Y86120D02*X103369D01*
X104029Y86780D01*
Y88100D01*
Y85460D02*X103369Y86120D01*
X102049Y89684D02*X103369D01*
X104029Y90344D01*
Y91664D01*
X103369Y92324D01*
X102049D02*X103369D01*
X101389Y91664D02*X102049Y92324D01*
X101389Y90344D02*Y91664D01*
X102049Y89684D02*X101389Y90344D01*
G54D133*X105217Y94568D02*X105349D01*
G54D132*X100069D02*X103369D01*
X99409Y93908D02*X100069Y94568D01*
X101389Y96548D02*Y98528D01*
X102049Y95888D02*X101389Y96548D01*
X102049Y95888D02*X103369D01*
X104029Y96548D01*
Y97868D01*
X103369Y98528D01*
X102709Y95888D02*Y98528D01*
X103369D01*
X104029Y100772D02*Y102752D01*
X103369Y100112D02*X104029Y100772D01*
X102049Y100112D02*X103369D01*
X102049D02*X101389Y100772D01*
Y102752D01*
X102049Y104996D02*X106669D01*
X102049D02*X101389Y105656D01*
X104689Y104336D02*Y105656D01*
G54D126*X235000Y53500D02*X316500D01*
X305095Y53405D02*X336591D01*
X235000Y41500D02*X316500D01*
X285095Y41594D02*X336591D01*
X235000Y53500D02*Y41500D01*
X285095Y53405D02*X316591D01*
X336591D02*Y41594D01*
X149000Y53500D02*X230500D01*
X160000D02*Y41500D01*
X149000D02*X230500D01*
Y53500D02*Y41500D01*
X149000Y53500D02*Y41500D01*
X219500Y231500D02*X301000D01*
X290000Y243500D02*Y231500D01*
X219500Y243500D02*X301000D01*
X219500D02*Y231500D01*
X301000Y243500D02*Y231500D01*
X150000Y232500D02*X210000D01*
X150000Y242500D02*Y232500D01*
Y242500D02*X210000D01*
Y232500D01*
X200000Y242500D02*Y232500D01*
Y242500D02*X210000D01*
X149500Y132500D02*X159500D01*
X139500Y142500D02*X159500D01*
X139500Y122500D02*X159500D01*
X139500Y132500D02*X159500D01*
X139500Y152500D02*X159500D01*
X149500Y142500D02*X159500D01*
Y152500D02*Y122500D01*
X139500Y152500D02*Y122500D01*
X149500Y152500D02*Y122500D01*
Y152500D02*X159500D01*
G54D134*X25000Y204500D02*Y173500D01*
X10000Y204500D02*Y173500D01*
G54D135*X299000Y226000D02*Y227500D01*
Y226000D02*X298500Y225500D01*
X297500D02*X298500D01*
X297500D02*X297000Y226000D01*
Y227500D01*
X295300Y225500D02*Y227000D01*
X294800Y227500D01*
X294300D02*X294800D01*
X294300D02*X293800Y227000D01*
Y225500D02*Y227000D01*
X295800Y227500D02*X295300Y227000D01*
X292600Y226000D02*Y227000D01*
X292100Y227500D01*
X291100D02*X292100D01*
X291100D02*X290600Y227000D01*
Y226000D02*Y227000D01*
X291100Y225500D02*X290600Y226000D01*
X291100Y225500D02*X292100D01*
X292600Y226000D02*X292100Y225500D01*
X287400D02*X289400D01*
X284200Y227500D02*X285700D01*
X286200Y227000D02*X285700Y227500D01*
X286200Y226000D02*Y227000D01*
Y226000D02*X285700Y225500D01*
X284200D02*X285700D01*
X283000Y226000D02*Y227000D01*
X282500Y227500D01*
X281500D02*X282500D01*
X281500D02*X281000Y227000D01*
Y226000D02*Y227000D01*
X281500Y225500D02*X281000Y226000D01*
X281500Y225500D02*X282500D01*
X283000Y226000D02*X282500Y225500D01*
X279300D02*Y227000D01*
X278800Y227500D01*
X278300D02*X278800D01*
X278300D02*X277800Y227000D01*
Y225500D02*Y227000D01*
X279800Y227500D02*X279300Y227000D01*
X276100Y225500D02*Y227000D01*
X275600Y227500D01*
X275100D02*X275600D01*
X275100D02*X274600Y227000D01*
Y225500D02*Y227000D01*
X276600Y227500D02*X276100Y227000D01*
X271400Y225500D02*X273400D01*
X270200Y228700D02*X269400Y229500D01*
Y225500D02*Y229500D01*
X268700Y225500D02*X270200D01*
X182500Y118500D02*X182000Y118000D01*
X182500Y118500D02*X184000D01*
X184500Y118000D02*X184000Y118500D01*
X184500Y117000D02*Y118000D01*
Y117000D02*X184000Y116500D01*
X182500D02*X184000D01*
X182500D02*X182000Y116000D01*
Y115000D02*Y116000D01*
X182500Y114500D02*X182000Y115000D01*
X182500Y114500D02*X184000D01*
X184500Y115000D02*X184000Y114500D01*
X180300D02*Y118500D01*
X178800D02*X180800D01*
X178800D02*X178300Y118000D01*
Y117000D02*Y118000D01*
X178800Y116500D02*X178300Y117000D01*
X178800Y116500D02*X180300D01*
X176100Y118500D02*X177100D01*
X176600Y114500D02*Y118500D01*
X176100Y114500D02*X177100D01*
X172900D02*X174900D01*
X169700D02*X171000D01*
X171700Y115200D02*X171000Y114500D01*
X171700Y115200D02*Y117800D01*
X171000Y118500D01*
X169700D02*X171000D01*
X168500Y115000D02*Y118000D01*
X168000Y118500D01*
X167000D02*X168000D01*
X167000D02*X166500Y118000D01*
Y115000D02*Y118000D01*
X167000Y114500D02*X166500Y115000D01*
X167000Y114500D02*X168000D01*
X168500Y115000D02*X168000Y114500D01*
X165300D02*Y118500D01*
X162800Y114500D01*
Y118500D01*
X161600Y114500D02*Y118500D01*
X159100Y114500D01*
Y118500D01*
X156400Y116700D02*X157900D01*
X155900Y114500D02*X157900D01*
Y118500D01*
X155900D02*X157900D01*
X152700Y114500D02*X154000D01*
X154700Y115200D02*X154000Y114500D01*
X154700Y115200D02*Y117800D01*
X154000Y118500D01*
X152700D02*X154000D01*
X149500D02*X151500D01*
X150500Y114500D02*Y118500D01*
X148300Y115000D02*Y118000D01*
X147800Y118500D01*
X146800D02*X147800D01*
X146800D02*X146300Y118000D01*
Y115000D02*Y118000D01*
X146800Y114500D02*X146300Y115000D01*
X146800Y114500D02*X147800D01*
X148300Y115000D02*X147800Y114500D01*
X143100Y118500D02*X145100D01*
X143100D02*X142600Y118000D01*
Y117000D02*Y118000D01*
X143100Y116500D02*X142600Y117000D01*
X143100Y116500D02*X144600D01*
Y114500D02*Y118500D01*
X143800Y116500D02*X142600Y114500D01*
X180500Y227500D02*Y229000D01*
Y227500D02*X180000Y227000D01*
X179000D02*X180000D01*
X179000D02*X178500Y227500D01*
Y229000D01*
X176800Y227000D02*Y228500D01*
X176300Y229000D01*
X175800D02*X176300D01*
X175800D02*X175300Y228500D01*
Y227000D02*Y228500D01*
X177300Y229000D02*X176800Y228500D01*
X174100Y227500D02*Y228500D01*
X173600Y229000D01*
X172600D02*X173600D01*
X172600D02*X172100Y228500D01*
Y227500D02*Y228500D01*
X172600Y227000D02*X172100Y227500D01*
X172600Y227000D02*X173600D01*
X174100Y227500D02*X173600Y227000D01*
X168900D02*X170900D01*
X165700Y229000D02*X167200D01*
X167700Y228500D02*X167200Y229000D01*
X167700Y227500D02*Y228500D01*
Y227500D02*X167200Y227000D01*
X165700D02*X167200D01*
X164500Y227500D02*Y228500D01*
X164000Y229000D01*
X163000D02*X164000D01*
X163000D02*X162500Y228500D01*
Y227500D02*Y228500D01*
X163000Y227000D02*X162500Y227500D01*
X163000Y227000D02*X164000D01*
X164500Y227500D02*X164000Y227000D01*
X160800D02*Y228500D01*
X160300Y229000D01*
X159800D02*X160300D01*
X159800D02*X159300Y228500D01*
Y227000D02*Y228500D01*
X161300Y229000D02*X160800Y228500D01*
X157600Y227000D02*Y228500D01*
X157100Y229000D01*
X156600D02*X157100D01*
X156600D02*X156100Y228500D01*
Y227000D02*Y228500D01*
X158100Y229000D02*X157600Y228500D01*
X152900Y227000D02*X154900D01*
X151700Y230500D02*X151200Y231000D01*
X149700D02*X151200D01*
X149700D02*X149200Y230500D01*
Y229500D02*Y230500D01*
X151700Y227000D02*X149200Y229500D01*
Y227000D02*X151700D01*
X266500Y33500D02*Y35000D01*
Y33500D02*X266000Y33000D01*
X265000D02*X266000D01*
X265000D02*X264500Y33500D01*
Y35000D01*
X262800Y33000D02*Y34500D01*
X262300Y35000D01*
X261800D02*X262300D01*
X261800D02*X261300Y34500D01*
Y33000D02*Y34500D01*
X263300Y35000D02*X262800Y34500D01*
X260100Y33500D02*Y34500D01*
X259600Y35000D01*
X258600D02*X259600D01*
X258600D02*X258100Y34500D01*
Y33500D02*Y34500D01*
X258600Y33000D02*X258100Y33500D01*
X258600Y33000D02*X259600D01*
X260100Y33500D02*X259600Y33000D01*
X254900D02*X256900D01*
X251700Y35000D02*X253200D01*
X253700Y34500D02*X253200Y35000D01*
X253700Y33500D02*Y34500D01*
Y33500D02*X253200Y33000D01*
X251700D02*X253200D01*
X250500Y33500D02*Y34500D01*
X250000Y35000D01*
X249000D02*X250000D01*
X249000D02*X248500Y34500D01*
Y33500D02*Y34500D01*
X249000Y33000D02*X248500Y33500D01*
X249000Y33000D02*X250000D01*
X250500Y33500D02*X250000Y33000D01*
X246800D02*Y34500D01*
X246300Y35000D01*
X245800D02*X246300D01*
X245800D02*X245300Y34500D01*
Y33000D02*Y34500D01*
X247300Y35000D02*X246800Y34500D01*
X243600Y33000D02*Y34500D01*
X243100Y35000D01*
X242600D02*X243100D01*
X242600D02*X242100Y34500D01*
Y33000D02*Y34500D01*
X244100Y35000D02*X243600Y34500D01*
X238900Y33000D02*X240900D01*
X235700Y37000D02*X237700D01*
Y35000D02*Y37000D01*
Y35000D02*X237200Y35500D01*
X236200D02*X237200D01*
X236200D02*X235700Y35000D01*
Y33500D02*Y35000D01*
X236200Y33000D02*X235700Y33500D01*
X236200Y33000D02*X237200D01*
X237700Y33500D02*X237200Y33000D01*
X180000Y33500D02*Y35000D01*
Y33500D02*X179500Y33000D01*
X178500D02*X179500D01*
X178500D02*X178000Y33500D01*
Y35000D01*
X176300Y33000D02*Y34500D01*
X175800Y35000D01*
X175300D02*X175800D01*
X175300D02*X174800Y34500D01*
Y33000D02*Y34500D01*
X176800Y35000D02*X176300Y34500D01*
X173600Y33500D02*Y34500D01*
X173100Y35000D01*
X172100D02*X173100D01*
X172100D02*X171600Y34500D01*
Y33500D02*Y34500D01*
X172100Y33000D02*X171600Y33500D01*
X172100Y33000D02*X173100D01*
X173600Y33500D02*X173100Y33000D01*
X168400D02*X170400D01*
X165200Y35000D02*X166700D01*
X167200Y34500D02*X166700Y35000D01*
X167200Y33500D02*Y34500D01*
Y33500D02*X166700Y33000D01*
X165200D02*X166700D01*
X164000Y33500D02*Y34500D01*
X163500Y35000D01*
X162500D02*X163500D01*
X162500D02*X162000Y34500D01*
Y33500D02*Y34500D01*
X162500Y33000D02*X162000Y33500D01*
X162500Y33000D02*X163500D01*
X164000Y33500D02*X163500Y33000D01*
X160300D02*Y34500D01*
X159800Y35000D01*
X159300D02*X159800D01*
X159300D02*X158800Y34500D01*
Y33000D02*Y34500D01*
X160800Y35000D02*X160300Y34500D01*
X157100Y33000D02*Y34500D01*
X156600Y35000D01*
X156100D02*X156600D01*
X156100D02*X155600Y34500D01*
Y33000D02*Y34500D01*
X157600Y35000D02*X157100Y34500D01*
X152400Y33000D02*X154400D01*
X149700Y37000D02*X149200Y36500D01*
X149700Y37000D02*X150700D01*
X151200Y36500D02*X150700Y37000D01*
X151200Y33500D02*Y36500D01*
Y33500D02*X150700Y33000D01*
X149700Y35200D02*X149200Y34700D01*
X149700Y35200D02*X151200D01*
X149700Y33000D02*X150700D01*
X149700D02*X149200Y33500D01*
Y34700D01*
X21543Y169500D02*X23543D01*
X21543D02*X21043Y169000D01*
Y168000D02*Y169000D01*
X21543Y167500D02*X21043Y168000D01*
X21543Y167500D02*X23043D01*
Y165500D02*Y169500D01*
X22243Y167500D02*X21043Y165500D01*
X19843Y168700D02*X19043Y169500D01*
Y165500D02*Y169500D01*
X18343Y165500D02*X19843D01*
X17143Y169000D02*X16643Y169500D01*
X15143D02*X16643D01*
X15143D02*X14643Y169000D01*
Y168000D02*Y169000D01*
X17143Y165500D02*X14643Y168000D01*
Y165500D02*X17143D01*
M02*
