M48
INCH
T90C0.020
T89C0.145
T88C0.015
T87C0.008
T86C0.030
T85C0.040
T84C0.060
T83C0.038
%
T87
X003971Y018732
X003971Y018299
X003971Y017866
X004404Y018732
X004404Y018299
X004404Y017866
X004837Y018732
X004837Y018299
X004837Y017866
X005270Y018732
X005270Y018299
X005270Y017866
X005703Y018732
X005703Y018299
X005703Y017866
T88
X000300Y018050
X000600Y018850
X000900Y004000
X000950Y016750
X001000Y019200
X001050Y014800
X001200Y015550
X001350Y009550
X001450Y013300
X001650Y007650
X002000Y018550
X002300Y014500
X002350Y010250
X002350Y007650
X002750Y018850
X002800Y008450
X002850Y017750
X002900Y005700
X002900Y001700
X003000Y003300
X003150Y014650
X003200Y011150
X003400Y008000
X003650Y021550
X003650Y020450
X003950Y004750
X004050Y014550
X004300Y008250
X004350Y009450
X004450Y023100
X004500Y020450
X005100Y014550
X005370Y020370
X005550Y014700
X005600Y021600
X005700Y022200
X005850Y001750
X005900Y023100
X005900Y014450
X006000Y011900
X006300Y009400
X006400Y011000
X006800Y000250
X006900Y018300
X006900Y005700
X006900Y004100
X007100Y017350
X007250Y021700
X007250Y001500
X007450Y022400
X007500Y011700
X007650Y010300
X008150Y006350
X008900Y005850
X008900Y003800
X009150Y000900
X009900Y018600
X010000Y020150
X010850Y001000
X010900Y017800
X011250Y016050
X011850Y003400
X012300Y003100
X012300Y002500
X012800Y002800
X013700Y007300
X013850Y011500
X014050Y016900
X014250Y019000
X015350Y020350
X015650Y017050
X017200Y009200
X019850Y022900
X025050Y020950
X027300Y020950
X028350Y018500
X029000Y010850
X031550Y021350
X032150Y005650
X033700Y017050
X034000Y008350
X034250Y021350
X036100Y014500
X036200Y013000
X037100Y006300
T90
X000900Y021900
X002650Y000700
X002750Y023400
X004000Y001800
X007350Y023450
X009100Y019450
X017950Y016900
X018250Y019950
X018800Y021950
X019750Y015050
X020550Y021500
X021550Y018950
X022200Y016900
X023150Y015450
X031090Y020110
X031650Y018700
X033350Y024000
X034350Y013700
X035350Y018500
X039150Y024050
T86
X008600Y013150
X011650Y019250
X011650Y017250
X024400Y019700
X026250Y020950
X026250Y015300
X028350Y021350
X029100Y017500
X031000Y016100
X032350Y023350
X034600Y017800
X035300Y020400
T83
X011750Y011750
X011750Y008750
X014450Y014750
X014450Y013750
X014450Y012750
X015450Y014750
X015450Y013750
X015450Y012750
X015500Y023750
X015500Y004750
X016500Y023750
X016500Y004750
X017500Y023750
X017500Y004750
X018000Y013250
X018000Y007250
X018500Y023750
X018500Y004750
X019000Y013250
X019000Y007250
X019500Y023750
X019500Y004750
X020000Y013250
X020000Y007250
X020500Y023750
X020500Y004750
X021000Y013250
X021000Y007250
X021500Y004750
X022000Y013250
X022000Y007250
X022500Y023750
X022500Y004750
X023000Y013250
X023000Y007250
X023500Y023750
X024000Y013250
X024000Y007250
X024100Y004750
X024500Y023750
X025000Y013250
X025000Y007250
X025100Y004750
X025500Y023750
X026000Y013250
X026000Y007250
X026100Y004750
X026500Y023750
X027000Y013250
X027000Y007250
X027100Y004750
X027500Y023750
X028000Y013250
X028000Y007250
X028100Y004750
X028500Y023750
X029000Y013250
X029000Y007250
X029100Y004750
X029500Y023750
X030000Y013250
X030000Y007250
X030100Y004750
X031000Y013250
X031000Y007250
X031100Y004750
X032000Y013250
X032000Y007250
X032100Y004750
X033100Y004750
X035500Y007250
X037500Y023750
X037500Y022750
X037500Y021750
X037500Y020750
X037500Y019750
X037500Y018750
X037500Y017750
T85
X003500Y024000
X003500Y001000
X004500Y024000
X004500Y001000
X005500Y024000
X005500Y001000
X006500Y024000
X006500Y001000
X015000Y019500
X015000Y016500
X015000Y001000
X016000Y001000
X017000Y001000
X018000Y001000
X021500Y001000
X022500Y001000
X023500Y001000
X024500Y001000
X028000Y001000
X029000Y001000
X030000Y001000
X031000Y001000
X034500Y001000
X035500Y001000
X036500Y001000
X037500Y001000
X040000Y016000
X040000Y015000
X040000Y014000
X040000Y013000
X040000Y006500
X040000Y005500
X040000Y004500
X040000Y003500
T84
X002000Y004750
X008000Y004750
T89
X001250Y023750
X001250Y001250
X034500Y004750
X035000Y023750
X039750Y001250
M30
