0
SECTION
2
HEADER
9
$INSUNITS
70
4
9
$ACADVER
1
AC1014
9
$HANDSEED
5
FFFF
0
ENDSEC
0
SECTION
2
TABLES
0
TABLE
2
VPORT
5
8
100
AcDbSymbolTable
0
ENDTAB
0
TABLE
2
LTYPE
5
5
100
AcDbSymbolTable
0
LTYPE
5
14
100
AcDbSymbolTableRecord
100
AcDbLinetypeTableRecord
2
BYBLOCK
70
0
0
LTYPE
5
15
100
AcDbSymbolTableRecord
100
AcDbLinetypeTableRecord
2
BYLAYER
70
0
0
ENDTAB
0
TABLE
2
LAYER
5
2
100
AcDbSymbolTable
70
2
0
LAYER
5
50
100
AcDbSymbolTableRecord
100
AcDbLayerTableRecord
2
0
70
0
6
CONTINUOUS
0
ENDTAB
0
TABLE
2
STYLE
5
3
100
AcDbSymbolTable
70
1
0
STYLE
5
11
100
AcDbSymbolTableRecord
100
AcDbTextStyleTableRecord
2
STANDARD
70
0
0
ENDTAB
0
TABLE
2
VIEW
5
6
100
AcDbSymbolTable
70
0
0
ENDTAB
0
TABLE
2
UCS
5
7
100
AcDbSymbolTable
70
0
0
ENDTAB
0
TABLE
2
APPID
5
9
100
AcDbSymbolTable
70
2
0
APPID
5
12
100
AcDbSymbolTableRecord
100
AcDbRegAppTableRecord
2
ACAD
70
0
0
ENDTAB
0
TABLE
2
DIMSTYLE
5
A
100
AcDbSymbolTable
70
1
0
ENDTAB
0
TABLE
2
BLOCK_RECORD
5
1
100
AcDbSymbolTable
70
1
0
BLOCK_RECORD
5
1F
100
AcDbSymbolTableRecord
100
AcDbBlockTableRecord
2
*MODEL_SPACE
0
BLOCK_RECORD
5
1B
100
AcDbSymbolTableRecord
100
AcDbBlockTableRecord
2
*PAPER_SPACE
0
ENDTAB
0
ENDSEC
0
SECTION
2
BLOCKS
0
BLOCK
5
20
100
AcDbEntity
100
AcDbBlockBegin
2
*MODEL_SPACE
0
ENDBLK
5
21
100
AcDbEntity
100
AcDbBlockEnd
0
BLOCK
5
1C
100
AcDbEntity
100
AcDbBlockBegin
2
*PAPER_SPACE
0
ENDBLK
5
1D
100
AcDbEntity
100
AcDbBlockEnd
0
ENDSEC
0
SECTION
2
ENTITIES
0
LWPOLYLINE
5
100
100
AcDbEntity
8
0
100
AcDbPolyline
90
30
70
1
43
0.0
10
292.39999999999719
20
8.5000000000000568
10
292.39999999999719
20
4.9999999999999654
42
-0.41421356237309248
10
287.39999999999719
20
-4.4408920985006262e-14
10
8.6127321209942403e-16
20
0
42
-0.41421356237309209
10
-4.9999999999999636
20
4.9999999999999831
10
-5.0000000000000364
20
8.500000000000032
10
-1.2500000000000713
20
8.5000000000000533
10
-1.2500000000000711
20
10.000000000000039
10
-12.298672286269387
20
10.000000000000153
42
-0.41421356237309792
10
-17.298672286269401
20
15.000000000000178
10
-17.298672286269404
20
154.99999999999974
42
-0.41421356237309215
10
-12.298672286269383
20
159.99999999999974
10
132.7469519165675
20
160.00000000000003
42
-0.39391047561493914
10
135.73964406734694
20
157.20926942123242
10
136.19269215079217
20
150.73037998163986
42
-0.0174550649282838
10
136.20000000001272
20
150.52111056040746
10
136.20000000001292
20
99.999999999999872
42
0.41421356237309159
10
139.20000000001292
20
96.999999999999901
10
148.20000000001215
20
96.999999999999901
42
0.41421356237310025
10
151.20000000001215
20
99.999999999999929
10
151.2000000000121
20
150.52111056040775
42
-0.017455064928284688
10
151.20730784923262
20
150.73037998164014
10
151.66035593267779
20
157.20926942123242
42
-0.39391047561493592
10
154.65304808345724
20
160.00000000000003
10
299.69867228626691
20
159.99999999999989
42
-0.41421356237308982
10
304.69867228626686
20
154.99999999999986
10
304.69867228626663
20
15.000000000000213
42
-0.4142135623730927
10
299.69867228626663
20
10.000000000000195
10
288.64999999999725
20
10.000000000000057
10
288.64999999999725
20
8.5000000000000711
0
CIRCLE
5
101
100
AcDbEntity
8
0
100
AcDbCircle
10
-222.70000000001247
20
62.00000223904582
30
0
40
1.2000000000000099
210
0
220
0
230
-1
0
CIRCLE
5
102
100
AcDbEntity
8
0
100
AcDbCircle
10
-64.700000000013191
20
62.000005135101581
30
0
40
1.2000000000000099
210
0
220
0
230
-1
0
CIRCLE
5
103
100
AcDbEntity
8
0
100
AcDbCircle
10
-157.70000000001303
20
121.19512442915354
30
0
40
2.4999691695033728
210
0
220
0
230
-1
0
CIRCLE
5
104
100
AcDbEntity
8
0
100
AcDbCircle
10
-129.70000000001176
20
121.70617493012628
30
0
40
2.4999691695033728
210
0
220
0
230
-1
0
CIRCLE
5
105
100
AcDbEntity
8
0
100
AcDbCircle
10
-143.7000009157164
20
91.000000000000156
30
0
40
1.2000000000000099
210
0
220
0
230
-1
0
LWPOLYLINE
5
106
100
AcDbEntity
8
0
100
AcDbPolyline
90
4
70
1
43
0.0
10
193.70000000001252
20
87.000000000000895
42
-0.99999999999999989
10
193.70000000001244
20
36.999999999999758
10
93.700000000012409
20
37.000000000000327
42
-0.99999999999999989
10
93.700000000012622
20
87.000000000000043
0
CIRCLE
5
107
100
AcDbEntity
8
0
100
AcDbCircle
10
-143.69999806920586
20
33.000000000000028
30
0
40
1.2000000000000099
210
0
220
0
230
-1
0
LWPOLYLINE
5
108
100
AcDbEntity
8
0
100
AcDbPolyline
90
44
70
1
43
0.0
10
665.00197798625834
20
90.663729151458796
10
661.70330569998907
20
89.89625460522231
10
657.43023966705039
20
88.968481023473473
42
0.35289142514796445
10
652.70330569998907
20
83.105094384697352
10
652.70330569998919
20
24.746019600191627
42
0.41421356237310197
10
658.7033056999893
20
18.74601960019163
10
665.00197798625845
20
18.746019600191666
10
665.00197798625845
20
16.876771971306113
10
662.00197798625891
20
16.876771971306077
10
662.00197798625913
20
14.307698569399747
42
0.4142135623730942
10
668.00197798625902
20
8.3076985693997507
10
946.40197798625445
20
8.3076985694009942
42
0.41421356237309681
10
952.40197798625445
20
14.307698569400973
10
952.40197798625445
20
16.876771971306557
10
949.40197798625422
20
16.876771971306592
10
949.40197798625422
20
18.746019600192181
10
955.70065027252303
20
18.746019600191755
42
0.41421356237308898
10
961.70065027252281
20
24.746019600191715
10
961.70065027252281
20
83.105094384697821
42
0.35289142514797139
10
956.97371630546149
20
88.968481023473885
10
952.70065027252349
20
89.896254605222481
10
949.401977986254
20
90.663729151459165
10
949.401977986254
20
91.561701051609973
10
952.70065027252349
20
92.329175597845307
10
956.97371630546183
20
93.256949179595352
42
0.3528914251479574
10
961.70065027252292
20
99.120335818371288
10
961.70065027252326
20
130.91033720097141
42
0.41421356237310542
10
955.70065027252315
20
136.91033720097147
10
948.65197798625422
20
136.91033720097147
10
948.65197798625422
20
138.41033720097147
10
952.40197798625445
20
138.41033720097147
10
952.40197798625445
20
145.91033720097147
42
0.4142135623730942
10
946.40197798625434
20
151.91033720097147
10
668.00197798625868
20
151.91033720097116
42
0.4142135623730942
10
662.00197798625868
20
145.91033720097107
10
662.00197798625868
20
138.41033720097107
10
665.75197798625834
20
138.41033720097107
10
665.75197798625834
20
136.9103372009711
10
658.70330569998885
20
136.91033720097067
42
0.4142135623730942
10
652.70330569998873
20
130.91033720097062
10
652.70330569998907
20
99.120335818371004
42
0.35289142514796462
10
657.43023966705027
20
93.256949179594983
10
661.70330569998907
20
92.329175597845108
10
665.00197798625834
20
91.561701051610029
0
LWPOLYLINE
5
109
100
AcDbEntity
8
0
100
AcDbPolyline
90
8
70
1
43
0.0
10
829.00197798625811
20
30.746019600191925
10
829.00197798625811
20
78.746019600191858
42
-0.4142135623730937
10
833.00197798625823
20
82.746019600191829
10
929.001977986258
20
82.746019600191843
42
-0.41421356237308138
10
933.00197798625788
20
78.746019600191829
10
933.00197798625788
20
30.746019600191925
42
-0.4142135623730846
10
929.001977986258
20
26.746019600191921
10
833.00197798625823
20
26.74601960019185
42
-0.41421356237309631
0
CIRCLE
5
110
100
AcDbEntity
8
0
100
AcDbCircle
10
-956.70065027252303
20
120.32917559784522
30
0
40
1.6000000000000014
210
0
220
0
230
-1
0
CIRCLE
5
111
100
AcDbEntity
8
0
100
AcDbCircle
10
-827.00197798625811
20
24.746019600191964
30
0
40
2.0000000000000018
210
0
220
0
230
-1
0
CIRCLE
5
112
100
AcDbEntity
8
0
100
AcDbCircle
10
-956.70065027252258
20
80.746019600191545
30
0
40
1.599999999999997
210
0
220
0
230
-1
0
LWPOLYLINE
5
113
100
AcDbEntity
8
0
100
AcDbPolyline
90
4
70
1
43
0.0
10
808.78776442388153
20
144.86033720097134
10
806.78776442388153
20
144.86033720097134
42
-0.99999999999999989
10
806.78776442388153
20
148.96033720097131
10
808.78776442388153
20
148.96033720097131
42
-0.99999999999999989
0
LWPOLYLINE
5
114
100
AcDbEntity
8
0
100
AcDbPolyline
90
4
70
1
43
0.0
10
933.78776442388153
20
148.96033720097134
42
-0.99999999999999989
10
933.78776442388153
20
144.86033720097137
10
931.78776442388153
20
144.86033720097134
42
-0.99999999999999989
10
931.78776442388153
20
148.96033720097137
0
CIRCLE
5
115
100
AcDbEntity
8
0
100
AcDbCircle
10
-827.00197798625811
20
84.746019600191801
30
0
40
2.0000000000000018
210
0
220
0
230
-1
0
CIRCLE
5
116
100
AcDbEntity
8
0
100
AcDbCircle
10
-773.87863222888632
20
61.702755496270228
30
0
40
1.9999999999999929
210
0
220
0
230
-1
0
CIRCLE
5
117
100
AcDbEntity
8
0
100
AcDbCircle
10
-935.00197798625788
20
84.746019600191786
30
0
40
1.9999999999999929
210
0
220
0
230
-1
0
LWPOLYLINE
5
118
100
AcDbEntity
8
0
100
AcDbPolyline
90
4
70
1
43
0.0
10
681.78776442388153
20
144.86033720097129
42
-0.99999999999999989
10
681.78776442388153
20
148.96033720097125
10
683.78776442388153
20
148.96033720097125
42
-0.99999999999999989
10
683.78776442388153
20
144.86033720097129
0
CIRCLE
5
119
100
AcDbEntity
8
0
100
AcDbCircle
10
-657.70330569999624
20
80.746019600192227
30
0
40
1.599999999999997
210
0
220
0
230
-1
0
CIRCLE
5
120
100
AcDbEntity
8
0
100
AcDbCircle
10
-657.70330569999589
20
120.32917559784309
30
0
40
1.6000000000000014
210
0
220
0
230
-1
0
CIRCLE
5
121
100
AcDbEntity
8
0
100
AcDbCircle
10
-803.87863222888632
20
61.702755496266818
30
0
40
2.0000000000000062
210
0
220
0
230
-1
0
CIRCLE
5
122
100
AcDbEntity
8
0
100
AcDbCircle
10
-956.70065027252292
20
30.746019600191676
30
0
40
1.5999999999999952
210
0
220
0
230
-1
0
CIRCLE
5
123
100
AcDbEntity
8
0
100
AcDbCircle
10
-935.00197798625788
20
24.746019600191929
30
0
40
1.9999999999999929
210
0
220
0
230
-1
0
CIRCLE
5
124
100
AcDbEntity
8
0
100
AcDbCircle
10
-657.70330569999624
20
30.746019600192334
30
0
40
1.6000000000000025
210
0
220
0
230
-1
0
LWPOLYLINE
5
125
100
AcDbEntity
8
0
100
AcDbPolyline
90
30
70
1
43
0.0
10
51.960702856356704
20
293.35909101965143
10
74.694439126883651
20
268.11071900877749
10
85.328189333026501
20
241.79126367104283
42
0.99999999999999989
10
140.95922060703373
20
264.26765927599723
10
120.32539900469105
20
315.33815985969272
42
-0.44971363683405158
10
128.31673534130178
20
331.41672826292222
10
164.1433681371042
20
341.11275075575924
42
-0.066172763348332164
10
167.27823805529482
20
341.52946147352066
10
785.60651645730502
20
341.52946147352066
42
-0.066172763348332053
10
788.74138637549561
20
341.11275075575918
10
824.56801917129792
20
331.41672826292216
42
-0.4497136368340493
10
832.55935550790866
20
315.33815985969272
10
811.925533905566
20
264.26765927599706
42
0.99999999999999989
10
867.55656517957323
20
241.79126367104277
10
878.19031538571483
20
268.11071900877744
10
900.92405165624155
20
293.3590910196512
42
-0.21255656167002523
10
912.07122403840253
20
298.32213192426849
10
935.40305160789615
20
298.32213192426855
42
-0.29410761505735367
10
940.86525047267173
20
294.80494959007564
10
968.28233314213571
20
234.48736771725467
42
-0.10706315386361948
10
969.6268359801968
20
228.28032355273683
10
969.6268359801968
20
177.52946147352063
42
-0.41421356237309503
10
963.6268359801968
20
171.52946147352068
10
-10.856295029969637
20
171.52946147352068
42
-0.41421356237309614
10
-16.856295029969665
20
177.52946147352071
10
-16.856295029969619
20
228.57057670231404
42
-0.10706315386361789
10
-15.735875998252189
20
233.74311350607883
10
12.01950403992824
20
294.80494959007586
42
-0.29410761505734723
10
17.481702904703788
20
298.32213192426872
10
40.81353047419563
20
298.32213192426866
42
-0.21255656167002523
0
LWPOLYLINE
5
126
100
AcDbEntity
8
0
100
AcDbPolyline
90
4
70
1
43
0.0
10
848.15526310494283
20
178.52946147352048
42
-0.99999999999999989
10
848.15526310494249
20
174.52946147352043
10
846.15526310494249
20
174.52946147352051
42
-0.99999999999999989
10
846.15526310494249
20
178.52946147352048
0
ARC
5
127
100
AcDbEntity
8
0
100
AcDbCircle
10
-13.152683604655948
20
285.59527063420637
30
0
40
2.0000000000001501
210
0
220
0
230
-1
100
AcDbArc
50
31.443954780416256
51
211.44395357299635
0
LWPOLYLINE
5
128
100
AcDbEntity
8
0
100
AcDbPolyline
90
4
70
1
43
0.0
10
948.15526310494295
20
174.5294614735204
10
946.15526310494306
20
174.52946147352043
42
-0.99999999999999989
10
946.15526310494306
20
178.52946147352043
10
948.15526310494295
20
178.5294614735204
42
-0.99999999999999989
0
LWPOLYLINE
5
129
100
AcDbEntity
8
0
100
AcDbPolyline
90
4
70
1
43
0.0
10
640.74104954256904
20
323.52946147352071
10
653.74104954256904
20
323.52946147352071
10
653.74104954256904
20
303.52946147352071
10
640.74104954256904
20
303.52946147352071
0
ARC
5
130
100
AcDbEntity
8
0
100
AcDbCircle
10
-12.109355035115215
20
283.88896893287108
30
0
40
2.0000000000000147
210
0
220
0
230
-1
100
AcDbArc
50
-148.5560464270005
51
31.443954780416984
0
LWPOLYLINE
5
131
100
AcDbEntity
8
0
100
AcDbPolyline
90
4
70
1
43
0.0
10
646.15526310494215
20
174.52946147352063
42
-0.99999999999999989
10
646.15526310494215
20
178.5294614735206
10
648.15526310494249
20
178.52946147352066
42
-0.99999999999999989
10
648.15526310494215
20
174.52946147352063
0
CIRCLE
5
132
100
AcDbEntity
8
0
100
AcDbCircle
10
-772.74104954256904
20
334.02946147352054
30
0
40
1.2000000000000457
210
0
220
0
230
-1
0
LWPOLYLINE
5
133
100
AcDbEntity
8
0
100
AcDbPolyline
90
4
70
1
43
0.0
10
4.7294914076545824
20
178.5294614735206
10
6.7294914076546775
20
178.52946147352057
42
-0.99999999999999989
10
6.7294914076546775
20
174.52946147352051
10
4.7294914076544314
20
174.52946147352063
42
-0.99999999999999989
0
LWPOLYLINE
5
134
100
AcDbEntity
8
0
100
AcDbPolyline
90
4
70
1
43
0.0
10
204.7294914076549
20
178.52946147352066
10
206.72949140765496
20
178.52946147352066
42
-0.99999999999999989
10
206.72949140765496
20
174.5294614735206
10
204.72949140765496
20
174.52946147352063
42
-0.99999999999999989
0
LWPOLYLINE
5
135
100
AcDbEntity
8
0
100
AcDbPolyline
90
4
70
1
43
0.0
10
-13.856295029972898
20
204.11062307664673
42
-0.99999999999999989
10
-9.8562950299725571
20
204.11062307664645
10
-9.8562950299727348
20
202.11062307664662
42
-0.99999999999999989
10
-13.856295029972721
20
202.11062307664662
0
CIRCLE
5
136
100
AcDbEntity
8
0
100
AcDbCircle
10
-311.72949140765536
20
194.52946147352068
30
0
40
10
210
0
220
0
230
-1
0
LWPOLYLINE
5
137
100
AcDbEntity
8
0
100
AcDbPolyline
90
4
70
1
43
0.0
10
942.48170117881739
20
284.93229750241193
42
-0.99999999999999989
10
939.06909777614669
20
282.84564036333018
10
938.02576918461966
20
284.55194210062336
42
-0.99999998946328783
10
941.43837260927683
20
286.63859920374711
0
LWPOLYLINE
5
138
100
AcDbEntity
8
0
100
AcDbPolyline
90
4
70
1
43
0.0
10
306.72949140765513
20
174.52946147352068
10
304.72949140765513
20
174.52946147352066
42
-0.99999999999999989
10
304.7294914076553
20
178.52946147352071
10
306.72949140765513
20
178.52946147352068
42
-0.99999999999999989
0
LWPOLYLINE
5
139
100
AcDbEntity
8
0
100
AcDbPolyline
90
4
70
1
43
0.0
10
748.15526310494215
20
174.52946147352054
10
746.15526310494249
20
174.5294614735206
42
-0.99999999999999989
10
746.15526310494249
20
178.52946147352057
10
748.15526310494249
20
178.52946147352057
42
-0.99999999999999989
0
CIRCLE
5
140
100
AcDbEntity
8
0
100
AcDbCircle
10
-250.1437049700308
20
334.02946147352066
30
0
40
1.2000000000000099
210
0
220
0
230
-1
0
CIRCLE
5
141
100
AcDbEntity
8
0
100
AcDbCircle
10
-320.14370497003091
20
334.02946147352066
30
0
40
1.1999999999999744
210
0
220
0
230
-1
0
CIRCLE
5
142
100
AcDbEntity
8
0
100
AcDbCircle
10
-356.74237725629962
20
335.02946147352066
30
0
40
1.2000000000000457
210
0
220
0
230
-1
0
LINE
5
143
100
AcDbEntity
8
0
100
AcDbLine
10
-9.2647508152680302
20
241.1550319608827
30
0
11
-10.329088191268379
21
239.46175527054251
31
0
0
CIRCLE
5
144
100
AcDbEntity
8
0
100
AcDbCircle
10
-632.74104954256916
20
334.02946147352054
30
0
40
1.2000000000000457
210
0
220
0
230
-1
0
CIRCLE
5
145
100
AcDbEntity
8
0
100
AcDbCircle
10
-641.1552631049417
20
194.5294614735206
30
0
40
10
210
0
220
0
230
-1
0
CIRCLE
5
146
100
AcDbEntity
8
0
100
AcDbCircle
10
-702.74104954256916
20
334.02946147352054
30
0
40
1.2000000000000457
210
0
220
0
230
-1
0
CIRCLE
5
147
100
AcDbEntity
8
0
100
AcDbCircle
10
-596.74237725629598
20
335.02946147352071
30
0
40
1.1999999999999744
210
0
220
0
230
-1
0
LINE
5
148
100
AcDbEntity
8
0
100
AcDbLine
10
959.82728932318582
20
237.33308051854215
30
0
11
958.76295194718546
21
239.0263572088823
31
0
0
ARC
5
149
100
AcDbEntity
8
0
100
AcDbCircle
10
-960.45622863752544
20
240.09069458488241
30
0
40
1.9999999999998082
210
-0
220
0
230
-1
100
AcDbArc
50
-32.152101780419393
51
147.847898219581
0
CIRCLE
5
150
100
AcDbEntity
8
0
100
AcDbCircle
10
-180.14370497003091
20
334.02946147352066
30
0
40
1.2000000000000099
210
0
220
0
230
-1
0
LWPOLYLINE
5
151
100
AcDbEntity
8
0
100
AcDbPolyline
90
4
70
1
43
0.0
10
962.74104954257029
20
204.11062307664645
42
-0.99999999999999989
10
966.74104954257007
20
204.1106230766465
10
966.74104954257018
20
202.11062307664633
42
-0.99999999999999989
10
962.74104954257018
20
202.11062307664648
0
CIRCLE
5
152
100
AcDbEntity
8
0
100
AcDbCircle
10
-476.74237725629962
20
335.02946147352071
30
0
40
1.1999999999999744
210
0
220
0
230
-1
0
LINE
5
153
100
AcDbEntity
8
0
100
AcDbLine
10
10.403053333779866
20
284.93229750241193
30
0
11
11.446381903320457
21
286.63859920374728
31
0
0
LINE
5
154
100
AcDbEntity
8
0
100
AcDbLine
10
962.14950532786531
20
241.15503196088244
30
0
11
963.21384270386591
21
239.4617552705424
31
0
0
LWPOLYLINE
5
155
100
AcDbEntity
8
0
100
AcDbPolyline
90
4
70
1
43
0.0
10
104.729491407655
20
178.5294614735206
10
106.72949140765493
20
178.5294614735206
42
-0.99999999999999989
10
106.72949140765499
20
174.52946147352063
10
104.72949140765486
20
174.52946147352063
42
-0.99999999999999989
0
LINE
5
156
100
AcDbEntity
8
0
100
AcDbLine
10
-6.9425348105881586
20
237.33308051854237
30
0
11
-5.8781974345882304
21
239.02635720888242
31
0
0
ARC
5
157
100
AcDbEntity
8
0
100
AcDbCircle
10
-8.6358115009282734
20
238.39741789454246
30
0
40
1.999999999999962
210
0
220
0
230
1
100
AcDbArc
50
147.84789821958387
51
327.84789821958333
0
ARC
5
158
100
AcDbEntity
8
0
100
AcDbCircle
10
-961.52056601352558
20
238.39741789454229
30
0
40
2.0000000000000488
210
0
220
0
230
-1
100
AcDbArc
50
147.84789821958583
51
327.84789821957651
0
ARC
5
159
100
AcDbEntity
8
0
100
AcDbCircle
10
-7.5714741249281303
20
240.09069458488256
30
0
40
1.9999999999998268
210
-0
220
0
230
1
100
AcDbArc
50
-32.152101780421326
51
147.84789821957864
0
LINE
5
160
100
AcDbEntity
8
0
100
AcDbLine
10
14.858985327977974
20
284.55194210062314
30
0
11
13.815656758437029
21
282.84564039928784
31
0
0
LINE
5
161
100
AcDbEntity
8
0
100
AcDbLine
10
332.81894096629486
20
149.4064935438052
30
0
11
332.81894096629514
21
152.70516583007424
31
0
0
LINE
5
162
100
AcDbEntity
8
0
100
AcDbLine
10
624.65828079451524
20
152.70516583007253
30
0
11
624.21894096629524
21
152.70516583007253
31
0
0
ARC
5
163
100
AcDbEntity
8
0
100
AcDbCircle
10
-337.3796011380748
20
159.70516583007426
30
0
40
5
210
0
220
0
230
-1
100
AcDbArc
50
0
51
90
0
ARC
5
164
100
AcDbEntity
8
0
100
AcDbCircle
10
-619.65828079451524
20
159.7051658300725
30
0
40
5
210
0
220
0
230
-1
100
AcDbArc
50
90
51
180
0
LINE
5
165
100
AcDbEntity
8
0
100
AcDbLine
10
638.05314715849579
20
-6.0579725502643944
30
0
11
630.98207934663026
21
-13.129040362130047
31
0
0
LINE
5
166
100
AcDbEntity
8
0
100
AcDbLine
10
329.52026868002565
20
149.40649354380508
30
0
11
332.81894096629486
21
149.4064935438052
31
0
0
SPLINE
5
167
100
AcDbEntity
8
0
100
AcDbSpline
70
0
71
3
72
8
73
4
74
0
42
0.000000001
43
0.0000000001
44
0.0000000001
40
0.4675614059960192
40
0.4675614059960192
40
0.4675614059960192
40
0.4675614059960192
40
0.47464774600200199
40
0.47464774600200199
40
0.47464774600200199
40
0.47464774600200199
10
627.51761325256302
20
-14.593001367297514
30
0
10
627.50108012952387
20
-14.593337107749754
30
0
10
627.48449452035925
20
-14.593506456197321
30
0
10
627.46786113018823
20
-14.593506456197321
30
0
0
ARC
5
168
100
AcDbEntity
8
0
100
AcDbCircle
10
-329.59133649189113
20
-9.5935064561948877
30
0
40
4.9999999999999964
210
-0
220
0
230
-1
100
AcDbArc
50
270.81440455912252
51
315.00000000000028
0
LINE
5
169
100
AcDbEntity
8
0
100
AcDbLine
10
337.3796011380748
20
164.70516583007426
30
0
11
619.65828079451524
21
164.7051658300725
31
0
0
LINE
5
170
100
AcDbEntity
8
0
100
AcDbLine
10
627.51761325256427
20
149.40649354380287
30
0
11
627.51761325256427
21
149.84583337202287
31
0
0
LINE
5
171
100
AcDbEntity
8
0
100
AcDbLine
10
639.51761325256416
20
144.84583337202298
30
0
11
639.51761325256302
21
-2.5224386443317215
31
0
0
ARC
5
172
100
AcDbEntity
8
0
100
AcDbCircle
10
-634.51761325256302
20
-2.5224386443316793
30
0
40
5
210
0
220
0
230
-1
100
AcDbArc
50
180
51
224.99999999999957
0
ARC
5
173
100
AcDbEntity
8
0
100
AcDbCircle
10
-634.51761325256416
20
144.84583337202301
30
0
40
5
210
0
220
0
230
-1
100
AcDbArc
50
90.000000000001307
51
180
0
LINE
5
174
100
AcDbEntity
8
0
100
AcDbLine
10
624.21894096629524
20
152.70516583007253
30
0
11
624.21894096629501
21
149.40649354380295
31
0
0
LINE
5
175
100
AcDbEntity
8
0
100
AcDbLine
10
624.65828079451524
20
159.7051658300725
30
0
11
624.65828079451524
21
152.70516583007253
31
0
0
LINE
5
176
100
AcDbEntity
8
0
100
AcDbLine
10
627.51761325256427
20
149.84583337202287
30
0
11
634.51761325256427
21
149.84583337202301
31
0
0
ARC
5
177
100
AcDbEntity
8
0
100
AcDbCircle
10
-627.44654544069761
20
-9.5935064561973213
30
0
40
5.0000000000000124
210
0
220
0
230
-1
100
AcDbArc
50
225.00000000000057
51
269.18559544087816
0
LINE
5
178
100
AcDbEntity
8
0
100
AcDbLine
10
332.37960113807492
20
152.70516583007424
30
0
11
332.3796011380748
21
159.70516583007426
31
0
0
LINE
5
179
100
AcDbEntity
8
0
100
AcDbLine
10
329.52026868002565
20
149.8458333720254
30
0
11
329.52026868002565
21
149.40649354380508
31
0
0
LINE
5
180
100
AcDbEntity
8
0
100
AcDbLine
10
627.46786113018823
20
-14.593506456197321
30
0
11
329.57002080240039
21
-14.593506456194874
31
0
0
LINE
5
181
100
AcDbEntity
8
0
100
AcDbLine
10
332.81894096629514
20
152.70516583007424
30
0
11
332.37960113807492
21
152.70516583007424
31
0
0
SPLINE
5
182
100
AcDbEntity
8
0
100
AcDbSpline
70
0
71
3
72
8
73
4
74
0
42
0.000000001
43
0.0000000001
44
0.0000000001
40
0.45810397457348362
40
0.45810397457348362
40
0.45810397457348362
40
0.45810397457348362
40
0.46519023708671697
40
0.46519023708671697
40
0.46519023708671697
40
0.46519023708671697
10
329.57002080240039
20
-14.593506456194874
30
0
10
329.55338723776066
20
-14.593506456194875
30
0
10
329.53680162226669
20
-14.593337104075816
30
0
10
329.52026868002565
20
-14.593001367295068
30
0
0
LINE
5
183
100
AcDbEntity
8
0
100
AcDbLine
10
322.52026868002554
20
149.84583337202525
30
0
11
329.52026868002565
21
149.8458333720254
31
0
0
LINE
5
184
100
AcDbEntity
8
0
100
AcDbLine
10
317.52026868002565
20
-2.5224386443294078
30
0
11
317.52026868002554
21
144.84583337202525
31
0
0
LINE
5
185
100
AcDbEntity
8
0
100
AcDbLine
10
326.05580258595836
20
-13.12904036212762
30
0
11
318.98473477409289
21
-6.0579725502621322
31
0
0
LINE
5
186
100
AcDbEntity
8
0
100
AcDbLine
10
624.21894096629501
20
149.40649354380295
30
0
11
627.51761325256427
21
149.40649354380287
31
0
0
ARC
5
187
100
AcDbEntity
8
0
100
AcDbCircle
10
-322.52026868002559
20
144.84583337202525
30
0
40
5
210
0
220
0
230
-1
100
AcDbArc
50
0
51
89.999999999999346
0
ARC
5
188
100
AcDbEntity
8
0
100
AcDbCircle
10
-322.52026868002565
20
-2.5224386443294078
30
0
40
5.00000000000004
210
-0
220
0
230
-1
100
AcDbArc
50
-44.999999999999652
51
0
0
LWPOLYLINE
5
189
100
AcDbEntity
8
0
100
AcDbPolyline
90
4
70
1
43
0.0
10
357.51894096629576
20
160.20516583005423
10
359.51894096629576
20
160.2051658300542
42
-0.99999999999999989
10
359.51894096629576
20
157.20516583005423
10
357.51894096629565
20
157.2051658300542
42
-0.99999999999999989
0
LWPOLYLINE
5
190
100
AcDbEntity
8
0
100
AcDbPolyline
90
4
70
1
43
0.0
10
636.01761324887764
20
139.7064935438047
42
0.99999999999999989
10
633.01761324888798
20
139.7064935438047
10
633.01761324888753
20
137.70649354380473
42
0.99999999999999989
10
636.01761324887798
20
137.7064935438047
0
ARC
5
191
100
AcDbEntity
8
0
100
AcDbCircle
10
-483.51894096629792
20
10.406493543807445
30
0
40
5.9999999999998233
210
0
220
0
230
-1
100
AcDbArc
50
189.55187248752486
51
240.00000000000011
0
LWPOLYLINE
5
192
100
AcDbEntity
8
0
100
AcDbPolyline
90
4
70
1
43
0.0
10
321.02026868002793
20
67.706493543806999
10
321.02026868002804
20
69.706493543807056
42
-0.99999999999999989
10
324.02026868002798
20
69.706493543807028
10
324.02026868002798
20
67.706493543806957
42
-0.99999999999999989
0
LWPOLYLINE
5
193
100
AcDbEntity
8
0
100
AcDbPolyline
90
4
70
1
43
0.0
10
477.5189409662957
20
157.2051658285846
42
-0.99999999999999989
10
477.5189409662957
20
160.20516582858454
10
479.51894096629565
20
160.20516582858451
42
-0.99999999999999989
10
479.51894096629565
20
157.20516582858454
0
LWPOLYLINE
5
194
100
AcDbEntity
8
0
100
AcDbPolyline
90
4
70
1
43
0.0
10
324.02026868370308
20
139.706493543807
10
324.02026868370314
20
137.70649354380697
42
-0.99999999999999989
10
321.02026868371308
20
137.706493543807
10
321.02026868371303
20
139.706493543807
42
-0.99999999999999989
0
ARC
5
195
100
AcDbEntity
8
0
100
AcDbCircle
10
487.01894096629786
20
4.3443157173165403
30
0
40
1.0000000000000338
210
0
220
0
230
1
100
AcDbArc
50
120.00000000000267
51
180
0
LWPOLYLINE
5
196
100
AcDbEntity
8
0
100
AcDbPolyline
90
4
70
1
43
0.0
10
636.01761325256257
20
67.706493543804683
42
-0.99999999999999989
10
633.01761325256246
20
67.706493543804655
10
633.01761325256268
20
69.706493543804697
42
-0.99999999999999989
10
636.01761325256257
20
69.706493543804626
0
ARC
5
197
100
AcDbEntity
8
0
100
AcDbCircle
10
470.01894096629781
20
4.3443157173162961
30
0
40
1.0000000000000142
210
0
220
0
230
1
100
AcDbArc
50
0
51
59.99999999999789
0
ARC
5
198
100
AcDbEntity
8
0
100
AcDbCircle
10
-473.51894096629758
20
10.406493543807297
30
0
40
5.9999999999997922
210
-0
220
0
230
-1
100
AcDbArc
50
299.99999999999807
51
350.44688566060444
0
LINE
5
199
100
AcDbEntity
8
0
100
AcDbLine
10
471.01894096629786
20
4.3443157173162961
30
0
11
471.01894096629798
21
-3.7268004812952471
31
0
0
LWPOLYLINE
5
200
100
AcDbEntity
8
0
100
AcDbPolyline
90
4
70
1
43
0.0
10
597.51894096629576
20
157.20516583007239
42
-0.99999999999999989
10
597.51894096629576
20
160.20516583007242
10
599.51894096629576
20
160.20516583007233
42
-0.99999999999999989
10
599.51894096629576
20
157.20516583007242
0
LWPOLYLINE
5
201
100
AcDbEntity
8
0
100
AcDbPolyline
90
4
70
1
43
0.0
10
321.02026868002793
20
-2.2935064561929974
10
321.02026868002804
20
-0.29350645619299787
42
-0.99999999999999989
10
324.02026868002798
20
-0.29350645619299787
10
324.02026868002798
20
-2.2935064561930019
42
-0.99999999999999989
0
LINE
5
202
100
AcDbEntity
8
0
100
AcDbLine
10
489.43575559957424
20
9.4108507386583717
30
0
11
489.51894096629781
21
10.820707106180731
31
0
0
LINE
5
203
100
AcDbEntity
8
0
100
AcDbLine
10
486.51894096629746
20
27.406493543807624
30
0
11
470.51894096629746
21
27.406493543807386
31
0
0
LINE
5
204
100
AcDbEntity
8
0
100
AcDbLine
10
467.51894096629775
20
10.820707106180416
30
0
11
467.60214791437539
21
9.4107224954615525
31
0
0
CIRCLE
5
205
100
AcDbEntity
8
0
100
AcDbCircle
10
-501.37188257275767
20
20.406493543807827
30
0
40
3.0000000000000071
210
0
220
0
230
-1
0
LWPOLYLINE
5
206
100
AcDbEntity
8
0
100
AcDbPolyline
90
4
70
1
43
0.0
10
636.01761325256211
20
-0.29350645619533822
10
636.01761325256189
20
-2.2935064561953489
42
-0.99999999999999989
10
633.01761325256211
20
-2.2935064561953666
10
633.01761325256211
20
-0.29350645619537374
42
-0.99999999999999989
0
ARC
5
207
100
AcDbEntity
8
0
100
AcDbCircle
10
-478.51894096629792
20
10.406493543806622
30
0
40
16.499999999999147
210
0
220
0
230
-1
100
AcDbArc
50
246.49035343099354
51
293.50964651744346
0
CIRCLE
5
208
100
AcDbEntity
8
0
100
AcDbCircle
10
-456.37188257275767
20
20.406493543807183
30
0
40
3.0000000000000027
210
0
220
0
230
-1
0
SPLINE
5
209
100
AcDbEntity
8
0
100
AcDbSpline
70
0
71
3
72
14
73
10
74
0
42
0.000000001
43
0.0000000001
44
0.0000000001
40
-0.11760181585700492
40
-0.11760181585700492
40
-0.11760181585700492
40
-0.11760181585700492
40
-0.10337269141935088
40
-0.10337269141935088
40
-0.067021520493361728
40
-0.067021520493361728
40
-0
40
-0
40
0.00058946281646671738
40
0.00058946281646671738
40
0.00058946281646671738
40
0.00058946281646671738
10
471.93703102761447
20
-4.7238961909182855
30
0
10
471.87310130091765
20
-4.696033519632743
30
0
10
471.81194880341963
20
-4.6608973329430459
30
0
10
471.60746077608326
20
-4.5201883035328194
30
0
10
471.49122576973696
20
-4.3949009485927419
30
0
10
471.2660301147688
20
-4.1241567522961464
30
0
10
471.13893074645557
20
-3.9221995419995093
30
0
10
471.0209968495746
20
-3.7301495282269448
30
0
10
471.01996883451886
20
-3.7284750632823127
30
0
10
471.01894096629798
20
-3.7268004812952471
30
0
0
ARC
5
210
100
AcDbEntity
8
0
100
AcDbCircle
10
-486.51894096629752
20
24.40649354380762
30
0
40
2.9999999999999893
210
0
220
0
230
-1
100
AcDbArc
50
89.99999999999892
51
180
0
SPLINE
5
211
100
AcDbEntity
8
0
100
AcDbSpline
70
0
71
3
72
14
73
10
74
0
42
0.000000001
43
0.0000000001
44
0.0000000001
40
-0.17447973194349026
40
-0.17447973194349026
40
-0.17447973194349026
40
-0.17447973194349026
40
-0.1736085714718581
40
-0.1736085714718581
40
-0.07417487312252595
40
-0.07417487312252595
40
-0.020672447391442628
40
-0.020672447391442628
40
-0
40
-0
40
-0
40
-0
10
486.01894096629798
20
-3.7268004812950317
30
0
10
486.01791309745067
20
-3.7284750638447539
30
0
10
486.01688508242148
20
-3.7301495282938713
30
0
10
485.89849866340808
20
-3.9229364023611613
30
0
10
485.77083178444377
20
-4.125778826091433
30
0
10
485.54512079395511
20
-4.3965302406543882
30
0
10
485.42869620823569
20
-4.521798131677512
30
0
10
485.22447561710521
20
-4.6617327170498521
30
0
10
485.16402024442891
20
-4.6963649207827434
30
0
10
485.10085091840347
20
-4.7238961845479688
30
0
0
LINE
5
212
100
AcDbEntity
8
0
100
AcDbLine
10
467.51894096629758
20
24.406493543807347
30
0
11
467.51894096629775
21
10.820707106180416
31
0
0
LINE
5
213
100
AcDbEntity
8
0
100
AcDbLine
10
489.51894096629781
20
10.820707106180731
30
0
11
489.51894096629752
21
24.40649354380762
31
0
0
ARC
5
214
100
AcDbEntity
8
0
100
AcDbCircle
10
-470.51894096629752
20
24.406493543807393
30
0
40
2.9999999999999716
210
-0
220
0
230
-1
100
AcDbArc
50
0
51
89.99999999999892
0
LINE
5
215
100
AcDbEntity
8
0
100
AcDbLine
10
486.01894096629798
20
-3.7268004812950317
30
0
11
486.01894096629786
21
4.3443157173165403
31
0
0
ENDSEC
0
SECTION
2
OBJECTS
0
DICTIONARY
5
C
100
AcDbDictionary
3
ACAD_GROUP
350
D
3
ACAD_MLINESTYLE
350
17
0
DICTIONARY
5
D
100
AcDbDictionary
0
DICTIONARY
5
1A
330
C
100
AcDbDictionary
0
DICTIONARY
5
17
100
AcDbDictionary
0
ENDSEC
0
EOF
