0
SECTION
2
HEADER
9
$INSUNITS
70
4
9
$ACADVER
1
AC1014
9
$HANDSEED
5
FFFF
0
ENDSEC
0
SECTION
2
TABLES
0
TABLE
2
VPORT
5
8
100
AcDbSymbolTable
0
ENDTAB
0
TABLE
2
LTYPE
5
5
100
AcDbSymbolTable
0
LTYPE
5
14
100
AcDbSymbolTableRecord
100
AcDbLinetypeTableRecord
2
BYBLOCK
70
0
0
LTYPE
5
15
100
AcDbSymbolTableRecord
100
AcDbLinetypeTableRecord
2
BYLAYER
70
0
0
ENDTAB
0
TABLE
2
LAYER
5
2
100
AcDbSymbolTable
70
2
0
LAYER
5
50
100
AcDbSymbolTableRecord
100
AcDbLayerTableRecord
2
0
70
0
6
CONTINUOUS
0
ENDTAB
0
TABLE
2
STYLE
5
3
100
AcDbSymbolTable
70
1
0
STYLE
5
11
100
AcDbSymbolTableRecord
100
AcDbTextStyleTableRecord
2
STANDARD
70
0
0
ENDTAB
0
TABLE
2
VIEW
5
6
100
AcDbSymbolTable
70
0
0
ENDTAB
0
TABLE
2
UCS
5
7
100
AcDbSymbolTable
70
0
0
ENDTAB
0
TABLE
2
APPID
5
9
100
AcDbSymbolTable
70
2
0
APPID
5
12
100
AcDbSymbolTableRecord
100
AcDbRegAppTableRecord
2
ACAD
70
0
0
ENDTAB
0
TABLE
2
DIMSTYLE
5
A
100
AcDbSymbolTable
70
1
0
ENDTAB
0
TABLE
2
BLOCK_RECORD
5
1
100
AcDbSymbolTable
70
1
0
BLOCK_RECORD
5
1F
100
AcDbSymbolTableRecord
100
AcDbBlockTableRecord
2
*MODEL_SPACE
0
BLOCK_RECORD
5
1B
100
AcDbSymbolTableRecord
100
AcDbBlockTableRecord
2
*PAPER_SPACE
0
ENDTAB
0
ENDSEC
0
SECTION
2
BLOCKS
0
BLOCK
5
20
100
AcDbEntity
100
AcDbBlockBegin
2
*MODEL_SPACE
0
ENDBLK
5
21
100
AcDbEntity
100
AcDbBlockEnd
0
BLOCK
5
1C
100
AcDbEntity
100
AcDbBlockBegin
2
*PAPER_SPACE
0
ENDBLK
5
1D
100
AcDbEntity
100
AcDbBlockEnd
0
ENDSEC
0
SECTION
2
ENTITIES
0
LWPOLYLINE
5
100
100
AcDbEntity
8
0
100
AcDbPolyline
90
42
70
1
43
0.0
10
-36.000000000000021
20
2.4999999999999822
10
-35.999999999999964
20
-4.0011096021746075
42
0.41421356237309465
10
-32.999999999999922
20
-7.0011096021745756
10
-3.9999999999999059
20
-7.0011096021741643
42
0.41421356237309598
10
-0.99999999999994926
20
-4.0011096021741119
10
-1.0000000000000051
20
2.4999999999999822
10
0
20
2.4999999999999822
10
0
20
0
10
79.252765316663471
20
-4.4408920985006262e-14
42
0.41421356237309503
10
92.002765316663471
20
12.749999999999968
10
92.002765316663471
20
64.292893218813418
10
24.002765316663481
20
64.29289321881339
10
24.002765316663481
20
64
10
21.999999999999943
20
63.999999999999993
10
21.999999999999972
20
66.002765316663542
10
22.292893218813358
20
66.002765316663499
10
22.292893218813425
20
134.0027653166635
10
-29.542893218813475
20
134.0027653166635
42
0.41421356237309481
10
-42.292893218813475
20
121.25276531666347
10
-42.292893218813532
20
66.002765316663528
10
-42.000000000000021
20
66.002765316663528
10
-42.000000000000021
20
63.999999999999993
10
-44.002765316663535
20
63.999999999999979
10
-44.002765316663535
20
64.292893218813447
42
0.41421356237309764
10
-50.002765316663584
20
58.292893218813468
10
-50.002765316663577
20
47.292893218813497
42
-0.41421356237309503
10
-56.002765316663584
20
41.292893218813511
10
-64.00276531666357
20
41.292893218813511
42
-0.4142135623730942
10
-70.00276531666357
20
47.292893218813497
10
-70.00276531666357
20
58.292893218813468
42
0.41421356237309465
10
-76.002765316663556
20
64.292893218813461
10
-92.14149792267996
20
64.292893218813447
42
0.4142135623730952
10
-104.89149792267996
20
51.542893218813433
10
-104.89149792267996
20
31.000000000000014
42
0.41421356237309287
10
-101.89149792267997
20
28.000000000000011
10
-41.50000000000005
20
28.000000000000025
10
-41.50000000000005
20
27.000000000000011
10
-44.00000000000005
20
27.000000000000011
10
-44.000000000000057
20
5.9999999999999964
42
0.41421356237309503
10
-38.00000000000005
20
-4.4408920985006262e-15
10
-37.000000000000014
20
1.7763568394002505e-14
10
-37.000000000000014
20
2.4999999999999822
0
CIRCLE
5
101
100
AcDbEntity
8
0
100
AcDbCircle
10
5.4999999999999627
20
-3.0011096021741857
30
0
40
1.5500000000000005
210
0
220
0
230
-1
0
CIRCLE
5
102
100
AcDbEntity
8
0
100
AcDbCircle
10
31.499999999999968
20
-3.0011096021745409
30
0
40
1.5500000000000025
210
0
220
0
230
-1
0
LWPOLYLINE
5
103
100
AcDbEntity
8
0
100
AcDbPolyline
90
8
70
1
43
0.0
10
97.799256033305483
20
6.5965474484672626
10
97.799256033305511
20
211.60207808179422
42
-0.41421356237309398
10
107.79925603330547
20
221.60207808179422
10
337.79925603330537
20
221.60207808179419
42
-0.41421356237309398
10
347.79925603330537
20
211.60207808179422
10
347.79925603330548
20
6.5965474484672271
42
-0.41421356237309309
10
341.79925603330548
20
0.59654744846723506
10
103.79925603330548
20
0.59654744846725172
42
-0.41421356237309576
0
CIRCLE
5
104
100
AcDbEntity
8
0
100
AcDbCircle
10
-110.29925603330548
20
100.56295223906623
30
0
40
1.6000000000000014
210
0
220
0
230
-1
0
CIRCLE
5
105
100
AcDbEntity
8
0
100
AcDbCircle
10
-103.79925603330545
20
5.5965474484672395
30
0
40
2.0000000000000018
210
0
220
0
230
-1
0
CIRCLE
5
106
100
AcDbEntity
8
0
100
AcDbCircle
10
-335.29925603330554
20
171.09931276513078
30
0
40
1.6000000000000014
210
0
220
0
230
-1
0
CIRCLE
5
107
100
AcDbEntity
8
0
100
AcDbCircle
10
-103.79925603330547
20
28.596547448467252
30
0
40
2.0000000000000018
210
0
220
0
230
-1
0
CIRCLE
5
108
100
AcDbEntity
8
0
100
AcDbCircle
10
-335.29925603330554
20
46.09931276513074
30
0
40
1.6000000000000014
210
0
220
0
230
-1
0
CIRCLE
5
109
100
AcDbEntity
8
0
100
AcDbCircle
10
-110.29925603330548
20
171.09931276513078
30
0
40
1.6000000000000014
210
0
220
0
230
-1
0
CIRCLE
5
110
100
AcDbEntity
8
0
100
AcDbCircle
10
-110.29925603330548
20
46.099312765130769
30
0
40
1.6000000000000014
210
0
220
0
230
-1
0
CIRCLE
5
111
100
AcDbEntity
8
0
100
AcDbCircle
10
-341.79925603330571
20
28.59654744846706
30
0
40
2.0000000000000018
210
0
220
0
230
-1
0
CIRCLE
5
112
100
AcDbEntity
8
0
100
AcDbCircle
10
-335.29925603330554
20
98.852271536304741
30
0
40
1.6000000000000014
210
0
220
0
230
-1
0
CIRCLE
5
113
100
AcDbEntity
8
0
100
AcDbCircle
10
-341.7992560333056
20
5.5965474484670574
30
0
40
2.0000000000000018
210
0
220
0
230
-1
0
ENDSEC
0
SECTION
2
OBJECTS
0
DICTIONARY
5
C
100
AcDbDictionary
3
ACAD_GROUP
350
D
3
ACAD_MLINESTYLE
350
17
0
DICTIONARY
5
D
100
AcDbDictionary
0
DICTIONARY
5
1A
330
C
100
AcDbDictionary
0
DICTIONARY
5
17
100
AcDbDictionary
0
ENDSEC
0
EOF
