0
SECTION
2
HEADER
9
$INSUNITS
70
4
9
$ACADVER
1
AC1014
9
$HANDSEED
5
FFFF
0
ENDSEC
0
SECTION
2
TABLES
0
TABLE
2
VPORT
5
8
100
AcDbSymbolTable
0
ENDTAB
0
TABLE
2
LTYPE
5
5
100
AcDbSymbolTable
0
LTYPE
5
14
100
AcDbSymbolTableRecord
100
AcDbLinetypeTableRecord
2
BYBLOCK
70
0
0
LTYPE
5
15
100
AcDbSymbolTableRecord
100
AcDbLinetypeTableRecord
2
BYLAYER
70
0
0
ENDTAB
0
TABLE
2
LAYER
5
2
100
AcDbSymbolTable
70
2
0
LAYER
5
50
100
AcDbSymbolTableRecord
100
AcDbLayerTableRecord
2
0
70
0
6
CONTINUOUS
0
ENDTAB
0
TABLE
2
STYLE
5
3
100
AcDbSymbolTable
70
1
0
STYLE
5
11
100
AcDbSymbolTableRecord
100
AcDbTextStyleTableRecord
2
STANDARD
70
0
0
ENDTAB
0
TABLE
2
VIEW
5
6
100
AcDbSymbolTable
70
0
0
ENDTAB
0
TABLE
2
UCS
5
7
100
AcDbSymbolTable
70
0
0
ENDTAB
0
TABLE
2
APPID
5
9
100
AcDbSymbolTable
70
2
0
APPID
5
12
100
AcDbSymbolTableRecord
100
AcDbRegAppTableRecord
2
ACAD
70
0
0
ENDTAB
0
TABLE
2
DIMSTYLE
5
A
100
AcDbSymbolTable
70
1
0
ENDTAB
0
TABLE
2
BLOCK_RECORD
5
1
100
AcDbSymbolTable
70
1
0
BLOCK_RECORD
5
1F
100
AcDbSymbolTableRecord
100
AcDbBlockTableRecord
2
*MODEL_SPACE
0
BLOCK_RECORD
5
1B
100
AcDbSymbolTableRecord
100
AcDbBlockTableRecord
2
*PAPER_SPACE
0
ENDTAB
0
ENDSEC
0
SECTION
2
BLOCKS
0
BLOCK
5
20
100
AcDbEntity
100
AcDbBlockBegin
2
*MODEL_SPACE
0
ENDBLK
5
21
100
AcDbEntity
100
AcDbBlockEnd
0
BLOCK
5
1C
100
AcDbEntity
100
AcDbBlockBegin
2
*PAPER_SPACE
0
ENDBLK
5
1D
100
AcDbEntity
100
AcDbBlockEnd
0
ENDSEC
0
SECTION
2
ENTITIES
0
LWPOLYLINE
5
100
100
AcDbEntity
8
0
100
AcDbPolyline
90
52
70
1
43
0.0
10
-12.000000000000277
20
-17.500000000000064
10
-12.000000000000028
20
-11.999999999999993
42
-0.4142135623730957
10
0
20
0
10
292.17157287525436
20
1.9984014443252818e-14
42
0.4142135623730937
10
298.17157287525436
20
6.0000000000000426
10
298.17157287525453
20
14.000000000000021
10
297.58578643762723
20
14.000000000000021
10
297.58578643762735
20
18.498760679940744
10
302.08454711756804
20
18.498760679940737
10
302.08454711756804
20
17.912974242314075
10
310.08454711756815
20
17.912974242313851
42
0.41421356237309631
10
316.08454711756815
20
23.912974242313894
10
316.08454711756804
20
295.08454711756747
42
0.41421356237308815
10
310.08454711756804
20
301.08454711756747
10
302.08454711756815
20
301.08454711756747
10
302.08454711756815
20
300.49876067994057
10
297.58578643762746
20
300.49876067994057
10
297.58578643762746
20
304.99752135988126
10
298.17157287525453
20
304.99752135988126
10
298.17157287525441
20
312.99752135988138
42
0.41421356237310025
10
292.1715728752543
20
318.99752135988138
10
1.7925865043921318e-13
20
318.99752135988211
42
-0.41421356237309648
10
-11.999999999999805
20
330.99752135988206
10
-11.999999999999851
20
336.49752135988194
42
0.99999999999999989
10
-16.999999999999815
20
336.49752135988223
10
-16.999999999999783
20
328.99752135988206
42
-1.0534930060537087
10
-36.945786390573076
20
330.03739302171653
10
-36.945786390572664
20
336.49752135988189
42
0.4142135623731299
10
-39.445786390572607
20
338.99752135988206
10
-39.49999999999973
20
338.99752135988194
42
0.4142135623730841
10
-41.999999999999673
20
336.49752135988194
10
-41.999999999999531
20
304.99752135988155
10
-41.414213562372531
20
304.99752135988155
10
-41.414213562372602
20
300.4987606799408
10
-45.912974242313283
20
300.4987606799408
10
-45.912974242313283
20
301.08454711756735
10
-53.912974242313396
20
301.08454711756769
42
0.41421356237309115
10
-59.912974242313403
20
295.08454711756769
10
-59.91297424231341
20
23.912974242313858
42
0.41421356237309503
10
-53.912974242313396
20
17.912974242313844
10
-45.912974242313503
20
17.912974242313823
10
-45.912974242313503
20
18.498760679940744
10
-41.41421356237273
20
18.498760679940737
10
-41.41421356237273
20
14.000000000000021
10
-41.99999999999946
20
14.000000000000021
10
-41.999999999999957
20
-17.499999999999879
42
0.41421356237309165
10
-39.500000000000036
20
-19.999999999999925
10
-39.445786390572906
20
-19.999999999999943
42
0.41421356237312756
10
-36.94578639057287
20
-17.499999999999773
10
-36.945786390573332
20
-11.039871661834313
42
-1.0534930060537111
10
-16.999999999999925
20
-9.9999999999999911
10
-16.999999999999851
20
-17.499999999999993
42
0.99999999999999989
0
CIRCLE
5
101
100
AcDbEntity
8
0
100
AcDbCircle
10
-136.58578643762752
20
84.248760680188028
30
0
40
1.9999999999999929
210
0
220
0
230
-1
0
CIRCLE
5
102
100
AcDbEntity
8
0
100
AcDbCircle
10
-26.585786437627554
20
271.08454711756769
30
0
40
1.6000000000000014
210
0
220
0
230
-1
0
CIRCLE
5
103
100
AcDbEntity
8
0
100
AcDbCircle
10
-16.585786437627092
20
116.04876067993887
30
0
40
2.5
210
0
220
0
230
-1
0
CIRCLE
5
104
100
AcDbEntity
8
0
100
AcDbCircle
10
-16.585786437627128
20
203.04876067993888
30
0
40
2.5
210
0
220
0
230
-1
0
CIRCLE
5
105
100
AcDbEntity
8
0
100
AcDbCircle
10
7.414213562371863
20
290.49876067994029
30
0
40
2.0000000000000018
210
0
220
0
230
-1
0
CIRCLE
5
106
100
AcDbEntity
8
0
100
AcDbCircle
10
-136.58578643762741
20
233.74876068018682
30
0
40
1.9999999999999929
210
0
220
0
230
-1
0
CIRCLE
5
107
100
AcDbEntity
8
0
100
AcDbCircle
10
-219.58578643762732
20
159.49876067994074
30
0
40
6.0000000000000142
210
0
220
0
230
-1
0
CIRCLE
5
108
100
AcDbEntity
8
0
100
AcDbCircle
10
-271.58578643762758
20
271.08454711756747
30
0
40
1.6000000000000014
210
0
220
0
230
-1
0
CIRCLE
5
109
100
AcDbEntity
8
0
100
AcDbCircle
10
20.999999999999201
20
310.99752135988194
30
0
40
1.6000000000000014
210
0
220
0
230
-1
0
CIRCLE
5
110
100
AcDbEntity
8
0
100
AcDbCircle
10
-19.585786437627281
20
159.49876067994086
30
0
40
5.9999999999999964
210
0
220
0
230
-1
0
CIRCLE
5
111
100
AcDbEntity
8
0
100
AcDbCircle
10
51.912974242312799
20
283.91297424231402
30
0
40
1.6000000000000014
210
0
220
0
230
-1
0
CIRCLE
5
112
100
AcDbEntity
8
0
100
AcDbCircle
10
-206.58578643762721
20
233.74876068018659
30
0
40
1.9999999999999929
210
0
220
0
230
-1
0
CIRCLE
5
113
100
AcDbEntity
8
0
100
AcDbCircle
10
-79.000000000000369
20
7.9999999999998659
30
0
40
1.6000000000000014
210
0
220
0
230
-1
0
CIRCLE
5
114
100
AcDbEntity
8
0
100
AcDbCircle
10
-7.0857864376278812
20
51.998760679940744
30
0
40
1.9999999999999929
210
0
220
0
230
-1
0
CIRCLE
5
115
100
AcDbEntity
8
0
100
AcDbCircle
10
-206.58578643762729
20
84.248760680187814
30
0
40
1.9999999999999929
210
0
220
0
230
-1
0
CIRCLE
5
116
100
AcDbEntity
8
0
100
AcDbCircle
10
51.912974242313226
20
33.912974242313986
30
0
40
1.6000000000000014
210
0
220
0
230
-1
0
CIRCLE
5
117
100
AcDbEntity
8
0
100
AcDbCircle
10
-308.08454711756843
20
33.912974242313744
30
0
40
1.6000000000000014
210
0
220
0
230
-1
0
CIRCLE
5
118
100
AcDbEntity
8
0
100
AcDbCircle
10
-279.00000000000085
20
310.99752135988206
30
0
40
1.6000000000000014
210
0
220
0
230
-1
0
CIRCLE
5
119
100
AcDbEntity
8
0
100
AcDbCircle
10
-308.08454711756838
20
283.91297424231379
30
0
40
1.6000000000000014
210
0
220
0
230
-1
0
CIRCLE
5
120
100
AcDbEntity
8
0
100
AcDbCircle
10
-136.58578643762749
20
69.24876068018807
30
0
40
1.9999999999999929
210
0
220
0
230
-1
0
CIRCLE
5
121
100
AcDbEntity
8
0
100
AcDbCircle
10
30.414213562372225
20
52.498760679940439
30
0
40
1.9999999999999929
210
0
220
0
230
-1
0
CIRCLE
5
122
100
AcDbEntity
8
0
100
AcDbCircle
10
-279.0000000000004
20
7.9999999999996527
30
0
40
1.6000000000000014
210
0
220
0
230
-1
0
CIRCLE
5
123
100
AcDbEntity
8
0
100
AcDbCircle
10
-206.58578643762726
20
69.248760680187871
30
0
40
1.9999999999999929
210
0
220
0
230
-1
0
CIRCLE
5
124
100
AcDbEntity
8
0
100
AcDbCircle
10
-119.58578643762728
20
159.4987606799408
30
0
40
5.9999999999999964
210
0
220
0
230
-1
0
CIRCLE
5
125
100
AcDbEntity
8
0
100
AcDbCircle
10
-79.000000000000782
20
310.99752135988206
30
0
40
1.6000000000000014
210
0
220
0
230
-1
0
CIRCLE
5
126
100
AcDbEntity
8
0
100
AcDbCircle
10
30.41421356237187
20
290.49876067994029
30
0
40
1.9999999999999929
210
0
220
0
230
-1
0
CIRCLE
5
127
100
AcDbEntity
8
0
100
AcDbCircle
10
157.08578643762741
20
204.04876067993882
30
0
40
2.5
210
0
220
0
230
1
0
CIRCLE
5
128
100
AcDbEntity
8
0
100
AcDbCircle
10
157.08578643762718
20
115.04876067993882
30
0
40
2.5
210
0
220
0
230
1
0
CIRCLE
5
129
100
AcDbEntity
8
0
100
AcDbCircle
10
-136.58578643762746
20
248.74876068018682
30
0
40
1.9999999999999929
210
0
220
0
230
-1
0
CIRCLE
5
130
100
AcDbEntity
8
0
100
AcDbCircle
10
7.4142135623722183
20
52.498760679940403
30
0
40
1.9999999999999929
210
0
220
0
230
-1
0
CIRCLE
5
131
100
AcDbEntity
8
0
100
AcDbCircle
10
-121.08578643762743
20
51.998760679940631
30
0
40
1.9999999999999929
210
0
220
0
230
-1
0
CIRCLE
5
132
100
AcDbEntity
8
0
100
AcDbCircle
10
-206.58578643762726
20
248.74876068018648
30
0
40
1.9999999999999929
210
0
220
0
230
-1
0
CIRCLE
5
133
100
AcDbEntity
8
0
100
AcDbCircle
10
247.08578643762763
20
204.04876067993882
30
0
40
2.5
210
0
220
0
230
1
0
CIRCLE
5
134
100
AcDbEntity
8
0
100
AcDbCircle
10
-121.08578643762741
20
29.998760679940695
30
0
40
1.9999999999999929
210
0
220
0
230
-1
0
CIRCLE
5
135
100
AcDbEntity
8
0
100
AcDbCircle
10
-179.00000000000077
20
310.99752135988206
30
0
40
1.6000000000000014
210
0
220
0
230
-1
0
CIRCLE
5
136
100
AcDbEntity
8
0
100
AcDbCircle
10
247.08578643762738
20
115.04876067993879
30
0
40
2.5
210
0
220
0
230
1
0
CIRCLE
5
137
100
AcDbEntity
8
0
100
AcDbCircle
10
-308.08454711756843
20
158.91297424231374
30
0
40
1.6000000000000014
210
0
220
0
230
-1
0
CIRCLE
5
138
100
AcDbEntity
8
0
100
AcDbCircle
10
-179.00000000000034
20
7.9999999999997602
30
0
40
1.6000000000000014
210
0
220
0
230
-1
0
CIRCLE
5
139
100
AcDbEntity
8
0
100
AcDbCircle
10
-26.585786437627448
20
51.084547117567674
30
0
40
1.6000000000000014
210
0
220
0
230
-1
0
CIRCLE
5
140
100
AcDbEntity
8
0
100
AcDbCircle
10
-271.58578643762746
20
51.084547117567503
30
0
40
1.6000000000000014
210
0
220
0
230
-1
0
CIRCLE
5
141
100
AcDbEntity
8
0
100
AcDbCircle
10
47.085786437626993
20
115.04876067993885
30
0
40
2.5
210
0
220
0
230
1
0
CIRCLE
5
142
100
AcDbEntity
8
0
100
AcDbCircle
10
51.912974242313012
20
158.91297424231394
30
0
40
1.6000000000000192
210
0
220
0
230
-1
0
CIRCLE
5
143
100
AcDbEntity
8
0
100
AcDbCircle
10
20.999999999999655
20
7.9999999999999822
30
0
40
1.6000000000000014
210
0
220
0
230
-1
0
CIRCLE
5
144
100
AcDbEntity
8
0
100
AcDbCircle
10
47.085786437627213
20
204.04876067993885
30
0
40
2.5
210
0
220
0
230
1
0
CIRCLE
5
145
100
AcDbEntity
8
0
100
AcDbCircle
10
-7.0857864376278457
20
29.998760679940805
30
0
40
1.9999999999999929
210
0
220
0
230
-1
0
LWPOLYLINE
5
146
100
AcDbEntity
8
0
100
AcDbPolyline
90
19
70
1
43
0.0
10
-124.97229663903386
20
21.550191642987031
42
0.7332303362618332
10
-121.15742883604096
20
21.550191642987016
10
-119.18583194933188
20
27.803298081229123
42
-0.32733339675442991
10
-115.37096414633895
20
30.600474883212065
10
-87.451298871953398
20
30.60047488321193
42
-0.41421356237309537
10
-83.451298871953412
20
26.600474883211941
10
-83.451298871953483
20
17.101714203271932
10
-78.952538192012881
20
17.101714203271928
10
-78.952538192012881
20
19.101714203272067
10
-68.952538192012881
20
19.101714203272067
42
-0.4142135623730957
10
-64.952538192012881
20
15.101714203272065
10
-64.952538192012881
20
10.101714203272078
42
-0.41421356237309731
10
-68.952538192012881
20
6.1017142032720706
10
-145.6784266031209
20
6.1017142032720528
42
-0.41421356237309698
10
-149.6784266031209
20
10.101714203272065
10
-149.67842660312084
20
26.600474883212296
42
-0.41421356237309598
10
-145.67842660312081
20
30.600474883212293
10
-130.75876132873586
20
30.60047488321225
42
-0.32733339675442813
10
-126.94389352574294
20
27.8032980812293
0
CIRCLE
5
147
100
AcDbEntity
8
0
100
AcDbCircle
10
67.952538192012881
20
9.1017142032720688
30
0
40
1.5000000000000036
210
0
220
0
230
-1
0
CIRCLE
5
148
100
AcDbEntity
8
0
100
AcDbCircle
10
75.952538192012881
20
16.101714203272071
30
0
40
1.5000000000000036
210
0
220
0
230
-1
0
LWPOLYLINE
5
149
100
AcDbEntity
8
0
100
AcDbPolyline
90
21
70
1
43
0.0
10
-189.98332571746687
20
84.194362909434062
42
-0.4142135623730947
10
-158.10793751496502
20
116.06975111193589
10
-158.10793751496499
20
165.06727247181715
42
-0.41421356237309398
10
-153.10793751496499
20
170.06727247181715
10
-122.10793751496503
20
170.06727247181718
42
-0.41421356237309503
10
-117.10793751496503
20
165.06727247181718
10
-117.10793751496503
20
130.56851179187652
42
-0.4142135623730937
10
-125.10793751496504
20
122.56851179187652
10
-127.10793751496503
20
122.56851179187652
10
-127.10793751496502
20
99.223424754662361
42
-0.06722899662522501
10
-121.68444235824714
20
89.069751111935886
10
-69.686920998365878
20
89.069751111935858
42
-0.41421356237309293
10
-64.686920998365878
20
84.069751111935858
10
-64.686920998365878
20
78.460624021466501
42
-0.26972592855574612
10
-66.204173658891165
20
75.852663069442755
42
0.58177736877077557
10
-66.204173658891193
20
66.290139578688894
42
-0.26972592855574407
10
-64.686920998365849
20
63.68217862666512
10
-64.686920998365849
20
49.069751111935894
42
-0.41421356237309348
10
-69.686920998365849
20
44.069751111935886
10
-169.98332571746693
20
44.069751111935886
42
-0.41421356237309503
10
-189.98332571746693
20
64.069751111935886
0
CIRCLE
5
150
100
AcDbEntity
8
0
100
AcDbCircle
10
70.186920998365864
20
50.569751111935886
30
0
40
2.750000000000004
210
0
220
0
230
-1
0
CIRCLE
5
151
100
AcDbEntity
8
0
100
AcDbCircle
10
70.186920998365864
20
82.569751111935901
30
0
40
2.750000000000004
210
0
220
0
230
-1
0
CIRCLE
5
152
100
AcDbEntity
8
0
100
AcDbCircle
10
152.60793751496504
20
165.06727247181718
30
0
40
2.5
210
0
220
0
230
-1
0
ARC
5
153
100
AcDbEntity
8
0
100
AcDbCircle
10
161.98332571746693
20
74.069751111935886
30
0
40
11.000000000000004
210
0
220
-0
230
-1
100
AcDbArc
50
-154.99999999999994
51
24.999999999999993
0
LINE
5
154
100
AcDbEntity
8
0
100
AcDbLine
10
-171.95271137487009
20
78.718551991083586
30
0
11
-162.65510961657469
21
98.657323305889889
31
0
0
ARC
5
155
100
AcDbEntity
8
0
100
AcDbCircle
10
152.68572395917153
20
94.008522426742189
30
0
40
11.000000000000012
210
0
220
0
230
-1
100
AcDbArc
50
24.999999999999993
51
205.00000000000014
0
LINE
5
156
100
AcDbEntity
8
0
100
AcDbLine
10
-142.71633830176839
20
89.359721547594475
30
0
11
-152.01394006006379
21
69.420950232788186
31
0
0
CIRCLE
5
157
100
AcDbEntity
8
0
100
AcDbCircle
10
-173.97082489640198
20
94.832704665307489
30
0
40
3.9999999999999991
210
0
220
0
230
1
0
CIRCLE
5
158
100
AcDbEntity
8
0
100
AcDbCircle
10
-173.97082489640181
20
53.306786553844852
30
0
40
3.9999999999999991
210
0
220
0
230
1
0
CIRCLE
5
159
100
AcDbEntity
8
0
100
AcDbCircle
10
-138.00832489640212
20
74.069745609575719
30
0
40
3.9999999999999991
210
0
220
0
230
1
0
CIRCLE
5
160
100
AcDbEntity
8
0
100
AcDbCircle
10
126.60793751496506
20
165.06727247181718
30
0
40
2.5
210
0
220
0
230
-1
0
LWPOLYLINE
5
161
100
AcDbEntity
8
0
100
AcDbPolyline
90
38
70
1
43
0.0
10
-150.00366998915118
20
259.33409789685658
42
0.41421356237309503
10
-155.00366998915115
20
254.33409789685655
10
-155.00366998915109
20
253.3340978968566
42
0.23606797749980027
10
-153.00366998915095
20
249.33409789685655
10
-153.00366998915092
20
244.835337216916
10
-160.50243066909135
20
244.83533721691597
42
0.41421356237309087
10
-165.50243066909132
20
239.835337216916
10
-165.50243066909144
20
230.835337216916
42
0.41421356237309709
10
-160.50243066909144
20
225.83533721691597
10
-153.00366998915084
20
225.83533721691592
10
-153.00366998915081
20
221.33657653697549
10
-191.5024306690915
20
221.33657653697551
42
0.41421356237309709
10
-196.5024306690915
20
216.33657653697549
10
-196.50243066909144
20
179.33657653697531
42
0.41421356237309503
10
-191.50243066909144
20
174.33657653697531
10
-175.50243066909144
20
174.33657653697531
42
0.41421356237309503
10
-170.50243066909144
20
179.33657653697531
10
-170.50243066909147
20
181.33657653697529
10
-173.50243066909147
20
181.33657653697529
10
-173.50243066909147
20
183.33657653697529
10
-98.50490930921049
20
183.33657653697531
10
-98.50490930921049
20
181.33657653697531
10
-101.50490930921059
20
181.33657653697531
10
-101.50490930921057
20
178.3365765369752
42
0.41421356237309631
10
-97.504909309210532
20
174.3365765369752
10
-68.504909309210319
20
174.33657653697537
42
0.41421356237309631
10
-64.504909309210333
20
178.33657653697543
10
-64.504909309210518
20
217.33657653697591
42
0.41421356237309631
10
-68.504909309210603
20
221.33657653697588
10
-104.00366998915086
20
221.33657653697583
10
-104.00366998915089
20
225.83533721691617
10
-102.00366998915089
20
225.83533721691623
10
-102.00366998915112
20
254.33409789685683
42
0.41421356237309709
10
-107.00366998915115
20
259.33409789685686
10
-131.14529469172109
20
259.33409789685669
42
0.47054853193843332
10
-134.09218543356795
20
255.77210594351828
42
-1.208728882532667
10
-143.91515457305755
20
255.77210594351814
42
0.47054853193844076
10
-146.86204531490444
20
259.33409789685663
0
CIRCLE
5
162
100
AcDbEntity
8
0
100
AcDbCircle
10
75.504909309210746
20
216.83657653697637
30
0
40
1.1999999999999922
210
0
220
0
230
-1
0
CIRCLE
5
163
100
AcDbEntity
8
0
100
AcDbCircle
10
185.50243066908948
20
216.83657653697429
30
0
40
1.5000000000000036
210
0
220
0
230
-1
0
CIRCLE
5
164
100
AcDbEntity
8
0
100
AcDbCircle
10
127.77642865319892
20
205.58657653697446
30
0
40
1.1999999999999922
210
0
220
0
230
-1
0
CIRCLE
5
165
100
AcDbEntity
8
0
100
AcDbCircle
10
118.00366998915116
20
254.33409789685675
30
0
40
1.9999999999999929
210
0
220
0
230
-1
0
CIRCLE
5
166
100
AcDbEntity
8
0
100
AcDbCircle
10
136.00366998915106
20
210.33657653697446
30
0
40
5.9999999999999964
210
0
220
0
230
-1
0
CIRCLE
5
167
100
AcDbEntity
8
0
100
AcDbCircle
10
185.50243066909175
20
177.83657653697517
30
0
40
1.4999999999999949
210
0
220
0
230
-1
0
CIRCLE
5
168
100
AcDbEntity
8
0
100
AcDbCircle
10
136.00366998915104
20
219.83657653697449
30
0
40
1.1999999999999922
210
0
220
0
230
-1
0
CIRCLE
5
169
100
AcDbEntity
8
0
100
AcDbCircle
10
148.00366998915115
20
254.33409789685658
30
0
40
2.0000000000000018
210
0
220
0
230
-1
0
CIRCLE
5
170
100
AcDbEntity
8
0
100
AcDbCircle
10
144.23091132510325
20
205.58657653697452
30
0
40
1.1999999999999922
210
0
220
0
230
-1
0
CIRCLE
5
171
100
AcDbEntity
8
0
100
AcDbCircle
10
75.504909309209992
20
177.83657653697639
30
0
40
1.2000000000000013
210
0
220
0
230
-1
0
LWPOLYLINE
5
172
100
AcDbEntity
8
0
100
AcDbPolyline
90
8
70
1
43
0.0
10
-79.229557434150166
20
276.97560492299436
10
-147.22955743414991
20
276.97560492299436
42
-0.41421356237309592
10
-153.22955743414994
20
282.97560492299442
10
-153.22955743414983
20
349.47436560293511
42
-0.41421356237309503
10
-147.22955743414983
20
355.47436560293511
10
-79.229557434149825
20
355.47436560293499
42
-0.4142135623730942
10
-73.229557434149854
20
349.47436560293499
10
-73.229557434150166
20
282.97560492299442
42
-0.4142135623730942
0
CIRCLE
5
173
100
AcDbEntity
8
0
100
AcDbCircle
10
148.22955743414991
20
281.97560492299436
30
0
40
1.9999999999999929
210
0
220
0
230
-1
0
CIRCLE
5
174
100
AcDbEntity
8
0
100
AcDbCircle
10
-83.22955743414991
20
326.47436560293494
30
0
40
1.9999999999999929
210
0
220
0
230
1
0
CIRCLE
5
175
100
AcDbEntity
8
0
100
AcDbCircle
10
78.229557434149925
20
281.97560492299436
30
0
40
1.9999999999999929
210
0
220
0
230
-1
0
CIRCLE
5
176
100
AcDbEntity
8
0
100
AcDbCircle
10
148.22955743414991
20
296.97560492299436
30
0
40
1.9999999999999929
210
0
220
0
230
-1
0
CIRCLE
5
177
100
AcDbEntity
8
0
100
AcDbCircle
10
-143.22955743414983
20
348.47436560293511
30
0
40
2.0000000000000018
210
0
220
0
230
1
0
CIRCLE
5
178
100
AcDbEntity
8
0
100
AcDbCircle
10
78.229557434149925
20
296.97560492299436
30
0
40
1.9999999999999929
210
0
220
0
230
-1
0
CIRCLE
5
179
100
AcDbEntity
8
0
100
AcDbCircle
10
-143.22955743414988
20
326.47436560293505
30
0
40
2.0000000000000018
210
0
220
0
230
1
0
CIRCLE
5
180
100
AcDbEntity
8
0
100
AcDbCircle
10
-83.229557434149825
20
348.47436560293494
30
0
40
1.9999999999999929
210
0
220
0
230
1
0
LWPOLYLINE
5
181
100
AcDbEntity
8
0
100
AcDbPolyline
90
8
70
1
43
0.0
10
-170.73225822179046
20
358.05512253817113
10
-238.73225822179046
20
358.0551225381713
42
0.41421356237309681
10
-244.73225822179046
20
352.0551225381713
10
-244.7322582217906
20
285.55636185823056
42
0.41421356237309331
10
-238.73225822179057
20
279.55636185823062
10
-170.73225822179083
20
279.55636185823056
42
0.41421356237309681
10
-164.73225822179077
20
285.55636185823056
10
-164.73225822179049
20
352.05512253817113
42
0.41421356237309331
0
CIRCLE
5
182
100
AcDbEntity
8
0
100
AcDbCircle
10
-174.73225822179049
20
351.05512253817119
30
0
40
1.9999999999999929
210
0
220
0
230
1
0
CIRCLE
5
183
100
AcDbEntity
8
0
100
AcDbCircle
10
-174.73225822179052
20
329.05512253817113
30
0
40
1.9999999999999929
210
0
220
0
230
1
0
CIRCLE
5
184
100
AcDbEntity
8
0
100
AcDbCircle
10
-234.73225822179049
20
351.0551225381713
30
0
40
2.0000000000000018
210
0
220
0
230
1
0
CIRCLE
5
185
100
AcDbEntity
8
0
100
AcDbCircle
10
-234.73225822179057
20
329.0551225381713
30
0
40
2.0000000000000018
210
0
220
0
230
1
0
CIRCLE
5
186
100
AcDbEntity
8
0
100
AcDbCircle
10
-169.7322582217906
20
299.55636185823062
30
0
40
1.9999999999999929
210
0
220
0
230
1
0
CIRCLE
5
187
100
AcDbEntity
8
0
100
AcDbCircle
10
-239.7322582217906
20
299.55636185823056
30
0
40
1.9999999999999929
210
0
220
0
230
1
0
CIRCLE
5
188
100
AcDbEntity
8
0
100
AcDbCircle
10
-169.73225822179057
20
284.55636185823062
30
0
40
1.9999999999999929
210
0
220
0
230
1
0
CIRCLE
5
189
100
AcDbEntity
8
0
100
AcDbCircle
10
-239.73225822179057
20
284.55636185823056
30
0
40
1.9999999999999929
210
0
220
0
230
1
0
ENDSEC
0
SECTION
2
OBJECTS
0
DICTIONARY
5
C
100
AcDbDictionary
3
ACAD_GROUP
350
D
3
ACAD_MLINESTYLE
350
17
0
DICTIONARY
5
D
100
AcDbDictionary
0
DICTIONARY
5
1A
330
C
100
AcDbDictionary
0
DICTIONARY
5
17
100
AcDbDictionary
0
ENDSEC
0
EOF
