0
SECTION
2
HEADER
9
$INSUNITS
70
4
9
$ACADVER
1
AC1014
9
$HANDSEED
5
FFFF
0
ENDSEC
0
SECTION
2
TABLES
0
TABLE
2
VPORT
5
8
100
AcDbSymbolTable
0
ENDTAB
0
TABLE
2
LTYPE
5
5
100
AcDbSymbolTable
0
LTYPE
5
14
100
AcDbSymbolTableRecord
100
AcDbLinetypeTableRecord
2
BYBLOCK
70
0
0
LTYPE
5
15
100
AcDbSymbolTableRecord
100
AcDbLinetypeTableRecord
2
BYLAYER
70
0
0
ENDTAB
0
TABLE
2
LAYER
5
2
100
AcDbSymbolTable
70
2
0
LAYER
5
50
100
AcDbSymbolTableRecord
100
AcDbLayerTableRecord
2
0
70
0
6
CONTINUOUS
0
ENDTAB
0
TABLE
2
STYLE
5
3
100
AcDbSymbolTable
70
1
0
STYLE
5
11
100
AcDbSymbolTableRecord
100
AcDbTextStyleTableRecord
2
STANDARD
70
0
0
ENDTAB
0
TABLE
2
VIEW
5
6
100
AcDbSymbolTable
70
0
0
ENDTAB
0
TABLE
2
UCS
5
7
100
AcDbSymbolTable
70
0
0
ENDTAB
0
TABLE
2
APPID
5
9
100
AcDbSymbolTable
70
2
0
APPID
5
12
100
AcDbSymbolTableRecord
100
AcDbRegAppTableRecord
2
ACAD
70
0
0
ENDTAB
0
TABLE
2
DIMSTYLE
5
A
100
AcDbSymbolTable
70
1
0
ENDTAB
0
TABLE
2
BLOCK_RECORD
5
1
100
AcDbSymbolTable
70
1
0
BLOCK_RECORD
5
1F
100
AcDbSymbolTableRecord
100
AcDbBlockTableRecord
2
*MODEL_SPACE
0
BLOCK_RECORD
5
1B
100
AcDbSymbolTableRecord
100
AcDbBlockTableRecord
2
*PAPER_SPACE
0
ENDTAB
0
ENDSEC
0
SECTION
2
BLOCKS
0
BLOCK
5
20
100
AcDbEntity
100
AcDbBlockBegin
2
*MODEL_SPACE
0
ENDBLK
5
21
100
AcDbEntity
100
AcDbBlockEnd
0
BLOCK
5
1C
100
AcDbEntity
100
AcDbBlockBegin
2
*PAPER_SPACE
0
ENDBLK
5
1D
100
AcDbEntity
100
AcDbBlockEnd
0
ENDSEC
0
SECTION
2
ENTITIES
0
LWPOLYLINE
5
100
100
AcDbEntity
8
0
100
AcDbPolyline
90
11
70
1
43
0.0
10
-9.999999999999984
20
82.748141019910904
10
-9.999999999999984
20
10
42
0.41421356237309509
10
0
20
0
10
231
20
6.6613381477509392e-15
42
0.41421356237309465
10
241
20
9.9999999999999911
10
241
20
72.830751020734297
42
0.37702226529801208
10
232.28272195125533
20
82.748141019910904
42
-0.56379442614587405
10
71.469382289567761
20
86.463973016671133
42
-0.12256969394006517
10
68.16675443180722
20
98.079120982757232
42
0.40455051752103982
10
58.172233319508031
20
107.74814101991089
10
15.000000000000004
20
107.7481410199109
42
0.41421356237309498
0
CIRCLE
5
101
100
AcDbEntity
8
0
100
AcDbCircle
10
-34.000000000000071
20
65.24814101991096
30
0
40
1.2000000000000013
210
0
220
0
230
-1
0
CIRCLE
5
102
100
AcDbEntity
8
0
100
AcDbCircle
10
-12.001354791097
20
75.749796748561423
30
0
40
1.6000000000000014
210
0
220
0
230
-1
0
CIRCLE
5
103
100
AcDbEntity
8
0
100
AcDbCircle
10
-59.500000000000064
20
103.74814101991089
30
0
40
1.1999999999999922
210
0
220
0
230
-1
0
CIRCLE
5
104
100
AcDbEntity
8
0
100
AcDbCircle
10
-11.50000000000006
20
54.749796734401258
30
0
40
2.5
210
0
220
0
230
-1
0
CIRCLE
5
105
100
AcDbEntity
8
0
100
AcDbCircle
10
-73.000000000000028
20
43.748141019910882
30
0
40
2.0000000000000018
210
0
220
0
230
-1
0
CIRCLE
5
106
100
AcDbEntity
8
0
100
AcDbCircle
10
-40.495190528383361
20
53.998141019910932
30
0
40
1.1999999999999966
210
0
220
0
230
-1
0
CIRCLE
5
107
100
AcDbEntity
8
0
100
AcDbCircle
10
-73.000000000000028
20
71.748141019910889
30
0
40
2.0000000000000018
210
0
220
0
230
-1
0
CIRCLE
5
108
100
AcDbEntity
8
0
100
AcDbCircle
10
-27.504809471616767
20
53.998141019910975
30
0
40
1.1999999999999966
210
0
220
0
230
-1
0
CIRCLE
5
109
100
AcDbEntity
8
0
100
AcDbCircle
10
-33.500000000000114
20
103.74814101991089
30
0
40
1.1999999999999922
210
0
220
0
230
-1
0
CIRCLE
5
110
100
AcDbEntity
8
0
100
AcDbCircle
10
-59.000000000000021
20
57.748141019910896
30
0
40
2.0000000000000018
210
0
220
0
230
-1
0
CIRCLE
5
111
100
AcDbEntity
8
0
100
AcDbCircle
10
-87.000000000000014
20
57.748141019910896
30
0
40
2.0000000000000107
210
0
220
0
230
-1
0
CIRCLE
5
112
100
AcDbEntity
8
0
100
AcDbCircle
10
2.0000000000000595
20
8.9999999999999503
30
0
40
2.5000000000000044
210
0
220
0
230
-1
0
CIRCLE
5
113
100
AcDbEntity
8
0
100
AcDbCircle
10
-73.000000000000028
20
57.748141019910896
30
0
40
11.000000000000005
210
0
220
0
230
-1
0
CIRCLE
5
114
100
AcDbEntity
8
0
100
AcDbCircle
10
-113.84913800200238
20
9.9999999999999911
30
0
40
1.1999999999999922
210
0
220
0
230
-1
0
CIRCLE
5
115
100
AcDbEntity
8
0
100
AcDbCircle
10
-28.499999999999972
20
7.9999999999999982
30
0
40
2.5
210
0
220
0
230
-1
0
CIRCLE
5
116
100
AcDbEntity
8
0
100
AcDbCircle
10
-70.000000000000128
20
80.593764978730732
30
0
40
2.5
210
0
220
0
230
-1
0
CIRCLE
5
117
100
AcDbEntity
8
0
100
AcDbCircle
10
-34.000000000000064
20
57.748141019910939
30
0
40
5
210
0
220
0
230
-1
0
CIRCLE
5
118
100
AcDbEntity
8
0
100
AcDbCircle
10
-138.49999999999997
20
7.9999999999999982
30
0
40
2.5
210
0
220
0
230
-1
0
CIRCLE
5
119
100
AcDbEntity
8
0
100
AcDbCircle
10
-228.49999999999997
20
7.9999999999999982
30
0
40
2.5
210
0
220
0
230
-1
0
CIRCLE
5
120
100
AcDbEntity
8
0
100
AcDbCircle
10
-121.84913800200238
20
2.9999999999999893
30
0
40
1.1999999999999922
210
0
220
0
230
-1
0
CIRCLE
5
121
100
AcDbEntity
8
0
100
AcDbCircle
10
-11.999096909782402
20
45.749796833529288
30
0
40
1.6000000000000014
210
0
220
0
230
-1
0
CIRCLE
5
122
100
AcDbEntity
8
0
100
AcDbCircle
10
-225.00000000000011
20
48.748141019910918
30
0
40
2.5
210
0
220
0
230
-1
0
CIRCLE
5
123
100
AcDbEntity
8
0
100
AcDbCircle
10
-111.00000000000009
20
36.74814101991106
30
0
40
2.5
210
0
220
0
230
-1
0
LWPOLYLINE
5
124
100
AcDbEntity
8
0
100
AcDbPolyline
90
12
70
1
43
0.0
10
241
20
125
42
-0.41421356237309348
10
231
20
115
10
2.2776579365114145e-15
20
114.99999999999999
42
-0.41421356237309553
10
-10
20
125
10
-9.9999999999999503
20
206.74814101991089
42
-0.41421356237309531
10
15.000000000000071
20
231.74814101991089
10
64.172233319508251
20
231.7481410199108
42
-0.41421356237309959
10
68.172233319508251
20
227.7481410199108
10
68.172233319508251
20
216.65393794981446
42
0.14222084745829117
10
73.61338867853857
20
197.91161409467267
42
0.5493397589762109
10
232.28272195125516
20
197.74814101991092
42
-0.37702226529801491
10
241.00000000000026
20
187.83075102073406
0
CIRCLE
5
125
100
AcDbEntity
8
0
100
AcDbCircle
10
-18.201117461845122
20
149.24814652227087
30
0
40
2.7499999999999991
210
0
220
0
230
-1
0
CIRCLE
5
126
100
AcDbEntity
8
0
100
AcDbCircle
10
-228.50000000000009
20
122.99999999999999
30
0
40
2.5
210
0
220
0
230
-1
0
CIRCLE
5
127
100
AcDbEntity
8
0
100
AcDbCircle
10
-18.201117461845016
20
181.24814652227087
30
0
40
2.7499999999999991
210
0
220
0
230
-1
0
CIRCLE
5
128
100
AcDbEntity
8
0
100
AcDbCircle
10
-59.000000000000021
20
172.74814101991086
30
0
40
2.0000000000000018
210
0
220
0
230
-1
0
CIRCLE
5
129
100
AcDbEntity
8
0
100
AcDbCircle
10
-138.5
20
123
30
0
40
2.5
210
0
220
0
230
-1
0
CIRCLE
5
130
100
AcDbEntity
8
0
100
AcDbCircle
10
-28.500000000000014
20
123
30
0
40
2.5
210
0
220
0
230
-1
0
CIRCLE
5
131
100
AcDbEntity
8
0
100
AcDbCircle
10
-37.62461261856275
20
226.74814652227093
30
0
40
2.5
210
0
220
0
230
-1
0
CIRCLE
5
132
100
AcDbEntity
8
0
100
AcDbCircle
10
-73.000000000000028
20
158.74814101991089
30
0
40
2.0000000000000018
210
0
220
0
230
-1
0
CIRCLE
5
133
100
AcDbEntity
8
0
100
AcDbCircle
10
-111.00000000000016
20
151.74814101991092
30
0
40
2.5
210
0
220
0
230
-1
0
CIRCLE
5
134
100
AcDbEntity
8
0
100
AcDbCircle
10
-73.000000000000028
20
172.74814101991086
30
0
40
11.000000000000005
210
0
220
0
230
-1
0
CIRCLE
5
135
100
AcDbEntity
8
0
100
AcDbCircle
10
-11.500000000000243
20
169.74979673440075
30
0
40
2.5
210
0
220
0
230
-1
0
CIRCLE
5
136
100
AcDbEntity
8
0
100
AcDbCircle
10
-87.000000000000043
20
172.74814101991086
30
0
40
1.9999999999999929
210
0
220
0
230
-1
0
CIRCLE
5
137
100
AcDbEntity
8
0
100
AcDbCircle
10
-225.00000000000014
20
163.74814101991115
30
0
40
2.5
210
0
220
0
230
-1
0
CIRCLE
5
138
100
AcDbEntity
8
0
100
AcDbCircle
10
-63.624612618562715
20
226.74814652227099
30
0
40
2.5
210
0
220
0
230
-1
0
CIRCLE
5
139
100
AcDbEntity
8
0
100
AcDbCircle
10
2.0000000000000195
20
124.00000000000003
30
0
40
2.5000000000000044
210
0
220
0
230
-1
0
CIRCLE
5
140
100
AcDbEntity
8
0
100
AcDbCircle
10
-73.000000000000028
20
186.74814101991086
30
0
40
2.0000000000000018
210
0
220
0
230
-1
0
CIRCLE
5
141
100
AcDbEntity
8
0
100
AcDbCircle
10
-70.000000000000156
20
195.59376497873032
30
0
40
2.5
210
0
220
0
230
-1
0
ARC
5
142
100
AcDbEntity
8
0
100
AcDbCircle
10
282.12125315457166
20
21.336968198503339
30
3.0379712800791926e-45
40
122.00000000000057
210
0
220
-0
230
1
100
AcDbArc
50
3.6054008855897148
51
38.346613326064286
0
ARC
5
143
100
AcDbEntity
8
0
100
AcDbCircle
10
292.23392667870763
20
19.969507069976338
30
2.8224395338573581e-47
40
11.000001846543856
210
0
220
0
230
1
100
AcDbArc
50
-133.53725706460119
51
46.415792960113357
0
ARC
5
144
100
AcDbEntity
8
0
100
AcDbCircle
10
376.81514192618909
20
90.299220586140692
30
0
40
66.999999999992781
210
0
220
0
230
1
100
AcDbArc
50
274.52212023505513
51
293.82534495319061
0
ARC
5
145
100
AcDbEntity
8
0
100
AcDbCircle
10
328.22205545556642
20
57.806125344967676
30
0
40
41.218341331935306
210
0
220
-0
230
1
100
AcDbArc
50
38.346613326064372
51
178.52653017901125
0
ARC
5
146
100
AcDbEntity
8
0
100
AcDbCircle
10
282.12125315457166
20
21.336968198503339
30
3.0379712800791926e-45
40
100.0000000000004
210
3.0372553762815285e-47
220
6.5949054844640778e-49
230
1
100
AcDbArc
50
1.2438890946377987
51
38.346613326064329
0
LWPOLYLINE
5
147
100
AcDbEntity
8
0
100
AcDbPolyline
90
2
70
1
43
0.0
10
294.29547947080448
20
23.969507080651027
42
-4.1231056256176304
10
290.17237384518683
20
23.969507059301645
0
ARC
5
148
100
AcDbEntity
8
0
100
AcDbCircle
10
301.43505051599266
20
46.791968444707592
30
0
40
16.228321049202311
210
0
220
0
230
1
100
AcDbArc
50
163.86687103731987
51
240.83564529831733
0
ARC
5
149
100
AcDbEntity
8
0
100
AcDbCircle
10
328.22205545433695
20
57.806125343680478
30
0
40
41.218341330155411
210
0
220
0
230
1
100
AcDbArc
50
226.1759861566201
51
226.43926795080185
0
ARC
5
150
100
AcDbEntity
8
0
100
AcDbCircle
10
-210.01579991591825
20
374.77015489479669
30
0
40
561.4144988096582
210
0
220
0
230
1
100
AcDbArc
50
328.37573268527825
51
329.50650430932154
0
ARC
5
151
100
AcDbEntity
8
0
100
AcDbCircle
10
257.02726326892628
20
59.637438418494462
30
0
40
30.000000000000583
210
0
220
0
230
1
100
AcDbArc
50
343.86687103731981
51
358.52653017901099
0
CIRCLE
5
152
100
AcDbEntity
8
0
100
AcDbCircle
10
289.02898312573984
20
91.447802381895684
30
0
40
2.5
210
0
220
0
230
1
0
ARC
5
153
100
AcDbEntity
8
0
100
AcDbCircle
10
278.90722710229062
20
6.4242234089829608
30
0
40
30.000000000001027
210
0
220
-0
230
1
100
AcDbArc
50
46.175986156626365
51
60.835645298317218
0
ARC
5
154
100
AcDbEntity
8
0
100
AcDbCircle
10
210.31522484013621
20
53.227351471799508
30
0
40
54.777361454039649
210
0
220
-0
230
1
100
AcDbArc
50
2.2238971101878509
51
9.2112341290846267
0
ARC
5
155
100
AcDbEntity
8
0
100
AcDbCircle
10
328.22205545556642
20
57.806125344967676
30
0
40
63.218341331940465
210
0
220
0
230
1
100
AcDbArc
50
182.22389711018786
51
226.43926794973839
0
CIRCLE
5
156
100
AcDbEntity
8
0
100
AcDbCircle
10
389.15058497620339
20
51.71206522428875
30
0
40
2.5
210
0
220
0
230
1
0
ARC
5
157
100
AcDbEntity
8
0
100
AcDbCircle
10
290.92148230169249
20
66.298936189939297
30
0
40
26.881900537495873
210
0
220
0
230
1
100
AcDbArc
50
148.3757326852778
51
189.21123412908477
0
ARC
5
158
100
AcDbEntity
8
0
100
AcDbCircle
10
328.22205545556642
20
57.806125344967676
30
0
40
63.218341331935505
210
-3.7688357761278314e-47
220
-2.9814288975152381e-47
230
1
100
AcDbArc
50
38.346613326064286
51
149.50650430932626
0
ARC
5
159
100
AcDbEntity
8
0
100
AcDbCircle
10
276.80455809294261
20
132.50113525455771
30
3.0379712800791926e-45
40
100.0000000000004
210
0
220
-0
230
1
100
AcDbArc
50
1.2438890946377987
51
38.34661332606435
0
ARC
5
160
100
AcDbEntity
8
0
100
AcDbCircle
10
371.49844686455998
20
201.46338764219507
30
0
40
66.999999999992767
210
-3.5750107242083274e-48
220
4.5201701198216462e-47
230
1
100
AcDbArc
50
274.52212023505518
51
293.82534495319061
0
ARC
5
161
100
AcDbEntity
8
0
100
AcDbCircle
10
296.11835545436361
20
157.95613550076197
30
0
40
16.228321049202314
210
0
220
0
230
1
100
AcDbArc
50
163.86687103731987
51
240.83564529831733
0
ARC
5
162
100
AcDbEntity
8
0
100
AcDbCircle
10
251.7105682072972
20
170.80160547454884
30
0
40
30.000000000000586
210
0
220
0
230
1
100
AcDbArc
50
343.86687103731987
51
358.52653017901071
0
ARC
5
163
100
AcDbEntity
8
0
100
AcDbCircle
10
273.59053204066151
20
117.58839046503735
30
0
40
30.000000000001016
210
0
220
-0
230
1
100
AcDbArc
50
46.175986156626273
51
60.835645298317118
0
ARC
5
164
100
AcDbEntity
8
0
100
AcDbCircle
10
322.90536039393726
20
168.97029240102205
30
0
40
63.218341331940465
210
0
220
0
230
1
100
AcDbArc
50
182.22389711018752
51
226.43926794973839
0
ARC
5
165
100
AcDbEntity
8
0
100
AcDbCircle
10
286.91723161707853
20
131.13367412603071
30
2.8224395338573581e-47
40
11.00000184654386
210
-1.7674270191931308e-48
220
-1.8600556161748125e-48
230
1
100
AcDbArc
50
-133.53725706460153
51
46.415792960113166
0
ARC
5
166
100
AcDbEntity
8
0
100
AcDbCircle
10
322.90536039393726
20
168.97029240102205
30
0
40
41.218341331935314
210
-5.7804253839457547e-47
220
-4.572745617834524e-47
230
1
100
AcDbArc
50
38.346613326064315
51
178.52653017901125
0
CIRCLE
5
167
100
AcDbEntity
8
0
100
AcDbCircle
10
283.71228806411074
20
202.61196943795005
30
0
40
2.5
210
0
220
0
230
1
0
ARC
5
168
100
AcDbEntity
8
0
100
AcDbCircle
10
322.90536039270791
20
168.97029239973483
30
0
40
41.218341330155404
210
0
220
0
230
1
100
AcDbArc
50
226.17598615662007
51
226.43926795080185
0
LWPOLYLINE
5
169
100
AcDbEntity
8
0
100
AcDbPolyline
90
2
70
1
43
0.0
10
284.85567878355778
20
135.13367411535603
10
288.97878440917543
20
135.13367413670539
42
-4.1231056256176259
0
CIRCLE
5
170
100
AcDbEntity
8
0
100
AcDbCircle
10
383.83388991457429
20
162.87623228034312
30
0
40
2.5
210
0
220
0
230
1
0
ARC
5
171
100
AcDbEntity
8
0
100
AcDbCircle
10
285.60478724006344
20
177.46310324599366
30
0
40
26.881900537495881
210
0
220
0
230
1
100
AcDbArc
50
148.37573268527746
51
189.21123412908472
0
ARC
5
172
100
AcDbEntity
8
0
100
AcDbCircle
10
276.80455809294261
20
132.50113525455771
30
3.0379712800791926e-45
40
122.00000000000057
210
2.4852119204816076e-47
220
1.5659147382255142e-48
230
1
100
AcDbArc
50
3.6054008855897148
51
38.346613326064343
0
ARC
5
173
100
AcDbEntity
8
0
100
AcDbCircle
10
-215.3324949775473
20
485.93432195085109
30
0
40
561.4144988096582
210
0
220
0
230
1
100
AcDbArc
50
328.37573268527825
51
329.50650430932154
0
ARC
5
174
100
AcDbEntity
8
0
100
AcDbCircle
10
322.90536039393726
20
168.97029240102205
30
0
40
63.218341331935491
210
-3.7688357761278304e-47
220
-2.9814288975152386e-47
230
1
100
AcDbArc
50
38.346613326064301
51
149.50650430932617
0
ARC
5
175
100
AcDbEntity
8
0
100
AcDbCircle
10
204.99852977850713
20
164.39151852785389
30
0
40
54.777361454039649
210
0
220
-0
230
1
100
AcDbArc
50
2.2238971101880147
51
9.2112341290846267
0
ENDSEC
0
SECTION
2
OBJECTS
0
DICTIONARY
5
C
100
AcDbDictionary
3
ACAD_GROUP
350
D
3
ACAD_MLINESTYLE
350
17
0
DICTIONARY
5
D
100
AcDbDictionary
0
DICTIONARY
5
1A
330
C
100
AcDbDictionary
0
DICTIONARY
5
17
100
AcDbDictionary
0
ENDSEC
0
EOF
