G04 #@! TF.GenerationSoftware,KiCad,Pcbnew,5.1.5-52549c5~86~ubuntu18.04.1*
G04 #@! TF.CreationDate,2020-05-30T04:21:03+05:30*
G04 #@! TF.ProjectId,Resp2,52657370-322e-46b6-9963-61645f706362,rev?*
G04 #@! TF.SameCoordinates,Original*
G04 #@! TF.FileFunction,Paste,Bot*
G04 #@! TF.FilePolarity,Positive*
%FSLAX46Y46*%
G04 Gerber Fmt 4.6, Leading zero omitted, Abs format (unit mm)*
G04 Created by KiCad (PCBNEW 5.1.5-52549c5~86~ubuntu18.04.1) date 2020-05-30 04:21:03*
%MOMM*%
%LPD*%
G04 APERTURE LIST*
%ADD10C,0.100000*%
G04 APERTURE END LIST*
D10*
G36*
X23039505Y-21463704D02*
G01*
X23063773Y-21467304D01*
X23087572Y-21473265D01*
X23110671Y-21481530D01*
X23132850Y-21492020D01*
X23153893Y-21504632D01*
X23173599Y-21519247D01*
X23191777Y-21535723D01*
X23208253Y-21553901D01*
X23222868Y-21573607D01*
X23235480Y-21594650D01*
X23245970Y-21616829D01*
X23254235Y-21639928D01*
X23260196Y-21663727D01*
X23263796Y-21687995D01*
X23265000Y-21712499D01*
X23265000Y-22737501D01*
X23263796Y-22762005D01*
X23260196Y-22786273D01*
X23254235Y-22810072D01*
X23245970Y-22833171D01*
X23235480Y-22855350D01*
X23222868Y-22876393D01*
X23208253Y-22896099D01*
X23191777Y-22914277D01*
X23173599Y-22930753D01*
X23153893Y-22945368D01*
X23132850Y-22957980D01*
X23110671Y-22968470D01*
X23087572Y-22976735D01*
X23063773Y-22982696D01*
X23039505Y-22986296D01*
X23015001Y-22987500D01*
X20164999Y-22987500D01*
X20140495Y-22986296D01*
X20116227Y-22982696D01*
X20092428Y-22976735D01*
X20069329Y-22968470D01*
X20047150Y-22957980D01*
X20026107Y-22945368D01*
X20006401Y-22930753D01*
X19988223Y-22914277D01*
X19971747Y-22896099D01*
X19957132Y-22876393D01*
X19944520Y-22855350D01*
X19934030Y-22833171D01*
X19925765Y-22810072D01*
X19919804Y-22786273D01*
X19916204Y-22762005D01*
X19915000Y-22737501D01*
X19915000Y-21712499D01*
X19916204Y-21687995D01*
X19919804Y-21663727D01*
X19925765Y-21639928D01*
X19934030Y-21616829D01*
X19944520Y-21594650D01*
X19957132Y-21573607D01*
X19971747Y-21553901D01*
X19988223Y-21535723D01*
X20006401Y-21519247D01*
X20026107Y-21504632D01*
X20047150Y-21492020D01*
X20069329Y-21481530D01*
X20092428Y-21473265D01*
X20116227Y-21467304D01*
X20140495Y-21463704D01*
X20164999Y-21462500D01*
X23015001Y-21462500D01*
X23039505Y-21463704D01*
G37*
G36*
X23039505Y-27438704D02*
G01*
X23063773Y-27442304D01*
X23087572Y-27448265D01*
X23110671Y-27456530D01*
X23132850Y-27467020D01*
X23153893Y-27479632D01*
X23173599Y-27494247D01*
X23191777Y-27510723D01*
X23208253Y-27528901D01*
X23222868Y-27548607D01*
X23235480Y-27569650D01*
X23245970Y-27591829D01*
X23254235Y-27614928D01*
X23260196Y-27638727D01*
X23263796Y-27662995D01*
X23265000Y-27687499D01*
X23265000Y-28712501D01*
X23263796Y-28737005D01*
X23260196Y-28761273D01*
X23254235Y-28785072D01*
X23245970Y-28808171D01*
X23235480Y-28830350D01*
X23222868Y-28851393D01*
X23208253Y-28871099D01*
X23191777Y-28889277D01*
X23173599Y-28905753D01*
X23153893Y-28920368D01*
X23132850Y-28932980D01*
X23110671Y-28943470D01*
X23087572Y-28951735D01*
X23063773Y-28957696D01*
X23039505Y-28961296D01*
X23015001Y-28962500D01*
X20164999Y-28962500D01*
X20140495Y-28961296D01*
X20116227Y-28957696D01*
X20092428Y-28951735D01*
X20069329Y-28943470D01*
X20047150Y-28932980D01*
X20026107Y-28920368D01*
X20006401Y-28905753D01*
X19988223Y-28889277D01*
X19971747Y-28871099D01*
X19957132Y-28851393D01*
X19944520Y-28830350D01*
X19934030Y-28808171D01*
X19925765Y-28785072D01*
X19919804Y-28761273D01*
X19916204Y-28737005D01*
X19915000Y-28712501D01*
X19915000Y-27687499D01*
X19916204Y-27662995D01*
X19919804Y-27638727D01*
X19925765Y-27614928D01*
X19934030Y-27591829D01*
X19944520Y-27569650D01*
X19957132Y-27548607D01*
X19971747Y-27528901D01*
X19988223Y-27510723D01*
X20006401Y-27494247D01*
X20026107Y-27479632D01*
X20047150Y-27467020D01*
X20069329Y-27456530D01*
X20092428Y-27448265D01*
X20116227Y-27442304D01*
X20140495Y-27438704D01*
X20164999Y-27437500D01*
X23015001Y-27437500D01*
X23039505Y-27438704D01*
G37*
M02*
