G04 #@! TF.GenerationSoftware,KiCad,Pcbnew,5.1.5-52549c5~86~ubuntu18.04.1*
G04 #@! TF.CreationDate,2020-05-21T16:47:52+05:30*
G04 #@! TF.ProjectId,Resp2,52657370-322e-46b6-9963-61645f706362,rev?*
G04 #@! TF.SameCoordinates,Original*
G04 #@! TF.FileFunction,Legend,Top*
G04 #@! TF.FilePolarity,Positive*
%FSLAX46Y46*%
G04 Gerber Fmt 4.6, Leading zero omitted, Abs format (unit mm)*
G04 Created by KiCad (PCBNEW 5.1.5-52549c5~86~ubuntu18.04.1) date 2020-05-21 16:47:52*
%MOMM*%
%LPD*%
G04 APERTURE LIST*
%ADD10C,0.150000*%
%ADD11C,0.120000*%
%ADD12C,0.100000*%
%ADD13C,0.200000*%
G04 APERTURE END LIST*
D10*
X35306047Y-61793428D02*
X36067952Y-61793428D01*
X35687000Y-62174380D02*
X35687000Y-61412476D01*
X41784000Y-13783904D02*
X41784000Y-12983904D01*
X42084000Y-13555333D01*
X42384000Y-12983904D01*
X42384000Y-13783904D01*
X42941142Y-13783904D02*
X42855428Y-13745809D01*
X42812571Y-13707714D01*
X42769714Y-13631523D01*
X42769714Y-13402952D01*
X42812571Y-13326761D01*
X42855428Y-13288666D01*
X42941142Y-13250571D01*
X43069714Y-13250571D01*
X43155428Y-13288666D01*
X43198285Y-13326761D01*
X43241142Y-13402952D01*
X43241142Y-13631523D01*
X43198285Y-13707714D01*
X43155428Y-13745809D01*
X43069714Y-13783904D01*
X42941142Y-13783904D01*
X43498285Y-13250571D02*
X43841142Y-13250571D01*
X43626857Y-12983904D02*
X43626857Y-13669619D01*
X43669714Y-13745809D01*
X43755428Y-13783904D01*
X43841142Y-13783904D01*
X44269714Y-13783904D02*
X44184000Y-13745809D01*
X44141142Y-13707714D01*
X44098285Y-13631523D01*
X44098285Y-13402952D01*
X44141142Y-13326761D01*
X44184000Y-13288666D01*
X44269714Y-13250571D01*
X44398285Y-13250571D01*
X44484000Y-13288666D01*
X44526857Y-13326761D01*
X44569714Y-13402952D01*
X44569714Y-13631523D01*
X44526857Y-13707714D01*
X44484000Y-13745809D01*
X44398285Y-13783904D01*
X44269714Y-13783904D01*
X44955428Y-13783904D02*
X44955428Y-13250571D01*
X44955428Y-13402952D02*
X44998285Y-13326761D01*
X45041142Y-13288666D01*
X45126857Y-13250571D01*
X45212571Y-13250571D01*
X43091142Y-14829142D02*
X43776857Y-14829142D01*
X43434000Y-15133904D02*
X43434000Y-14524380D01*
X44307285Y-70302428D02*
X45069190Y-70302428D01*
X44688238Y-70683380D02*
X44688238Y-69921476D01*
X46021571Y-69683380D02*
X45545380Y-69683380D01*
X45497761Y-70159571D01*
X45545380Y-70111952D01*
X45640619Y-70064333D01*
X45878714Y-70064333D01*
X45973952Y-70111952D01*
X46021571Y-70159571D01*
X46069190Y-70254809D01*
X46069190Y-70492904D01*
X46021571Y-70588142D01*
X45973952Y-70635761D01*
X45878714Y-70683380D01*
X45640619Y-70683380D01*
X45545380Y-70635761D01*
X45497761Y-70588142D01*
X46354904Y-69683380D02*
X46688238Y-70683380D01*
X47021571Y-69683380D01*
X39386095Y-70302428D02*
X40148000Y-70302428D01*
X39767047Y-70683380D02*
X39767047Y-69921476D01*
X41148000Y-70683380D02*
X40576571Y-70683380D01*
X40862285Y-70683380D02*
X40862285Y-69683380D01*
X40767047Y-69826238D01*
X40671809Y-69921476D01*
X40576571Y-69969095D01*
X41528952Y-69778619D02*
X41576571Y-69731000D01*
X41671809Y-69683380D01*
X41909904Y-69683380D01*
X42005142Y-69731000D01*
X42052761Y-69778619D01*
X42100380Y-69873857D01*
X42100380Y-69969095D01*
X42052761Y-70111952D01*
X41481333Y-70683380D01*
X42100380Y-70683380D01*
X42386095Y-69683380D02*
X42719428Y-70683380D01*
X43052761Y-69683380D01*
D11*
X77470000Y-44390000D02*
X77470000Y-47050000D01*
X77470000Y-44390000D02*
X74870000Y-44390000D01*
X70485000Y-36770000D02*
X70485000Y-39430000D01*
X70485000Y-36770000D02*
X67885000Y-36770000D01*
X81280000Y-65980000D02*
X78680000Y-65980000D01*
X78680000Y-65980000D02*
X78680000Y-68640000D01*
X33220000Y-56480000D02*
X30280000Y-56480000D01*
X33220000Y-56720000D02*
X30280000Y-56720000D01*
X33220000Y-56600000D02*
X30280000Y-56600000D01*
X31750000Y-62160000D02*
X31750000Y-61140000D01*
X31750000Y-54680000D02*
X31750000Y-55700000D01*
X33220000Y-61140000D02*
X33220000Y-55700000D01*
X30280000Y-61140000D02*
X33220000Y-61140000D01*
X30280000Y-55700000D02*
X30280000Y-61140000D01*
X33220000Y-55700000D02*
X30280000Y-55700000D01*
X60195000Y-40510000D02*
X60195000Y-58550000D01*
X103635000Y-40510000D02*
X60195000Y-40510000D01*
X103635000Y-58550000D02*
X103635000Y-40510000D01*
X100965000Y-55880000D02*
X100965000Y-58550000D01*
X65405000Y-55880000D02*
X100965000Y-55880000D01*
X65405000Y-55880000D02*
X65405000Y-58550000D01*
X100965000Y-43180000D02*
X100965000Y-40510000D01*
X62865000Y-43180000D02*
X100965000Y-43180000D01*
X62865000Y-43180000D02*
X62865000Y-40510000D01*
X60195000Y-58550000D02*
X62865000Y-58550000D01*
X65405000Y-58550000D02*
X103635000Y-58550000D01*
X62865000Y-55880000D02*
X62865000Y-58550000D01*
X65405000Y-55880000D02*
X62865000Y-55880000D01*
D12*
X101035000Y-53240000D02*
X101035000Y-58430000D01*
X106145000Y-53240000D02*
X101035000Y-53240000D01*
X101035000Y-45620000D02*
X106145000Y-45620000D01*
X106135000Y-53240000D02*
X106135000Y-45620000D01*
X101035000Y-40450000D02*
X101035000Y-45620000D01*
D11*
X36920000Y-55000000D02*
X36920000Y-59980000D01*
X34200000Y-55000000D02*
X34200000Y-59980000D01*
X36920000Y-55000000D02*
X34200000Y-55000000D01*
X35580000Y-76120000D02*
X35580000Y-70150000D01*
X35580000Y-70150000D02*
X22960000Y-70150000D01*
X22960000Y-70150000D02*
X22960000Y-76120000D01*
X22960000Y-76120000D02*
X35580000Y-76120000D01*
X32270000Y-76110000D02*
X32270000Y-75360000D01*
X32270000Y-75360000D02*
X26270000Y-75360000D01*
X26270000Y-75360000D02*
X26270000Y-76110000D01*
X26270000Y-76110000D02*
X32270000Y-76110000D01*
X35570000Y-76110000D02*
X35570000Y-75360000D01*
X35570000Y-75360000D02*
X33770000Y-75360000D01*
X33770000Y-75360000D02*
X33770000Y-76110000D01*
X33770000Y-76110000D02*
X35570000Y-76110000D01*
X24770000Y-76110000D02*
X24770000Y-75360000D01*
X24770000Y-75360000D02*
X22970000Y-75360000D01*
X22970000Y-75360000D02*
X22970000Y-76110000D01*
X22970000Y-76110000D02*
X24770000Y-76110000D01*
X35570000Y-73860000D02*
X34820000Y-73860000D01*
X34820000Y-73860000D02*
X34820000Y-70910000D01*
X34820000Y-70910000D02*
X29270000Y-70910000D01*
X22970000Y-73860000D02*
X23720000Y-73860000D01*
X23720000Y-73860000D02*
X23720000Y-70910000D01*
X23720000Y-70910000D02*
X29270000Y-70910000D01*
X34620000Y-76410000D02*
X35870000Y-76410000D01*
X35870000Y-76410000D02*
X35870000Y-75160000D01*
X123400000Y-32710000D02*
X122150000Y-32710000D01*
X123400000Y-33960000D02*
X123400000Y-32710000D01*
X117900000Y-44860000D02*
X117900000Y-39310000D01*
X120850000Y-44860000D02*
X117900000Y-44860000D01*
X120850000Y-45610000D02*
X120850000Y-44860000D01*
X117900000Y-33760000D02*
X117900000Y-39310000D01*
X120850000Y-33760000D02*
X117900000Y-33760000D01*
X120850000Y-33010000D02*
X120850000Y-33760000D01*
X123100000Y-45610000D02*
X123100000Y-43810000D01*
X122350000Y-45610000D02*
X123100000Y-45610000D01*
X122350000Y-43810000D02*
X122350000Y-45610000D01*
X123100000Y-43810000D02*
X122350000Y-43810000D01*
X123100000Y-34810000D02*
X123100000Y-33010000D01*
X122350000Y-34810000D02*
X123100000Y-34810000D01*
X122350000Y-33010000D02*
X122350000Y-34810000D01*
X123100000Y-33010000D02*
X122350000Y-33010000D01*
X123100000Y-42310000D02*
X123100000Y-36310000D01*
X122350000Y-42310000D02*
X123100000Y-42310000D01*
X122350000Y-36310000D02*
X122350000Y-42310000D01*
X123100000Y-36310000D02*
X122350000Y-36310000D01*
X123110000Y-45620000D02*
X123110000Y-33000000D01*
X117140000Y-45620000D02*
X123110000Y-45620000D01*
X117140000Y-33000000D02*
X117140000Y-45620000D01*
X123110000Y-33000000D02*
X117140000Y-33000000D01*
D10*
X33960000Y-27520000D02*
X33960000Y-26145000D01*
X24184200Y-27520000D02*
X24184200Y-32170000D01*
X34185000Y-27520000D02*
X34185000Y-32170000D01*
X24184200Y-27520000D02*
X24509200Y-27520000D01*
X24184200Y-32170000D02*
X24509200Y-32170000D01*
X34185000Y-32170000D02*
X33860000Y-32170000D01*
X34185000Y-27520000D02*
X33960000Y-27520000D01*
D11*
X115630000Y-32445000D02*
X114300000Y-32445000D01*
X115630000Y-31115000D02*
X115630000Y-32445000D01*
X115630000Y-29845000D02*
X112970000Y-29845000D01*
X112970000Y-29845000D02*
X112970000Y-14545000D01*
X115630000Y-29845000D02*
X115630000Y-14545000D01*
X115630000Y-14545000D02*
X112970000Y-14545000D01*
X51515000Y-42545000D02*
G75*
G03X51515000Y-42545000I-5120000J0D01*
G01*
X29920000Y-38228748D02*
X29920000Y-38751252D01*
X28500000Y-38228748D02*
X28500000Y-38751252D01*
X41291252Y-23570000D02*
X40768748Y-23570000D01*
X41291252Y-22150000D02*
X40768748Y-22150000D01*
X23511252Y-23570000D02*
X22988748Y-23570000D01*
X23511252Y-22150000D02*
X22988748Y-22150000D01*
X38810000Y-26798748D02*
X38810000Y-27321252D01*
X37390000Y-26798748D02*
X37390000Y-27321252D01*
X34908748Y-22150000D02*
X35431252Y-22150000D01*
X34908748Y-23570000D02*
X35431252Y-23570000D01*
X17128748Y-22150000D02*
X17651252Y-22150000D01*
X17128748Y-23570000D02*
X17651252Y-23570000D01*
X19610000Y-33671252D02*
X19610000Y-33148748D01*
X21030000Y-33671252D02*
X21030000Y-33148748D01*
X85741252Y-37540000D02*
X85218748Y-37540000D01*
X85741252Y-36120000D02*
X85218748Y-36120000D01*
X78088748Y-36120000D02*
X78611252Y-36120000D01*
X78088748Y-37540000D02*
X78611252Y-37540000D01*
X111200000Y-30463748D02*
X111200000Y-30986252D01*
X109780000Y-30463748D02*
X109780000Y-30986252D01*
X113340000Y-76410000D02*
X113340000Y-75160000D01*
X112090000Y-76410000D02*
X113340000Y-76410000D01*
X101190000Y-70910000D02*
X106740000Y-70910000D01*
X101190000Y-73860000D02*
X101190000Y-70910000D01*
X100440000Y-73860000D02*
X101190000Y-73860000D01*
X112290000Y-70910000D02*
X106740000Y-70910000D01*
X112290000Y-73860000D02*
X112290000Y-70910000D01*
X113040000Y-73860000D02*
X112290000Y-73860000D01*
X100440000Y-76110000D02*
X102240000Y-76110000D01*
X100440000Y-75360000D02*
X100440000Y-76110000D01*
X102240000Y-75360000D02*
X100440000Y-75360000D01*
X102240000Y-76110000D02*
X102240000Y-75360000D01*
X111240000Y-76110000D02*
X113040000Y-76110000D01*
X111240000Y-75360000D02*
X111240000Y-76110000D01*
X113040000Y-75360000D02*
X111240000Y-75360000D01*
X113040000Y-76110000D02*
X113040000Y-75360000D01*
X103740000Y-76110000D02*
X109740000Y-76110000D01*
X103740000Y-75360000D02*
X103740000Y-76110000D01*
X109740000Y-75360000D02*
X103740000Y-75360000D01*
X109740000Y-76110000D02*
X109740000Y-75360000D01*
X100430000Y-76120000D02*
X113050000Y-76120000D01*
X100430000Y-70150000D02*
X100430000Y-76120000D01*
X113050000Y-70150000D02*
X100430000Y-70150000D01*
X113050000Y-76120000D02*
X113050000Y-70150000D01*
X63810000Y-76410000D02*
X63810000Y-75160000D01*
X62560000Y-76410000D02*
X63810000Y-76410000D01*
X51660000Y-70910000D02*
X57210000Y-70910000D01*
X51660000Y-73860000D02*
X51660000Y-70910000D01*
X50910000Y-73860000D02*
X51660000Y-73860000D01*
X62760000Y-70910000D02*
X57210000Y-70910000D01*
X62760000Y-73860000D02*
X62760000Y-70910000D01*
X63510000Y-73860000D02*
X62760000Y-73860000D01*
X50910000Y-76110000D02*
X52710000Y-76110000D01*
X50910000Y-75360000D02*
X50910000Y-76110000D01*
X52710000Y-75360000D02*
X50910000Y-75360000D01*
X52710000Y-76110000D02*
X52710000Y-75360000D01*
X61710000Y-76110000D02*
X63510000Y-76110000D01*
X61710000Y-75360000D02*
X61710000Y-76110000D01*
X63510000Y-75360000D02*
X61710000Y-75360000D01*
X63510000Y-76110000D02*
X63510000Y-75360000D01*
X54210000Y-76110000D02*
X60210000Y-76110000D01*
X54210000Y-75360000D02*
X54210000Y-76110000D01*
X60210000Y-75360000D02*
X54210000Y-75360000D01*
X60210000Y-76110000D02*
X60210000Y-75360000D01*
X50900000Y-76120000D02*
X63520000Y-76120000D01*
X50900000Y-70150000D02*
X50900000Y-76120000D01*
X63520000Y-70150000D02*
X50900000Y-70150000D01*
X63520000Y-76120000D02*
X63520000Y-70150000D01*
X96830000Y-76410000D02*
X96830000Y-75160000D01*
X95580000Y-76410000D02*
X96830000Y-76410000D01*
X84680000Y-70910000D02*
X90230000Y-70910000D01*
X84680000Y-73860000D02*
X84680000Y-70910000D01*
X83930000Y-73860000D02*
X84680000Y-73860000D01*
X95780000Y-70910000D02*
X90230000Y-70910000D01*
X95780000Y-73860000D02*
X95780000Y-70910000D01*
X96530000Y-73860000D02*
X95780000Y-73860000D01*
X83930000Y-76110000D02*
X85730000Y-76110000D01*
X83930000Y-75360000D02*
X83930000Y-76110000D01*
X85730000Y-75360000D02*
X83930000Y-75360000D01*
X85730000Y-76110000D02*
X85730000Y-75360000D01*
X94730000Y-76110000D02*
X96530000Y-76110000D01*
X94730000Y-75360000D02*
X94730000Y-76110000D01*
X96530000Y-75360000D02*
X94730000Y-75360000D01*
X96530000Y-76110000D02*
X96530000Y-75360000D01*
X87230000Y-76110000D02*
X93230000Y-76110000D01*
X87230000Y-75360000D02*
X87230000Y-76110000D01*
X93230000Y-75360000D02*
X87230000Y-75360000D01*
X93230000Y-76110000D02*
X93230000Y-75360000D01*
X83920000Y-76120000D02*
X96540000Y-76120000D01*
X83920000Y-70150000D02*
X83920000Y-76120000D01*
X96540000Y-70150000D02*
X83920000Y-70150000D01*
X96540000Y-76120000D02*
X96540000Y-70150000D01*
X22840000Y-13415000D02*
X22840000Y-19385000D01*
X22840000Y-19385000D02*
X35460000Y-19385000D01*
X35460000Y-19385000D02*
X35460000Y-13415000D01*
X35460000Y-13415000D02*
X22840000Y-13415000D01*
X26150000Y-13425000D02*
X26150000Y-14175000D01*
X26150000Y-14175000D02*
X32150000Y-14175000D01*
X32150000Y-14175000D02*
X32150000Y-13425000D01*
X32150000Y-13425000D02*
X26150000Y-13425000D01*
X22850000Y-13425000D02*
X22850000Y-14175000D01*
X22850000Y-14175000D02*
X24650000Y-14175000D01*
X24650000Y-14175000D02*
X24650000Y-13425000D01*
X24650000Y-13425000D02*
X22850000Y-13425000D01*
X33650000Y-13425000D02*
X33650000Y-14175000D01*
X33650000Y-14175000D02*
X35450000Y-14175000D01*
X35450000Y-14175000D02*
X35450000Y-13425000D01*
X35450000Y-13425000D02*
X33650000Y-13425000D01*
X22850000Y-15675000D02*
X23600000Y-15675000D01*
X23600000Y-15675000D02*
X23600000Y-18625000D01*
X23600000Y-18625000D02*
X29150000Y-18625000D01*
X35450000Y-15675000D02*
X34700000Y-15675000D01*
X34700000Y-15675000D02*
X34700000Y-18625000D01*
X34700000Y-18625000D02*
X29150000Y-18625000D01*
X23800000Y-13125000D02*
X22550000Y-13125000D01*
X22550000Y-13125000D02*
X22550000Y-14375000D01*
X80320000Y-76410000D02*
X80320000Y-75160000D01*
X79070000Y-76410000D02*
X80320000Y-76410000D01*
X68170000Y-70910000D02*
X73720000Y-70910000D01*
X68170000Y-73860000D02*
X68170000Y-70910000D01*
X67420000Y-73860000D02*
X68170000Y-73860000D01*
X79270000Y-70910000D02*
X73720000Y-70910000D01*
X79270000Y-73860000D02*
X79270000Y-70910000D01*
X80020000Y-73860000D02*
X79270000Y-73860000D01*
X67420000Y-76110000D02*
X69220000Y-76110000D01*
X67420000Y-75360000D02*
X67420000Y-76110000D01*
X69220000Y-75360000D02*
X67420000Y-75360000D01*
X69220000Y-76110000D02*
X69220000Y-75360000D01*
X78220000Y-76110000D02*
X80020000Y-76110000D01*
X78220000Y-75360000D02*
X78220000Y-76110000D01*
X80020000Y-75360000D02*
X78220000Y-75360000D01*
X80020000Y-76110000D02*
X80020000Y-75360000D01*
X70720000Y-76110000D02*
X76720000Y-76110000D01*
X70720000Y-75360000D02*
X70720000Y-76110000D01*
X76720000Y-75360000D02*
X70720000Y-75360000D01*
X76720000Y-76110000D02*
X76720000Y-75360000D01*
X67410000Y-76120000D02*
X80030000Y-76120000D01*
X67410000Y-70150000D02*
X67410000Y-76120000D01*
X80030000Y-70150000D02*
X67410000Y-70150000D01*
X80030000Y-76120000D02*
X80030000Y-70150000D01*
X123400000Y-56840000D02*
X122150000Y-56840000D01*
X123400000Y-58090000D02*
X123400000Y-56840000D01*
X117900000Y-68990000D02*
X117900000Y-63440000D01*
X120850000Y-68990000D02*
X117900000Y-68990000D01*
X120850000Y-69740000D02*
X120850000Y-68990000D01*
X117900000Y-57890000D02*
X117900000Y-63440000D01*
X120850000Y-57890000D02*
X117900000Y-57890000D01*
X120850000Y-57140000D02*
X120850000Y-57890000D01*
X123100000Y-69740000D02*
X123100000Y-67940000D01*
X122350000Y-69740000D02*
X123100000Y-69740000D01*
X122350000Y-67940000D02*
X122350000Y-69740000D01*
X123100000Y-67940000D02*
X122350000Y-67940000D01*
X123100000Y-58940000D02*
X123100000Y-57140000D01*
X122350000Y-58940000D02*
X123100000Y-58940000D01*
X122350000Y-57140000D02*
X122350000Y-58940000D01*
X123100000Y-57140000D02*
X122350000Y-57140000D01*
X123100000Y-66440000D02*
X123100000Y-60440000D01*
X122350000Y-66440000D02*
X123100000Y-66440000D01*
X122350000Y-60440000D02*
X122350000Y-66440000D01*
X123100000Y-60440000D02*
X122350000Y-60440000D01*
X123110000Y-69750000D02*
X123110000Y-57130000D01*
X117140000Y-69750000D02*
X123110000Y-69750000D01*
X117140000Y-57130000D02*
X117140000Y-69750000D01*
X123110000Y-57130000D02*
X117140000Y-57130000D01*
X55695436Y-50440000D02*
X56899564Y-50440000D01*
X55695436Y-48620000D02*
X56899564Y-48620000D01*
X61575000Y-49595000D02*
X61575000Y-53045000D01*
X61575000Y-49595000D02*
X61575000Y-47645000D01*
X66695000Y-49595000D02*
X66695000Y-51545000D01*
X66695000Y-49595000D02*
X66695000Y-47645000D01*
X103495000Y-49595000D02*
X103495000Y-47645000D01*
X103495000Y-49595000D02*
X103495000Y-51545000D01*
X94625000Y-49595000D02*
X94625000Y-47645000D01*
X94625000Y-49595000D02*
X94625000Y-53045000D01*
X85325000Y-26690000D02*
X84065000Y-26690000D01*
X78505000Y-26690000D02*
X79765000Y-26690000D01*
X85325000Y-30450000D02*
X85325000Y-26690000D01*
X78505000Y-32700000D02*
X78505000Y-26690000D01*
X72406252Y-48820000D02*
X71883748Y-48820000D01*
X72406252Y-50240000D02*
X71883748Y-50240000D01*
X55863748Y-54050000D02*
X56386252Y-54050000D01*
X55863748Y-52630000D02*
X56386252Y-52630000D01*
X56386252Y-45010000D02*
X55863748Y-45010000D01*
X56386252Y-46430000D02*
X55863748Y-46430000D01*
X107298748Y-60400000D02*
X107821252Y-60400000D01*
X107298748Y-58980000D02*
X107821252Y-58980000D01*
X113013748Y-66600000D02*
X113536252Y-66600000D01*
X113013748Y-68020000D02*
X113536252Y-68020000D01*
X69833748Y-66600000D02*
X70356252Y-66600000D01*
X69833748Y-68020000D02*
X70356252Y-68020000D01*
X41291252Y-20395000D02*
X40768748Y-20395000D01*
X41291252Y-18975000D02*
X40768748Y-18975000D01*
X113536252Y-47550000D02*
X113013748Y-47550000D01*
X113536252Y-48970000D02*
X113013748Y-48970000D01*
X59673748Y-66600000D02*
X60196252Y-66600000D01*
X59673748Y-68020000D02*
X60196252Y-68020000D01*
X107298748Y-45160000D02*
X107821252Y-45160000D01*
X107298748Y-43740000D02*
X107821252Y-43740000D01*
X24055000Y-44321252D02*
X24055000Y-43798748D01*
X25475000Y-44321252D02*
X25475000Y-43798748D01*
X107298748Y-39930000D02*
X107821252Y-39930000D01*
X107298748Y-41350000D02*
X107821252Y-41350000D01*
X46483748Y-18975000D02*
X47006252Y-18975000D01*
X46483748Y-20395000D02*
X47006252Y-20395000D01*
X53846252Y-68020000D02*
X53323748Y-68020000D01*
X53846252Y-66600000D02*
X53323748Y-66600000D01*
X21030000Y-26798748D02*
X21030000Y-27321252D01*
X19610000Y-26798748D02*
X19610000Y-27321252D01*
X21030000Y-38228748D02*
X21030000Y-38751252D01*
X19610000Y-38228748D02*
X19610000Y-38751252D01*
X34365000Y-38228748D02*
X34365000Y-38751252D01*
X32945000Y-38228748D02*
X32945000Y-38751252D01*
X21030000Y-43798748D02*
X21030000Y-44321252D01*
X19610000Y-43798748D02*
X19610000Y-44321252D01*
X29920000Y-43798748D02*
X29920000Y-44321252D01*
X28500000Y-43798748D02*
X28500000Y-44321252D01*
X25348000Y-38228748D02*
X25348000Y-38751252D01*
X23928000Y-38228748D02*
X23928000Y-38751252D01*
X38810000Y-43798748D02*
X38810000Y-44321252D01*
X37390000Y-43798748D02*
X37390000Y-44321252D01*
X34365000Y-43798748D02*
X34365000Y-44321252D01*
X32945000Y-43798748D02*
X32945000Y-44321252D01*
X38810000Y-38228748D02*
X38810000Y-38751252D01*
X37390000Y-38228748D02*
X37390000Y-38751252D01*
X39353748Y-66600000D02*
X39876252Y-66600000D01*
X39353748Y-68020000D02*
X39876252Y-68020000D01*
X40315000Y-14485000D02*
X40315000Y-17345000D01*
X40315000Y-17345000D02*
X42235000Y-17345000D01*
X42235000Y-17345000D02*
X42235000Y-14485000D01*
X46680000Y-17345000D02*
X46680000Y-14485000D01*
X44760000Y-17345000D02*
X46680000Y-17345000D01*
X44760000Y-14485000D02*
X44760000Y-17345000D01*
X44760000Y-71635000D02*
X44760000Y-74495000D01*
X44760000Y-74495000D02*
X46680000Y-74495000D01*
X46680000Y-74495000D02*
X46680000Y-71635000D01*
X40315000Y-71635000D02*
X40315000Y-74495000D01*
X40315000Y-74495000D02*
X42235000Y-74495000D01*
X42235000Y-74495000D02*
X42235000Y-71635000D01*
X57350000Y-27760000D02*
X54410000Y-27760000D01*
X54410000Y-27760000D02*
X54410000Y-33200000D01*
X54410000Y-33200000D02*
X57350000Y-33200000D01*
X57350000Y-33200000D02*
X57350000Y-27760000D01*
X55880000Y-26740000D02*
X55880000Y-27760000D01*
X55880000Y-34220000D02*
X55880000Y-33200000D01*
X57350000Y-28660000D02*
X54410000Y-28660000D01*
X57350000Y-28780000D02*
X54410000Y-28780000D01*
X57350000Y-28540000D02*
X54410000Y-28540000D01*
X28120000Y-53550000D02*
X22680000Y-53550000D01*
X22680000Y-53550000D02*
X22680000Y-63290000D01*
X22680000Y-63290000D02*
X28120000Y-63290000D01*
X28120000Y-63290000D02*
X28120000Y-53550000D01*
X25400000Y-52640000D02*
X25400000Y-53550000D01*
X25400000Y-64200000D02*
X25400000Y-63290000D01*
X28120000Y-55095000D02*
X22680000Y-55095000D01*
X28120000Y-55215000D02*
X22680000Y-55215000D01*
X28120000Y-54975000D02*
X22680000Y-54975000D01*
X90676252Y-48820000D02*
X90153748Y-48820000D01*
X90676252Y-50240000D02*
X90153748Y-50240000D01*
X71883748Y-54050000D02*
X72406252Y-54050000D01*
X71883748Y-52630000D02*
X72406252Y-52630000D01*
X113013748Y-60400000D02*
X113536252Y-60400000D01*
X113013748Y-58980000D02*
X113536252Y-58980000D01*
X113013748Y-41350000D02*
X113536252Y-41350000D01*
X113013748Y-39930000D02*
X113536252Y-39930000D01*
X113013748Y-45160000D02*
X113536252Y-45160000D01*
X113013748Y-43740000D02*
X113536252Y-43740000D01*
X71883748Y-46430000D02*
X72406252Y-46430000D01*
X71883748Y-45010000D02*
X72406252Y-45010000D01*
X113013748Y-36120000D02*
X113536252Y-36120000D01*
X113013748Y-37540000D02*
X113536252Y-37540000D01*
X90788748Y-66600000D02*
X91311252Y-66600000D01*
X90788748Y-68020000D02*
X91311252Y-68020000D01*
X107298748Y-68020000D02*
X107821252Y-68020000D01*
X107298748Y-66600000D02*
X107821252Y-66600000D01*
X50825000Y-34840000D02*
X50825000Y-31990000D01*
X50825000Y-26120000D02*
X50825000Y-28970000D01*
X43169437Y-26120000D02*
X50825000Y-26120000D01*
X43169437Y-34840000D02*
X50825000Y-34840000D01*
X42105000Y-33775563D02*
X42105000Y-31990000D01*
X42105000Y-27184437D02*
X42105000Y-28970000D01*
X42105000Y-27184437D02*
X43169437Y-26120000D01*
X42105000Y-33775563D02*
X43169437Y-34840000D01*
X40865000Y-27970000D02*
X41865000Y-27970000D01*
X41365000Y-27470000D02*
X41365000Y-28470000D01*
X103685000Y-24395000D02*
X99935000Y-24395000D01*
X93165000Y-24395000D02*
X96915000Y-24395000D01*
X93165000Y-33850563D02*
X93165000Y-24395000D01*
X103685000Y-33850563D02*
X103685000Y-24395000D01*
X102620563Y-34915000D02*
X99935000Y-34915000D01*
X94229437Y-34915000D02*
X96915000Y-34915000D01*
X94229437Y-34915000D02*
X93165000Y-33850563D01*
X102620563Y-34915000D02*
X103685000Y-33850563D01*
X95665000Y-36405000D02*
X95665000Y-35155000D01*
X95040000Y-35780000D02*
X96290000Y-35780000D01*
X70665000Y-24395000D02*
X66915000Y-24395000D01*
X60145000Y-24395000D02*
X63895000Y-24395000D01*
X60145000Y-33850563D02*
X60145000Y-24395000D01*
X70665000Y-33850563D02*
X70665000Y-24395000D01*
X69600563Y-34915000D02*
X66915000Y-34915000D01*
X61209437Y-34915000D02*
X63895000Y-34915000D01*
X61209437Y-34915000D02*
X60145000Y-33850563D01*
X69600563Y-34915000D02*
X70665000Y-33850563D01*
X62645000Y-36405000D02*
X62645000Y-35155000D01*
X62020000Y-35780000D02*
X63270000Y-35780000D01*
X53955000Y-59045000D02*
G75*
G03X53955000Y-59045000I-7600000J0D01*
G01*
D10*
X28852904Y-62809380D02*
X28852904Y-61809380D01*
X29091000Y-61809380D01*
X29233857Y-61857000D01*
X29329095Y-61952238D01*
X29376714Y-62047476D01*
X29424333Y-62237952D01*
X29424333Y-62380809D01*
X29376714Y-62571285D01*
X29329095Y-62666523D01*
X29233857Y-62761761D01*
X29091000Y-62809380D01*
X28852904Y-62809380D01*
X29805285Y-61904619D02*
X29852904Y-61857000D01*
X29948142Y-61809380D01*
X30186238Y-61809380D01*
X30281476Y-61857000D01*
X30329095Y-61904619D01*
X30376714Y-61999857D01*
X30376714Y-62095095D01*
X30329095Y-62237952D01*
X29757666Y-62809380D01*
X30376714Y-62809380D01*
X29456095Y-56586380D02*
X29456095Y-55586380D01*
X30027523Y-56586380D02*
X29598952Y-56014952D01*
X30027523Y-55586380D02*
X29456095Y-56157809D01*
X90265857Y-59602666D02*
X90742047Y-59602666D01*
X90170619Y-59888380D02*
X90503952Y-58888380D01*
X90837285Y-59888380D01*
X91170619Y-59888380D02*
X91170619Y-59221714D01*
X91170619Y-59412190D02*
X91218238Y-59316952D01*
X91265857Y-59269333D01*
X91361095Y-59221714D01*
X91456333Y-59221714D01*
X92218238Y-59888380D02*
X92218238Y-58888380D01*
X92218238Y-59840761D02*
X92123000Y-59888380D01*
X91932523Y-59888380D01*
X91837285Y-59840761D01*
X91789666Y-59793142D01*
X91742047Y-59697904D01*
X91742047Y-59412190D01*
X91789666Y-59316952D01*
X91837285Y-59269333D01*
X91932523Y-59221714D01*
X92123000Y-59221714D01*
X92218238Y-59269333D01*
X93123000Y-59221714D02*
X93123000Y-59888380D01*
X92694428Y-59221714D02*
X92694428Y-59745523D01*
X92742047Y-59840761D01*
X92837285Y-59888380D01*
X92980142Y-59888380D01*
X93075380Y-59840761D01*
X93123000Y-59793142D01*
X93599190Y-59888380D02*
X93599190Y-59221714D01*
X93599190Y-58888380D02*
X93551571Y-58936000D01*
X93599190Y-58983619D01*
X93646809Y-58936000D01*
X93599190Y-58888380D01*
X93599190Y-58983619D01*
X94075380Y-59221714D02*
X94075380Y-59888380D01*
X94075380Y-59316952D02*
X94123000Y-59269333D01*
X94218238Y-59221714D01*
X94361095Y-59221714D01*
X94456333Y-59269333D01*
X94503952Y-59364571D01*
X94503952Y-59888380D01*
X95123000Y-59888380D02*
X95027761Y-59840761D01*
X94980142Y-59793142D01*
X94932523Y-59697904D01*
X94932523Y-59412190D01*
X94980142Y-59316952D01*
X95027761Y-59269333D01*
X95123000Y-59221714D01*
X95265857Y-59221714D01*
X95361095Y-59269333D01*
X95408714Y-59316952D01*
X95456333Y-59412190D01*
X95456333Y-59697904D01*
X95408714Y-59793142D01*
X95361095Y-59840761D01*
X95265857Y-59888380D01*
X95123000Y-59888380D01*
X95646809Y-59983619D02*
X96408714Y-59983619D01*
X96646809Y-59888380D02*
X96646809Y-58888380D01*
X97218238Y-59888380D01*
X97218238Y-58888380D01*
X98123000Y-59888380D02*
X98123000Y-59364571D01*
X98075380Y-59269333D01*
X97980142Y-59221714D01*
X97789666Y-59221714D01*
X97694428Y-59269333D01*
X98123000Y-59840761D02*
X98027761Y-59888380D01*
X97789666Y-59888380D01*
X97694428Y-59840761D01*
X97646809Y-59745523D01*
X97646809Y-59650285D01*
X97694428Y-59555047D01*
X97789666Y-59507428D01*
X98027761Y-59507428D01*
X98123000Y-59459809D01*
X98599190Y-59221714D02*
X98599190Y-59888380D01*
X98599190Y-59316952D02*
X98646809Y-59269333D01*
X98742047Y-59221714D01*
X98884904Y-59221714D01*
X98980142Y-59269333D01*
X99027761Y-59364571D01*
X99027761Y-59888380D01*
X99646809Y-59888380D02*
X99551571Y-59840761D01*
X99503952Y-59793142D01*
X99456333Y-59697904D01*
X99456333Y-59412190D01*
X99503952Y-59316952D01*
X99551571Y-59269333D01*
X99646809Y-59221714D01*
X99789666Y-59221714D01*
X99884904Y-59269333D01*
X99932523Y-59316952D01*
X99980142Y-59412190D01*
X99980142Y-59697904D01*
X99932523Y-59793142D01*
X99884904Y-59840761D01*
X99789666Y-59888380D01*
X99646809Y-59888380D01*
X36091904Y-62936380D02*
X36091904Y-61936380D01*
X36330000Y-61936380D01*
X36472857Y-61984000D01*
X36568095Y-62079238D01*
X36615714Y-62174476D01*
X36663333Y-62364952D01*
X36663333Y-62507809D01*
X36615714Y-62698285D01*
X36568095Y-62793523D01*
X36472857Y-62888761D01*
X36330000Y-62936380D01*
X36091904Y-62936380D01*
X36996666Y-61936380D02*
X37663333Y-61936380D01*
X37234761Y-62936380D01*
X23337818Y-68399060D02*
X23337818Y-68698599D01*
X23038279Y-68578783D02*
X23337818Y-68698599D01*
X23637357Y-68578783D01*
X23158094Y-68938230D02*
X23337818Y-68698599D01*
X23517541Y-68938230D01*
X25075144Y-69657124D02*
X25075144Y-68399060D01*
X25554407Y-68399060D01*
X25674222Y-68458968D01*
X25734130Y-68518875D01*
X25794038Y-68638691D01*
X25794038Y-68818414D01*
X25734130Y-68938230D01*
X25674222Y-68998138D01*
X25554407Y-69058046D01*
X25075144Y-69058046D01*
X26572840Y-68399060D02*
X26812471Y-68399060D01*
X26932286Y-68458968D01*
X27052102Y-68578783D01*
X27112010Y-68818414D01*
X27112010Y-69237769D01*
X27052102Y-69477400D01*
X26932286Y-69597216D01*
X26812471Y-69657124D01*
X26572840Y-69657124D01*
X26453024Y-69597216D01*
X26333208Y-69477400D01*
X26273300Y-69237769D01*
X26273300Y-68818414D01*
X26333208Y-68578783D01*
X26453024Y-68458968D01*
X26572840Y-68399060D01*
X27531364Y-68399060D02*
X27830904Y-69657124D01*
X28070535Y-68758507D01*
X28310166Y-69657124D01*
X28609705Y-68399060D01*
X29088968Y-68998138D02*
X29508322Y-68998138D01*
X29688046Y-69657124D02*
X29088968Y-69657124D01*
X29088968Y-68399060D01*
X29688046Y-68399060D01*
X30946110Y-69657124D02*
X30526755Y-69058046D01*
X30227216Y-69657124D02*
X30227216Y-68399060D01*
X30706478Y-68399060D01*
X30826294Y-68458968D01*
X30886202Y-68518875D01*
X30946110Y-68638691D01*
X30946110Y-68818414D01*
X30886202Y-68938230D01*
X30826294Y-68998138D01*
X30706478Y-69058046D01*
X30227216Y-69058046D01*
X32144266Y-69657124D02*
X31425372Y-69657124D01*
X31784819Y-69657124D02*
X31784819Y-68399060D01*
X31665003Y-68578783D01*
X31545188Y-68698599D01*
X31425372Y-68758507D01*
X32623528Y-68518875D02*
X32683436Y-68458968D01*
X32803252Y-68399060D01*
X33102791Y-68399060D01*
X33222606Y-68458968D01*
X33282514Y-68518875D01*
X33342422Y-68638691D01*
X33342422Y-68758507D01*
X33282514Y-68938230D01*
X32563620Y-69657124D01*
X33342422Y-69657124D01*
X33701869Y-68399060D02*
X34121224Y-69657124D01*
X34540578Y-68399060D01*
X36098181Y-68399060D02*
X36098181Y-68698599D01*
X35798642Y-68578783D02*
X36098181Y-68698599D01*
X36397720Y-68578783D01*
X35918458Y-68938230D02*
X36098181Y-68698599D01*
X36277905Y-68938230D01*
X117697476Y-32202380D02*
X117697476Y-31202380D01*
X118268904Y-32202380D02*
X117840333Y-31630952D01*
X118268904Y-31202380D02*
X117697476Y-31773809D01*
X118697476Y-32202380D02*
X118697476Y-31202380D01*
X119268904Y-32202380D01*
X119268904Y-31202380D01*
X119935571Y-31202380D02*
X120126047Y-31202380D01*
X120221285Y-31250000D01*
X120316523Y-31345238D01*
X120364142Y-31535714D01*
X120364142Y-31869047D01*
X120316523Y-32059523D01*
X120221285Y-32154761D01*
X120126047Y-32202380D01*
X119935571Y-32202380D01*
X119840333Y-32154761D01*
X119745095Y-32059523D01*
X119697476Y-31869047D01*
X119697476Y-31535714D01*
X119745095Y-31345238D01*
X119840333Y-31250000D01*
X119935571Y-31202380D01*
X121126047Y-31678571D02*
X121268904Y-31726190D01*
X121316523Y-31773809D01*
X121364142Y-31869047D01*
X121364142Y-32011904D01*
X121316523Y-32107142D01*
X121268904Y-32154761D01*
X121173666Y-32202380D01*
X120792714Y-32202380D01*
X120792714Y-31202380D01*
X121126047Y-31202380D01*
X121221285Y-31250000D01*
X121268904Y-31297619D01*
X121316523Y-31392857D01*
X121316523Y-31488095D01*
X121268904Y-31583333D01*
X121221285Y-31630952D01*
X121126047Y-31678571D01*
X120792714Y-31678571D01*
X34798095Y-29297380D02*
X34798095Y-30106904D01*
X34845714Y-30202142D01*
X34893333Y-30249761D01*
X34988571Y-30297380D01*
X35179047Y-30297380D01*
X35274285Y-30249761D01*
X35321904Y-30202142D01*
X35369523Y-30106904D01*
X35369523Y-29297380D01*
X35798095Y-29392619D02*
X35845714Y-29345000D01*
X35940952Y-29297380D01*
X36179047Y-29297380D01*
X36274285Y-29345000D01*
X36321904Y-29392619D01*
X36369523Y-29487857D01*
X36369523Y-29583095D01*
X36321904Y-29725952D01*
X35750476Y-30297380D01*
X36369523Y-30297380D01*
X112196904Y-13787380D02*
X112196904Y-12787380D01*
X112435000Y-12787380D01*
X112577857Y-12835000D01*
X112673095Y-12930238D01*
X112720714Y-13025476D01*
X112768333Y-13215952D01*
X112768333Y-13358809D01*
X112720714Y-13549285D01*
X112673095Y-13644523D01*
X112577857Y-13739761D01*
X112435000Y-13787380D01*
X112196904Y-13787380D01*
X113196904Y-13787380D02*
X113196904Y-12787380D01*
X113625476Y-13739761D02*
X113768333Y-13787380D01*
X114006428Y-13787380D01*
X114101666Y-13739761D01*
X114149285Y-13692142D01*
X114196904Y-13596904D01*
X114196904Y-13501666D01*
X114149285Y-13406428D01*
X114101666Y-13358809D01*
X114006428Y-13311190D01*
X113815952Y-13263571D01*
X113720714Y-13215952D01*
X113673095Y-13168333D01*
X113625476Y-13073095D01*
X113625476Y-12977857D01*
X113673095Y-12882619D01*
X113720714Y-12835000D01*
X113815952Y-12787380D01*
X114054047Y-12787380D01*
X114196904Y-12835000D01*
X114625476Y-13787380D02*
X114625476Y-12787380D01*
X115006428Y-12787380D01*
X115101666Y-12835000D01*
X115149285Y-12882619D01*
X115196904Y-12977857D01*
X115196904Y-13120714D01*
X115149285Y-13215952D01*
X115101666Y-13263571D01*
X115006428Y-13311190D01*
X114625476Y-13311190D01*
X116101666Y-13787380D02*
X115625476Y-13787380D01*
X115625476Y-12787380D01*
X116387380Y-13501666D02*
X116863571Y-13501666D01*
X116292142Y-13787380D02*
X116625476Y-12787380D01*
X116958809Y-13787380D01*
X117482619Y-13311190D02*
X117482619Y-13787380D01*
X117149285Y-12787380D02*
X117482619Y-13311190D01*
X117815952Y-12787380D01*
X46228333Y-49152142D02*
X46180714Y-49199761D01*
X46037857Y-49247380D01*
X45942619Y-49247380D01*
X45799761Y-49199761D01*
X45704523Y-49104523D01*
X45656904Y-49009285D01*
X45609285Y-48818809D01*
X45609285Y-48675952D01*
X45656904Y-48485476D01*
X45704523Y-48390238D01*
X45799761Y-48295000D01*
X45942619Y-48247380D01*
X46037857Y-48247380D01*
X46180714Y-48295000D01*
X46228333Y-48342619D01*
X47180714Y-49247380D02*
X46609285Y-49247380D01*
X46895000Y-49247380D02*
X46895000Y-48247380D01*
X46799761Y-48390238D01*
X46704523Y-48485476D01*
X46609285Y-48533095D01*
X28027333Y-36647380D02*
X27694000Y-36171190D01*
X27455904Y-36647380D02*
X27455904Y-35647380D01*
X27836857Y-35647380D01*
X27932095Y-35695000D01*
X27979714Y-35742619D01*
X28027333Y-35837857D01*
X28027333Y-35980714D01*
X27979714Y-36075952D01*
X27932095Y-36123571D01*
X27836857Y-36171190D01*
X27455904Y-36171190D01*
X28503523Y-36647380D02*
X28694000Y-36647380D01*
X28789238Y-36599761D01*
X28836857Y-36552142D01*
X28932095Y-36409285D01*
X28979714Y-36218809D01*
X28979714Y-35837857D01*
X28932095Y-35742619D01*
X28884476Y-35695000D01*
X28789238Y-35647380D01*
X28598761Y-35647380D01*
X28503523Y-35695000D01*
X28455904Y-35742619D01*
X28408285Y-35837857D01*
X28408285Y-36075952D01*
X28455904Y-36171190D01*
X28503523Y-36218809D01*
X28598761Y-36266428D01*
X28789238Y-36266428D01*
X28884476Y-36218809D01*
X28932095Y-36171190D01*
X28979714Y-36075952D01*
X39362142Y-21820142D02*
X39314523Y-21867761D01*
X39171666Y-21915380D01*
X39076428Y-21915380D01*
X38933571Y-21867761D01*
X38838333Y-21772523D01*
X38790714Y-21677285D01*
X38743095Y-21486809D01*
X38743095Y-21343952D01*
X38790714Y-21153476D01*
X38838333Y-21058238D01*
X38933571Y-20963000D01*
X39076428Y-20915380D01*
X39171666Y-20915380D01*
X39314523Y-20963000D01*
X39362142Y-21010619D01*
X40314523Y-21915380D02*
X39743095Y-21915380D01*
X40028809Y-21915380D02*
X40028809Y-20915380D01*
X39933571Y-21058238D01*
X39838333Y-21153476D01*
X39743095Y-21201095D01*
X40647857Y-20915380D02*
X41266904Y-20915380D01*
X40933571Y-21296333D01*
X41076428Y-21296333D01*
X41171666Y-21343952D01*
X41219285Y-21391571D01*
X41266904Y-21486809D01*
X41266904Y-21724904D01*
X41219285Y-21820142D01*
X41171666Y-21867761D01*
X41076428Y-21915380D01*
X40790714Y-21915380D01*
X40695476Y-21867761D01*
X40647857Y-21820142D01*
X20312142Y-21693142D02*
X20264523Y-21740761D01*
X20121666Y-21788380D01*
X20026428Y-21788380D01*
X19883571Y-21740761D01*
X19788333Y-21645523D01*
X19740714Y-21550285D01*
X19693095Y-21359809D01*
X19693095Y-21216952D01*
X19740714Y-21026476D01*
X19788333Y-20931238D01*
X19883571Y-20836000D01*
X20026428Y-20788380D01*
X20121666Y-20788380D01*
X20264523Y-20836000D01*
X20312142Y-20883619D01*
X21264523Y-21788380D02*
X20693095Y-21788380D01*
X20978809Y-21788380D02*
X20978809Y-20788380D01*
X20883571Y-20931238D01*
X20788333Y-21026476D01*
X20693095Y-21074095D01*
X21645476Y-20883619D02*
X21693095Y-20836000D01*
X21788333Y-20788380D01*
X22026428Y-20788380D01*
X22121666Y-20836000D01*
X22169285Y-20883619D01*
X22216904Y-20978857D01*
X22216904Y-21074095D01*
X22169285Y-21216952D01*
X21597857Y-21788380D01*
X22216904Y-21788380D01*
X39616142Y-25757142D02*
X39568523Y-25804761D01*
X39425666Y-25852380D01*
X39330428Y-25852380D01*
X39187571Y-25804761D01*
X39092333Y-25709523D01*
X39044714Y-25614285D01*
X38997095Y-25423809D01*
X38997095Y-25280952D01*
X39044714Y-25090476D01*
X39092333Y-24995238D01*
X39187571Y-24900000D01*
X39330428Y-24852380D01*
X39425666Y-24852380D01*
X39568523Y-24900000D01*
X39616142Y-24947619D01*
X40568523Y-25852380D02*
X39997095Y-25852380D01*
X40282809Y-25852380D02*
X40282809Y-24852380D01*
X40187571Y-24995238D01*
X40092333Y-25090476D01*
X39997095Y-25138095D01*
X41520904Y-25852380D02*
X40949476Y-25852380D01*
X41235190Y-25852380D02*
X41235190Y-24852380D01*
X41139952Y-24995238D01*
X41044714Y-25090476D01*
X40949476Y-25138095D01*
X34028142Y-21820142D02*
X33980523Y-21867761D01*
X33837666Y-21915380D01*
X33742428Y-21915380D01*
X33599571Y-21867761D01*
X33504333Y-21772523D01*
X33456714Y-21677285D01*
X33409095Y-21486809D01*
X33409095Y-21343952D01*
X33456714Y-21153476D01*
X33504333Y-21058238D01*
X33599571Y-20963000D01*
X33742428Y-20915380D01*
X33837666Y-20915380D01*
X33980523Y-20963000D01*
X34028142Y-21010619D01*
X34980523Y-21915380D02*
X34409095Y-21915380D01*
X34694809Y-21915380D02*
X34694809Y-20915380D01*
X34599571Y-21058238D01*
X34504333Y-21153476D01*
X34409095Y-21201095D01*
X35599571Y-20915380D02*
X35694809Y-20915380D01*
X35790047Y-20963000D01*
X35837666Y-21010619D01*
X35885285Y-21105857D01*
X35932904Y-21296333D01*
X35932904Y-21534428D01*
X35885285Y-21724904D01*
X35837666Y-21820142D01*
X35790047Y-21867761D01*
X35694809Y-21915380D01*
X35599571Y-21915380D01*
X35504333Y-21867761D01*
X35456714Y-21820142D01*
X35409095Y-21724904D01*
X35361476Y-21534428D01*
X35361476Y-21296333D01*
X35409095Y-21105857D01*
X35456714Y-21010619D01*
X35504333Y-20963000D01*
X35599571Y-20915380D01*
X15454333Y-21693142D02*
X15406714Y-21740761D01*
X15263857Y-21788380D01*
X15168619Y-21788380D01*
X15025761Y-21740761D01*
X14930523Y-21645523D01*
X14882904Y-21550285D01*
X14835285Y-21359809D01*
X14835285Y-21216952D01*
X14882904Y-21026476D01*
X14930523Y-20931238D01*
X15025761Y-20836000D01*
X15168619Y-20788380D01*
X15263857Y-20788380D01*
X15406714Y-20836000D01*
X15454333Y-20883619D01*
X16025761Y-21216952D02*
X15930523Y-21169333D01*
X15882904Y-21121714D01*
X15835285Y-21026476D01*
X15835285Y-20978857D01*
X15882904Y-20883619D01*
X15930523Y-20836000D01*
X16025761Y-20788380D01*
X16216238Y-20788380D01*
X16311476Y-20836000D01*
X16359095Y-20883619D01*
X16406714Y-20978857D01*
X16406714Y-21026476D01*
X16359095Y-21121714D01*
X16311476Y-21169333D01*
X16216238Y-21216952D01*
X16025761Y-21216952D01*
X15930523Y-21264571D01*
X15882904Y-21312190D01*
X15835285Y-21407428D01*
X15835285Y-21597904D01*
X15882904Y-21693142D01*
X15930523Y-21740761D01*
X16025761Y-21788380D01*
X16216238Y-21788380D01*
X16311476Y-21740761D01*
X16359095Y-21693142D01*
X16406714Y-21597904D01*
X16406714Y-21407428D01*
X16359095Y-21312190D01*
X16311476Y-21264571D01*
X16216238Y-21216952D01*
X20026333Y-31218142D02*
X19978714Y-31265761D01*
X19835857Y-31313380D01*
X19740619Y-31313380D01*
X19597761Y-31265761D01*
X19502523Y-31170523D01*
X19454904Y-31075285D01*
X19407285Y-30884809D01*
X19407285Y-30741952D01*
X19454904Y-30551476D01*
X19502523Y-30456238D01*
X19597761Y-30361000D01*
X19740619Y-30313380D01*
X19835857Y-30313380D01*
X19978714Y-30361000D01*
X20026333Y-30408619D01*
X20883476Y-30313380D02*
X20693000Y-30313380D01*
X20597761Y-30361000D01*
X20550142Y-30408619D01*
X20454904Y-30551476D01*
X20407285Y-30741952D01*
X20407285Y-31122904D01*
X20454904Y-31218142D01*
X20502523Y-31265761D01*
X20597761Y-31313380D01*
X20788238Y-31313380D01*
X20883476Y-31265761D01*
X20931095Y-31218142D01*
X20978714Y-31122904D01*
X20978714Y-30884809D01*
X20931095Y-30789571D01*
X20883476Y-30741952D01*
X20788238Y-30694333D01*
X20597761Y-30694333D01*
X20502523Y-30741952D01*
X20454904Y-30789571D01*
X20407285Y-30884809D01*
X83780333Y-35663142D02*
X83732714Y-35710761D01*
X83589857Y-35758380D01*
X83494619Y-35758380D01*
X83351761Y-35710761D01*
X83256523Y-35615523D01*
X83208904Y-35520285D01*
X83161285Y-35329809D01*
X83161285Y-35186952D01*
X83208904Y-34996476D01*
X83256523Y-34901238D01*
X83351761Y-34806000D01*
X83494619Y-34758380D01*
X83589857Y-34758380D01*
X83732714Y-34806000D01*
X83780333Y-34853619D01*
X84685095Y-34758380D02*
X84208904Y-34758380D01*
X84161285Y-35234571D01*
X84208904Y-35186952D01*
X84304142Y-35139333D01*
X84542238Y-35139333D01*
X84637476Y-35186952D01*
X84685095Y-35234571D01*
X84732714Y-35329809D01*
X84732714Y-35567904D01*
X84685095Y-35663142D01*
X84637476Y-35710761D01*
X84542238Y-35758380D01*
X84304142Y-35758380D01*
X84208904Y-35710761D01*
X84161285Y-35663142D01*
X75398333Y-35663142D02*
X75350714Y-35710761D01*
X75207857Y-35758380D01*
X75112619Y-35758380D01*
X74969761Y-35710761D01*
X74874523Y-35615523D01*
X74826904Y-35520285D01*
X74779285Y-35329809D01*
X74779285Y-35186952D01*
X74826904Y-34996476D01*
X74874523Y-34901238D01*
X74969761Y-34806000D01*
X75112619Y-34758380D01*
X75207857Y-34758380D01*
X75350714Y-34806000D01*
X75398333Y-34853619D01*
X76255476Y-35091714D02*
X76255476Y-35758380D01*
X76017380Y-34710761D02*
X75779285Y-35425047D01*
X76398333Y-35425047D01*
X110323333Y-33631142D02*
X110275714Y-33678761D01*
X110132857Y-33726380D01*
X110037619Y-33726380D01*
X109894761Y-33678761D01*
X109799523Y-33583523D01*
X109751904Y-33488285D01*
X109704285Y-33297809D01*
X109704285Y-33154952D01*
X109751904Y-32964476D01*
X109799523Y-32869238D01*
X109894761Y-32774000D01*
X110037619Y-32726380D01*
X110132857Y-32726380D01*
X110275714Y-32774000D01*
X110323333Y-32821619D01*
X110704285Y-32821619D02*
X110751904Y-32774000D01*
X110847142Y-32726380D01*
X111085238Y-32726380D01*
X111180476Y-32774000D01*
X111228095Y-32821619D01*
X111275714Y-32916857D01*
X111275714Y-33012095D01*
X111228095Y-33154952D01*
X110656666Y-33726380D01*
X111275714Y-33726380D01*
X102195761Y-69667380D02*
X102195761Y-68667380D01*
X102576714Y-68667380D01*
X102671952Y-68715000D01*
X102719571Y-68762619D01*
X102767190Y-68857857D01*
X102767190Y-69000714D01*
X102719571Y-69095952D01*
X102671952Y-69143571D01*
X102576714Y-69191190D01*
X102195761Y-69191190D01*
X103386238Y-68667380D02*
X103576714Y-68667380D01*
X103671952Y-68715000D01*
X103767190Y-68810238D01*
X103814809Y-69000714D01*
X103814809Y-69334047D01*
X103767190Y-69524523D01*
X103671952Y-69619761D01*
X103576714Y-69667380D01*
X103386238Y-69667380D01*
X103291000Y-69619761D01*
X103195761Y-69524523D01*
X103148142Y-69334047D01*
X103148142Y-69000714D01*
X103195761Y-68810238D01*
X103291000Y-68715000D01*
X103386238Y-68667380D01*
X104195761Y-69619761D02*
X104338619Y-69667380D01*
X104576714Y-69667380D01*
X104671952Y-69619761D01*
X104719571Y-69572142D01*
X104767190Y-69476904D01*
X104767190Y-69381666D01*
X104719571Y-69286428D01*
X104671952Y-69238809D01*
X104576714Y-69191190D01*
X104386238Y-69143571D01*
X104291000Y-69095952D01*
X104243380Y-69048333D01*
X104195761Y-68953095D01*
X104195761Y-68857857D01*
X104243380Y-68762619D01*
X104291000Y-68715000D01*
X104386238Y-68667380D01*
X104624333Y-68667380D01*
X104767190Y-68715000D01*
X105719571Y-69667380D02*
X105148142Y-69667380D01*
X105433857Y-69667380D02*
X105433857Y-68667380D01*
X105338619Y-68810238D01*
X105243380Y-68905476D01*
X105148142Y-68953095D01*
X105910047Y-69762619D02*
X106671952Y-69762619D01*
X106862428Y-69619761D02*
X107005285Y-69667380D01*
X107243380Y-69667380D01*
X107338619Y-69619761D01*
X107386238Y-69572142D01*
X107433857Y-69476904D01*
X107433857Y-69381666D01*
X107386238Y-69286428D01*
X107338619Y-69238809D01*
X107243380Y-69191190D01*
X107052904Y-69143571D01*
X106957666Y-69095952D01*
X106910047Y-69048333D01*
X106862428Y-68953095D01*
X106862428Y-68857857D01*
X106910047Y-68762619D01*
X106957666Y-68715000D01*
X107052904Y-68667380D01*
X107291000Y-68667380D01*
X107433857Y-68715000D01*
X107862428Y-69667380D02*
X107862428Y-68667380D01*
X108433857Y-69667380D01*
X108433857Y-68667380D01*
X108862428Y-69619761D02*
X109005285Y-69667380D01*
X109243380Y-69667380D01*
X109338619Y-69619761D01*
X109386238Y-69572142D01*
X109433857Y-69476904D01*
X109433857Y-69381666D01*
X109386238Y-69286428D01*
X109338619Y-69238809D01*
X109243380Y-69191190D01*
X109052904Y-69143571D01*
X108957666Y-69095952D01*
X108910047Y-69048333D01*
X108862428Y-68953095D01*
X108862428Y-68857857D01*
X108910047Y-68762619D01*
X108957666Y-68715000D01*
X109052904Y-68667380D01*
X109291000Y-68667380D01*
X109433857Y-68715000D01*
X59555142Y-69921380D02*
X59078952Y-69921380D01*
X59078952Y-68921380D01*
X59888476Y-69397571D02*
X60221809Y-69397571D01*
X60364666Y-69921380D02*
X59888476Y-69921380D01*
X59888476Y-68921380D01*
X60364666Y-68921380D01*
X60793238Y-69921380D02*
X60793238Y-68921380D01*
X61031333Y-68921380D01*
X61174190Y-68969000D01*
X61269428Y-69064238D01*
X61317047Y-69159476D01*
X61364666Y-69349952D01*
X61364666Y-69492809D01*
X61317047Y-69683285D01*
X61269428Y-69778523D01*
X61174190Y-69873761D01*
X61031333Y-69921380D01*
X60793238Y-69921380D01*
X85812761Y-69794380D02*
X85812761Y-68794380D01*
X86193714Y-68794380D01*
X86288952Y-68842000D01*
X86336571Y-68889619D01*
X86384190Y-68984857D01*
X86384190Y-69127714D01*
X86336571Y-69222952D01*
X86288952Y-69270571D01*
X86193714Y-69318190D01*
X85812761Y-69318190D01*
X87003238Y-68794380D02*
X87193714Y-68794380D01*
X87288952Y-68842000D01*
X87384190Y-68937238D01*
X87431809Y-69127714D01*
X87431809Y-69461047D01*
X87384190Y-69651523D01*
X87288952Y-69746761D01*
X87193714Y-69794380D01*
X87003238Y-69794380D01*
X86908000Y-69746761D01*
X86812761Y-69651523D01*
X86765142Y-69461047D01*
X86765142Y-69127714D01*
X86812761Y-68937238D01*
X86908000Y-68842000D01*
X87003238Y-68794380D01*
X87812761Y-69746761D02*
X87955619Y-69794380D01*
X88193714Y-69794380D01*
X88288952Y-69746761D01*
X88336571Y-69699142D01*
X88384190Y-69603904D01*
X88384190Y-69508666D01*
X88336571Y-69413428D01*
X88288952Y-69365809D01*
X88193714Y-69318190D01*
X88003238Y-69270571D01*
X87908000Y-69222952D01*
X87860380Y-69175333D01*
X87812761Y-69080095D01*
X87812761Y-68984857D01*
X87860380Y-68889619D01*
X87908000Y-68842000D01*
X88003238Y-68794380D01*
X88241333Y-68794380D01*
X88384190Y-68842000D01*
X88765142Y-68889619D02*
X88812761Y-68842000D01*
X88908000Y-68794380D01*
X89146095Y-68794380D01*
X89241333Y-68842000D01*
X89288952Y-68889619D01*
X89336571Y-68984857D01*
X89336571Y-69080095D01*
X89288952Y-69222952D01*
X88717523Y-69794380D01*
X89336571Y-69794380D01*
X89527047Y-69889619D02*
X90288952Y-69889619D01*
X90479428Y-69746761D02*
X90622285Y-69794380D01*
X90860380Y-69794380D01*
X90955619Y-69746761D01*
X91003238Y-69699142D01*
X91050857Y-69603904D01*
X91050857Y-69508666D01*
X91003238Y-69413428D01*
X90955619Y-69365809D01*
X90860380Y-69318190D01*
X90669904Y-69270571D01*
X90574666Y-69222952D01*
X90527047Y-69175333D01*
X90479428Y-69080095D01*
X90479428Y-68984857D01*
X90527047Y-68889619D01*
X90574666Y-68842000D01*
X90669904Y-68794380D01*
X90908000Y-68794380D01*
X91050857Y-68842000D01*
X91479428Y-69794380D02*
X91479428Y-68794380D01*
X92050857Y-69794380D01*
X92050857Y-68794380D01*
X92479428Y-69746761D02*
X92622285Y-69794380D01*
X92860380Y-69794380D01*
X92955619Y-69746761D01*
X93003238Y-69699142D01*
X93050857Y-69603904D01*
X93050857Y-69508666D01*
X93003238Y-69413428D01*
X92955619Y-69365809D01*
X92860380Y-69318190D01*
X92669904Y-69270571D01*
X92574666Y-69222952D01*
X92527047Y-69175333D01*
X92479428Y-69080095D01*
X92479428Y-68984857D01*
X92527047Y-68889619D01*
X92574666Y-68842000D01*
X92669904Y-68794380D01*
X92908000Y-68794380D01*
X93050857Y-68842000D01*
D13*
X25959904Y-21325619D02*
X25959904Y-20225619D01*
X26326571Y-21011333D01*
X26693238Y-20225619D01*
X26693238Y-21325619D01*
X27426571Y-20225619D02*
X27636095Y-20225619D01*
X27740857Y-20278000D01*
X27845619Y-20382761D01*
X27898000Y-20592285D01*
X27898000Y-20958952D01*
X27845619Y-21168476D01*
X27740857Y-21273238D01*
X27636095Y-21325619D01*
X27426571Y-21325619D01*
X27321809Y-21273238D01*
X27217047Y-21168476D01*
X27164666Y-20958952D01*
X27164666Y-20592285D01*
X27217047Y-20382761D01*
X27321809Y-20278000D01*
X27426571Y-20225619D01*
X28212285Y-20225619D02*
X28840857Y-20225619D01*
X28526571Y-21325619D02*
X28526571Y-20225619D01*
X29417047Y-20225619D02*
X29626571Y-20225619D01*
X29731333Y-20278000D01*
X29836095Y-20382761D01*
X29888476Y-20592285D01*
X29888476Y-20958952D01*
X29836095Y-21168476D01*
X29731333Y-21273238D01*
X29626571Y-21325619D01*
X29417047Y-21325619D01*
X29312285Y-21273238D01*
X29207523Y-21168476D01*
X29155142Y-20958952D01*
X29155142Y-20592285D01*
X29207523Y-20382761D01*
X29312285Y-20278000D01*
X29417047Y-20225619D01*
X30988476Y-21325619D02*
X30621809Y-20801809D01*
X30359904Y-21325619D02*
X30359904Y-20225619D01*
X30778952Y-20225619D01*
X30883714Y-20278000D01*
X30936095Y-20330380D01*
X30988476Y-20435142D01*
X30988476Y-20592285D01*
X30936095Y-20697047D01*
X30883714Y-20749428D01*
X30778952Y-20801809D01*
X30359904Y-20801809D01*
D10*
X71120452Y-69794380D02*
X71120452Y-68794380D01*
X71501404Y-68794380D01*
X71596642Y-68842000D01*
X71644261Y-68889619D01*
X71691880Y-68984857D01*
X71691880Y-69127714D01*
X71644261Y-69222952D01*
X71596642Y-69270571D01*
X71501404Y-69318190D01*
X71120452Y-69318190D01*
X72025214Y-68794380D02*
X72263309Y-69794380D01*
X72453785Y-69080095D01*
X72644261Y-69794380D01*
X72882357Y-68794380D01*
X73263309Y-69794380D02*
X73263309Y-68794380D01*
X73596642Y-69508666D01*
X73929976Y-68794380D01*
X73929976Y-69794380D01*
X74168071Y-69889619D02*
X74929976Y-69889619D01*
X75168071Y-69270571D02*
X75501404Y-69270571D01*
X75644261Y-69794380D02*
X75168071Y-69794380D01*
X75168071Y-68794380D01*
X75644261Y-68794380D01*
X75977595Y-68794380D02*
X76644261Y-69794380D01*
X76644261Y-68794380D02*
X75977595Y-69794380D01*
X76882357Y-68794380D02*
X77453785Y-68794380D01*
X77168071Y-69794380D02*
X77168071Y-68794380D01*
X77787119Y-69794380D02*
X77787119Y-68794380D01*
X78358547Y-69794380D01*
X78358547Y-68794380D01*
X117134000Y-56157761D02*
X117276857Y-56205380D01*
X117514952Y-56205380D01*
X117610190Y-56157761D01*
X117657809Y-56110142D01*
X117705428Y-56014904D01*
X117705428Y-55919666D01*
X117657809Y-55824428D01*
X117610190Y-55776809D01*
X117514952Y-55729190D01*
X117324476Y-55681571D01*
X117229238Y-55633952D01*
X117181619Y-55586333D01*
X117134000Y-55491095D01*
X117134000Y-55395857D01*
X117181619Y-55300619D01*
X117229238Y-55253000D01*
X117324476Y-55205380D01*
X117562571Y-55205380D01*
X117705428Y-55253000D01*
X118038761Y-55205380D02*
X118276857Y-56205380D01*
X118467333Y-55491095D01*
X118657809Y-56205380D01*
X118895904Y-55205380D01*
X119276857Y-56205380D02*
X119276857Y-55205380D01*
X119610190Y-55205380D02*
X120181619Y-55205380D01*
X119895904Y-56205380D02*
X119895904Y-55205380D01*
X121086380Y-56110142D02*
X121038761Y-56157761D01*
X120895904Y-56205380D01*
X120800666Y-56205380D01*
X120657809Y-56157761D01*
X120562571Y-56062523D01*
X120514952Y-55967285D01*
X120467333Y-55776809D01*
X120467333Y-55633952D01*
X120514952Y-55443476D01*
X120562571Y-55348238D01*
X120657809Y-55253000D01*
X120800666Y-55205380D01*
X120895904Y-55205380D01*
X121038761Y-55253000D01*
X121086380Y-55300619D01*
X121514952Y-56205380D02*
X121514952Y-55205380D01*
X121514952Y-55681571D02*
X122086380Y-55681571D01*
X122086380Y-56205380D02*
X122086380Y-55205380D01*
X51935142Y-50014142D02*
X51887523Y-50061761D01*
X51744666Y-50109380D01*
X51649428Y-50109380D01*
X51506571Y-50061761D01*
X51411333Y-49966523D01*
X51363714Y-49871285D01*
X51316095Y-49680809D01*
X51316095Y-49537952D01*
X51363714Y-49347476D01*
X51411333Y-49252238D01*
X51506571Y-49157000D01*
X51649428Y-49109380D01*
X51744666Y-49109380D01*
X51887523Y-49157000D01*
X51935142Y-49204619D01*
X52887523Y-50109380D02*
X52316095Y-50109380D01*
X52601809Y-50109380D02*
X52601809Y-49109380D01*
X52506571Y-49252238D01*
X52411333Y-49347476D01*
X52316095Y-49395095D01*
X53220857Y-49109380D02*
X53887523Y-49109380D01*
X53458952Y-50109380D01*
X59436095Y-52919380D02*
X59436095Y-53728904D01*
X59483714Y-53824142D01*
X59531333Y-53871761D01*
X59626571Y-53919380D01*
X59817047Y-53919380D01*
X59912285Y-53871761D01*
X59959904Y-53824142D01*
X60007523Y-53728904D01*
X60007523Y-52919380D01*
X60912285Y-53252714D02*
X60912285Y-53919380D01*
X60674190Y-52871761D02*
X60436095Y-53586047D01*
X61055142Y-53586047D01*
X92964095Y-53173380D02*
X92964095Y-53982904D01*
X93011714Y-54078142D01*
X93059333Y-54125761D01*
X93154571Y-54173380D01*
X93345047Y-54173380D01*
X93440285Y-54125761D01*
X93487904Y-54078142D01*
X93535523Y-53982904D01*
X93535523Y-53173380D01*
X93916476Y-53173380D02*
X94535523Y-53173380D01*
X94202190Y-53554333D01*
X94345047Y-53554333D01*
X94440285Y-53601952D01*
X94487904Y-53649571D01*
X94535523Y-53744809D01*
X94535523Y-53982904D01*
X94487904Y-54078142D01*
X94440285Y-54125761D01*
X94345047Y-54173380D01*
X94059333Y-54173380D01*
X93964095Y-54125761D01*
X93916476Y-54078142D01*
X76708095Y-32218380D02*
X76708095Y-33027904D01*
X76755714Y-33123142D01*
X76803333Y-33170761D01*
X76898571Y-33218380D01*
X77089047Y-33218380D01*
X77184285Y-33170761D01*
X77231904Y-33123142D01*
X77279523Y-33027904D01*
X77279523Y-32218380D01*
X78279523Y-33218380D02*
X77708095Y-33218380D01*
X77993809Y-33218380D02*
X77993809Y-32218380D01*
X77898571Y-32361238D01*
X77803333Y-32456476D01*
X77708095Y-32504095D01*
X68209142Y-49093380D02*
X67875809Y-48617190D01*
X67637714Y-49093380D02*
X67637714Y-48093380D01*
X68018666Y-48093380D01*
X68113904Y-48141000D01*
X68161523Y-48188619D01*
X68209142Y-48283857D01*
X68209142Y-48426714D01*
X68161523Y-48521952D01*
X68113904Y-48569571D01*
X68018666Y-48617190D01*
X67637714Y-48617190D01*
X68590095Y-48188619D02*
X68637714Y-48141000D01*
X68732952Y-48093380D01*
X68971047Y-48093380D01*
X69066285Y-48141000D01*
X69113904Y-48188619D01*
X69161523Y-48283857D01*
X69161523Y-48379095D01*
X69113904Y-48521952D01*
X68542476Y-49093380D01*
X69161523Y-49093380D01*
X70018666Y-48093380D02*
X69828190Y-48093380D01*
X69732952Y-48141000D01*
X69685333Y-48188619D01*
X69590095Y-48331476D01*
X69542476Y-48521952D01*
X69542476Y-48902904D01*
X69590095Y-48998142D01*
X69637714Y-49045761D01*
X69732952Y-49093380D01*
X69923428Y-49093380D01*
X70018666Y-49045761D01*
X70066285Y-48998142D01*
X70113904Y-48902904D01*
X70113904Y-48664809D01*
X70066285Y-48569571D01*
X70018666Y-48521952D01*
X69923428Y-48474333D01*
X69732952Y-48474333D01*
X69637714Y-48521952D01*
X69590095Y-48569571D01*
X69542476Y-48664809D01*
X52189142Y-53919380D02*
X51855809Y-53443190D01*
X51617714Y-53919380D02*
X51617714Y-52919380D01*
X51998666Y-52919380D01*
X52093904Y-52967000D01*
X52141523Y-53014619D01*
X52189142Y-53109857D01*
X52189142Y-53252714D01*
X52141523Y-53347952D01*
X52093904Y-53395571D01*
X51998666Y-53443190D01*
X51617714Y-53443190D01*
X52570095Y-53014619D02*
X52617714Y-52967000D01*
X52712952Y-52919380D01*
X52951047Y-52919380D01*
X53046285Y-52967000D01*
X53093904Y-53014619D01*
X53141523Y-53109857D01*
X53141523Y-53205095D01*
X53093904Y-53347952D01*
X52522476Y-53919380D01*
X53141523Y-53919380D01*
X54046285Y-52919380D02*
X53570095Y-52919380D01*
X53522476Y-53395571D01*
X53570095Y-53347952D01*
X53665333Y-53300333D01*
X53903428Y-53300333D01*
X53998666Y-53347952D01*
X54046285Y-53395571D01*
X54093904Y-53490809D01*
X54093904Y-53728904D01*
X54046285Y-53824142D01*
X53998666Y-53871761D01*
X53903428Y-53919380D01*
X53665333Y-53919380D01*
X53570095Y-53871761D01*
X53522476Y-53824142D01*
X52062142Y-46299380D02*
X51728809Y-45823190D01*
X51490714Y-46299380D02*
X51490714Y-45299380D01*
X51871666Y-45299380D01*
X51966904Y-45347000D01*
X52014523Y-45394619D01*
X52062142Y-45489857D01*
X52062142Y-45632714D01*
X52014523Y-45727952D01*
X51966904Y-45775571D01*
X51871666Y-45823190D01*
X51490714Y-45823190D01*
X52443095Y-45394619D02*
X52490714Y-45347000D01*
X52585952Y-45299380D01*
X52824047Y-45299380D01*
X52919285Y-45347000D01*
X52966904Y-45394619D01*
X53014523Y-45489857D01*
X53014523Y-45585095D01*
X52966904Y-45727952D01*
X52395476Y-46299380D01*
X53014523Y-46299380D01*
X53871666Y-45632714D02*
X53871666Y-46299380D01*
X53633571Y-45251761D02*
X53395476Y-45966047D01*
X54014523Y-45966047D01*
X108069142Y-58364380D02*
X107735809Y-57888190D01*
X107497714Y-58364380D02*
X107497714Y-57364380D01*
X107878666Y-57364380D01*
X107973904Y-57412000D01*
X108021523Y-57459619D01*
X108069142Y-57554857D01*
X108069142Y-57697714D01*
X108021523Y-57792952D01*
X107973904Y-57840571D01*
X107878666Y-57888190D01*
X107497714Y-57888190D01*
X108450095Y-57459619D02*
X108497714Y-57412000D01*
X108592952Y-57364380D01*
X108831047Y-57364380D01*
X108926285Y-57412000D01*
X108973904Y-57459619D01*
X109021523Y-57554857D01*
X109021523Y-57650095D01*
X108973904Y-57792952D01*
X108402476Y-58364380D01*
X109021523Y-58364380D01*
X109354857Y-57364380D02*
X109973904Y-57364380D01*
X109640571Y-57745333D01*
X109783428Y-57745333D01*
X109878666Y-57792952D01*
X109926285Y-57840571D01*
X109973904Y-57935809D01*
X109973904Y-58173904D01*
X109926285Y-58269142D01*
X109878666Y-58316761D01*
X109783428Y-58364380D01*
X109497714Y-58364380D01*
X109402476Y-58316761D01*
X109354857Y-58269142D01*
X115054142Y-66111380D02*
X114720809Y-65635190D01*
X114482714Y-66111380D02*
X114482714Y-65111380D01*
X114863666Y-65111380D01*
X114958904Y-65159000D01*
X115006523Y-65206619D01*
X115054142Y-65301857D01*
X115054142Y-65444714D01*
X115006523Y-65539952D01*
X114958904Y-65587571D01*
X114863666Y-65635190D01*
X114482714Y-65635190D01*
X115435095Y-65206619D02*
X115482714Y-65159000D01*
X115577952Y-65111380D01*
X115816047Y-65111380D01*
X115911285Y-65159000D01*
X115958904Y-65206619D01*
X116006523Y-65301857D01*
X116006523Y-65397095D01*
X115958904Y-65539952D01*
X115387476Y-66111380D01*
X116006523Y-66111380D01*
X116387476Y-65206619D02*
X116435095Y-65159000D01*
X116530333Y-65111380D01*
X116768428Y-65111380D01*
X116863666Y-65159000D01*
X116911285Y-65206619D01*
X116958904Y-65301857D01*
X116958904Y-65397095D01*
X116911285Y-65539952D01*
X116339857Y-66111380D01*
X116958904Y-66111380D01*
X72001142Y-66238380D02*
X71667809Y-65762190D01*
X71429714Y-66238380D02*
X71429714Y-65238380D01*
X71810666Y-65238380D01*
X71905904Y-65286000D01*
X71953523Y-65333619D01*
X72001142Y-65428857D01*
X72001142Y-65571714D01*
X71953523Y-65666952D01*
X71905904Y-65714571D01*
X71810666Y-65762190D01*
X71429714Y-65762190D01*
X72382095Y-65333619D02*
X72429714Y-65286000D01*
X72524952Y-65238380D01*
X72763047Y-65238380D01*
X72858285Y-65286000D01*
X72905904Y-65333619D01*
X72953523Y-65428857D01*
X72953523Y-65524095D01*
X72905904Y-65666952D01*
X72334476Y-66238380D01*
X72953523Y-66238380D01*
X73905904Y-66238380D02*
X73334476Y-66238380D01*
X73620190Y-66238380D02*
X73620190Y-65238380D01*
X73524952Y-65381238D01*
X73429714Y-65476476D01*
X73334476Y-65524095D01*
X39362142Y-18613380D02*
X39028809Y-18137190D01*
X38790714Y-18613380D02*
X38790714Y-17613380D01*
X39171666Y-17613380D01*
X39266904Y-17661000D01*
X39314523Y-17708619D01*
X39362142Y-17803857D01*
X39362142Y-17946714D01*
X39314523Y-18041952D01*
X39266904Y-18089571D01*
X39171666Y-18137190D01*
X38790714Y-18137190D01*
X39743095Y-17708619D02*
X39790714Y-17661000D01*
X39885952Y-17613380D01*
X40124047Y-17613380D01*
X40219285Y-17661000D01*
X40266904Y-17708619D01*
X40314523Y-17803857D01*
X40314523Y-17899095D01*
X40266904Y-18041952D01*
X39695476Y-18613380D01*
X40314523Y-18613380D01*
X40933571Y-17613380D02*
X41028809Y-17613380D01*
X41124047Y-17661000D01*
X41171666Y-17708619D01*
X41219285Y-17803857D01*
X41266904Y-17994333D01*
X41266904Y-18232428D01*
X41219285Y-18422904D01*
X41171666Y-18518142D01*
X41124047Y-18565761D01*
X41028809Y-18613380D01*
X40933571Y-18613380D01*
X40838333Y-18565761D01*
X40790714Y-18518142D01*
X40743095Y-18422904D01*
X40695476Y-18232428D01*
X40695476Y-17994333D01*
X40743095Y-17803857D01*
X40790714Y-17708619D01*
X40838333Y-17661000D01*
X40933571Y-17613380D01*
X115435142Y-47188380D02*
X115101809Y-46712190D01*
X114863714Y-47188380D02*
X114863714Y-46188380D01*
X115244666Y-46188380D01*
X115339904Y-46236000D01*
X115387523Y-46283619D01*
X115435142Y-46378857D01*
X115435142Y-46521714D01*
X115387523Y-46616952D01*
X115339904Y-46664571D01*
X115244666Y-46712190D01*
X114863714Y-46712190D01*
X116387523Y-47188380D02*
X115816095Y-47188380D01*
X116101809Y-47188380D02*
X116101809Y-46188380D01*
X116006571Y-46331238D01*
X115911333Y-46426476D01*
X115816095Y-46474095D01*
X116863714Y-47188380D02*
X117054190Y-47188380D01*
X117149428Y-47140761D01*
X117197047Y-47093142D01*
X117292285Y-46950285D01*
X117339904Y-46759809D01*
X117339904Y-46378857D01*
X117292285Y-46283619D01*
X117244666Y-46236000D01*
X117149428Y-46188380D01*
X116958952Y-46188380D01*
X116863714Y-46236000D01*
X116816095Y-46283619D01*
X116768476Y-46378857D01*
X116768476Y-46616952D01*
X116816095Y-46712190D01*
X116863714Y-46759809D01*
X116958952Y-46807428D01*
X117149428Y-46807428D01*
X117244666Y-46759809D01*
X117292285Y-46712190D01*
X117339904Y-46616952D01*
X58031142Y-66238380D02*
X57697809Y-65762190D01*
X57459714Y-66238380D02*
X57459714Y-65238380D01*
X57840666Y-65238380D01*
X57935904Y-65286000D01*
X57983523Y-65333619D01*
X58031142Y-65428857D01*
X58031142Y-65571714D01*
X57983523Y-65666952D01*
X57935904Y-65714571D01*
X57840666Y-65762190D01*
X57459714Y-65762190D01*
X58983523Y-66238380D02*
X58412095Y-66238380D01*
X58697809Y-66238380D02*
X58697809Y-65238380D01*
X58602571Y-65381238D01*
X58507333Y-65476476D01*
X58412095Y-65524095D01*
X59554952Y-65666952D02*
X59459714Y-65619333D01*
X59412095Y-65571714D01*
X59364476Y-65476476D01*
X59364476Y-65428857D01*
X59412095Y-65333619D01*
X59459714Y-65286000D01*
X59554952Y-65238380D01*
X59745428Y-65238380D01*
X59840666Y-65286000D01*
X59888285Y-65333619D01*
X59935904Y-65428857D01*
X59935904Y-65476476D01*
X59888285Y-65571714D01*
X59840666Y-65619333D01*
X59745428Y-65666952D01*
X59554952Y-65666952D01*
X59459714Y-65714571D01*
X59412095Y-65762190D01*
X59364476Y-65857428D01*
X59364476Y-66047904D01*
X59412095Y-66143142D01*
X59459714Y-66190761D01*
X59554952Y-66238380D01*
X59745428Y-66238380D01*
X59840666Y-66190761D01*
X59888285Y-66143142D01*
X59935904Y-66047904D01*
X59935904Y-65857428D01*
X59888285Y-65762190D01*
X59840666Y-65714571D01*
X59745428Y-65666952D01*
X108450142Y-43378380D02*
X108116809Y-42902190D01*
X107878714Y-43378380D02*
X107878714Y-42378380D01*
X108259666Y-42378380D01*
X108354904Y-42426000D01*
X108402523Y-42473619D01*
X108450142Y-42568857D01*
X108450142Y-42711714D01*
X108402523Y-42806952D01*
X108354904Y-42854571D01*
X108259666Y-42902190D01*
X107878714Y-42902190D01*
X109402523Y-43378380D02*
X108831095Y-43378380D01*
X109116809Y-43378380D02*
X109116809Y-42378380D01*
X109021571Y-42521238D01*
X108926333Y-42616476D01*
X108831095Y-42664095D01*
X109735857Y-42378380D02*
X110402523Y-42378380D01*
X109973952Y-43378380D01*
X23995142Y-47315380D02*
X23661809Y-46839190D01*
X23423714Y-47315380D02*
X23423714Y-46315380D01*
X23804666Y-46315380D01*
X23899904Y-46363000D01*
X23947523Y-46410619D01*
X23995142Y-46505857D01*
X23995142Y-46648714D01*
X23947523Y-46743952D01*
X23899904Y-46791571D01*
X23804666Y-46839190D01*
X23423714Y-46839190D01*
X24947523Y-47315380D02*
X24376095Y-47315380D01*
X24661809Y-47315380D02*
X24661809Y-46315380D01*
X24566571Y-46458238D01*
X24471333Y-46553476D01*
X24376095Y-46601095D01*
X25804666Y-46315380D02*
X25614190Y-46315380D01*
X25518952Y-46363000D01*
X25471333Y-46410619D01*
X25376095Y-46553476D01*
X25328476Y-46743952D01*
X25328476Y-47124904D01*
X25376095Y-47220142D01*
X25423714Y-47267761D01*
X25518952Y-47315380D01*
X25709428Y-47315380D01*
X25804666Y-47267761D01*
X25852285Y-47220142D01*
X25899904Y-47124904D01*
X25899904Y-46886809D01*
X25852285Y-46791571D01*
X25804666Y-46743952D01*
X25709428Y-46696333D01*
X25518952Y-46696333D01*
X25423714Y-46743952D01*
X25376095Y-46791571D01*
X25328476Y-46886809D01*
X108196142Y-39187380D02*
X107862809Y-38711190D01*
X107624714Y-39187380D02*
X107624714Y-38187380D01*
X108005666Y-38187380D01*
X108100904Y-38235000D01*
X108148523Y-38282619D01*
X108196142Y-38377857D01*
X108196142Y-38520714D01*
X108148523Y-38615952D01*
X108100904Y-38663571D01*
X108005666Y-38711190D01*
X107624714Y-38711190D01*
X109148523Y-39187380D02*
X108577095Y-39187380D01*
X108862809Y-39187380D02*
X108862809Y-38187380D01*
X108767571Y-38330238D01*
X108672333Y-38425476D01*
X108577095Y-38473095D01*
X110053285Y-38187380D02*
X109577095Y-38187380D01*
X109529476Y-38663571D01*
X109577095Y-38615952D01*
X109672333Y-38568333D01*
X109910428Y-38568333D01*
X110005666Y-38615952D01*
X110053285Y-38663571D01*
X110100904Y-38758809D01*
X110100904Y-38996904D01*
X110053285Y-39092142D01*
X110005666Y-39139761D01*
X109910428Y-39187380D01*
X109672333Y-39187380D01*
X109577095Y-39139761D01*
X109529476Y-39092142D01*
X44950142Y-18740380D02*
X44616809Y-18264190D01*
X44378714Y-18740380D02*
X44378714Y-17740380D01*
X44759666Y-17740380D01*
X44854904Y-17788000D01*
X44902523Y-17835619D01*
X44950142Y-17930857D01*
X44950142Y-18073714D01*
X44902523Y-18168952D01*
X44854904Y-18216571D01*
X44759666Y-18264190D01*
X44378714Y-18264190D01*
X45902523Y-18740380D02*
X45331095Y-18740380D01*
X45616809Y-18740380D02*
X45616809Y-17740380D01*
X45521571Y-17883238D01*
X45426333Y-17978476D01*
X45331095Y-18026095D01*
X46235857Y-17740380D02*
X46854904Y-17740380D01*
X46521571Y-18121333D01*
X46664428Y-18121333D01*
X46759666Y-18168952D01*
X46807285Y-18216571D01*
X46854904Y-18311809D01*
X46854904Y-18549904D01*
X46807285Y-18645142D01*
X46759666Y-18692761D01*
X46664428Y-18740380D01*
X46378714Y-18740380D01*
X46283476Y-18692761D01*
X46235857Y-18645142D01*
X52443142Y-65984380D02*
X52109809Y-65508190D01*
X51871714Y-65984380D02*
X51871714Y-64984380D01*
X52252666Y-64984380D01*
X52347904Y-65032000D01*
X52395523Y-65079619D01*
X52443142Y-65174857D01*
X52443142Y-65317714D01*
X52395523Y-65412952D01*
X52347904Y-65460571D01*
X52252666Y-65508190D01*
X51871714Y-65508190D01*
X53395523Y-65984380D02*
X52824095Y-65984380D01*
X53109809Y-65984380D02*
X53109809Y-64984380D01*
X53014571Y-65127238D01*
X52919333Y-65222476D01*
X52824095Y-65270095D01*
X53776476Y-65079619D02*
X53824095Y-65032000D01*
X53919333Y-64984380D01*
X54157428Y-64984380D01*
X54252666Y-65032000D01*
X54300285Y-65079619D01*
X54347904Y-65174857D01*
X54347904Y-65270095D01*
X54300285Y-65412952D01*
X53728857Y-65984380D01*
X54347904Y-65984380D01*
X19550142Y-25090380D02*
X19216809Y-24614190D01*
X18978714Y-25090380D02*
X18978714Y-24090380D01*
X19359666Y-24090380D01*
X19454904Y-24138000D01*
X19502523Y-24185619D01*
X19550142Y-24280857D01*
X19550142Y-24423714D01*
X19502523Y-24518952D01*
X19454904Y-24566571D01*
X19359666Y-24614190D01*
X18978714Y-24614190D01*
X20502523Y-25090380D02*
X19931095Y-25090380D01*
X20216809Y-25090380D02*
X20216809Y-24090380D01*
X20121571Y-24233238D01*
X20026333Y-24328476D01*
X19931095Y-24376095D01*
X21454904Y-25090380D02*
X20883476Y-25090380D01*
X21169190Y-25090380D02*
X21169190Y-24090380D01*
X21073952Y-24233238D01*
X20978714Y-24328476D01*
X20883476Y-24376095D01*
X19296142Y-36647380D02*
X18962809Y-36171190D01*
X18724714Y-36647380D02*
X18724714Y-35647380D01*
X19105666Y-35647380D01*
X19200904Y-35695000D01*
X19248523Y-35742619D01*
X19296142Y-35837857D01*
X19296142Y-35980714D01*
X19248523Y-36075952D01*
X19200904Y-36123571D01*
X19105666Y-36171190D01*
X18724714Y-36171190D01*
X20248523Y-36647380D02*
X19677095Y-36647380D01*
X19962809Y-36647380D02*
X19962809Y-35647380D01*
X19867571Y-35790238D01*
X19772333Y-35885476D01*
X19677095Y-35933095D01*
X20867571Y-35647380D02*
X20962809Y-35647380D01*
X21058047Y-35695000D01*
X21105666Y-35742619D01*
X21153285Y-35837857D01*
X21200904Y-36028333D01*
X21200904Y-36266428D01*
X21153285Y-36456904D01*
X21105666Y-36552142D01*
X21058047Y-36599761D01*
X20962809Y-36647380D01*
X20867571Y-36647380D01*
X20772333Y-36599761D01*
X20724714Y-36552142D01*
X20677095Y-36456904D01*
X20629476Y-36266428D01*
X20629476Y-36028333D01*
X20677095Y-35837857D01*
X20724714Y-35742619D01*
X20772333Y-35695000D01*
X20867571Y-35647380D01*
X31964333Y-36647380D02*
X31631000Y-36171190D01*
X31392904Y-36647380D02*
X31392904Y-35647380D01*
X31773857Y-35647380D01*
X31869095Y-35695000D01*
X31916714Y-35742619D01*
X31964333Y-35837857D01*
X31964333Y-35980714D01*
X31916714Y-36075952D01*
X31869095Y-36123571D01*
X31773857Y-36171190D01*
X31392904Y-36171190D01*
X32535761Y-36075952D02*
X32440523Y-36028333D01*
X32392904Y-35980714D01*
X32345285Y-35885476D01*
X32345285Y-35837857D01*
X32392904Y-35742619D01*
X32440523Y-35695000D01*
X32535761Y-35647380D01*
X32726238Y-35647380D01*
X32821476Y-35695000D01*
X32869095Y-35742619D01*
X32916714Y-35837857D01*
X32916714Y-35885476D01*
X32869095Y-35980714D01*
X32821476Y-36028333D01*
X32726238Y-36075952D01*
X32535761Y-36075952D01*
X32440523Y-36123571D01*
X32392904Y-36171190D01*
X32345285Y-36266428D01*
X32345285Y-36456904D01*
X32392904Y-36552142D01*
X32440523Y-36599761D01*
X32535761Y-36647380D01*
X32726238Y-36647380D01*
X32821476Y-36599761D01*
X32869095Y-36552142D01*
X32916714Y-36456904D01*
X32916714Y-36266428D01*
X32869095Y-36171190D01*
X32821476Y-36123571D01*
X32726238Y-36075952D01*
X20026333Y-47315380D02*
X19693000Y-46839190D01*
X19454904Y-47315380D02*
X19454904Y-46315380D01*
X19835857Y-46315380D01*
X19931095Y-46363000D01*
X19978714Y-46410619D01*
X20026333Y-46505857D01*
X20026333Y-46648714D01*
X19978714Y-46743952D01*
X19931095Y-46791571D01*
X19835857Y-46839190D01*
X19454904Y-46839190D01*
X20359666Y-46315380D02*
X21026333Y-46315380D01*
X20597761Y-47315380D01*
X28916333Y-47315380D02*
X28583000Y-46839190D01*
X28344904Y-47315380D02*
X28344904Y-46315380D01*
X28725857Y-46315380D01*
X28821095Y-46363000D01*
X28868714Y-46410619D01*
X28916333Y-46505857D01*
X28916333Y-46648714D01*
X28868714Y-46743952D01*
X28821095Y-46791571D01*
X28725857Y-46839190D01*
X28344904Y-46839190D01*
X29773476Y-46315380D02*
X29583000Y-46315380D01*
X29487761Y-46363000D01*
X29440142Y-46410619D01*
X29344904Y-46553476D01*
X29297285Y-46743952D01*
X29297285Y-47124904D01*
X29344904Y-47220142D01*
X29392523Y-47267761D01*
X29487761Y-47315380D01*
X29678238Y-47315380D01*
X29773476Y-47267761D01*
X29821095Y-47220142D01*
X29868714Y-47124904D01*
X29868714Y-46886809D01*
X29821095Y-46791571D01*
X29773476Y-46743952D01*
X29678238Y-46696333D01*
X29487761Y-46696333D01*
X29392523Y-46743952D01*
X29344904Y-46791571D01*
X29297285Y-46886809D01*
X25614333Y-36647380D02*
X25281000Y-36171190D01*
X25042904Y-36647380D02*
X25042904Y-35647380D01*
X25423857Y-35647380D01*
X25519095Y-35695000D01*
X25566714Y-35742619D01*
X25614333Y-35837857D01*
X25614333Y-35980714D01*
X25566714Y-36075952D01*
X25519095Y-36123571D01*
X25423857Y-36171190D01*
X25042904Y-36171190D01*
X26519095Y-35647380D02*
X26042904Y-35647380D01*
X25995285Y-36123571D01*
X26042904Y-36075952D01*
X26138142Y-36028333D01*
X26376238Y-36028333D01*
X26471476Y-36075952D01*
X26519095Y-36123571D01*
X26566714Y-36218809D01*
X26566714Y-36456904D01*
X26519095Y-36552142D01*
X26471476Y-36599761D01*
X26376238Y-36647380D01*
X26138142Y-36647380D01*
X26042904Y-36599761D01*
X25995285Y-36552142D01*
X37933333Y-47315380D02*
X37600000Y-46839190D01*
X37361904Y-47315380D02*
X37361904Y-46315380D01*
X37742857Y-46315380D01*
X37838095Y-46363000D01*
X37885714Y-46410619D01*
X37933333Y-46505857D01*
X37933333Y-46648714D01*
X37885714Y-46743952D01*
X37838095Y-46791571D01*
X37742857Y-46839190D01*
X37361904Y-46839190D01*
X38790476Y-46648714D02*
X38790476Y-47315380D01*
X38552380Y-46267761D02*
X38314285Y-46982047D01*
X38933333Y-46982047D01*
X33488333Y-47315380D02*
X33155000Y-46839190D01*
X32916904Y-47315380D02*
X32916904Y-46315380D01*
X33297857Y-46315380D01*
X33393095Y-46363000D01*
X33440714Y-46410619D01*
X33488333Y-46505857D01*
X33488333Y-46648714D01*
X33440714Y-46743952D01*
X33393095Y-46791571D01*
X33297857Y-46839190D01*
X32916904Y-46839190D01*
X33821666Y-46315380D02*
X34440714Y-46315380D01*
X34107380Y-46696333D01*
X34250238Y-46696333D01*
X34345476Y-46743952D01*
X34393095Y-46791571D01*
X34440714Y-46886809D01*
X34440714Y-47124904D01*
X34393095Y-47220142D01*
X34345476Y-47267761D01*
X34250238Y-47315380D01*
X33964523Y-47315380D01*
X33869285Y-47267761D01*
X33821666Y-47220142D01*
X36536333Y-36647380D02*
X36203000Y-36171190D01*
X35964904Y-36647380D02*
X35964904Y-35647380D01*
X36345857Y-35647380D01*
X36441095Y-35695000D01*
X36488714Y-35742619D01*
X36536333Y-35837857D01*
X36536333Y-35980714D01*
X36488714Y-36075952D01*
X36441095Y-36123571D01*
X36345857Y-36171190D01*
X35964904Y-36171190D01*
X36917285Y-35742619D02*
X36964904Y-35695000D01*
X37060142Y-35647380D01*
X37298238Y-35647380D01*
X37393476Y-35695000D01*
X37441095Y-35742619D01*
X37488714Y-35837857D01*
X37488714Y-35933095D01*
X37441095Y-36075952D01*
X36869666Y-36647380D01*
X37488714Y-36647380D01*
X39457333Y-65984380D02*
X39124000Y-65508190D01*
X38885904Y-65984380D02*
X38885904Y-64984380D01*
X39266857Y-64984380D01*
X39362095Y-65032000D01*
X39409714Y-65079619D01*
X39457333Y-65174857D01*
X39457333Y-65317714D01*
X39409714Y-65412952D01*
X39362095Y-65460571D01*
X39266857Y-65508190D01*
X38885904Y-65508190D01*
X40409714Y-65984380D02*
X39838285Y-65984380D01*
X40124000Y-65984380D02*
X40124000Y-64984380D01*
X40028761Y-65127238D01*
X39933523Y-65222476D01*
X39838285Y-65270095D01*
X38504904Y-17089380D02*
X38504904Y-16089380D01*
X38743000Y-16089380D01*
X38885857Y-16137000D01*
X38981095Y-16232238D01*
X39028714Y-16327476D01*
X39076333Y-16517952D01*
X39076333Y-16660809D01*
X39028714Y-16851285D01*
X38981095Y-16946523D01*
X38885857Y-17041761D01*
X38743000Y-17089380D01*
X38504904Y-17089380D01*
X39933476Y-16089380D02*
X39743000Y-16089380D01*
X39647761Y-16137000D01*
X39600142Y-16184619D01*
X39504904Y-16327476D01*
X39457285Y-16517952D01*
X39457285Y-16898904D01*
X39504904Y-16994142D01*
X39552523Y-17041761D01*
X39647761Y-17089380D01*
X39838238Y-17089380D01*
X39933476Y-17041761D01*
X39981095Y-16994142D01*
X40028714Y-16898904D01*
X40028714Y-16660809D01*
X39981095Y-16565571D01*
X39933476Y-16517952D01*
X39838238Y-16470333D01*
X39647761Y-16470333D01*
X39552523Y-16517952D01*
X39504904Y-16565571D01*
X39457285Y-16660809D01*
X47140904Y-17089380D02*
X47140904Y-16089380D01*
X47379000Y-16089380D01*
X47521857Y-16137000D01*
X47617095Y-16232238D01*
X47664714Y-16327476D01*
X47712333Y-16517952D01*
X47712333Y-16660809D01*
X47664714Y-16851285D01*
X47617095Y-16946523D01*
X47521857Y-17041761D01*
X47379000Y-17089380D01*
X47140904Y-17089380D01*
X48617095Y-16089380D02*
X48140904Y-16089380D01*
X48093285Y-16565571D01*
X48140904Y-16517952D01*
X48236142Y-16470333D01*
X48474238Y-16470333D01*
X48569476Y-16517952D01*
X48617095Y-16565571D01*
X48664714Y-16660809D01*
X48664714Y-16898904D01*
X48617095Y-16994142D01*
X48569476Y-17041761D01*
X48474238Y-17089380D01*
X48236142Y-17089380D01*
X48140904Y-17041761D01*
X48093285Y-16994142D01*
X46886904Y-74239380D02*
X46886904Y-73239380D01*
X47125000Y-73239380D01*
X47267857Y-73287000D01*
X47363095Y-73382238D01*
X47410714Y-73477476D01*
X47458333Y-73667952D01*
X47458333Y-73810809D01*
X47410714Y-74001285D01*
X47363095Y-74096523D01*
X47267857Y-74191761D01*
X47125000Y-74239380D01*
X46886904Y-74239380D01*
X48315476Y-73572714D02*
X48315476Y-74239380D01*
X48077380Y-73191761D02*
X47839285Y-73906047D01*
X48458333Y-73906047D01*
X38631904Y-74239380D02*
X38631904Y-73239380D01*
X38870000Y-73239380D01*
X39012857Y-73287000D01*
X39108095Y-73382238D01*
X39155714Y-73477476D01*
X39203333Y-73667952D01*
X39203333Y-73810809D01*
X39155714Y-74001285D01*
X39108095Y-74096523D01*
X39012857Y-74191761D01*
X38870000Y-74239380D01*
X38631904Y-74239380D01*
X39536666Y-73239380D02*
X40155714Y-73239380D01*
X39822380Y-73620333D01*
X39965238Y-73620333D01*
X40060476Y-73667952D01*
X40108095Y-73715571D01*
X40155714Y-73810809D01*
X40155714Y-74048904D01*
X40108095Y-74144142D01*
X40060476Y-74191761D01*
X39965238Y-74239380D01*
X39679523Y-74239380D01*
X39584285Y-74191761D01*
X39536666Y-74144142D01*
X57611904Y-30932380D02*
X57611904Y-29932380D01*
X57850000Y-29932380D01*
X57992857Y-29980000D01*
X58088095Y-30075238D01*
X58135714Y-30170476D01*
X58183333Y-30360952D01*
X58183333Y-30503809D01*
X58135714Y-30694285D01*
X58088095Y-30789523D01*
X57992857Y-30884761D01*
X57850000Y-30932380D01*
X57611904Y-30932380D01*
X58754761Y-30360952D02*
X58659523Y-30313333D01*
X58611904Y-30265714D01*
X58564285Y-30170476D01*
X58564285Y-30122857D01*
X58611904Y-30027619D01*
X58659523Y-29980000D01*
X58754761Y-29932380D01*
X58945238Y-29932380D01*
X59040476Y-29980000D01*
X59088095Y-30027619D01*
X59135714Y-30122857D01*
X59135714Y-30170476D01*
X59088095Y-30265714D01*
X59040476Y-30313333D01*
X58945238Y-30360952D01*
X58754761Y-30360952D01*
X58659523Y-30408571D01*
X58611904Y-30456190D01*
X58564285Y-30551428D01*
X58564285Y-30741904D01*
X58611904Y-30837142D01*
X58659523Y-30884761D01*
X58754761Y-30932380D01*
X58945238Y-30932380D01*
X59040476Y-30884761D01*
X59088095Y-30837142D01*
X59135714Y-30741904D01*
X59135714Y-30551428D01*
X59088095Y-30456190D01*
X59040476Y-30408571D01*
X58945238Y-30360952D01*
X57718095Y-25852380D02*
X57718095Y-24852380D01*
X58289523Y-25852380D02*
X57860952Y-25280952D01*
X58289523Y-24852380D02*
X57718095Y-25423809D01*
X19835904Y-63190380D02*
X19835904Y-62190380D01*
X20074000Y-62190380D01*
X20216857Y-62238000D01*
X20312095Y-62333238D01*
X20359714Y-62428476D01*
X20407333Y-62618952D01*
X20407333Y-62761809D01*
X20359714Y-62952285D01*
X20312095Y-63047523D01*
X20216857Y-63142761D01*
X20074000Y-63190380D01*
X19835904Y-63190380D01*
X21359714Y-63190380D02*
X20788285Y-63190380D01*
X21074000Y-63190380D02*
X21074000Y-62190380D01*
X20978761Y-62333238D01*
X20883523Y-62428476D01*
X20788285Y-62476095D01*
X21836095Y-54173380D02*
X21836095Y-53173380D01*
X22407523Y-54173380D02*
X21978952Y-53601952D01*
X22407523Y-53173380D02*
X21836095Y-53744809D01*
X86352142Y-50014142D02*
X86304523Y-50061761D01*
X86161666Y-50109380D01*
X86066428Y-50109380D01*
X85923571Y-50061761D01*
X85828333Y-49966523D01*
X85780714Y-49871285D01*
X85733095Y-49680809D01*
X85733095Y-49537952D01*
X85780714Y-49347476D01*
X85828333Y-49252238D01*
X85923571Y-49157000D01*
X86066428Y-49109380D01*
X86161666Y-49109380D01*
X86304523Y-49157000D01*
X86352142Y-49204619D01*
X86733095Y-49204619D02*
X86780714Y-49157000D01*
X86875952Y-49109380D01*
X87114047Y-49109380D01*
X87209285Y-49157000D01*
X87256904Y-49204619D01*
X87304523Y-49299857D01*
X87304523Y-49395095D01*
X87256904Y-49537952D01*
X86685476Y-50109380D01*
X87304523Y-50109380D01*
X87637857Y-49109380D02*
X88256904Y-49109380D01*
X87923571Y-49490333D01*
X88066428Y-49490333D01*
X88161666Y-49537952D01*
X88209285Y-49585571D01*
X88256904Y-49680809D01*
X88256904Y-49918904D01*
X88209285Y-50014142D01*
X88161666Y-50061761D01*
X88066428Y-50109380D01*
X87780714Y-50109380D01*
X87685476Y-50061761D01*
X87637857Y-50014142D01*
X68082142Y-53570142D02*
X68034523Y-53617761D01*
X67891666Y-53665380D01*
X67796428Y-53665380D01*
X67653571Y-53617761D01*
X67558333Y-53522523D01*
X67510714Y-53427285D01*
X67463095Y-53236809D01*
X67463095Y-53093952D01*
X67510714Y-52903476D01*
X67558333Y-52808238D01*
X67653571Y-52713000D01*
X67796428Y-52665380D01*
X67891666Y-52665380D01*
X68034523Y-52713000D01*
X68082142Y-52760619D01*
X68463095Y-52760619D02*
X68510714Y-52713000D01*
X68605952Y-52665380D01*
X68844047Y-52665380D01*
X68939285Y-52713000D01*
X68986904Y-52760619D01*
X69034523Y-52855857D01*
X69034523Y-52951095D01*
X68986904Y-53093952D01*
X68415476Y-53665380D01*
X69034523Y-53665380D01*
X69415476Y-52760619D02*
X69463095Y-52713000D01*
X69558333Y-52665380D01*
X69796428Y-52665380D01*
X69891666Y-52713000D01*
X69939285Y-52760619D01*
X69986904Y-52855857D01*
X69986904Y-52951095D01*
X69939285Y-53093952D01*
X69367857Y-53665380D01*
X69986904Y-53665380D01*
X114927142Y-58142142D02*
X114879523Y-58189761D01*
X114736666Y-58237380D01*
X114641428Y-58237380D01*
X114498571Y-58189761D01*
X114403333Y-58094523D01*
X114355714Y-57999285D01*
X114308095Y-57808809D01*
X114308095Y-57665952D01*
X114355714Y-57475476D01*
X114403333Y-57380238D01*
X114498571Y-57285000D01*
X114641428Y-57237380D01*
X114736666Y-57237380D01*
X114879523Y-57285000D01*
X114927142Y-57332619D01*
X115308095Y-57332619D02*
X115355714Y-57285000D01*
X115450952Y-57237380D01*
X115689047Y-57237380D01*
X115784285Y-57285000D01*
X115831904Y-57332619D01*
X115879523Y-57427857D01*
X115879523Y-57523095D01*
X115831904Y-57665952D01*
X115260476Y-58237380D01*
X115879523Y-58237380D01*
X116831904Y-58237380D02*
X116260476Y-58237380D01*
X116546190Y-58237380D02*
X116546190Y-57237380D01*
X116450952Y-57380238D01*
X116355714Y-57475476D01*
X116260476Y-57523095D01*
X115181142Y-39346142D02*
X115133523Y-39393761D01*
X114990666Y-39441380D01*
X114895428Y-39441380D01*
X114752571Y-39393761D01*
X114657333Y-39298523D01*
X114609714Y-39203285D01*
X114562095Y-39012809D01*
X114562095Y-38869952D01*
X114609714Y-38679476D01*
X114657333Y-38584238D01*
X114752571Y-38489000D01*
X114895428Y-38441380D01*
X114990666Y-38441380D01*
X115133523Y-38489000D01*
X115181142Y-38536619D01*
X115562095Y-38536619D02*
X115609714Y-38489000D01*
X115704952Y-38441380D01*
X115943047Y-38441380D01*
X116038285Y-38489000D01*
X116085904Y-38536619D01*
X116133523Y-38631857D01*
X116133523Y-38727095D01*
X116085904Y-38869952D01*
X115514476Y-39441380D01*
X116133523Y-39441380D01*
X116752571Y-38441380D02*
X116847809Y-38441380D01*
X116943047Y-38489000D01*
X116990666Y-38536619D01*
X117038285Y-38631857D01*
X117085904Y-38822333D01*
X117085904Y-39060428D01*
X117038285Y-39250904D01*
X116990666Y-39346142D01*
X116943047Y-39393761D01*
X116847809Y-39441380D01*
X116752571Y-39441380D01*
X116657333Y-39393761D01*
X116609714Y-39346142D01*
X116562095Y-39250904D01*
X116514476Y-39060428D01*
X116514476Y-38822333D01*
X116562095Y-38631857D01*
X116609714Y-38536619D01*
X116657333Y-38489000D01*
X116752571Y-38441380D01*
X115054142Y-43410142D02*
X115006523Y-43457761D01*
X114863666Y-43505380D01*
X114768428Y-43505380D01*
X114625571Y-43457761D01*
X114530333Y-43362523D01*
X114482714Y-43267285D01*
X114435095Y-43076809D01*
X114435095Y-42933952D01*
X114482714Y-42743476D01*
X114530333Y-42648238D01*
X114625571Y-42553000D01*
X114768428Y-42505380D01*
X114863666Y-42505380D01*
X115006523Y-42553000D01*
X115054142Y-42600619D01*
X116006523Y-43505380D02*
X115435095Y-43505380D01*
X115720809Y-43505380D02*
X115720809Y-42505380D01*
X115625571Y-42648238D01*
X115530333Y-42743476D01*
X115435095Y-42791095D01*
X116482714Y-43505380D02*
X116673190Y-43505380D01*
X116768428Y-43457761D01*
X116816047Y-43410142D01*
X116911285Y-43267285D01*
X116958904Y-43076809D01*
X116958904Y-42695857D01*
X116911285Y-42600619D01*
X116863666Y-42553000D01*
X116768428Y-42505380D01*
X116577952Y-42505380D01*
X116482714Y-42553000D01*
X116435095Y-42600619D01*
X116387476Y-42695857D01*
X116387476Y-42933952D01*
X116435095Y-43029190D01*
X116482714Y-43076809D01*
X116577952Y-43124428D01*
X116768428Y-43124428D01*
X116863666Y-43076809D01*
X116911285Y-43029190D01*
X116958904Y-42933952D01*
X68082142Y-46077142D02*
X68034523Y-46124761D01*
X67891666Y-46172380D01*
X67796428Y-46172380D01*
X67653571Y-46124761D01*
X67558333Y-46029523D01*
X67510714Y-45934285D01*
X67463095Y-45743809D01*
X67463095Y-45600952D01*
X67510714Y-45410476D01*
X67558333Y-45315238D01*
X67653571Y-45220000D01*
X67796428Y-45172380D01*
X67891666Y-45172380D01*
X68034523Y-45220000D01*
X68082142Y-45267619D01*
X69034523Y-46172380D02*
X68463095Y-46172380D01*
X68748809Y-46172380D02*
X68748809Y-45172380D01*
X68653571Y-45315238D01*
X68558333Y-45410476D01*
X68463095Y-45458095D01*
X69605952Y-45600952D02*
X69510714Y-45553333D01*
X69463095Y-45505714D01*
X69415476Y-45410476D01*
X69415476Y-45362857D01*
X69463095Y-45267619D01*
X69510714Y-45220000D01*
X69605952Y-45172380D01*
X69796428Y-45172380D01*
X69891666Y-45220000D01*
X69939285Y-45267619D01*
X69986904Y-45362857D01*
X69986904Y-45410476D01*
X69939285Y-45505714D01*
X69891666Y-45553333D01*
X69796428Y-45600952D01*
X69605952Y-45600952D01*
X69510714Y-45648571D01*
X69463095Y-45696190D01*
X69415476Y-45791428D01*
X69415476Y-45981904D01*
X69463095Y-46077142D01*
X69510714Y-46124761D01*
X69605952Y-46172380D01*
X69796428Y-46172380D01*
X69891666Y-46124761D01*
X69939285Y-46077142D01*
X69986904Y-45981904D01*
X69986904Y-45791428D01*
X69939285Y-45696190D01*
X69891666Y-45648571D01*
X69796428Y-45600952D01*
X115181142Y-35663142D02*
X115133523Y-35710761D01*
X114990666Y-35758380D01*
X114895428Y-35758380D01*
X114752571Y-35710761D01*
X114657333Y-35615523D01*
X114609714Y-35520285D01*
X114562095Y-35329809D01*
X114562095Y-35186952D01*
X114609714Y-34996476D01*
X114657333Y-34901238D01*
X114752571Y-34806000D01*
X114895428Y-34758380D01*
X114990666Y-34758380D01*
X115133523Y-34806000D01*
X115181142Y-34853619D01*
X116133523Y-35758380D02*
X115562095Y-35758380D01*
X115847809Y-35758380D02*
X115847809Y-34758380D01*
X115752571Y-34901238D01*
X115657333Y-34996476D01*
X115562095Y-35044095D01*
X116990666Y-34758380D02*
X116800190Y-34758380D01*
X116704952Y-34806000D01*
X116657333Y-34853619D01*
X116562095Y-34996476D01*
X116514476Y-35186952D01*
X116514476Y-35567904D01*
X116562095Y-35663142D01*
X116609714Y-35710761D01*
X116704952Y-35758380D01*
X116895428Y-35758380D01*
X116990666Y-35710761D01*
X117038285Y-35663142D01*
X117085904Y-35567904D01*
X117085904Y-35329809D01*
X117038285Y-35234571D01*
X116990666Y-35186952D01*
X116895428Y-35139333D01*
X116704952Y-35139333D01*
X116609714Y-35186952D01*
X116562095Y-35234571D01*
X116514476Y-35329809D01*
X87495142Y-66397142D02*
X87447523Y-66444761D01*
X87304666Y-66492380D01*
X87209428Y-66492380D01*
X87066571Y-66444761D01*
X86971333Y-66349523D01*
X86923714Y-66254285D01*
X86876095Y-66063809D01*
X86876095Y-65920952D01*
X86923714Y-65730476D01*
X86971333Y-65635238D01*
X87066571Y-65540000D01*
X87209428Y-65492380D01*
X87304666Y-65492380D01*
X87447523Y-65540000D01*
X87495142Y-65587619D01*
X88447523Y-66492380D02*
X87876095Y-66492380D01*
X88161809Y-66492380D02*
X88161809Y-65492380D01*
X88066571Y-65635238D01*
X87971333Y-65730476D01*
X87876095Y-65778095D01*
X89352285Y-65492380D02*
X88876095Y-65492380D01*
X88828476Y-65968571D01*
X88876095Y-65920952D01*
X88971333Y-65873333D01*
X89209428Y-65873333D01*
X89304666Y-65920952D01*
X89352285Y-65968571D01*
X89399904Y-66063809D01*
X89399904Y-66301904D01*
X89352285Y-66397142D01*
X89304666Y-66444761D01*
X89209428Y-66492380D01*
X88971333Y-66492380D01*
X88876095Y-66444761D01*
X88828476Y-66397142D01*
X108069142Y-66143142D02*
X108021523Y-66190761D01*
X107878666Y-66238380D01*
X107783428Y-66238380D01*
X107640571Y-66190761D01*
X107545333Y-66095523D01*
X107497714Y-66000285D01*
X107450095Y-65809809D01*
X107450095Y-65666952D01*
X107497714Y-65476476D01*
X107545333Y-65381238D01*
X107640571Y-65286000D01*
X107783428Y-65238380D01*
X107878666Y-65238380D01*
X108021523Y-65286000D01*
X108069142Y-65333619D01*
X109021523Y-66238380D02*
X108450095Y-66238380D01*
X108735809Y-66238380D02*
X108735809Y-65238380D01*
X108640571Y-65381238D01*
X108545333Y-65476476D01*
X108450095Y-65524095D01*
X109878666Y-65571714D02*
X109878666Y-66238380D01*
X109640571Y-65190761D02*
X109402476Y-65905047D01*
X110021523Y-65905047D01*
X40600333Y-33758142D02*
X40552714Y-33805761D01*
X40409857Y-33853380D01*
X40314619Y-33853380D01*
X40171761Y-33805761D01*
X40076523Y-33710523D01*
X40028904Y-33615285D01*
X39981285Y-33424809D01*
X39981285Y-33281952D01*
X40028904Y-33091476D01*
X40076523Y-32996238D01*
X40171761Y-32901000D01*
X40314619Y-32853380D01*
X40409857Y-32853380D01*
X40552714Y-32901000D01*
X40600333Y-32948619D01*
X41076523Y-33853380D02*
X41267000Y-33853380D01*
X41362238Y-33805761D01*
X41409857Y-33758142D01*
X41505095Y-33615285D01*
X41552714Y-33424809D01*
X41552714Y-33043857D01*
X41505095Y-32948619D01*
X41457476Y-32901000D01*
X41362238Y-32853380D01*
X41171761Y-32853380D01*
X41076523Y-32901000D01*
X41028904Y-32948619D01*
X40981285Y-33043857D01*
X40981285Y-33281952D01*
X41028904Y-33377190D01*
X41076523Y-33424809D01*
X41171761Y-33472428D01*
X41362238Y-33472428D01*
X41457476Y-33424809D01*
X41505095Y-33377190D01*
X41552714Y-33281952D01*
X103846333Y-35409142D02*
X103798714Y-35456761D01*
X103655857Y-35504380D01*
X103560619Y-35504380D01*
X103417761Y-35456761D01*
X103322523Y-35361523D01*
X103274904Y-35266285D01*
X103227285Y-35075809D01*
X103227285Y-34932952D01*
X103274904Y-34742476D01*
X103322523Y-34647238D01*
X103417761Y-34552000D01*
X103560619Y-34504380D01*
X103655857Y-34504380D01*
X103798714Y-34552000D01*
X103846333Y-34599619D01*
X104179666Y-34504380D02*
X104846333Y-34504380D01*
X104417761Y-35504380D01*
X70826333Y-35663142D02*
X70778714Y-35710761D01*
X70635857Y-35758380D01*
X70540619Y-35758380D01*
X70397761Y-35710761D01*
X70302523Y-35615523D01*
X70254904Y-35520285D01*
X70207285Y-35329809D01*
X70207285Y-35186952D01*
X70254904Y-34996476D01*
X70302523Y-34901238D01*
X70397761Y-34806000D01*
X70540619Y-34758380D01*
X70635857Y-34758380D01*
X70778714Y-34806000D01*
X70826333Y-34853619D01*
X71159666Y-34758380D02*
X71778714Y-34758380D01*
X71445380Y-35139333D01*
X71588238Y-35139333D01*
X71683476Y-35186952D01*
X71731095Y-35234571D01*
X71778714Y-35329809D01*
X71778714Y-35567904D01*
X71731095Y-35663142D01*
X71683476Y-35710761D01*
X71588238Y-35758380D01*
X71302523Y-35758380D01*
X71207285Y-35710761D01*
X71159666Y-35663142D01*
X53729047Y-62793571D02*
X53871904Y-62841190D01*
X53919523Y-62888809D01*
X53967142Y-62984047D01*
X53967142Y-63126904D01*
X53919523Y-63222142D01*
X53871904Y-63269761D01*
X53776666Y-63317380D01*
X53395714Y-63317380D01*
X53395714Y-62317380D01*
X53729047Y-62317380D01*
X53824285Y-62365000D01*
X53871904Y-62412619D01*
X53919523Y-62507857D01*
X53919523Y-62603095D01*
X53871904Y-62698333D01*
X53824285Y-62745952D01*
X53729047Y-62793571D01*
X53395714Y-62793571D01*
X54300476Y-62317380D02*
X54967142Y-62317380D01*
X54300476Y-63317380D01*
X54967142Y-63317380D01*
X55871904Y-63317380D02*
X55300476Y-63317380D01*
X55586190Y-63317380D02*
X55586190Y-62317380D01*
X55490952Y-62460238D01*
X55395714Y-62555476D01*
X55300476Y-62603095D01*
X48966428Y-55615952D02*
X48966428Y-54854047D01*
X49347380Y-55235000D02*
X48585476Y-55235000D01*
M02*
