G04 #@! TF.GenerationSoftware,KiCad,Pcbnew,5.1.5-52549c5~86~ubuntu18.04.1*
G04 #@! TF.CreationDate,2020-05-30T04:21:03+05:30*
G04 #@! TF.ProjectId,Resp2,52657370-322e-46b6-9963-61645f706362,rev?*
G04 #@! TF.SameCoordinates,Original*
G04 #@! TF.FileFunction,Other,Fab,Top*
%FSLAX46Y46*%
G04 Gerber Fmt 4.6, Leading zero omitted, Abs format (unit mm)*
G04 Created by KiCad (PCBNEW 5.1.5-52549c5~86~ubuntu18.04.1) date 2020-05-30 04:21:03*
%MOMM*%
%LPD*%
G04 APERTURE LIST*
%ADD10C,0.100000*%
%ADD11C,0.150000*%
%ADD12C,0.080000*%
%ADD13C,0.120000*%
G04 APERTURE END LIST*
D10*
X79375000Y-44450000D02*
X80010000Y-45085000D01*
X74930000Y-44450000D02*
X79375000Y-44450000D01*
X74930000Y-46990000D02*
X74930000Y-44450000D01*
X80010000Y-46990000D02*
X74930000Y-46990000D01*
X80010000Y-45085000D02*
X80010000Y-46990000D01*
X72390000Y-36830000D02*
X73025000Y-37465000D01*
X67945000Y-36830000D02*
X72390000Y-36830000D01*
X67945000Y-39370000D02*
X67945000Y-36830000D01*
X73025000Y-39370000D02*
X67945000Y-39370000D01*
X73025000Y-37465000D02*
X73025000Y-39370000D01*
X83185000Y-66040000D02*
X83820000Y-66675000D01*
X78740000Y-66040000D02*
X83185000Y-66040000D01*
X78740000Y-68580000D02*
X78740000Y-66040000D01*
X83820000Y-68580000D02*
X78740000Y-68580000D01*
X83820000Y-66675000D02*
X83820000Y-68580000D01*
X33100000Y-56500000D02*
X30400000Y-56500000D01*
X33100000Y-56700000D02*
X30400000Y-56700000D01*
X33100000Y-56600000D02*
X30400000Y-56600000D01*
X31750000Y-63500000D02*
X31750000Y-61020000D01*
X31750000Y-53340000D02*
X31750000Y-55820000D01*
X33100000Y-61020000D02*
X33100000Y-55820000D01*
X30400000Y-61020000D02*
X33100000Y-61020000D01*
X30400000Y-55820000D02*
X30400000Y-61020000D01*
X33100000Y-55820000D02*
X30400000Y-55820000D01*
X60325000Y-40640000D02*
X103505000Y-40640000D01*
X60325000Y-57150000D02*
X60325000Y-40640000D01*
X61595000Y-58420000D02*
X60325000Y-57150000D01*
X103505000Y-58420000D02*
X61595000Y-58420000D01*
X103505000Y-40640000D02*
X103505000Y-58420000D01*
X106045000Y-53340000D02*
X95885000Y-53340000D01*
X106045000Y-45720000D02*
X106045000Y-53340000D01*
X95885000Y-45720000D02*
X106045000Y-45720000D01*
X95885000Y-53340000D02*
X95885000Y-45720000D01*
X36810000Y-56180000D02*
X36810000Y-59980000D01*
X36810000Y-59980000D02*
X34310000Y-59980000D01*
X34310000Y-59980000D02*
X34310000Y-56180000D01*
X34310000Y-56180000D02*
X36810000Y-56180000D01*
X35560000Y-57330000D02*
X35560000Y-57730000D01*
X35560000Y-57730000D02*
X36110000Y-57730000D01*
X35560000Y-57730000D02*
X35010000Y-57730000D01*
X35560000Y-57730000D02*
X35960000Y-58330000D01*
X35960000Y-58330000D02*
X35160000Y-58330000D01*
X35160000Y-58330000D02*
X35560000Y-57730000D01*
X35560000Y-58330000D02*
X35560000Y-58830000D01*
X35470000Y-76010000D02*
X35470000Y-70260000D01*
X35470000Y-70260000D02*
X23070000Y-70260000D01*
X23070000Y-70260000D02*
X23070000Y-76010000D01*
X23070000Y-76010000D02*
X35470000Y-76010000D01*
X33645000Y-76010000D02*
X33020000Y-75010000D01*
X33020000Y-75010000D02*
X32395000Y-76010000D01*
X122000000Y-35560000D02*
X123000000Y-36185000D01*
X123000000Y-34935000D02*
X122000000Y-35560000D01*
X123000000Y-45510000D02*
X123000000Y-33110000D01*
X117250000Y-45510000D02*
X123000000Y-45510000D01*
X117250000Y-33110000D02*
X117250000Y-45510000D01*
X123000000Y-33110000D02*
X117250000Y-33110000D01*
D11*
X33060000Y-27645000D02*
X34060000Y-28645000D01*
X24360000Y-27645000D02*
X33060000Y-27645000D01*
X24309200Y-32045000D02*
X24309200Y-27645000D01*
X34060000Y-32045000D02*
X24360000Y-32045000D01*
X34060000Y-28645000D02*
X34060000Y-32045000D01*
D10*
X115570000Y-31750000D02*
X114935000Y-32385000D01*
X115570000Y-14605000D02*
X115570000Y-31750000D01*
X113030000Y-14605000D02*
X115570000Y-14605000D01*
X113030000Y-32385000D02*
X113030000Y-14605000D01*
X114935000Y-32385000D02*
X113030000Y-32385000D01*
X51395000Y-42545000D02*
G75*
G03X51395000Y-42545000I-5000000J0D01*
G01*
X28610000Y-37490000D02*
X29810000Y-37490000D01*
X29810000Y-37490000D02*
X29810000Y-39490000D01*
X29810000Y-39490000D02*
X28610000Y-39490000D01*
X28610000Y-39490000D02*
X28610000Y-37490000D01*
X37500000Y-21470000D02*
X38700000Y-21470000D01*
X38700000Y-21470000D02*
X38700000Y-23470000D01*
X38700000Y-23470000D02*
X37500000Y-23470000D01*
X37500000Y-23470000D02*
X37500000Y-21470000D01*
X24095000Y-23470000D02*
X22895000Y-23470000D01*
X22895000Y-23470000D02*
X22895000Y-21470000D01*
X22895000Y-21470000D02*
X24095000Y-21470000D01*
X24095000Y-21470000D02*
X24095000Y-23470000D01*
X37500000Y-26060000D02*
X38700000Y-26060000D01*
X38700000Y-26060000D02*
X38700000Y-28060000D01*
X38700000Y-28060000D02*
X37500000Y-28060000D01*
X37500000Y-28060000D02*
X37500000Y-26060000D01*
X35525000Y-23470000D02*
X34325000Y-23470000D01*
X34325000Y-23470000D02*
X34325000Y-21470000D01*
X34325000Y-21470000D02*
X35525000Y-21470000D01*
X35525000Y-21470000D02*
X35525000Y-23470000D01*
X19720000Y-26060000D02*
X20920000Y-26060000D01*
X20920000Y-26060000D02*
X20920000Y-28060000D01*
X20920000Y-28060000D02*
X19720000Y-28060000D01*
X19720000Y-28060000D02*
X19720000Y-26060000D01*
X20920000Y-34410000D02*
X19720000Y-34410000D01*
X19720000Y-34410000D02*
X19720000Y-32410000D01*
X19720000Y-32410000D02*
X20920000Y-32410000D01*
X20920000Y-32410000D02*
X20920000Y-34410000D01*
X86480000Y-36230000D02*
X86480000Y-37430000D01*
X86480000Y-37430000D02*
X84480000Y-37430000D01*
X84480000Y-37430000D02*
X84480000Y-36230000D01*
X84480000Y-36230000D02*
X86480000Y-36230000D01*
X77350000Y-37430000D02*
X77350000Y-36230000D01*
X77350000Y-36230000D02*
X79350000Y-36230000D01*
X79350000Y-36230000D02*
X79350000Y-37430000D01*
X79350000Y-37430000D02*
X77350000Y-37430000D01*
X109890000Y-29725000D02*
X111090000Y-29725000D01*
X111090000Y-29725000D02*
X111090000Y-31725000D01*
X111090000Y-31725000D02*
X109890000Y-31725000D01*
X109890000Y-31725000D02*
X109890000Y-29725000D01*
X110490000Y-75010000D02*
X109865000Y-76010000D01*
X111115000Y-76010000D02*
X110490000Y-75010000D01*
X100540000Y-76010000D02*
X112940000Y-76010000D01*
X100540000Y-70260000D02*
X100540000Y-76010000D01*
X112940000Y-70260000D02*
X100540000Y-70260000D01*
X112940000Y-76010000D02*
X112940000Y-70260000D01*
X60960000Y-75010000D02*
X60335000Y-76010000D01*
X61585000Y-76010000D02*
X60960000Y-75010000D01*
X51010000Y-76010000D02*
X63410000Y-76010000D01*
X51010000Y-70260000D02*
X51010000Y-76010000D01*
X63410000Y-70260000D02*
X51010000Y-70260000D01*
X63410000Y-76010000D02*
X63410000Y-70260000D01*
X93980000Y-75010000D02*
X93355000Y-76010000D01*
X94605000Y-76010000D02*
X93980000Y-75010000D01*
X84030000Y-76010000D02*
X96430000Y-76010000D01*
X84030000Y-70260000D02*
X84030000Y-76010000D01*
X96430000Y-70260000D02*
X84030000Y-70260000D01*
X96430000Y-76010000D02*
X96430000Y-70260000D01*
X22950000Y-13525000D02*
X22950000Y-19275000D01*
X22950000Y-19275000D02*
X35350000Y-19275000D01*
X35350000Y-19275000D02*
X35350000Y-13525000D01*
X35350000Y-13525000D02*
X22950000Y-13525000D01*
X24775000Y-13525000D02*
X25400000Y-14525000D01*
X25400000Y-14525000D02*
X26025000Y-13525000D01*
X77470000Y-75010000D02*
X76845000Y-76010000D01*
X78095000Y-76010000D02*
X77470000Y-75010000D01*
X67520000Y-76010000D02*
X79920000Y-76010000D01*
X67520000Y-70260000D02*
X67520000Y-76010000D01*
X79920000Y-70260000D02*
X67520000Y-70260000D01*
X79920000Y-76010000D02*
X79920000Y-70260000D01*
X122000000Y-59690000D02*
X123000000Y-60315000D01*
X123000000Y-59065000D02*
X122000000Y-59690000D01*
X123000000Y-69640000D02*
X123000000Y-57240000D01*
X117250000Y-69640000D02*
X123000000Y-69640000D01*
X117250000Y-57240000D02*
X117250000Y-69640000D01*
X123000000Y-57240000D02*
X117250000Y-57240000D01*
X57897500Y-50330000D02*
X54697500Y-50330000D01*
X57897500Y-48730000D02*
X57897500Y-50330000D01*
X54697500Y-48730000D02*
X57897500Y-48730000D01*
X54697500Y-50330000D02*
X54697500Y-48730000D01*
X62660000Y-51545000D02*
X61685000Y-50570000D01*
X66585000Y-51545000D02*
X62660000Y-51545000D01*
X66585000Y-47645000D02*
X66585000Y-51545000D01*
X61685000Y-47645000D02*
X66585000Y-47645000D01*
X61685000Y-50570000D02*
X61685000Y-47645000D01*
X94735000Y-50570000D02*
X94735000Y-47645000D01*
X94735000Y-47645000D02*
X103385000Y-47645000D01*
X103385000Y-47645000D02*
X103385000Y-51545000D01*
X103385000Y-51545000D02*
X95710000Y-51545000D01*
X95710000Y-51545000D02*
X94735000Y-50570000D01*
X79565000Y-30450000D02*
X78565000Y-29450000D01*
X79565000Y-30450000D02*
X85265000Y-30450000D01*
X78565000Y-29450000D02*
X78565000Y-26750000D01*
X85265000Y-30450000D02*
X85265000Y-26750000D01*
X78565000Y-26750000D02*
X85265000Y-26750000D01*
X71145000Y-48930000D02*
X73145000Y-48930000D01*
X71145000Y-50130000D02*
X71145000Y-48930000D01*
X73145000Y-50130000D02*
X71145000Y-50130000D01*
X73145000Y-48930000D02*
X73145000Y-50130000D01*
X57125000Y-53940000D02*
X55125000Y-53940000D01*
X57125000Y-52740000D02*
X57125000Y-53940000D01*
X55125000Y-52740000D02*
X57125000Y-52740000D01*
X55125000Y-53940000D02*
X55125000Y-52740000D01*
X55125000Y-45120000D02*
X57125000Y-45120000D01*
X55125000Y-46320000D02*
X55125000Y-45120000D01*
X57125000Y-46320000D02*
X55125000Y-46320000D01*
X57125000Y-45120000D02*
X57125000Y-46320000D01*
X108560000Y-60290000D02*
X106560000Y-60290000D01*
X108560000Y-59090000D02*
X108560000Y-60290000D01*
X106560000Y-59090000D02*
X108560000Y-59090000D01*
X106560000Y-60290000D02*
X106560000Y-59090000D01*
X112275000Y-67910000D02*
X112275000Y-66710000D01*
X112275000Y-66710000D02*
X114275000Y-66710000D01*
X114275000Y-66710000D02*
X114275000Y-67910000D01*
X114275000Y-67910000D02*
X112275000Y-67910000D01*
X60840000Y-67910000D02*
X60840000Y-66710000D01*
X60840000Y-66710000D02*
X62840000Y-66710000D01*
X62840000Y-66710000D02*
X62840000Y-67910000D01*
X62840000Y-67910000D02*
X60840000Y-67910000D01*
X40675000Y-21470000D02*
X41875000Y-21470000D01*
X41875000Y-21470000D02*
X41875000Y-23470000D01*
X41875000Y-23470000D02*
X40675000Y-23470000D01*
X40675000Y-23470000D02*
X40675000Y-21470000D01*
X112275000Y-47660000D02*
X114275000Y-47660000D01*
X112275000Y-48860000D02*
X112275000Y-47660000D01*
X114275000Y-48860000D02*
X112275000Y-48860000D01*
X114275000Y-47660000D02*
X114275000Y-48860000D01*
X53855000Y-67910000D02*
X53855000Y-66710000D01*
X53855000Y-66710000D02*
X55855000Y-66710000D01*
X55855000Y-66710000D02*
X55855000Y-67910000D01*
X55855000Y-67910000D02*
X53855000Y-67910000D01*
X108560000Y-45050000D02*
X106560000Y-45050000D01*
X108560000Y-43850000D02*
X108560000Y-45050000D01*
X106560000Y-43850000D02*
X108560000Y-43850000D01*
X106560000Y-45050000D02*
X106560000Y-43850000D01*
X25365000Y-45060000D02*
X24165000Y-45060000D01*
X24165000Y-45060000D02*
X24165000Y-43060000D01*
X24165000Y-43060000D02*
X25365000Y-43060000D01*
X25365000Y-43060000D02*
X25365000Y-45060000D01*
X106560000Y-41240000D02*
X106560000Y-40040000D01*
X106560000Y-40040000D02*
X108560000Y-40040000D01*
X108560000Y-40040000D02*
X108560000Y-41240000D01*
X108560000Y-41240000D02*
X106560000Y-41240000D01*
X40030000Y-19650000D02*
X40030000Y-18450000D01*
X40030000Y-18450000D02*
X42030000Y-18450000D01*
X42030000Y-18450000D02*
X42030000Y-19650000D01*
X42030000Y-19650000D02*
X40030000Y-19650000D01*
X47745000Y-69250000D02*
X47745000Y-70450000D01*
X47745000Y-70450000D02*
X45745000Y-70450000D01*
X45745000Y-70450000D02*
X45745000Y-69250000D01*
X45745000Y-69250000D02*
X47745000Y-69250000D01*
X20920000Y-23470000D02*
X19720000Y-23470000D01*
X19720000Y-23470000D02*
X19720000Y-21470000D01*
X19720000Y-21470000D02*
X20920000Y-21470000D01*
X20920000Y-21470000D02*
X20920000Y-23470000D01*
X19720000Y-37490000D02*
X20920000Y-37490000D01*
X20920000Y-37490000D02*
X20920000Y-39490000D01*
X20920000Y-39490000D02*
X19720000Y-39490000D01*
X19720000Y-39490000D02*
X19720000Y-37490000D01*
X33055000Y-37490000D02*
X34255000Y-37490000D01*
X34255000Y-37490000D02*
X34255000Y-39490000D01*
X34255000Y-39490000D02*
X33055000Y-39490000D01*
X33055000Y-39490000D02*
X33055000Y-37490000D01*
X19720000Y-43060000D02*
X20920000Y-43060000D01*
X20920000Y-43060000D02*
X20920000Y-45060000D01*
X20920000Y-45060000D02*
X19720000Y-45060000D01*
X19720000Y-45060000D02*
X19720000Y-43060000D01*
X28610000Y-43060000D02*
X29810000Y-43060000D01*
X29810000Y-43060000D02*
X29810000Y-45060000D01*
X29810000Y-45060000D02*
X28610000Y-45060000D01*
X28610000Y-45060000D02*
X28610000Y-43060000D01*
X24038000Y-37490000D02*
X25238000Y-37490000D01*
X25238000Y-37490000D02*
X25238000Y-39490000D01*
X25238000Y-39490000D02*
X24038000Y-39490000D01*
X24038000Y-39490000D02*
X24038000Y-37490000D01*
X37500000Y-43060000D02*
X38700000Y-43060000D01*
X38700000Y-43060000D02*
X38700000Y-45060000D01*
X38700000Y-45060000D02*
X37500000Y-45060000D01*
X37500000Y-45060000D02*
X37500000Y-43060000D01*
X33055000Y-43060000D02*
X34255000Y-43060000D01*
X34255000Y-43060000D02*
X34255000Y-45060000D01*
X34255000Y-45060000D02*
X33055000Y-45060000D01*
X33055000Y-45060000D02*
X33055000Y-43060000D01*
X37500000Y-37490000D02*
X38700000Y-37490000D01*
X38700000Y-37490000D02*
X38700000Y-39490000D01*
X38700000Y-39490000D02*
X37500000Y-39490000D01*
X37500000Y-39490000D02*
X37500000Y-37490000D01*
X39395000Y-70450000D02*
X39395000Y-69250000D01*
X39395000Y-69250000D02*
X41395000Y-69250000D01*
X41395000Y-69250000D02*
X41395000Y-70450000D01*
X41395000Y-70450000D02*
X39395000Y-70450000D01*
X40030000Y-15840000D02*
X41730000Y-15840000D01*
X41730000Y-15840000D02*
X42030000Y-15540000D01*
X42030000Y-15540000D02*
X42030000Y-14640000D01*
X42030000Y-14640000D02*
X40030000Y-14640000D01*
X40030000Y-14640000D02*
X40030000Y-15840000D01*
X45745000Y-14640000D02*
X45745000Y-15840000D01*
X47745000Y-14640000D02*
X45745000Y-14640000D01*
X47745000Y-15540000D02*
X47745000Y-14640000D01*
X47445000Y-15840000D02*
X47745000Y-15540000D01*
X45745000Y-15840000D02*
X47445000Y-15840000D01*
X47745000Y-73060000D02*
X46045000Y-73060000D01*
X46045000Y-73060000D02*
X45745000Y-73360000D01*
X45745000Y-73360000D02*
X45745000Y-74260000D01*
X45745000Y-74260000D02*
X47745000Y-74260000D01*
X47745000Y-74260000D02*
X47745000Y-73060000D01*
X39395000Y-74260000D02*
X41095000Y-74260000D01*
X41095000Y-74260000D02*
X41395000Y-73960000D01*
X41395000Y-73960000D02*
X41395000Y-73060000D01*
X41395000Y-73060000D02*
X39395000Y-73060000D01*
X39395000Y-73060000D02*
X39395000Y-74260000D01*
X57230000Y-27880000D02*
X54530000Y-27880000D01*
X54530000Y-27880000D02*
X54530000Y-33080000D01*
X54530000Y-33080000D02*
X57230000Y-33080000D01*
X57230000Y-33080000D02*
X57230000Y-27880000D01*
X55880000Y-25400000D02*
X55880000Y-27880000D01*
X55880000Y-35560000D02*
X55880000Y-33080000D01*
X57230000Y-28660000D02*
X54530000Y-28660000D01*
X57230000Y-28760000D02*
X54530000Y-28760000D01*
X57230000Y-28560000D02*
X54530000Y-28560000D01*
X28000000Y-53670000D02*
X22800000Y-53670000D01*
X22800000Y-53670000D02*
X22800000Y-63170000D01*
X22800000Y-63170000D02*
X28000000Y-63170000D01*
X28000000Y-63170000D02*
X28000000Y-53670000D01*
X25400000Y-50800000D02*
X25400000Y-53670000D01*
X25400000Y-66040000D02*
X25400000Y-63170000D01*
X28000000Y-55095000D02*
X22800000Y-55095000D01*
X28000000Y-55195000D02*
X22800000Y-55195000D01*
X28000000Y-54995000D02*
X22800000Y-54995000D01*
X89415000Y-48930000D02*
X91415000Y-48930000D01*
X89415000Y-50130000D02*
X89415000Y-48930000D01*
X91415000Y-50130000D02*
X89415000Y-50130000D01*
X91415000Y-48930000D02*
X91415000Y-50130000D01*
X73145000Y-53940000D02*
X71145000Y-53940000D01*
X73145000Y-52740000D02*
X73145000Y-53940000D01*
X71145000Y-52740000D02*
X73145000Y-52740000D01*
X71145000Y-53940000D02*
X71145000Y-52740000D01*
X114275000Y-60290000D02*
X112275000Y-60290000D01*
X114275000Y-59090000D02*
X114275000Y-60290000D01*
X112275000Y-59090000D02*
X114275000Y-59090000D01*
X112275000Y-60290000D02*
X112275000Y-59090000D01*
X114275000Y-41240000D02*
X112275000Y-41240000D01*
X114275000Y-40040000D02*
X114275000Y-41240000D01*
X112275000Y-40040000D02*
X114275000Y-40040000D01*
X112275000Y-41240000D02*
X112275000Y-40040000D01*
X114275000Y-45050000D02*
X112275000Y-45050000D01*
X114275000Y-43850000D02*
X114275000Y-45050000D01*
X112275000Y-43850000D02*
X114275000Y-43850000D01*
X112275000Y-45050000D02*
X112275000Y-43850000D01*
X73145000Y-46320000D02*
X71145000Y-46320000D01*
X73145000Y-45120000D02*
X73145000Y-46320000D01*
X71145000Y-45120000D02*
X73145000Y-45120000D01*
X71145000Y-46320000D02*
X71145000Y-45120000D01*
X112275000Y-37430000D02*
X112275000Y-36230000D01*
X112275000Y-36230000D02*
X114275000Y-36230000D01*
X114275000Y-36230000D02*
X114275000Y-37430000D01*
X114275000Y-37430000D02*
X112275000Y-37430000D01*
X90050000Y-67910000D02*
X90050000Y-66710000D01*
X90050000Y-66710000D02*
X92050000Y-66710000D01*
X92050000Y-66710000D02*
X92050000Y-67910000D01*
X92050000Y-67910000D02*
X90050000Y-67910000D01*
X108560000Y-67910000D02*
X106560000Y-67910000D01*
X108560000Y-66710000D02*
X108560000Y-67910000D01*
X106560000Y-66710000D02*
X108560000Y-66710000D01*
X106560000Y-67910000D02*
X106560000Y-66710000D01*
X50355000Y-29955000D02*
G75*
G03X50355000Y-29955000I-4000000J0D01*
G01*
X50605000Y-34205000D02*
X42105000Y-34205000D01*
X50605000Y-26705000D02*
X50605000Y-34205000D01*
X42105000Y-26705000D02*
X42105000Y-34205000D01*
X49605000Y-25705000D02*
X43105000Y-25705000D01*
X49605000Y-25705000D02*
X50605000Y-26705000D01*
X43105000Y-25705000D02*
X42105000Y-26705000D01*
X47855000Y-26392722D02*
X47855000Y-27192722D01*
X48255000Y-26792722D02*
X47455000Y-26792722D01*
X103425000Y-29655000D02*
G75*
G03X103425000Y-29655000I-5000000J0D01*
G01*
X93275000Y-24505000D02*
X103575000Y-24505000D01*
X93275000Y-33805000D02*
X93275000Y-24505000D01*
X103575000Y-33805000D02*
X103575000Y-24505000D01*
X94275000Y-34805000D02*
X102575000Y-34805000D01*
X94275000Y-34805000D02*
X93275000Y-33805000D01*
X102575000Y-34805000D02*
X103575000Y-33805000D01*
X96725000Y-34213325D02*
X96725000Y-33213325D01*
X96225000Y-33713325D02*
X97225000Y-33713325D01*
X70405000Y-29655000D02*
G75*
G03X70405000Y-29655000I-5000000J0D01*
G01*
X60255000Y-24505000D02*
X70555000Y-24505000D01*
X60255000Y-33805000D02*
X60255000Y-24505000D01*
X70555000Y-33805000D02*
X70555000Y-24505000D01*
X61255000Y-34805000D02*
X69555000Y-34805000D01*
X61255000Y-34805000D02*
X60255000Y-33805000D01*
X69555000Y-34805000D02*
X70555000Y-33805000D01*
X63705000Y-34213325D02*
X63705000Y-33213325D01*
X63205000Y-33713325D02*
X64205000Y-33713325D01*
X47355000Y-59045000D02*
G75*
G03X47355000Y-59045000I-1000000J0D01*
G01*
X53855000Y-59045000D02*
G75*
G03X53855000Y-59045000I-7500000J0D01*
G01*
D11*
X73322380Y-46505714D02*
X73322380Y-45934285D01*
X74322380Y-46220000D02*
X73322380Y-46220000D01*
X74322380Y-45600952D02*
X73322380Y-45600952D01*
X73322380Y-45220000D01*
X73370000Y-45124761D01*
X73417619Y-45077142D01*
X73512857Y-45029523D01*
X73655714Y-45029523D01*
X73750952Y-45077142D01*
X73798571Y-45124761D01*
X73846190Y-45220000D01*
X73846190Y-45600952D01*
X76755714Y-45886666D02*
X77231904Y-45886666D01*
X76660476Y-46172380D02*
X76993809Y-45172380D01*
X77327142Y-46172380D01*
X78089047Y-45172380D02*
X77898571Y-45172380D01*
X77803333Y-45220000D01*
X77755714Y-45267619D01*
X77660476Y-45410476D01*
X77612857Y-45600952D01*
X77612857Y-45981904D01*
X77660476Y-46077142D01*
X77708095Y-46124761D01*
X77803333Y-46172380D01*
X77993809Y-46172380D01*
X78089047Y-46124761D01*
X78136666Y-46077142D01*
X78184285Y-45981904D01*
X78184285Y-45743809D01*
X78136666Y-45648571D01*
X78089047Y-45600952D01*
X77993809Y-45553333D01*
X77803333Y-45553333D01*
X77708095Y-45600952D01*
X77660476Y-45648571D01*
X77612857Y-45743809D01*
X66337380Y-38885714D02*
X66337380Y-38314285D01*
X67337380Y-38600000D02*
X66337380Y-38600000D01*
X67337380Y-37980952D02*
X66337380Y-37980952D01*
X66337380Y-37600000D01*
X66385000Y-37504761D01*
X66432619Y-37457142D01*
X66527857Y-37409523D01*
X66670714Y-37409523D01*
X66765952Y-37457142D01*
X66813571Y-37504761D01*
X66861190Y-37600000D01*
X66861190Y-37980952D01*
X69770714Y-38266666D02*
X70246904Y-38266666D01*
X69675476Y-38552380D02*
X70008809Y-37552380D01*
X70342142Y-38552380D01*
X70580238Y-37552380D02*
X71246904Y-37552380D01*
X70818333Y-38552380D01*
X77132380Y-68095714D02*
X77132380Y-67524285D01*
X78132380Y-67810000D02*
X77132380Y-67810000D01*
X78132380Y-67190952D02*
X77132380Y-67190952D01*
X77132380Y-66810000D01*
X77180000Y-66714761D01*
X77227619Y-66667142D01*
X77322857Y-66619523D01*
X77465714Y-66619523D01*
X77560952Y-66667142D01*
X77608571Y-66714761D01*
X77656190Y-66810000D01*
X77656190Y-67190952D01*
X80065714Y-67762380D02*
X80065714Y-66762380D01*
X80303809Y-66762380D01*
X80446666Y-66810000D01*
X80541904Y-66905238D01*
X80589523Y-67000476D01*
X80637142Y-67190952D01*
X80637142Y-67333809D01*
X80589523Y-67524285D01*
X80541904Y-67619523D01*
X80446666Y-67714761D01*
X80303809Y-67762380D01*
X80065714Y-67762380D01*
X81589523Y-67762380D02*
X81018095Y-67762380D01*
X81303809Y-67762380D02*
X81303809Y-66762380D01*
X81208571Y-66905238D01*
X81113333Y-67000476D01*
X81018095Y-67048095D01*
X82208571Y-66762380D02*
X82303809Y-66762380D01*
X82399047Y-66810000D01*
X82446666Y-66857619D01*
X82494285Y-66952857D01*
X82541904Y-67143333D01*
X82541904Y-67381428D01*
X82494285Y-67571904D01*
X82446666Y-67667142D01*
X82399047Y-67714761D01*
X82303809Y-67762380D01*
X82208571Y-67762380D01*
X82113333Y-67714761D01*
X82065714Y-67667142D01*
X82018095Y-67571904D01*
X81970476Y-67381428D01*
X81970476Y-67143333D01*
X82018095Y-66952857D01*
X82065714Y-66857619D01*
X82113333Y-66810000D01*
X82208571Y-66762380D01*
X113038095Y-71632380D02*
X113609523Y-71632380D01*
X113323809Y-72632380D02*
X113323809Y-71632380D01*
X113942857Y-72632380D02*
X113942857Y-71632380D01*
X114323809Y-71632380D01*
X114419047Y-71680000D01*
X114466666Y-71727619D01*
X114514285Y-71822857D01*
X114514285Y-71965714D01*
X114466666Y-72060952D01*
X114419047Y-72108571D01*
X114323809Y-72156190D01*
X113942857Y-72156190D01*
X115371428Y-71965714D02*
X115371428Y-72632380D01*
X115133333Y-71584761D02*
X114895238Y-72299047D01*
X115514285Y-72299047D01*
X29732380Y-60562857D02*
X29732380Y-61134285D01*
X29732380Y-60848571D02*
X28732380Y-60848571D01*
X28875238Y-60943809D01*
X28970476Y-61039047D01*
X29018095Y-61134285D01*
X29732380Y-60134285D02*
X28732380Y-60134285D01*
X29732380Y-59562857D01*
X28732380Y-59562857D01*
X29065714Y-58658095D02*
X29732380Y-58658095D01*
X28684761Y-58896190D02*
X29399047Y-59134285D01*
X29399047Y-58515238D01*
X28732380Y-57943809D02*
X28732380Y-57848571D01*
X28780000Y-57753333D01*
X28827619Y-57705714D01*
X28922857Y-57658095D01*
X29113333Y-57610476D01*
X29351428Y-57610476D01*
X29541904Y-57658095D01*
X29637142Y-57705714D01*
X29684761Y-57753333D01*
X29732380Y-57848571D01*
X29732380Y-57943809D01*
X29684761Y-58039047D01*
X29637142Y-58086666D01*
X29541904Y-58134285D01*
X29351428Y-58181904D01*
X29113333Y-58181904D01*
X28922857Y-58134285D01*
X28827619Y-58086666D01*
X28780000Y-58039047D01*
X28732380Y-57943809D01*
X28732380Y-56991428D02*
X28732380Y-56896190D01*
X28780000Y-56800952D01*
X28827619Y-56753333D01*
X28922857Y-56705714D01*
X29113333Y-56658095D01*
X29351428Y-56658095D01*
X29541904Y-56705714D01*
X29637142Y-56753333D01*
X29684761Y-56800952D01*
X29732380Y-56896190D01*
X29732380Y-56991428D01*
X29684761Y-57086666D01*
X29637142Y-57134285D01*
X29541904Y-57181904D01*
X29351428Y-57229523D01*
X29113333Y-57229523D01*
X28922857Y-57181904D01*
X28827619Y-57134285D01*
X28780000Y-57086666D01*
X28732380Y-56991428D01*
X29732380Y-55705714D02*
X29732380Y-56277142D01*
X29732380Y-55991428D02*
X28732380Y-55991428D01*
X28875238Y-56086666D01*
X28970476Y-56181904D01*
X29018095Y-56277142D01*
X34302380Y-53601904D02*
X33302380Y-53601904D01*
X34302380Y-53030476D02*
X33730952Y-53459047D01*
X33302380Y-53030476D02*
X33873809Y-53601904D01*
X32202380Y-59548095D02*
X31202380Y-59548095D01*
X31202380Y-59310000D01*
X31250000Y-59167142D01*
X31345238Y-59071904D01*
X31440476Y-59024285D01*
X31630952Y-58976666D01*
X31773809Y-58976666D01*
X31964285Y-59024285D01*
X32059523Y-59071904D01*
X32154761Y-59167142D01*
X32202380Y-59310000D01*
X32202380Y-59548095D01*
X31297619Y-58595714D02*
X31250000Y-58548095D01*
X31202380Y-58452857D01*
X31202380Y-58214761D01*
X31250000Y-58119523D01*
X31297619Y-58071904D01*
X31392857Y-58024285D01*
X31488095Y-58024285D01*
X31630952Y-58071904D01*
X32202380Y-58643333D01*
X32202380Y-58024285D01*
X33912380Y-60794285D02*
X33912380Y-61365714D01*
X33912380Y-61080000D02*
X32912380Y-61080000D01*
X33055238Y-61175238D01*
X33150476Y-61270476D01*
X33198095Y-61365714D01*
X33912380Y-60365714D02*
X32912380Y-60365714D01*
X33912380Y-59794285D01*
X32912380Y-59794285D01*
X33245714Y-58889523D02*
X33912380Y-58889523D01*
X32864761Y-59127619D02*
X33579047Y-59365714D01*
X33579047Y-58746666D01*
X33912380Y-57841904D02*
X33912380Y-58413333D01*
X33912380Y-58127619D02*
X32912380Y-58127619D01*
X33055238Y-58222857D01*
X33150476Y-58318095D01*
X33198095Y-58413333D01*
X33245714Y-56984761D02*
X33912380Y-56984761D01*
X32864761Y-57222857D02*
X33579047Y-57460952D01*
X33579047Y-56841904D01*
X33340952Y-56318095D02*
X33293333Y-56413333D01*
X33245714Y-56460952D01*
X33150476Y-56508571D01*
X33102857Y-56508571D01*
X33007619Y-56460952D01*
X32960000Y-56413333D01*
X32912380Y-56318095D01*
X32912380Y-56127619D01*
X32960000Y-56032380D01*
X33007619Y-55984761D01*
X33102857Y-55937142D01*
X33150476Y-55937142D01*
X33245714Y-55984761D01*
X33293333Y-56032380D01*
X33340952Y-56127619D01*
X33340952Y-56318095D01*
X33388571Y-56413333D01*
X33436190Y-56460952D01*
X33531428Y-56508571D01*
X33721904Y-56508571D01*
X33817142Y-56460952D01*
X33864761Y-56413333D01*
X33912380Y-56318095D01*
X33912380Y-56127619D01*
X33864761Y-56032380D01*
X33817142Y-55984761D01*
X33721904Y-55937142D01*
X33531428Y-55937142D01*
X33436190Y-55984761D01*
X33388571Y-56032380D01*
X33340952Y-56127619D01*
X32912380Y-55603809D02*
X33912380Y-55365714D01*
X33198095Y-55175238D01*
X33912380Y-54984761D01*
X32912380Y-54746666D01*
X38012380Y-58818095D02*
X37012380Y-58818095D01*
X37012380Y-58580000D01*
X37060000Y-58437142D01*
X37155238Y-58341904D01*
X37250476Y-58294285D01*
X37440952Y-58246666D01*
X37583809Y-58246666D01*
X37774285Y-58294285D01*
X37869523Y-58341904D01*
X37964761Y-58437142D01*
X38012380Y-58580000D01*
X38012380Y-58818095D01*
X37012380Y-57913333D02*
X37012380Y-57246666D01*
X38012380Y-57675238D01*
X28936666Y-76662380D02*
X28936666Y-77376666D01*
X28889047Y-77519523D01*
X28793809Y-77614761D01*
X28650952Y-77662380D01*
X28555714Y-77662380D01*
X29936666Y-77662380D02*
X29365238Y-77662380D01*
X29650952Y-77662380D02*
X29650952Y-76662380D01*
X29555714Y-76805238D01*
X29460476Y-76900476D01*
X29365238Y-76948095D01*
X117402380Y-39643333D02*
X118116666Y-39643333D01*
X118259523Y-39690952D01*
X118354761Y-39786190D01*
X118402380Y-39929047D01*
X118402380Y-40024285D01*
X117402380Y-39262380D02*
X117402380Y-38595714D01*
X118402380Y-39024285D01*
X23762380Y-34511666D02*
X22762380Y-34511666D01*
X22762380Y-34273571D01*
X22810000Y-34130714D01*
X22905238Y-34035476D01*
X23000476Y-33987857D01*
X23190952Y-33940238D01*
X23333809Y-33940238D01*
X23524285Y-33987857D01*
X23619523Y-34035476D01*
X23714761Y-34130714D01*
X23762380Y-34273571D01*
X23762380Y-34511666D01*
X23762380Y-32940238D02*
X23286190Y-33273571D01*
X23762380Y-33511666D02*
X22762380Y-33511666D01*
X22762380Y-33130714D01*
X22810000Y-33035476D01*
X22857619Y-32987857D01*
X22952857Y-32940238D01*
X23095714Y-32940238D01*
X23190952Y-32987857D01*
X23238571Y-33035476D01*
X23286190Y-33130714D01*
X23286190Y-33511666D01*
X22762380Y-32654523D02*
X23762380Y-32321190D01*
X22762380Y-31987857D01*
X23190952Y-31511666D02*
X23143333Y-31606904D01*
X23095714Y-31654523D01*
X23000476Y-31702142D01*
X22952857Y-31702142D01*
X22857619Y-31654523D01*
X22810000Y-31606904D01*
X22762380Y-31511666D01*
X22762380Y-31321190D01*
X22810000Y-31225952D01*
X22857619Y-31178333D01*
X22952857Y-31130714D01*
X23000476Y-31130714D01*
X23095714Y-31178333D01*
X23143333Y-31225952D01*
X23190952Y-31321190D01*
X23190952Y-31511666D01*
X23238571Y-31606904D01*
X23286190Y-31654523D01*
X23381428Y-31702142D01*
X23571904Y-31702142D01*
X23667142Y-31654523D01*
X23714761Y-31606904D01*
X23762380Y-31511666D01*
X23762380Y-31321190D01*
X23714761Y-31225952D01*
X23667142Y-31178333D01*
X23571904Y-31130714D01*
X23381428Y-31130714D01*
X23286190Y-31178333D01*
X23238571Y-31225952D01*
X23190952Y-31321190D01*
X23190952Y-30559285D02*
X23143333Y-30654523D01*
X23095714Y-30702142D01*
X23000476Y-30749761D01*
X22952857Y-30749761D01*
X22857619Y-30702142D01*
X22810000Y-30654523D01*
X22762380Y-30559285D01*
X22762380Y-30368809D01*
X22810000Y-30273571D01*
X22857619Y-30225952D01*
X22952857Y-30178333D01*
X23000476Y-30178333D01*
X23095714Y-30225952D01*
X23143333Y-30273571D01*
X23190952Y-30368809D01*
X23190952Y-30559285D01*
X23238571Y-30654523D01*
X23286190Y-30702142D01*
X23381428Y-30749761D01*
X23571904Y-30749761D01*
X23667142Y-30702142D01*
X23714761Y-30654523D01*
X23762380Y-30559285D01*
X23762380Y-30368809D01*
X23714761Y-30273571D01*
X23667142Y-30225952D01*
X23571904Y-30178333D01*
X23381428Y-30178333D01*
X23286190Y-30225952D01*
X23238571Y-30273571D01*
X23190952Y-30368809D01*
X23095714Y-29321190D02*
X23762380Y-29321190D01*
X22714761Y-29559285D02*
X23429047Y-29797380D01*
X23429047Y-29178333D01*
X22857619Y-28845000D02*
X22810000Y-28797380D01*
X22762380Y-28702142D01*
X22762380Y-28464047D01*
X22810000Y-28368809D01*
X22857619Y-28321190D01*
X22952857Y-28273571D01*
X23048095Y-28273571D01*
X23190952Y-28321190D01*
X23762380Y-28892619D01*
X23762380Y-28273571D01*
X23762380Y-27845000D02*
X22762380Y-27845000D01*
X22762380Y-27464047D01*
X22810000Y-27368809D01*
X22857619Y-27321190D01*
X22952857Y-27273571D01*
X23095714Y-27273571D01*
X23190952Y-27321190D01*
X23238571Y-27368809D01*
X23286190Y-27464047D01*
X23286190Y-27845000D01*
X22762380Y-26940238D02*
X23762380Y-26702142D01*
X23048095Y-26511666D01*
X23762380Y-26321190D01*
X22762380Y-26083095D01*
X23762380Y-25702142D02*
X22762380Y-25702142D01*
X22762380Y-25321190D01*
X22810000Y-25225952D01*
X22857619Y-25178333D01*
X22952857Y-25130714D01*
X23095714Y-25130714D01*
X23190952Y-25178333D01*
X23238571Y-25225952D01*
X23286190Y-25321190D01*
X23286190Y-25702142D01*
X28771904Y-30454523D02*
X29419523Y-30454523D01*
X29495714Y-30416428D01*
X29533809Y-30378333D01*
X29571904Y-30302142D01*
X29571904Y-30149761D01*
X29533809Y-30073571D01*
X29495714Y-30035476D01*
X29419523Y-29997380D01*
X28771904Y-29997380D01*
X28848095Y-29654523D02*
X28810000Y-29616428D01*
X28771904Y-29540238D01*
X28771904Y-29349761D01*
X28810000Y-29273571D01*
X28848095Y-29235476D01*
X28924285Y-29197380D01*
X29000476Y-29197380D01*
X29114761Y-29235476D01*
X29571904Y-29692619D01*
X29571904Y-29197380D01*
X113966666Y-32897380D02*
X113966666Y-33611666D01*
X113919047Y-33754523D01*
X113823809Y-33849761D01*
X113680952Y-33897380D01*
X113585714Y-33897380D01*
X114395238Y-32992619D02*
X114442857Y-32945000D01*
X114538095Y-32897380D01*
X114776190Y-32897380D01*
X114871428Y-32945000D01*
X114919047Y-32992619D01*
X114966666Y-33087857D01*
X114966666Y-33183095D01*
X114919047Y-33325952D01*
X114347619Y-33897380D01*
X114966666Y-33897380D01*
X42609285Y-36747380D02*
X42037857Y-36747380D01*
X42323571Y-36747380D02*
X42323571Y-35747380D01*
X42228333Y-35890238D01*
X42133095Y-35985476D01*
X42037857Y-36033095D01*
X43228333Y-35747380D02*
X43323571Y-35747380D01*
X43418809Y-35795000D01*
X43466428Y-35842619D01*
X43514047Y-35937857D01*
X43561666Y-36128333D01*
X43561666Y-36366428D01*
X43514047Y-36556904D01*
X43466428Y-36652142D01*
X43418809Y-36699761D01*
X43323571Y-36747380D01*
X43228333Y-36747380D01*
X43133095Y-36699761D01*
X43085476Y-36652142D01*
X43037857Y-36556904D01*
X42990238Y-36366428D01*
X42990238Y-36128333D01*
X43037857Y-35937857D01*
X43085476Y-35842619D01*
X43133095Y-35795000D01*
X43228333Y-35747380D01*
X44180714Y-35747380D02*
X44275952Y-35747380D01*
X44371190Y-35795000D01*
X44418809Y-35842619D01*
X44466428Y-35937857D01*
X44514047Y-36128333D01*
X44514047Y-36366428D01*
X44466428Y-36556904D01*
X44418809Y-36652142D01*
X44371190Y-36699761D01*
X44275952Y-36747380D01*
X44180714Y-36747380D01*
X44085476Y-36699761D01*
X44037857Y-36652142D01*
X43990238Y-36556904D01*
X43942619Y-36366428D01*
X43942619Y-36128333D01*
X43990238Y-35937857D01*
X44037857Y-35842619D01*
X44085476Y-35795000D01*
X44180714Y-35747380D01*
X45133095Y-35747380D02*
X45228333Y-35747380D01*
X45323571Y-35795000D01*
X45371190Y-35842619D01*
X45418809Y-35937857D01*
X45466428Y-36128333D01*
X45466428Y-36366428D01*
X45418809Y-36556904D01*
X45371190Y-36652142D01*
X45323571Y-36699761D01*
X45228333Y-36747380D01*
X45133095Y-36747380D01*
X45037857Y-36699761D01*
X44990238Y-36652142D01*
X44942619Y-36556904D01*
X44895000Y-36366428D01*
X44895000Y-36128333D01*
X44942619Y-35937857D01*
X44990238Y-35842619D01*
X45037857Y-35795000D01*
X45133095Y-35747380D01*
X46323571Y-36080714D02*
X46323571Y-36747380D01*
X45895000Y-36080714D02*
X45895000Y-36604523D01*
X45942619Y-36699761D01*
X46037857Y-36747380D01*
X46180714Y-36747380D01*
X46275952Y-36699761D01*
X46323571Y-36652142D01*
X47133095Y-36223571D02*
X46799761Y-36223571D01*
X46799761Y-36747380D02*
X46799761Y-35747380D01*
X47275952Y-35747380D01*
X48371190Y-35842619D02*
X48418809Y-35795000D01*
X48514047Y-35747380D01*
X48752142Y-35747380D01*
X48847380Y-35795000D01*
X48895000Y-35842619D01*
X48942619Y-35937857D01*
X48942619Y-36033095D01*
X48895000Y-36175952D01*
X48323571Y-36747380D01*
X48942619Y-36747380D01*
X49847380Y-35747380D02*
X49371190Y-35747380D01*
X49323571Y-36223571D01*
X49371190Y-36175952D01*
X49466428Y-36128333D01*
X49704523Y-36128333D01*
X49799761Y-36175952D01*
X49847380Y-36223571D01*
X49895000Y-36318809D01*
X49895000Y-36556904D01*
X49847380Y-36652142D01*
X49799761Y-36699761D01*
X49704523Y-36747380D01*
X49466428Y-36747380D01*
X49371190Y-36699761D01*
X49323571Y-36652142D01*
X50180714Y-35747380D02*
X50514047Y-36747380D01*
X50847380Y-35747380D01*
X46228333Y-42902142D02*
X46180714Y-42949761D01*
X46037857Y-42997380D01*
X45942619Y-42997380D01*
X45799761Y-42949761D01*
X45704523Y-42854523D01*
X45656904Y-42759285D01*
X45609285Y-42568809D01*
X45609285Y-42425952D01*
X45656904Y-42235476D01*
X45704523Y-42140238D01*
X45799761Y-42045000D01*
X45942619Y-41997380D01*
X46037857Y-41997380D01*
X46180714Y-42045000D01*
X46228333Y-42092619D01*
X47180714Y-42997380D02*
X46609285Y-42997380D01*
X46895000Y-42997380D02*
X46895000Y-41997380D01*
X46799761Y-42140238D01*
X46704523Y-42235476D01*
X46609285Y-42283095D01*
X27345714Y-39180476D02*
X28012380Y-39180476D01*
X26964761Y-39418571D02*
X27679047Y-39656666D01*
X27679047Y-39037619D01*
X28012380Y-38656666D02*
X27012380Y-38656666D01*
X27631428Y-38561428D02*
X28012380Y-38275714D01*
X27345714Y-38275714D02*
X27726666Y-38656666D01*
X27012380Y-37942380D02*
X27012380Y-37275714D01*
X28012380Y-37704285D01*
D12*
X29436190Y-38573333D02*
X29198095Y-38740000D01*
X29436190Y-38859047D02*
X28936190Y-38859047D01*
X28936190Y-38668571D01*
X28960000Y-38620952D01*
X28983809Y-38597142D01*
X29031428Y-38573333D01*
X29102857Y-38573333D01*
X29150476Y-38597142D01*
X29174285Y-38620952D01*
X29198095Y-38668571D01*
X29198095Y-38859047D01*
X29436190Y-38335238D02*
X29436190Y-38240000D01*
X29412380Y-38192380D01*
X29388571Y-38168571D01*
X29317142Y-38120952D01*
X29221904Y-38097142D01*
X29031428Y-38097142D01*
X28983809Y-38120952D01*
X28960000Y-38144761D01*
X28936190Y-38192380D01*
X28936190Y-38287619D01*
X28960000Y-38335238D01*
X28983809Y-38359047D01*
X29031428Y-38382857D01*
X29150476Y-38382857D01*
X29198095Y-38359047D01*
X29221904Y-38335238D01*
X29245714Y-38287619D01*
X29245714Y-38192380D01*
X29221904Y-38144761D01*
X29198095Y-38120952D01*
X29150476Y-38097142D01*
D11*
X103799285Y-21027380D02*
X103799285Y-20027380D01*
X104132619Y-20741666D01*
X104465952Y-20027380D01*
X104465952Y-21027380D01*
X105085000Y-21027380D02*
X104989761Y-20979761D01*
X104942142Y-20932142D01*
X104894523Y-20836904D01*
X104894523Y-20551190D01*
X104942142Y-20455952D01*
X104989761Y-20408333D01*
X105085000Y-20360714D01*
X105227857Y-20360714D01*
X105323095Y-20408333D01*
X105370714Y-20455952D01*
X105418333Y-20551190D01*
X105418333Y-20836904D01*
X105370714Y-20932142D01*
X105323095Y-20979761D01*
X105227857Y-21027380D01*
X105085000Y-21027380D01*
X106275476Y-20360714D02*
X106275476Y-21027380D01*
X105846904Y-20360714D02*
X105846904Y-20884523D01*
X105894523Y-20979761D01*
X105989761Y-21027380D01*
X106132619Y-21027380D01*
X106227857Y-20979761D01*
X106275476Y-20932142D01*
X106751666Y-20360714D02*
X106751666Y-21027380D01*
X106751666Y-20455952D02*
X106799285Y-20408333D01*
X106894523Y-20360714D01*
X107037380Y-20360714D01*
X107132619Y-20408333D01*
X107180238Y-20503571D01*
X107180238Y-21027380D01*
X107513571Y-20360714D02*
X107894523Y-20360714D01*
X107656428Y-20027380D02*
X107656428Y-20884523D01*
X107704047Y-20979761D01*
X107799285Y-21027380D01*
X107894523Y-21027380D01*
X108227857Y-21027380D02*
X108227857Y-20360714D01*
X108227857Y-20027380D02*
X108180238Y-20075000D01*
X108227857Y-20122619D01*
X108275476Y-20075000D01*
X108227857Y-20027380D01*
X108227857Y-20122619D01*
X108704047Y-20360714D02*
X108704047Y-21027380D01*
X108704047Y-20455952D02*
X108751666Y-20408333D01*
X108846904Y-20360714D01*
X108989761Y-20360714D01*
X109085000Y-20408333D01*
X109132619Y-20503571D01*
X109132619Y-21027380D01*
X110037380Y-20360714D02*
X110037380Y-21170238D01*
X109989761Y-21265476D01*
X109942142Y-21313095D01*
X109846904Y-21360714D01*
X109704047Y-21360714D01*
X109608809Y-21313095D01*
X110037380Y-20979761D02*
X109942142Y-21027380D01*
X109751666Y-21027380D01*
X109656428Y-20979761D01*
X109608809Y-20932142D01*
X109561190Y-20836904D01*
X109561190Y-20551190D01*
X109608809Y-20455952D01*
X109656428Y-20408333D01*
X109751666Y-20360714D01*
X109942142Y-20360714D01*
X110037380Y-20408333D01*
X110513571Y-21027380D02*
X110513571Y-20027380D01*
X110513571Y-20503571D02*
X111085000Y-20503571D01*
X111085000Y-21027380D02*
X111085000Y-20027380D01*
X111704047Y-21027380D02*
X111608809Y-20979761D01*
X111561190Y-20932142D01*
X111513571Y-20836904D01*
X111513571Y-20551190D01*
X111561190Y-20455952D01*
X111608809Y-20408333D01*
X111704047Y-20360714D01*
X111846904Y-20360714D01*
X111942142Y-20408333D01*
X111989761Y-20455952D01*
X112037380Y-20551190D01*
X112037380Y-20836904D01*
X111989761Y-20932142D01*
X111942142Y-20979761D01*
X111846904Y-21027380D01*
X111704047Y-21027380D01*
X112608809Y-21027380D02*
X112513571Y-20979761D01*
X112465952Y-20884523D01*
X112465952Y-20027380D01*
X113370714Y-20979761D02*
X113275476Y-21027380D01*
X113085000Y-21027380D01*
X112989761Y-20979761D01*
X112942142Y-20884523D01*
X112942142Y-20503571D01*
X112989761Y-20408333D01*
X113085000Y-20360714D01*
X113275476Y-20360714D01*
X113370714Y-20408333D01*
X113418333Y-20503571D01*
X113418333Y-20598809D01*
X112942142Y-20694047D01*
X12994285Y-21027380D02*
X12994285Y-20027380D01*
X13327619Y-20741666D01*
X13660952Y-20027380D01*
X13660952Y-21027380D01*
X14280000Y-21027380D02*
X14184761Y-20979761D01*
X14137142Y-20932142D01*
X14089523Y-20836904D01*
X14089523Y-20551190D01*
X14137142Y-20455952D01*
X14184761Y-20408333D01*
X14280000Y-20360714D01*
X14422857Y-20360714D01*
X14518095Y-20408333D01*
X14565714Y-20455952D01*
X14613333Y-20551190D01*
X14613333Y-20836904D01*
X14565714Y-20932142D01*
X14518095Y-20979761D01*
X14422857Y-21027380D01*
X14280000Y-21027380D01*
X15470476Y-20360714D02*
X15470476Y-21027380D01*
X15041904Y-20360714D02*
X15041904Y-20884523D01*
X15089523Y-20979761D01*
X15184761Y-21027380D01*
X15327619Y-21027380D01*
X15422857Y-20979761D01*
X15470476Y-20932142D01*
X15946666Y-20360714D02*
X15946666Y-21027380D01*
X15946666Y-20455952D02*
X15994285Y-20408333D01*
X16089523Y-20360714D01*
X16232380Y-20360714D01*
X16327619Y-20408333D01*
X16375238Y-20503571D01*
X16375238Y-21027380D01*
X16708571Y-20360714D02*
X17089523Y-20360714D01*
X16851428Y-20027380D02*
X16851428Y-20884523D01*
X16899047Y-20979761D01*
X16994285Y-21027380D01*
X17089523Y-21027380D01*
X17422857Y-21027380D02*
X17422857Y-20360714D01*
X17422857Y-20027380D02*
X17375238Y-20075000D01*
X17422857Y-20122619D01*
X17470476Y-20075000D01*
X17422857Y-20027380D01*
X17422857Y-20122619D01*
X17899047Y-20360714D02*
X17899047Y-21027380D01*
X17899047Y-20455952D02*
X17946666Y-20408333D01*
X18041904Y-20360714D01*
X18184761Y-20360714D01*
X18280000Y-20408333D01*
X18327619Y-20503571D01*
X18327619Y-21027380D01*
X19232380Y-20360714D02*
X19232380Y-21170238D01*
X19184761Y-21265476D01*
X19137142Y-21313095D01*
X19041904Y-21360714D01*
X18899047Y-21360714D01*
X18803809Y-21313095D01*
X19232380Y-20979761D02*
X19137142Y-21027380D01*
X18946666Y-21027380D01*
X18851428Y-20979761D01*
X18803809Y-20932142D01*
X18756190Y-20836904D01*
X18756190Y-20551190D01*
X18803809Y-20455952D01*
X18851428Y-20408333D01*
X18946666Y-20360714D01*
X19137142Y-20360714D01*
X19232380Y-20408333D01*
X19708571Y-21027380D02*
X19708571Y-20027380D01*
X19708571Y-20503571D02*
X20280000Y-20503571D01*
X20280000Y-21027380D02*
X20280000Y-20027380D01*
X20899047Y-21027380D02*
X20803809Y-20979761D01*
X20756190Y-20932142D01*
X20708571Y-20836904D01*
X20708571Y-20551190D01*
X20756190Y-20455952D01*
X20803809Y-20408333D01*
X20899047Y-20360714D01*
X21041904Y-20360714D01*
X21137142Y-20408333D01*
X21184761Y-20455952D01*
X21232380Y-20551190D01*
X21232380Y-20836904D01*
X21184761Y-20932142D01*
X21137142Y-20979761D01*
X21041904Y-21027380D01*
X20899047Y-21027380D01*
X21803809Y-21027380D02*
X21708571Y-20979761D01*
X21660952Y-20884523D01*
X21660952Y-20027380D01*
X22565714Y-20979761D02*
X22470476Y-21027380D01*
X22280000Y-21027380D01*
X22184761Y-20979761D01*
X22137142Y-20884523D01*
X22137142Y-20503571D01*
X22184761Y-20408333D01*
X22280000Y-20360714D01*
X22470476Y-20360714D01*
X22565714Y-20408333D01*
X22613333Y-20503571D01*
X22613333Y-20598809D01*
X22137142Y-20694047D01*
X12994285Y-78177380D02*
X12994285Y-77177380D01*
X13327619Y-77891666D01*
X13660952Y-77177380D01*
X13660952Y-78177380D01*
X14280000Y-78177380D02*
X14184761Y-78129761D01*
X14137142Y-78082142D01*
X14089523Y-77986904D01*
X14089523Y-77701190D01*
X14137142Y-77605952D01*
X14184761Y-77558333D01*
X14280000Y-77510714D01*
X14422857Y-77510714D01*
X14518095Y-77558333D01*
X14565714Y-77605952D01*
X14613333Y-77701190D01*
X14613333Y-77986904D01*
X14565714Y-78082142D01*
X14518095Y-78129761D01*
X14422857Y-78177380D01*
X14280000Y-78177380D01*
X15470476Y-77510714D02*
X15470476Y-78177380D01*
X15041904Y-77510714D02*
X15041904Y-78034523D01*
X15089523Y-78129761D01*
X15184761Y-78177380D01*
X15327619Y-78177380D01*
X15422857Y-78129761D01*
X15470476Y-78082142D01*
X15946666Y-77510714D02*
X15946666Y-78177380D01*
X15946666Y-77605952D02*
X15994285Y-77558333D01*
X16089523Y-77510714D01*
X16232380Y-77510714D01*
X16327619Y-77558333D01*
X16375238Y-77653571D01*
X16375238Y-78177380D01*
X16708571Y-77510714D02*
X17089523Y-77510714D01*
X16851428Y-77177380D02*
X16851428Y-78034523D01*
X16899047Y-78129761D01*
X16994285Y-78177380D01*
X17089523Y-78177380D01*
X17422857Y-78177380D02*
X17422857Y-77510714D01*
X17422857Y-77177380D02*
X17375238Y-77225000D01*
X17422857Y-77272619D01*
X17470476Y-77225000D01*
X17422857Y-77177380D01*
X17422857Y-77272619D01*
X17899047Y-77510714D02*
X17899047Y-78177380D01*
X17899047Y-77605952D02*
X17946666Y-77558333D01*
X18041904Y-77510714D01*
X18184761Y-77510714D01*
X18280000Y-77558333D01*
X18327619Y-77653571D01*
X18327619Y-78177380D01*
X19232380Y-77510714D02*
X19232380Y-78320238D01*
X19184761Y-78415476D01*
X19137142Y-78463095D01*
X19041904Y-78510714D01*
X18899047Y-78510714D01*
X18803809Y-78463095D01*
X19232380Y-78129761D02*
X19137142Y-78177380D01*
X18946666Y-78177380D01*
X18851428Y-78129761D01*
X18803809Y-78082142D01*
X18756190Y-77986904D01*
X18756190Y-77701190D01*
X18803809Y-77605952D01*
X18851428Y-77558333D01*
X18946666Y-77510714D01*
X19137142Y-77510714D01*
X19232380Y-77558333D01*
X19708571Y-78177380D02*
X19708571Y-77177380D01*
X19708571Y-77653571D02*
X20280000Y-77653571D01*
X20280000Y-78177380D02*
X20280000Y-77177380D01*
X20899047Y-78177380D02*
X20803809Y-78129761D01*
X20756190Y-78082142D01*
X20708571Y-77986904D01*
X20708571Y-77701190D01*
X20756190Y-77605952D01*
X20803809Y-77558333D01*
X20899047Y-77510714D01*
X21041904Y-77510714D01*
X21137142Y-77558333D01*
X21184761Y-77605952D01*
X21232380Y-77701190D01*
X21232380Y-77986904D01*
X21184761Y-78082142D01*
X21137142Y-78129761D01*
X21041904Y-78177380D01*
X20899047Y-78177380D01*
X21803809Y-78177380D02*
X21708571Y-78129761D01*
X21660952Y-78034523D01*
X21660952Y-77177380D01*
X22565714Y-78129761D02*
X22470476Y-78177380D01*
X22280000Y-78177380D01*
X22184761Y-78129761D01*
X22137142Y-78034523D01*
X22137142Y-77653571D01*
X22184761Y-77558333D01*
X22280000Y-77510714D01*
X22470476Y-77510714D01*
X22565714Y-77558333D01*
X22613333Y-77653571D01*
X22613333Y-77748809D01*
X22137142Y-77844047D01*
X113324285Y-78177380D02*
X113324285Y-77177380D01*
X113657619Y-77891666D01*
X113990952Y-77177380D01*
X113990952Y-78177380D01*
X114610000Y-78177380D02*
X114514761Y-78129761D01*
X114467142Y-78082142D01*
X114419523Y-77986904D01*
X114419523Y-77701190D01*
X114467142Y-77605952D01*
X114514761Y-77558333D01*
X114610000Y-77510714D01*
X114752857Y-77510714D01*
X114848095Y-77558333D01*
X114895714Y-77605952D01*
X114943333Y-77701190D01*
X114943333Y-77986904D01*
X114895714Y-78082142D01*
X114848095Y-78129761D01*
X114752857Y-78177380D01*
X114610000Y-78177380D01*
X115800476Y-77510714D02*
X115800476Y-78177380D01*
X115371904Y-77510714D02*
X115371904Y-78034523D01*
X115419523Y-78129761D01*
X115514761Y-78177380D01*
X115657619Y-78177380D01*
X115752857Y-78129761D01*
X115800476Y-78082142D01*
X116276666Y-77510714D02*
X116276666Y-78177380D01*
X116276666Y-77605952D02*
X116324285Y-77558333D01*
X116419523Y-77510714D01*
X116562380Y-77510714D01*
X116657619Y-77558333D01*
X116705238Y-77653571D01*
X116705238Y-78177380D01*
X117038571Y-77510714D02*
X117419523Y-77510714D01*
X117181428Y-77177380D02*
X117181428Y-78034523D01*
X117229047Y-78129761D01*
X117324285Y-78177380D01*
X117419523Y-78177380D01*
X117752857Y-78177380D02*
X117752857Y-77510714D01*
X117752857Y-77177380D02*
X117705238Y-77225000D01*
X117752857Y-77272619D01*
X117800476Y-77225000D01*
X117752857Y-77177380D01*
X117752857Y-77272619D01*
X118229047Y-77510714D02*
X118229047Y-78177380D01*
X118229047Y-77605952D02*
X118276666Y-77558333D01*
X118371904Y-77510714D01*
X118514761Y-77510714D01*
X118610000Y-77558333D01*
X118657619Y-77653571D01*
X118657619Y-78177380D01*
X119562380Y-77510714D02*
X119562380Y-78320238D01*
X119514761Y-78415476D01*
X119467142Y-78463095D01*
X119371904Y-78510714D01*
X119229047Y-78510714D01*
X119133809Y-78463095D01*
X119562380Y-78129761D02*
X119467142Y-78177380D01*
X119276666Y-78177380D01*
X119181428Y-78129761D01*
X119133809Y-78082142D01*
X119086190Y-77986904D01*
X119086190Y-77701190D01*
X119133809Y-77605952D01*
X119181428Y-77558333D01*
X119276666Y-77510714D01*
X119467142Y-77510714D01*
X119562380Y-77558333D01*
X120038571Y-78177380D02*
X120038571Y-77177380D01*
X120038571Y-77653571D02*
X120610000Y-77653571D01*
X120610000Y-78177380D02*
X120610000Y-77177380D01*
X121229047Y-78177380D02*
X121133809Y-78129761D01*
X121086190Y-78082142D01*
X121038571Y-77986904D01*
X121038571Y-77701190D01*
X121086190Y-77605952D01*
X121133809Y-77558333D01*
X121229047Y-77510714D01*
X121371904Y-77510714D01*
X121467142Y-77558333D01*
X121514761Y-77605952D01*
X121562380Y-77701190D01*
X121562380Y-77986904D01*
X121514761Y-78082142D01*
X121467142Y-78129761D01*
X121371904Y-78177380D01*
X121229047Y-78177380D01*
X122133809Y-78177380D02*
X122038571Y-78129761D01*
X121990952Y-78034523D01*
X121990952Y-77177380D01*
X122895714Y-78129761D02*
X122800476Y-78177380D01*
X122610000Y-78177380D01*
X122514761Y-78129761D01*
X122467142Y-78034523D01*
X122467142Y-77653571D01*
X122514761Y-77558333D01*
X122610000Y-77510714D01*
X122800476Y-77510714D01*
X122895714Y-77558333D01*
X122943333Y-77653571D01*
X122943333Y-77748809D01*
X122467142Y-77844047D01*
X36902380Y-25398571D02*
X36902380Y-25970000D01*
X36902380Y-25684285D02*
X35902380Y-25684285D01*
X36045238Y-25779523D01*
X36140476Y-25874761D01*
X36188095Y-25970000D01*
X35902380Y-24779523D02*
X35902380Y-24684285D01*
X35950000Y-24589047D01*
X35997619Y-24541428D01*
X36092857Y-24493809D01*
X36283333Y-24446190D01*
X36521428Y-24446190D01*
X36711904Y-24493809D01*
X36807142Y-24541428D01*
X36854761Y-24589047D01*
X36902380Y-24684285D01*
X36902380Y-24779523D01*
X36854761Y-24874761D01*
X36807142Y-24922380D01*
X36711904Y-24970000D01*
X36521428Y-25017619D01*
X36283333Y-25017619D01*
X36092857Y-24970000D01*
X35997619Y-24922380D01*
X35950000Y-24874761D01*
X35902380Y-24779523D01*
X35902380Y-23827142D02*
X35902380Y-23731904D01*
X35950000Y-23636666D01*
X35997619Y-23589047D01*
X36092857Y-23541428D01*
X36283333Y-23493809D01*
X36521428Y-23493809D01*
X36711904Y-23541428D01*
X36807142Y-23589047D01*
X36854761Y-23636666D01*
X36902380Y-23731904D01*
X36902380Y-23827142D01*
X36854761Y-23922380D01*
X36807142Y-23970000D01*
X36711904Y-24017619D01*
X36521428Y-24065238D01*
X36283333Y-24065238D01*
X36092857Y-24017619D01*
X35997619Y-23970000D01*
X35950000Y-23922380D01*
X35902380Y-23827142D01*
X36235714Y-23065238D02*
X36902380Y-23065238D01*
X36330952Y-23065238D02*
X36283333Y-23017619D01*
X36235714Y-22922380D01*
X36235714Y-22779523D01*
X36283333Y-22684285D01*
X36378571Y-22636666D01*
X36902380Y-22636666D01*
X36378571Y-21827142D02*
X36378571Y-22160476D01*
X36902380Y-22160476D02*
X35902380Y-22160476D01*
X35902380Y-21684285D01*
X35902380Y-21398571D02*
X35902380Y-20779523D01*
X36283333Y-21112857D01*
X36283333Y-20970000D01*
X36330952Y-20874761D01*
X36378571Y-20827142D01*
X36473809Y-20779523D01*
X36711904Y-20779523D01*
X36807142Y-20827142D01*
X36854761Y-20874761D01*
X36902380Y-20970000D01*
X36902380Y-21255714D01*
X36854761Y-21350952D01*
X36807142Y-21398571D01*
X35902380Y-19874761D02*
X35902380Y-20350952D01*
X36378571Y-20398571D01*
X36330952Y-20350952D01*
X36283333Y-20255714D01*
X36283333Y-20017619D01*
X36330952Y-19922380D01*
X36378571Y-19874761D01*
X36473809Y-19827142D01*
X36711904Y-19827142D01*
X36807142Y-19874761D01*
X36854761Y-19922380D01*
X36902380Y-20017619D01*
X36902380Y-20255714D01*
X36854761Y-20350952D01*
X36807142Y-20398571D01*
X35902380Y-19541428D02*
X36902380Y-19208095D01*
X35902380Y-18874761D01*
D12*
X38278571Y-22791428D02*
X38302380Y-22815238D01*
X38326190Y-22886666D01*
X38326190Y-22934285D01*
X38302380Y-23005714D01*
X38254761Y-23053333D01*
X38207142Y-23077142D01*
X38111904Y-23100952D01*
X38040476Y-23100952D01*
X37945238Y-23077142D01*
X37897619Y-23053333D01*
X37850000Y-23005714D01*
X37826190Y-22934285D01*
X37826190Y-22886666D01*
X37850000Y-22815238D01*
X37873809Y-22791428D01*
X38326190Y-22315238D02*
X38326190Y-22600952D01*
X38326190Y-22458095D02*
X37826190Y-22458095D01*
X37897619Y-22505714D01*
X37945238Y-22553333D01*
X37969047Y-22600952D01*
X37826190Y-22148571D02*
X37826190Y-21839047D01*
X38016666Y-22005714D01*
X38016666Y-21934285D01*
X38040476Y-21886666D01*
X38064285Y-21862857D01*
X38111904Y-21839047D01*
X38230952Y-21839047D01*
X38278571Y-21862857D01*
X38302380Y-21886666D01*
X38326190Y-21934285D01*
X38326190Y-22077142D01*
X38302380Y-22124761D01*
X38278571Y-22148571D01*
D11*
X25597380Y-24017619D02*
X25597380Y-24589047D01*
X25597380Y-24303333D02*
X24597380Y-24303333D01*
X24740238Y-24398571D01*
X24835476Y-24493809D01*
X24883095Y-24589047D01*
X24597380Y-23398571D02*
X24597380Y-23303333D01*
X24645000Y-23208095D01*
X24692619Y-23160476D01*
X24787857Y-23112857D01*
X24978333Y-23065238D01*
X25216428Y-23065238D01*
X25406904Y-23112857D01*
X25502142Y-23160476D01*
X25549761Y-23208095D01*
X25597380Y-23303333D01*
X25597380Y-23398571D01*
X25549761Y-23493809D01*
X25502142Y-23541428D01*
X25406904Y-23589047D01*
X25216428Y-23636666D01*
X24978333Y-23636666D01*
X24787857Y-23589047D01*
X24692619Y-23541428D01*
X24645000Y-23493809D01*
X24597380Y-23398571D01*
X24597380Y-22446190D02*
X24597380Y-22350952D01*
X24645000Y-22255714D01*
X24692619Y-22208095D01*
X24787857Y-22160476D01*
X24978333Y-22112857D01*
X25216428Y-22112857D01*
X25406904Y-22160476D01*
X25502142Y-22208095D01*
X25549761Y-22255714D01*
X25597380Y-22350952D01*
X25597380Y-22446190D01*
X25549761Y-22541428D01*
X25502142Y-22589047D01*
X25406904Y-22636666D01*
X25216428Y-22684285D01*
X24978333Y-22684285D01*
X24787857Y-22636666D01*
X24692619Y-22589047D01*
X24645000Y-22541428D01*
X24597380Y-22446190D01*
X24930714Y-21684285D02*
X25597380Y-21684285D01*
X25025952Y-21684285D02*
X24978333Y-21636666D01*
X24930714Y-21541428D01*
X24930714Y-21398571D01*
X24978333Y-21303333D01*
X25073571Y-21255714D01*
X25597380Y-21255714D01*
X25073571Y-20446190D02*
X25073571Y-20779523D01*
X25597380Y-20779523D02*
X24597380Y-20779523D01*
X24597380Y-20303333D01*
D12*
X23673571Y-22791428D02*
X23697380Y-22815238D01*
X23721190Y-22886666D01*
X23721190Y-22934285D01*
X23697380Y-23005714D01*
X23649761Y-23053333D01*
X23602142Y-23077142D01*
X23506904Y-23100952D01*
X23435476Y-23100952D01*
X23340238Y-23077142D01*
X23292619Y-23053333D01*
X23245000Y-23005714D01*
X23221190Y-22934285D01*
X23221190Y-22886666D01*
X23245000Y-22815238D01*
X23268809Y-22791428D01*
X23721190Y-22315238D02*
X23721190Y-22600952D01*
X23721190Y-22458095D02*
X23221190Y-22458095D01*
X23292619Y-22505714D01*
X23340238Y-22553333D01*
X23364047Y-22600952D01*
X23268809Y-22124761D02*
X23245000Y-22100952D01*
X23221190Y-22053333D01*
X23221190Y-21934285D01*
X23245000Y-21886666D01*
X23268809Y-21862857D01*
X23316428Y-21839047D01*
X23364047Y-21839047D01*
X23435476Y-21862857D01*
X23721190Y-22148571D01*
X23721190Y-21839047D01*
D11*
X36902380Y-28131428D02*
X36902380Y-28702857D01*
X36902380Y-28417142D02*
X35902380Y-28417142D01*
X36045238Y-28512380D01*
X36140476Y-28607619D01*
X36188095Y-28702857D01*
X35902380Y-27512380D02*
X35902380Y-27417142D01*
X35950000Y-27321904D01*
X35997619Y-27274285D01*
X36092857Y-27226666D01*
X36283333Y-27179047D01*
X36521428Y-27179047D01*
X36711904Y-27226666D01*
X36807142Y-27274285D01*
X36854761Y-27321904D01*
X36902380Y-27417142D01*
X36902380Y-27512380D01*
X36854761Y-27607619D01*
X36807142Y-27655238D01*
X36711904Y-27702857D01*
X36521428Y-27750476D01*
X36283333Y-27750476D01*
X36092857Y-27702857D01*
X35997619Y-27655238D01*
X35950000Y-27607619D01*
X35902380Y-27512380D01*
X36235714Y-26750476D02*
X36902380Y-26750476D01*
X36330952Y-26750476D02*
X36283333Y-26702857D01*
X36235714Y-26607619D01*
X36235714Y-26464761D01*
X36283333Y-26369523D01*
X36378571Y-26321904D01*
X36902380Y-26321904D01*
X36378571Y-25512380D02*
X36378571Y-25845714D01*
X36902380Y-25845714D02*
X35902380Y-25845714D01*
X35902380Y-25369523D01*
D12*
X38278571Y-27381428D02*
X38302380Y-27405238D01*
X38326190Y-27476666D01*
X38326190Y-27524285D01*
X38302380Y-27595714D01*
X38254761Y-27643333D01*
X38207142Y-27667142D01*
X38111904Y-27690952D01*
X38040476Y-27690952D01*
X37945238Y-27667142D01*
X37897619Y-27643333D01*
X37850000Y-27595714D01*
X37826190Y-27524285D01*
X37826190Y-27476666D01*
X37850000Y-27405238D01*
X37873809Y-27381428D01*
X38326190Y-26905238D02*
X38326190Y-27190952D01*
X38326190Y-27048095D02*
X37826190Y-27048095D01*
X37897619Y-27095714D01*
X37945238Y-27143333D01*
X37969047Y-27190952D01*
X38326190Y-26429047D02*
X38326190Y-26714761D01*
X38326190Y-26571904D02*
X37826190Y-26571904D01*
X37897619Y-26619523D01*
X37945238Y-26667142D01*
X37969047Y-26714761D01*
D11*
X37027380Y-24017619D02*
X37027380Y-24589047D01*
X37027380Y-24303333D02*
X36027380Y-24303333D01*
X36170238Y-24398571D01*
X36265476Y-24493809D01*
X36313095Y-24589047D01*
X36027380Y-23398571D02*
X36027380Y-23303333D01*
X36075000Y-23208095D01*
X36122619Y-23160476D01*
X36217857Y-23112857D01*
X36408333Y-23065238D01*
X36646428Y-23065238D01*
X36836904Y-23112857D01*
X36932142Y-23160476D01*
X36979761Y-23208095D01*
X37027380Y-23303333D01*
X37027380Y-23398571D01*
X36979761Y-23493809D01*
X36932142Y-23541428D01*
X36836904Y-23589047D01*
X36646428Y-23636666D01*
X36408333Y-23636666D01*
X36217857Y-23589047D01*
X36122619Y-23541428D01*
X36075000Y-23493809D01*
X36027380Y-23398571D01*
X36027380Y-22446190D02*
X36027380Y-22350952D01*
X36075000Y-22255714D01*
X36122619Y-22208095D01*
X36217857Y-22160476D01*
X36408333Y-22112857D01*
X36646428Y-22112857D01*
X36836904Y-22160476D01*
X36932142Y-22208095D01*
X36979761Y-22255714D01*
X37027380Y-22350952D01*
X37027380Y-22446190D01*
X36979761Y-22541428D01*
X36932142Y-22589047D01*
X36836904Y-22636666D01*
X36646428Y-22684285D01*
X36408333Y-22684285D01*
X36217857Y-22636666D01*
X36122619Y-22589047D01*
X36075000Y-22541428D01*
X36027380Y-22446190D01*
X36360714Y-21684285D02*
X37027380Y-21684285D01*
X36455952Y-21684285D02*
X36408333Y-21636666D01*
X36360714Y-21541428D01*
X36360714Y-21398571D01*
X36408333Y-21303333D01*
X36503571Y-21255714D01*
X37027380Y-21255714D01*
X36503571Y-20446190D02*
X36503571Y-20779523D01*
X37027380Y-20779523D02*
X36027380Y-20779523D01*
X36027380Y-20303333D01*
D12*
X35103571Y-22791428D02*
X35127380Y-22815238D01*
X35151190Y-22886666D01*
X35151190Y-22934285D01*
X35127380Y-23005714D01*
X35079761Y-23053333D01*
X35032142Y-23077142D01*
X34936904Y-23100952D01*
X34865476Y-23100952D01*
X34770238Y-23077142D01*
X34722619Y-23053333D01*
X34675000Y-23005714D01*
X34651190Y-22934285D01*
X34651190Y-22886666D01*
X34675000Y-22815238D01*
X34698809Y-22791428D01*
X35151190Y-22315238D02*
X35151190Y-22600952D01*
X35151190Y-22458095D02*
X34651190Y-22458095D01*
X34722619Y-22505714D01*
X34770238Y-22553333D01*
X34794047Y-22600952D01*
X34651190Y-22005714D02*
X34651190Y-21958095D01*
X34675000Y-21910476D01*
X34698809Y-21886666D01*
X34746428Y-21862857D01*
X34841666Y-21839047D01*
X34960714Y-21839047D01*
X35055952Y-21862857D01*
X35103571Y-21886666D01*
X35127380Y-21910476D01*
X35151190Y-21958095D01*
X35151190Y-22005714D01*
X35127380Y-22053333D01*
X35103571Y-22077142D01*
X35055952Y-22100952D01*
X34960714Y-22124761D01*
X34841666Y-22124761D01*
X34746428Y-22100952D01*
X34698809Y-22077142D01*
X34675000Y-22053333D01*
X34651190Y-22005714D01*
D11*
X19122380Y-28607619D02*
X19122380Y-29179047D01*
X19122380Y-28893333D02*
X18122380Y-28893333D01*
X18265238Y-28988571D01*
X18360476Y-29083809D01*
X18408095Y-29179047D01*
X18122380Y-27988571D02*
X18122380Y-27893333D01*
X18170000Y-27798095D01*
X18217619Y-27750476D01*
X18312857Y-27702857D01*
X18503333Y-27655238D01*
X18741428Y-27655238D01*
X18931904Y-27702857D01*
X19027142Y-27750476D01*
X19074761Y-27798095D01*
X19122380Y-27893333D01*
X19122380Y-27988571D01*
X19074761Y-28083809D01*
X19027142Y-28131428D01*
X18931904Y-28179047D01*
X18741428Y-28226666D01*
X18503333Y-28226666D01*
X18312857Y-28179047D01*
X18217619Y-28131428D01*
X18170000Y-28083809D01*
X18122380Y-27988571D01*
X18122380Y-27036190D02*
X18122380Y-26940952D01*
X18170000Y-26845714D01*
X18217619Y-26798095D01*
X18312857Y-26750476D01*
X18503333Y-26702857D01*
X18741428Y-26702857D01*
X18931904Y-26750476D01*
X19027142Y-26798095D01*
X19074761Y-26845714D01*
X19122380Y-26940952D01*
X19122380Y-27036190D01*
X19074761Y-27131428D01*
X19027142Y-27179047D01*
X18931904Y-27226666D01*
X18741428Y-27274285D01*
X18503333Y-27274285D01*
X18312857Y-27226666D01*
X18217619Y-27179047D01*
X18170000Y-27131428D01*
X18122380Y-27036190D01*
X18455714Y-26274285D02*
X19122380Y-26274285D01*
X18550952Y-26274285D02*
X18503333Y-26226666D01*
X18455714Y-26131428D01*
X18455714Y-25988571D01*
X18503333Y-25893333D01*
X18598571Y-25845714D01*
X19122380Y-25845714D01*
X18598571Y-25036190D02*
X18598571Y-25369523D01*
X19122380Y-25369523D02*
X18122380Y-25369523D01*
X18122380Y-24893333D01*
D12*
X20498571Y-27143333D02*
X20522380Y-27167142D01*
X20546190Y-27238571D01*
X20546190Y-27286190D01*
X20522380Y-27357619D01*
X20474761Y-27405238D01*
X20427142Y-27429047D01*
X20331904Y-27452857D01*
X20260476Y-27452857D01*
X20165238Y-27429047D01*
X20117619Y-27405238D01*
X20070000Y-27357619D01*
X20046190Y-27286190D01*
X20046190Y-27238571D01*
X20070000Y-27167142D01*
X20093809Y-27143333D01*
X20260476Y-26857619D02*
X20236666Y-26905238D01*
X20212857Y-26929047D01*
X20165238Y-26952857D01*
X20141428Y-26952857D01*
X20093809Y-26929047D01*
X20070000Y-26905238D01*
X20046190Y-26857619D01*
X20046190Y-26762380D01*
X20070000Y-26714761D01*
X20093809Y-26690952D01*
X20141428Y-26667142D01*
X20165238Y-26667142D01*
X20212857Y-26690952D01*
X20236666Y-26714761D01*
X20260476Y-26762380D01*
X20260476Y-26857619D01*
X20284285Y-26905238D01*
X20308095Y-26929047D01*
X20355714Y-26952857D01*
X20450952Y-26952857D01*
X20498571Y-26929047D01*
X20522380Y-26905238D01*
X20546190Y-26857619D01*
X20546190Y-26762380D01*
X20522380Y-26714761D01*
X20498571Y-26690952D01*
X20450952Y-26667142D01*
X20355714Y-26667142D01*
X20308095Y-26690952D01*
X20284285Y-26714761D01*
X20260476Y-26762380D01*
D11*
X21755714Y-35052857D02*
X22422380Y-35052857D01*
X21374761Y-35290952D02*
X22089047Y-35529047D01*
X22089047Y-34910000D01*
X21422380Y-34624285D02*
X21422380Y-33957619D01*
X22422380Y-34386190D01*
X21422380Y-33386190D02*
X21422380Y-33290952D01*
X21470000Y-33195714D01*
X21517619Y-33148095D01*
X21612857Y-33100476D01*
X21803333Y-33052857D01*
X22041428Y-33052857D01*
X22231904Y-33100476D01*
X22327142Y-33148095D01*
X22374761Y-33195714D01*
X22422380Y-33290952D01*
X22422380Y-33386190D01*
X22374761Y-33481428D01*
X22327142Y-33529047D01*
X22231904Y-33576666D01*
X22041428Y-33624285D01*
X21803333Y-33624285D01*
X21612857Y-33576666D01*
X21517619Y-33529047D01*
X21470000Y-33481428D01*
X21422380Y-33386190D01*
X21755714Y-32624285D02*
X22422380Y-32624285D01*
X21850952Y-32624285D02*
X21803333Y-32576666D01*
X21755714Y-32481428D01*
X21755714Y-32338571D01*
X21803333Y-32243333D01*
X21898571Y-32195714D01*
X22422380Y-32195714D01*
X21898571Y-31386190D02*
X21898571Y-31719523D01*
X22422380Y-31719523D02*
X21422380Y-31719523D01*
X21422380Y-31243333D01*
D12*
X20498571Y-33493333D02*
X20522380Y-33517142D01*
X20546190Y-33588571D01*
X20546190Y-33636190D01*
X20522380Y-33707619D01*
X20474761Y-33755238D01*
X20427142Y-33779047D01*
X20331904Y-33802857D01*
X20260476Y-33802857D01*
X20165238Y-33779047D01*
X20117619Y-33755238D01*
X20070000Y-33707619D01*
X20046190Y-33636190D01*
X20046190Y-33588571D01*
X20070000Y-33517142D01*
X20093809Y-33493333D01*
X20046190Y-33064761D02*
X20046190Y-33160000D01*
X20070000Y-33207619D01*
X20093809Y-33231428D01*
X20165238Y-33279047D01*
X20260476Y-33302857D01*
X20450952Y-33302857D01*
X20498571Y-33279047D01*
X20522380Y-33255238D01*
X20546190Y-33207619D01*
X20546190Y-33112380D01*
X20522380Y-33064761D01*
X20498571Y-33040952D01*
X20450952Y-33017142D01*
X20331904Y-33017142D01*
X20284285Y-33040952D01*
X20260476Y-33064761D01*
X20236666Y-33112380D01*
X20236666Y-33207619D01*
X20260476Y-33255238D01*
X20284285Y-33279047D01*
X20331904Y-33302857D01*
D11*
X83932380Y-35632380D02*
X83360952Y-35632380D01*
X83646666Y-35632380D02*
X83646666Y-34632380D01*
X83551428Y-34775238D01*
X83456190Y-34870476D01*
X83360952Y-34918095D01*
X84551428Y-34632380D02*
X84646666Y-34632380D01*
X84741904Y-34680000D01*
X84789523Y-34727619D01*
X84837142Y-34822857D01*
X84884761Y-35013333D01*
X84884761Y-35251428D01*
X84837142Y-35441904D01*
X84789523Y-35537142D01*
X84741904Y-35584761D01*
X84646666Y-35632380D01*
X84551428Y-35632380D01*
X84456190Y-35584761D01*
X84408571Y-35537142D01*
X84360952Y-35441904D01*
X84313333Y-35251428D01*
X84313333Y-35013333D01*
X84360952Y-34822857D01*
X84408571Y-34727619D01*
X84456190Y-34680000D01*
X84551428Y-34632380D01*
X85503809Y-34632380D02*
X85599047Y-34632380D01*
X85694285Y-34680000D01*
X85741904Y-34727619D01*
X85789523Y-34822857D01*
X85837142Y-35013333D01*
X85837142Y-35251428D01*
X85789523Y-35441904D01*
X85741904Y-35537142D01*
X85694285Y-35584761D01*
X85599047Y-35632380D01*
X85503809Y-35632380D01*
X85408571Y-35584761D01*
X85360952Y-35537142D01*
X85313333Y-35441904D01*
X85265714Y-35251428D01*
X85265714Y-35013333D01*
X85313333Y-34822857D01*
X85360952Y-34727619D01*
X85408571Y-34680000D01*
X85503809Y-34632380D01*
X86265714Y-34965714D02*
X86265714Y-35632380D01*
X86265714Y-35060952D02*
X86313333Y-35013333D01*
X86408571Y-34965714D01*
X86551428Y-34965714D01*
X86646666Y-35013333D01*
X86694285Y-35108571D01*
X86694285Y-35632380D01*
X87503809Y-35108571D02*
X87170476Y-35108571D01*
X87170476Y-35632380D02*
X87170476Y-34632380D01*
X87646666Y-34632380D01*
D12*
X85396666Y-37008571D02*
X85372857Y-37032380D01*
X85301428Y-37056190D01*
X85253809Y-37056190D01*
X85182380Y-37032380D01*
X85134761Y-36984761D01*
X85110952Y-36937142D01*
X85087142Y-36841904D01*
X85087142Y-36770476D01*
X85110952Y-36675238D01*
X85134761Y-36627619D01*
X85182380Y-36580000D01*
X85253809Y-36556190D01*
X85301428Y-36556190D01*
X85372857Y-36580000D01*
X85396666Y-36603809D01*
X85849047Y-36556190D02*
X85610952Y-36556190D01*
X85587142Y-36794285D01*
X85610952Y-36770476D01*
X85658571Y-36746666D01*
X85777619Y-36746666D01*
X85825238Y-36770476D01*
X85849047Y-36794285D01*
X85872857Y-36841904D01*
X85872857Y-36960952D01*
X85849047Y-37008571D01*
X85825238Y-37032380D01*
X85777619Y-37056190D01*
X85658571Y-37056190D01*
X85610952Y-37032380D01*
X85587142Y-37008571D01*
D11*
X76802380Y-38932380D02*
X76230952Y-38932380D01*
X76516666Y-38932380D02*
X76516666Y-37932380D01*
X76421428Y-38075238D01*
X76326190Y-38170476D01*
X76230952Y-38218095D01*
X77421428Y-37932380D02*
X77516666Y-37932380D01*
X77611904Y-37980000D01*
X77659523Y-38027619D01*
X77707142Y-38122857D01*
X77754761Y-38313333D01*
X77754761Y-38551428D01*
X77707142Y-38741904D01*
X77659523Y-38837142D01*
X77611904Y-38884761D01*
X77516666Y-38932380D01*
X77421428Y-38932380D01*
X77326190Y-38884761D01*
X77278571Y-38837142D01*
X77230952Y-38741904D01*
X77183333Y-38551428D01*
X77183333Y-38313333D01*
X77230952Y-38122857D01*
X77278571Y-38027619D01*
X77326190Y-37980000D01*
X77421428Y-37932380D01*
X78373809Y-37932380D02*
X78469047Y-37932380D01*
X78564285Y-37980000D01*
X78611904Y-38027619D01*
X78659523Y-38122857D01*
X78707142Y-38313333D01*
X78707142Y-38551428D01*
X78659523Y-38741904D01*
X78611904Y-38837142D01*
X78564285Y-38884761D01*
X78469047Y-38932380D01*
X78373809Y-38932380D01*
X78278571Y-38884761D01*
X78230952Y-38837142D01*
X78183333Y-38741904D01*
X78135714Y-38551428D01*
X78135714Y-38313333D01*
X78183333Y-38122857D01*
X78230952Y-38027619D01*
X78278571Y-37980000D01*
X78373809Y-37932380D01*
X79135714Y-38265714D02*
X79135714Y-38932380D01*
X79135714Y-38360952D02*
X79183333Y-38313333D01*
X79278571Y-38265714D01*
X79421428Y-38265714D01*
X79516666Y-38313333D01*
X79564285Y-38408571D01*
X79564285Y-38932380D01*
X80373809Y-38408571D02*
X80040476Y-38408571D01*
X80040476Y-38932380D02*
X80040476Y-37932380D01*
X80516666Y-37932380D01*
D12*
X78266666Y-37008571D02*
X78242857Y-37032380D01*
X78171428Y-37056190D01*
X78123809Y-37056190D01*
X78052380Y-37032380D01*
X78004761Y-36984761D01*
X77980952Y-36937142D01*
X77957142Y-36841904D01*
X77957142Y-36770476D01*
X77980952Y-36675238D01*
X78004761Y-36627619D01*
X78052380Y-36580000D01*
X78123809Y-36556190D01*
X78171428Y-36556190D01*
X78242857Y-36580000D01*
X78266666Y-36603809D01*
X78695238Y-36722857D02*
X78695238Y-37056190D01*
X78576190Y-36532380D02*
X78457142Y-36889523D01*
X78766666Y-36889523D01*
D11*
X109292380Y-32272619D02*
X109292380Y-32844047D01*
X109292380Y-32558333D02*
X108292380Y-32558333D01*
X108435238Y-32653571D01*
X108530476Y-32748809D01*
X108578095Y-32844047D01*
X108292380Y-31653571D02*
X108292380Y-31558333D01*
X108340000Y-31463095D01*
X108387619Y-31415476D01*
X108482857Y-31367857D01*
X108673333Y-31320238D01*
X108911428Y-31320238D01*
X109101904Y-31367857D01*
X109197142Y-31415476D01*
X109244761Y-31463095D01*
X109292380Y-31558333D01*
X109292380Y-31653571D01*
X109244761Y-31748809D01*
X109197142Y-31796428D01*
X109101904Y-31844047D01*
X108911428Y-31891666D01*
X108673333Y-31891666D01*
X108482857Y-31844047D01*
X108387619Y-31796428D01*
X108340000Y-31748809D01*
X108292380Y-31653571D01*
X108292380Y-30701190D02*
X108292380Y-30605952D01*
X108340000Y-30510714D01*
X108387619Y-30463095D01*
X108482857Y-30415476D01*
X108673333Y-30367857D01*
X108911428Y-30367857D01*
X109101904Y-30415476D01*
X109197142Y-30463095D01*
X109244761Y-30510714D01*
X109292380Y-30605952D01*
X109292380Y-30701190D01*
X109244761Y-30796428D01*
X109197142Y-30844047D01*
X109101904Y-30891666D01*
X108911428Y-30939285D01*
X108673333Y-30939285D01*
X108482857Y-30891666D01*
X108387619Y-30844047D01*
X108340000Y-30796428D01*
X108292380Y-30701190D01*
X108625714Y-29939285D02*
X109292380Y-29939285D01*
X108720952Y-29939285D02*
X108673333Y-29891666D01*
X108625714Y-29796428D01*
X108625714Y-29653571D01*
X108673333Y-29558333D01*
X108768571Y-29510714D01*
X109292380Y-29510714D01*
X108768571Y-28701190D02*
X108768571Y-29034523D01*
X109292380Y-29034523D02*
X108292380Y-29034523D01*
X108292380Y-28558333D01*
D12*
X110668571Y-30808333D02*
X110692380Y-30832142D01*
X110716190Y-30903571D01*
X110716190Y-30951190D01*
X110692380Y-31022619D01*
X110644761Y-31070238D01*
X110597142Y-31094047D01*
X110501904Y-31117857D01*
X110430476Y-31117857D01*
X110335238Y-31094047D01*
X110287619Y-31070238D01*
X110240000Y-31022619D01*
X110216190Y-30951190D01*
X110216190Y-30903571D01*
X110240000Y-30832142D01*
X110263809Y-30808333D01*
X110263809Y-30617857D02*
X110240000Y-30594047D01*
X110216190Y-30546428D01*
X110216190Y-30427380D01*
X110240000Y-30379761D01*
X110263809Y-30355952D01*
X110311428Y-30332142D01*
X110359047Y-30332142D01*
X110430476Y-30355952D01*
X110716190Y-30641666D01*
X110716190Y-30332142D01*
D11*
X106406666Y-70412380D02*
X106406666Y-71126666D01*
X106359047Y-71269523D01*
X106263809Y-71364761D01*
X106120952Y-71412380D01*
X106025714Y-71412380D01*
X107359047Y-70412380D02*
X106882857Y-70412380D01*
X106835238Y-70888571D01*
X106882857Y-70840952D01*
X106978095Y-70793333D01*
X107216190Y-70793333D01*
X107311428Y-70840952D01*
X107359047Y-70888571D01*
X107406666Y-70983809D01*
X107406666Y-71221904D01*
X107359047Y-71317142D01*
X107311428Y-71364761D01*
X107216190Y-71412380D01*
X106978095Y-71412380D01*
X106882857Y-71364761D01*
X106835238Y-71317142D01*
X56876666Y-76662380D02*
X56876666Y-77376666D01*
X56829047Y-77519523D01*
X56733809Y-77614761D01*
X56590952Y-77662380D01*
X56495714Y-77662380D01*
X57495714Y-77090952D02*
X57400476Y-77043333D01*
X57352857Y-76995714D01*
X57305238Y-76900476D01*
X57305238Y-76852857D01*
X57352857Y-76757619D01*
X57400476Y-76710000D01*
X57495714Y-76662380D01*
X57686190Y-76662380D01*
X57781428Y-76710000D01*
X57829047Y-76757619D01*
X57876666Y-76852857D01*
X57876666Y-76900476D01*
X57829047Y-76995714D01*
X57781428Y-77043333D01*
X57686190Y-77090952D01*
X57495714Y-77090952D01*
X57400476Y-77138571D01*
X57352857Y-77186190D01*
X57305238Y-77281428D01*
X57305238Y-77471904D01*
X57352857Y-77567142D01*
X57400476Y-77614761D01*
X57495714Y-77662380D01*
X57686190Y-77662380D01*
X57781428Y-77614761D01*
X57829047Y-77567142D01*
X57876666Y-77471904D01*
X57876666Y-77281428D01*
X57829047Y-77186190D01*
X57781428Y-77138571D01*
X57686190Y-77090952D01*
X89896666Y-70412380D02*
X89896666Y-71126666D01*
X89849047Y-71269523D01*
X89753809Y-71364761D01*
X89610952Y-71412380D01*
X89515714Y-71412380D01*
X90801428Y-70412380D02*
X90610952Y-70412380D01*
X90515714Y-70460000D01*
X90468095Y-70507619D01*
X90372857Y-70650476D01*
X90325238Y-70840952D01*
X90325238Y-71221904D01*
X90372857Y-71317142D01*
X90420476Y-71364761D01*
X90515714Y-71412380D01*
X90706190Y-71412380D01*
X90801428Y-71364761D01*
X90849047Y-71317142D01*
X90896666Y-71221904D01*
X90896666Y-70983809D01*
X90849047Y-70888571D01*
X90801428Y-70840952D01*
X90706190Y-70793333D01*
X90515714Y-70793333D01*
X90420476Y-70840952D01*
X90372857Y-70888571D01*
X90325238Y-70983809D01*
X28816666Y-11777380D02*
X28816666Y-12491666D01*
X28769047Y-12634523D01*
X28673809Y-12729761D01*
X28530952Y-12777380D01*
X28435714Y-12777380D01*
X29721428Y-12110714D02*
X29721428Y-12777380D01*
X29483333Y-11729761D02*
X29245238Y-12444047D01*
X29864285Y-12444047D01*
X73386666Y-76662380D02*
X73386666Y-77376666D01*
X73339047Y-77519523D01*
X73243809Y-77614761D01*
X73100952Y-77662380D01*
X73005714Y-77662380D01*
X73767619Y-76662380D02*
X74386666Y-76662380D01*
X74053333Y-77043333D01*
X74196190Y-77043333D01*
X74291428Y-77090952D01*
X74339047Y-77138571D01*
X74386666Y-77233809D01*
X74386666Y-77471904D01*
X74339047Y-77567142D01*
X74291428Y-77614761D01*
X74196190Y-77662380D01*
X73910476Y-77662380D01*
X73815238Y-77614761D01*
X73767619Y-77567142D01*
X117402380Y-63773333D02*
X118116666Y-63773333D01*
X118259523Y-63820952D01*
X118354761Y-63916190D01*
X118402380Y-64059047D01*
X118402380Y-64154285D01*
X118402380Y-63249523D02*
X118402380Y-63059047D01*
X118354761Y-62963809D01*
X118307142Y-62916190D01*
X118164285Y-62820952D01*
X117973809Y-62773333D01*
X117592857Y-62773333D01*
X117497619Y-62820952D01*
X117450000Y-62868571D01*
X117402380Y-62963809D01*
X117402380Y-63154285D01*
X117450000Y-63249523D01*
X117497619Y-63297142D01*
X117592857Y-63344761D01*
X117830952Y-63344761D01*
X117926190Y-63297142D01*
X117973809Y-63249523D01*
X118021428Y-63154285D01*
X118021428Y-62963809D01*
X117973809Y-62868571D01*
X117926190Y-62820952D01*
X117830952Y-62773333D01*
X55226071Y-51802380D02*
X54654642Y-51802380D01*
X54940357Y-51802380D02*
X54940357Y-50802380D01*
X54845119Y-50945238D01*
X54749880Y-51040476D01*
X54654642Y-51088095D01*
X55845119Y-50802380D02*
X55940357Y-50802380D01*
X56035595Y-50850000D01*
X56083214Y-50897619D01*
X56130833Y-50992857D01*
X56178452Y-51183333D01*
X56178452Y-51421428D01*
X56130833Y-51611904D01*
X56083214Y-51707142D01*
X56035595Y-51754761D01*
X55940357Y-51802380D01*
X55845119Y-51802380D01*
X55749880Y-51754761D01*
X55702261Y-51707142D01*
X55654642Y-51611904D01*
X55607023Y-51421428D01*
X55607023Y-51183333D01*
X55654642Y-50992857D01*
X55702261Y-50897619D01*
X55749880Y-50850000D01*
X55845119Y-50802380D01*
X57035595Y-51135714D02*
X57035595Y-51802380D01*
X56607023Y-51135714D02*
X56607023Y-51659523D01*
X56654642Y-51754761D01*
X56749880Y-51802380D01*
X56892738Y-51802380D01*
X56987976Y-51754761D01*
X57035595Y-51707142D01*
X57845119Y-51278571D02*
X57511785Y-51278571D01*
X57511785Y-51802380D02*
X57511785Y-50802380D01*
X57987976Y-50802380D01*
D13*
X55783214Y-49815714D02*
X55745119Y-49853809D01*
X55630833Y-49891904D01*
X55554642Y-49891904D01*
X55440357Y-49853809D01*
X55364166Y-49777619D01*
X55326071Y-49701428D01*
X55287976Y-49549047D01*
X55287976Y-49434761D01*
X55326071Y-49282380D01*
X55364166Y-49206190D01*
X55440357Y-49130000D01*
X55554642Y-49091904D01*
X55630833Y-49091904D01*
X55745119Y-49130000D01*
X55783214Y-49168095D01*
X56545119Y-49891904D02*
X56087976Y-49891904D01*
X56316547Y-49891904D02*
X56316547Y-49091904D01*
X56240357Y-49206190D01*
X56164166Y-49282380D01*
X56087976Y-49320476D01*
X56811785Y-49091904D02*
X57345119Y-49091904D01*
X57002261Y-49891904D01*
D11*
X67987380Y-51761666D02*
X66987380Y-51761666D01*
X67987380Y-51190238D01*
X66987380Y-51190238D01*
X67463571Y-50714047D02*
X67463571Y-50380714D01*
X67987380Y-50237857D02*
X67987380Y-50714047D01*
X66987380Y-50714047D01*
X66987380Y-50237857D01*
X66987380Y-49333095D02*
X66987380Y-49809285D01*
X67463571Y-49856904D01*
X67415952Y-49809285D01*
X67368333Y-49714047D01*
X67368333Y-49475952D01*
X67415952Y-49380714D01*
X67463571Y-49333095D01*
X67558809Y-49285476D01*
X67796904Y-49285476D01*
X67892142Y-49333095D01*
X67939761Y-49380714D01*
X67987380Y-49475952D01*
X67987380Y-49714047D01*
X67939761Y-49809285D01*
X67892142Y-49856904D01*
X66987380Y-48380714D02*
X66987380Y-48856904D01*
X67463571Y-48904523D01*
X67415952Y-48856904D01*
X67368333Y-48761666D01*
X67368333Y-48523571D01*
X67415952Y-48428333D01*
X67463571Y-48380714D01*
X67558809Y-48333095D01*
X67796904Y-48333095D01*
X67892142Y-48380714D01*
X67939761Y-48428333D01*
X67987380Y-48523571D01*
X67987380Y-48761666D01*
X67939761Y-48856904D01*
X67892142Y-48904523D01*
X66987380Y-47428333D02*
X66987380Y-47904523D01*
X67463571Y-47952142D01*
X67415952Y-47904523D01*
X67368333Y-47809285D01*
X67368333Y-47571190D01*
X67415952Y-47475952D01*
X67463571Y-47428333D01*
X67558809Y-47380714D01*
X67796904Y-47380714D01*
X67892142Y-47428333D01*
X67939761Y-47475952D01*
X67987380Y-47571190D01*
X67987380Y-47809285D01*
X67939761Y-47904523D01*
X67892142Y-47952142D01*
X63598333Y-50341666D02*
X64391666Y-50341666D01*
X64485000Y-50295000D01*
X64531666Y-50248333D01*
X64578333Y-50155000D01*
X64578333Y-49968333D01*
X64531666Y-49875000D01*
X64485000Y-49828333D01*
X64391666Y-49781666D01*
X63598333Y-49781666D01*
X63925000Y-48895000D02*
X64578333Y-48895000D01*
X63551666Y-49128333D02*
X64251666Y-49361666D01*
X64251666Y-48755000D01*
X103792380Y-52380714D02*
X103792380Y-51714047D01*
X104792380Y-52142619D01*
X104125714Y-50904523D02*
X104792380Y-50904523D01*
X103744761Y-51142619D02*
X104459047Y-51380714D01*
X104459047Y-50761666D01*
X104792380Y-50380714D02*
X103792380Y-50380714D01*
X104268571Y-50380714D02*
X104268571Y-49809285D01*
X104792380Y-49809285D02*
X103792380Y-49809285D01*
X104697142Y-48761666D02*
X104744761Y-48809285D01*
X104792380Y-48952142D01*
X104792380Y-49047380D01*
X104744761Y-49190238D01*
X104649523Y-49285476D01*
X104554285Y-49333095D01*
X104363809Y-49380714D01*
X104220952Y-49380714D01*
X104030476Y-49333095D01*
X103935238Y-49285476D01*
X103840000Y-49190238D01*
X103792380Y-49047380D01*
X103792380Y-48952142D01*
X103840000Y-48809285D01*
X103887619Y-48761666D01*
X104792380Y-47809285D02*
X104792380Y-48380714D01*
X104792380Y-48095000D02*
X103792380Y-48095000D01*
X103935238Y-48190238D01*
X104030476Y-48285476D01*
X104078095Y-48380714D01*
X104125714Y-46952142D02*
X104792380Y-46952142D01*
X103744761Y-47190238D02*
X104459047Y-47428333D01*
X104459047Y-46809285D01*
X98523333Y-50341666D02*
X99316666Y-50341666D01*
X99410000Y-50295000D01*
X99456666Y-50248333D01*
X99503333Y-50155000D01*
X99503333Y-49968333D01*
X99456666Y-49875000D01*
X99410000Y-49828333D01*
X99316666Y-49781666D01*
X98523333Y-49781666D01*
X98523333Y-49408333D02*
X98523333Y-48801666D01*
X98896666Y-49128333D01*
X98896666Y-48988333D01*
X98943333Y-48895000D01*
X98990000Y-48848333D01*
X99083333Y-48801666D01*
X99316666Y-48801666D01*
X99410000Y-48848333D01*
X99456666Y-48895000D01*
X99503333Y-48988333D01*
X99503333Y-49268333D01*
X99456666Y-49361666D01*
X99410000Y-49408333D01*
X86867380Y-32242857D02*
X86867380Y-32719047D01*
X85867380Y-32719047D01*
X86867380Y-31909523D02*
X85867380Y-31909523D01*
X86581666Y-31576190D01*
X85867380Y-31242857D01*
X86867380Y-31242857D01*
X85962619Y-30814285D02*
X85915000Y-30766666D01*
X85867380Y-30671428D01*
X85867380Y-30433333D01*
X85915000Y-30338095D01*
X85962619Y-30290476D01*
X86057857Y-30242857D01*
X86153095Y-30242857D01*
X86295952Y-30290476D01*
X86867380Y-30861904D01*
X86867380Y-30242857D01*
X86867380Y-29766666D02*
X86867380Y-29576190D01*
X86819761Y-29480952D01*
X86772142Y-29433333D01*
X86629285Y-29338095D01*
X86438809Y-29290476D01*
X86057857Y-29290476D01*
X85962619Y-29338095D01*
X85915000Y-29385714D01*
X85867380Y-29480952D01*
X85867380Y-29671428D01*
X85915000Y-29766666D01*
X85962619Y-29814285D01*
X86057857Y-29861904D01*
X86295952Y-29861904D01*
X86391190Y-29814285D01*
X86438809Y-29766666D01*
X86486428Y-29671428D01*
X86486428Y-29480952D01*
X86438809Y-29385714D01*
X86391190Y-29338095D01*
X86295952Y-29290476D01*
X85867380Y-28957142D02*
X85867380Y-28338095D01*
X86248333Y-28671428D01*
X86248333Y-28528571D01*
X86295952Y-28433333D01*
X86343571Y-28385714D01*
X86438809Y-28338095D01*
X86676904Y-28338095D01*
X86772142Y-28385714D01*
X86819761Y-28433333D01*
X86867380Y-28528571D01*
X86867380Y-28814285D01*
X86819761Y-28909523D01*
X86772142Y-28957142D01*
X85867380Y-28004761D02*
X85867380Y-27338095D01*
X86867380Y-27766666D01*
X86867380Y-27052380D02*
X86200714Y-26528571D01*
X86200714Y-27052380D02*
X86867380Y-26528571D01*
X86867380Y-26147619D02*
X85867380Y-26147619D01*
X86581666Y-25814285D01*
X85867380Y-25480952D01*
X86867380Y-25480952D01*
X86867380Y-25004761D02*
X85867380Y-25004761D01*
X85867380Y-24623809D01*
X85915000Y-24528571D01*
X85962619Y-24480952D01*
X86057857Y-24433333D01*
X86200714Y-24433333D01*
X86295952Y-24480952D01*
X86343571Y-24528571D01*
X86391190Y-24623809D01*
X86391190Y-25004761D01*
D13*
X81305476Y-28161904D02*
X81305476Y-28809523D01*
X81343571Y-28885714D01*
X81381666Y-28923809D01*
X81457857Y-28961904D01*
X81610238Y-28961904D01*
X81686428Y-28923809D01*
X81724523Y-28885714D01*
X81762619Y-28809523D01*
X81762619Y-28161904D01*
X82562619Y-28961904D02*
X82105476Y-28961904D01*
X82334047Y-28961904D02*
X82334047Y-28161904D01*
X82257857Y-28276190D01*
X82181666Y-28352380D01*
X82105476Y-28390476D01*
D11*
X72025952Y-48332380D02*
X71454523Y-48332380D01*
X71740238Y-48332380D02*
X71740238Y-47332380D01*
X71645000Y-47475238D01*
X71549761Y-47570476D01*
X71454523Y-47618095D01*
X72454523Y-48332380D02*
X72454523Y-47332380D01*
X72549761Y-47951428D02*
X72835476Y-48332380D01*
X72835476Y-47665714D02*
X72454523Y-48046666D01*
D12*
X71823571Y-49756190D02*
X71656904Y-49518095D01*
X71537857Y-49756190D02*
X71537857Y-49256190D01*
X71728333Y-49256190D01*
X71775952Y-49280000D01*
X71799761Y-49303809D01*
X71823571Y-49351428D01*
X71823571Y-49422857D01*
X71799761Y-49470476D01*
X71775952Y-49494285D01*
X71728333Y-49518095D01*
X71537857Y-49518095D01*
X72014047Y-49303809D02*
X72037857Y-49280000D01*
X72085476Y-49256190D01*
X72204523Y-49256190D01*
X72252142Y-49280000D01*
X72275952Y-49303809D01*
X72299761Y-49351428D01*
X72299761Y-49399047D01*
X72275952Y-49470476D01*
X71990238Y-49756190D01*
X72299761Y-49756190D01*
X72728333Y-49256190D02*
X72633095Y-49256190D01*
X72585476Y-49280000D01*
X72561666Y-49303809D01*
X72514047Y-49375238D01*
X72490238Y-49470476D01*
X72490238Y-49660952D01*
X72514047Y-49708571D01*
X72537857Y-49732380D01*
X72585476Y-49756190D01*
X72680714Y-49756190D01*
X72728333Y-49732380D01*
X72752142Y-49708571D01*
X72775952Y-49660952D01*
X72775952Y-49541904D01*
X72752142Y-49494285D01*
X72728333Y-49470476D01*
X72680714Y-49446666D01*
X72585476Y-49446666D01*
X72537857Y-49470476D01*
X72514047Y-49494285D01*
X72490238Y-49541904D01*
D11*
X54958333Y-54775714D02*
X54958333Y-55442380D01*
X54720238Y-54394761D02*
X54482142Y-55109047D01*
X55101190Y-55109047D01*
X55386904Y-54442380D02*
X56053571Y-54442380D01*
X55625000Y-55442380D01*
X56625000Y-54442380D02*
X56720238Y-54442380D01*
X56815476Y-54490000D01*
X56863095Y-54537619D01*
X56910714Y-54632857D01*
X56958333Y-54823333D01*
X56958333Y-55061428D01*
X56910714Y-55251904D01*
X56863095Y-55347142D01*
X56815476Y-55394761D01*
X56720238Y-55442380D01*
X56625000Y-55442380D01*
X56529761Y-55394761D01*
X56482142Y-55347142D01*
X56434523Y-55251904D01*
X56386904Y-55061428D01*
X56386904Y-54823333D01*
X56434523Y-54632857D01*
X56482142Y-54537619D01*
X56529761Y-54490000D01*
X56625000Y-54442380D01*
X57386904Y-55442380D02*
X57386904Y-54442380D01*
X57482142Y-55061428D02*
X57767857Y-55442380D01*
X57767857Y-54775714D02*
X57386904Y-55156666D01*
D12*
X55803571Y-53566190D02*
X55636904Y-53328095D01*
X55517857Y-53566190D02*
X55517857Y-53066190D01*
X55708333Y-53066190D01*
X55755952Y-53090000D01*
X55779761Y-53113809D01*
X55803571Y-53161428D01*
X55803571Y-53232857D01*
X55779761Y-53280476D01*
X55755952Y-53304285D01*
X55708333Y-53328095D01*
X55517857Y-53328095D01*
X55994047Y-53113809D02*
X56017857Y-53090000D01*
X56065476Y-53066190D01*
X56184523Y-53066190D01*
X56232142Y-53090000D01*
X56255952Y-53113809D01*
X56279761Y-53161428D01*
X56279761Y-53209047D01*
X56255952Y-53280476D01*
X55970238Y-53566190D01*
X56279761Y-53566190D01*
X56732142Y-53066190D02*
X56494047Y-53066190D01*
X56470238Y-53304285D01*
X56494047Y-53280476D01*
X56541666Y-53256666D01*
X56660714Y-53256666D01*
X56708333Y-53280476D01*
X56732142Y-53304285D01*
X56755952Y-53351904D01*
X56755952Y-53470952D01*
X56732142Y-53518571D01*
X56708333Y-53542380D01*
X56660714Y-53566190D01*
X56541666Y-53566190D01*
X56494047Y-53542380D01*
X56470238Y-53518571D01*
D11*
X54958333Y-43855714D02*
X54958333Y-44522380D01*
X54720238Y-43474761D02*
X54482142Y-44189047D01*
X55101190Y-44189047D01*
X55386904Y-43522380D02*
X56053571Y-43522380D01*
X55625000Y-44522380D01*
X56625000Y-43522380D02*
X56720238Y-43522380D01*
X56815476Y-43570000D01*
X56863095Y-43617619D01*
X56910714Y-43712857D01*
X56958333Y-43903333D01*
X56958333Y-44141428D01*
X56910714Y-44331904D01*
X56863095Y-44427142D01*
X56815476Y-44474761D01*
X56720238Y-44522380D01*
X56625000Y-44522380D01*
X56529761Y-44474761D01*
X56482142Y-44427142D01*
X56434523Y-44331904D01*
X56386904Y-44141428D01*
X56386904Y-43903333D01*
X56434523Y-43712857D01*
X56482142Y-43617619D01*
X56529761Y-43570000D01*
X56625000Y-43522380D01*
X57386904Y-44522380D02*
X57386904Y-43522380D01*
X57482142Y-44141428D02*
X57767857Y-44522380D01*
X57767857Y-43855714D02*
X57386904Y-44236666D01*
D12*
X55803571Y-45946190D02*
X55636904Y-45708095D01*
X55517857Y-45946190D02*
X55517857Y-45446190D01*
X55708333Y-45446190D01*
X55755952Y-45470000D01*
X55779761Y-45493809D01*
X55803571Y-45541428D01*
X55803571Y-45612857D01*
X55779761Y-45660476D01*
X55755952Y-45684285D01*
X55708333Y-45708095D01*
X55517857Y-45708095D01*
X55994047Y-45493809D02*
X56017857Y-45470000D01*
X56065476Y-45446190D01*
X56184523Y-45446190D01*
X56232142Y-45470000D01*
X56255952Y-45493809D01*
X56279761Y-45541428D01*
X56279761Y-45589047D01*
X56255952Y-45660476D01*
X55970238Y-45946190D01*
X56279761Y-45946190D01*
X56708333Y-45612857D02*
X56708333Y-45946190D01*
X56589285Y-45422380D02*
X56470238Y-45779523D01*
X56779761Y-45779523D01*
D11*
X106964761Y-61792380D02*
X106393333Y-61792380D01*
X106679047Y-61792380D02*
X106679047Y-60792380D01*
X106583809Y-60935238D01*
X106488571Y-61030476D01*
X106393333Y-61078095D01*
X107583809Y-60792380D02*
X107679047Y-60792380D01*
X107774285Y-60840000D01*
X107821904Y-60887619D01*
X107869523Y-60982857D01*
X107917142Y-61173333D01*
X107917142Y-61411428D01*
X107869523Y-61601904D01*
X107821904Y-61697142D01*
X107774285Y-61744761D01*
X107679047Y-61792380D01*
X107583809Y-61792380D01*
X107488571Y-61744761D01*
X107440952Y-61697142D01*
X107393333Y-61601904D01*
X107345714Y-61411428D01*
X107345714Y-61173333D01*
X107393333Y-60982857D01*
X107440952Y-60887619D01*
X107488571Y-60840000D01*
X107583809Y-60792380D01*
X108345714Y-61792380D02*
X108345714Y-60792380D01*
X108440952Y-61411428D02*
X108726666Y-61792380D01*
X108726666Y-61125714D02*
X108345714Y-61506666D01*
D12*
X107238571Y-59916190D02*
X107071904Y-59678095D01*
X106952857Y-59916190D02*
X106952857Y-59416190D01*
X107143333Y-59416190D01*
X107190952Y-59440000D01*
X107214761Y-59463809D01*
X107238571Y-59511428D01*
X107238571Y-59582857D01*
X107214761Y-59630476D01*
X107190952Y-59654285D01*
X107143333Y-59678095D01*
X106952857Y-59678095D01*
X107429047Y-59463809D02*
X107452857Y-59440000D01*
X107500476Y-59416190D01*
X107619523Y-59416190D01*
X107667142Y-59440000D01*
X107690952Y-59463809D01*
X107714761Y-59511428D01*
X107714761Y-59559047D01*
X107690952Y-59630476D01*
X107405238Y-59916190D01*
X107714761Y-59916190D01*
X107881428Y-59416190D02*
X108190952Y-59416190D01*
X108024285Y-59606666D01*
X108095714Y-59606666D01*
X108143333Y-59630476D01*
X108167142Y-59654285D01*
X108190952Y-59701904D01*
X108190952Y-59820952D01*
X108167142Y-59868571D01*
X108143333Y-59892380D01*
X108095714Y-59916190D01*
X107952857Y-59916190D01*
X107905238Y-59892380D01*
X107881428Y-59868571D01*
D11*
X112679761Y-69412380D02*
X112108333Y-69412380D01*
X112394047Y-69412380D02*
X112394047Y-68412380D01*
X112298809Y-68555238D01*
X112203571Y-68650476D01*
X112108333Y-68698095D01*
X113298809Y-68412380D02*
X113394047Y-68412380D01*
X113489285Y-68460000D01*
X113536904Y-68507619D01*
X113584523Y-68602857D01*
X113632142Y-68793333D01*
X113632142Y-69031428D01*
X113584523Y-69221904D01*
X113536904Y-69317142D01*
X113489285Y-69364761D01*
X113394047Y-69412380D01*
X113298809Y-69412380D01*
X113203571Y-69364761D01*
X113155952Y-69317142D01*
X113108333Y-69221904D01*
X113060714Y-69031428D01*
X113060714Y-68793333D01*
X113108333Y-68602857D01*
X113155952Y-68507619D01*
X113203571Y-68460000D01*
X113298809Y-68412380D01*
X114060714Y-69412380D02*
X114060714Y-68412380D01*
X114155952Y-69031428D02*
X114441666Y-69412380D01*
X114441666Y-68745714D02*
X114060714Y-69126666D01*
D12*
X112953571Y-67536190D02*
X112786904Y-67298095D01*
X112667857Y-67536190D02*
X112667857Y-67036190D01*
X112858333Y-67036190D01*
X112905952Y-67060000D01*
X112929761Y-67083809D01*
X112953571Y-67131428D01*
X112953571Y-67202857D01*
X112929761Y-67250476D01*
X112905952Y-67274285D01*
X112858333Y-67298095D01*
X112667857Y-67298095D01*
X113144047Y-67083809D02*
X113167857Y-67060000D01*
X113215476Y-67036190D01*
X113334523Y-67036190D01*
X113382142Y-67060000D01*
X113405952Y-67083809D01*
X113429761Y-67131428D01*
X113429761Y-67179047D01*
X113405952Y-67250476D01*
X113120238Y-67536190D01*
X113429761Y-67536190D01*
X113620238Y-67083809D02*
X113644047Y-67060000D01*
X113691666Y-67036190D01*
X113810714Y-67036190D01*
X113858333Y-67060000D01*
X113882142Y-67083809D01*
X113905952Y-67131428D01*
X113905952Y-67179047D01*
X113882142Y-67250476D01*
X113596428Y-67536190D01*
X113905952Y-67536190D01*
D11*
X61720952Y-69412380D02*
X61149523Y-69412380D01*
X61435238Y-69412380D02*
X61435238Y-68412380D01*
X61340000Y-68555238D01*
X61244761Y-68650476D01*
X61149523Y-68698095D01*
X62149523Y-69412380D02*
X62149523Y-68412380D01*
X62244761Y-69031428D02*
X62530476Y-69412380D01*
X62530476Y-68745714D02*
X62149523Y-69126666D01*
D12*
X61518571Y-67536190D02*
X61351904Y-67298095D01*
X61232857Y-67536190D02*
X61232857Y-67036190D01*
X61423333Y-67036190D01*
X61470952Y-67060000D01*
X61494761Y-67083809D01*
X61518571Y-67131428D01*
X61518571Y-67202857D01*
X61494761Y-67250476D01*
X61470952Y-67274285D01*
X61423333Y-67298095D01*
X61232857Y-67298095D01*
X61709047Y-67083809D02*
X61732857Y-67060000D01*
X61780476Y-67036190D01*
X61899523Y-67036190D01*
X61947142Y-67060000D01*
X61970952Y-67083809D01*
X61994761Y-67131428D01*
X61994761Y-67179047D01*
X61970952Y-67250476D01*
X61685238Y-67536190D01*
X61994761Y-67536190D01*
X62470952Y-67536190D02*
X62185238Y-67536190D01*
X62328095Y-67536190D02*
X62328095Y-67036190D01*
X62280476Y-67107619D01*
X62232857Y-67155238D01*
X62185238Y-67179047D01*
D11*
X40077380Y-22755714D02*
X40077380Y-23327142D01*
X40077380Y-23041428D02*
X39077380Y-23041428D01*
X39220238Y-23136666D01*
X39315476Y-23231904D01*
X39363095Y-23327142D01*
X40077380Y-22327142D02*
X39077380Y-22327142D01*
X39791666Y-21993809D01*
X39077380Y-21660476D01*
X40077380Y-21660476D01*
D12*
X41501190Y-22791428D02*
X41263095Y-22958095D01*
X41501190Y-23077142D02*
X41001190Y-23077142D01*
X41001190Y-22886666D01*
X41025000Y-22839047D01*
X41048809Y-22815238D01*
X41096428Y-22791428D01*
X41167857Y-22791428D01*
X41215476Y-22815238D01*
X41239285Y-22839047D01*
X41263095Y-22886666D01*
X41263095Y-23077142D01*
X41048809Y-22600952D02*
X41025000Y-22577142D01*
X41001190Y-22529523D01*
X41001190Y-22410476D01*
X41025000Y-22362857D01*
X41048809Y-22339047D01*
X41096428Y-22315238D01*
X41144047Y-22315238D01*
X41215476Y-22339047D01*
X41501190Y-22624761D01*
X41501190Y-22315238D01*
X41001190Y-22005714D02*
X41001190Y-21958095D01*
X41025000Y-21910476D01*
X41048809Y-21886666D01*
X41096428Y-21862857D01*
X41191666Y-21839047D01*
X41310714Y-21839047D01*
X41405952Y-21862857D01*
X41453571Y-21886666D01*
X41477380Y-21910476D01*
X41501190Y-21958095D01*
X41501190Y-22005714D01*
X41477380Y-22053333D01*
X41453571Y-22077142D01*
X41405952Y-22100952D01*
X41310714Y-22124761D01*
X41191666Y-22124761D01*
X41096428Y-22100952D01*
X41048809Y-22077142D01*
X41025000Y-22053333D01*
X41001190Y-22005714D01*
D11*
X112679761Y-47062380D02*
X112108333Y-47062380D01*
X112394047Y-47062380D02*
X112394047Y-46062380D01*
X112298809Y-46205238D01*
X112203571Y-46300476D01*
X112108333Y-46348095D01*
X113298809Y-46062380D02*
X113394047Y-46062380D01*
X113489285Y-46110000D01*
X113536904Y-46157619D01*
X113584523Y-46252857D01*
X113632142Y-46443333D01*
X113632142Y-46681428D01*
X113584523Y-46871904D01*
X113536904Y-46967142D01*
X113489285Y-47014761D01*
X113394047Y-47062380D01*
X113298809Y-47062380D01*
X113203571Y-47014761D01*
X113155952Y-46967142D01*
X113108333Y-46871904D01*
X113060714Y-46681428D01*
X113060714Y-46443333D01*
X113108333Y-46252857D01*
X113155952Y-46157619D01*
X113203571Y-46110000D01*
X113298809Y-46062380D01*
X114060714Y-47062380D02*
X114060714Y-46062380D01*
X114155952Y-46681428D02*
X114441666Y-47062380D01*
X114441666Y-46395714D02*
X114060714Y-46776666D01*
D12*
X112953571Y-48486190D02*
X112786904Y-48248095D01*
X112667857Y-48486190D02*
X112667857Y-47986190D01*
X112858333Y-47986190D01*
X112905952Y-48010000D01*
X112929761Y-48033809D01*
X112953571Y-48081428D01*
X112953571Y-48152857D01*
X112929761Y-48200476D01*
X112905952Y-48224285D01*
X112858333Y-48248095D01*
X112667857Y-48248095D01*
X113429761Y-48486190D02*
X113144047Y-48486190D01*
X113286904Y-48486190D02*
X113286904Y-47986190D01*
X113239285Y-48057619D01*
X113191666Y-48105238D01*
X113144047Y-48129047D01*
X113667857Y-48486190D02*
X113763095Y-48486190D01*
X113810714Y-48462380D01*
X113834523Y-48438571D01*
X113882142Y-48367142D01*
X113905952Y-48271904D01*
X113905952Y-48081428D01*
X113882142Y-48033809D01*
X113858333Y-48010000D01*
X113810714Y-47986190D01*
X113715476Y-47986190D01*
X113667857Y-48010000D01*
X113644047Y-48033809D01*
X113620238Y-48081428D01*
X113620238Y-48200476D01*
X113644047Y-48248095D01*
X113667857Y-48271904D01*
X113715476Y-48295714D01*
X113810714Y-48295714D01*
X113858333Y-48271904D01*
X113882142Y-48248095D01*
X113905952Y-48200476D01*
D11*
X54735952Y-69412380D02*
X54164523Y-69412380D01*
X54450238Y-69412380D02*
X54450238Y-68412380D01*
X54355000Y-68555238D01*
X54259761Y-68650476D01*
X54164523Y-68698095D01*
X55164523Y-69412380D02*
X55164523Y-68412380D01*
X55259761Y-69031428D02*
X55545476Y-69412380D01*
X55545476Y-68745714D02*
X55164523Y-69126666D01*
D12*
X54533571Y-67536190D02*
X54366904Y-67298095D01*
X54247857Y-67536190D02*
X54247857Y-67036190D01*
X54438333Y-67036190D01*
X54485952Y-67060000D01*
X54509761Y-67083809D01*
X54533571Y-67131428D01*
X54533571Y-67202857D01*
X54509761Y-67250476D01*
X54485952Y-67274285D01*
X54438333Y-67298095D01*
X54247857Y-67298095D01*
X55009761Y-67536190D02*
X54724047Y-67536190D01*
X54866904Y-67536190D02*
X54866904Y-67036190D01*
X54819285Y-67107619D01*
X54771666Y-67155238D01*
X54724047Y-67179047D01*
X55295476Y-67250476D02*
X55247857Y-67226666D01*
X55224047Y-67202857D01*
X55200238Y-67155238D01*
X55200238Y-67131428D01*
X55224047Y-67083809D01*
X55247857Y-67060000D01*
X55295476Y-67036190D01*
X55390714Y-67036190D01*
X55438333Y-67060000D01*
X55462142Y-67083809D01*
X55485952Y-67131428D01*
X55485952Y-67155238D01*
X55462142Y-67202857D01*
X55438333Y-67226666D01*
X55390714Y-67250476D01*
X55295476Y-67250476D01*
X55247857Y-67274285D01*
X55224047Y-67298095D01*
X55200238Y-67345714D01*
X55200238Y-67440952D01*
X55224047Y-67488571D01*
X55247857Y-67512380D01*
X55295476Y-67536190D01*
X55390714Y-67536190D01*
X55438333Y-67512380D01*
X55462142Y-67488571D01*
X55485952Y-67440952D01*
X55485952Y-67345714D01*
X55462142Y-67298095D01*
X55438333Y-67274285D01*
X55390714Y-67250476D01*
D11*
X106964761Y-46552380D02*
X106393333Y-46552380D01*
X106679047Y-46552380D02*
X106679047Y-45552380D01*
X106583809Y-45695238D01*
X106488571Y-45790476D01*
X106393333Y-45838095D01*
X107583809Y-45552380D02*
X107679047Y-45552380D01*
X107774285Y-45600000D01*
X107821904Y-45647619D01*
X107869523Y-45742857D01*
X107917142Y-45933333D01*
X107917142Y-46171428D01*
X107869523Y-46361904D01*
X107821904Y-46457142D01*
X107774285Y-46504761D01*
X107679047Y-46552380D01*
X107583809Y-46552380D01*
X107488571Y-46504761D01*
X107440952Y-46457142D01*
X107393333Y-46361904D01*
X107345714Y-46171428D01*
X107345714Y-45933333D01*
X107393333Y-45742857D01*
X107440952Y-45647619D01*
X107488571Y-45600000D01*
X107583809Y-45552380D01*
X108345714Y-46552380D02*
X108345714Y-45552380D01*
X108440952Y-46171428D02*
X108726666Y-46552380D01*
X108726666Y-45885714D02*
X108345714Y-46266666D01*
D12*
X107238571Y-44676190D02*
X107071904Y-44438095D01*
X106952857Y-44676190D02*
X106952857Y-44176190D01*
X107143333Y-44176190D01*
X107190952Y-44200000D01*
X107214761Y-44223809D01*
X107238571Y-44271428D01*
X107238571Y-44342857D01*
X107214761Y-44390476D01*
X107190952Y-44414285D01*
X107143333Y-44438095D01*
X106952857Y-44438095D01*
X107714761Y-44676190D02*
X107429047Y-44676190D01*
X107571904Y-44676190D02*
X107571904Y-44176190D01*
X107524285Y-44247619D01*
X107476666Y-44295238D01*
X107429047Y-44319047D01*
X107881428Y-44176190D02*
X108214761Y-44176190D01*
X108000476Y-44676190D01*
D11*
X26867380Y-44655238D02*
X26867380Y-45226666D01*
X26867380Y-44940952D02*
X25867380Y-44940952D01*
X26010238Y-45036190D01*
X26105476Y-45131428D01*
X26153095Y-45226666D01*
X25867380Y-44036190D02*
X25867380Y-43940952D01*
X25915000Y-43845714D01*
X25962619Y-43798095D01*
X26057857Y-43750476D01*
X26248333Y-43702857D01*
X26486428Y-43702857D01*
X26676904Y-43750476D01*
X26772142Y-43798095D01*
X26819761Y-43845714D01*
X26867380Y-43940952D01*
X26867380Y-44036190D01*
X26819761Y-44131428D01*
X26772142Y-44179047D01*
X26676904Y-44226666D01*
X26486428Y-44274285D01*
X26248333Y-44274285D01*
X26057857Y-44226666D01*
X25962619Y-44179047D01*
X25915000Y-44131428D01*
X25867380Y-44036190D01*
X26867380Y-43274285D02*
X25867380Y-43274285D01*
X26486428Y-43179047D02*
X26867380Y-42893333D01*
X26200714Y-42893333D02*
X26581666Y-43274285D01*
D12*
X24991190Y-44381428D02*
X24753095Y-44548095D01*
X24991190Y-44667142D02*
X24491190Y-44667142D01*
X24491190Y-44476666D01*
X24515000Y-44429047D01*
X24538809Y-44405238D01*
X24586428Y-44381428D01*
X24657857Y-44381428D01*
X24705476Y-44405238D01*
X24729285Y-44429047D01*
X24753095Y-44476666D01*
X24753095Y-44667142D01*
X24991190Y-43905238D02*
X24991190Y-44190952D01*
X24991190Y-44048095D02*
X24491190Y-44048095D01*
X24562619Y-44095714D01*
X24610238Y-44143333D01*
X24634047Y-44190952D01*
X24491190Y-43476666D02*
X24491190Y-43571904D01*
X24515000Y-43619523D01*
X24538809Y-43643333D01*
X24610238Y-43690952D01*
X24705476Y-43714761D01*
X24895952Y-43714761D01*
X24943571Y-43690952D01*
X24967380Y-43667142D01*
X24991190Y-43619523D01*
X24991190Y-43524285D01*
X24967380Y-43476666D01*
X24943571Y-43452857D01*
X24895952Y-43429047D01*
X24776904Y-43429047D01*
X24729285Y-43452857D01*
X24705476Y-43476666D01*
X24681666Y-43524285D01*
X24681666Y-43619523D01*
X24705476Y-43667142D01*
X24729285Y-43690952D01*
X24776904Y-43714761D01*
D11*
X106964761Y-42742380D02*
X106393333Y-42742380D01*
X106679047Y-42742380D02*
X106679047Y-41742380D01*
X106583809Y-41885238D01*
X106488571Y-41980476D01*
X106393333Y-42028095D01*
X107583809Y-41742380D02*
X107679047Y-41742380D01*
X107774285Y-41790000D01*
X107821904Y-41837619D01*
X107869523Y-41932857D01*
X107917142Y-42123333D01*
X107917142Y-42361428D01*
X107869523Y-42551904D01*
X107821904Y-42647142D01*
X107774285Y-42694761D01*
X107679047Y-42742380D01*
X107583809Y-42742380D01*
X107488571Y-42694761D01*
X107440952Y-42647142D01*
X107393333Y-42551904D01*
X107345714Y-42361428D01*
X107345714Y-42123333D01*
X107393333Y-41932857D01*
X107440952Y-41837619D01*
X107488571Y-41790000D01*
X107583809Y-41742380D01*
X108345714Y-42742380D02*
X108345714Y-41742380D01*
X108440952Y-42361428D02*
X108726666Y-42742380D01*
X108726666Y-42075714D02*
X108345714Y-42456666D01*
D12*
X107238571Y-40866190D02*
X107071904Y-40628095D01*
X106952857Y-40866190D02*
X106952857Y-40366190D01*
X107143333Y-40366190D01*
X107190952Y-40390000D01*
X107214761Y-40413809D01*
X107238571Y-40461428D01*
X107238571Y-40532857D01*
X107214761Y-40580476D01*
X107190952Y-40604285D01*
X107143333Y-40628095D01*
X106952857Y-40628095D01*
X107714761Y-40866190D02*
X107429047Y-40866190D01*
X107571904Y-40866190D02*
X107571904Y-40366190D01*
X107524285Y-40437619D01*
X107476666Y-40485238D01*
X107429047Y-40509047D01*
X108167142Y-40366190D02*
X107929047Y-40366190D01*
X107905238Y-40604285D01*
X107929047Y-40580476D01*
X107976666Y-40556666D01*
X108095714Y-40556666D01*
X108143333Y-40580476D01*
X108167142Y-40604285D01*
X108190952Y-40651904D01*
X108190952Y-40770952D01*
X108167142Y-40818571D01*
X108143333Y-40842380D01*
X108095714Y-40866190D01*
X107976666Y-40866190D01*
X107929047Y-40842380D01*
X107905238Y-40818571D01*
D11*
X40434761Y-21152380D02*
X39863333Y-21152380D01*
X40149047Y-21152380D02*
X40149047Y-20152380D01*
X40053809Y-20295238D01*
X39958571Y-20390476D01*
X39863333Y-20438095D01*
X41053809Y-20152380D02*
X41149047Y-20152380D01*
X41244285Y-20200000D01*
X41291904Y-20247619D01*
X41339523Y-20342857D01*
X41387142Y-20533333D01*
X41387142Y-20771428D01*
X41339523Y-20961904D01*
X41291904Y-21057142D01*
X41244285Y-21104761D01*
X41149047Y-21152380D01*
X41053809Y-21152380D01*
X40958571Y-21104761D01*
X40910952Y-21057142D01*
X40863333Y-20961904D01*
X40815714Y-20771428D01*
X40815714Y-20533333D01*
X40863333Y-20342857D01*
X40910952Y-20247619D01*
X40958571Y-20200000D01*
X41053809Y-20152380D01*
X41815714Y-21152380D02*
X41815714Y-20152380D01*
X41910952Y-20771428D02*
X42196666Y-21152380D01*
X42196666Y-20485714D02*
X41815714Y-20866666D01*
D12*
X40708571Y-19276190D02*
X40541904Y-19038095D01*
X40422857Y-19276190D02*
X40422857Y-18776190D01*
X40613333Y-18776190D01*
X40660952Y-18800000D01*
X40684761Y-18823809D01*
X40708571Y-18871428D01*
X40708571Y-18942857D01*
X40684761Y-18990476D01*
X40660952Y-19014285D01*
X40613333Y-19038095D01*
X40422857Y-19038095D01*
X41184761Y-19276190D02*
X40899047Y-19276190D01*
X41041904Y-19276190D02*
X41041904Y-18776190D01*
X40994285Y-18847619D01*
X40946666Y-18895238D01*
X40899047Y-18919047D01*
X41351428Y-18776190D02*
X41660952Y-18776190D01*
X41494285Y-18966666D01*
X41565714Y-18966666D01*
X41613333Y-18990476D01*
X41637142Y-19014285D01*
X41660952Y-19061904D01*
X41660952Y-19180952D01*
X41637142Y-19228571D01*
X41613333Y-19252380D01*
X41565714Y-19276190D01*
X41422857Y-19276190D01*
X41375238Y-19252380D01*
X41351428Y-19228571D01*
D11*
X45578333Y-67747619D02*
X45625952Y-67700000D01*
X45721190Y-67652380D01*
X45959285Y-67652380D01*
X46054523Y-67700000D01*
X46102142Y-67747619D01*
X46149761Y-67842857D01*
X46149761Y-67938095D01*
X46102142Y-68080952D01*
X45530714Y-68652380D01*
X46149761Y-68652380D01*
X46578333Y-68652380D02*
X46578333Y-67652380D01*
X46673571Y-68271428D02*
X46959285Y-68652380D01*
X46959285Y-67985714D02*
X46578333Y-68366666D01*
X47340238Y-67747619D02*
X47387857Y-67700000D01*
X47483095Y-67652380D01*
X47721190Y-67652380D01*
X47816428Y-67700000D01*
X47864047Y-67747619D01*
X47911666Y-67842857D01*
X47911666Y-67938095D01*
X47864047Y-68080952D01*
X47292619Y-68652380D01*
X47911666Y-68652380D01*
D12*
X46423571Y-70076190D02*
X46256904Y-69838095D01*
X46137857Y-70076190D02*
X46137857Y-69576190D01*
X46328333Y-69576190D01*
X46375952Y-69600000D01*
X46399761Y-69623809D01*
X46423571Y-69671428D01*
X46423571Y-69742857D01*
X46399761Y-69790476D01*
X46375952Y-69814285D01*
X46328333Y-69838095D01*
X46137857Y-69838095D01*
X46899761Y-70076190D02*
X46614047Y-70076190D01*
X46756904Y-70076190D02*
X46756904Y-69576190D01*
X46709285Y-69647619D01*
X46661666Y-69695238D01*
X46614047Y-69719047D01*
X47090238Y-69623809D02*
X47114047Y-69600000D01*
X47161666Y-69576190D01*
X47280714Y-69576190D01*
X47328333Y-69600000D01*
X47352142Y-69623809D01*
X47375952Y-69671428D01*
X47375952Y-69719047D01*
X47352142Y-69790476D01*
X47066428Y-70076190D01*
X47375952Y-70076190D01*
D11*
X21517619Y-23636666D02*
X21470000Y-23589047D01*
X21422380Y-23493809D01*
X21422380Y-23255714D01*
X21470000Y-23160476D01*
X21517619Y-23112857D01*
X21612857Y-23065238D01*
X21708095Y-23065238D01*
X21850952Y-23112857D01*
X22422380Y-23684285D01*
X22422380Y-23065238D01*
X22422380Y-22636666D02*
X21422380Y-22636666D01*
X22041428Y-22541428D02*
X22422380Y-22255714D01*
X21755714Y-22255714D02*
X22136666Y-22636666D01*
X21517619Y-21874761D02*
X21470000Y-21827142D01*
X21422380Y-21731904D01*
X21422380Y-21493809D01*
X21470000Y-21398571D01*
X21517619Y-21350952D01*
X21612857Y-21303333D01*
X21708095Y-21303333D01*
X21850952Y-21350952D01*
X22422380Y-21922380D01*
X22422380Y-21303333D01*
D12*
X20546190Y-22791428D02*
X20308095Y-22958095D01*
X20546190Y-23077142D02*
X20046190Y-23077142D01*
X20046190Y-22886666D01*
X20070000Y-22839047D01*
X20093809Y-22815238D01*
X20141428Y-22791428D01*
X20212857Y-22791428D01*
X20260476Y-22815238D01*
X20284285Y-22839047D01*
X20308095Y-22886666D01*
X20308095Y-23077142D01*
X20546190Y-22315238D02*
X20546190Y-22600952D01*
X20546190Y-22458095D02*
X20046190Y-22458095D01*
X20117619Y-22505714D01*
X20165238Y-22553333D01*
X20189047Y-22600952D01*
X20546190Y-21839047D02*
X20546190Y-22124761D01*
X20546190Y-21981904D02*
X20046190Y-21981904D01*
X20117619Y-22029523D01*
X20165238Y-22077142D01*
X20189047Y-22124761D01*
D11*
X19122380Y-39085238D02*
X19122380Y-39656666D01*
X19122380Y-39370952D02*
X18122380Y-39370952D01*
X18265238Y-39466190D01*
X18360476Y-39561428D01*
X18408095Y-39656666D01*
X18122380Y-38466190D02*
X18122380Y-38370952D01*
X18170000Y-38275714D01*
X18217619Y-38228095D01*
X18312857Y-38180476D01*
X18503333Y-38132857D01*
X18741428Y-38132857D01*
X18931904Y-38180476D01*
X19027142Y-38228095D01*
X19074761Y-38275714D01*
X19122380Y-38370952D01*
X19122380Y-38466190D01*
X19074761Y-38561428D01*
X19027142Y-38609047D01*
X18931904Y-38656666D01*
X18741428Y-38704285D01*
X18503333Y-38704285D01*
X18312857Y-38656666D01*
X18217619Y-38609047D01*
X18170000Y-38561428D01*
X18122380Y-38466190D01*
X19122380Y-37704285D02*
X18122380Y-37704285D01*
X18741428Y-37609047D02*
X19122380Y-37323333D01*
X18455714Y-37323333D02*
X18836666Y-37704285D01*
D12*
X20546190Y-38811428D02*
X20308095Y-38978095D01*
X20546190Y-39097142D02*
X20046190Y-39097142D01*
X20046190Y-38906666D01*
X20070000Y-38859047D01*
X20093809Y-38835238D01*
X20141428Y-38811428D01*
X20212857Y-38811428D01*
X20260476Y-38835238D01*
X20284285Y-38859047D01*
X20308095Y-38906666D01*
X20308095Y-39097142D01*
X20546190Y-38335238D02*
X20546190Y-38620952D01*
X20546190Y-38478095D02*
X20046190Y-38478095D01*
X20117619Y-38525714D01*
X20165238Y-38573333D01*
X20189047Y-38620952D01*
X20046190Y-38025714D02*
X20046190Y-37978095D01*
X20070000Y-37930476D01*
X20093809Y-37906666D01*
X20141428Y-37882857D01*
X20236666Y-37859047D01*
X20355714Y-37859047D01*
X20450952Y-37882857D01*
X20498571Y-37906666D01*
X20522380Y-37930476D01*
X20546190Y-37978095D01*
X20546190Y-38025714D01*
X20522380Y-38073333D01*
X20498571Y-38097142D01*
X20450952Y-38120952D01*
X20355714Y-38144761D01*
X20236666Y-38144761D01*
X20141428Y-38120952D01*
X20093809Y-38097142D01*
X20070000Y-38073333D01*
X20046190Y-38025714D01*
D11*
X31790714Y-39180476D02*
X32457380Y-39180476D01*
X31409761Y-39418571D02*
X32124047Y-39656666D01*
X32124047Y-39037619D01*
X32457380Y-38656666D02*
X31457380Y-38656666D01*
X32076428Y-38561428D02*
X32457380Y-38275714D01*
X31790714Y-38275714D02*
X32171666Y-38656666D01*
X31457380Y-37942380D02*
X31457380Y-37275714D01*
X32457380Y-37704285D01*
D12*
X33881190Y-38573333D02*
X33643095Y-38740000D01*
X33881190Y-38859047D02*
X33381190Y-38859047D01*
X33381190Y-38668571D01*
X33405000Y-38620952D01*
X33428809Y-38597142D01*
X33476428Y-38573333D01*
X33547857Y-38573333D01*
X33595476Y-38597142D01*
X33619285Y-38620952D01*
X33643095Y-38668571D01*
X33643095Y-38859047D01*
X33595476Y-38287619D02*
X33571666Y-38335238D01*
X33547857Y-38359047D01*
X33500238Y-38382857D01*
X33476428Y-38382857D01*
X33428809Y-38359047D01*
X33405000Y-38335238D01*
X33381190Y-38287619D01*
X33381190Y-38192380D01*
X33405000Y-38144761D01*
X33428809Y-38120952D01*
X33476428Y-38097142D01*
X33500238Y-38097142D01*
X33547857Y-38120952D01*
X33571666Y-38144761D01*
X33595476Y-38192380D01*
X33595476Y-38287619D01*
X33619285Y-38335238D01*
X33643095Y-38359047D01*
X33690714Y-38382857D01*
X33785952Y-38382857D01*
X33833571Y-38359047D01*
X33857380Y-38335238D01*
X33881190Y-38287619D01*
X33881190Y-38192380D01*
X33857380Y-38144761D01*
X33833571Y-38120952D01*
X33785952Y-38097142D01*
X33690714Y-38097142D01*
X33643095Y-38120952D01*
X33619285Y-38144761D01*
X33595476Y-38192380D01*
D11*
X18455714Y-44750476D02*
X19122380Y-44750476D01*
X18074761Y-44988571D02*
X18789047Y-45226666D01*
X18789047Y-44607619D01*
X19122380Y-44226666D02*
X18122380Y-44226666D01*
X18741428Y-44131428D02*
X19122380Y-43845714D01*
X18455714Y-43845714D02*
X18836666Y-44226666D01*
X18122380Y-43512380D02*
X18122380Y-42845714D01*
X19122380Y-43274285D01*
D12*
X20546190Y-44143333D02*
X20308095Y-44310000D01*
X20546190Y-44429047D02*
X20046190Y-44429047D01*
X20046190Y-44238571D01*
X20070000Y-44190952D01*
X20093809Y-44167142D01*
X20141428Y-44143333D01*
X20212857Y-44143333D01*
X20260476Y-44167142D01*
X20284285Y-44190952D01*
X20308095Y-44238571D01*
X20308095Y-44429047D01*
X20046190Y-43976666D02*
X20046190Y-43643333D01*
X20546190Y-43857619D01*
D11*
X28012380Y-46274285D02*
X27012380Y-46274285D01*
X28012380Y-45702857D01*
X27012380Y-45702857D01*
X28012380Y-45226666D02*
X27012380Y-45226666D01*
X27726666Y-44893333D01*
X27012380Y-44560000D01*
X28012380Y-44560000D01*
X27345714Y-43655238D02*
X28012380Y-43655238D01*
X26964761Y-43893333D02*
X27679047Y-44131428D01*
X27679047Y-43512380D01*
X28012380Y-43131428D02*
X27012380Y-43131428D01*
X27631428Y-43036190D02*
X28012380Y-42750476D01*
X27345714Y-42750476D02*
X27726666Y-43131428D01*
X27012380Y-42417142D02*
X27012380Y-41750476D01*
X28012380Y-42179047D01*
D12*
X29436190Y-44143333D02*
X29198095Y-44310000D01*
X29436190Y-44429047D02*
X28936190Y-44429047D01*
X28936190Y-44238571D01*
X28960000Y-44190952D01*
X28983809Y-44167142D01*
X29031428Y-44143333D01*
X29102857Y-44143333D01*
X29150476Y-44167142D01*
X29174285Y-44190952D01*
X29198095Y-44238571D01*
X29198095Y-44429047D01*
X28936190Y-43714761D02*
X28936190Y-43810000D01*
X28960000Y-43857619D01*
X28983809Y-43881428D01*
X29055238Y-43929047D01*
X29150476Y-43952857D01*
X29340952Y-43952857D01*
X29388571Y-43929047D01*
X29412380Y-43905238D01*
X29436190Y-43857619D01*
X29436190Y-43762380D01*
X29412380Y-43714761D01*
X29388571Y-43690952D01*
X29340952Y-43667142D01*
X29221904Y-43667142D01*
X29174285Y-43690952D01*
X29150476Y-43714761D01*
X29126666Y-43762380D01*
X29126666Y-43857619D01*
X29150476Y-43905238D01*
X29174285Y-43929047D01*
X29221904Y-43952857D01*
D11*
X22773714Y-39180476D02*
X23440380Y-39180476D01*
X22392761Y-39418571D02*
X23107047Y-39656666D01*
X23107047Y-39037619D01*
X23440380Y-38656666D02*
X22440380Y-38656666D01*
X23059428Y-38561428D02*
X23440380Y-38275714D01*
X22773714Y-38275714D02*
X23154666Y-38656666D01*
X22440380Y-37942380D02*
X22440380Y-37275714D01*
X23440380Y-37704285D01*
D12*
X24864190Y-38573333D02*
X24626095Y-38740000D01*
X24864190Y-38859047D02*
X24364190Y-38859047D01*
X24364190Y-38668571D01*
X24388000Y-38620952D01*
X24411809Y-38597142D01*
X24459428Y-38573333D01*
X24530857Y-38573333D01*
X24578476Y-38597142D01*
X24602285Y-38620952D01*
X24626095Y-38668571D01*
X24626095Y-38859047D01*
X24364190Y-38120952D02*
X24364190Y-38359047D01*
X24602285Y-38382857D01*
X24578476Y-38359047D01*
X24554666Y-38311428D01*
X24554666Y-38192380D01*
X24578476Y-38144761D01*
X24602285Y-38120952D01*
X24649904Y-38097142D01*
X24768952Y-38097142D01*
X24816571Y-38120952D01*
X24840380Y-38144761D01*
X24864190Y-38192380D01*
X24864190Y-38311428D01*
X24840380Y-38359047D01*
X24816571Y-38382857D01*
D11*
X36235714Y-44750476D02*
X36902380Y-44750476D01*
X35854761Y-44988571D02*
X36569047Y-45226666D01*
X36569047Y-44607619D01*
X36902380Y-44226666D02*
X35902380Y-44226666D01*
X36521428Y-44131428D02*
X36902380Y-43845714D01*
X36235714Y-43845714D02*
X36616666Y-44226666D01*
X35902380Y-43512380D02*
X35902380Y-42845714D01*
X36902380Y-43274285D01*
D12*
X38326190Y-44143333D02*
X38088095Y-44310000D01*
X38326190Y-44429047D02*
X37826190Y-44429047D01*
X37826190Y-44238571D01*
X37850000Y-44190952D01*
X37873809Y-44167142D01*
X37921428Y-44143333D01*
X37992857Y-44143333D01*
X38040476Y-44167142D01*
X38064285Y-44190952D01*
X38088095Y-44238571D01*
X38088095Y-44429047D01*
X37992857Y-43714761D02*
X38326190Y-43714761D01*
X37802380Y-43833809D02*
X38159523Y-43952857D01*
X38159523Y-43643333D01*
D11*
X32457380Y-46274285D02*
X31457380Y-46274285D01*
X32457380Y-45702857D01*
X31457380Y-45702857D01*
X32457380Y-45226666D02*
X31457380Y-45226666D01*
X32171666Y-44893333D01*
X31457380Y-44560000D01*
X32457380Y-44560000D01*
X31790714Y-43655238D02*
X32457380Y-43655238D01*
X31409761Y-43893333D02*
X32124047Y-44131428D01*
X32124047Y-43512380D01*
X32457380Y-43131428D02*
X31457380Y-43131428D01*
X32076428Y-43036190D02*
X32457380Y-42750476D01*
X31790714Y-42750476D02*
X32171666Y-43131428D01*
X31457380Y-42417142D02*
X31457380Y-41750476D01*
X32457380Y-42179047D01*
D12*
X33881190Y-44143333D02*
X33643095Y-44310000D01*
X33881190Y-44429047D02*
X33381190Y-44429047D01*
X33381190Y-44238571D01*
X33405000Y-44190952D01*
X33428809Y-44167142D01*
X33476428Y-44143333D01*
X33547857Y-44143333D01*
X33595476Y-44167142D01*
X33619285Y-44190952D01*
X33643095Y-44238571D01*
X33643095Y-44429047D01*
X33381190Y-43976666D02*
X33381190Y-43667142D01*
X33571666Y-43833809D01*
X33571666Y-43762380D01*
X33595476Y-43714761D01*
X33619285Y-43690952D01*
X33666904Y-43667142D01*
X33785952Y-43667142D01*
X33833571Y-43690952D01*
X33857380Y-43714761D01*
X33881190Y-43762380D01*
X33881190Y-43905238D01*
X33857380Y-43952857D01*
X33833571Y-43976666D01*
D11*
X36235714Y-39180476D02*
X36902380Y-39180476D01*
X35854761Y-39418571D02*
X36569047Y-39656666D01*
X36569047Y-39037619D01*
X36902380Y-38656666D02*
X35902380Y-38656666D01*
X36521428Y-38561428D02*
X36902380Y-38275714D01*
X36235714Y-38275714D02*
X36616666Y-38656666D01*
X35902380Y-37942380D02*
X35902380Y-37275714D01*
X36902380Y-37704285D01*
D12*
X38326190Y-38573333D02*
X38088095Y-38740000D01*
X38326190Y-38859047D02*
X37826190Y-38859047D01*
X37826190Y-38668571D01*
X37850000Y-38620952D01*
X37873809Y-38597142D01*
X37921428Y-38573333D01*
X37992857Y-38573333D01*
X38040476Y-38597142D01*
X38064285Y-38620952D01*
X38088095Y-38668571D01*
X38088095Y-38859047D01*
X37873809Y-38382857D02*
X37850000Y-38359047D01*
X37826190Y-38311428D01*
X37826190Y-38192380D01*
X37850000Y-38144761D01*
X37873809Y-38120952D01*
X37921428Y-38097142D01*
X37969047Y-38097142D01*
X38040476Y-38120952D01*
X38326190Y-38406666D01*
X38326190Y-38097142D01*
D11*
X39799761Y-71952380D02*
X39228333Y-71952380D01*
X39514047Y-71952380D02*
X39514047Y-70952380D01*
X39418809Y-71095238D01*
X39323571Y-71190476D01*
X39228333Y-71238095D01*
X40418809Y-70952380D02*
X40514047Y-70952380D01*
X40609285Y-71000000D01*
X40656904Y-71047619D01*
X40704523Y-71142857D01*
X40752142Y-71333333D01*
X40752142Y-71571428D01*
X40704523Y-71761904D01*
X40656904Y-71857142D01*
X40609285Y-71904761D01*
X40514047Y-71952380D01*
X40418809Y-71952380D01*
X40323571Y-71904761D01*
X40275952Y-71857142D01*
X40228333Y-71761904D01*
X40180714Y-71571428D01*
X40180714Y-71333333D01*
X40228333Y-71142857D01*
X40275952Y-71047619D01*
X40323571Y-71000000D01*
X40418809Y-70952380D01*
X41180714Y-71952380D02*
X41180714Y-70952380D01*
X41275952Y-71571428D02*
X41561666Y-71952380D01*
X41561666Y-71285714D02*
X41180714Y-71666666D01*
D12*
X40311666Y-70076190D02*
X40145000Y-69838095D01*
X40025952Y-70076190D02*
X40025952Y-69576190D01*
X40216428Y-69576190D01*
X40264047Y-69600000D01*
X40287857Y-69623809D01*
X40311666Y-69671428D01*
X40311666Y-69742857D01*
X40287857Y-69790476D01*
X40264047Y-69814285D01*
X40216428Y-69838095D01*
X40025952Y-69838095D01*
X40787857Y-70076190D02*
X40502142Y-70076190D01*
X40645000Y-70076190D02*
X40645000Y-69576190D01*
X40597380Y-69647619D01*
X40549761Y-69695238D01*
X40502142Y-69719047D01*
D11*
X40101428Y-13566190D02*
X40101428Y-14042380D01*
X39768095Y-13042380D02*
X40101428Y-13566190D01*
X40434761Y-13042380D01*
X41244285Y-14042380D02*
X40768095Y-14042380D01*
X40768095Y-13042380D01*
X41768095Y-13042380D02*
X41958571Y-13042380D01*
X42053809Y-13090000D01*
X42149047Y-13185238D01*
X42196666Y-13375714D01*
X42196666Y-13709047D01*
X42149047Y-13899523D01*
X42053809Y-13994761D01*
X41958571Y-14042380D01*
X41768095Y-14042380D01*
X41672857Y-13994761D01*
X41577619Y-13899523D01*
X41530000Y-13709047D01*
X41530000Y-13375714D01*
X41577619Y-13185238D01*
X41672857Y-13090000D01*
X41768095Y-13042380D01*
D12*
X40660952Y-15466190D02*
X40660952Y-14966190D01*
X40780000Y-14966190D01*
X40851428Y-14990000D01*
X40899047Y-15037619D01*
X40922857Y-15085238D01*
X40946666Y-15180476D01*
X40946666Y-15251904D01*
X40922857Y-15347142D01*
X40899047Y-15394761D01*
X40851428Y-15442380D01*
X40780000Y-15466190D01*
X40660952Y-15466190D01*
X41375238Y-14966190D02*
X41280000Y-14966190D01*
X41232380Y-14990000D01*
X41208571Y-15013809D01*
X41160952Y-15085238D01*
X41137142Y-15180476D01*
X41137142Y-15370952D01*
X41160952Y-15418571D01*
X41184761Y-15442380D01*
X41232380Y-15466190D01*
X41327619Y-15466190D01*
X41375238Y-15442380D01*
X41399047Y-15418571D01*
X41422857Y-15370952D01*
X41422857Y-15251904D01*
X41399047Y-15204285D01*
X41375238Y-15180476D01*
X41327619Y-15156666D01*
X41232380Y-15156666D01*
X41184761Y-15180476D01*
X41160952Y-15204285D01*
X41137142Y-15251904D01*
D11*
X46102142Y-14042380D02*
X45768809Y-13566190D01*
X45530714Y-14042380D02*
X45530714Y-13042380D01*
X45911666Y-13042380D01*
X46006904Y-13090000D01*
X46054523Y-13137619D01*
X46102142Y-13232857D01*
X46102142Y-13375714D01*
X46054523Y-13470952D01*
X46006904Y-13518571D01*
X45911666Y-13566190D01*
X45530714Y-13566190D01*
X46530714Y-13518571D02*
X46864047Y-13518571D01*
X47006904Y-14042380D02*
X46530714Y-14042380D01*
X46530714Y-13042380D01*
X47006904Y-13042380D01*
X47435476Y-14042380D02*
X47435476Y-13042380D01*
X47673571Y-13042380D01*
X47816428Y-13090000D01*
X47911666Y-13185238D01*
X47959285Y-13280476D01*
X48006904Y-13470952D01*
X48006904Y-13613809D01*
X47959285Y-13804285D01*
X47911666Y-13899523D01*
X47816428Y-13994761D01*
X47673571Y-14042380D01*
X47435476Y-14042380D01*
D12*
X46375952Y-15466190D02*
X46375952Y-14966190D01*
X46495000Y-14966190D01*
X46566428Y-14990000D01*
X46614047Y-15037619D01*
X46637857Y-15085238D01*
X46661666Y-15180476D01*
X46661666Y-15251904D01*
X46637857Y-15347142D01*
X46614047Y-15394761D01*
X46566428Y-15442380D01*
X46495000Y-15466190D01*
X46375952Y-15466190D01*
X47114047Y-14966190D02*
X46875952Y-14966190D01*
X46852142Y-15204285D01*
X46875952Y-15180476D01*
X46923571Y-15156666D01*
X47042619Y-15156666D01*
X47090238Y-15180476D01*
X47114047Y-15204285D01*
X47137857Y-15251904D01*
X47137857Y-15370952D01*
X47114047Y-15418571D01*
X47090238Y-15442380D01*
X47042619Y-15466190D01*
X46923571Y-15466190D01*
X46875952Y-15442380D01*
X46852142Y-15418571D01*
D11*
X46102142Y-75762380D02*
X45768809Y-75286190D01*
X45530714Y-75762380D02*
X45530714Y-74762380D01*
X45911666Y-74762380D01*
X46006904Y-74810000D01*
X46054523Y-74857619D01*
X46102142Y-74952857D01*
X46102142Y-75095714D01*
X46054523Y-75190952D01*
X46006904Y-75238571D01*
X45911666Y-75286190D01*
X45530714Y-75286190D01*
X46530714Y-75238571D02*
X46864047Y-75238571D01*
X47006904Y-75762380D02*
X46530714Y-75762380D01*
X46530714Y-74762380D01*
X47006904Y-74762380D01*
X47435476Y-75762380D02*
X47435476Y-74762380D01*
X47673571Y-74762380D01*
X47816428Y-74810000D01*
X47911666Y-74905238D01*
X47959285Y-75000476D01*
X48006904Y-75190952D01*
X48006904Y-75333809D01*
X47959285Y-75524285D01*
X47911666Y-75619523D01*
X47816428Y-75714761D01*
X47673571Y-75762380D01*
X47435476Y-75762380D01*
D12*
X46375952Y-73886190D02*
X46375952Y-73386190D01*
X46495000Y-73386190D01*
X46566428Y-73410000D01*
X46614047Y-73457619D01*
X46637857Y-73505238D01*
X46661666Y-73600476D01*
X46661666Y-73671904D01*
X46637857Y-73767142D01*
X46614047Y-73814761D01*
X46566428Y-73862380D01*
X46495000Y-73886190D01*
X46375952Y-73886190D01*
X47090238Y-73552857D02*
X47090238Y-73886190D01*
X46971190Y-73362380D02*
X46852142Y-73719523D01*
X47161666Y-73719523D01*
D11*
X39466428Y-71986190D02*
X39466428Y-72462380D01*
X39133095Y-71462380D02*
X39466428Y-71986190D01*
X39799761Y-71462380D01*
X40609285Y-72462380D02*
X40133095Y-72462380D01*
X40133095Y-71462380D01*
X41133095Y-71462380D02*
X41323571Y-71462380D01*
X41418809Y-71510000D01*
X41514047Y-71605238D01*
X41561666Y-71795714D01*
X41561666Y-72129047D01*
X41514047Y-72319523D01*
X41418809Y-72414761D01*
X41323571Y-72462380D01*
X41133095Y-72462380D01*
X41037857Y-72414761D01*
X40942619Y-72319523D01*
X40895000Y-72129047D01*
X40895000Y-71795714D01*
X40942619Y-71605238D01*
X41037857Y-71510000D01*
X41133095Y-71462380D01*
D12*
X40025952Y-73886190D02*
X40025952Y-73386190D01*
X40145000Y-73386190D01*
X40216428Y-73410000D01*
X40264047Y-73457619D01*
X40287857Y-73505238D01*
X40311666Y-73600476D01*
X40311666Y-73671904D01*
X40287857Y-73767142D01*
X40264047Y-73814761D01*
X40216428Y-73862380D01*
X40145000Y-73886190D01*
X40025952Y-73886190D01*
X40478333Y-73386190D02*
X40787857Y-73386190D01*
X40621190Y-73576666D01*
X40692619Y-73576666D01*
X40740238Y-73600476D01*
X40764047Y-73624285D01*
X40787857Y-73671904D01*
X40787857Y-73790952D01*
X40764047Y-73838571D01*
X40740238Y-73862380D01*
X40692619Y-73886190D01*
X40549761Y-73886190D01*
X40502142Y-73862380D01*
X40478333Y-73838571D01*
D11*
X53862380Y-32622857D02*
X53862380Y-33194285D01*
X53862380Y-32908571D02*
X52862380Y-32908571D01*
X53005238Y-33003809D01*
X53100476Y-33099047D01*
X53148095Y-33194285D01*
X53862380Y-32194285D02*
X52862380Y-32194285D01*
X53862380Y-31622857D01*
X52862380Y-31622857D01*
X53195714Y-30718095D02*
X53862380Y-30718095D01*
X52814761Y-30956190D02*
X53529047Y-31194285D01*
X53529047Y-30575238D01*
X52862380Y-30003809D02*
X52862380Y-29908571D01*
X52910000Y-29813333D01*
X52957619Y-29765714D01*
X53052857Y-29718095D01*
X53243333Y-29670476D01*
X53481428Y-29670476D01*
X53671904Y-29718095D01*
X53767142Y-29765714D01*
X53814761Y-29813333D01*
X53862380Y-29908571D01*
X53862380Y-30003809D01*
X53814761Y-30099047D01*
X53767142Y-30146666D01*
X53671904Y-30194285D01*
X53481428Y-30241904D01*
X53243333Y-30241904D01*
X53052857Y-30194285D01*
X52957619Y-30146666D01*
X52910000Y-30099047D01*
X52862380Y-30003809D01*
X52862380Y-29051428D02*
X52862380Y-28956190D01*
X52910000Y-28860952D01*
X52957619Y-28813333D01*
X53052857Y-28765714D01*
X53243333Y-28718095D01*
X53481428Y-28718095D01*
X53671904Y-28765714D01*
X53767142Y-28813333D01*
X53814761Y-28860952D01*
X53862380Y-28956190D01*
X53862380Y-29051428D01*
X53814761Y-29146666D01*
X53767142Y-29194285D01*
X53671904Y-29241904D01*
X53481428Y-29289523D01*
X53243333Y-29289523D01*
X53052857Y-29241904D01*
X52957619Y-29194285D01*
X52910000Y-29146666D01*
X52862380Y-29051428D01*
X53862380Y-27765714D02*
X53862380Y-28337142D01*
X53862380Y-28051428D02*
X52862380Y-28051428D01*
X53005238Y-28146666D01*
X53100476Y-28241904D01*
X53148095Y-28337142D01*
X56332380Y-31608095D02*
X55332380Y-31608095D01*
X55332380Y-31370000D01*
X55380000Y-31227142D01*
X55475238Y-31131904D01*
X55570476Y-31084285D01*
X55760952Y-31036666D01*
X55903809Y-31036666D01*
X56094285Y-31084285D01*
X56189523Y-31131904D01*
X56284761Y-31227142D01*
X56332380Y-31370000D01*
X56332380Y-31608095D01*
X55760952Y-30465238D02*
X55713333Y-30560476D01*
X55665714Y-30608095D01*
X55570476Y-30655714D01*
X55522857Y-30655714D01*
X55427619Y-30608095D01*
X55380000Y-30560476D01*
X55332380Y-30465238D01*
X55332380Y-30274761D01*
X55380000Y-30179523D01*
X55427619Y-30131904D01*
X55522857Y-30084285D01*
X55570476Y-30084285D01*
X55665714Y-30131904D01*
X55713333Y-30179523D01*
X55760952Y-30274761D01*
X55760952Y-30465238D01*
X55808571Y-30560476D01*
X55856190Y-30608095D01*
X55951428Y-30655714D01*
X56141904Y-30655714D01*
X56237142Y-30608095D01*
X56284761Y-30560476D01*
X56332380Y-30465238D01*
X56332380Y-30274761D01*
X56284761Y-30179523D01*
X56237142Y-30131904D01*
X56141904Y-30084285D01*
X55951428Y-30084285D01*
X55856190Y-30131904D01*
X55808571Y-30179523D01*
X55760952Y-30274761D01*
X58432380Y-25661904D02*
X57432380Y-25661904D01*
X58432380Y-25090476D02*
X57860952Y-25519047D01*
X57432380Y-25090476D02*
X58003809Y-25661904D01*
X22132380Y-61205714D02*
X21132380Y-61205714D01*
X21846666Y-60872380D01*
X21132380Y-60539047D01*
X22132380Y-60539047D01*
X21132380Y-60062857D02*
X21941904Y-60062857D01*
X22037142Y-60015238D01*
X22084761Y-59967619D01*
X22132380Y-59872380D01*
X22132380Y-59681904D01*
X22084761Y-59586666D01*
X22037142Y-59539047D01*
X21941904Y-59491428D01*
X21132380Y-59491428D01*
X22132380Y-58443809D02*
X21656190Y-58777142D01*
X22132380Y-59015238D02*
X21132380Y-59015238D01*
X21132380Y-58634285D01*
X21180000Y-58539047D01*
X21227619Y-58491428D01*
X21322857Y-58443809D01*
X21465714Y-58443809D01*
X21560952Y-58491428D01*
X21608571Y-58539047D01*
X21656190Y-58634285D01*
X21656190Y-59015238D01*
X21465714Y-57586666D02*
X22132380Y-57586666D01*
X21084761Y-57824761D02*
X21799047Y-58062857D01*
X21799047Y-57443809D01*
X21132380Y-56634285D02*
X21132380Y-56824761D01*
X21180000Y-56920000D01*
X21227619Y-56967619D01*
X21370476Y-57062857D01*
X21560952Y-57110476D01*
X21941904Y-57110476D01*
X22037142Y-57062857D01*
X22084761Y-57015238D01*
X22132380Y-56920000D01*
X22132380Y-56729523D01*
X22084761Y-56634285D01*
X22037142Y-56586666D01*
X21941904Y-56539047D01*
X21703809Y-56539047D01*
X21608571Y-56586666D01*
X21560952Y-56634285D01*
X21513333Y-56729523D01*
X21513333Y-56920000D01*
X21560952Y-57015238D01*
X21608571Y-57062857D01*
X21703809Y-57110476D01*
X21132380Y-55920000D02*
X21132380Y-55824761D01*
X21180000Y-55729523D01*
X21227619Y-55681904D01*
X21322857Y-55634285D01*
X21513333Y-55586666D01*
X21751428Y-55586666D01*
X21941904Y-55634285D01*
X22037142Y-55681904D01*
X22084761Y-55729523D01*
X22132380Y-55824761D01*
X22132380Y-55920000D01*
X22084761Y-56015238D01*
X22037142Y-56062857D01*
X21941904Y-56110476D01*
X21751428Y-56158095D01*
X21513333Y-56158095D01*
X21322857Y-56110476D01*
X21227619Y-56062857D01*
X21180000Y-56015238D01*
X21132380Y-55920000D01*
X25852380Y-59870595D02*
X24852380Y-59870595D01*
X24852380Y-59632500D01*
X24900000Y-59489642D01*
X24995238Y-59394404D01*
X25090476Y-59346785D01*
X25280952Y-59299166D01*
X25423809Y-59299166D01*
X25614285Y-59346785D01*
X25709523Y-59394404D01*
X25804761Y-59489642D01*
X25852380Y-59632500D01*
X25852380Y-59870595D01*
X25852380Y-58346785D02*
X25852380Y-58918214D01*
X25852380Y-58632500D02*
X24852380Y-58632500D01*
X24995238Y-58727738D01*
X25090476Y-58822976D01*
X25138095Y-58918214D01*
X28452380Y-51061904D02*
X27452380Y-51061904D01*
X28452380Y-50490476D02*
X27880952Y-50919047D01*
X27452380Y-50490476D02*
X28023809Y-51061904D01*
X88867380Y-48332380D02*
X88295952Y-48332380D01*
X88581666Y-48332380D02*
X88581666Y-47332380D01*
X88486428Y-47475238D01*
X88391190Y-47570476D01*
X88295952Y-47618095D01*
X89486428Y-47332380D02*
X89581666Y-47332380D01*
X89676904Y-47380000D01*
X89724523Y-47427619D01*
X89772142Y-47522857D01*
X89819761Y-47713333D01*
X89819761Y-47951428D01*
X89772142Y-48141904D01*
X89724523Y-48237142D01*
X89676904Y-48284761D01*
X89581666Y-48332380D01*
X89486428Y-48332380D01*
X89391190Y-48284761D01*
X89343571Y-48237142D01*
X89295952Y-48141904D01*
X89248333Y-47951428D01*
X89248333Y-47713333D01*
X89295952Y-47522857D01*
X89343571Y-47427619D01*
X89391190Y-47380000D01*
X89486428Y-47332380D01*
X90438809Y-47332380D02*
X90534047Y-47332380D01*
X90629285Y-47380000D01*
X90676904Y-47427619D01*
X90724523Y-47522857D01*
X90772142Y-47713333D01*
X90772142Y-47951428D01*
X90724523Y-48141904D01*
X90676904Y-48237142D01*
X90629285Y-48284761D01*
X90534047Y-48332380D01*
X90438809Y-48332380D01*
X90343571Y-48284761D01*
X90295952Y-48237142D01*
X90248333Y-48141904D01*
X90200714Y-47951428D01*
X90200714Y-47713333D01*
X90248333Y-47522857D01*
X90295952Y-47427619D01*
X90343571Y-47380000D01*
X90438809Y-47332380D01*
X91200714Y-47665714D02*
X91200714Y-48332380D01*
X91200714Y-47760952D02*
X91248333Y-47713333D01*
X91343571Y-47665714D01*
X91486428Y-47665714D01*
X91581666Y-47713333D01*
X91629285Y-47808571D01*
X91629285Y-48332380D01*
X92438809Y-47808571D02*
X92105476Y-47808571D01*
X92105476Y-48332380D02*
X92105476Y-47332380D01*
X92581666Y-47332380D01*
D12*
X90093571Y-49708571D02*
X90069761Y-49732380D01*
X89998333Y-49756190D01*
X89950714Y-49756190D01*
X89879285Y-49732380D01*
X89831666Y-49684761D01*
X89807857Y-49637142D01*
X89784047Y-49541904D01*
X89784047Y-49470476D01*
X89807857Y-49375238D01*
X89831666Y-49327619D01*
X89879285Y-49280000D01*
X89950714Y-49256190D01*
X89998333Y-49256190D01*
X90069761Y-49280000D01*
X90093571Y-49303809D01*
X90284047Y-49303809D02*
X90307857Y-49280000D01*
X90355476Y-49256190D01*
X90474523Y-49256190D01*
X90522142Y-49280000D01*
X90545952Y-49303809D01*
X90569761Y-49351428D01*
X90569761Y-49399047D01*
X90545952Y-49470476D01*
X90260238Y-49756190D01*
X90569761Y-49756190D01*
X90736428Y-49256190D02*
X91045952Y-49256190D01*
X90879285Y-49446666D01*
X90950714Y-49446666D01*
X90998333Y-49470476D01*
X91022142Y-49494285D01*
X91045952Y-49541904D01*
X91045952Y-49660952D01*
X91022142Y-49708571D01*
X90998333Y-49732380D01*
X90950714Y-49756190D01*
X90807857Y-49756190D01*
X90760238Y-49732380D01*
X90736428Y-49708571D01*
D11*
X70597380Y-55442380D02*
X70025952Y-55442380D01*
X70311666Y-55442380D02*
X70311666Y-54442380D01*
X70216428Y-54585238D01*
X70121190Y-54680476D01*
X70025952Y-54728095D01*
X71216428Y-54442380D02*
X71311666Y-54442380D01*
X71406904Y-54490000D01*
X71454523Y-54537619D01*
X71502142Y-54632857D01*
X71549761Y-54823333D01*
X71549761Y-55061428D01*
X71502142Y-55251904D01*
X71454523Y-55347142D01*
X71406904Y-55394761D01*
X71311666Y-55442380D01*
X71216428Y-55442380D01*
X71121190Y-55394761D01*
X71073571Y-55347142D01*
X71025952Y-55251904D01*
X70978333Y-55061428D01*
X70978333Y-54823333D01*
X71025952Y-54632857D01*
X71073571Y-54537619D01*
X71121190Y-54490000D01*
X71216428Y-54442380D01*
X72168809Y-54442380D02*
X72264047Y-54442380D01*
X72359285Y-54490000D01*
X72406904Y-54537619D01*
X72454523Y-54632857D01*
X72502142Y-54823333D01*
X72502142Y-55061428D01*
X72454523Y-55251904D01*
X72406904Y-55347142D01*
X72359285Y-55394761D01*
X72264047Y-55442380D01*
X72168809Y-55442380D01*
X72073571Y-55394761D01*
X72025952Y-55347142D01*
X71978333Y-55251904D01*
X71930714Y-55061428D01*
X71930714Y-54823333D01*
X71978333Y-54632857D01*
X72025952Y-54537619D01*
X72073571Y-54490000D01*
X72168809Y-54442380D01*
X72930714Y-54775714D02*
X72930714Y-55442380D01*
X72930714Y-54870952D02*
X72978333Y-54823333D01*
X73073571Y-54775714D01*
X73216428Y-54775714D01*
X73311666Y-54823333D01*
X73359285Y-54918571D01*
X73359285Y-55442380D01*
X74168809Y-54918571D02*
X73835476Y-54918571D01*
X73835476Y-55442380D02*
X73835476Y-54442380D01*
X74311666Y-54442380D01*
D12*
X71823571Y-53518571D02*
X71799761Y-53542380D01*
X71728333Y-53566190D01*
X71680714Y-53566190D01*
X71609285Y-53542380D01*
X71561666Y-53494761D01*
X71537857Y-53447142D01*
X71514047Y-53351904D01*
X71514047Y-53280476D01*
X71537857Y-53185238D01*
X71561666Y-53137619D01*
X71609285Y-53090000D01*
X71680714Y-53066190D01*
X71728333Y-53066190D01*
X71799761Y-53090000D01*
X71823571Y-53113809D01*
X72014047Y-53113809D02*
X72037857Y-53090000D01*
X72085476Y-53066190D01*
X72204523Y-53066190D01*
X72252142Y-53090000D01*
X72275952Y-53113809D01*
X72299761Y-53161428D01*
X72299761Y-53209047D01*
X72275952Y-53280476D01*
X71990238Y-53566190D01*
X72299761Y-53566190D01*
X72490238Y-53113809D02*
X72514047Y-53090000D01*
X72561666Y-53066190D01*
X72680714Y-53066190D01*
X72728333Y-53090000D01*
X72752142Y-53113809D01*
X72775952Y-53161428D01*
X72775952Y-53209047D01*
X72752142Y-53280476D01*
X72466428Y-53566190D01*
X72775952Y-53566190D01*
D11*
X111727380Y-61792380D02*
X111155952Y-61792380D01*
X111441666Y-61792380D02*
X111441666Y-60792380D01*
X111346428Y-60935238D01*
X111251190Y-61030476D01*
X111155952Y-61078095D01*
X112346428Y-60792380D02*
X112441666Y-60792380D01*
X112536904Y-60840000D01*
X112584523Y-60887619D01*
X112632142Y-60982857D01*
X112679761Y-61173333D01*
X112679761Y-61411428D01*
X112632142Y-61601904D01*
X112584523Y-61697142D01*
X112536904Y-61744761D01*
X112441666Y-61792380D01*
X112346428Y-61792380D01*
X112251190Y-61744761D01*
X112203571Y-61697142D01*
X112155952Y-61601904D01*
X112108333Y-61411428D01*
X112108333Y-61173333D01*
X112155952Y-60982857D01*
X112203571Y-60887619D01*
X112251190Y-60840000D01*
X112346428Y-60792380D01*
X113298809Y-60792380D02*
X113394047Y-60792380D01*
X113489285Y-60840000D01*
X113536904Y-60887619D01*
X113584523Y-60982857D01*
X113632142Y-61173333D01*
X113632142Y-61411428D01*
X113584523Y-61601904D01*
X113536904Y-61697142D01*
X113489285Y-61744761D01*
X113394047Y-61792380D01*
X113298809Y-61792380D01*
X113203571Y-61744761D01*
X113155952Y-61697142D01*
X113108333Y-61601904D01*
X113060714Y-61411428D01*
X113060714Y-61173333D01*
X113108333Y-60982857D01*
X113155952Y-60887619D01*
X113203571Y-60840000D01*
X113298809Y-60792380D01*
X114060714Y-61125714D02*
X114060714Y-61792380D01*
X114060714Y-61220952D02*
X114108333Y-61173333D01*
X114203571Y-61125714D01*
X114346428Y-61125714D01*
X114441666Y-61173333D01*
X114489285Y-61268571D01*
X114489285Y-61792380D01*
X115298809Y-61268571D02*
X114965476Y-61268571D01*
X114965476Y-61792380D02*
X114965476Y-60792380D01*
X115441666Y-60792380D01*
D12*
X112953571Y-59868571D02*
X112929761Y-59892380D01*
X112858333Y-59916190D01*
X112810714Y-59916190D01*
X112739285Y-59892380D01*
X112691666Y-59844761D01*
X112667857Y-59797142D01*
X112644047Y-59701904D01*
X112644047Y-59630476D01*
X112667857Y-59535238D01*
X112691666Y-59487619D01*
X112739285Y-59440000D01*
X112810714Y-59416190D01*
X112858333Y-59416190D01*
X112929761Y-59440000D01*
X112953571Y-59463809D01*
X113144047Y-59463809D02*
X113167857Y-59440000D01*
X113215476Y-59416190D01*
X113334523Y-59416190D01*
X113382142Y-59440000D01*
X113405952Y-59463809D01*
X113429761Y-59511428D01*
X113429761Y-59559047D01*
X113405952Y-59630476D01*
X113120238Y-59916190D01*
X113429761Y-59916190D01*
X113905952Y-59916190D02*
X113620238Y-59916190D01*
X113763095Y-59916190D02*
X113763095Y-59416190D01*
X113715476Y-59487619D01*
X113667857Y-59535238D01*
X113620238Y-59559047D01*
D11*
X111727380Y-42742380D02*
X111155952Y-42742380D01*
X111441666Y-42742380D02*
X111441666Y-41742380D01*
X111346428Y-41885238D01*
X111251190Y-41980476D01*
X111155952Y-42028095D01*
X112346428Y-41742380D02*
X112441666Y-41742380D01*
X112536904Y-41790000D01*
X112584523Y-41837619D01*
X112632142Y-41932857D01*
X112679761Y-42123333D01*
X112679761Y-42361428D01*
X112632142Y-42551904D01*
X112584523Y-42647142D01*
X112536904Y-42694761D01*
X112441666Y-42742380D01*
X112346428Y-42742380D01*
X112251190Y-42694761D01*
X112203571Y-42647142D01*
X112155952Y-42551904D01*
X112108333Y-42361428D01*
X112108333Y-42123333D01*
X112155952Y-41932857D01*
X112203571Y-41837619D01*
X112251190Y-41790000D01*
X112346428Y-41742380D01*
X113298809Y-41742380D02*
X113394047Y-41742380D01*
X113489285Y-41790000D01*
X113536904Y-41837619D01*
X113584523Y-41932857D01*
X113632142Y-42123333D01*
X113632142Y-42361428D01*
X113584523Y-42551904D01*
X113536904Y-42647142D01*
X113489285Y-42694761D01*
X113394047Y-42742380D01*
X113298809Y-42742380D01*
X113203571Y-42694761D01*
X113155952Y-42647142D01*
X113108333Y-42551904D01*
X113060714Y-42361428D01*
X113060714Y-42123333D01*
X113108333Y-41932857D01*
X113155952Y-41837619D01*
X113203571Y-41790000D01*
X113298809Y-41742380D01*
X114060714Y-42075714D02*
X114060714Y-42742380D01*
X114060714Y-42170952D02*
X114108333Y-42123333D01*
X114203571Y-42075714D01*
X114346428Y-42075714D01*
X114441666Y-42123333D01*
X114489285Y-42218571D01*
X114489285Y-42742380D01*
X115298809Y-42218571D02*
X114965476Y-42218571D01*
X114965476Y-42742380D02*
X114965476Y-41742380D01*
X115441666Y-41742380D01*
D12*
X112953571Y-40818571D02*
X112929761Y-40842380D01*
X112858333Y-40866190D01*
X112810714Y-40866190D01*
X112739285Y-40842380D01*
X112691666Y-40794761D01*
X112667857Y-40747142D01*
X112644047Y-40651904D01*
X112644047Y-40580476D01*
X112667857Y-40485238D01*
X112691666Y-40437619D01*
X112739285Y-40390000D01*
X112810714Y-40366190D01*
X112858333Y-40366190D01*
X112929761Y-40390000D01*
X112953571Y-40413809D01*
X113144047Y-40413809D02*
X113167857Y-40390000D01*
X113215476Y-40366190D01*
X113334523Y-40366190D01*
X113382142Y-40390000D01*
X113405952Y-40413809D01*
X113429761Y-40461428D01*
X113429761Y-40509047D01*
X113405952Y-40580476D01*
X113120238Y-40866190D01*
X113429761Y-40866190D01*
X113739285Y-40366190D02*
X113786904Y-40366190D01*
X113834523Y-40390000D01*
X113858333Y-40413809D01*
X113882142Y-40461428D01*
X113905952Y-40556666D01*
X113905952Y-40675714D01*
X113882142Y-40770952D01*
X113858333Y-40818571D01*
X113834523Y-40842380D01*
X113786904Y-40866190D01*
X113739285Y-40866190D01*
X113691666Y-40842380D01*
X113667857Y-40818571D01*
X113644047Y-40770952D01*
X113620238Y-40675714D01*
X113620238Y-40556666D01*
X113644047Y-40461428D01*
X113667857Y-40413809D01*
X113691666Y-40390000D01*
X113739285Y-40366190D01*
D11*
X111727380Y-46552380D02*
X111155952Y-46552380D01*
X111441666Y-46552380D02*
X111441666Y-45552380D01*
X111346428Y-45695238D01*
X111251190Y-45790476D01*
X111155952Y-45838095D01*
X112346428Y-45552380D02*
X112441666Y-45552380D01*
X112536904Y-45600000D01*
X112584523Y-45647619D01*
X112632142Y-45742857D01*
X112679761Y-45933333D01*
X112679761Y-46171428D01*
X112632142Y-46361904D01*
X112584523Y-46457142D01*
X112536904Y-46504761D01*
X112441666Y-46552380D01*
X112346428Y-46552380D01*
X112251190Y-46504761D01*
X112203571Y-46457142D01*
X112155952Y-46361904D01*
X112108333Y-46171428D01*
X112108333Y-45933333D01*
X112155952Y-45742857D01*
X112203571Y-45647619D01*
X112251190Y-45600000D01*
X112346428Y-45552380D01*
X113298809Y-45552380D02*
X113394047Y-45552380D01*
X113489285Y-45600000D01*
X113536904Y-45647619D01*
X113584523Y-45742857D01*
X113632142Y-45933333D01*
X113632142Y-46171428D01*
X113584523Y-46361904D01*
X113536904Y-46457142D01*
X113489285Y-46504761D01*
X113394047Y-46552380D01*
X113298809Y-46552380D01*
X113203571Y-46504761D01*
X113155952Y-46457142D01*
X113108333Y-46361904D01*
X113060714Y-46171428D01*
X113060714Y-45933333D01*
X113108333Y-45742857D01*
X113155952Y-45647619D01*
X113203571Y-45600000D01*
X113298809Y-45552380D01*
X114060714Y-45885714D02*
X114060714Y-46552380D01*
X114060714Y-45980952D02*
X114108333Y-45933333D01*
X114203571Y-45885714D01*
X114346428Y-45885714D01*
X114441666Y-45933333D01*
X114489285Y-46028571D01*
X114489285Y-46552380D01*
X115298809Y-46028571D02*
X114965476Y-46028571D01*
X114965476Y-46552380D02*
X114965476Y-45552380D01*
X115441666Y-45552380D01*
D12*
X112953571Y-44628571D02*
X112929761Y-44652380D01*
X112858333Y-44676190D01*
X112810714Y-44676190D01*
X112739285Y-44652380D01*
X112691666Y-44604761D01*
X112667857Y-44557142D01*
X112644047Y-44461904D01*
X112644047Y-44390476D01*
X112667857Y-44295238D01*
X112691666Y-44247619D01*
X112739285Y-44200000D01*
X112810714Y-44176190D01*
X112858333Y-44176190D01*
X112929761Y-44200000D01*
X112953571Y-44223809D01*
X113429761Y-44676190D02*
X113144047Y-44676190D01*
X113286904Y-44676190D02*
X113286904Y-44176190D01*
X113239285Y-44247619D01*
X113191666Y-44295238D01*
X113144047Y-44319047D01*
X113667857Y-44676190D02*
X113763095Y-44676190D01*
X113810714Y-44652380D01*
X113834523Y-44628571D01*
X113882142Y-44557142D01*
X113905952Y-44461904D01*
X113905952Y-44271428D01*
X113882142Y-44223809D01*
X113858333Y-44200000D01*
X113810714Y-44176190D01*
X113715476Y-44176190D01*
X113667857Y-44200000D01*
X113644047Y-44223809D01*
X113620238Y-44271428D01*
X113620238Y-44390476D01*
X113644047Y-44438095D01*
X113667857Y-44461904D01*
X113715476Y-44485714D01*
X113810714Y-44485714D01*
X113858333Y-44461904D01*
X113882142Y-44438095D01*
X113905952Y-44390476D01*
D11*
X70597380Y-47822380D02*
X70025952Y-47822380D01*
X70311666Y-47822380D02*
X70311666Y-46822380D01*
X70216428Y-46965238D01*
X70121190Y-47060476D01*
X70025952Y-47108095D01*
X71216428Y-46822380D02*
X71311666Y-46822380D01*
X71406904Y-46870000D01*
X71454523Y-46917619D01*
X71502142Y-47012857D01*
X71549761Y-47203333D01*
X71549761Y-47441428D01*
X71502142Y-47631904D01*
X71454523Y-47727142D01*
X71406904Y-47774761D01*
X71311666Y-47822380D01*
X71216428Y-47822380D01*
X71121190Y-47774761D01*
X71073571Y-47727142D01*
X71025952Y-47631904D01*
X70978333Y-47441428D01*
X70978333Y-47203333D01*
X71025952Y-47012857D01*
X71073571Y-46917619D01*
X71121190Y-46870000D01*
X71216428Y-46822380D01*
X72168809Y-46822380D02*
X72264047Y-46822380D01*
X72359285Y-46870000D01*
X72406904Y-46917619D01*
X72454523Y-47012857D01*
X72502142Y-47203333D01*
X72502142Y-47441428D01*
X72454523Y-47631904D01*
X72406904Y-47727142D01*
X72359285Y-47774761D01*
X72264047Y-47822380D01*
X72168809Y-47822380D01*
X72073571Y-47774761D01*
X72025952Y-47727142D01*
X71978333Y-47631904D01*
X71930714Y-47441428D01*
X71930714Y-47203333D01*
X71978333Y-47012857D01*
X72025952Y-46917619D01*
X72073571Y-46870000D01*
X72168809Y-46822380D01*
X72930714Y-47155714D02*
X72930714Y-47822380D01*
X72930714Y-47250952D02*
X72978333Y-47203333D01*
X73073571Y-47155714D01*
X73216428Y-47155714D01*
X73311666Y-47203333D01*
X73359285Y-47298571D01*
X73359285Y-47822380D01*
X74168809Y-47298571D02*
X73835476Y-47298571D01*
X73835476Y-47822380D02*
X73835476Y-46822380D01*
X74311666Y-46822380D01*
D12*
X71823571Y-45898571D02*
X71799761Y-45922380D01*
X71728333Y-45946190D01*
X71680714Y-45946190D01*
X71609285Y-45922380D01*
X71561666Y-45874761D01*
X71537857Y-45827142D01*
X71514047Y-45731904D01*
X71514047Y-45660476D01*
X71537857Y-45565238D01*
X71561666Y-45517619D01*
X71609285Y-45470000D01*
X71680714Y-45446190D01*
X71728333Y-45446190D01*
X71799761Y-45470000D01*
X71823571Y-45493809D01*
X72299761Y-45946190D02*
X72014047Y-45946190D01*
X72156904Y-45946190D02*
X72156904Y-45446190D01*
X72109285Y-45517619D01*
X72061666Y-45565238D01*
X72014047Y-45589047D01*
X72585476Y-45660476D02*
X72537857Y-45636666D01*
X72514047Y-45612857D01*
X72490238Y-45565238D01*
X72490238Y-45541428D01*
X72514047Y-45493809D01*
X72537857Y-45470000D01*
X72585476Y-45446190D01*
X72680714Y-45446190D01*
X72728333Y-45470000D01*
X72752142Y-45493809D01*
X72775952Y-45541428D01*
X72775952Y-45565238D01*
X72752142Y-45612857D01*
X72728333Y-45636666D01*
X72680714Y-45660476D01*
X72585476Y-45660476D01*
X72537857Y-45684285D01*
X72514047Y-45708095D01*
X72490238Y-45755714D01*
X72490238Y-45850952D01*
X72514047Y-45898571D01*
X72537857Y-45922380D01*
X72585476Y-45946190D01*
X72680714Y-45946190D01*
X72728333Y-45922380D01*
X72752142Y-45898571D01*
X72775952Y-45850952D01*
X72775952Y-45755714D01*
X72752142Y-45708095D01*
X72728333Y-45684285D01*
X72680714Y-45660476D01*
D11*
X111727380Y-38932380D02*
X111155952Y-38932380D01*
X111441666Y-38932380D02*
X111441666Y-37932380D01*
X111346428Y-38075238D01*
X111251190Y-38170476D01*
X111155952Y-38218095D01*
X112346428Y-37932380D02*
X112441666Y-37932380D01*
X112536904Y-37980000D01*
X112584523Y-38027619D01*
X112632142Y-38122857D01*
X112679761Y-38313333D01*
X112679761Y-38551428D01*
X112632142Y-38741904D01*
X112584523Y-38837142D01*
X112536904Y-38884761D01*
X112441666Y-38932380D01*
X112346428Y-38932380D01*
X112251190Y-38884761D01*
X112203571Y-38837142D01*
X112155952Y-38741904D01*
X112108333Y-38551428D01*
X112108333Y-38313333D01*
X112155952Y-38122857D01*
X112203571Y-38027619D01*
X112251190Y-37980000D01*
X112346428Y-37932380D01*
X113298809Y-37932380D02*
X113394047Y-37932380D01*
X113489285Y-37980000D01*
X113536904Y-38027619D01*
X113584523Y-38122857D01*
X113632142Y-38313333D01*
X113632142Y-38551428D01*
X113584523Y-38741904D01*
X113536904Y-38837142D01*
X113489285Y-38884761D01*
X113394047Y-38932380D01*
X113298809Y-38932380D01*
X113203571Y-38884761D01*
X113155952Y-38837142D01*
X113108333Y-38741904D01*
X113060714Y-38551428D01*
X113060714Y-38313333D01*
X113108333Y-38122857D01*
X113155952Y-38027619D01*
X113203571Y-37980000D01*
X113298809Y-37932380D01*
X114060714Y-38265714D02*
X114060714Y-38932380D01*
X114060714Y-38360952D02*
X114108333Y-38313333D01*
X114203571Y-38265714D01*
X114346428Y-38265714D01*
X114441666Y-38313333D01*
X114489285Y-38408571D01*
X114489285Y-38932380D01*
X115298809Y-38408571D02*
X114965476Y-38408571D01*
X114965476Y-38932380D02*
X114965476Y-37932380D01*
X115441666Y-37932380D01*
D12*
X112953571Y-37008571D02*
X112929761Y-37032380D01*
X112858333Y-37056190D01*
X112810714Y-37056190D01*
X112739285Y-37032380D01*
X112691666Y-36984761D01*
X112667857Y-36937142D01*
X112644047Y-36841904D01*
X112644047Y-36770476D01*
X112667857Y-36675238D01*
X112691666Y-36627619D01*
X112739285Y-36580000D01*
X112810714Y-36556190D01*
X112858333Y-36556190D01*
X112929761Y-36580000D01*
X112953571Y-36603809D01*
X113429761Y-37056190D02*
X113144047Y-37056190D01*
X113286904Y-37056190D02*
X113286904Y-36556190D01*
X113239285Y-36627619D01*
X113191666Y-36675238D01*
X113144047Y-36699047D01*
X113858333Y-36556190D02*
X113763095Y-36556190D01*
X113715476Y-36580000D01*
X113691666Y-36603809D01*
X113644047Y-36675238D01*
X113620238Y-36770476D01*
X113620238Y-36960952D01*
X113644047Y-37008571D01*
X113667857Y-37032380D01*
X113715476Y-37056190D01*
X113810714Y-37056190D01*
X113858333Y-37032380D01*
X113882142Y-37008571D01*
X113905952Y-36960952D01*
X113905952Y-36841904D01*
X113882142Y-36794285D01*
X113858333Y-36770476D01*
X113810714Y-36746666D01*
X113715476Y-36746666D01*
X113667857Y-36770476D01*
X113644047Y-36794285D01*
X113620238Y-36841904D01*
D11*
X89502380Y-69412380D02*
X88930952Y-69412380D01*
X89216666Y-69412380D02*
X89216666Y-68412380D01*
X89121428Y-68555238D01*
X89026190Y-68650476D01*
X88930952Y-68698095D01*
X90121428Y-68412380D02*
X90216666Y-68412380D01*
X90311904Y-68460000D01*
X90359523Y-68507619D01*
X90407142Y-68602857D01*
X90454761Y-68793333D01*
X90454761Y-69031428D01*
X90407142Y-69221904D01*
X90359523Y-69317142D01*
X90311904Y-69364761D01*
X90216666Y-69412380D01*
X90121428Y-69412380D01*
X90026190Y-69364761D01*
X89978571Y-69317142D01*
X89930952Y-69221904D01*
X89883333Y-69031428D01*
X89883333Y-68793333D01*
X89930952Y-68602857D01*
X89978571Y-68507619D01*
X90026190Y-68460000D01*
X90121428Y-68412380D01*
X91073809Y-68412380D02*
X91169047Y-68412380D01*
X91264285Y-68460000D01*
X91311904Y-68507619D01*
X91359523Y-68602857D01*
X91407142Y-68793333D01*
X91407142Y-69031428D01*
X91359523Y-69221904D01*
X91311904Y-69317142D01*
X91264285Y-69364761D01*
X91169047Y-69412380D01*
X91073809Y-69412380D01*
X90978571Y-69364761D01*
X90930952Y-69317142D01*
X90883333Y-69221904D01*
X90835714Y-69031428D01*
X90835714Y-68793333D01*
X90883333Y-68602857D01*
X90930952Y-68507619D01*
X90978571Y-68460000D01*
X91073809Y-68412380D01*
X91835714Y-68745714D02*
X91835714Y-69412380D01*
X91835714Y-68840952D02*
X91883333Y-68793333D01*
X91978571Y-68745714D01*
X92121428Y-68745714D01*
X92216666Y-68793333D01*
X92264285Y-68888571D01*
X92264285Y-69412380D01*
X93073809Y-68888571D02*
X92740476Y-68888571D01*
X92740476Y-69412380D02*
X92740476Y-68412380D01*
X93216666Y-68412380D01*
D12*
X90728571Y-67488571D02*
X90704761Y-67512380D01*
X90633333Y-67536190D01*
X90585714Y-67536190D01*
X90514285Y-67512380D01*
X90466666Y-67464761D01*
X90442857Y-67417142D01*
X90419047Y-67321904D01*
X90419047Y-67250476D01*
X90442857Y-67155238D01*
X90466666Y-67107619D01*
X90514285Y-67060000D01*
X90585714Y-67036190D01*
X90633333Y-67036190D01*
X90704761Y-67060000D01*
X90728571Y-67083809D01*
X91204761Y-67536190D02*
X90919047Y-67536190D01*
X91061904Y-67536190D02*
X91061904Y-67036190D01*
X91014285Y-67107619D01*
X90966666Y-67155238D01*
X90919047Y-67179047D01*
X91657142Y-67036190D02*
X91419047Y-67036190D01*
X91395238Y-67274285D01*
X91419047Y-67250476D01*
X91466666Y-67226666D01*
X91585714Y-67226666D01*
X91633333Y-67250476D01*
X91657142Y-67274285D01*
X91680952Y-67321904D01*
X91680952Y-67440952D01*
X91657142Y-67488571D01*
X91633333Y-67512380D01*
X91585714Y-67536190D01*
X91466666Y-67536190D01*
X91419047Y-67512380D01*
X91395238Y-67488571D01*
D11*
X106012380Y-69412380D02*
X105440952Y-69412380D01*
X105726666Y-69412380D02*
X105726666Y-68412380D01*
X105631428Y-68555238D01*
X105536190Y-68650476D01*
X105440952Y-68698095D01*
X106631428Y-68412380D02*
X106726666Y-68412380D01*
X106821904Y-68460000D01*
X106869523Y-68507619D01*
X106917142Y-68602857D01*
X106964761Y-68793333D01*
X106964761Y-69031428D01*
X106917142Y-69221904D01*
X106869523Y-69317142D01*
X106821904Y-69364761D01*
X106726666Y-69412380D01*
X106631428Y-69412380D01*
X106536190Y-69364761D01*
X106488571Y-69317142D01*
X106440952Y-69221904D01*
X106393333Y-69031428D01*
X106393333Y-68793333D01*
X106440952Y-68602857D01*
X106488571Y-68507619D01*
X106536190Y-68460000D01*
X106631428Y-68412380D01*
X107583809Y-68412380D02*
X107679047Y-68412380D01*
X107774285Y-68460000D01*
X107821904Y-68507619D01*
X107869523Y-68602857D01*
X107917142Y-68793333D01*
X107917142Y-69031428D01*
X107869523Y-69221904D01*
X107821904Y-69317142D01*
X107774285Y-69364761D01*
X107679047Y-69412380D01*
X107583809Y-69412380D01*
X107488571Y-69364761D01*
X107440952Y-69317142D01*
X107393333Y-69221904D01*
X107345714Y-69031428D01*
X107345714Y-68793333D01*
X107393333Y-68602857D01*
X107440952Y-68507619D01*
X107488571Y-68460000D01*
X107583809Y-68412380D01*
X108345714Y-68745714D02*
X108345714Y-69412380D01*
X108345714Y-68840952D02*
X108393333Y-68793333D01*
X108488571Y-68745714D01*
X108631428Y-68745714D01*
X108726666Y-68793333D01*
X108774285Y-68888571D01*
X108774285Y-69412380D01*
X109583809Y-68888571D02*
X109250476Y-68888571D01*
X109250476Y-69412380D02*
X109250476Y-68412380D01*
X109726666Y-68412380D01*
D12*
X107238571Y-67488571D02*
X107214761Y-67512380D01*
X107143333Y-67536190D01*
X107095714Y-67536190D01*
X107024285Y-67512380D01*
X106976666Y-67464761D01*
X106952857Y-67417142D01*
X106929047Y-67321904D01*
X106929047Y-67250476D01*
X106952857Y-67155238D01*
X106976666Y-67107619D01*
X107024285Y-67060000D01*
X107095714Y-67036190D01*
X107143333Y-67036190D01*
X107214761Y-67060000D01*
X107238571Y-67083809D01*
X107714761Y-67536190D02*
X107429047Y-67536190D01*
X107571904Y-67536190D02*
X107571904Y-67036190D01*
X107524285Y-67107619D01*
X107476666Y-67155238D01*
X107429047Y-67179047D01*
X108143333Y-67202857D02*
X108143333Y-67536190D01*
X108024285Y-67012380D02*
X107905238Y-67369523D01*
X108214761Y-67369523D01*
D11*
X41507380Y-32883571D02*
X41507380Y-33455000D01*
X41507380Y-33169285D02*
X40507380Y-33169285D01*
X40650238Y-33264523D01*
X40745476Y-33359761D01*
X40793095Y-33455000D01*
X40507380Y-32264523D02*
X40507380Y-32169285D01*
X40555000Y-32074047D01*
X40602619Y-32026428D01*
X40697857Y-31978809D01*
X40888333Y-31931190D01*
X41126428Y-31931190D01*
X41316904Y-31978809D01*
X41412142Y-32026428D01*
X41459761Y-32074047D01*
X41507380Y-32169285D01*
X41507380Y-32264523D01*
X41459761Y-32359761D01*
X41412142Y-32407380D01*
X41316904Y-32455000D01*
X41126428Y-32502619D01*
X40888333Y-32502619D01*
X40697857Y-32455000D01*
X40602619Y-32407380D01*
X40555000Y-32359761D01*
X40507380Y-32264523D01*
X40507380Y-31312142D02*
X40507380Y-31216904D01*
X40555000Y-31121666D01*
X40602619Y-31074047D01*
X40697857Y-31026428D01*
X40888333Y-30978809D01*
X41126428Y-30978809D01*
X41316904Y-31026428D01*
X41412142Y-31074047D01*
X41459761Y-31121666D01*
X41507380Y-31216904D01*
X41507380Y-31312142D01*
X41459761Y-31407380D01*
X41412142Y-31455000D01*
X41316904Y-31502619D01*
X41126428Y-31550238D01*
X40888333Y-31550238D01*
X40697857Y-31502619D01*
X40602619Y-31455000D01*
X40555000Y-31407380D01*
X40507380Y-31312142D01*
X40840714Y-30121666D02*
X41507380Y-30121666D01*
X40840714Y-30550238D02*
X41364523Y-30550238D01*
X41459761Y-30502619D01*
X41507380Y-30407380D01*
X41507380Y-30264523D01*
X41459761Y-30169285D01*
X41412142Y-30121666D01*
X40983571Y-29312142D02*
X40983571Y-29645476D01*
X41507380Y-29645476D02*
X40507380Y-29645476D01*
X40507380Y-29169285D01*
X40602619Y-28835952D02*
X40555000Y-28788333D01*
X40507380Y-28693095D01*
X40507380Y-28455000D01*
X40555000Y-28359761D01*
X40602619Y-28312142D01*
X40697857Y-28264523D01*
X40793095Y-28264523D01*
X40935952Y-28312142D01*
X41507380Y-28883571D01*
X41507380Y-28264523D01*
X40507380Y-27359761D02*
X40507380Y-27835952D01*
X40983571Y-27883571D01*
X40935952Y-27835952D01*
X40888333Y-27740714D01*
X40888333Y-27502619D01*
X40935952Y-27407380D01*
X40983571Y-27359761D01*
X41078809Y-27312142D01*
X41316904Y-27312142D01*
X41412142Y-27359761D01*
X41459761Y-27407380D01*
X41507380Y-27502619D01*
X41507380Y-27740714D01*
X41459761Y-27835952D01*
X41412142Y-27883571D01*
X40507380Y-27026428D02*
X41507380Y-26693095D01*
X40507380Y-26359761D01*
X46712142Y-30121666D02*
X46759761Y-30169285D01*
X46807380Y-30312142D01*
X46807380Y-30407380D01*
X46759761Y-30550238D01*
X46664523Y-30645476D01*
X46569285Y-30693095D01*
X46378809Y-30740714D01*
X46235952Y-30740714D01*
X46045476Y-30693095D01*
X45950238Y-30645476D01*
X45855000Y-30550238D01*
X45807380Y-30407380D01*
X45807380Y-30312142D01*
X45855000Y-30169285D01*
X45902619Y-30121666D01*
X46807380Y-29645476D02*
X46807380Y-29455000D01*
X46759761Y-29359761D01*
X46712142Y-29312142D01*
X46569285Y-29216904D01*
X46378809Y-29169285D01*
X45997857Y-29169285D01*
X45902619Y-29216904D01*
X45855000Y-29264523D01*
X45807380Y-29359761D01*
X45807380Y-29550238D01*
X45855000Y-29645476D01*
X45902619Y-29693095D01*
X45997857Y-29740714D01*
X46235952Y-29740714D01*
X46331190Y-29693095D01*
X46378809Y-29645476D01*
X46426428Y-29550238D01*
X46426428Y-29359761D01*
X46378809Y-29264523D01*
X46331190Y-29216904D01*
X46235952Y-29169285D01*
X105077380Y-31202619D02*
X105077380Y-31774047D01*
X105077380Y-31488333D02*
X104077380Y-31488333D01*
X104220238Y-31583571D01*
X104315476Y-31678809D01*
X104363095Y-31774047D01*
X104077380Y-30583571D02*
X104077380Y-30488333D01*
X104125000Y-30393095D01*
X104172619Y-30345476D01*
X104267857Y-30297857D01*
X104458333Y-30250238D01*
X104696428Y-30250238D01*
X104886904Y-30297857D01*
X104982142Y-30345476D01*
X105029761Y-30393095D01*
X105077380Y-30488333D01*
X105077380Y-30583571D01*
X105029761Y-30678809D01*
X104982142Y-30726428D01*
X104886904Y-30774047D01*
X104696428Y-30821666D01*
X104458333Y-30821666D01*
X104267857Y-30774047D01*
X104172619Y-30726428D01*
X104125000Y-30678809D01*
X104077380Y-30583571D01*
X104077380Y-29631190D02*
X104077380Y-29535952D01*
X104125000Y-29440714D01*
X104172619Y-29393095D01*
X104267857Y-29345476D01*
X104458333Y-29297857D01*
X104696428Y-29297857D01*
X104886904Y-29345476D01*
X104982142Y-29393095D01*
X105029761Y-29440714D01*
X105077380Y-29535952D01*
X105077380Y-29631190D01*
X105029761Y-29726428D01*
X104982142Y-29774047D01*
X104886904Y-29821666D01*
X104696428Y-29869285D01*
X104458333Y-29869285D01*
X104267857Y-29821666D01*
X104172619Y-29774047D01*
X104125000Y-29726428D01*
X104077380Y-29631190D01*
X104410714Y-28440714D02*
X105077380Y-28440714D01*
X104410714Y-28869285D02*
X104934523Y-28869285D01*
X105029761Y-28821666D01*
X105077380Y-28726428D01*
X105077380Y-28583571D01*
X105029761Y-28488333D01*
X104982142Y-28440714D01*
X104553571Y-27631190D02*
X104553571Y-27964523D01*
X105077380Y-27964523D02*
X104077380Y-27964523D01*
X104077380Y-27488333D01*
X98782142Y-29821666D02*
X98829761Y-29869285D01*
X98877380Y-30012142D01*
X98877380Y-30107380D01*
X98829761Y-30250238D01*
X98734523Y-30345476D01*
X98639285Y-30393095D01*
X98448809Y-30440714D01*
X98305952Y-30440714D01*
X98115476Y-30393095D01*
X98020238Y-30345476D01*
X97925000Y-30250238D01*
X97877380Y-30107380D01*
X97877380Y-30012142D01*
X97925000Y-29869285D01*
X97972619Y-29821666D01*
X97877380Y-29488333D02*
X97877380Y-28821666D01*
X98877380Y-29250238D01*
X72057380Y-32583571D02*
X72057380Y-33155000D01*
X72057380Y-32869285D02*
X71057380Y-32869285D01*
X71200238Y-32964523D01*
X71295476Y-33059761D01*
X71343095Y-33155000D01*
X71057380Y-31964523D02*
X71057380Y-31869285D01*
X71105000Y-31774047D01*
X71152619Y-31726428D01*
X71247857Y-31678809D01*
X71438333Y-31631190D01*
X71676428Y-31631190D01*
X71866904Y-31678809D01*
X71962142Y-31726428D01*
X72009761Y-31774047D01*
X72057380Y-31869285D01*
X72057380Y-31964523D01*
X72009761Y-32059761D01*
X71962142Y-32107380D01*
X71866904Y-32155000D01*
X71676428Y-32202619D01*
X71438333Y-32202619D01*
X71247857Y-32155000D01*
X71152619Y-32107380D01*
X71105000Y-32059761D01*
X71057380Y-31964523D01*
X71057380Y-31012142D02*
X71057380Y-30916904D01*
X71105000Y-30821666D01*
X71152619Y-30774047D01*
X71247857Y-30726428D01*
X71438333Y-30678809D01*
X71676428Y-30678809D01*
X71866904Y-30726428D01*
X71962142Y-30774047D01*
X72009761Y-30821666D01*
X72057380Y-30916904D01*
X72057380Y-31012142D01*
X72009761Y-31107380D01*
X71962142Y-31155000D01*
X71866904Y-31202619D01*
X71676428Y-31250238D01*
X71438333Y-31250238D01*
X71247857Y-31202619D01*
X71152619Y-31155000D01*
X71105000Y-31107380D01*
X71057380Y-31012142D01*
X71390714Y-29821666D02*
X72057380Y-29821666D01*
X71390714Y-30250238D02*
X71914523Y-30250238D01*
X72009761Y-30202619D01*
X72057380Y-30107380D01*
X72057380Y-29964523D01*
X72009761Y-29869285D01*
X71962142Y-29821666D01*
X71533571Y-29012142D02*
X71533571Y-29345476D01*
X72057380Y-29345476D02*
X71057380Y-29345476D01*
X71057380Y-28869285D01*
X71152619Y-28535952D02*
X71105000Y-28488333D01*
X71057380Y-28393095D01*
X71057380Y-28155000D01*
X71105000Y-28059761D01*
X71152619Y-28012142D01*
X71247857Y-27964523D01*
X71343095Y-27964523D01*
X71485952Y-28012142D01*
X72057380Y-28583571D01*
X72057380Y-27964523D01*
X71057380Y-27059761D02*
X71057380Y-27535952D01*
X71533571Y-27583571D01*
X71485952Y-27535952D01*
X71438333Y-27440714D01*
X71438333Y-27202619D01*
X71485952Y-27107380D01*
X71533571Y-27059761D01*
X71628809Y-27012142D01*
X71866904Y-27012142D01*
X71962142Y-27059761D01*
X72009761Y-27107380D01*
X72057380Y-27202619D01*
X72057380Y-27440714D01*
X72009761Y-27535952D01*
X71962142Y-27583571D01*
X71057380Y-26726428D02*
X72057380Y-26393095D01*
X71057380Y-26059761D01*
X65762142Y-29821666D02*
X65809761Y-29869285D01*
X65857380Y-30012142D01*
X65857380Y-30107380D01*
X65809761Y-30250238D01*
X65714523Y-30345476D01*
X65619285Y-30393095D01*
X65428809Y-30440714D01*
X65285952Y-30440714D01*
X65095476Y-30393095D01*
X65000238Y-30345476D01*
X64905000Y-30250238D01*
X64857380Y-30107380D01*
X64857380Y-30012142D01*
X64905000Y-29869285D01*
X64952619Y-29821666D01*
X64857380Y-29488333D02*
X64857380Y-28869285D01*
X65238333Y-29202619D01*
X65238333Y-29059761D01*
X65285952Y-28964523D01*
X65333571Y-28916904D01*
X65428809Y-28869285D01*
X65666904Y-28869285D01*
X65762142Y-28916904D01*
X65809761Y-28964523D01*
X65857380Y-29059761D01*
X65857380Y-29345476D01*
X65809761Y-29440714D01*
X65762142Y-29488333D01*
X37393571Y-60983571D02*
X37441190Y-60840714D01*
X37488809Y-60793095D01*
X37584047Y-60745476D01*
X37726904Y-60745476D01*
X37822142Y-60793095D01*
X37869761Y-60840714D01*
X37917380Y-60935952D01*
X37917380Y-61316904D01*
X36917380Y-61316904D01*
X36917380Y-60983571D01*
X36965000Y-60888333D01*
X37012619Y-60840714D01*
X37107857Y-60793095D01*
X37203095Y-60793095D01*
X37298333Y-60840714D01*
X37345952Y-60888333D01*
X37393571Y-60983571D01*
X37393571Y-61316904D01*
X37250714Y-59888333D02*
X37917380Y-59888333D01*
X37250714Y-60316904D02*
X37774523Y-60316904D01*
X37869761Y-60269285D01*
X37917380Y-60174047D01*
X37917380Y-60031190D01*
X37869761Y-59935952D01*
X37822142Y-59888333D01*
X37250714Y-59507380D02*
X37250714Y-58983571D01*
X37917380Y-59507380D01*
X37917380Y-58983571D01*
X37250714Y-58697857D02*
X37250714Y-58174047D01*
X37917380Y-58697857D01*
X37917380Y-58174047D01*
X37869761Y-57412142D02*
X37917380Y-57507380D01*
X37917380Y-57697857D01*
X37869761Y-57793095D01*
X37774523Y-57840714D01*
X37393571Y-57840714D01*
X37298333Y-57793095D01*
X37250714Y-57697857D01*
X37250714Y-57507380D01*
X37298333Y-57412142D01*
X37393571Y-57364523D01*
X37488809Y-57364523D01*
X37584047Y-57840714D01*
X37917380Y-56935952D02*
X37250714Y-56935952D01*
X37441190Y-56935952D02*
X37345952Y-56888333D01*
X37298333Y-56840714D01*
X37250714Y-56745476D01*
X37250714Y-56650238D01*
X50283571Y-59925952D02*
X50331190Y-59783095D01*
X50378809Y-59735476D01*
X50474047Y-59687857D01*
X50616904Y-59687857D01*
X50712142Y-59735476D01*
X50759761Y-59783095D01*
X50807380Y-59878333D01*
X50807380Y-60259285D01*
X49807380Y-60259285D01*
X49807380Y-59925952D01*
X49855000Y-59830714D01*
X49902619Y-59783095D01*
X49997857Y-59735476D01*
X50093095Y-59735476D01*
X50188333Y-59783095D01*
X50235952Y-59830714D01*
X50283571Y-59925952D01*
X50283571Y-60259285D01*
X49807380Y-59354523D02*
X49807380Y-58687857D01*
X50807380Y-59354523D01*
X50807380Y-58687857D01*
X50807380Y-57783095D02*
X50807380Y-58354523D01*
X50807380Y-58068809D02*
X49807380Y-58068809D01*
X49950238Y-58164047D01*
X50045476Y-58259285D01*
X50093095Y-58354523D01*
X48966428Y-55615952D02*
X48966428Y-54854047D01*
X49347380Y-55235000D02*
X48585476Y-55235000D01*
M02*
