G04 #@! TF.GenerationSoftware,KiCad,Pcbnew,5.1.5-52549c5~86~ubuntu18.04.1*
G04 #@! TF.CreationDate,2020-05-21T16:47:52+05:30*
G04 #@! TF.ProjectId,Resp2,52657370-322e-46b6-9963-61645f706362,rev?*
G04 #@! TF.SameCoordinates,Original*
G04 #@! TF.FileFunction,Soldermask,Bot*
G04 #@! TF.FilePolarity,Negative*
%FSLAX46Y46*%
G04 Gerber Fmt 4.6, Leading zero omitted, Abs format (unit mm)*
G04 Created by KiCad (PCBNEW 5.1.5-52549c5~86~ubuntu18.04.1) date 2020-05-21 16:47:52*
%MOMM*%
%LPD*%
G04 APERTURE LIST*
%ADD10C,0.100000*%
G04 APERTURE END LIST*
D10*
G36*
X118664501Y-71197054D02*
G01*
X119010461Y-71340356D01*
X119321817Y-71548397D01*
X119586603Y-71813183D01*
X119794644Y-72124539D01*
X119794645Y-72124541D01*
X119937946Y-72470500D01*
X120011000Y-72837767D01*
X120011000Y-73212233D01*
X119981930Y-73358376D01*
X119937946Y-73579501D01*
X119794644Y-73925461D01*
X119586603Y-74236817D01*
X119321817Y-74501603D01*
X119010461Y-74709644D01*
X118664501Y-74852946D01*
X118480866Y-74889473D01*
X118297233Y-74926000D01*
X117922767Y-74926000D01*
X117739134Y-74889473D01*
X117555499Y-74852946D01*
X117209539Y-74709644D01*
X116898183Y-74501603D01*
X116633397Y-74236817D01*
X116425356Y-73925461D01*
X116282054Y-73579501D01*
X116238070Y-73358376D01*
X116209000Y-73212233D01*
X116209000Y-72837767D01*
X116282054Y-72470500D01*
X116425355Y-72124541D01*
X116425356Y-72124539D01*
X116633397Y-71813183D01*
X116898183Y-71548397D01*
X117209539Y-71340356D01*
X117555499Y-71197054D01*
X117922767Y-71124000D01*
X118297233Y-71124000D01*
X118664501Y-71197054D01*
G37*
G36*
X18334501Y-71197054D02*
G01*
X18680461Y-71340356D01*
X18991817Y-71548397D01*
X19256603Y-71813183D01*
X19464644Y-72124539D01*
X19464645Y-72124541D01*
X19607946Y-72470500D01*
X19681000Y-72837767D01*
X19681000Y-73212233D01*
X19651930Y-73358376D01*
X19607946Y-73579501D01*
X19464644Y-73925461D01*
X19256603Y-74236817D01*
X18991817Y-74501603D01*
X18680461Y-74709644D01*
X18334501Y-74852946D01*
X18150866Y-74889473D01*
X17967233Y-74926000D01*
X17592767Y-74926000D01*
X17409134Y-74889473D01*
X17225499Y-74852946D01*
X16879539Y-74709644D01*
X16568183Y-74501603D01*
X16303397Y-74236817D01*
X16095356Y-73925461D01*
X15952054Y-73579501D01*
X15908070Y-73358376D01*
X15879000Y-73212233D01*
X15879000Y-72837767D01*
X15952054Y-72470500D01*
X16095355Y-72124541D01*
X16095356Y-72124539D01*
X16303397Y-71813183D01*
X16568183Y-71548397D01*
X16879539Y-71340356D01*
X17225499Y-71197054D01*
X17592767Y-71124000D01*
X17967233Y-71124000D01*
X18334501Y-71197054D01*
G37*
G36*
X56136627Y-72647037D02*
G01*
X56306466Y-72698557D01*
X56462991Y-72782222D01*
X56498729Y-72811552D01*
X56600186Y-72894814D01*
X56683448Y-72996271D01*
X56712778Y-73032009D01*
X56796443Y-73188534D01*
X56847963Y-73358374D01*
X56861000Y-73490743D01*
X56861000Y-73829258D01*
X56847963Y-73961627D01*
X56796443Y-74131466D01*
X56712778Y-74287991D01*
X56683448Y-74323729D01*
X56600186Y-74425186D01*
X56462989Y-74537779D01*
X56306467Y-74621442D01*
X56306465Y-74621443D01*
X56136626Y-74672963D01*
X55960000Y-74690359D01*
X55783373Y-74672963D01*
X55613534Y-74621443D01*
X55457009Y-74537778D01*
X55412930Y-74501603D01*
X55319814Y-74425186D01*
X55207221Y-74287989D01*
X55123558Y-74131467D01*
X55123557Y-74131465D01*
X55072037Y-73961626D01*
X55059000Y-73829257D01*
X55059000Y-73490742D01*
X55072037Y-73358373D01*
X55123557Y-73188534D01*
X55207222Y-73032009D01*
X55319815Y-72894815D01*
X55457010Y-72782222D01*
X55613535Y-72698557D01*
X55783374Y-72647037D01*
X55960000Y-72629641D01*
X56136627Y-72647037D01*
G37*
G36*
X75146627Y-72647037D02*
G01*
X75316466Y-72698557D01*
X75472991Y-72782222D01*
X75508729Y-72811552D01*
X75610186Y-72894814D01*
X75693448Y-72996271D01*
X75722778Y-73032009D01*
X75806443Y-73188534D01*
X75857963Y-73358374D01*
X75871000Y-73490743D01*
X75871000Y-73829258D01*
X75857963Y-73961627D01*
X75806443Y-74131466D01*
X75722778Y-74287991D01*
X75693448Y-74323729D01*
X75610186Y-74425186D01*
X75472989Y-74537779D01*
X75316467Y-74621442D01*
X75316465Y-74621443D01*
X75146626Y-74672963D01*
X74970000Y-74690359D01*
X74793373Y-74672963D01*
X74623534Y-74621443D01*
X74467009Y-74537778D01*
X74422930Y-74501603D01*
X74329814Y-74425186D01*
X74217221Y-74287989D01*
X74133558Y-74131467D01*
X74133557Y-74131465D01*
X74082037Y-73961626D01*
X74069000Y-73829257D01*
X74069000Y-73490742D01*
X74082037Y-73358373D01*
X74133557Y-73188534D01*
X74217222Y-73032009D01*
X74329815Y-72894815D01*
X74467010Y-72782222D01*
X74623535Y-72698557D01*
X74793374Y-72647037D01*
X74970000Y-72629641D01*
X75146627Y-72647037D01*
G37*
G36*
X72646627Y-72647037D02*
G01*
X72816466Y-72698557D01*
X72972991Y-72782222D01*
X73008729Y-72811552D01*
X73110186Y-72894814D01*
X73193448Y-72996271D01*
X73222778Y-73032009D01*
X73306443Y-73188534D01*
X73357963Y-73358374D01*
X73371000Y-73490743D01*
X73371000Y-73829258D01*
X73357963Y-73961627D01*
X73306443Y-74131466D01*
X73222778Y-74287991D01*
X73193448Y-74323729D01*
X73110186Y-74425186D01*
X72972989Y-74537779D01*
X72816467Y-74621442D01*
X72816465Y-74621443D01*
X72646626Y-74672963D01*
X72470000Y-74690359D01*
X72293373Y-74672963D01*
X72123534Y-74621443D01*
X71967009Y-74537778D01*
X71922930Y-74501603D01*
X71829814Y-74425186D01*
X71717221Y-74287989D01*
X71633558Y-74131467D01*
X71633557Y-74131465D01*
X71582037Y-73961626D01*
X71569000Y-73829257D01*
X71569000Y-73490742D01*
X71582037Y-73358373D01*
X71633557Y-73188534D01*
X71717222Y-73032009D01*
X71829815Y-72894815D01*
X71967010Y-72782222D01*
X72123535Y-72698557D01*
X72293374Y-72647037D01*
X72470000Y-72629641D01*
X72646627Y-72647037D01*
G37*
G36*
X70146627Y-72647037D02*
G01*
X70316466Y-72698557D01*
X70472991Y-72782222D01*
X70508729Y-72811552D01*
X70610186Y-72894814D01*
X70693448Y-72996271D01*
X70722778Y-73032009D01*
X70806443Y-73188534D01*
X70857963Y-73358374D01*
X70871000Y-73490743D01*
X70871000Y-73829258D01*
X70857963Y-73961627D01*
X70806443Y-74131466D01*
X70722778Y-74287991D01*
X70693448Y-74323729D01*
X70610186Y-74425186D01*
X70472989Y-74537779D01*
X70316467Y-74621442D01*
X70316465Y-74621443D01*
X70146626Y-74672963D01*
X69970000Y-74690359D01*
X69793373Y-74672963D01*
X69623534Y-74621443D01*
X69467009Y-74537778D01*
X69422930Y-74501603D01*
X69329814Y-74425186D01*
X69217221Y-74287989D01*
X69133558Y-74131467D01*
X69133557Y-74131465D01*
X69082037Y-73961626D01*
X69069000Y-73829257D01*
X69069000Y-73490742D01*
X69082037Y-73358373D01*
X69133557Y-73188534D01*
X69217222Y-73032009D01*
X69329815Y-72894815D01*
X69467010Y-72782222D01*
X69623535Y-72698557D01*
X69793374Y-72647037D01*
X69970000Y-72629641D01*
X70146627Y-72647037D01*
G37*
G36*
X91656627Y-72647037D02*
G01*
X91826466Y-72698557D01*
X91982991Y-72782222D01*
X92018729Y-72811552D01*
X92120186Y-72894814D01*
X92203448Y-72996271D01*
X92232778Y-73032009D01*
X92316443Y-73188534D01*
X92367963Y-73358374D01*
X92381000Y-73490743D01*
X92381000Y-73829258D01*
X92367963Y-73961627D01*
X92316443Y-74131466D01*
X92232778Y-74287991D01*
X92203448Y-74323729D01*
X92120186Y-74425186D01*
X91982989Y-74537779D01*
X91826467Y-74621442D01*
X91826465Y-74621443D01*
X91656626Y-74672963D01*
X91480000Y-74690359D01*
X91303373Y-74672963D01*
X91133534Y-74621443D01*
X90977009Y-74537778D01*
X90932930Y-74501603D01*
X90839814Y-74425186D01*
X90727221Y-74287989D01*
X90643558Y-74131467D01*
X90643557Y-74131465D01*
X90592037Y-73961626D01*
X90579000Y-73829257D01*
X90579000Y-73490742D01*
X90592037Y-73358373D01*
X90643557Y-73188534D01*
X90727222Y-73032009D01*
X90839815Y-72894815D01*
X90977010Y-72782222D01*
X91133535Y-72698557D01*
X91303374Y-72647037D01*
X91480000Y-72629641D01*
X91656627Y-72647037D01*
G37*
G36*
X89156627Y-72647037D02*
G01*
X89326466Y-72698557D01*
X89482991Y-72782222D01*
X89518729Y-72811552D01*
X89620186Y-72894814D01*
X89703448Y-72996271D01*
X89732778Y-73032009D01*
X89816443Y-73188534D01*
X89867963Y-73358374D01*
X89881000Y-73490743D01*
X89881000Y-73829258D01*
X89867963Y-73961627D01*
X89816443Y-74131466D01*
X89732778Y-74287991D01*
X89703448Y-74323729D01*
X89620186Y-74425186D01*
X89482989Y-74537779D01*
X89326467Y-74621442D01*
X89326465Y-74621443D01*
X89156626Y-74672963D01*
X88980000Y-74690359D01*
X88803373Y-74672963D01*
X88633534Y-74621443D01*
X88477009Y-74537778D01*
X88432930Y-74501603D01*
X88339814Y-74425186D01*
X88227221Y-74287989D01*
X88143558Y-74131467D01*
X88143557Y-74131465D01*
X88092037Y-73961626D01*
X88079000Y-73829257D01*
X88079000Y-73490742D01*
X88092037Y-73358373D01*
X88143557Y-73188534D01*
X88227222Y-73032009D01*
X88339815Y-72894815D01*
X88477010Y-72782222D01*
X88633535Y-72698557D01*
X88803374Y-72647037D01*
X88980000Y-72629641D01*
X89156627Y-72647037D01*
G37*
G36*
X86656627Y-72647037D02*
G01*
X86826466Y-72698557D01*
X86982991Y-72782222D01*
X87018729Y-72811552D01*
X87120186Y-72894814D01*
X87203448Y-72996271D01*
X87232778Y-73032009D01*
X87316443Y-73188534D01*
X87367963Y-73358374D01*
X87381000Y-73490743D01*
X87381000Y-73829258D01*
X87367963Y-73961627D01*
X87316443Y-74131466D01*
X87232778Y-74287991D01*
X87203448Y-74323729D01*
X87120186Y-74425186D01*
X86982989Y-74537779D01*
X86826467Y-74621442D01*
X86826465Y-74621443D01*
X86656626Y-74672963D01*
X86480000Y-74690359D01*
X86303373Y-74672963D01*
X86133534Y-74621443D01*
X85977009Y-74537778D01*
X85932930Y-74501603D01*
X85839814Y-74425186D01*
X85727221Y-74287989D01*
X85643558Y-74131467D01*
X85643557Y-74131465D01*
X85592037Y-73961626D01*
X85579000Y-73829257D01*
X85579000Y-73490742D01*
X85592037Y-73358373D01*
X85643557Y-73188534D01*
X85727222Y-73032009D01*
X85839815Y-72894815D01*
X85977010Y-72782222D01*
X86133535Y-72698557D01*
X86303374Y-72647037D01*
X86480000Y-72629641D01*
X86656627Y-72647037D01*
G37*
G36*
X53636627Y-72647037D02*
G01*
X53806466Y-72698557D01*
X53962991Y-72782222D01*
X53998729Y-72811552D01*
X54100186Y-72894814D01*
X54183448Y-72996271D01*
X54212778Y-73032009D01*
X54296443Y-73188534D01*
X54347963Y-73358374D01*
X54361000Y-73490743D01*
X54361000Y-73829258D01*
X54347963Y-73961627D01*
X54296443Y-74131466D01*
X54212778Y-74287991D01*
X54183448Y-74323729D01*
X54100186Y-74425186D01*
X53962989Y-74537779D01*
X53806467Y-74621442D01*
X53806465Y-74621443D01*
X53636626Y-74672963D01*
X53460000Y-74690359D01*
X53283373Y-74672963D01*
X53113534Y-74621443D01*
X52957009Y-74537778D01*
X52912930Y-74501603D01*
X52819814Y-74425186D01*
X52707221Y-74287989D01*
X52623558Y-74131467D01*
X52623557Y-74131465D01*
X52572037Y-73961626D01*
X52559000Y-73829257D01*
X52559000Y-73490742D01*
X52572037Y-73358373D01*
X52623557Y-73188534D01*
X52707222Y-73032009D01*
X52819815Y-72894815D01*
X52957010Y-72782222D01*
X53113535Y-72698557D01*
X53283374Y-72647037D01*
X53460000Y-72629641D01*
X53636627Y-72647037D01*
G37*
G36*
X108166627Y-72647037D02*
G01*
X108336466Y-72698557D01*
X108492991Y-72782222D01*
X108528729Y-72811552D01*
X108630186Y-72894814D01*
X108713448Y-72996271D01*
X108742778Y-73032009D01*
X108826443Y-73188534D01*
X108877963Y-73358374D01*
X108891000Y-73490743D01*
X108891000Y-73829258D01*
X108877963Y-73961627D01*
X108826443Y-74131466D01*
X108742778Y-74287991D01*
X108713448Y-74323729D01*
X108630186Y-74425186D01*
X108492989Y-74537779D01*
X108336467Y-74621442D01*
X108336465Y-74621443D01*
X108166626Y-74672963D01*
X107990000Y-74690359D01*
X107813373Y-74672963D01*
X107643534Y-74621443D01*
X107487009Y-74537778D01*
X107442930Y-74501603D01*
X107349814Y-74425186D01*
X107237221Y-74287989D01*
X107153558Y-74131467D01*
X107153557Y-74131465D01*
X107102037Y-73961626D01*
X107089000Y-73829257D01*
X107089000Y-73490742D01*
X107102037Y-73358373D01*
X107153557Y-73188534D01*
X107237222Y-73032009D01*
X107349815Y-72894815D01*
X107487010Y-72782222D01*
X107643535Y-72698557D01*
X107813374Y-72647037D01*
X107990000Y-72629641D01*
X108166627Y-72647037D01*
G37*
G36*
X105666627Y-72647037D02*
G01*
X105836466Y-72698557D01*
X105992991Y-72782222D01*
X106028729Y-72811552D01*
X106130186Y-72894814D01*
X106213448Y-72996271D01*
X106242778Y-73032009D01*
X106326443Y-73188534D01*
X106377963Y-73358374D01*
X106391000Y-73490743D01*
X106391000Y-73829258D01*
X106377963Y-73961627D01*
X106326443Y-74131466D01*
X106242778Y-74287991D01*
X106213448Y-74323729D01*
X106130186Y-74425186D01*
X105992989Y-74537779D01*
X105836467Y-74621442D01*
X105836465Y-74621443D01*
X105666626Y-74672963D01*
X105490000Y-74690359D01*
X105313373Y-74672963D01*
X105143534Y-74621443D01*
X104987009Y-74537778D01*
X104942930Y-74501603D01*
X104849814Y-74425186D01*
X104737221Y-74287989D01*
X104653558Y-74131467D01*
X104653557Y-74131465D01*
X104602037Y-73961626D01*
X104589000Y-73829257D01*
X104589000Y-73490742D01*
X104602037Y-73358373D01*
X104653557Y-73188534D01*
X104737222Y-73032009D01*
X104849815Y-72894815D01*
X104987010Y-72782222D01*
X105143535Y-72698557D01*
X105313374Y-72647037D01*
X105490000Y-72629641D01*
X105666627Y-72647037D01*
G37*
G36*
X103166627Y-72647037D02*
G01*
X103336466Y-72698557D01*
X103492991Y-72782222D01*
X103528729Y-72811552D01*
X103630186Y-72894814D01*
X103713448Y-72996271D01*
X103742778Y-73032009D01*
X103826443Y-73188534D01*
X103877963Y-73358374D01*
X103891000Y-73490743D01*
X103891000Y-73829258D01*
X103877963Y-73961627D01*
X103826443Y-74131466D01*
X103742778Y-74287991D01*
X103713448Y-74323729D01*
X103630186Y-74425186D01*
X103492989Y-74537779D01*
X103336467Y-74621442D01*
X103336465Y-74621443D01*
X103166626Y-74672963D01*
X102990000Y-74690359D01*
X102813373Y-74672963D01*
X102643534Y-74621443D01*
X102487009Y-74537778D01*
X102442930Y-74501603D01*
X102349814Y-74425186D01*
X102237221Y-74287989D01*
X102153558Y-74131467D01*
X102153557Y-74131465D01*
X102102037Y-73961626D01*
X102089000Y-73829257D01*
X102089000Y-73490742D01*
X102102037Y-73358373D01*
X102153557Y-73188534D01*
X102237222Y-73032009D01*
X102349815Y-72894815D01*
X102487010Y-72782222D01*
X102643535Y-72698557D01*
X102813374Y-72647037D01*
X102990000Y-72629641D01*
X103166627Y-72647037D01*
G37*
G36*
X25696627Y-72647037D02*
G01*
X25866466Y-72698557D01*
X26022991Y-72782222D01*
X26058729Y-72811552D01*
X26160186Y-72894814D01*
X26243448Y-72996271D01*
X26272778Y-73032009D01*
X26356443Y-73188534D01*
X26407963Y-73358374D01*
X26421000Y-73490743D01*
X26421000Y-73829258D01*
X26407963Y-73961627D01*
X26356443Y-74131466D01*
X26272778Y-74287991D01*
X26243448Y-74323729D01*
X26160186Y-74425186D01*
X26022989Y-74537779D01*
X25866467Y-74621442D01*
X25866465Y-74621443D01*
X25696626Y-74672963D01*
X25520000Y-74690359D01*
X25343373Y-74672963D01*
X25173534Y-74621443D01*
X25017009Y-74537778D01*
X24972930Y-74501603D01*
X24879814Y-74425186D01*
X24767221Y-74287989D01*
X24683558Y-74131467D01*
X24683557Y-74131465D01*
X24632037Y-73961626D01*
X24619000Y-73829257D01*
X24619000Y-73490742D01*
X24632037Y-73358373D01*
X24683557Y-73188534D01*
X24767222Y-73032009D01*
X24879815Y-72894815D01*
X25017010Y-72782222D01*
X25173535Y-72698557D01*
X25343374Y-72647037D01*
X25520000Y-72629641D01*
X25696627Y-72647037D01*
G37*
G36*
X28196627Y-72647037D02*
G01*
X28366466Y-72698557D01*
X28522991Y-72782222D01*
X28558729Y-72811552D01*
X28660186Y-72894814D01*
X28743448Y-72996271D01*
X28772778Y-73032009D01*
X28856443Y-73188534D01*
X28907963Y-73358374D01*
X28921000Y-73490743D01*
X28921000Y-73829258D01*
X28907963Y-73961627D01*
X28856443Y-74131466D01*
X28772778Y-74287991D01*
X28743448Y-74323729D01*
X28660186Y-74425186D01*
X28522989Y-74537779D01*
X28366467Y-74621442D01*
X28366465Y-74621443D01*
X28196626Y-74672963D01*
X28020000Y-74690359D01*
X27843373Y-74672963D01*
X27673534Y-74621443D01*
X27517009Y-74537778D01*
X27472930Y-74501603D01*
X27379814Y-74425186D01*
X27267221Y-74287989D01*
X27183558Y-74131467D01*
X27183557Y-74131465D01*
X27132037Y-73961626D01*
X27119000Y-73829257D01*
X27119000Y-73490742D01*
X27132037Y-73358373D01*
X27183557Y-73188534D01*
X27267222Y-73032009D01*
X27379815Y-72894815D01*
X27517010Y-72782222D01*
X27673535Y-72698557D01*
X27843374Y-72647037D01*
X28020000Y-72629641D01*
X28196627Y-72647037D01*
G37*
G36*
X30696627Y-72647037D02*
G01*
X30866466Y-72698557D01*
X31022991Y-72782222D01*
X31058729Y-72811552D01*
X31160186Y-72894814D01*
X31243448Y-72996271D01*
X31272778Y-73032009D01*
X31356443Y-73188534D01*
X31407963Y-73358374D01*
X31421000Y-73490743D01*
X31421000Y-73829258D01*
X31407963Y-73961627D01*
X31356443Y-74131466D01*
X31272778Y-74287991D01*
X31243448Y-74323729D01*
X31160186Y-74425186D01*
X31022989Y-74537779D01*
X30866467Y-74621442D01*
X30866465Y-74621443D01*
X30696626Y-74672963D01*
X30520000Y-74690359D01*
X30343373Y-74672963D01*
X30173534Y-74621443D01*
X30017009Y-74537778D01*
X29972930Y-74501603D01*
X29879814Y-74425186D01*
X29767221Y-74287989D01*
X29683558Y-74131467D01*
X29683557Y-74131465D01*
X29632037Y-73961626D01*
X29619000Y-73829257D01*
X29619000Y-73490742D01*
X29632037Y-73358373D01*
X29683557Y-73188534D01*
X29767222Y-73032009D01*
X29879815Y-72894815D01*
X30017010Y-72782222D01*
X30173535Y-72698557D01*
X30343374Y-72647037D01*
X30520000Y-72629641D01*
X30696627Y-72647037D01*
G37*
G36*
X58636627Y-72647037D02*
G01*
X58806466Y-72698557D01*
X58962991Y-72782222D01*
X58998729Y-72811552D01*
X59100186Y-72894814D01*
X59183448Y-72996271D01*
X59212778Y-73032009D01*
X59296443Y-73188534D01*
X59347963Y-73358374D01*
X59361000Y-73490743D01*
X59361000Y-73829258D01*
X59347963Y-73961627D01*
X59296443Y-74131466D01*
X59212778Y-74287991D01*
X59183448Y-74323729D01*
X59100186Y-74425186D01*
X58962989Y-74537779D01*
X58806467Y-74621442D01*
X58806465Y-74621443D01*
X58636626Y-74672963D01*
X58460000Y-74690359D01*
X58283373Y-74672963D01*
X58113534Y-74621443D01*
X57957009Y-74537778D01*
X57912930Y-74501603D01*
X57819814Y-74425186D01*
X57707221Y-74287989D01*
X57623558Y-74131467D01*
X57623557Y-74131465D01*
X57572037Y-73961626D01*
X57559000Y-73829257D01*
X57559000Y-73490742D01*
X57572037Y-73358373D01*
X57623557Y-73188534D01*
X57707222Y-73032009D01*
X57819815Y-72894815D01*
X57957010Y-72782222D01*
X58113535Y-72698557D01*
X58283374Y-72647037D01*
X58460000Y-72629641D01*
X58636627Y-72647037D01*
G37*
G36*
X94738600Y-72637989D02*
G01*
X94771652Y-72648015D01*
X94802103Y-72664292D01*
X94828799Y-72686201D01*
X94850708Y-72712897D01*
X94866985Y-72743348D01*
X94877011Y-72776400D01*
X94881000Y-72816903D01*
X94881000Y-74503097D01*
X94877011Y-74543600D01*
X94866985Y-74576652D01*
X94850708Y-74607103D01*
X94828799Y-74633799D01*
X94802103Y-74655708D01*
X94771652Y-74671985D01*
X94738600Y-74682011D01*
X94698097Y-74686000D01*
X93261903Y-74686000D01*
X93221400Y-74682011D01*
X93188348Y-74671985D01*
X93157897Y-74655708D01*
X93131201Y-74633799D01*
X93109292Y-74607103D01*
X93093015Y-74576652D01*
X93082989Y-74543600D01*
X93079000Y-74503097D01*
X93079000Y-72816903D01*
X93082989Y-72776400D01*
X93093015Y-72743348D01*
X93109292Y-72712897D01*
X93131201Y-72686201D01*
X93157897Y-72664292D01*
X93188348Y-72648015D01*
X93221400Y-72637989D01*
X93261903Y-72634000D01*
X94698097Y-72634000D01*
X94738600Y-72637989D01*
G37*
G36*
X33778600Y-72637989D02*
G01*
X33811652Y-72648015D01*
X33842103Y-72664292D01*
X33868799Y-72686201D01*
X33890708Y-72712897D01*
X33906985Y-72743348D01*
X33917011Y-72776400D01*
X33921000Y-72816903D01*
X33921000Y-74503097D01*
X33917011Y-74543600D01*
X33906985Y-74576652D01*
X33890708Y-74607103D01*
X33868799Y-74633799D01*
X33842103Y-74655708D01*
X33811652Y-74671985D01*
X33778600Y-74682011D01*
X33738097Y-74686000D01*
X32301903Y-74686000D01*
X32261400Y-74682011D01*
X32228348Y-74671985D01*
X32197897Y-74655708D01*
X32171201Y-74633799D01*
X32149292Y-74607103D01*
X32133015Y-74576652D01*
X32122989Y-74543600D01*
X32119000Y-74503097D01*
X32119000Y-72816903D01*
X32122989Y-72776400D01*
X32133015Y-72743348D01*
X32149292Y-72712897D01*
X32171201Y-72686201D01*
X32197897Y-72664292D01*
X32228348Y-72648015D01*
X32261400Y-72637989D01*
X32301903Y-72634000D01*
X33738097Y-72634000D01*
X33778600Y-72637989D01*
G37*
G36*
X111248600Y-72637989D02*
G01*
X111281652Y-72648015D01*
X111312103Y-72664292D01*
X111338799Y-72686201D01*
X111360708Y-72712897D01*
X111376985Y-72743348D01*
X111387011Y-72776400D01*
X111391000Y-72816903D01*
X111391000Y-74503097D01*
X111387011Y-74543600D01*
X111376985Y-74576652D01*
X111360708Y-74607103D01*
X111338799Y-74633799D01*
X111312103Y-74655708D01*
X111281652Y-74671985D01*
X111248600Y-74682011D01*
X111208097Y-74686000D01*
X109771903Y-74686000D01*
X109731400Y-74682011D01*
X109698348Y-74671985D01*
X109667897Y-74655708D01*
X109641201Y-74633799D01*
X109619292Y-74607103D01*
X109603015Y-74576652D01*
X109592989Y-74543600D01*
X109589000Y-74503097D01*
X109589000Y-72816903D01*
X109592989Y-72776400D01*
X109603015Y-72743348D01*
X109619292Y-72712897D01*
X109641201Y-72686201D01*
X109667897Y-72664292D01*
X109698348Y-72648015D01*
X109731400Y-72637989D01*
X109771903Y-72634000D01*
X111208097Y-72634000D01*
X111248600Y-72637989D01*
G37*
G36*
X78228600Y-72637989D02*
G01*
X78261652Y-72648015D01*
X78292103Y-72664292D01*
X78318799Y-72686201D01*
X78340708Y-72712897D01*
X78356985Y-72743348D01*
X78367011Y-72776400D01*
X78371000Y-72816903D01*
X78371000Y-74503097D01*
X78367011Y-74543600D01*
X78356985Y-74576652D01*
X78340708Y-74607103D01*
X78318799Y-74633799D01*
X78292103Y-74655708D01*
X78261652Y-74671985D01*
X78228600Y-74682011D01*
X78188097Y-74686000D01*
X76751903Y-74686000D01*
X76711400Y-74682011D01*
X76678348Y-74671985D01*
X76647897Y-74655708D01*
X76621201Y-74633799D01*
X76599292Y-74607103D01*
X76583015Y-74576652D01*
X76572989Y-74543600D01*
X76569000Y-74503097D01*
X76569000Y-72816903D01*
X76572989Y-72776400D01*
X76583015Y-72743348D01*
X76599292Y-72712897D01*
X76621201Y-72686201D01*
X76647897Y-72664292D01*
X76678348Y-72648015D01*
X76711400Y-72637989D01*
X76751903Y-72634000D01*
X78188097Y-72634000D01*
X78228600Y-72637989D01*
G37*
G36*
X61718600Y-72637989D02*
G01*
X61751652Y-72648015D01*
X61782103Y-72664292D01*
X61808799Y-72686201D01*
X61830708Y-72712897D01*
X61846985Y-72743348D01*
X61857011Y-72776400D01*
X61861000Y-72816903D01*
X61861000Y-74503097D01*
X61857011Y-74543600D01*
X61846985Y-74576652D01*
X61830708Y-74607103D01*
X61808799Y-74633799D01*
X61782103Y-74655708D01*
X61751652Y-74671985D01*
X61718600Y-74682011D01*
X61678097Y-74686000D01*
X60241903Y-74686000D01*
X60201400Y-74682011D01*
X60168348Y-74671985D01*
X60137897Y-74655708D01*
X60111201Y-74633799D01*
X60089292Y-74607103D01*
X60073015Y-74576652D01*
X60062989Y-74543600D01*
X60059000Y-74503097D01*
X60059000Y-72816903D01*
X60062989Y-72776400D01*
X60073015Y-72743348D01*
X60089292Y-72712897D01*
X60111201Y-72686201D01*
X60137897Y-72664292D01*
X60168348Y-72648015D01*
X60201400Y-72637989D01*
X60241903Y-72634000D01*
X61678097Y-72634000D01*
X61718600Y-72637989D01*
G37*
G36*
X114888578Y-68957048D02*
G01*
X114961249Y-68979093D01*
X115028225Y-69014892D01*
X115086930Y-69063070D01*
X115135108Y-69121775D01*
X115170907Y-69188751D01*
X115192952Y-69261422D01*
X115201000Y-69343140D01*
X115201000Y-70356860D01*
X115192952Y-70438578D01*
X115170907Y-70511249D01*
X115135108Y-70578225D01*
X115086930Y-70636930D01*
X115028225Y-70685108D01*
X114961249Y-70720907D01*
X114888578Y-70742952D01*
X114806860Y-70751000D01*
X113793140Y-70751000D01*
X113711422Y-70742952D01*
X113638751Y-70720907D01*
X113571775Y-70685108D01*
X113513070Y-70636930D01*
X113464892Y-70578225D01*
X113429093Y-70511249D01*
X113407048Y-70438578D01*
X113399000Y-70356860D01*
X113399000Y-69343140D01*
X113407048Y-69261422D01*
X113429093Y-69188751D01*
X113464892Y-69121775D01*
X113513070Y-69063070D01*
X113571775Y-69014892D01*
X113638751Y-68979093D01*
X113711422Y-68957048D01*
X113793140Y-68949000D01*
X114806860Y-68949000D01*
X114888578Y-68957048D01*
G37*
G36*
X80123512Y-66413927D02*
G01*
X80272812Y-66443624D01*
X80436784Y-66511544D01*
X80584354Y-66610147D01*
X80709853Y-66735646D01*
X80808456Y-66883216D01*
X80876376Y-67047188D01*
X80911000Y-67221259D01*
X80911000Y-67398741D01*
X80876376Y-67572812D01*
X80808456Y-67736784D01*
X80709853Y-67884354D01*
X80584354Y-68009853D01*
X80436784Y-68108456D01*
X80272812Y-68176376D01*
X80123512Y-68206073D01*
X80098742Y-68211000D01*
X79921258Y-68211000D01*
X79896488Y-68206073D01*
X79747188Y-68176376D01*
X79583216Y-68108456D01*
X79435646Y-68009853D01*
X79310147Y-67884354D01*
X79211544Y-67736784D01*
X79143624Y-67572812D01*
X79109000Y-67398741D01*
X79109000Y-67221259D01*
X79143624Y-67047188D01*
X79211544Y-66883216D01*
X79310147Y-66735646D01*
X79435646Y-66610147D01*
X79583216Y-66511544D01*
X79747188Y-66443624D01*
X79896488Y-66413927D01*
X79921258Y-66409000D01*
X80098742Y-66409000D01*
X80123512Y-66413927D01*
G37*
G36*
X83138578Y-66417048D02*
G01*
X83211249Y-66439093D01*
X83278225Y-66474892D01*
X83336930Y-66523070D01*
X83385108Y-66581775D01*
X83420907Y-66648751D01*
X83442952Y-66721422D01*
X83451000Y-66803140D01*
X83451000Y-67816860D01*
X83442952Y-67898578D01*
X83420907Y-67971249D01*
X83385108Y-68038225D01*
X83336930Y-68096930D01*
X83278225Y-68145108D01*
X83211249Y-68180907D01*
X83138578Y-68202952D01*
X83056860Y-68211000D01*
X82043140Y-68211000D01*
X81961422Y-68202952D01*
X81888751Y-68180907D01*
X81821775Y-68145108D01*
X81763070Y-68096930D01*
X81714892Y-68038225D01*
X81679093Y-67971249D01*
X81657048Y-67898578D01*
X81649000Y-67816860D01*
X81649000Y-66803140D01*
X81657048Y-66721422D01*
X81679093Y-66648751D01*
X81714892Y-66581775D01*
X81763070Y-66523070D01*
X81821775Y-66474892D01*
X81888751Y-66439093D01*
X81961422Y-66417048D01*
X82043140Y-66409000D01*
X83056860Y-66409000D01*
X83138578Y-66417048D01*
G37*
G36*
X120885443Y-66295519D02*
G01*
X120951627Y-66302037D01*
X121121466Y-66353557D01*
X121277991Y-66437222D01*
X121313729Y-66466552D01*
X121415186Y-66549814D01*
X121496380Y-66648751D01*
X121527778Y-66687009D01*
X121611443Y-66843534D01*
X121662963Y-67013373D01*
X121680359Y-67190000D01*
X121662963Y-67366627D01*
X121611443Y-67536466D01*
X121527778Y-67692991D01*
X121498448Y-67728729D01*
X121415186Y-67830186D01*
X121313729Y-67913448D01*
X121277991Y-67942778D01*
X121277989Y-67942779D01*
X121152504Y-68009853D01*
X121121466Y-68026443D01*
X120951627Y-68077963D01*
X120885443Y-68084481D01*
X120819260Y-68091000D01*
X120480740Y-68091000D01*
X120414557Y-68084481D01*
X120348373Y-68077963D01*
X120178534Y-68026443D01*
X120147497Y-68009853D01*
X120022011Y-67942779D01*
X120022009Y-67942778D01*
X119986271Y-67913448D01*
X119884814Y-67830186D01*
X119801552Y-67728729D01*
X119772222Y-67692991D01*
X119688557Y-67536466D01*
X119637037Y-67366627D01*
X119619641Y-67190000D01*
X119637037Y-67013373D01*
X119688557Y-66843534D01*
X119772222Y-66687009D01*
X119803620Y-66648751D01*
X119884814Y-66549814D01*
X119986271Y-66466552D01*
X120022009Y-66437222D01*
X120178534Y-66353557D01*
X120348373Y-66302037D01*
X120414557Y-66295519D01*
X120480740Y-66289000D01*
X120819260Y-66289000D01*
X120885443Y-66295519D01*
G37*
G36*
X25775256Y-64431298D02*
G01*
X25881579Y-64452447D01*
X26182042Y-64576903D01*
X26452451Y-64757585D01*
X26682415Y-64987549D01*
X26863097Y-65257958D01*
X26974307Y-65526442D01*
X26987553Y-65558422D01*
X27051000Y-65877389D01*
X27051000Y-66202611D01*
X27009946Y-66409000D01*
X26987553Y-66521579D01*
X26919029Y-66687011D01*
X26870927Y-66803140D01*
X26863097Y-66822042D01*
X26682415Y-67092451D01*
X26452451Y-67322415D01*
X26182042Y-67503097D01*
X25881579Y-67627553D01*
X25775256Y-67648702D01*
X25562611Y-67691000D01*
X25237389Y-67691000D01*
X25024744Y-67648702D01*
X24918421Y-67627553D01*
X24617958Y-67503097D01*
X24347549Y-67322415D01*
X24117585Y-67092451D01*
X23936903Y-66822042D01*
X23929074Y-66803140D01*
X23880971Y-66687011D01*
X23812447Y-66521579D01*
X23790054Y-66409000D01*
X23749000Y-66202611D01*
X23749000Y-65877389D01*
X23812447Y-65558422D01*
X23825694Y-65526442D01*
X23936903Y-65257958D01*
X24117585Y-64987549D01*
X24347549Y-64757585D01*
X24617958Y-64576903D01*
X24918421Y-64452447D01*
X25024744Y-64431298D01*
X25237389Y-64389000D01*
X25562611Y-64389000D01*
X25775256Y-64431298D01*
G37*
G36*
X120885442Y-63795518D02*
G01*
X120951627Y-63802037D01*
X121121466Y-63853557D01*
X121277991Y-63937222D01*
X121313729Y-63966552D01*
X121415186Y-64049814D01*
X121498448Y-64151271D01*
X121527778Y-64187009D01*
X121611443Y-64343534D01*
X121662963Y-64513373D01*
X121680359Y-64690000D01*
X121662963Y-64866627D01*
X121611443Y-65036466D01*
X121527778Y-65192991D01*
X121498448Y-65228729D01*
X121415186Y-65330186D01*
X121313729Y-65413448D01*
X121277991Y-65442778D01*
X121121466Y-65526443D01*
X120951627Y-65577963D01*
X120885443Y-65584481D01*
X120819260Y-65591000D01*
X120480740Y-65591000D01*
X120414557Y-65584481D01*
X120348373Y-65577963D01*
X120178534Y-65526443D01*
X120022009Y-65442778D01*
X119986271Y-65413448D01*
X119884814Y-65330186D01*
X119801552Y-65228729D01*
X119772222Y-65192991D01*
X119688557Y-65036466D01*
X119637037Y-64866627D01*
X119619641Y-64690000D01*
X119637037Y-64513373D01*
X119688557Y-64343534D01*
X119772222Y-64187009D01*
X119801552Y-64151271D01*
X119884814Y-64049814D01*
X119986271Y-63966552D01*
X120022009Y-63937222D01*
X120178534Y-63853557D01*
X120348373Y-63802037D01*
X120414558Y-63795518D01*
X120480740Y-63789000D01*
X120819260Y-63789000D01*
X120885442Y-63795518D01*
G37*
G36*
X29126000Y-65321000D02*
G01*
X28024000Y-65321000D01*
X28024000Y-64219000D01*
X29126000Y-64219000D01*
X29126000Y-65321000D01*
G37*
G36*
X64383228Y-63316703D02*
G01*
X64538100Y-63380853D01*
X64677481Y-63473985D01*
X64796015Y-63592519D01*
X64889147Y-63731900D01*
X64953297Y-63886772D01*
X64986000Y-64051184D01*
X64986000Y-64218816D01*
X64953297Y-64383228D01*
X64889147Y-64538100D01*
X64796015Y-64677481D01*
X64677481Y-64796015D01*
X64538100Y-64889147D01*
X64383228Y-64953297D01*
X64218816Y-64986000D01*
X64051184Y-64986000D01*
X63886772Y-64953297D01*
X63731900Y-64889147D01*
X63592519Y-64796015D01*
X63473985Y-64677481D01*
X63380853Y-64538100D01*
X63316703Y-64383228D01*
X63284000Y-64218816D01*
X63284000Y-64051184D01*
X63316703Y-63886772D01*
X63380853Y-63731900D01*
X63473985Y-63592519D01*
X63592519Y-63473985D01*
X63731900Y-63380853D01*
X63886772Y-63316703D01*
X64051184Y-63284000D01*
X64218816Y-63284000D01*
X64383228Y-63316703D01*
G37*
G36*
X59303228Y-63316703D02*
G01*
X59458100Y-63380853D01*
X59597481Y-63473985D01*
X59716015Y-63592519D01*
X59809147Y-63731900D01*
X59873297Y-63886772D01*
X59906000Y-64051184D01*
X59906000Y-64218816D01*
X59873297Y-64383228D01*
X59809147Y-64538100D01*
X59716015Y-64677481D01*
X59597481Y-64796015D01*
X59458100Y-64889147D01*
X59303228Y-64953297D01*
X59138816Y-64986000D01*
X58971184Y-64986000D01*
X58806772Y-64953297D01*
X58651900Y-64889147D01*
X58512519Y-64796015D01*
X58393985Y-64677481D01*
X58300853Y-64538100D01*
X58236703Y-64383228D01*
X58204000Y-64218816D01*
X58204000Y-64051184D01*
X58236703Y-63886772D01*
X58300853Y-63731900D01*
X58393985Y-63592519D01*
X58512519Y-63473985D01*
X58651900Y-63380853D01*
X58806772Y-63316703D01*
X58971184Y-63284000D01*
X59138816Y-63284000D01*
X59303228Y-63316703D01*
G37*
G36*
X61843228Y-63316703D02*
G01*
X61998100Y-63380853D01*
X62137481Y-63473985D01*
X62256015Y-63592519D01*
X62349147Y-63731900D01*
X62413297Y-63886772D01*
X62446000Y-64051184D01*
X62446000Y-64218816D01*
X62413297Y-64383228D01*
X62349147Y-64538100D01*
X62256015Y-64677481D01*
X62137481Y-64796015D01*
X61998100Y-64889147D01*
X61843228Y-64953297D01*
X61678816Y-64986000D01*
X61511184Y-64986000D01*
X61346772Y-64953297D01*
X61191900Y-64889147D01*
X61052519Y-64796015D01*
X60933985Y-64677481D01*
X60840853Y-64538100D01*
X60776703Y-64383228D01*
X60744000Y-64218816D01*
X60744000Y-64051184D01*
X60776703Y-63886772D01*
X60840853Y-63731900D01*
X60933985Y-63592519D01*
X61052519Y-63473985D01*
X61191900Y-63380853D01*
X61346772Y-63316703D01*
X61511184Y-63284000D01*
X61678816Y-63284000D01*
X61843228Y-63316703D01*
G37*
G36*
X81143228Y-63316703D02*
G01*
X81298100Y-63380853D01*
X81437481Y-63473985D01*
X81556015Y-63592519D01*
X81649147Y-63731900D01*
X81713297Y-63886772D01*
X81746000Y-64051184D01*
X81746000Y-64218816D01*
X81713297Y-64383228D01*
X81649147Y-64538100D01*
X81556015Y-64677481D01*
X81437481Y-64796015D01*
X81298100Y-64889147D01*
X81143228Y-64953297D01*
X80978816Y-64986000D01*
X80811184Y-64986000D01*
X80646772Y-64953297D01*
X80491900Y-64889147D01*
X80352519Y-64796015D01*
X80233985Y-64677481D01*
X80140853Y-64538100D01*
X80076703Y-64383228D01*
X80044000Y-64218816D01*
X80044000Y-64051184D01*
X80076703Y-63886772D01*
X80140853Y-63731900D01*
X80233985Y-63592519D01*
X80352519Y-63473985D01*
X80491900Y-63380853D01*
X80646772Y-63316703D01*
X80811184Y-63284000D01*
X80978816Y-63284000D01*
X81143228Y-63316703D01*
G37*
G36*
X77083228Y-63316703D02*
G01*
X77238100Y-63380853D01*
X77377481Y-63473985D01*
X77496015Y-63592519D01*
X77589147Y-63731900D01*
X77653297Y-63886772D01*
X77686000Y-64051184D01*
X77686000Y-64218816D01*
X77653297Y-64383228D01*
X77589147Y-64538100D01*
X77496015Y-64677481D01*
X77377481Y-64796015D01*
X77238100Y-64889147D01*
X77083228Y-64953297D01*
X76918816Y-64986000D01*
X76751184Y-64986000D01*
X76586772Y-64953297D01*
X76431900Y-64889147D01*
X76292519Y-64796015D01*
X76173985Y-64677481D01*
X76080853Y-64538100D01*
X76016703Y-64383228D01*
X75984000Y-64218816D01*
X75984000Y-64051184D01*
X76016703Y-63886772D01*
X76080853Y-63731900D01*
X76173985Y-63592519D01*
X76292519Y-63473985D01*
X76431900Y-63380853D01*
X76586772Y-63316703D01*
X76751184Y-63284000D01*
X76918816Y-63284000D01*
X77083228Y-63316703D01*
G37*
G36*
X74543228Y-63316703D02*
G01*
X74698100Y-63380853D01*
X74837481Y-63473985D01*
X74956015Y-63592519D01*
X75049147Y-63731900D01*
X75113297Y-63886772D01*
X75146000Y-64051184D01*
X75146000Y-64218816D01*
X75113297Y-64383228D01*
X75049147Y-64538100D01*
X74956015Y-64677481D01*
X74837481Y-64796015D01*
X74698100Y-64889147D01*
X74543228Y-64953297D01*
X74378816Y-64986000D01*
X74211184Y-64986000D01*
X74046772Y-64953297D01*
X73891900Y-64889147D01*
X73752519Y-64796015D01*
X73633985Y-64677481D01*
X73540853Y-64538100D01*
X73476703Y-64383228D01*
X73444000Y-64218816D01*
X73444000Y-64051184D01*
X73476703Y-63886772D01*
X73540853Y-63731900D01*
X73633985Y-63592519D01*
X73752519Y-63473985D01*
X73891900Y-63380853D01*
X74046772Y-63316703D01*
X74211184Y-63284000D01*
X74378816Y-63284000D01*
X74543228Y-63316703D01*
G37*
G36*
X72003228Y-63316703D02*
G01*
X72158100Y-63380853D01*
X72297481Y-63473985D01*
X72416015Y-63592519D01*
X72509147Y-63731900D01*
X72573297Y-63886772D01*
X72606000Y-64051184D01*
X72606000Y-64218816D01*
X72573297Y-64383228D01*
X72509147Y-64538100D01*
X72416015Y-64677481D01*
X72297481Y-64796015D01*
X72158100Y-64889147D01*
X72003228Y-64953297D01*
X71838816Y-64986000D01*
X71671184Y-64986000D01*
X71506772Y-64953297D01*
X71351900Y-64889147D01*
X71212519Y-64796015D01*
X71093985Y-64677481D01*
X71000853Y-64538100D01*
X70936703Y-64383228D01*
X70904000Y-64218816D01*
X70904000Y-64051184D01*
X70936703Y-63886772D01*
X71000853Y-63731900D01*
X71093985Y-63592519D01*
X71212519Y-63473985D01*
X71351900Y-63380853D01*
X71506772Y-63316703D01*
X71671184Y-63284000D01*
X71838816Y-63284000D01*
X72003228Y-63316703D01*
G37*
G36*
X69463228Y-63316703D02*
G01*
X69618100Y-63380853D01*
X69757481Y-63473985D01*
X69876015Y-63592519D01*
X69969147Y-63731900D01*
X70033297Y-63886772D01*
X70066000Y-64051184D01*
X70066000Y-64218816D01*
X70033297Y-64383228D01*
X69969147Y-64538100D01*
X69876015Y-64677481D01*
X69757481Y-64796015D01*
X69618100Y-64889147D01*
X69463228Y-64953297D01*
X69298816Y-64986000D01*
X69131184Y-64986000D01*
X68966772Y-64953297D01*
X68811900Y-64889147D01*
X68672519Y-64796015D01*
X68553985Y-64677481D01*
X68460853Y-64538100D01*
X68396703Y-64383228D01*
X68364000Y-64218816D01*
X68364000Y-64051184D01*
X68396703Y-63886772D01*
X68460853Y-63731900D01*
X68553985Y-63592519D01*
X68672519Y-63473985D01*
X68811900Y-63380853D01*
X68966772Y-63316703D01*
X69131184Y-63284000D01*
X69298816Y-63284000D01*
X69463228Y-63316703D01*
G37*
G36*
X66923228Y-63316703D02*
G01*
X67078100Y-63380853D01*
X67217481Y-63473985D01*
X67336015Y-63592519D01*
X67429147Y-63731900D01*
X67493297Y-63886772D01*
X67526000Y-64051184D01*
X67526000Y-64218816D01*
X67493297Y-64383228D01*
X67429147Y-64538100D01*
X67336015Y-64677481D01*
X67217481Y-64796015D01*
X67078100Y-64889147D01*
X66923228Y-64953297D01*
X66758816Y-64986000D01*
X66591184Y-64986000D01*
X66426772Y-64953297D01*
X66271900Y-64889147D01*
X66132519Y-64796015D01*
X66013985Y-64677481D01*
X65920853Y-64538100D01*
X65856703Y-64383228D01*
X65824000Y-64218816D01*
X65824000Y-64051184D01*
X65856703Y-63886772D01*
X65920853Y-63731900D01*
X66013985Y-63592519D01*
X66132519Y-63473985D01*
X66271900Y-63380853D01*
X66426772Y-63316703D01*
X66591184Y-63284000D01*
X66758816Y-63284000D01*
X66923228Y-63316703D01*
G37*
G36*
X104003228Y-63316703D02*
G01*
X104158100Y-63380853D01*
X104297481Y-63473985D01*
X104416015Y-63592519D01*
X104509147Y-63731900D01*
X104573297Y-63886772D01*
X104606000Y-64051184D01*
X104606000Y-64218816D01*
X104573297Y-64383228D01*
X104509147Y-64538100D01*
X104416015Y-64677481D01*
X104297481Y-64796015D01*
X104158100Y-64889147D01*
X104003228Y-64953297D01*
X103838816Y-64986000D01*
X103671184Y-64986000D01*
X103506772Y-64953297D01*
X103351900Y-64889147D01*
X103212519Y-64796015D01*
X103093985Y-64677481D01*
X103000853Y-64538100D01*
X102936703Y-64383228D01*
X102904000Y-64218816D01*
X102904000Y-64051184D01*
X102936703Y-63886772D01*
X103000853Y-63731900D01*
X103093985Y-63592519D01*
X103212519Y-63473985D01*
X103351900Y-63380853D01*
X103506772Y-63316703D01*
X103671184Y-63284000D01*
X103838816Y-63284000D01*
X104003228Y-63316703D01*
G37*
G36*
X98923228Y-63316703D02*
G01*
X99078100Y-63380853D01*
X99217481Y-63473985D01*
X99336015Y-63592519D01*
X99429147Y-63731900D01*
X99493297Y-63886772D01*
X99526000Y-64051184D01*
X99526000Y-64218816D01*
X99493297Y-64383228D01*
X99429147Y-64538100D01*
X99336015Y-64677481D01*
X99217481Y-64796015D01*
X99078100Y-64889147D01*
X98923228Y-64953297D01*
X98758816Y-64986000D01*
X98591184Y-64986000D01*
X98426772Y-64953297D01*
X98271900Y-64889147D01*
X98132519Y-64796015D01*
X98013985Y-64677481D01*
X97920853Y-64538100D01*
X97856703Y-64383228D01*
X97824000Y-64218816D01*
X97824000Y-64051184D01*
X97856703Y-63886772D01*
X97920853Y-63731900D01*
X98013985Y-63592519D01*
X98132519Y-63473985D01*
X98271900Y-63380853D01*
X98426772Y-63316703D01*
X98591184Y-63284000D01*
X98758816Y-63284000D01*
X98923228Y-63316703D01*
G37*
G36*
X96383228Y-63316703D02*
G01*
X96538100Y-63380853D01*
X96677481Y-63473985D01*
X96796015Y-63592519D01*
X96889147Y-63731900D01*
X96953297Y-63886772D01*
X96986000Y-64051184D01*
X96986000Y-64218816D01*
X96953297Y-64383228D01*
X96889147Y-64538100D01*
X96796015Y-64677481D01*
X96677481Y-64796015D01*
X96538100Y-64889147D01*
X96383228Y-64953297D01*
X96218816Y-64986000D01*
X96051184Y-64986000D01*
X95886772Y-64953297D01*
X95731900Y-64889147D01*
X95592519Y-64796015D01*
X95473985Y-64677481D01*
X95380853Y-64538100D01*
X95316703Y-64383228D01*
X95284000Y-64218816D01*
X95284000Y-64051184D01*
X95316703Y-63886772D01*
X95380853Y-63731900D01*
X95473985Y-63592519D01*
X95592519Y-63473985D01*
X95731900Y-63380853D01*
X95886772Y-63316703D01*
X96051184Y-63284000D01*
X96218816Y-63284000D01*
X96383228Y-63316703D01*
G37*
G36*
X93843228Y-63316703D02*
G01*
X93998100Y-63380853D01*
X94137481Y-63473985D01*
X94256015Y-63592519D01*
X94349147Y-63731900D01*
X94413297Y-63886772D01*
X94446000Y-64051184D01*
X94446000Y-64218816D01*
X94413297Y-64383228D01*
X94349147Y-64538100D01*
X94256015Y-64677481D01*
X94137481Y-64796015D01*
X93998100Y-64889147D01*
X93843228Y-64953297D01*
X93678816Y-64986000D01*
X93511184Y-64986000D01*
X93346772Y-64953297D01*
X93191900Y-64889147D01*
X93052519Y-64796015D01*
X92933985Y-64677481D01*
X92840853Y-64538100D01*
X92776703Y-64383228D01*
X92744000Y-64218816D01*
X92744000Y-64051184D01*
X92776703Y-63886772D01*
X92840853Y-63731900D01*
X92933985Y-63592519D01*
X93052519Y-63473985D01*
X93191900Y-63380853D01*
X93346772Y-63316703D01*
X93511184Y-63284000D01*
X93678816Y-63284000D01*
X93843228Y-63316703D01*
G37*
G36*
X91303228Y-63316703D02*
G01*
X91458100Y-63380853D01*
X91597481Y-63473985D01*
X91716015Y-63592519D01*
X91809147Y-63731900D01*
X91873297Y-63886772D01*
X91906000Y-64051184D01*
X91906000Y-64218816D01*
X91873297Y-64383228D01*
X91809147Y-64538100D01*
X91716015Y-64677481D01*
X91597481Y-64796015D01*
X91458100Y-64889147D01*
X91303228Y-64953297D01*
X91138816Y-64986000D01*
X90971184Y-64986000D01*
X90806772Y-64953297D01*
X90651900Y-64889147D01*
X90512519Y-64796015D01*
X90393985Y-64677481D01*
X90300853Y-64538100D01*
X90236703Y-64383228D01*
X90204000Y-64218816D01*
X90204000Y-64051184D01*
X90236703Y-63886772D01*
X90300853Y-63731900D01*
X90393985Y-63592519D01*
X90512519Y-63473985D01*
X90651900Y-63380853D01*
X90806772Y-63316703D01*
X90971184Y-63284000D01*
X91138816Y-63284000D01*
X91303228Y-63316703D01*
G37*
G36*
X88763228Y-63316703D02*
G01*
X88918100Y-63380853D01*
X89057481Y-63473985D01*
X89176015Y-63592519D01*
X89269147Y-63731900D01*
X89333297Y-63886772D01*
X89366000Y-64051184D01*
X89366000Y-64218816D01*
X89333297Y-64383228D01*
X89269147Y-64538100D01*
X89176015Y-64677481D01*
X89057481Y-64796015D01*
X88918100Y-64889147D01*
X88763228Y-64953297D01*
X88598816Y-64986000D01*
X88431184Y-64986000D01*
X88266772Y-64953297D01*
X88111900Y-64889147D01*
X87972519Y-64796015D01*
X87853985Y-64677481D01*
X87760853Y-64538100D01*
X87696703Y-64383228D01*
X87664000Y-64218816D01*
X87664000Y-64051184D01*
X87696703Y-63886772D01*
X87760853Y-63731900D01*
X87853985Y-63592519D01*
X87972519Y-63473985D01*
X88111900Y-63380853D01*
X88266772Y-63316703D01*
X88431184Y-63284000D01*
X88598816Y-63284000D01*
X88763228Y-63316703D01*
G37*
G36*
X86223228Y-63316703D02*
G01*
X86378100Y-63380853D01*
X86517481Y-63473985D01*
X86636015Y-63592519D01*
X86729147Y-63731900D01*
X86793297Y-63886772D01*
X86826000Y-64051184D01*
X86826000Y-64218816D01*
X86793297Y-64383228D01*
X86729147Y-64538100D01*
X86636015Y-64677481D01*
X86517481Y-64796015D01*
X86378100Y-64889147D01*
X86223228Y-64953297D01*
X86058816Y-64986000D01*
X85891184Y-64986000D01*
X85726772Y-64953297D01*
X85571900Y-64889147D01*
X85432519Y-64796015D01*
X85313985Y-64677481D01*
X85220853Y-64538100D01*
X85156703Y-64383228D01*
X85124000Y-64218816D01*
X85124000Y-64051184D01*
X85156703Y-63886772D01*
X85220853Y-63731900D01*
X85313985Y-63592519D01*
X85432519Y-63473985D01*
X85571900Y-63380853D01*
X85726772Y-63316703D01*
X85891184Y-63284000D01*
X86058816Y-63284000D01*
X86223228Y-63316703D01*
G37*
G36*
X83683228Y-63316703D02*
G01*
X83838100Y-63380853D01*
X83977481Y-63473985D01*
X84096015Y-63592519D01*
X84189147Y-63731900D01*
X84253297Y-63886772D01*
X84286000Y-64051184D01*
X84286000Y-64218816D01*
X84253297Y-64383228D01*
X84189147Y-64538100D01*
X84096015Y-64677481D01*
X83977481Y-64796015D01*
X83838100Y-64889147D01*
X83683228Y-64953297D01*
X83518816Y-64986000D01*
X83351184Y-64986000D01*
X83186772Y-64953297D01*
X83031900Y-64889147D01*
X82892519Y-64796015D01*
X82773985Y-64677481D01*
X82680853Y-64538100D01*
X82616703Y-64383228D01*
X82584000Y-64218816D01*
X82584000Y-64051184D01*
X82616703Y-63886772D01*
X82680853Y-63731900D01*
X82773985Y-63592519D01*
X82892519Y-63473985D01*
X83031900Y-63380853D01*
X83186772Y-63316703D01*
X83351184Y-63284000D01*
X83518816Y-63284000D01*
X83683228Y-63316703D01*
G37*
G36*
X101463228Y-63316703D02*
G01*
X101618100Y-63380853D01*
X101757481Y-63473985D01*
X101876015Y-63592519D01*
X101969147Y-63731900D01*
X102033297Y-63886772D01*
X102066000Y-64051184D01*
X102066000Y-64218816D01*
X102033297Y-64383228D01*
X101969147Y-64538100D01*
X101876015Y-64677481D01*
X101757481Y-64796015D01*
X101618100Y-64889147D01*
X101463228Y-64953297D01*
X101298816Y-64986000D01*
X101131184Y-64986000D01*
X100966772Y-64953297D01*
X100811900Y-64889147D01*
X100672519Y-64796015D01*
X100553985Y-64677481D01*
X100460853Y-64538100D01*
X100396703Y-64383228D01*
X100364000Y-64218816D01*
X100364000Y-64051184D01*
X100396703Y-63886772D01*
X100460853Y-63731900D01*
X100553985Y-63592519D01*
X100672519Y-63473985D01*
X100811900Y-63380853D01*
X100966772Y-63316703D01*
X101131184Y-63284000D01*
X101298816Y-63284000D01*
X101463228Y-63316703D01*
G37*
G36*
X31951971Y-62366625D02*
G01*
X32085734Y-62393232D01*
X32295203Y-62479997D01*
X32483720Y-62605960D01*
X32644040Y-62766280D01*
X32770003Y-62954797D01*
X32851507Y-63151564D01*
X32856768Y-63164267D01*
X32899850Y-63380852D01*
X32901000Y-63386636D01*
X32901000Y-63613364D01*
X32856768Y-63835734D01*
X32770003Y-64045203D01*
X32644040Y-64233720D01*
X32483720Y-64394040D01*
X32295203Y-64520003D01*
X32085734Y-64606768D01*
X31974549Y-64628884D01*
X31863365Y-64651000D01*
X31636635Y-64651000D01*
X31525451Y-64628884D01*
X31414266Y-64606768D01*
X31204797Y-64520003D01*
X31016280Y-64394040D01*
X30855960Y-64233720D01*
X30729997Y-64045203D01*
X30643232Y-63835734D01*
X30599000Y-63613364D01*
X30599000Y-63386636D01*
X30600151Y-63380852D01*
X30643232Y-63164267D01*
X30648494Y-63151564D01*
X30729997Y-62954797D01*
X30855960Y-62766280D01*
X31016280Y-62605960D01*
X31204797Y-62479997D01*
X31414266Y-62393232D01*
X31548029Y-62366625D01*
X31636635Y-62349000D01*
X31863365Y-62349000D01*
X31951971Y-62366625D01*
G37*
G36*
X46661564Y-61834389D02*
G01*
X46852833Y-61913615D01*
X46852835Y-61913616D01*
X47002132Y-62013373D01*
X47024973Y-62028635D01*
X47171365Y-62175027D01*
X47286385Y-62347167D01*
X47365611Y-62538436D01*
X47406000Y-62741484D01*
X47406000Y-62948516D01*
X47365611Y-63151564D01*
X47286385Y-63342833D01*
X47286384Y-63342835D01*
X47171365Y-63514973D01*
X47024973Y-63661365D01*
X46852835Y-63776384D01*
X46852834Y-63776385D01*
X46852833Y-63776385D01*
X46661564Y-63855611D01*
X46458516Y-63896000D01*
X46251484Y-63896000D01*
X46048436Y-63855611D01*
X45857167Y-63776385D01*
X45857166Y-63776385D01*
X45857165Y-63776384D01*
X45685027Y-63661365D01*
X45538635Y-63514973D01*
X45423616Y-63342835D01*
X45423615Y-63342833D01*
X45344389Y-63151564D01*
X45304000Y-62948516D01*
X45304000Y-62741484D01*
X45344389Y-62538436D01*
X45423615Y-62347167D01*
X45538635Y-62175027D01*
X45685027Y-62028635D01*
X45707868Y-62013373D01*
X45857165Y-61913616D01*
X45857167Y-61913615D01*
X46048436Y-61834389D01*
X46251484Y-61794000D01*
X46458516Y-61794000D01*
X46661564Y-61834389D01*
G37*
G36*
X120885442Y-61295518D02*
G01*
X120951627Y-61302037D01*
X121121466Y-61353557D01*
X121277991Y-61437222D01*
X121313729Y-61466552D01*
X121415186Y-61549814D01*
X121498448Y-61651271D01*
X121527778Y-61687009D01*
X121611443Y-61843534D01*
X121662963Y-62013373D01*
X121680359Y-62190000D01*
X121662963Y-62366627D01*
X121611443Y-62536466D01*
X121527778Y-62692991D01*
X121498448Y-62728729D01*
X121415186Y-62830186D01*
X121313729Y-62913448D01*
X121277991Y-62942778D01*
X121121466Y-63026443D01*
X120951627Y-63077963D01*
X120885443Y-63084481D01*
X120819260Y-63091000D01*
X120480740Y-63091000D01*
X120414557Y-63084481D01*
X120348373Y-63077963D01*
X120178534Y-63026443D01*
X120022009Y-62942778D01*
X119986271Y-62913448D01*
X119884814Y-62830186D01*
X119801552Y-62728729D01*
X119772222Y-62692991D01*
X119688557Y-62536466D01*
X119637037Y-62366627D01*
X119619641Y-62190000D01*
X119637037Y-62013373D01*
X119688557Y-61843534D01*
X119772222Y-61687009D01*
X119801552Y-61651271D01*
X119884814Y-61549814D01*
X119986271Y-61466552D01*
X120022009Y-61437222D01*
X120178534Y-61353557D01*
X120348373Y-61302037D01*
X120414558Y-61295518D01*
X120480740Y-61289000D01*
X120819260Y-61289000D01*
X120885442Y-61295518D01*
G37*
G36*
X121533600Y-58792989D02*
G01*
X121566652Y-58803015D01*
X121597103Y-58819292D01*
X121623799Y-58841201D01*
X121645708Y-58867897D01*
X121661985Y-58898348D01*
X121672011Y-58931400D01*
X121676000Y-58971903D01*
X121676000Y-60408097D01*
X121672011Y-60448600D01*
X121661985Y-60481652D01*
X121645708Y-60512103D01*
X121623799Y-60538799D01*
X121597103Y-60560708D01*
X121566652Y-60576985D01*
X121533600Y-60587011D01*
X121493097Y-60591000D01*
X119806903Y-60591000D01*
X119766400Y-60587011D01*
X119733348Y-60576985D01*
X119702897Y-60560708D01*
X119676201Y-60538799D01*
X119654292Y-60512103D01*
X119638015Y-60481652D01*
X119627989Y-60448600D01*
X119624000Y-60408097D01*
X119624000Y-58971903D01*
X119627989Y-58931400D01*
X119638015Y-58898348D01*
X119654292Y-58867897D01*
X119676201Y-58841201D01*
X119702897Y-58819292D01*
X119733348Y-58803015D01*
X119766400Y-58792989D01*
X119806903Y-58789000D01*
X121493097Y-58789000D01*
X121533600Y-58792989D01*
G37*
G36*
X94863228Y-56331703D02*
G01*
X95018100Y-56395853D01*
X95157481Y-56488985D01*
X95276015Y-56607519D01*
X95369147Y-56746900D01*
X95433297Y-56901772D01*
X95466000Y-57066184D01*
X95466000Y-57233816D01*
X95433297Y-57398228D01*
X95369147Y-57553100D01*
X95276015Y-57692481D01*
X95157481Y-57811015D01*
X95018100Y-57904147D01*
X94863228Y-57968297D01*
X94698816Y-58001000D01*
X94531184Y-58001000D01*
X94366772Y-57968297D01*
X94211900Y-57904147D01*
X94072519Y-57811015D01*
X93953985Y-57692481D01*
X93860853Y-57553100D01*
X93796703Y-57398228D01*
X93764000Y-57233816D01*
X93764000Y-57066184D01*
X93796703Y-56901772D01*
X93860853Y-56746900D01*
X93953985Y-56607519D01*
X94072519Y-56488985D01*
X94211900Y-56395853D01*
X94366772Y-56331703D01*
X94531184Y-56299000D01*
X94698816Y-56299000D01*
X94863228Y-56331703D01*
G37*
G36*
X92323228Y-56331703D02*
G01*
X92478100Y-56395853D01*
X92617481Y-56488985D01*
X92736015Y-56607519D01*
X92829147Y-56746900D01*
X92893297Y-56901772D01*
X92926000Y-57066184D01*
X92926000Y-57233816D01*
X92893297Y-57398228D01*
X92829147Y-57553100D01*
X92736015Y-57692481D01*
X92617481Y-57811015D01*
X92478100Y-57904147D01*
X92323228Y-57968297D01*
X92158816Y-58001000D01*
X91991184Y-58001000D01*
X91826772Y-57968297D01*
X91671900Y-57904147D01*
X91532519Y-57811015D01*
X91413985Y-57692481D01*
X91320853Y-57553100D01*
X91256703Y-57398228D01*
X91224000Y-57233816D01*
X91224000Y-57066184D01*
X91256703Y-56901772D01*
X91320853Y-56746900D01*
X91413985Y-56607519D01*
X91532519Y-56488985D01*
X91671900Y-56395853D01*
X91826772Y-56331703D01*
X91991184Y-56299000D01*
X92158816Y-56299000D01*
X92323228Y-56331703D01*
G37*
G36*
X89783228Y-56331703D02*
G01*
X89938100Y-56395853D01*
X90077481Y-56488985D01*
X90196015Y-56607519D01*
X90289147Y-56746900D01*
X90353297Y-56901772D01*
X90386000Y-57066184D01*
X90386000Y-57233816D01*
X90353297Y-57398228D01*
X90289147Y-57553100D01*
X90196015Y-57692481D01*
X90077481Y-57811015D01*
X89938100Y-57904147D01*
X89783228Y-57968297D01*
X89618816Y-58001000D01*
X89451184Y-58001000D01*
X89286772Y-57968297D01*
X89131900Y-57904147D01*
X88992519Y-57811015D01*
X88873985Y-57692481D01*
X88780853Y-57553100D01*
X88716703Y-57398228D01*
X88684000Y-57233816D01*
X88684000Y-57066184D01*
X88716703Y-56901772D01*
X88780853Y-56746900D01*
X88873985Y-56607519D01*
X88992519Y-56488985D01*
X89131900Y-56395853D01*
X89286772Y-56331703D01*
X89451184Y-56299000D01*
X89618816Y-56299000D01*
X89783228Y-56331703D01*
G37*
G36*
X87243228Y-56331703D02*
G01*
X87398100Y-56395853D01*
X87537481Y-56488985D01*
X87656015Y-56607519D01*
X87749147Y-56746900D01*
X87813297Y-56901772D01*
X87846000Y-57066184D01*
X87846000Y-57233816D01*
X87813297Y-57398228D01*
X87749147Y-57553100D01*
X87656015Y-57692481D01*
X87537481Y-57811015D01*
X87398100Y-57904147D01*
X87243228Y-57968297D01*
X87078816Y-58001000D01*
X86911184Y-58001000D01*
X86746772Y-57968297D01*
X86591900Y-57904147D01*
X86452519Y-57811015D01*
X86333985Y-57692481D01*
X86240853Y-57553100D01*
X86176703Y-57398228D01*
X86144000Y-57233816D01*
X86144000Y-57066184D01*
X86176703Y-56901772D01*
X86240853Y-56746900D01*
X86333985Y-56607519D01*
X86452519Y-56488985D01*
X86591900Y-56395853D01*
X86746772Y-56331703D01*
X86911184Y-56299000D01*
X87078816Y-56299000D01*
X87243228Y-56331703D01*
G37*
G36*
X84703228Y-56331703D02*
G01*
X84858100Y-56395853D01*
X84997481Y-56488985D01*
X85116015Y-56607519D01*
X85209147Y-56746900D01*
X85273297Y-56901772D01*
X85306000Y-57066184D01*
X85306000Y-57233816D01*
X85273297Y-57398228D01*
X85209147Y-57553100D01*
X85116015Y-57692481D01*
X84997481Y-57811015D01*
X84858100Y-57904147D01*
X84703228Y-57968297D01*
X84538816Y-58001000D01*
X84371184Y-58001000D01*
X84206772Y-57968297D01*
X84051900Y-57904147D01*
X83912519Y-57811015D01*
X83793985Y-57692481D01*
X83700853Y-57553100D01*
X83636703Y-57398228D01*
X83604000Y-57233816D01*
X83604000Y-57066184D01*
X83636703Y-56901772D01*
X83700853Y-56746900D01*
X83793985Y-56607519D01*
X83912519Y-56488985D01*
X84051900Y-56395853D01*
X84206772Y-56331703D01*
X84371184Y-56299000D01*
X84538816Y-56299000D01*
X84703228Y-56331703D01*
G37*
G36*
X82163228Y-56331703D02*
G01*
X82318100Y-56395853D01*
X82457481Y-56488985D01*
X82576015Y-56607519D01*
X82669147Y-56746900D01*
X82733297Y-56901772D01*
X82766000Y-57066184D01*
X82766000Y-57233816D01*
X82733297Y-57398228D01*
X82669147Y-57553100D01*
X82576015Y-57692481D01*
X82457481Y-57811015D01*
X82318100Y-57904147D01*
X82163228Y-57968297D01*
X81998816Y-58001000D01*
X81831184Y-58001000D01*
X81666772Y-57968297D01*
X81511900Y-57904147D01*
X81372519Y-57811015D01*
X81253985Y-57692481D01*
X81160853Y-57553100D01*
X81096703Y-57398228D01*
X81064000Y-57233816D01*
X81064000Y-57066184D01*
X81096703Y-56901772D01*
X81160853Y-56746900D01*
X81253985Y-56607519D01*
X81372519Y-56488985D01*
X81511900Y-56395853D01*
X81666772Y-56331703D01*
X81831184Y-56299000D01*
X81998816Y-56299000D01*
X82163228Y-56331703D01*
G37*
G36*
X79623228Y-56331703D02*
G01*
X79778100Y-56395853D01*
X79917481Y-56488985D01*
X80036015Y-56607519D01*
X80129147Y-56746900D01*
X80193297Y-56901772D01*
X80226000Y-57066184D01*
X80226000Y-57233816D01*
X80193297Y-57398228D01*
X80129147Y-57553100D01*
X80036015Y-57692481D01*
X79917481Y-57811015D01*
X79778100Y-57904147D01*
X79623228Y-57968297D01*
X79458816Y-58001000D01*
X79291184Y-58001000D01*
X79126772Y-57968297D01*
X78971900Y-57904147D01*
X78832519Y-57811015D01*
X78713985Y-57692481D01*
X78620853Y-57553100D01*
X78556703Y-57398228D01*
X78524000Y-57233816D01*
X78524000Y-57066184D01*
X78556703Y-56901772D01*
X78620853Y-56746900D01*
X78713985Y-56607519D01*
X78832519Y-56488985D01*
X78971900Y-56395853D01*
X79126772Y-56331703D01*
X79291184Y-56299000D01*
X79458816Y-56299000D01*
X79623228Y-56331703D01*
G37*
G36*
X74543228Y-56331703D02*
G01*
X74698100Y-56395853D01*
X74837481Y-56488985D01*
X74956015Y-56607519D01*
X75049147Y-56746900D01*
X75113297Y-56901772D01*
X75146000Y-57066184D01*
X75146000Y-57233816D01*
X75113297Y-57398228D01*
X75049147Y-57553100D01*
X74956015Y-57692481D01*
X74837481Y-57811015D01*
X74698100Y-57904147D01*
X74543228Y-57968297D01*
X74378816Y-58001000D01*
X74211184Y-58001000D01*
X74046772Y-57968297D01*
X73891900Y-57904147D01*
X73752519Y-57811015D01*
X73633985Y-57692481D01*
X73540853Y-57553100D01*
X73476703Y-57398228D01*
X73444000Y-57233816D01*
X73444000Y-57066184D01*
X73476703Y-56901772D01*
X73540853Y-56746900D01*
X73633985Y-56607519D01*
X73752519Y-56488985D01*
X73891900Y-56395853D01*
X74046772Y-56331703D01*
X74211184Y-56299000D01*
X74378816Y-56299000D01*
X74543228Y-56331703D01*
G37*
G36*
X77083228Y-56331703D02*
G01*
X77238100Y-56395853D01*
X77377481Y-56488985D01*
X77496015Y-56607519D01*
X77589147Y-56746900D01*
X77653297Y-56901772D01*
X77686000Y-57066184D01*
X77686000Y-57233816D01*
X77653297Y-57398228D01*
X77589147Y-57553100D01*
X77496015Y-57692481D01*
X77377481Y-57811015D01*
X77238100Y-57904147D01*
X77083228Y-57968297D01*
X76918816Y-58001000D01*
X76751184Y-58001000D01*
X76586772Y-57968297D01*
X76431900Y-57904147D01*
X76292519Y-57811015D01*
X76173985Y-57692481D01*
X76080853Y-57553100D01*
X76016703Y-57398228D01*
X75984000Y-57233816D01*
X75984000Y-57066184D01*
X76016703Y-56901772D01*
X76080853Y-56746900D01*
X76173985Y-56607519D01*
X76292519Y-56488985D01*
X76431900Y-56395853D01*
X76586772Y-56331703D01*
X76751184Y-56299000D01*
X76918816Y-56299000D01*
X77083228Y-56331703D01*
G37*
G36*
X69463228Y-56331703D02*
G01*
X69618100Y-56395853D01*
X69757481Y-56488985D01*
X69876015Y-56607519D01*
X69969147Y-56746900D01*
X70033297Y-56901772D01*
X70066000Y-57066184D01*
X70066000Y-57233816D01*
X70033297Y-57398228D01*
X69969147Y-57553100D01*
X69876015Y-57692481D01*
X69757481Y-57811015D01*
X69618100Y-57904147D01*
X69463228Y-57968297D01*
X69298816Y-58001000D01*
X69131184Y-58001000D01*
X68966772Y-57968297D01*
X68811900Y-57904147D01*
X68672519Y-57811015D01*
X68553985Y-57692481D01*
X68460853Y-57553100D01*
X68396703Y-57398228D01*
X68364000Y-57233816D01*
X68364000Y-57066184D01*
X68396703Y-56901772D01*
X68460853Y-56746900D01*
X68553985Y-56607519D01*
X68672519Y-56488985D01*
X68811900Y-56395853D01*
X68966772Y-56331703D01*
X69131184Y-56299000D01*
X69298816Y-56299000D01*
X69463228Y-56331703D01*
G37*
G36*
X66923228Y-56331703D02*
G01*
X67078100Y-56395853D01*
X67217481Y-56488985D01*
X67336015Y-56607519D01*
X67429147Y-56746900D01*
X67493297Y-56901772D01*
X67526000Y-57066184D01*
X67526000Y-57233816D01*
X67493297Y-57398228D01*
X67429147Y-57553100D01*
X67336015Y-57692481D01*
X67217481Y-57811015D01*
X67078100Y-57904147D01*
X66923228Y-57968297D01*
X66758816Y-58001000D01*
X66591184Y-58001000D01*
X66426772Y-57968297D01*
X66271900Y-57904147D01*
X66132519Y-57811015D01*
X66013985Y-57692481D01*
X65920853Y-57553100D01*
X65856703Y-57398228D01*
X65824000Y-57233816D01*
X65824000Y-57066184D01*
X65856703Y-56901772D01*
X65920853Y-56746900D01*
X66013985Y-56607519D01*
X66132519Y-56488985D01*
X66271900Y-56395853D01*
X66426772Y-56331703D01*
X66591184Y-56299000D01*
X66758816Y-56299000D01*
X66923228Y-56331703D01*
G37*
G36*
X64693698Y-56306568D02*
G01*
X64761685Y-56327192D01*
X64824335Y-56360679D01*
X64879252Y-56405748D01*
X64924321Y-56460665D01*
X64957808Y-56523315D01*
X64978432Y-56591302D01*
X64986000Y-56668140D01*
X64986000Y-57631860D01*
X64978432Y-57708698D01*
X64957808Y-57776685D01*
X64924321Y-57839335D01*
X64879252Y-57894252D01*
X64824335Y-57939321D01*
X64761685Y-57972808D01*
X64693698Y-57993432D01*
X64616860Y-58001000D01*
X63653140Y-58001000D01*
X63576302Y-57993432D01*
X63508315Y-57972808D01*
X63445665Y-57939321D01*
X63390748Y-57894252D01*
X63345679Y-57839335D01*
X63312192Y-57776685D01*
X63291568Y-57708698D01*
X63284000Y-57631860D01*
X63284000Y-56668140D01*
X63291568Y-56591302D01*
X63312192Y-56523315D01*
X63345679Y-56460665D01*
X63390748Y-56405748D01*
X63445665Y-56360679D01*
X63508315Y-56327192D01*
X63576302Y-56306568D01*
X63653140Y-56299000D01*
X64616860Y-56299000D01*
X64693698Y-56306568D01*
G37*
G36*
X72003228Y-56331703D02*
G01*
X72158100Y-56395853D01*
X72297481Y-56488985D01*
X72416015Y-56607519D01*
X72509147Y-56746900D01*
X72573297Y-56901772D01*
X72606000Y-57066184D01*
X72606000Y-57233816D01*
X72573297Y-57398228D01*
X72509147Y-57553100D01*
X72416015Y-57692481D01*
X72297481Y-57811015D01*
X72158100Y-57904147D01*
X72003228Y-57968297D01*
X71838816Y-58001000D01*
X71671184Y-58001000D01*
X71506772Y-57968297D01*
X71351900Y-57904147D01*
X71212519Y-57811015D01*
X71093985Y-57692481D01*
X71000853Y-57553100D01*
X70936703Y-57398228D01*
X70904000Y-57233816D01*
X70904000Y-57066184D01*
X70936703Y-56901772D01*
X71000853Y-56746900D01*
X71093985Y-56607519D01*
X71212519Y-56488985D01*
X71351900Y-56395853D01*
X71506772Y-56331703D01*
X71671184Y-56299000D01*
X71838816Y-56299000D01*
X72003228Y-56331703D01*
G37*
G36*
X99943228Y-56331703D02*
G01*
X100098100Y-56395853D01*
X100237481Y-56488985D01*
X100356015Y-56607519D01*
X100449147Y-56746900D01*
X100513297Y-56901772D01*
X100546000Y-57066184D01*
X100546000Y-57233816D01*
X100513297Y-57398228D01*
X100449147Y-57553100D01*
X100356015Y-57692481D01*
X100237481Y-57811015D01*
X100098100Y-57904147D01*
X99943228Y-57968297D01*
X99778816Y-58001000D01*
X99611184Y-58001000D01*
X99446772Y-57968297D01*
X99291900Y-57904147D01*
X99152519Y-57811015D01*
X99033985Y-57692481D01*
X98940853Y-57553100D01*
X98876703Y-57398228D01*
X98844000Y-57233816D01*
X98844000Y-57066184D01*
X98876703Y-56901772D01*
X98940853Y-56746900D01*
X99033985Y-56607519D01*
X99152519Y-56488985D01*
X99291900Y-56395853D01*
X99446772Y-56331703D01*
X99611184Y-56299000D01*
X99778816Y-56299000D01*
X99943228Y-56331703D01*
G37*
G36*
X97403228Y-56331703D02*
G01*
X97558100Y-56395853D01*
X97697481Y-56488985D01*
X97816015Y-56607519D01*
X97909147Y-56746900D01*
X97973297Y-56901772D01*
X98006000Y-57066184D01*
X98006000Y-57233816D01*
X97973297Y-57398228D01*
X97909147Y-57553100D01*
X97816015Y-57692481D01*
X97697481Y-57811015D01*
X97558100Y-57904147D01*
X97403228Y-57968297D01*
X97238816Y-58001000D01*
X97071184Y-58001000D01*
X96906772Y-57968297D01*
X96751900Y-57904147D01*
X96612519Y-57811015D01*
X96493985Y-57692481D01*
X96400853Y-57553100D01*
X96336703Y-57398228D01*
X96304000Y-57233816D01*
X96304000Y-57066184D01*
X96336703Y-56901772D01*
X96400853Y-56746900D01*
X96493985Y-56607519D01*
X96612519Y-56488985D01*
X96751900Y-56395853D01*
X96906772Y-56331703D01*
X97071184Y-56299000D01*
X97238816Y-56299000D01*
X97403228Y-56331703D01*
G37*
G36*
X47033210Y-54203489D02*
G01*
X47119950Y-54229802D01*
X47199889Y-54272530D01*
X47269962Y-54330038D01*
X47327470Y-54400111D01*
X47370198Y-54480050D01*
X47396511Y-54566790D01*
X47406000Y-54663140D01*
X47406000Y-55826860D01*
X47396511Y-55923210D01*
X47370198Y-56009950D01*
X47327470Y-56089889D01*
X47269962Y-56159962D01*
X47199889Y-56217470D01*
X47119950Y-56260198D01*
X47033210Y-56286511D01*
X46936860Y-56296000D01*
X45773140Y-56296000D01*
X45676790Y-56286511D01*
X45590050Y-56260198D01*
X45510111Y-56217470D01*
X45440038Y-56159962D01*
X45382530Y-56089889D01*
X45339802Y-56009950D01*
X45313489Y-55923210D01*
X45304000Y-55826860D01*
X45304000Y-54663140D01*
X45313489Y-54566790D01*
X45339802Y-54480050D01*
X45382530Y-54400111D01*
X45440038Y-54330038D01*
X45510111Y-54272530D01*
X45590050Y-54229802D01*
X45676790Y-54203489D01*
X45773140Y-54194000D01*
X46936860Y-54194000D01*
X47033210Y-54203489D01*
G37*
G36*
X32487961Y-52199450D02*
G01*
X32584088Y-52228610D01*
X32672670Y-52275958D01*
X32750318Y-52339682D01*
X32814042Y-52417330D01*
X32861390Y-52505912D01*
X32890550Y-52602039D01*
X32901000Y-52708140D01*
X32901000Y-53971860D01*
X32890550Y-54077961D01*
X32861390Y-54174088D01*
X32814042Y-54262670D01*
X32750318Y-54340318D01*
X32672670Y-54404042D01*
X32584088Y-54451390D01*
X32487961Y-54480550D01*
X32381860Y-54491000D01*
X31118140Y-54491000D01*
X31012039Y-54480550D01*
X30915912Y-54451390D01*
X30827330Y-54404042D01*
X30749682Y-54340318D01*
X30685958Y-54262670D01*
X30638610Y-54174088D01*
X30609450Y-54077961D01*
X30599000Y-53971860D01*
X30599000Y-52708140D01*
X30609450Y-52602039D01*
X30638610Y-52505912D01*
X30685958Y-52417330D01*
X30749682Y-52339682D01*
X30827330Y-52275958D01*
X30915912Y-52228610D01*
X31012039Y-52199450D01*
X31118140Y-52189000D01*
X32381860Y-52189000D01*
X32487961Y-52199450D01*
G37*
G36*
X26436734Y-49164254D02*
G01*
X26579759Y-49207640D01*
X26711563Y-49278091D01*
X26827095Y-49372905D01*
X26921909Y-49488437D01*
X26992360Y-49620241D01*
X27035746Y-49763266D01*
X27051000Y-49918140D01*
X27051000Y-51681860D01*
X27035746Y-51836734D01*
X26992360Y-51979759D01*
X26921909Y-52111563D01*
X26827095Y-52227095D01*
X26711563Y-52321909D01*
X26579759Y-52392360D01*
X26436734Y-52435746D01*
X26281860Y-52451000D01*
X24518140Y-52451000D01*
X24363266Y-52435746D01*
X24220241Y-52392360D01*
X24088437Y-52321909D01*
X23972905Y-52227095D01*
X23878091Y-52111563D01*
X23807640Y-51979759D01*
X23764254Y-51836734D01*
X23749000Y-51681860D01*
X23749000Y-49918140D01*
X23764254Y-49763266D01*
X23807640Y-49620241D01*
X23878091Y-49488437D01*
X23972905Y-49372905D01*
X24088437Y-49278091D01*
X24220241Y-49207640D01*
X24363266Y-49164254D01*
X24518140Y-49149000D01*
X26281860Y-49149000D01*
X26436734Y-49164254D01*
G37*
G36*
X30859434Y-47078686D02*
G01*
X30899284Y-47090774D01*
X30935999Y-47110399D01*
X30968186Y-47136814D01*
X30994601Y-47169001D01*
X31014226Y-47205716D01*
X31026314Y-47245566D01*
X31031000Y-47293141D01*
X31031000Y-47956859D01*
X31026314Y-48004434D01*
X31014226Y-48044284D01*
X30994601Y-48080999D01*
X30968186Y-48113186D01*
X30935999Y-48139601D01*
X30899284Y-48159226D01*
X30859434Y-48171314D01*
X30811859Y-48176000D01*
X30148141Y-48176000D01*
X30100566Y-48171314D01*
X30060716Y-48159226D01*
X30024001Y-48139601D01*
X29991814Y-48113186D01*
X29965399Y-48080999D01*
X29945774Y-48044284D01*
X29933686Y-48004434D01*
X29929000Y-47956859D01*
X29929000Y-47293141D01*
X29933686Y-47245566D01*
X29945774Y-47205716D01*
X29965399Y-47169001D01*
X29991814Y-47136814D01*
X30024001Y-47110399D01*
X30060716Y-47090774D01*
X30100566Y-47078686D01*
X30148141Y-47074000D01*
X30811859Y-47074000D01*
X30859434Y-47078686D01*
G37*
G36*
X28319434Y-47078686D02*
G01*
X28359284Y-47090774D01*
X28395999Y-47110399D01*
X28428186Y-47136814D01*
X28454601Y-47169001D01*
X28474226Y-47205716D01*
X28486314Y-47245566D01*
X28491000Y-47293141D01*
X28491000Y-47956859D01*
X28486314Y-48004434D01*
X28474226Y-48044284D01*
X28454601Y-48080999D01*
X28428186Y-48113186D01*
X28395999Y-48139601D01*
X28359284Y-48159226D01*
X28319434Y-48171314D01*
X28271859Y-48176000D01*
X27608141Y-48176000D01*
X27560566Y-48171314D01*
X27520716Y-48159226D01*
X27484001Y-48139601D01*
X27451814Y-48113186D01*
X27425399Y-48080999D01*
X27405774Y-48044284D01*
X27393686Y-48004434D01*
X27389000Y-47956859D01*
X27389000Y-47293141D01*
X27393686Y-47245566D01*
X27405774Y-47205716D01*
X27425399Y-47169001D01*
X27451814Y-47136814D01*
X27484001Y-47110399D01*
X27520716Y-47090774D01*
X27560566Y-47078686D01*
X27608141Y-47074000D01*
X28271859Y-47074000D01*
X28319434Y-47078686D01*
G37*
G36*
X79328578Y-44827048D02*
G01*
X79401249Y-44849093D01*
X79468225Y-44884892D01*
X79526930Y-44933070D01*
X79575108Y-44991775D01*
X79610907Y-45058751D01*
X79632952Y-45131422D01*
X79641000Y-45213140D01*
X79641000Y-46226860D01*
X79632952Y-46308578D01*
X79610907Y-46381249D01*
X79575108Y-46448225D01*
X79526930Y-46506930D01*
X79468225Y-46555108D01*
X79401249Y-46590907D01*
X79328578Y-46612952D01*
X79246860Y-46621000D01*
X78233140Y-46621000D01*
X78151422Y-46612952D01*
X78078751Y-46590907D01*
X78011775Y-46555108D01*
X77953070Y-46506930D01*
X77904892Y-46448225D01*
X77869093Y-46381249D01*
X77847048Y-46308578D01*
X77839000Y-46226860D01*
X77839000Y-45213140D01*
X77847048Y-45131422D01*
X77869093Y-45058751D01*
X77904892Y-44991775D01*
X77953070Y-44933070D01*
X78011775Y-44884892D01*
X78078751Y-44849093D01*
X78151422Y-44827048D01*
X78233140Y-44819000D01*
X79246860Y-44819000D01*
X79328578Y-44827048D01*
G37*
G36*
X76313512Y-44823927D02*
G01*
X76462812Y-44853624D01*
X76626784Y-44921544D01*
X76774354Y-45020147D01*
X76899853Y-45145646D01*
X76998456Y-45293216D01*
X77066376Y-45457188D01*
X77101000Y-45631259D01*
X77101000Y-45808741D01*
X77066376Y-45982812D01*
X76998456Y-46146784D01*
X76899853Y-46294354D01*
X76774354Y-46419853D01*
X76626784Y-46518456D01*
X76462812Y-46586376D01*
X76313512Y-46616073D01*
X76288742Y-46621000D01*
X76111258Y-46621000D01*
X76086488Y-46616073D01*
X75937188Y-46586376D01*
X75773216Y-46518456D01*
X75625646Y-46419853D01*
X75500147Y-46294354D01*
X75401544Y-46146784D01*
X75333624Y-45982812D01*
X75299000Y-45808741D01*
X75299000Y-45631259D01*
X75333624Y-45457188D01*
X75401544Y-45293216D01*
X75500147Y-45145646D01*
X75625646Y-45020147D01*
X75773216Y-44921544D01*
X75937188Y-44853624D01*
X76086488Y-44823927D01*
X76111258Y-44819000D01*
X76288742Y-44819000D01*
X76313512Y-44823927D01*
G37*
G36*
X120885442Y-42165518D02*
G01*
X120951627Y-42172037D01*
X121121466Y-42223557D01*
X121277991Y-42307222D01*
X121285153Y-42313100D01*
X121415186Y-42419814D01*
X121498448Y-42521271D01*
X121527778Y-42557009D01*
X121611443Y-42713534D01*
X121662963Y-42883373D01*
X121680359Y-43060000D01*
X121662963Y-43236627D01*
X121611443Y-43406466D01*
X121527778Y-43562991D01*
X121498448Y-43598729D01*
X121415186Y-43700186D01*
X121313729Y-43783448D01*
X121277991Y-43812778D01*
X121121466Y-43896443D01*
X120951627Y-43947963D01*
X120885442Y-43954482D01*
X120819260Y-43961000D01*
X120480740Y-43961000D01*
X120414558Y-43954482D01*
X120348373Y-43947963D01*
X120178534Y-43896443D01*
X120022009Y-43812778D01*
X119986271Y-43783448D01*
X119884814Y-43700186D01*
X119801552Y-43598729D01*
X119772222Y-43562991D01*
X119688557Y-43406466D01*
X119637037Y-43236627D01*
X119619641Y-43060000D01*
X119637037Y-42883373D01*
X119688557Y-42713534D01*
X119772222Y-42557009D01*
X119801552Y-42521271D01*
X119884814Y-42419814D01*
X120014847Y-42313100D01*
X120022009Y-42307222D01*
X120178534Y-42223557D01*
X120348373Y-42172037D01*
X120414558Y-42165518D01*
X120480740Y-42159000D01*
X120819260Y-42159000D01*
X120885442Y-42165518D01*
G37*
G36*
X44143228Y-41726703D02*
G01*
X44298100Y-41790853D01*
X44437481Y-41883985D01*
X44556015Y-42002519D01*
X44649147Y-42141900D01*
X44713297Y-42296772D01*
X44746000Y-42461184D01*
X44746000Y-42628816D01*
X44713297Y-42793228D01*
X44649147Y-42948100D01*
X44556015Y-43087481D01*
X44437481Y-43206015D01*
X44298100Y-43299147D01*
X44143228Y-43363297D01*
X43978816Y-43396000D01*
X43811184Y-43396000D01*
X43646772Y-43363297D01*
X43491900Y-43299147D01*
X43352519Y-43206015D01*
X43233985Y-43087481D01*
X43140853Y-42948100D01*
X43076703Y-42793228D01*
X43044000Y-42628816D01*
X43044000Y-42461184D01*
X43076703Y-42296772D01*
X43140853Y-42141900D01*
X43233985Y-42002519D01*
X43352519Y-41883985D01*
X43491900Y-41790853D01*
X43646772Y-41726703D01*
X43811184Y-41694000D01*
X43978816Y-41694000D01*
X44143228Y-41726703D01*
G37*
G36*
X49143228Y-41726703D02*
G01*
X49298100Y-41790853D01*
X49437481Y-41883985D01*
X49556015Y-42002519D01*
X49649147Y-42141900D01*
X49713297Y-42296772D01*
X49746000Y-42461184D01*
X49746000Y-42628816D01*
X49713297Y-42793228D01*
X49649147Y-42948100D01*
X49556015Y-43087481D01*
X49437481Y-43206015D01*
X49298100Y-43299147D01*
X49143228Y-43363297D01*
X48978816Y-43396000D01*
X48811184Y-43396000D01*
X48646772Y-43363297D01*
X48491900Y-43299147D01*
X48352519Y-43206015D01*
X48233985Y-43087481D01*
X48140853Y-42948100D01*
X48076703Y-42793228D01*
X48044000Y-42628816D01*
X48044000Y-42461184D01*
X48076703Y-42296772D01*
X48140853Y-42141900D01*
X48233985Y-42002519D01*
X48352519Y-41883985D01*
X48491900Y-41790853D01*
X48646772Y-41726703D01*
X48811184Y-41694000D01*
X48978816Y-41694000D01*
X49143228Y-41726703D01*
G37*
G36*
X99943228Y-41091703D02*
G01*
X100098100Y-41155853D01*
X100237481Y-41248985D01*
X100356015Y-41367519D01*
X100449147Y-41506900D01*
X100513297Y-41661772D01*
X100546000Y-41826184D01*
X100546000Y-41993816D01*
X100513297Y-42158228D01*
X100449147Y-42313100D01*
X100356015Y-42452481D01*
X100237481Y-42571015D01*
X100098100Y-42664147D01*
X99943228Y-42728297D01*
X99778816Y-42761000D01*
X99611184Y-42761000D01*
X99446772Y-42728297D01*
X99291900Y-42664147D01*
X99152519Y-42571015D01*
X99033985Y-42452481D01*
X98940853Y-42313100D01*
X98876703Y-42158228D01*
X98844000Y-41993816D01*
X98844000Y-41826184D01*
X98876703Y-41661772D01*
X98940853Y-41506900D01*
X99033985Y-41367519D01*
X99152519Y-41248985D01*
X99291900Y-41155853D01*
X99446772Y-41091703D01*
X99611184Y-41059000D01*
X99778816Y-41059000D01*
X99943228Y-41091703D01*
G37*
G36*
X69463228Y-41091703D02*
G01*
X69618100Y-41155853D01*
X69757481Y-41248985D01*
X69876015Y-41367519D01*
X69969147Y-41506900D01*
X70033297Y-41661772D01*
X70066000Y-41826184D01*
X70066000Y-41993816D01*
X70033297Y-42158228D01*
X69969147Y-42313100D01*
X69876015Y-42452481D01*
X69757481Y-42571015D01*
X69618100Y-42664147D01*
X69463228Y-42728297D01*
X69298816Y-42761000D01*
X69131184Y-42761000D01*
X68966772Y-42728297D01*
X68811900Y-42664147D01*
X68672519Y-42571015D01*
X68553985Y-42452481D01*
X68460853Y-42313100D01*
X68396703Y-42158228D01*
X68364000Y-41993816D01*
X68364000Y-41826184D01*
X68396703Y-41661772D01*
X68460853Y-41506900D01*
X68553985Y-41367519D01*
X68672519Y-41248985D01*
X68811900Y-41155853D01*
X68966772Y-41091703D01*
X69131184Y-41059000D01*
X69298816Y-41059000D01*
X69463228Y-41091703D01*
G37*
G36*
X84703228Y-41091703D02*
G01*
X84858100Y-41155853D01*
X84997481Y-41248985D01*
X85116015Y-41367519D01*
X85209147Y-41506900D01*
X85273297Y-41661772D01*
X85306000Y-41826184D01*
X85306000Y-41993816D01*
X85273297Y-42158228D01*
X85209147Y-42313100D01*
X85116015Y-42452481D01*
X84997481Y-42571015D01*
X84858100Y-42664147D01*
X84703228Y-42728297D01*
X84538816Y-42761000D01*
X84371184Y-42761000D01*
X84206772Y-42728297D01*
X84051900Y-42664147D01*
X83912519Y-42571015D01*
X83793985Y-42452481D01*
X83700853Y-42313100D01*
X83636703Y-42158228D01*
X83604000Y-41993816D01*
X83604000Y-41826184D01*
X83636703Y-41661772D01*
X83700853Y-41506900D01*
X83793985Y-41367519D01*
X83912519Y-41248985D01*
X84051900Y-41155853D01*
X84206772Y-41091703D01*
X84371184Y-41059000D01*
X84538816Y-41059000D01*
X84703228Y-41091703D01*
G37*
G36*
X66923228Y-41091703D02*
G01*
X67078100Y-41155853D01*
X67217481Y-41248985D01*
X67336015Y-41367519D01*
X67429147Y-41506900D01*
X67493297Y-41661772D01*
X67526000Y-41826184D01*
X67526000Y-41993816D01*
X67493297Y-42158228D01*
X67429147Y-42313100D01*
X67336015Y-42452481D01*
X67217481Y-42571015D01*
X67078100Y-42664147D01*
X66923228Y-42728297D01*
X66758816Y-42761000D01*
X66591184Y-42761000D01*
X66426772Y-42728297D01*
X66271900Y-42664147D01*
X66132519Y-42571015D01*
X66013985Y-42452481D01*
X65920853Y-42313100D01*
X65856703Y-42158228D01*
X65824000Y-41993816D01*
X65824000Y-41826184D01*
X65856703Y-41661772D01*
X65920853Y-41506900D01*
X66013985Y-41367519D01*
X66132519Y-41248985D01*
X66271900Y-41155853D01*
X66426772Y-41091703D01*
X66591184Y-41059000D01*
X66758816Y-41059000D01*
X66923228Y-41091703D01*
G37*
G36*
X64383228Y-41091703D02*
G01*
X64538100Y-41155853D01*
X64677481Y-41248985D01*
X64796015Y-41367519D01*
X64889147Y-41506900D01*
X64953297Y-41661772D01*
X64986000Y-41826184D01*
X64986000Y-41993816D01*
X64953297Y-42158228D01*
X64889147Y-42313100D01*
X64796015Y-42452481D01*
X64677481Y-42571015D01*
X64538100Y-42664147D01*
X64383228Y-42728297D01*
X64218816Y-42761000D01*
X64051184Y-42761000D01*
X63886772Y-42728297D01*
X63731900Y-42664147D01*
X63592519Y-42571015D01*
X63473985Y-42452481D01*
X63380853Y-42313100D01*
X63316703Y-42158228D01*
X63284000Y-41993816D01*
X63284000Y-41826184D01*
X63316703Y-41661772D01*
X63380853Y-41506900D01*
X63473985Y-41367519D01*
X63592519Y-41248985D01*
X63731900Y-41155853D01*
X63886772Y-41091703D01*
X64051184Y-41059000D01*
X64218816Y-41059000D01*
X64383228Y-41091703D01*
G37*
G36*
X72003228Y-41091703D02*
G01*
X72158100Y-41155853D01*
X72297481Y-41248985D01*
X72416015Y-41367519D01*
X72509147Y-41506900D01*
X72573297Y-41661772D01*
X72606000Y-41826184D01*
X72606000Y-41993816D01*
X72573297Y-42158228D01*
X72509147Y-42313100D01*
X72416015Y-42452481D01*
X72297481Y-42571015D01*
X72158100Y-42664147D01*
X72003228Y-42728297D01*
X71838816Y-42761000D01*
X71671184Y-42761000D01*
X71506772Y-42728297D01*
X71351900Y-42664147D01*
X71212519Y-42571015D01*
X71093985Y-42452481D01*
X71000853Y-42313100D01*
X70936703Y-42158228D01*
X70904000Y-41993816D01*
X70904000Y-41826184D01*
X70936703Y-41661772D01*
X71000853Y-41506900D01*
X71093985Y-41367519D01*
X71212519Y-41248985D01*
X71351900Y-41155853D01*
X71506772Y-41091703D01*
X71671184Y-41059000D01*
X71838816Y-41059000D01*
X72003228Y-41091703D01*
G37*
G36*
X97403228Y-41091703D02*
G01*
X97558100Y-41155853D01*
X97697481Y-41248985D01*
X97816015Y-41367519D01*
X97909147Y-41506900D01*
X97973297Y-41661772D01*
X98006000Y-41826184D01*
X98006000Y-41993816D01*
X97973297Y-42158228D01*
X97909147Y-42313100D01*
X97816015Y-42452481D01*
X97697481Y-42571015D01*
X97558100Y-42664147D01*
X97403228Y-42728297D01*
X97238816Y-42761000D01*
X97071184Y-42761000D01*
X96906772Y-42728297D01*
X96751900Y-42664147D01*
X96612519Y-42571015D01*
X96493985Y-42452481D01*
X96400853Y-42313100D01*
X96336703Y-42158228D01*
X96304000Y-41993816D01*
X96304000Y-41826184D01*
X96336703Y-41661772D01*
X96400853Y-41506900D01*
X96493985Y-41367519D01*
X96612519Y-41248985D01*
X96751900Y-41155853D01*
X96906772Y-41091703D01*
X97071184Y-41059000D01*
X97238816Y-41059000D01*
X97403228Y-41091703D01*
G37*
G36*
X94863228Y-41091703D02*
G01*
X95018100Y-41155853D01*
X95157481Y-41248985D01*
X95276015Y-41367519D01*
X95369147Y-41506900D01*
X95433297Y-41661772D01*
X95466000Y-41826184D01*
X95466000Y-41993816D01*
X95433297Y-42158228D01*
X95369147Y-42313100D01*
X95276015Y-42452481D01*
X95157481Y-42571015D01*
X95018100Y-42664147D01*
X94863228Y-42728297D01*
X94698816Y-42761000D01*
X94531184Y-42761000D01*
X94366772Y-42728297D01*
X94211900Y-42664147D01*
X94072519Y-42571015D01*
X93953985Y-42452481D01*
X93860853Y-42313100D01*
X93796703Y-42158228D01*
X93764000Y-41993816D01*
X93764000Y-41826184D01*
X93796703Y-41661772D01*
X93860853Y-41506900D01*
X93953985Y-41367519D01*
X94072519Y-41248985D01*
X94211900Y-41155853D01*
X94366772Y-41091703D01*
X94531184Y-41059000D01*
X94698816Y-41059000D01*
X94863228Y-41091703D01*
G37*
G36*
X89783228Y-41091703D02*
G01*
X89938100Y-41155853D01*
X90077481Y-41248985D01*
X90196015Y-41367519D01*
X90289147Y-41506900D01*
X90353297Y-41661772D01*
X90386000Y-41826184D01*
X90386000Y-41993816D01*
X90353297Y-42158228D01*
X90289147Y-42313100D01*
X90196015Y-42452481D01*
X90077481Y-42571015D01*
X89938100Y-42664147D01*
X89783228Y-42728297D01*
X89618816Y-42761000D01*
X89451184Y-42761000D01*
X89286772Y-42728297D01*
X89131900Y-42664147D01*
X88992519Y-42571015D01*
X88873985Y-42452481D01*
X88780853Y-42313100D01*
X88716703Y-42158228D01*
X88684000Y-41993816D01*
X88684000Y-41826184D01*
X88716703Y-41661772D01*
X88780853Y-41506900D01*
X88873985Y-41367519D01*
X88992519Y-41248985D01*
X89131900Y-41155853D01*
X89286772Y-41091703D01*
X89451184Y-41059000D01*
X89618816Y-41059000D01*
X89783228Y-41091703D01*
G37*
G36*
X74543228Y-41091703D02*
G01*
X74698100Y-41155853D01*
X74837481Y-41248985D01*
X74956015Y-41367519D01*
X75049147Y-41506900D01*
X75113297Y-41661772D01*
X75146000Y-41826184D01*
X75146000Y-41993816D01*
X75113297Y-42158228D01*
X75049147Y-42313100D01*
X74956015Y-42452481D01*
X74837481Y-42571015D01*
X74698100Y-42664147D01*
X74543228Y-42728297D01*
X74378816Y-42761000D01*
X74211184Y-42761000D01*
X74046772Y-42728297D01*
X73891900Y-42664147D01*
X73752519Y-42571015D01*
X73633985Y-42452481D01*
X73540853Y-42313100D01*
X73476703Y-42158228D01*
X73444000Y-41993816D01*
X73444000Y-41826184D01*
X73476703Y-41661772D01*
X73540853Y-41506900D01*
X73633985Y-41367519D01*
X73752519Y-41248985D01*
X73891900Y-41155853D01*
X74046772Y-41091703D01*
X74211184Y-41059000D01*
X74378816Y-41059000D01*
X74543228Y-41091703D01*
G37*
G36*
X92323228Y-41091703D02*
G01*
X92478100Y-41155853D01*
X92617481Y-41248985D01*
X92736015Y-41367519D01*
X92829147Y-41506900D01*
X92893297Y-41661772D01*
X92926000Y-41826184D01*
X92926000Y-41993816D01*
X92893297Y-42158228D01*
X92829147Y-42313100D01*
X92736015Y-42452481D01*
X92617481Y-42571015D01*
X92478100Y-42664147D01*
X92323228Y-42728297D01*
X92158816Y-42761000D01*
X91991184Y-42761000D01*
X91826772Y-42728297D01*
X91671900Y-42664147D01*
X91532519Y-42571015D01*
X91413985Y-42452481D01*
X91320853Y-42313100D01*
X91256703Y-42158228D01*
X91224000Y-41993816D01*
X91224000Y-41826184D01*
X91256703Y-41661772D01*
X91320853Y-41506900D01*
X91413985Y-41367519D01*
X91532519Y-41248985D01*
X91671900Y-41155853D01*
X91826772Y-41091703D01*
X91991184Y-41059000D01*
X92158816Y-41059000D01*
X92323228Y-41091703D01*
G37*
G36*
X77083228Y-41091703D02*
G01*
X77238100Y-41155853D01*
X77377481Y-41248985D01*
X77496015Y-41367519D01*
X77589147Y-41506900D01*
X77653297Y-41661772D01*
X77686000Y-41826184D01*
X77686000Y-41993816D01*
X77653297Y-42158228D01*
X77589147Y-42313100D01*
X77496015Y-42452481D01*
X77377481Y-42571015D01*
X77238100Y-42664147D01*
X77083228Y-42728297D01*
X76918816Y-42761000D01*
X76751184Y-42761000D01*
X76586772Y-42728297D01*
X76431900Y-42664147D01*
X76292519Y-42571015D01*
X76173985Y-42452481D01*
X76080853Y-42313100D01*
X76016703Y-42158228D01*
X75984000Y-41993816D01*
X75984000Y-41826184D01*
X76016703Y-41661772D01*
X76080853Y-41506900D01*
X76173985Y-41367519D01*
X76292519Y-41248985D01*
X76431900Y-41155853D01*
X76586772Y-41091703D01*
X76751184Y-41059000D01*
X76918816Y-41059000D01*
X77083228Y-41091703D01*
G37*
G36*
X87243228Y-41091703D02*
G01*
X87398100Y-41155853D01*
X87537481Y-41248985D01*
X87656015Y-41367519D01*
X87749147Y-41506900D01*
X87813297Y-41661772D01*
X87846000Y-41826184D01*
X87846000Y-41993816D01*
X87813297Y-42158228D01*
X87749147Y-42313100D01*
X87656015Y-42452481D01*
X87537481Y-42571015D01*
X87398100Y-42664147D01*
X87243228Y-42728297D01*
X87078816Y-42761000D01*
X86911184Y-42761000D01*
X86746772Y-42728297D01*
X86591900Y-42664147D01*
X86452519Y-42571015D01*
X86333985Y-42452481D01*
X86240853Y-42313100D01*
X86176703Y-42158228D01*
X86144000Y-41993816D01*
X86144000Y-41826184D01*
X86176703Y-41661772D01*
X86240853Y-41506900D01*
X86333985Y-41367519D01*
X86452519Y-41248985D01*
X86591900Y-41155853D01*
X86746772Y-41091703D01*
X86911184Y-41059000D01*
X87078816Y-41059000D01*
X87243228Y-41091703D01*
G37*
G36*
X82163228Y-41091703D02*
G01*
X82318100Y-41155853D01*
X82457481Y-41248985D01*
X82576015Y-41367519D01*
X82669147Y-41506900D01*
X82733297Y-41661772D01*
X82766000Y-41826184D01*
X82766000Y-41993816D01*
X82733297Y-42158228D01*
X82669147Y-42313100D01*
X82576015Y-42452481D01*
X82457481Y-42571015D01*
X82318100Y-42664147D01*
X82163228Y-42728297D01*
X81998816Y-42761000D01*
X81831184Y-42761000D01*
X81666772Y-42728297D01*
X81511900Y-42664147D01*
X81372519Y-42571015D01*
X81253985Y-42452481D01*
X81160853Y-42313100D01*
X81096703Y-42158228D01*
X81064000Y-41993816D01*
X81064000Y-41826184D01*
X81096703Y-41661772D01*
X81160853Y-41506900D01*
X81253985Y-41367519D01*
X81372519Y-41248985D01*
X81511900Y-41155853D01*
X81666772Y-41091703D01*
X81831184Y-41059000D01*
X81998816Y-41059000D01*
X82163228Y-41091703D01*
G37*
G36*
X79623228Y-41091703D02*
G01*
X79778100Y-41155853D01*
X79917481Y-41248985D01*
X80036015Y-41367519D01*
X80129147Y-41506900D01*
X80193297Y-41661772D01*
X80226000Y-41826184D01*
X80226000Y-41993816D01*
X80193297Y-42158228D01*
X80129147Y-42313100D01*
X80036015Y-42452481D01*
X79917481Y-42571015D01*
X79778100Y-42664147D01*
X79623228Y-42728297D01*
X79458816Y-42761000D01*
X79291184Y-42761000D01*
X79126772Y-42728297D01*
X78971900Y-42664147D01*
X78832519Y-42571015D01*
X78713985Y-42452481D01*
X78620853Y-42313100D01*
X78556703Y-42158228D01*
X78524000Y-41993816D01*
X78524000Y-41826184D01*
X78556703Y-41661772D01*
X78620853Y-41506900D01*
X78713985Y-41367519D01*
X78832519Y-41248985D01*
X78971900Y-41155853D01*
X79126772Y-41091703D01*
X79291184Y-41059000D01*
X79458816Y-41059000D01*
X79623228Y-41091703D01*
G37*
G36*
X120885443Y-39665519D02*
G01*
X120951627Y-39672037D01*
X121121466Y-39723557D01*
X121277991Y-39807222D01*
X121313729Y-39836552D01*
X121415186Y-39919814D01*
X121498448Y-40021271D01*
X121527778Y-40057009D01*
X121611443Y-40213534D01*
X121662963Y-40383373D01*
X121680359Y-40560000D01*
X121662963Y-40736627D01*
X121611443Y-40906466D01*
X121527778Y-41062991D01*
X121504213Y-41091705D01*
X121415186Y-41200186D01*
X121313729Y-41283448D01*
X121277991Y-41312778D01*
X121121466Y-41396443D01*
X120951627Y-41447963D01*
X120885442Y-41454482D01*
X120819260Y-41461000D01*
X120480740Y-41461000D01*
X120414557Y-41454481D01*
X120348373Y-41447963D01*
X120178534Y-41396443D01*
X120022009Y-41312778D01*
X119986271Y-41283448D01*
X119884814Y-41200186D01*
X119795787Y-41091705D01*
X119772222Y-41062991D01*
X119688557Y-40906466D01*
X119637037Y-40736627D01*
X119619641Y-40560000D01*
X119637037Y-40383373D01*
X119688557Y-40213534D01*
X119772222Y-40057009D01*
X119801552Y-40021271D01*
X119884814Y-39919814D01*
X119986271Y-39836552D01*
X120022009Y-39807222D01*
X120178534Y-39723557D01*
X120348373Y-39672037D01*
X120414557Y-39665519D01*
X120480740Y-39659000D01*
X120819260Y-39659000D01*
X120885443Y-39665519D01*
G37*
G36*
X72343578Y-37207048D02*
G01*
X72416249Y-37229093D01*
X72483225Y-37264892D01*
X72541930Y-37313070D01*
X72590108Y-37371775D01*
X72625907Y-37438751D01*
X72647952Y-37511422D01*
X72656000Y-37593140D01*
X72656000Y-38606860D01*
X72647952Y-38688578D01*
X72625907Y-38761249D01*
X72590108Y-38828225D01*
X72541930Y-38886930D01*
X72483225Y-38935108D01*
X72416249Y-38970907D01*
X72343578Y-38992952D01*
X72261860Y-39001000D01*
X71248140Y-39001000D01*
X71166422Y-38992952D01*
X71093751Y-38970907D01*
X71026775Y-38935108D01*
X70968070Y-38886930D01*
X70919892Y-38828225D01*
X70884093Y-38761249D01*
X70862048Y-38688578D01*
X70854000Y-38606860D01*
X70854000Y-37593140D01*
X70862048Y-37511422D01*
X70884093Y-37438751D01*
X70919892Y-37371775D01*
X70968070Y-37313070D01*
X71026775Y-37264892D01*
X71093751Y-37229093D01*
X71166422Y-37207048D01*
X71248140Y-37199000D01*
X72261860Y-37199000D01*
X72343578Y-37207048D01*
G37*
G36*
X69328512Y-37203927D02*
G01*
X69477812Y-37233624D01*
X69641784Y-37301544D01*
X69789354Y-37400147D01*
X69914853Y-37525646D01*
X70013456Y-37673216D01*
X70081376Y-37837188D01*
X70116000Y-38011259D01*
X70116000Y-38188741D01*
X70081376Y-38362812D01*
X70013456Y-38526784D01*
X69914853Y-38674354D01*
X69789354Y-38799853D01*
X69641784Y-38898456D01*
X69477812Y-38966376D01*
X69328512Y-38996073D01*
X69303742Y-39001000D01*
X69126258Y-39001000D01*
X69101488Y-38996073D01*
X68952188Y-38966376D01*
X68788216Y-38898456D01*
X68640646Y-38799853D01*
X68515147Y-38674354D01*
X68416544Y-38526784D01*
X68348624Y-38362812D01*
X68314000Y-38188741D01*
X68314000Y-38011259D01*
X68348624Y-37837188D01*
X68416544Y-37673216D01*
X68515147Y-37525646D01*
X68640646Y-37400147D01*
X68788216Y-37301544D01*
X68952188Y-37233624D01*
X69101488Y-37203927D01*
X69126258Y-37199000D01*
X69303742Y-37199000D01*
X69328512Y-37203927D01*
G37*
G36*
X120885442Y-37165518D02*
G01*
X120951627Y-37172037D01*
X121121466Y-37223557D01*
X121277991Y-37307222D01*
X121306901Y-37330948D01*
X121415186Y-37419814D01*
X121498448Y-37521271D01*
X121527778Y-37557009D01*
X121527779Y-37557011D01*
X121589894Y-37673218D01*
X121611443Y-37713534D01*
X121662963Y-37883373D01*
X121680359Y-38060000D01*
X121662963Y-38236627D01*
X121611443Y-38406466D01*
X121527778Y-38562991D01*
X121498448Y-38598729D01*
X121415186Y-38700186D01*
X121340779Y-38761249D01*
X121277991Y-38812778D01*
X121277989Y-38812779D01*
X121139264Y-38886930D01*
X121121466Y-38896443D01*
X120951627Y-38947963D01*
X120885443Y-38954481D01*
X120819260Y-38961000D01*
X120480740Y-38961000D01*
X120414557Y-38954481D01*
X120348373Y-38947963D01*
X120178534Y-38896443D01*
X120160737Y-38886930D01*
X120022011Y-38812779D01*
X120022009Y-38812778D01*
X119959221Y-38761249D01*
X119884814Y-38700186D01*
X119801552Y-38598729D01*
X119772222Y-38562991D01*
X119688557Y-38406466D01*
X119637037Y-38236627D01*
X119619641Y-38060000D01*
X119637037Y-37883373D01*
X119688557Y-37713534D01*
X119710107Y-37673218D01*
X119772221Y-37557011D01*
X119772222Y-37557009D01*
X119801552Y-37521271D01*
X119884814Y-37419814D01*
X119993099Y-37330948D01*
X120022009Y-37307222D01*
X120178534Y-37223557D01*
X120348373Y-37172037D01*
X120414558Y-37165518D01*
X120480740Y-37159000D01*
X120819260Y-37159000D01*
X120885442Y-37165518D01*
G37*
G36*
X56104549Y-34431116D02*
G01*
X56215734Y-34453232D01*
X56425203Y-34539997D01*
X56613720Y-34665960D01*
X56774040Y-34826280D01*
X56900003Y-35014797D01*
X56986768Y-35224266D01*
X57031000Y-35446636D01*
X57031000Y-35673364D01*
X56986768Y-35895734D01*
X56900003Y-36105203D01*
X56774040Y-36293720D01*
X56613720Y-36454040D01*
X56425203Y-36580003D01*
X56215734Y-36666768D01*
X56104549Y-36688884D01*
X55993365Y-36711000D01*
X55766635Y-36711000D01*
X55655451Y-36688884D01*
X55544266Y-36666768D01*
X55334797Y-36580003D01*
X55146280Y-36454040D01*
X54985960Y-36293720D01*
X54859997Y-36105203D01*
X54773232Y-35895734D01*
X54729000Y-35673364D01*
X54729000Y-35446636D01*
X54773232Y-35224266D01*
X54859997Y-35014797D01*
X54985960Y-34826280D01*
X55146280Y-34665960D01*
X55334797Y-34539997D01*
X55544266Y-34453232D01*
X55655451Y-34431116D01*
X55766635Y-34409000D01*
X55993365Y-34409000D01*
X56104549Y-34431116D01*
G37*
G36*
X121533600Y-34662989D02*
G01*
X121566652Y-34673015D01*
X121597103Y-34689292D01*
X121623799Y-34711201D01*
X121645708Y-34737897D01*
X121661985Y-34768348D01*
X121672011Y-34801400D01*
X121676000Y-34841903D01*
X121676000Y-36278097D01*
X121672011Y-36318600D01*
X121661985Y-36351652D01*
X121645708Y-36382103D01*
X121623799Y-36408799D01*
X121597103Y-36430708D01*
X121566652Y-36446985D01*
X121533600Y-36457011D01*
X121493097Y-36461000D01*
X119806903Y-36461000D01*
X119766400Y-36457011D01*
X119733348Y-36446985D01*
X119702897Y-36430708D01*
X119676201Y-36408799D01*
X119654292Y-36382103D01*
X119638015Y-36351652D01*
X119627989Y-36318600D01*
X119624000Y-36278097D01*
X119624000Y-34841903D01*
X119627989Y-34801400D01*
X119638015Y-34768348D01*
X119654292Y-34737897D01*
X119676201Y-34711201D01*
X119702897Y-34689292D01*
X119733348Y-34673015D01*
X119766400Y-34662989D01*
X119806903Y-34659000D01*
X121493097Y-34659000D01*
X121533600Y-34662989D01*
G37*
G36*
X114888578Y-30222048D02*
G01*
X114961249Y-30244093D01*
X115028225Y-30279892D01*
X115086930Y-30328070D01*
X115135108Y-30386775D01*
X115170907Y-30453751D01*
X115192952Y-30526422D01*
X115201000Y-30608140D01*
X115201000Y-31621860D01*
X115192952Y-31703578D01*
X115170907Y-31776249D01*
X115135108Y-31843225D01*
X115086930Y-31901930D01*
X115028225Y-31950108D01*
X114961249Y-31985907D01*
X114888578Y-32007952D01*
X114806860Y-32016000D01*
X113793140Y-32016000D01*
X113711422Y-32007952D01*
X113638751Y-31985907D01*
X113571775Y-31950108D01*
X113513070Y-31901930D01*
X113464892Y-31843225D01*
X113429093Y-31776249D01*
X113407048Y-31703578D01*
X113399000Y-31621860D01*
X113399000Y-30608140D01*
X113407048Y-30526422D01*
X113429093Y-30453751D01*
X113464892Y-30386775D01*
X113513070Y-30328070D01*
X113571775Y-30279892D01*
X113638751Y-30244093D01*
X113711422Y-30222048D01*
X113793140Y-30214000D01*
X114806860Y-30214000D01*
X114888578Y-30222048D01*
G37*
G36*
X114413512Y-27678927D02*
G01*
X114562812Y-27708624D01*
X114726784Y-27776544D01*
X114874354Y-27875147D01*
X114999853Y-28000646D01*
X115098456Y-28148216D01*
X115166376Y-28312188D01*
X115201000Y-28486259D01*
X115201000Y-28663741D01*
X115166376Y-28837812D01*
X115098456Y-29001784D01*
X114999853Y-29149354D01*
X114874354Y-29274853D01*
X114726784Y-29373456D01*
X114562812Y-29441376D01*
X114413512Y-29471073D01*
X114388742Y-29476000D01*
X114211258Y-29476000D01*
X114186488Y-29471073D01*
X114037188Y-29441376D01*
X113873216Y-29373456D01*
X113725646Y-29274853D01*
X113600147Y-29149354D01*
X113501544Y-29001784D01*
X113433624Y-28837812D01*
X113399000Y-28663741D01*
X113399000Y-28486259D01*
X113433624Y-28312188D01*
X113501544Y-28148216D01*
X113600147Y-28000646D01*
X113725646Y-27875147D01*
X113873216Y-27776544D01*
X114037188Y-27708624D01*
X114186488Y-27678927D01*
X114211258Y-27674000D01*
X114388742Y-27674000D01*
X114413512Y-27678927D01*
G37*
G36*
X23168820Y-27390603D02*
G01*
X23202985Y-27400967D01*
X23234464Y-27417793D01*
X23262060Y-27440440D01*
X23284707Y-27468036D01*
X23301533Y-27499515D01*
X23311897Y-27533680D01*
X23316000Y-27575342D01*
X23316000Y-28824658D01*
X23311897Y-28866320D01*
X23301533Y-28900485D01*
X23284707Y-28931964D01*
X23262060Y-28959560D01*
X23234464Y-28982207D01*
X23202985Y-28999033D01*
X23168820Y-29009397D01*
X23127158Y-29013500D01*
X20052842Y-29013500D01*
X20011180Y-29009397D01*
X19977015Y-28999033D01*
X19945536Y-28982207D01*
X19917940Y-28959560D01*
X19895293Y-28931964D01*
X19878467Y-28900485D01*
X19868103Y-28866320D01*
X19864000Y-28824658D01*
X19864000Y-27575342D01*
X19868103Y-27533680D01*
X19878467Y-27499515D01*
X19895293Y-27468036D01*
X19917940Y-27440440D01*
X19945536Y-27417793D01*
X19977015Y-27400967D01*
X20011180Y-27390603D01*
X20052842Y-27386500D01*
X23127158Y-27386500D01*
X23168820Y-27390603D01*
G37*
G36*
X114413512Y-25138927D02*
G01*
X114562812Y-25168624D01*
X114726784Y-25236544D01*
X114874354Y-25335147D01*
X114999853Y-25460646D01*
X115098456Y-25608216D01*
X115166376Y-25772188D01*
X115201000Y-25946259D01*
X115201000Y-26123741D01*
X115166376Y-26297812D01*
X115098456Y-26461784D01*
X114999853Y-26609354D01*
X114874354Y-26734853D01*
X114726784Y-26833456D01*
X114562812Y-26901376D01*
X114413512Y-26931073D01*
X114388742Y-26936000D01*
X114211258Y-26936000D01*
X114186488Y-26931073D01*
X114037188Y-26901376D01*
X113873216Y-26833456D01*
X113725646Y-26734853D01*
X113600147Y-26609354D01*
X113501544Y-26461784D01*
X113433624Y-26297812D01*
X113399000Y-26123741D01*
X113399000Y-25946259D01*
X113433624Y-25772188D01*
X113501544Y-25608216D01*
X113600147Y-25460646D01*
X113725646Y-25335147D01*
X113873216Y-25236544D01*
X114037188Y-25168624D01*
X114186488Y-25138927D01*
X114211258Y-25134000D01*
X114388742Y-25134000D01*
X114413512Y-25138927D01*
G37*
G36*
X56617961Y-24259450D02*
G01*
X56714088Y-24288610D01*
X56802670Y-24335958D01*
X56880318Y-24399682D01*
X56944042Y-24477330D01*
X56991390Y-24565912D01*
X57020550Y-24662039D01*
X57031000Y-24768140D01*
X57031000Y-26031860D01*
X57020550Y-26137961D01*
X56991390Y-26234088D01*
X56944042Y-26322670D01*
X56880318Y-26400318D01*
X56802670Y-26464042D01*
X56714088Y-26511390D01*
X56617961Y-26540550D01*
X56511860Y-26551000D01*
X55248140Y-26551000D01*
X55142039Y-26540550D01*
X55045912Y-26511390D01*
X54957330Y-26464042D01*
X54879682Y-26400318D01*
X54815958Y-26322670D01*
X54768610Y-26234088D01*
X54739450Y-26137961D01*
X54729000Y-26031860D01*
X54729000Y-24768140D01*
X54739450Y-24662039D01*
X54768610Y-24565912D01*
X54815958Y-24477330D01*
X54879682Y-24399682D01*
X54957330Y-24335958D01*
X55045912Y-24288610D01*
X55142039Y-24259450D01*
X55248140Y-24249000D01*
X56511860Y-24249000D01*
X56617961Y-24259450D01*
G37*
G36*
X114413512Y-22598927D02*
G01*
X114562812Y-22628624D01*
X114726784Y-22696544D01*
X114874354Y-22795147D01*
X114999853Y-22920646D01*
X115098456Y-23068216D01*
X115166376Y-23232188D01*
X115201000Y-23406259D01*
X115201000Y-23583741D01*
X115166376Y-23757812D01*
X115098456Y-23921784D01*
X114999853Y-24069354D01*
X114874354Y-24194853D01*
X114726784Y-24293456D01*
X114562812Y-24361376D01*
X114413512Y-24391073D01*
X114388742Y-24396000D01*
X114211258Y-24396000D01*
X114186488Y-24391073D01*
X114037188Y-24361376D01*
X113873216Y-24293456D01*
X113725646Y-24194853D01*
X113600147Y-24069354D01*
X113501544Y-23921784D01*
X113433624Y-23757812D01*
X113399000Y-23583741D01*
X113399000Y-23406259D01*
X113433624Y-23232188D01*
X113501544Y-23068216D01*
X113600147Y-22920646D01*
X113725646Y-22795147D01*
X113873216Y-22696544D01*
X114037188Y-22628624D01*
X114186488Y-22598927D01*
X114211258Y-22594000D01*
X114388742Y-22594000D01*
X114413512Y-22598927D01*
G37*
G36*
X23168820Y-21415603D02*
G01*
X23202985Y-21425967D01*
X23234464Y-21442793D01*
X23262060Y-21465440D01*
X23284707Y-21493036D01*
X23301533Y-21524515D01*
X23311897Y-21558680D01*
X23316000Y-21600342D01*
X23316000Y-22849658D01*
X23311897Y-22891320D01*
X23301533Y-22925485D01*
X23284707Y-22956964D01*
X23262060Y-22984560D01*
X23234464Y-23007207D01*
X23202985Y-23024033D01*
X23168820Y-23034397D01*
X23127158Y-23038500D01*
X20052842Y-23038500D01*
X20011180Y-23034397D01*
X19977015Y-23024033D01*
X19945536Y-23007207D01*
X19917940Y-22984560D01*
X19895293Y-22956964D01*
X19878467Y-22925485D01*
X19868103Y-22891320D01*
X19864000Y-22849658D01*
X19864000Y-21600342D01*
X19868103Y-21558680D01*
X19878467Y-21524515D01*
X19895293Y-21493036D01*
X19917940Y-21465440D01*
X19945536Y-21442793D01*
X19977015Y-21425967D01*
X20011180Y-21415603D01*
X20052842Y-21411500D01*
X23127158Y-21411500D01*
X23168820Y-21415603D01*
G37*
G36*
X114413512Y-20058927D02*
G01*
X114562812Y-20088624D01*
X114726784Y-20156544D01*
X114874354Y-20255147D01*
X114999853Y-20380646D01*
X115098456Y-20528216D01*
X115166376Y-20692188D01*
X115201000Y-20866259D01*
X115201000Y-21043741D01*
X115166376Y-21217812D01*
X115098456Y-21381784D01*
X114999853Y-21529354D01*
X114874354Y-21654853D01*
X114726784Y-21753456D01*
X114562812Y-21821376D01*
X114413512Y-21851073D01*
X114388742Y-21856000D01*
X114211258Y-21856000D01*
X114186488Y-21851073D01*
X114037188Y-21821376D01*
X113873216Y-21753456D01*
X113725646Y-21654853D01*
X113600147Y-21529354D01*
X113501544Y-21381784D01*
X113433624Y-21217812D01*
X113399000Y-21043741D01*
X113399000Y-20866259D01*
X113433624Y-20692188D01*
X113501544Y-20528216D01*
X113600147Y-20380646D01*
X113725646Y-20255147D01*
X113873216Y-20156544D01*
X114037188Y-20088624D01*
X114186488Y-20058927D01*
X114211258Y-20054000D01*
X114388742Y-20054000D01*
X114413512Y-20058927D01*
G37*
G36*
X114413512Y-17518927D02*
G01*
X114562812Y-17548624D01*
X114726784Y-17616544D01*
X114874354Y-17715147D01*
X114999853Y-17840646D01*
X115098456Y-17988216D01*
X115166376Y-18152188D01*
X115201000Y-18326259D01*
X115201000Y-18503741D01*
X115166376Y-18677812D01*
X115098456Y-18841784D01*
X114999853Y-18989354D01*
X114874354Y-19114853D01*
X114726784Y-19213456D01*
X114562812Y-19281376D01*
X114413512Y-19311073D01*
X114388742Y-19316000D01*
X114211258Y-19316000D01*
X114186488Y-19311073D01*
X114037188Y-19281376D01*
X113873216Y-19213456D01*
X113725646Y-19114853D01*
X113600147Y-18989354D01*
X113501544Y-18841784D01*
X113433624Y-18677812D01*
X113399000Y-18503741D01*
X113399000Y-18326259D01*
X113433624Y-18152188D01*
X113501544Y-17988216D01*
X113600147Y-17840646D01*
X113725646Y-17715147D01*
X113873216Y-17616544D01*
X114037188Y-17548624D01*
X114186488Y-17518927D01*
X114211258Y-17514000D01*
X114388742Y-17514000D01*
X114413512Y-17518927D01*
G37*
G36*
X18334501Y-14047054D02*
G01*
X18680461Y-14190356D01*
X18991817Y-14398397D01*
X19256603Y-14663183D01*
X19464644Y-14974539D01*
X19606208Y-15316302D01*
X19607946Y-15320500D01*
X19681000Y-15687767D01*
X19681000Y-16062233D01*
X19665966Y-16137812D01*
X19607946Y-16429501D01*
X19464644Y-16775461D01*
X19256603Y-17086817D01*
X18991817Y-17351603D01*
X18680461Y-17559644D01*
X18334501Y-17702946D01*
X17967233Y-17776000D01*
X17592767Y-17776000D01*
X17225499Y-17702946D01*
X16879539Y-17559644D01*
X16568183Y-17351603D01*
X16303397Y-17086817D01*
X16095356Y-16775461D01*
X15952054Y-16429501D01*
X15894034Y-16137812D01*
X15879000Y-16062233D01*
X15879000Y-15687767D01*
X15952054Y-15320500D01*
X15953793Y-15316302D01*
X16095356Y-14974539D01*
X16303397Y-14663183D01*
X16568183Y-14398397D01*
X16879539Y-14190356D01*
X17225499Y-14047054D01*
X17592767Y-13974000D01*
X17967233Y-13974000D01*
X18334501Y-14047054D01*
G37*
G36*
X109139501Y-14047054D02*
G01*
X109485461Y-14190356D01*
X109796817Y-14398397D01*
X110061603Y-14663183D01*
X110269644Y-14974539D01*
X110411208Y-15316302D01*
X110412946Y-15320500D01*
X110486000Y-15687767D01*
X110486000Y-16062233D01*
X110470966Y-16137812D01*
X110412946Y-16429501D01*
X110269644Y-16775461D01*
X110061603Y-17086817D01*
X109796817Y-17351603D01*
X109485461Y-17559644D01*
X109139501Y-17702946D01*
X108955866Y-17739473D01*
X108772233Y-17776000D01*
X108397767Y-17776000D01*
X108030499Y-17702946D01*
X107684539Y-17559644D01*
X107373183Y-17351603D01*
X107108397Y-17086817D01*
X106900356Y-16775461D01*
X106757054Y-16429501D01*
X106699034Y-16137812D01*
X106684000Y-16062233D01*
X106684000Y-15687767D01*
X106757054Y-15320500D01*
X106758793Y-15316302D01*
X106900356Y-14974539D01*
X107108397Y-14663183D01*
X107373183Y-14398397D01*
X107684539Y-14190356D01*
X108030499Y-14047054D01*
X108214134Y-14010527D01*
X108397767Y-13974000D01*
X108772233Y-13974000D01*
X109139501Y-14047054D01*
G37*
G36*
X28076626Y-14862037D02*
G01*
X28246465Y-14913557D01*
X28246467Y-14913558D01*
X28402989Y-14997221D01*
X28540186Y-15109814D01*
X28593803Y-15175148D01*
X28652778Y-15247009D01*
X28736443Y-15403534D01*
X28787963Y-15573373D01*
X28801000Y-15705742D01*
X28801000Y-16044257D01*
X28787963Y-16176626D01*
X28736443Y-16346466D01*
X28652778Y-16502991D01*
X28623448Y-16538729D01*
X28540186Y-16640186D01*
X28438729Y-16723448D01*
X28402991Y-16752778D01*
X28246466Y-16836443D01*
X28076627Y-16887963D01*
X27900000Y-16905359D01*
X27723374Y-16887963D01*
X27553535Y-16836443D01*
X27397010Y-16752778D01*
X27259815Y-16640185D01*
X27147222Y-16502991D01*
X27063557Y-16346466D01*
X27012037Y-16176627D01*
X26999000Y-16044258D01*
X26999000Y-15705743D01*
X27012037Y-15573374D01*
X27063557Y-15403535D01*
X27069113Y-15393140D01*
X27147221Y-15247011D01*
X27259814Y-15109814D01*
X27364380Y-15024000D01*
X27397009Y-14997222D01*
X27553534Y-14913557D01*
X27723373Y-14862037D01*
X27900000Y-14844641D01*
X28076626Y-14862037D01*
G37*
G36*
X33076626Y-14862037D02*
G01*
X33246465Y-14913557D01*
X33246467Y-14913558D01*
X33402989Y-14997221D01*
X33540186Y-15109814D01*
X33593803Y-15175148D01*
X33652778Y-15247009D01*
X33736443Y-15403534D01*
X33787963Y-15573373D01*
X33801000Y-15705742D01*
X33801000Y-16044257D01*
X33787963Y-16176626D01*
X33736443Y-16346466D01*
X33652778Y-16502991D01*
X33623448Y-16538729D01*
X33540186Y-16640186D01*
X33438729Y-16723448D01*
X33402991Y-16752778D01*
X33246466Y-16836443D01*
X33076627Y-16887963D01*
X32900000Y-16905359D01*
X32723374Y-16887963D01*
X32553535Y-16836443D01*
X32397010Y-16752778D01*
X32259815Y-16640185D01*
X32147222Y-16502991D01*
X32063557Y-16346466D01*
X32012037Y-16176627D01*
X31999000Y-16044258D01*
X31999000Y-15705743D01*
X32012037Y-15573374D01*
X32063557Y-15403535D01*
X32069113Y-15393140D01*
X32147221Y-15247011D01*
X32259814Y-15109814D01*
X32364380Y-15024000D01*
X32397009Y-14997222D01*
X32553534Y-14913557D01*
X32723373Y-14862037D01*
X32900000Y-14844641D01*
X33076626Y-14862037D01*
G37*
G36*
X30576626Y-14862037D02*
G01*
X30746465Y-14913557D01*
X30746467Y-14913558D01*
X30902989Y-14997221D01*
X31040186Y-15109814D01*
X31093803Y-15175148D01*
X31152778Y-15247009D01*
X31236443Y-15403534D01*
X31287963Y-15573373D01*
X31301000Y-15705742D01*
X31301000Y-16044257D01*
X31287963Y-16176626D01*
X31236443Y-16346466D01*
X31152778Y-16502991D01*
X31123448Y-16538729D01*
X31040186Y-16640186D01*
X30938729Y-16723448D01*
X30902991Y-16752778D01*
X30746466Y-16836443D01*
X30576627Y-16887963D01*
X30400000Y-16905359D01*
X30223374Y-16887963D01*
X30053535Y-16836443D01*
X29897010Y-16752778D01*
X29759815Y-16640185D01*
X29647222Y-16502991D01*
X29563557Y-16346466D01*
X29512037Y-16176627D01*
X29499000Y-16044258D01*
X29499000Y-15705743D01*
X29512037Y-15573374D01*
X29563557Y-15403535D01*
X29569113Y-15393140D01*
X29647221Y-15247011D01*
X29759814Y-15109814D01*
X29864380Y-15024000D01*
X29897009Y-14997222D01*
X30053534Y-14913557D01*
X30223373Y-14862037D01*
X30400000Y-14844641D01*
X30576626Y-14862037D01*
G37*
G36*
X26158600Y-14852989D02*
G01*
X26191652Y-14863015D01*
X26222103Y-14879292D01*
X26248799Y-14901201D01*
X26270708Y-14927897D01*
X26286985Y-14958348D01*
X26297011Y-14991400D01*
X26301000Y-15031903D01*
X26301000Y-16718097D01*
X26297011Y-16758600D01*
X26286985Y-16791652D01*
X26270708Y-16822103D01*
X26248799Y-16848799D01*
X26222103Y-16870708D01*
X26191652Y-16886985D01*
X26158600Y-16897011D01*
X26118097Y-16901000D01*
X24681903Y-16901000D01*
X24641400Y-16897011D01*
X24608348Y-16886985D01*
X24577897Y-16870708D01*
X24551201Y-16848799D01*
X24529292Y-16822103D01*
X24513015Y-16791652D01*
X24502989Y-16758600D01*
X24499000Y-16718097D01*
X24499000Y-15031903D01*
X24502989Y-14991400D01*
X24513015Y-14958348D01*
X24529292Y-14927897D01*
X24551201Y-14901201D01*
X24577897Y-14879292D01*
X24608348Y-14863015D01*
X24641400Y-14852989D01*
X24681903Y-14849000D01*
X26118097Y-14849000D01*
X26158600Y-14852989D01*
G37*
G36*
X114413512Y-14978927D02*
G01*
X114562812Y-15008624D01*
X114726784Y-15076544D01*
X114874354Y-15175147D01*
X114999853Y-15300646D01*
X115098456Y-15448216D01*
X115166376Y-15612188D01*
X115201000Y-15786259D01*
X115201000Y-15963741D01*
X115166376Y-16137812D01*
X115098456Y-16301784D01*
X114999853Y-16449354D01*
X114874354Y-16574853D01*
X114726784Y-16673456D01*
X114562812Y-16741376D01*
X114413512Y-16771073D01*
X114388742Y-16776000D01*
X114211258Y-16776000D01*
X114186488Y-16771073D01*
X114037188Y-16741376D01*
X113873216Y-16673456D01*
X113725646Y-16574853D01*
X113600147Y-16449354D01*
X113501544Y-16301784D01*
X113433624Y-16137812D01*
X113399000Y-15963741D01*
X113399000Y-15786259D01*
X113433624Y-15612188D01*
X113501544Y-15448216D01*
X113600147Y-15300646D01*
X113725646Y-15175147D01*
X113873216Y-15076544D01*
X114037188Y-15008624D01*
X114186488Y-14978927D01*
X114211258Y-14974000D01*
X114388742Y-14974000D01*
X114413512Y-14978927D01*
G37*
G36*
X95173698Y-15031568D02*
G01*
X95241685Y-15052192D01*
X95304335Y-15085679D01*
X95359252Y-15130748D01*
X95404321Y-15185665D01*
X95437808Y-15248315D01*
X95458432Y-15316302D01*
X95466000Y-15393140D01*
X95466000Y-16356860D01*
X95458432Y-16433698D01*
X95437808Y-16501685D01*
X95404321Y-16564335D01*
X95359252Y-16619252D01*
X95304335Y-16664321D01*
X95241685Y-16697808D01*
X95173698Y-16718432D01*
X95096860Y-16726000D01*
X94133140Y-16726000D01*
X94056302Y-16718432D01*
X93988315Y-16697808D01*
X93925665Y-16664321D01*
X93870748Y-16619252D01*
X93825679Y-16564335D01*
X93792192Y-16501685D01*
X93771568Y-16433698D01*
X93764000Y-16356860D01*
X93764000Y-15393140D01*
X93771568Y-15316302D01*
X93792192Y-15248315D01*
X93825679Y-15185665D01*
X93870748Y-15130748D01*
X93925665Y-15085679D01*
X93988315Y-15052192D01*
X94056302Y-15031568D01*
X94133140Y-15024000D01*
X95096860Y-15024000D01*
X95173698Y-15031568D01*
G37*
G36*
X92323228Y-15056703D02*
G01*
X92478100Y-15120853D01*
X92617481Y-15213985D01*
X92736015Y-15332519D01*
X92829147Y-15471900D01*
X92893297Y-15626772D01*
X92926000Y-15791184D01*
X92926000Y-15958816D01*
X92893297Y-16123228D01*
X92829147Y-16278100D01*
X92736015Y-16417481D01*
X92617481Y-16536015D01*
X92478100Y-16629147D01*
X92323228Y-16693297D01*
X92158816Y-16726000D01*
X91991184Y-16726000D01*
X91826772Y-16693297D01*
X91671900Y-16629147D01*
X91532519Y-16536015D01*
X91413985Y-16417481D01*
X91320853Y-16278100D01*
X91256703Y-16123228D01*
X91224000Y-15958816D01*
X91224000Y-15791184D01*
X91256703Y-15626772D01*
X91320853Y-15471900D01*
X91413985Y-15332519D01*
X91532519Y-15213985D01*
X91671900Y-15120853D01*
X91826772Y-15056703D01*
X91991184Y-15024000D01*
X92158816Y-15024000D01*
X92323228Y-15056703D01*
G37*
G36*
X89783228Y-15056703D02*
G01*
X89938100Y-15120853D01*
X90077481Y-15213985D01*
X90196015Y-15332519D01*
X90289147Y-15471900D01*
X90353297Y-15626772D01*
X90386000Y-15791184D01*
X90386000Y-15958816D01*
X90353297Y-16123228D01*
X90289147Y-16278100D01*
X90196015Y-16417481D01*
X90077481Y-16536015D01*
X89938100Y-16629147D01*
X89783228Y-16693297D01*
X89618816Y-16726000D01*
X89451184Y-16726000D01*
X89286772Y-16693297D01*
X89131900Y-16629147D01*
X88992519Y-16536015D01*
X88873985Y-16417481D01*
X88780853Y-16278100D01*
X88716703Y-16123228D01*
X88684000Y-15958816D01*
X88684000Y-15791184D01*
X88716703Y-15626772D01*
X88780853Y-15471900D01*
X88873985Y-15332519D01*
X88992519Y-15213985D01*
X89131900Y-15120853D01*
X89286772Y-15056703D01*
X89451184Y-15024000D01*
X89618816Y-15024000D01*
X89783228Y-15056703D01*
G37*
G36*
X87243228Y-15056703D02*
G01*
X87398100Y-15120853D01*
X87537481Y-15213985D01*
X87656015Y-15332519D01*
X87749147Y-15471900D01*
X87813297Y-15626772D01*
X87846000Y-15791184D01*
X87846000Y-15958816D01*
X87813297Y-16123228D01*
X87749147Y-16278100D01*
X87656015Y-16417481D01*
X87537481Y-16536015D01*
X87398100Y-16629147D01*
X87243228Y-16693297D01*
X87078816Y-16726000D01*
X86911184Y-16726000D01*
X86746772Y-16693297D01*
X86591900Y-16629147D01*
X86452519Y-16536015D01*
X86333985Y-16417481D01*
X86240853Y-16278100D01*
X86176703Y-16123228D01*
X86144000Y-15958816D01*
X86144000Y-15791184D01*
X86176703Y-15626772D01*
X86240853Y-15471900D01*
X86333985Y-15332519D01*
X86452519Y-15213985D01*
X86591900Y-15120853D01*
X86746772Y-15056703D01*
X86911184Y-15024000D01*
X87078816Y-15024000D01*
X87243228Y-15056703D01*
G37*
G36*
X84703228Y-15056703D02*
G01*
X84858100Y-15120853D01*
X84997481Y-15213985D01*
X85116015Y-15332519D01*
X85209147Y-15471900D01*
X85273297Y-15626772D01*
X85306000Y-15791184D01*
X85306000Y-15958816D01*
X85273297Y-16123228D01*
X85209147Y-16278100D01*
X85116015Y-16417481D01*
X84997481Y-16536015D01*
X84858100Y-16629147D01*
X84703228Y-16693297D01*
X84538816Y-16726000D01*
X84371184Y-16726000D01*
X84206772Y-16693297D01*
X84051900Y-16629147D01*
X83912519Y-16536015D01*
X83793985Y-16417481D01*
X83700853Y-16278100D01*
X83636703Y-16123228D01*
X83604000Y-15958816D01*
X83604000Y-15791184D01*
X83636703Y-15626772D01*
X83700853Y-15471900D01*
X83793985Y-15332519D01*
X83912519Y-15213985D01*
X84051900Y-15120853D01*
X84206772Y-15056703D01*
X84371184Y-15024000D01*
X84538816Y-15024000D01*
X84703228Y-15056703D01*
G37*
G36*
X82163228Y-15056703D02*
G01*
X82318100Y-15120853D01*
X82457481Y-15213985D01*
X82576015Y-15332519D01*
X82669147Y-15471900D01*
X82733297Y-15626772D01*
X82766000Y-15791184D01*
X82766000Y-15958816D01*
X82733297Y-16123228D01*
X82669147Y-16278100D01*
X82576015Y-16417481D01*
X82457481Y-16536015D01*
X82318100Y-16629147D01*
X82163228Y-16693297D01*
X81998816Y-16726000D01*
X81831184Y-16726000D01*
X81666772Y-16693297D01*
X81511900Y-16629147D01*
X81372519Y-16536015D01*
X81253985Y-16417481D01*
X81160853Y-16278100D01*
X81096703Y-16123228D01*
X81064000Y-15958816D01*
X81064000Y-15791184D01*
X81096703Y-15626772D01*
X81160853Y-15471900D01*
X81253985Y-15332519D01*
X81372519Y-15213985D01*
X81511900Y-15120853D01*
X81666772Y-15056703D01*
X81831184Y-15024000D01*
X81998816Y-15024000D01*
X82163228Y-15056703D01*
G37*
G36*
X59303228Y-15056703D02*
G01*
X59458100Y-15120853D01*
X59597481Y-15213985D01*
X59716015Y-15332519D01*
X59809147Y-15471900D01*
X59873297Y-15626772D01*
X59906000Y-15791184D01*
X59906000Y-15958816D01*
X59873297Y-16123228D01*
X59809147Y-16278100D01*
X59716015Y-16417481D01*
X59597481Y-16536015D01*
X59458100Y-16629147D01*
X59303228Y-16693297D01*
X59138816Y-16726000D01*
X58971184Y-16726000D01*
X58806772Y-16693297D01*
X58651900Y-16629147D01*
X58512519Y-16536015D01*
X58393985Y-16417481D01*
X58300853Y-16278100D01*
X58236703Y-16123228D01*
X58204000Y-15958816D01*
X58204000Y-15791184D01*
X58236703Y-15626772D01*
X58300853Y-15471900D01*
X58393985Y-15332519D01*
X58512519Y-15213985D01*
X58651900Y-15120853D01*
X58806772Y-15056703D01*
X58971184Y-15024000D01*
X59138816Y-15024000D01*
X59303228Y-15056703D01*
G37*
G36*
X72003228Y-15056703D02*
G01*
X72158100Y-15120853D01*
X72297481Y-15213985D01*
X72416015Y-15332519D01*
X72509147Y-15471900D01*
X72573297Y-15626772D01*
X72606000Y-15791184D01*
X72606000Y-15958816D01*
X72573297Y-16123228D01*
X72509147Y-16278100D01*
X72416015Y-16417481D01*
X72297481Y-16536015D01*
X72158100Y-16629147D01*
X72003228Y-16693297D01*
X71838816Y-16726000D01*
X71671184Y-16726000D01*
X71506772Y-16693297D01*
X71351900Y-16629147D01*
X71212519Y-16536015D01*
X71093985Y-16417481D01*
X71000853Y-16278100D01*
X70936703Y-16123228D01*
X70904000Y-15958816D01*
X70904000Y-15791184D01*
X70936703Y-15626772D01*
X71000853Y-15471900D01*
X71093985Y-15332519D01*
X71212519Y-15213985D01*
X71351900Y-15120853D01*
X71506772Y-15056703D01*
X71671184Y-15024000D01*
X71838816Y-15024000D01*
X72003228Y-15056703D01*
G37*
G36*
X64383228Y-15056703D02*
G01*
X64538100Y-15120853D01*
X64677481Y-15213985D01*
X64796015Y-15332519D01*
X64889147Y-15471900D01*
X64953297Y-15626772D01*
X64986000Y-15791184D01*
X64986000Y-15958816D01*
X64953297Y-16123228D01*
X64889147Y-16278100D01*
X64796015Y-16417481D01*
X64677481Y-16536015D01*
X64538100Y-16629147D01*
X64383228Y-16693297D01*
X64218816Y-16726000D01*
X64051184Y-16726000D01*
X63886772Y-16693297D01*
X63731900Y-16629147D01*
X63592519Y-16536015D01*
X63473985Y-16417481D01*
X63380853Y-16278100D01*
X63316703Y-16123228D01*
X63284000Y-15958816D01*
X63284000Y-15791184D01*
X63316703Y-15626772D01*
X63380853Y-15471900D01*
X63473985Y-15332519D01*
X63592519Y-15213985D01*
X63731900Y-15120853D01*
X63886772Y-15056703D01*
X64051184Y-15024000D01*
X64218816Y-15024000D01*
X64383228Y-15056703D01*
G37*
G36*
X77083228Y-15056703D02*
G01*
X77238100Y-15120853D01*
X77377481Y-15213985D01*
X77496015Y-15332519D01*
X77589147Y-15471900D01*
X77653297Y-15626772D01*
X77686000Y-15791184D01*
X77686000Y-15958816D01*
X77653297Y-16123228D01*
X77589147Y-16278100D01*
X77496015Y-16417481D01*
X77377481Y-16536015D01*
X77238100Y-16629147D01*
X77083228Y-16693297D01*
X76918816Y-16726000D01*
X76751184Y-16726000D01*
X76586772Y-16693297D01*
X76431900Y-16629147D01*
X76292519Y-16536015D01*
X76173985Y-16417481D01*
X76080853Y-16278100D01*
X76016703Y-16123228D01*
X75984000Y-15958816D01*
X75984000Y-15791184D01*
X76016703Y-15626772D01*
X76080853Y-15471900D01*
X76173985Y-15332519D01*
X76292519Y-15213985D01*
X76431900Y-15120853D01*
X76586772Y-15056703D01*
X76751184Y-15024000D01*
X76918816Y-15024000D01*
X77083228Y-15056703D01*
G37*
G36*
X79623228Y-15056703D02*
G01*
X79778100Y-15120853D01*
X79917481Y-15213985D01*
X80036015Y-15332519D01*
X80129147Y-15471900D01*
X80193297Y-15626772D01*
X80226000Y-15791184D01*
X80226000Y-15958816D01*
X80193297Y-16123228D01*
X80129147Y-16278100D01*
X80036015Y-16417481D01*
X79917481Y-16536015D01*
X79778100Y-16629147D01*
X79623228Y-16693297D01*
X79458816Y-16726000D01*
X79291184Y-16726000D01*
X79126772Y-16693297D01*
X78971900Y-16629147D01*
X78832519Y-16536015D01*
X78713985Y-16417481D01*
X78620853Y-16278100D01*
X78556703Y-16123228D01*
X78524000Y-15958816D01*
X78524000Y-15791184D01*
X78556703Y-15626772D01*
X78620853Y-15471900D01*
X78713985Y-15332519D01*
X78832519Y-15213985D01*
X78971900Y-15120853D01*
X79126772Y-15056703D01*
X79291184Y-15024000D01*
X79458816Y-15024000D01*
X79623228Y-15056703D01*
G37*
G36*
X69463228Y-15056703D02*
G01*
X69618100Y-15120853D01*
X69757481Y-15213985D01*
X69876015Y-15332519D01*
X69969147Y-15471900D01*
X70033297Y-15626772D01*
X70066000Y-15791184D01*
X70066000Y-15958816D01*
X70033297Y-16123228D01*
X69969147Y-16278100D01*
X69876015Y-16417481D01*
X69757481Y-16536015D01*
X69618100Y-16629147D01*
X69463228Y-16693297D01*
X69298816Y-16726000D01*
X69131184Y-16726000D01*
X68966772Y-16693297D01*
X68811900Y-16629147D01*
X68672519Y-16536015D01*
X68553985Y-16417481D01*
X68460853Y-16278100D01*
X68396703Y-16123228D01*
X68364000Y-15958816D01*
X68364000Y-15791184D01*
X68396703Y-15626772D01*
X68460853Y-15471900D01*
X68553985Y-15332519D01*
X68672519Y-15213985D01*
X68811900Y-15120853D01*
X68966772Y-15056703D01*
X69131184Y-15024000D01*
X69298816Y-15024000D01*
X69463228Y-15056703D01*
G37*
G36*
X66923228Y-15056703D02*
G01*
X67078100Y-15120853D01*
X67217481Y-15213985D01*
X67336015Y-15332519D01*
X67429147Y-15471900D01*
X67493297Y-15626772D01*
X67526000Y-15791184D01*
X67526000Y-15958816D01*
X67493297Y-16123228D01*
X67429147Y-16278100D01*
X67336015Y-16417481D01*
X67217481Y-16536015D01*
X67078100Y-16629147D01*
X66923228Y-16693297D01*
X66758816Y-16726000D01*
X66591184Y-16726000D01*
X66426772Y-16693297D01*
X66271900Y-16629147D01*
X66132519Y-16536015D01*
X66013985Y-16417481D01*
X65920853Y-16278100D01*
X65856703Y-16123228D01*
X65824000Y-15958816D01*
X65824000Y-15791184D01*
X65856703Y-15626772D01*
X65920853Y-15471900D01*
X66013985Y-15332519D01*
X66132519Y-15213985D01*
X66271900Y-15120853D01*
X66426772Y-15056703D01*
X66591184Y-15024000D01*
X66758816Y-15024000D01*
X66923228Y-15056703D01*
G37*
G36*
X61843228Y-15056703D02*
G01*
X61998100Y-15120853D01*
X62137481Y-15213985D01*
X62256015Y-15332519D01*
X62349147Y-15471900D01*
X62413297Y-15626772D01*
X62446000Y-15791184D01*
X62446000Y-15958816D01*
X62413297Y-16123228D01*
X62349147Y-16278100D01*
X62256015Y-16417481D01*
X62137481Y-16536015D01*
X61998100Y-16629147D01*
X61843228Y-16693297D01*
X61678816Y-16726000D01*
X61511184Y-16726000D01*
X61346772Y-16693297D01*
X61191900Y-16629147D01*
X61052519Y-16536015D01*
X60933985Y-16417481D01*
X60840853Y-16278100D01*
X60776703Y-16123228D01*
X60744000Y-15958816D01*
X60744000Y-15791184D01*
X60776703Y-15626772D01*
X60840853Y-15471900D01*
X60933985Y-15332519D01*
X61052519Y-15213985D01*
X61191900Y-15120853D01*
X61346772Y-15056703D01*
X61511184Y-15024000D01*
X61678816Y-15024000D01*
X61843228Y-15056703D01*
G37*
M02*
