G04 #@! TF.GenerationSoftware,KiCad,Pcbnew,5.1.5-52549c5~86~ubuntu18.04.1*
G04 #@! TF.CreationDate,2020-05-30T04:21:03+05:30*
G04 #@! TF.ProjectId,Resp2,52657370-322e-46b6-9963-61645f706362,rev?*
G04 #@! TF.SameCoordinates,Original*
G04 #@! TF.FileFunction,Legend,Top*
G04 #@! TF.FilePolarity,Positive*
%FSLAX46Y46*%
G04 Gerber Fmt 4.6, Leading zero omitted, Abs format (unit mm)*
G04 Created by KiCad (PCBNEW 5.1.5-52549c5~86~ubuntu18.04.1) date 2020-05-30 04:21:03*
%MOMM*%
%LPD*%
G04 APERTURE LIST*
%ADD10C,0.150000*%
%ADD11C,0.120000*%
%ADD12C,0.100000*%
%ADD13C,0.200000*%
G04 APERTURE END LIST*
D10*
X35306047Y-61793428D02*
X36067952Y-61793428D01*
X35687000Y-62174380D02*
X35687000Y-61412476D01*
X41720285Y-13656904D02*
X41720285Y-12856904D01*
X42020285Y-13428333D01*
X42320285Y-12856904D01*
X42320285Y-13656904D01*
X42877428Y-13656904D02*
X42791714Y-13618809D01*
X42748857Y-13580714D01*
X42706000Y-13504523D01*
X42706000Y-13275952D01*
X42748857Y-13199761D01*
X42791714Y-13161666D01*
X42877428Y-13123571D01*
X43006000Y-13123571D01*
X43091714Y-13161666D01*
X43134571Y-13199761D01*
X43177428Y-13275952D01*
X43177428Y-13504523D01*
X43134571Y-13580714D01*
X43091714Y-13618809D01*
X43006000Y-13656904D01*
X42877428Y-13656904D01*
X43434571Y-13123571D02*
X43777428Y-13123571D01*
X43563142Y-12856904D02*
X43563142Y-13542619D01*
X43606000Y-13618809D01*
X43691714Y-13656904D01*
X43777428Y-13656904D01*
X44206000Y-13656904D02*
X44120285Y-13618809D01*
X44077428Y-13580714D01*
X44034571Y-13504523D01*
X44034571Y-13275952D01*
X44077428Y-13199761D01*
X44120285Y-13161666D01*
X44206000Y-13123571D01*
X44334571Y-13123571D01*
X44420285Y-13161666D01*
X44463142Y-13199761D01*
X44506000Y-13275952D01*
X44506000Y-13504523D01*
X44463142Y-13580714D01*
X44420285Y-13618809D01*
X44334571Y-13656904D01*
X44206000Y-13656904D01*
X44891714Y-13656904D02*
X44891714Y-13123571D01*
X44891714Y-13275952D02*
X44934571Y-13199761D01*
X44977428Y-13161666D01*
X45063142Y-13123571D01*
X45148857Y-13123571D01*
X38356000Y-14702142D02*
X39041714Y-14702142D01*
X38698857Y-15006904D02*
X38698857Y-14397380D01*
X44270285Y-14702142D02*
X44956000Y-14702142D01*
X44613142Y-15006904D02*
X44613142Y-14397380D01*
X48767904Y-73795428D02*
X49529809Y-73795428D01*
X49148857Y-74176380D02*
X49148857Y-73414476D01*
X47815523Y-74826380D02*
X47339333Y-74826380D01*
X47291714Y-75302571D01*
X47339333Y-75254952D01*
X47434571Y-75207333D01*
X47672666Y-75207333D01*
X47767904Y-75254952D01*
X47815523Y-75302571D01*
X47863142Y-75397809D01*
X47863142Y-75635904D01*
X47815523Y-75731142D01*
X47767904Y-75778761D01*
X47672666Y-75826380D01*
X47434571Y-75826380D01*
X47339333Y-75778761D01*
X47291714Y-75731142D01*
X48148857Y-74826380D02*
X48482190Y-75826380D01*
X48815523Y-74826380D01*
X37719047Y-73795428D02*
X38480952Y-73795428D01*
X38100000Y-74176380D02*
X38100000Y-73414476D01*
X39004761Y-75826380D02*
X38433333Y-75826380D01*
X38719047Y-75826380D02*
X38719047Y-74826380D01*
X38623809Y-74969238D01*
X38528571Y-75064476D01*
X38433333Y-75112095D01*
X39385714Y-74921619D02*
X39433333Y-74874000D01*
X39528571Y-74826380D01*
X39766666Y-74826380D01*
X39861904Y-74874000D01*
X39909523Y-74921619D01*
X39957142Y-75016857D01*
X39957142Y-75112095D01*
X39909523Y-75254952D01*
X39338095Y-75826380D01*
X39957142Y-75826380D01*
X40242857Y-74826380D02*
X40576190Y-75826380D01*
X40909523Y-74826380D01*
D11*
X77470000Y-44390000D02*
X77470000Y-47050000D01*
X77470000Y-44390000D02*
X74870000Y-44390000D01*
X70485000Y-36770000D02*
X70485000Y-39430000D01*
X70485000Y-36770000D02*
X67885000Y-36770000D01*
X81280000Y-65980000D02*
X78680000Y-65980000D01*
X78680000Y-65980000D02*
X78680000Y-68640000D01*
X33220000Y-56480000D02*
X30280000Y-56480000D01*
X33220000Y-56720000D02*
X30280000Y-56720000D01*
X33220000Y-56600000D02*
X30280000Y-56600000D01*
X31750000Y-62160000D02*
X31750000Y-61140000D01*
X31750000Y-54680000D02*
X31750000Y-55700000D01*
X33220000Y-61140000D02*
X33220000Y-55700000D01*
X30280000Y-61140000D02*
X33220000Y-61140000D01*
X30280000Y-55700000D02*
X30280000Y-61140000D01*
X33220000Y-55700000D02*
X30280000Y-55700000D01*
X60195000Y-40510000D02*
X60195000Y-58550000D01*
X103635000Y-40510000D02*
X60195000Y-40510000D01*
X103635000Y-58550000D02*
X103635000Y-40510000D01*
X100965000Y-55880000D02*
X100965000Y-58550000D01*
X65405000Y-55880000D02*
X100965000Y-55880000D01*
X65405000Y-55880000D02*
X65405000Y-58550000D01*
X100965000Y-43180000D02*
X100965000Y-40510000D01*
X62865000Y-43180000D02*
X100965000Y-43180000D01*
X62865000Y-43180000D02*
X62865000Y-40510000D01*
X60195000Y-58550000D02*
X62865000Y-58550000D01*
X65405000Y-58550000D02*
X103635000Y-58550000D01*
X62865000Y-55880000D02*
X62865000Y-58550000D01*
X65405000Y-55880000D02*
X62865000Y-55880000D01*
D12*
X101035000Y-53240000D02*
X101035000Y-58430000D01*
X106145000Y-53240000D02*
X101035000Y-53240000D01*
X101035000Y-45620000D02*
X106145000Y-45620000D01*
X106135000Y-53240000D02*
X106135000Y-45620000D01*
X101035000Y-40450000D02*
X101035000Y-45620000D01*
D11*
X36920000Y-55000000D02*
X36920000Y-59980000D01*
X34200000Y-55000000D02*
X34200000Y-59980000D01*
X36920000Y-55000000D02*
X34200000Y-55000000D01*
X35580000Y-76120000D02*
X35580000Y-70150000D01*
X35580000Y-70150000D02*
X22960000Y-70150000D01*
X22960000Y-70150000D02*
X22960000Y-76120000D01*
X22960000Y-76120000D02*
X35580000Y-76120000D01*
X32270000Y-76110000D02*
X32270000Y-75360000D01*
X32270000Y-75360000D02*
X26270000Y-75360000D01*
X26270000Y-75360000D02*
X26270000Y-76110000D01*
X26270000Y-76110000D02*
X32270000Y-76110000D01*
X35570000Y-76110000D02*
X35570000Y-75360000D01*
X35570000Y-75360000D02*
X33770000Y-75360000D01*
X33770000Y-75360000D02*
X33770000Y-76110000D01*
X33770000Y-76110000D02*
X35570000Y-76110000D01*
X24770000Y-76110000D02*
X24770000Y-75360000D01*
X24770000Y-75360000D02*
X22970000Y-75360000D01*
X22970000Y-75360000D02*
X22970000Y-76110000D01*
X22970000Y-76110000D02*
X24770000Y-76110000D01*
X35570000Y-73860000D02*
X34820000Y-73860000D01*
X34820000Y-73860000D02*
X34820000Y-70910000D01*
X34820000Y-70910000D02*
X29270000Y-70910000D01*
X22970000Y-73860000D02*
X23720000Y-73860000D01*
X23720000Y-73860000D02*
X23720000Y-70910000D01*
X23720000Y-70910000D02*
X29270000Y-70910000D01*
X34620000Y-76410000D02*
X35870000Y-76410000D01*
X35870000Y-76410000D02*
X35870000Y-75160000D01*
X123400000Y-32710000D02*
X122150000Y-32710000D01*
X123400000Y-33960000D02*
X123400000Y-32710000D01*
X117900000Y-44860000D02*
X117900000Y-39310000D01*
X120850000Y-44860000D02*
X117900000Y-44860000D01*
X120850000Y-45610000D02*
X120850000Y-44860000D01*
X117900000Y-33760000D02*
X117900000Y-39310000D01*
X120850000Y-33760000D02*
X117900000Y-33760000D01*
X120850000Y-33010000D02*
X120850000Y-33760000D01*
X123100000Y-45610000D02*
X123100000Y-43810000D01*
X122350000Y-45610000D02*
X123100000Y-45610000D01*
X122350000Y-43810000D02*
X122350000Y-45610000D01*
X123100000Y-43810000D02*
X122350000Y-43810000D01*
X123100000Y-34810000D02*
X123100000Y-33010000D01*
X122350000Y-34810000D02*
X123100000Y-34810000D01*
X122350000Y-33010000D02*
X122350000Y-34810000D01*
X123100000Y-33010000D02*
X122350000Y-33010000D01*
X123100000Y-42310000D02*
X123100000Y-36310000D01*
X122350000Y-42310000D02*
X123100000Y-42310000D01*
X122350000Y-36310000D02*
X122350000Y-42310000D01*
X123100000Y-36310000D02*
X122350000Y-36310000D01*
X123110000Y-45620000D02*
X123110000Y-33000000D01*
X117140000Y-45620000D02*
X123110000Y-45620000D01*
X117140000Y-33000000D02*
X117140000Y-45620000D01*
X123110000Y-33000000D02*
X117140000Y-33000000D01*
D10*
X33960000Y-27520000D02*
X33960000Y-26145000D01*
X24184200Y-27520000D02*
X24184200Y-32170000D01*
X34185000Y-27520000D02*
X34185000Y-32170000D01*
X24184200Y-27520000D02*
X24509200Y-27520000D01*
X24184200Y-32170000D02*
X24509200Y-32170000D01*
X34185000Y-32170000D02*
X33860000Y-32170000D01*
X34185000Y-27520000D02*
X33960000Y-27520000D01*
D11*
X115630000Y-32445000D02*
X114300000Y-32445000D01*
X115630000Y-31115000D02*
X115630000Y-32445000D01*
X115630000Y-29845000D02*
X112970000Y-29845000D01*
X112970000Y-29845000D02*
X112970000Y-14545000D01*
X115630000Y-29845000D02*
X115630000Y-14545000D01*
X115630000Y-14545000D02*
X112970000Y-14545000D01*
X51515000Y-42545000D02*
G75*
G03X51515000Y-42545000I-5120000J0D01*
G01*
X29920000Y-38228748D02*
X29920000Y-38751252D01*
X28500000Y-38228748D02*
X28500000Y-38751252D01*
X38810000Y-22208748D02*
X38810000Y-22731252D01*
X37390000Y-22208748D02*
X37390000Y-22731252D01*
X22785000Y-22731252D02*
X22785000Y-22208748D01*
X24205000Y-22731252D02*
X24205000Y-22208748D01*
X38810000Y-26798748D02*
X38810000Y-27321252D01*
X37390000Y-26798748D02*
X37390000Y-27321252D01*
X34215000Y-22731252D02*
X34215000Y-22208748D01*
X35635000Y-22731252D02*
X35635000Y-22208748D01*
X21030000Y-26798748D02*
X21030000Y-27321252D01*
X19610000Y-26798748D02*
X19610000Y-27321252D01*
X19610000Y-33671252D02*
X19610000Y-33148748D01*
X21030000Y-33671252D02*
X21030000Y-33148748D01*
X85741252Y-37540000D02*
X85218748Y-37540000D01*
X85741252Y-36120000D02*
X85218748Y-36120000D01*
X78088748Y-36120000D02*
X78611252Y-36120000D01*
X78088748Y-37540000D02*
X78611252Y-37540000D01*
X111200000Y-30463748D02*
X111200000Y-30986252D01*
X109780000Y-30463748D02*
X109780000Y-30986252D01*
X113340000Y-76410000D02*
X113340000Y-75160000D01*
X112090000Y-76410000D02*
X113340000Y-76410000D01*
X101190000Y-70910000D02*
X106740000Y-70910000D01*
X101190000Y-73860000D02*
X101190000Y-70910000D01*
X100440000Y-73860000D02*
X101190000Y-73860000D01*
X112290000Y-70910000D02*
X106740000Y-70910000D01*
X112290000Y-73860000D02*
X112290000Y-70910000D01*
X113040000Y-73860000D02*
X112290000Y-73860000D01*
X100440000Y-76110000D02*
X102240000Y-76110000D01*
X100440000Y-75360000D02*
X100440000Y-76110000D01*
X102240000Y-75360000D02*
X100440000Y-75360000D01*
X102240000Y-76110000D02*
X102240000Y-75360000D01*
X111240000Y-76110000D02*
X113040000Y-76110000D01*
X111240000Y-75360000D02*
X111240000Y-76110000D01*
X113040000Y-75360000D02*
X111240000Y-75360000D01*
X113040000Y-76110000D02*
X113040000Y-75360000D01*
X103740000Y-76110000D02*
X109740000Y-76110000D01*
X103740000Y-75360000D02*
X103740000Y-76110000D01*
X109740000Y-75360000D02*
X103740000Y-75360000D01*
X109740000Y-76110000D02*
X109740000Y-75360000D01*
X100430000Y-76120000D02*
X113050000Y-76120000D01*
X100430000Y-70150000D02*
X100430000Y-76120000D01*
X113050000Y-70150000D02*
X100430000Y-70150000D01*
X113050000Y-76120000D02*
X113050000Y-70150000D01*
X63810000Y-76410000D02*
X63810000Y-75160000D01*
X62560000Y-76410000D02*
X63810000Y-76410000D01*
X51660000Y-70910000D02*
X57210000Y-70910000D01*
X51660000Y-73860000D02*
X51660000Y-70910000D01*
X50910000Y-73860000D02*
X51660000Y-73860000D01*
X62760000Y-70910000D02*
X57210000Y-70910000D01*
X62760000Y-73860000D02*
X62760000Y-70910000D01*
X63510000Y-73860000D02*
X62760000Y-73860000D01*
X50910000Y-76110000D02*
X52710000Y-76110000D01*
X50910000Y-75360000D02*
X50910000Y-76110000D01*
X52710000Y-75360000D02*
X50910000Y-75360000D01*
X52710000Y-76110000D02*
X52710000Y-75360000D01*
X61710000Y-76110000D02*
X63510000Y-76110000D01*
X61710000Y-75360000D02*
X61710000Y-76110000D01*
X63510000Y-75360000D02*
X61710000Y-75360000D01*
X63510000Y-76110000D02*
X63510000Y-75360000D01*
X54210000Y-76110000D02*
X60210000Y-76110000D01*
X54210000Y-75360000D02*
X54210000Y-76110000D01*
X60210000Y-75360000D02*
X54210000Y-75360000D01*
X60210000Y-76110000D02*
X60210000Y-75360000D01*
X50900000Y-76120000D02*
X63520000Y-76120000D01*
X50900000Y-70150000D02*
X50900000Y-76120000D01*
X63520000Y-70150000D02*
X50900000Y-70150000D01*
X63520000Y-76120000D02*
X63520000Y-70150000D01*
X96830000Y-76410000D02*
X96830000Y-75160000D01*
X95580000Y-76410000D02*
X96830000Y-76410000D01*
X84680000Y-70910000D02*
X90230000Y-70910000D01*
X84680000Y-73860000D02*
X84680000Y-70910000D01*
X83930000Y-73860000D02*
X84680000Y-73860000D01*
X95780000Y-70910000D02*
X90230000Y-70910000D01*
X95780000Y-73860000D02*
X95780000Y-70910000D01*
X96530000Y-73860000D02*
X95780000Y-73860000D01*
X83930000Y-76110000D02*
X85730000Y-76110000D01*
X83930000Y-75360000D02*
X83930000Y-76110000D01*
X85730000Y-75360000D02*
X83930000Y-75360000D01*
X85730000Y-76110000D02*
X85730000Y-75360000D01*
X94730000Y-76110000D02*
X96530000Y-76110000D01*
X94730000Y-75360000D02*
X94730000Y-76110000D01*
X96530000Y-75360000D02*
X94730000Y-75360000D01*
X96530000Y-76110000D02*
X96530000Y-75360000D01*
X87230000Y-76110000D02*
X93230000Y-76110000D01*
X87230000Y-75360000D02*
X87230000Y-76110000D01*
X93230000Y-75360000D02*
X87230000Y-75360000D01*
X93230000Y-76110000D02*
X93230000Y-75360000D01*
X83920000Y-76120000D02*
X96540000Y-76120000D01*
X83920000Y-70150000D02*
X83920000Y-76120000D01*
X96540000Y-70150000D02*
X83920000Y-70150000D01*
X96540000Y-76120000D02*
X96540000Y-70150000D01*
X22840000Y-13415000D02*
X22840000Y-19385000D01*
X22840000Y-19385000D02*
X35460000Y-19385000D01*
X35460000Y-19385000D02*
X35460000Y-13415000D01*
X35460000Y-13415000D02*
X22840000Y-13415000D01*
X26150000Y-13425000D02*
X26150000Y-14175000D01*
X26150000Y-14175000D02*
X32150000Y-14175000D01*
X32150000Y-14175000D02*
X32150000Y-13425000D01*
X32150000Y-13425000D02*
X26150000Y-13425000D01*
X22850000Y-13425000D02*
X22850000Y-14175000D01*
X22850000Y-14175000D02*
X24650000Y-14175000D01*
X24650000Y-14175000D02*
X24650000Y-13425000D01*
X24650000Y-13425000D02*
X22850000Y-13425000D01*
X33650000Y-13425000D02*
X33650000Y-14175000D01*
X33650000Y-14175000D02*
X35450000Y-14175000D01*
X35450000Y-14175000D02*
X35450000Y-13425000D01*
X35450000Y-13425000D02*
X33650000Y-13425000D01*
X22850000Y-15675000D02*
X23600000Y-15675000D01*
X23600000Y-15675000D02*
X23600000Y-18625000D01*
X23600000Y-18625000D02*
X29150000Y-18625000D01*
X35450000Y-15675000D02*
X34700000Y-15675000D01*
X34700000Y-15675000D02*
X34700000Y-18625000D01*
X34700000Y-18625000D02*
X29150000Y-18625000D01*
X23800000Y-13125000D02*
X22550000Y-13125000D01*
X22550000Y-13125000D02*
X22550000Y-14375000D01*
X80320000Y-76410000D02*
X80320000Y-75160000D01*
X79070000Y-76410000D02*
X80320000Y-76410000D01*
X68170000Y-70910000D02*
X73720000Y-70910000D01*
X68170000Y-73860000D02*
X68170000Y-70910000D01*
X67420000Y-73860000D02*
X68170000Y-73860000D01*
X79270000Y-70910000D02*
X73720000Y-70910000D01*
X79270000Y-73860000D02*
X79270000Y-70910000D01*
X80020000Y-73860000D02*
X79270000Y-73860000D01*
X67420000Y-76110000D02*
X69220000Y-76110000D01*
X67420000Y-75360000D02*
X67420000Y-76110000D01*
X69220000Y-75360000D02*
X67420000Y-75360000D01*
X69220000Y-76110000D02*
X69220000Y-75360000D01*
X78220000Y-76110000D02*
X80020000Y-76110000D01*
X78220000Y-75360000D02*
X78220000Y-76110000D01*
X80020000Y-75360000D02*
X78220000Y-75360000D01*
X80020000Y-76110000D02*
X80020000Y-75360000D01*
X70720000Y-76110000D02*
X76720000Y-76110000D01*
X70720000Y-75360000D02*
X70720000Y-76110000D01*
X76720000Y-75360000D02*
X70720000Y-75360000D01*
X76720000Y-76110000D02*
X76720000Y-75360000D01*
X67410000Y-76120000D02*
X80030000Y-76120000D01*
X67410000Y-70150000D02*
X67410000Y-76120000D01*
X80030000Y-70150000D02*
X67410000Y-70150000D01*
X80030000Y-76120000D02*
X80030000Y-70150000D01*
X123400000Y-56840000D02*
X122150000Y-56840000D01*
X123400000Y-58090000D02*
X123400000Y-56840000D01*
X117900000Y-68990000D02*
X117900000Y-63440000D01*
X120850000Y-68990000D02*
X117900000Y-68990000D01*
X120850000Y-69740000D02*
X120850000Y-68990000D01*
X117900000Y-57890000D02*
X117900000Y-63440000D01*
X120850000Y-57890000D02*
X117900000Y-57890000D01*
X120850000Y-57140000D02*
X120850000Y-57890000D01*
X123100000Y-69740000D02*
X123100000Y-67940000D01*
X122350000Y-69740000D02*
X123100000Y-69740000D01*
X122350000Y-67940000D02*
X122350000Y-69740000D01*
X123100000Y-67940000D02*
X122350000Y-67940000D01*
X123100000Y-58940000D02*
X123100000Y-57140000D01*
X122350000Y-58940000D02*
X123100000Y-58940000D01*
X122350000Y-57140000D02*
X122350000Y-58940000D01*
X123100000Y-57140000D02*
X122350000Y-57140000D01*
X123100000Y-66440000D02*
X123100000Y-60440000D01*
X122350000Y-66440000D02*
X123100000Y-66440000D01*
X122350000Y-60440000D02*
X122350000Y-66440000D01*
X123100000Y-60440000D02*
X122350000Y-60440000D01*
X123110000Y-69750000D02*
X123110000Y-57130000D01*
X117140000Y-69750000D02*
X123110000Y-69750000D01*
X117140000Y-57130000D02*
X117140000Y-69750000D01*
X123110000Y-57130000D02*
X117140000Y-57130000D01*
X55695436Y-50440000D02*
X56899564Y-50440000D01*
X55695436Y-48620000D02*
X56899564Y-48620000D01*
X61575000Y-49595000D02*
X61575000Y-53045000D01*
X61575000Y-49595000D02*
X61575000Y-47645000D01*
X66695000Y-49595000D02*
X66695000Y-51545000D01*
X66695000Y-49595000D02*
X66695000Y-47645000D01*
X103495000Y-49595000D02*
X103495000Y-47645000D01*
X103495000Y-49595000D02*
X103495000Y-51545000D01*
X94625000Y-49595000D02*
X94625000Y-47645000D01*
X94625000Y-49595000D02*
X94625000Y-53045000D01*
X85325000Y-26690000D02*
X84065000Y-26690000D01*
X78505000Y-26690000D02*
X79765000Y-26690000D01*
X85325000Y-30450000D02*
X85325000Y-26690000D01*
X78505000Y-32700000D02*
X78505000Y-26690000D01*
X72406252Y-48820000D02*
X71883748Y-48820000D01*
X72406252Y-50240000D02*
X71883748Y-50240000D01*
X55863748Y-54050000D02*
X56386252Y-54050000D01*
X55863748Y-52630000D02*
X56386252Y-52630000D01*
X56386252Y-45010000D02*
X55863748Y-45010000D01*
X56386252Y-46430000D02*
X55863748Y-46430000D01*
X107298748Y-60400000D02*
X107821252Y-60400000D01*
X107298748Y-58980000D02*
X107821252Y-58980000D01*
X113013748Y-66600000D02*
X113536252Y-66600000D01*
X113013748Y-68020000D02*
X113536252Y-68020000D01*
X61578748Y-66600000D02*
X62101252Y-66600000D01*
X61578748Y-68020000D02*
X62101252Y-68020000D01*
X41985000Y-22208748D02*
X41985000Y-22731252D01*
X40565000Y-22208748D02*
X40565000Y-22731252D01*
X113536252Y-47550000D02*
X113013748Y-47550000D01*
X113536252Y-48970000D02*
X113013748Y-48970000D01*
X54593748Y-66600000D02*
X55116252Y-66600000D01*
X54593748Y-68020000D02*
X55116252Y-68020000D01*
X107298748Y-45160000D02*
X107821252Y-45160000D01*
X107298748Y-43740000D02*
X107821252Y-43740000D01*
X24055000Y-44321252D02*
X24055000Y-43798748D01*
X25475000Y-44321252D02*
X25475000Y-43798748D01*
X107298748Y-39930000D02*
X107821252Y-39930000D01*
X107298748Y-41350000D02*
X107821252Y-41350000D01*
X40768748Y-18340000D02*
X41291252Y-18340000D01*
X40768748Y-19760000D02*
X41291252Y-19760000D01*
X47006252Y-70560000D02*
X46483748Y-70560000D01*
X47006252Y-69140000D02*
X46483748Y-69140000D01*
X19610000Y-22731252D02*
X19610000Y-22208748D01*
X21030000Y-22731252D02*
X21030000Y-22208748D01*
X21030000Y-38228748D02*
X21030000Y-38751252D01*
X19610000Y-38228748D02*
X19610000Y-38751252D01*
X34365000Y-38228748D02*
X34365000Y-38751252D01*
X32945000Y-38228748D02*
X32945000Y-38751252D01*
X21030000Y-43798748D02*
X21030000Y-44321252D01*
X19610000Y-43798748D02*
X19610000Y-44321252D01*
X29920000Y-43798748D02*
X29920000Y-44321252D01*
X28500000Y-43798748D02*
X28500000Y-44321252D01*
X25348000Y-38228748D02*
X25348000Y-38751252D01*
X23928000Y-38228748D02*
X23928000Y-38751252D01*
X38810000Y-43798748D02*
X38810000Y-44321252D01*
X37390000Y-43798748D02*
X37390000Y-44321252D01*
X34365000Y-43798748D02*
X34365000Y-44321252D01*
X32945000Y-43798748D02*
X32945000Y-44321252D01*
X38810000Y-38228748D02*
X38810000Y-38751252D01*
X37390000Y-38228748D02*
X37390000Y-38751252D01*
X40133748Y-69140000D02*
X40656252Y-69140000D01*
X40133748Y-70560000D02*
X40656252Y-70560000D01*
X40030000Y-16200000D02*
X42890000Y-16200000D01*
X42890000Y-16200000D02*
X42890000Y-14280000D01*
X42890000Y-14280000D02*
X40030000Y-14280000D01*
X48605000Y-14280000D02*
X45745000Y-14280000D01*
X48605000Y-16200000D02*
X48605000Y-14280000D01*
X45745000Y-16200000D02*
X48605000Y-16200000D01*
X47745000Y-72700000D02*
X44885000Y-72700000D01*
X44885000Y-72700000D02*
X44885000Y-74620000D01*
X44885000Y-74620000D02*
X47745000Y-74620000D01*
X39395000Y-74620000D02*
X42255000Y-74620000D01*
X42255000Y-74620000D02*
X42255000Y-72700000D01*
X42255000Y-72700000D02*
X39395000Y-72700000D01*
X57350000Y-27760000D02*
X54410000Y-27760000D01*
X54410000Y-27760000D02*
X54410000Y-33200000D01*
X54410000Y-33200000D02*
X57350000Y-33200000D01*
X57350000Y-33200000D02*
X57350000Y-27760000D01*
X55880000Y-26740000D02*
X55880000Y-27760000D01*
X55880000Y-34220000D02*
X55880000Y-33200000D01*
X57350000Y-28660000D02*
X54410000Y-28660000D01*
X57350000Y-28780000D02*
X54410000Y-28780000D01*
X57350000Y-28540000D02*
X54410000Y-28540000D01*
X28120000Y-53550000D02*
X22680000Y-53550000D01*
X22680000Y-53550000D02*
X22680000Y-63290000D01*
X22680000Y-63290000D02*
X28120000Y-63290000D01*
X28120000Y-63290000D02*
X28120000Y-53550000D01*
X25400000Y-52640000D02*
X25400000Y-53550000D01*
X25400000Y-64200000D02*
X25400000Y-63290000D01*
X28120000Y-55095000D02*
X22680000Y-55095000D01*
X28120000Y-55215000D02*
X22680000Y-55215000D01*
X28120000Y-54975000D02*
X22680000Y-54975000D01*
X90676252Y-48820000D02*
X90153748Y-48820000D01*
X90676252Y-50240000D02*
X90153748Y-50240000D01*
X71883748Y-54050000D02*
X72406252Y-54050000D01*
X71883748Y-52630000D02*
X72406252Y-52630000D01*
X113013748Y-60400000D02*
X113536252Y-60400000D01*
X113013748Y-58980000D02*
X113536252Y-58980000D01*
X113013748Y-41350000D02*
X113536252Y-41350000D01*
X113013748Y-39930000D02*
X113536252Y-39930000D01*
X113013748Y-45160000D02*
X113536252Y-45160000D01*
X113013748Y-43740000D02*
X113536252Y-43740000D01*
X71883748Y-46430000D02*
X72406252Y-46430000D01*
X71883748Y-45010000D02*
X72406252Y-45010000D01*
X113013748Y-36120000D02*
X113536252Y-36120000D01*
X113013748Y-37540000D02*
X113536252Y-37540000D01*
X90788748Y-66600000D02*
X91311252Y-66600000D01*
X90788748Y-68020000D02*
X91311252Y-68020000D01*
X107298748Y-68020000D02*
X107821252Y-68020000D01*
X107298748Y-66600000D02*
X107821252Y-66600000D01*
X41995000Y-34315000D02*
X44845000Y-34315000D01*
X50715000Y-34315000D02*
X47865000Y-34315000D01*
X50715000Y-26659437D02*
X50715000Y-34315000D01*
X41995000Y-26659437D02*
X41995000Y-34315000D01*
X43059437Y-25595000D02*
X44845000Y-25595000D01*
X49650563Y-25595000D02*
X47865000Y-25595000D01*
X49650563Y-25595000D02*
X50715000Y-26659437D01*
X43059437Y-25595000D02*
X41995000Y-26659437D01*
X48865000Y-24355000D02*
X48865000Y-25355000D01*
X49365000Y-24855000D02*
X48365000Y-24855000D01*
X103685000Y-24395000D02*
X99935000Y-24395000D01*
X93165000Y-24395000D02*
X96915000Y-24395000D01*
X93165000Y-33850563D02*
X93165000Y-24395000D01*
X103685000Y-33850563D02*
X103685000Y-24395000D01*
X102620563Y-34915000D02*
X99935000Y-34915000D01*
X94229437Y-34915000D02*
X96915000Y-34915000D01*
X94229437Y-34915000D02*
X93165000Y-33850563D01*
X102620563Y-34915000D02*
X103685000Y-33850563D01*
X95665000Y-36405000D02*
X95665000Y-35155000D01*
X95040000Y-35780000D02*
X96290000Y-35780000D01*
X70665000Y-24395000D02*
X66915000Y-24395000D01*
X60145000Y-24395000D02*
X63895000Y-24395000D01*
X60145000Y-33850563D02*
X60145000Y-24395000D01*
X70665000Y-33850563D02*
X70665000Y-24395000D01*
X69600563Y-34915000D02*
X66915000Y-34915000D01*
X61209437Y-34915000D02*
X63895000Y-34915000D01*
X61209437Y-34915000D02*
X60145000Y-33850563D01*
X69600563Y-34915000D02*
X70665000Y-33850563D01*
X62645000Y-36405000D02*
X62645000Y-35155000D01*
X62020000Y-35780000D02*
X63270000Y-35780000D01*
X53955000Y-59045000D02*
G75*
G03X53955000Y-59045000I-7600000J0D01*
G01*
D10*
X28852904Y-62809380D02*
X28852904Y-61809380D01*
X29091000Y-61809380D01*
X29233857Y-61857000D01*
X29329095Y-61952238D01*
X29376714Y-62047476D01*
X29424333Y-62237952D01*
X29424333Y-62380809D01*
X29376714Y-62571285D01*
X29329095Y-62666523D01*
X29233857Y-62761761D01*
X29091000Y-62809380D01*
X28852904Y-62809380D01*
X29805285Y-61904619D02*
X29852904Y-61857000D01*
X29948142Y-61809380D01*
X30186238Y-61809380D01*
X30281476Y-61857000D01*
X30329095Y-61904619D01*
X30376714Y-61999857D01*
X30376714Y-62095095D01*
X30329095Y-62237952D01*
X29757666Y-62809380D01*
X30376714Y-62809380D01*
X29456095Y-56586380D02*
X29456095Y-55586380D01*
X30027523Y-56586380D02*
X29598952Y-56014952D01*
X30027523Y-55586380D02*
X29456095Y-56157809D01*
X90265857Y-59602666D02*
X90742047Y-59602666D01*
X90170619Y-59888380D02*
X90503952Y-58888380D01*
X90837285Y-59888380D01*
X91170619Y-59888380D02*
X91170619Y-59221714D01*
X91170619Y-59412190D02*
X91218238Y-59316952D01*
X91265857Y-59269333D01*
X91361095Y-59221714D01*
X91456333Y-59221714D01*
X92218238Y-59888380D02*
X92218238Y-58888380D01*
X92218238Y-59840761D02*
X92123000Y-59888380D01*
X91932523Y-59888380D01*
X91837285Y-59840761D01*
X91789666Y-59793142D01*
X91742047Y-59697904D01*
X91742047Y-59412190D01*
X91789666Y-59316952D01*
X91837285Y-59269333D01*
X91932523Y-59221714D01*
X92123000Y-59221714D01*
X92218238Y-59269333D01*
X93123000Y-59221714D02*
X93123000Y-59888380D01*
X92694428Y-59221714D02*
X92694428Y-59745523D01*
X92742047Y-59840761D01*
X92837285Y-59888380D01*
X92980142Y-59888380D01*
X93075380Y-59840761D01*
X93123000Y-59793142D01*
X93599190Y-59888380D02*
X93599190Y-59221714D01*
X93599190Y-58888380D02*
X93551571Y-58936000D01*
X93599190Y-58983619D01*
X93646809Y-58936000D01*
X93599190Y-58888380D01*
X93599190Y-58983619D01*
X94075380Y-59221714D02*
X94075380Y-59888380D01*
X94075380Y-59316952D02*
X94123000Y-59269333D01*
X94218238Y-59221714D01*
X94361095Y-59221714D01*
X94456333Y-59269333D01*
X94503952Y-59364571D01*
X94503952Y-59888380D01*
X95123000Y-59888380D02*
X95027761Y-59840761D01*
X94980142Y-59793142D01*
X94932523Y-59697904D01*
X94932523Y-59412190D01*
X94980142Y-59316952D01*
X95027761Y-59269333D01*
X95123000Y-59221714D01*
X95265857Y-59221714D01*
X95361095Y-59269333D01*
X95408714Y-59316952D01*
X95456333Y-59412190D01*
X95456333Y-59697904D01*
X95408714Y-59793142D01*
X95361095Y-59840761D01*
X95265857Y-59888380D01*
X95123000Y-59888380D01*
X95646809Y-59983619D02*
X96408714Y-59983619D01*
X96646809Y-59888380D02*
X96646809Y-58888380D01*
X97218238Y-59888380D01*
X97218238Y-58888380D01*
X98123000Y-59888380D02*
X98123000Y-59364571D01*
X98075380Y-59269333D01*
X97980142Y-59221714D01*
X97789666Y-59221714D01*
X97694428Y-59269333D01*
X98123000Y-59840761D02*
X98027761Y-59888380D01*
X97789666Y-59888380D01*
X97694428Y-59840761D01*
X97646809Y-59745523D01*
X97646809Y-59650285D01*
X97694428Y-59555047D01*
X97789666Y-59507428D01*
X98027761Y-59507428D01*
X98123000Y-59459809D01*
X98599190Y-59221714D02*
X98599190Y-59888380D01*
X98599190Y-59316952D02*
X98646809Y-59269333D01*
X98742047Y-59221714D01*
X98884904Y-59221714D01*
X98980142Y-59269333D01*
X99027761Y-59364571D01*
X99027761Y-59888380D01*
X99646809Y-59888380D02*
X99551571Y-59840761D01*
X99503952Y-59793142D01*
X99456333Y-59697904D01*
X99456333Y-59412190D01*
X99503952Y-59316952D01*
X99551571Y-59269333D01*
X99646809Y-59221714D01*
X99789666Y-59221714D01*
X99884904Y-59269333D01*
X99932523Y-59316952D01*
X99980142Y-59412190D01*
X99980142Y-59697904D01*
X99932523Y-59793142D01*
X99884904Y-59840761D01*
X99789666Y-59888380D01*
X99646809Y-59888380D01*
X36091904Y-62936380D02*
X36091904Y-61936380D01*
X36330000Y-61936380D01*
X36472857Y-61984000D01*
X36568095Y-62079238D01*
X36615714Y-62174476D01*
X36663333Y-62364952D01*
X36663333Y-62507809D01*
X36615714Y-62698285D01*
X36568095Y-62793523D01*
X36472857Y-62888761D01*
X36330000Y-62936380D01*
X36091904Y-62936380D01*
X36996666Y-61936380D02*
X37663333Y-61936380D01*
X37234761Y-62936380D01*
X23337818Y-68399060D02*
X23337818Y-68698599D01*
X23038279Y-68578783D02*
X23337818Y-68698599D01*
X23637357Y-68578783D01*
X23158094Y-68938230D02*
X23337818Y-68698599D01*
X23517541Y-68938230D01*
X25075144Y-69657124D02*
X25075144Y-68399060D01*
X25554407Y-68399060D01*
X25674222Y-68458968D01*
X25734130Y-68518875D01*
X25794038Y-68638691D01*
X25794038Y-68818414D01*
X25734130Y-68938230D01*
X25674222Y-68998138D01*
X25554407Y-69058046D01*
X25075144Y-69058046D01*
X26572840Y-68399060D02*
X26812471Y-68399060D01*
X26932286Y-68458968D01*
X27052102Y-68578783D01*
X27112010Y-68818414D01*
X27112010Y-69237769D01*
X27052102Y-69477400D01*
X26932286Y-69597216D01*
X26812471Y-69657124D01*
X26572840Y-69657124D01*
X26453024Y-69597216D01*
X26333208Y-69477400D01*
X26273300Y-69237769D01*
X26273300Y-68818414D01*
X26333208Y-68578783D01*
X26453024Y-68458968D01*
X26572840Y-68399060D01*
X27531364Y-68399060D02*
X27830904Y-69657124D01*
X28070535Y-68758507D01*
X28310166Y-69657124D01*
X28609705Y-68399060D01*
X29088968Y-68998138D02*
X29508322Y-68998138D01*
X29688046Y-69657124D02*
X29088968Y-69657124D01*
X29088968Y-68399060D01*
X29688046Y-68399060D01*
X30946110Y-69657124D02*
X30526755Y-69058046D01*
X30227216Y-69657124D02*
X30227216Y-68399060D01*
X30706478Y-68399060D01*
X30826294Y-68458968D01*
X30886202Y-68518875D01*
X30946110Y-68638691D01*
X30946110Y-68818414D01*
X30886202Y-68938230D01*
X30826294Y-68998138D01*
X30706478Y-69058046D01*
X30227216Y-69058046D01*
X32144266Y-69657124D02*
X31425372Y-69657124D01*
X31784819Y-69657124D02*
X31784819Y-68399060D01*
X31665003Y-68578783D01*
X31545188Y-68698599D01*
X31425372Y-68758507D01*
X32623528Y-68518875D02*
X32683436Y-68458968D01*
X32803252Y-68399060D01*
X33102791Y-68399060D01*
X33222606Y-68458968D01*
X33282514Y-68518875D01*
X33342422Y-68638691D01*
X33342422Y-68758507D01*
X33282514Y-68938230D01*
X32563620Y-69657124D01*
X33342422Y-69657124D01*
X33701869Y-68399060D02*
X34121224Y-69657124D01*
X34540578Y-68399060D01*
X36098181Y-68399060D02*
X36098181Y-68698599D01*
X35798642Y-68578783D02*
X36098181Y-68698599D01*
X36397720Y-68578783D01*
X35918458Y-68938230D02*
X36098181Y-68698599D01*
X36277905Y-68938230D01*
X117697476Y-32202380D02*
X117697476Y-31202380D01*
X118268904Y-32202380D02*
X117840333Y-31630952D01*
X118268904Y-31202380D02*
X117697476Y-31773809D01*
X118697476Y-32202380D02*
X118697476Y-31202380D01*
X119268904Y-32202380D01*
X119268904Y-31202380D01*
X119935571Y-31202380D02*
X120126047Y-31202380D01*
X120221285Y-31250000D01*
X120316523Y-31345238D01*
X120364142Y-31535714D01*
X120364142Y-31869047D01*
X120316523Y-32059523D01*
X120221285Y-32154761D01*
X120126047Y-32202380D01*
X119935571Y-32202380D01*
X119840333Y-32154761D01*
X119745095Y-32059523D01*
X119697476Y-31869047D01*
X119697476Y-31535714D01*
X119745095Y-31345238D01*
X119840333Y-31250000D01*
X119935571Y-31202380D01*
X121126047Y-31678571D02*
X121268904Y-31726190D01*
X121316523Y-31773809D01*
X121364142Y-31869047D01*
X121364142Y-32011904D01*
X121316523Y-32107142D01*
X121268904Y-32154761D01*
X121173666Y-32202380D01*
X120792714Y-32202380D01*
X120792714Y-31202380D01*
X121126047Y-31202380D01*
X121221285Y-31250000D01*
X121268904Y-31297619D01*
X121316523Y-31392857D01*
X121316523Y-31488095D01*
X121268904Y-31583333D01*
X121221285Y-31630952D01*
X121126047Y-31678571D01*
X120792714Y-31678571D01*
X34671095Y-28662380D02*
X34671095Y-29471904D01*
X34718714Y-29567142D01*
X34766333Y-29614761D01*
X34861571Y-29662380D01*
X35052047Y-29662380D01*
X35147285Y-29614761D01*
X35194904Y-29567142D01*
X35242523Y-29471904D01*
X35242523Y-28662380D01*
X35671095Y-28757619D02*
X35718714Y-28710000D01*
X35813952Y-28662380D01*
X36052047Y-28662380D01*
X36147285Y-28710000D01*
X36194904Y-28757619D01*
X36242523Y-28852857D01*
X36242523Y-28948095D01*
X36194904Y-29090952D01*
X35623476Y-29662380D01*
X36242523Y-29662380D01*
X112196904Y-13787380D02*
X112196904Y-12787380D01*
X112435000Y-12787380D01*
X112577857Y-12835000D01*
X112673095Y-12930238D01*
X112720714Y-13025476D01*
X112768333Y-13215952D01*
X112768333Y-13358809D01*
X112720714Y-13549285D01*
X112673095Y-13644523D01*
X112577857Y-13739761D01*
X112435000Y-13787380D01*
X112196904Y-13787380D01*
X113196904Y-13787380D02*
X113196904Y-12787380D01*
X113625476Y-13739761D02*
X113768333Y-13787380D01*
X114006428Y-13787380D01*
X114101666Y-13739761D01*
X114149285Y-13692142D01*
X114196904Y-13596904D01*
X114196904Y-13501666D01*
X114149285Y-13406428D01*
X114101666Y-13358809D01*
X114006428Y-13311190D01*
X113815952Y-13263571D01*
X113720714Y-13215952D01*
X113673095Y-13168333D01*
X113625476Y-13073095D01*
X113625476Y-12977857D01*
X113673095Y-12882619D01*
X113720714Y-12835000D01*
X113815952Y-12787380D01*
X114054047Y-12787380D01*
X114196904Y-12835000D01*
X114625476Y-13787380D02*
X114625476Y-12787380D01*
X115006428Y-12787380D01*
X115101666Y-12835000D01*
X115149285Y-12882619D01*
X115196904Y-12977857D01*
X115196904Y-13120714D01*
X115149285Y-13215952D01*
X115101666Y-13263571D01*
X115006428Y-13311190D01*
X114625476Y-13311190D01*
X116101666Y-13787380D02*
X115625476Y-13787380D01*
X115625476Y-12787380D01*
X116387380Y-13501666D02*
X116863571Y-13501666D01*
X116292142Y-13787380D02*
X116625476Y-12787380D01*
X116958809Y-13787380D01*
X117482619Y-13311190D02*
X117482619Y-13787380D01*
X117149285Y-12787380D02*
X117482619Y-13311190D01*
X117815952Y-12787380D01*
X46228333Y-49152142D02*
X46180714Y-49199761D01*
X46037857Y-49247380D01*
X45942619Y-49247380D01*
X45799761Y-49199761D01*
X45704523Y-49104523D01*
X45656904Y-49009285D01*
X45609285Y-48818809D01*
X45609285Y-48675952D01*
X45656904Y-48485476D01*
X45704523Y-48390238D01*
X45799761Y-48295000D01*
X45942619Y-48247380D01*
X46037857Y-48247380D01*
X46180714Y-48295000D01*
X46228333Y-48342619D01*
X47180714Y-49247380D02*
X46609285Y-49247380D01*
X46895000Y-49247380D02*
X46895000Y-48247380D01*
X46799761Y-48390238D01*
X46704523Y-48485476D01*
X46609285Y-48533095D01*
X28027333Y-36647380D02*
X27694000Y-36171190D01*
X27455904Y-36647380D02*
X27455904Y-35647380D01*
X27836857Y-35647380D01*
X27932095Y-35695000D01*
X27979714Y-35742619D01*
X28027333Y-35837857D01*
X28027333Y-35980714D01*
X27979714Y-36075952D01*
X27932095Y-36123571D01*
X27836857Y-36171190D01*
X27455904Y-36171190D01*
X28503523Y-36647380D02*
X28694000Y-36647380D01*
X28789238Y-36599761D01*
X28836857Y-36552142D01*
X28932095Y-36409285D01*
X28979714Y-36218809D01*
X28979714Y-35837857D01*
X28932095Y-35742619D01*
X28884476Y-35695000D01*
X28789238Y-35647380D01*
X28598761Y-35647380D01*
X28503523Y-35695000D01*
X28455904Y-35742619D01*
X28408285Y-35837857D01*
X28408285Y-36075952D01*
X28455904Y-36171190D01*
X28503523Y-36218809D01*
X28598761Y-36266428D01*
X28789238Y-36266428D01*
X28884476Y-36218809D01*
X28932095Y-36171190D01*
X28979714Y-36075952D01*
X38219142Y-25376142D02*
X38171523Y-25423761D01*
X38028666Y-25471380D01*
X37933428Y-25471380D01*
X37790571Y-25423761D01*
X37695333Y-25328523D01*
X37647714Y-25233285D01*
X37600095Y-25042809D01*
X37600095Y-24899952D01*
X37647714Y-24709476D01*
X37695333Y-24614238D01*
X37790571Y-24519000D01*
X37933428Y-24471380D01*
X38028666Y-24471380D01*
X38171523Y-24519000D01*
X38219142Y-24566619D01*
X39171523Y-25471380D02*
X38600095Y-25471380D01*
X38885809Y-25471380D02*
X38885809Y-24471380D01*
X38790571Y-24614238D01*
X38695333Y-24709476D01*
X38600095Y-24757095D01*
X39504857Y-24471380D02*
X40123904Y-24471380D01*
X39790571Y-24852333D01*
X39933428Y-24852333D01*
X40028666Y-24899952D01*
X40076285Y-24947571D01*
X40123904Y-25042809D01*
X40123904Y-25280904D01*
X40076285Y-25376142D01*
X40028666Y-25423761D01*
X39933428Y-25471380D01*
X39647714Y-25471380D01*
X39552476Y-25423761D01*
X39504857Y-25376142D01*
X23106142Y-25249142D02*
X23058523Y-25296761D01*
X22915666Y-25344380D01*
X22820428Y-25344380D01*
X22677571Y-25296761D01*
X22582333Y-25201523D01*
X22534714Y-25106285D01*
X22487095Y-24915809D01*
X22487095Y-24772952D01*
X22534714Y-24582476D01*
X22582333Y-24487238D01*
X22677571Y-24392000D01*
X22820428Y-24344380D01*
X22915666Y-24344380D01*
X23058523Y-24392000D01*
X23106142Y-24439619D01*
X24058523Y-25344380D02*
X23487095Y-25344380D01*
X23772809Y-25344380D02*
X23772809Y-24344380D01*
X23677571Y-24487238D01*
X23582333Y-24582476D01*
X23487095Y-24630095D01*
X24439476Y-24439619D02*
X24487095Y-24392000D01*
X24582333Y-24344380D01*
X24820428Y-24344380D01*
X24915666Y-24392000D01*
X24963285Y-24439619D01*
X25010904Y-24534857D01*
X25010904Y-24630095D01*
X24963285Y-24772952D01*
X24391857Y-25344380D01*
X25010904Y-25344380D01*
X38092142Y-29567142D02*
X38044523Y-29614761D01*
X37901666Y-29662380D01*
X37806428Y-29662380D01*
X37663571Y-29614761D01*
X37568333Y-29519523D01*
X37520714Y-29424285D01*
X37473095Y-29233809D01*
X37473095Y-29090952D01*
X37520714Y-28900476D01*
X37568333Y-28805238D01*
X37663571Y-28710000D01*
X37806428Y-28662380D01*
X37901666Y-28662380D01*
X38044523Y-28710000D01*
X38092142Y-28757619D01*
X39044523Y-29662380D02*
X38473095Y-29662380D01*
X38758809Y-29662380D02*
X38758809Y-28662380D01*
X38663571Y-28805238D01*
X38568333Y-28900476D01*
X38473095Y-28948095D01*
X39996904Y-29662380D02*
X39425476Y-29662380D01*
X39711190Y-29662380D02*
X39711190Y-28662380D01*
X39615952Y-28805238D01*
X39520714Y-28900476D01*
X39425476Y-28948095D01*
X34282142Y-25503142D02*
X34234523Y-25550761D01*
X34091666Y-25598380D01*
X33996428Y-25598380D01*
X33853571Y-25550761D01*
X33758333Y-25455523D01*
X33710714Y-25360285D01*
X33663095Y-25169809D01*
X33663095Y-25026952D01*
X33710714Y-24836476D01*
X33758333Y-24741238D01*
X33853571Y-24646000D01*
X33996428Y-24598380D01*
X34091666Y-24598380D01*
X34234523Y-24646000D01*
X34282142Y-24693619D01*
X35234523Y-25598380D02*
X34663095Y-25598380D01*
X34948809Y-25598380D02*
X34948809Y-24598380D01*
X34853571Y-24741238D01*
X34758333Y-24836476D01*
X34663095Y-24884095D01*
X35853571Y-24598380D02*
X35948809Y-24598380D01*
X36044047Y-24646000D01*
X36091666Y-24693619D01*
X36139285Y-24788857D01*
X36186904Y-24979333D01*
X36186904Y-25217428D01*
X36139285Y-25407904D01*
X36091666Y-25503142D01*
X36044047Y-25550761D01*
X35948809Y-25598380D01*
X35853571Y-25598380D01*
X35758333Y-25550761D01*
X35710714Y-25503142D01*
X35663095Y-25407904D01*
X35615476Y-25217428D01*
X35615476Y-24979333D01*
X35663095Y-24788857D01*
X35710714Y-24693619D01*
X35758333Y-24646000D01*
X35853571Y-24598380D01*
X17994333Y-29059142D02*
X17946714Y-29106761D01*
X17803857Y-29154380D01*
X17708619Y-29154380D01*
X17565761Y-29106761D01*
X17470523Y-29011523D01*
X17422904Y-28916285D01*
X17375285Y-28725809D01*
X17375285Y-28582952D01*
X17422904Y-28392476D01*
X17470523Y-28297238D01*
X17565761Y-28202000D01*
X17708619Y-28154380D01*
X17803857Y-28154380D01*
X17946714Y-28202000D01*
X17994333Y-28249619D01*
X18565761Y-28582952D02*
X18470523Y-28535333D01*
X18422904Y-28487714D01*
X18375285Y-28392476D01*
X18375285Y-28344857D01*
X18422904Y-28249619D01*
X18470523Y-28202000D01*
X18565761Y-28154380D01*
X18756238Y-28154380D01*
X18851476Y-28202000D01*
X18899095Y-28249619D01*
X18946714Y-28344857D01*
X18946714Y-28392476D01*
X18899095Y-28487714D01*
X18851476Y-28535333D01*
X18756238Y-28582952D01*
X18565761Y-28582952D01*
X18470523Y-28630571D01*
X18422904Y-28678190D01*
X18375285Y-28773428D01*
X18375285Y-28963904D01*
X18422904Y-29059142D01*
X18470523Y-29106761D01*
X18565761Y-29154380D01*
X18756238Y-29154380D01*
X18851476Y-29106761D01*
X18899095Y-29059142D01*
X18946714Y-28963904D01*
X18946714Y-28773428D01*
X18899095Y-28678190D01*
X18851476Y-28630571D01*
X18756238Y-28582952D01*
X17994333Y-32107142D02*
X17946714Y-32154761D01*
X17803857Y-32202380D01*
X17708619Y-32202380D01*
X17565761Y-32154761D01*
X17470523Y-32059523D01*
X17422904Y-31964285D01*
X17375285Y-31773809D01*
X17375285Y-31630952D01*
X17422904Y-31440476D01*
X17470523Y-31345238D01*
X17565761Y-31250000D01*
X17708619Y-31202380D01*
X17803857Y-31202380D01*
X17946714Y-31250000D01*
X17994333Y-31297619D01*
X18851476Y-31202380D02*
X18661000Y-31202380D01*
X18565761Y-31250000D01*
X18518142Y-31297619D01*
X18422904Y-31440476D01*
X18375285Y-31630952D01*
X18375285Y-32011904D01*
X18422904Y-32107142D01*
X18470523Y-32154761D01*
X18565761Y-32202380D01*
X18756238Y-32202380D01*
X18851476Y-32154761D01*
X18899095Y-32107142D01*
X18946714Y-32011904D01*
X18946714Y-31773809D01*
X18899095Y-31678571D01*
X18851476Y-31630952D01*
X18756238Y-31583333D01*
X18565761Y-31583333D01*
X18470523Y-31630952D01*
X18422904Y-31678571D01*
X18375285Y-31773809D01*
X83780333Y-35663142D02*
X83732714Y-35710761D01*
X83589857Y-35758380D01*
X83494619Y-35758380D01*
X83351761Y-35710761D01*
X83256523Y-35615523D01*
X83208904Y-35520285D01*
X83161285Y-35329809D01*
X83161285Y-35186952D01*
X83208904Y-34996476D01*
X83256523Y-34901238D01*
X83351761Y-34806000D01*
X83494619Y-34758380D01*
X83589857Y-34758380D01*
X83732714Y-34806000D01*
X83780333Y-34853619D01*
X84685095Y-34758380D02*
X84208904Y-34758380D01*
X84161285Y-35234571D01*
X84208904Y-35186952D01*
X84304142Y-35139333D01*
X84542238Y-35139333D01*
X84637476Y-35186952D01*
X84685095Y-35234571D01*
X84732714Y-35329809D01*
X84732714Y-35567904D01*
X84685095Y-35663142D01*
X84637476Y-35710761D01*
X84542238Y-35758380D01*
X84304142Y-35758380D01*
X84208904Y-35710761D01*
X84161285Y-35663142D01*
X75398333Y-35663142D02*
X75350714Y-35710761D01*
X75207857Y-35758380D01*
X75112619Y-35758380D01*
X74969761Y-35710761D01*
X74874523Y-35615523D01*
X74826904Y-35520285D01*
X74779285Y-35329809D01*
X74779285Y-35186952D01*
X74826904Y-34996476D01*
X74874523Y-34901238D01*
X74969761Y-34806000D01*
X75112619Y-34758380D01*
X75207857Y-34758380D01*
X75350714Y-34806000D01*
X75398333Y-34853619D01*
X76255476Y-35091714D02*
X76255476Y-35758380D01*
X76017380Y-34710761D02*
X75779285Y-35425047D01*
X76398333Y-35425047D01*
X110323333Y-33631142D02*
X110275714Y-33678761D01*
X110132857Y-33726380D01*
X110037619Y-33726380D01*
X109894761Y-33678761D01*
X109799523Y-33583523D01*
X109751904Y-33488285D01*
X109704285Y-33297809D01*
X109704285Y-33154952D01*
X109751904Y-32964476D01*
X109799523Y-32869238D01*
X109894761Y-32774000D01*
X110037619Y-32726380D01*
X110132857Y-32726380D01*
X110275714Y-32774000D01*
X110323333Y-32821619D01*
X110704285Y-32821619D02*
X110751904Y-32774000D01*
X110847142Y-32726380D01*
X111085238Y-32726380D01*
X111180476Y-32774000D01*
X111228095Y-32821619D01*
X111275714Y-32916857D01*
X111275714Y-33012095D01*
X111228095Y-33154952D01*
X110656666Y-33726380D01*
X111275714Y-33726380D01*
X102195761Y-69667380D02*
X102195761Y-68667380D01*
X102576714Y-68667380D01*
X102671952Y-68715000D01*
X102719571Y-68762619D01*
X102767190Y-68857857D01*
X102767190Y-69000714D01*
X102719571Y-69095952D01*
X102671952Y-69143571D01*
X102576714Y-69191190D01*
X102195761Y-69191190D01*
X103386238Y-68667380D02*
X103576714Y-68667380D01*
X103671952Y-68715000D01*
X103767190Y-68810238D01*
X103814809Y-69000714D01*
X103814809Y-69334047D01*
X103767190Y-69524523D01*
X103671952Y-69619761D01*
X103576714Y-69667380D01*
X103386238Y-69667380D01*
X103291000Y-69619761D01*
X103195761Y-69524523D01*
X103148142Y-69334047D01*
X103148142Y-69000714D01*
X103195761Y-68810238D01*
X103291000Y-68715000D01*
X103386238Y-68667380D01*
X104195761Y-69619761D02*
X104338619Y-69667380D01*
X104576714Y-69667380D01*
X104671952Y-69619761D01*
X104719571Y-69572142D01*
X104767190Y-69476904D01*
X104767190Y-69381666D01*
X104719571Y-69286428D01*
X104671952Y-69238809D01*
X104576714Y-69191190D01*
X104386238Y-69143571D01*
X104291000Y-69095952D01*
X104243380Y-69048333D01*
X104195761Y-68953095D01*
X104195761Y-68857857D01*
X104243380Y-68762619D01*
X104291000Y-68715000D01*
X104386238Y-68667380D01*
X104624333Y-68667380D01*
X104767190Y-68715000D01*
X105719571Y-69667380D02*
X105148142Y-69667380D01*
X105433857Y-69667380D02*
X105433857Y-68667380D01*
X105338619Y-68810238D01*
X105243380Y-68905476D01*
X105148142Y-68953095D01*
X105910047Y-69762619D02*
X106671952Y-69762619D01*
X106862428Y-69619761D02*
X107005285Y-69667380D01*
X107243380Y-69667380D01*
X107338619Y-69619761D01*
X107386238Y-69572142D01*
X107433857Y-69476904D01*
X107433857Y-69381666D01*
X107386238Y-69286428D01*
X107338619Y-69238809D01*
X107243380Y-69191190D01*
X107052904Y-69143571D01*
X106957666Y-69095952D01*
X106910047Y-69048333D01*
X106862428Y-68953095D01*
X106862428Y-68857857D01*
X106910047Y-68762619D01*
X106957666Y-68715000D01*
X107052904Y-68667380D01*
X107291000Y-68667380D01*
X107433857Y-68715000D01*
X107862428Y-69667380D02*
X107862428Y-68667380D01*
X108433857Y-69667380D01*
X108433857Y-68667380D01*
X108862428Y-69619761D02*
X109005285Y-69667380D01*
X109243380Y-69667380D01*
X109338619Y-69619761D01*
X109386238Y-69572142D01*
X109433857Y-69476904D01*
X109433857Y-69381666D01*
X109386238Y-69286428D01*
X109338619Y-69238809D01*
X109243380Y-69191190D01*
X109052904Y-69143571D01*
X108957666Y-69095952D01*
X108910047Y-69048333D01*
X108862428Y-68953095D01*
X108862428Y-68857857D01*
X108910047Y-68762619D01*
X108957666Y-68715000D01*
X109052904Y-68667380D01*
X109291000Y-68667380D01*
X109433857Y-68715000D01*
X56888142Y-69921380D02*
X56411952Y-69921380D01*
X56411952Y-68921380D01*
X57221476Y-69397571D02*
X57554809Y-69397571D01*
X57697666Y-69921380D02*
X57221476Y-69921380D01*
X57221476Y-68921380D01*
X57697666Y-68921380D01*
X58126238Y-69921380D02*
X58126238Y-68921380D01*
X58364333Y-68921380D01*
X58507190Y-68969000D01*
X58602428Y-69064238D01*
X58650047Y-69159476D01*
X58697666Y-69349952D01*
X58697666Y-69492809D01*
X58650047Y-69683285D01*
X58602428Y-69778523D01*
X58507190Y-69873761D01*
X58364333Y-69921380D01*
X58126238Y-69921380D01*
X85812761Y-69794380D02*
X85812761Y-68794380D01*
X86193714Y-68794380D01*
X86288952Y-68842000D01*
X86336571Y-68889619D01*
X86384190Y-68984857D01*
X86384190Y-69127714D01*
X86336571Y-69222952D01*
X86288952Y-69270571D01*
X86193714Y-69318190D01*
X85812761Y-69318190D01*
X87003238Y-68794380D02*
X87193714Y-68794380D01*
X87288952Y-68842000D01*
X87384190Y-68937238D01*
X87431809Y-69127714D01*
X87431809Y-69461047D01*
X87384190Y-69651523D01*
X87288952Y-69746761D01*
X87193714Y-69794380D01*
X87003238Y-69794380D01*
X86908000Y-69746761D01*
X86812761Y-69651523D01*
X86765142Y-69461047D01*
X86765142Y-69127714D01*
X86812761Y-68937238D01*
X86908000Y-68842000D01*
X87003238Y-68794380D01*
X87812761Y-69746761D02*
X87955619Y-69794380D01*
X88193714Y-69794380D01*
X88288952Y-69746761D01*
X88336571Y-69699142D01*
X88384190Y-69603904D01*
X88384190Y-69508666D01*
X88336571Y-69413428D01*
X88288952Y-69365809D01*
X88193714Y-69318190D01*
X88003238Y-69270571D01*
X87908000Y-69222952D01*
X87860380Y-69175333D01*
X87812761Y-69080095D01*
X87812761Y-68984857D01*
X87860380Y-68889619D01*
X87908000Y-68842000D01*
X88003238Y-68794380D01*
X88241333Y-68794380D01*
X88384190Y-68842000D01*
X88765142Y-68889619D02*
X88812761Y-68842000D01*
X88908000Y-68794380D01*
X89146095Y-68794380D01*
X89241333Y-68842000D01*
X89288952Y-68889619D01*
X89336571Y-68984857D01*
X89336571Y-69080095D01*
X89288952Y-69222952D01*
X88717523Y-69794380D01*
X89336571Y-69794380D01*
X89527047Y-69889619D02*
X90288952Y-69889619D01*
X90479428Y-69746761D02*
X90622285Y-69794380D01*
X90860380Y-69794380D01*
X90955619Y-69746761D01*
X91003238Y-69699142D01*
X91050857Y-69603904D01*
X91050857Y-69508666D01*
X91003238Y-69413428D01*
X90955619Y-69365809D01*
X90860380Y-69318190D01*
X90669904Y-69270571D01*
X90574666Y-69222952D01*
X90527047Y-69175333D01*
X90479428Y-69080095D01*
X90479428Y-68984857D01*
X90527047Y-68889619D01*
X90574666Y-68842000D01*
X90669904Y-68794380D01*
X90908000Y-68794380D01*
X91050857Y-68842000D01*
X91479428Y-69794380D02*
X91479428Y-68794380D01*
X92050857Y-69794380D01*
X92050857Y-68794380D01*
X92479428Y-69746761D02*
X92622285Y-69794380D01*
X92860380Y-69794380D01*
X92955619Y-69746761D01*
X93003238Y-69699142D01*
X93050857Y-69603904D01*
X93050857Y-69508666D01*
X93003238Y-69413428D01*
X92955619Y-69365809D01*
X92860380Y-69318190D01*
X92669904Y-69270571D01*
X92574666Y-69222952D01*
X92527047Y-69175333D01*
X92479428Y-69080095D01*
X92479428Y-68984857D01*
X92527047Y-68889619D01*
X92574666Y-68842000D01*
X92669904Y-68794380D01*
X92908000Y-68794380D01*
X93050857Y-68842000D01*
D13*
X25324904Y-20817619D02*
X25324904Y-19717619D01*
X25691571Y-20503333D01*
X26058238Y-19717619D01*
X26058238Y-20817619D01*
X26791571Y-19717619D02*
X27001095Y-19717619D01*
X27105857Y-19770000D01*
X27210619Y-19874761D01*
X27263000Y-20084285D01*
X27263000Y-20450952D01*
X27210619Y-20660476D01*
X27105857Y-20765238D01*
X27001095Y-20817619D01*
X26791571Y-20817619D01*
X26686809Y-20765238D01*
X26582047Y-20660476D01*
X26529666Y-20450952D01*
X26529666Y-20084285D01*
X26582047Y-19874761D01*
X26686809Y-19770000D01*
X26791571Y-19717619D01*
X27577285Y-19717619D02*
X28205857Y-19717619D01*
X27891571Y-20817619D02*
X27891571Y-19717619D01*
X28782047Y-19717619D02*
X28991571Y-19717619D01*
X29096333Y-19770000D01*
X29201095Y-19874761D01*
X29253476Y-20084285D01*
X29253476Y-20450952D01*
X29201095Y-20660476D01*
X29096333Y-20765238D01*
X28991571Y-20817619D01*
X28782047Y-20817619D01*
X28677285Y-20765238D01*
X28572523Y-20660476D01*
X28520142Y-20450952D01*
X28520142Y-20084285D01*
X28572523Y-19874761D01*
X28677285Y-19770000D01*
X28782047Y-19717619D01*
X30353476Y-20817619D02*
X29986809Y-20293809D01*
X29724904Y-20817619D02*
X29724904Y-19717619D01*
X30143952Y-19717619D01*
X30248714Y-19770000D01*
X30301095Y-19822380D01*
X30353476Y-19927142D01*
X30353476Y-20084285D01*
X30301095Y-20189047D01*
X30248714Y-20241428D01*
X30143952Y-20293809D01*
X29724904Y-20293809D01*
D10*
X70675952Y-69794380D02*
X70675952Y-68794380D01*
X71056904Y-68794380D01*
X71152142Y-68842000D01*
X71199761Y-68889619D01*
X71247380Y-68984857D01*
X71247380Y-69127714D01*
X71199761Y-69222952D01*
X71152142Y-69270571D01*
X71056904Y-69318190D01*
X70675952Y-69318190D01*
X71580714Y-68794380D02*
X71818809Y-69794380D01*
X72009285Y-69080095D01*
X72199761Y-69794380D01*
X72437857Y-68794380D01*
X72818809Y-69794380D02*
X72818809Y-68794380D01*
X73152142Y-69508666D01*
X73485476Y-68794380D01*
X73485476Y-69794380D01*
X73723571Y-69889619D02*
X74485476Y-69889619D01*
X74723571Y-69270571D02*
X75056904Y-69270571D01*
X75199761Y-69794380D02*
X74723571Y-69794380D01*
X74723571Y-68794380D01*
X75199761Y-68794380D01*
X75533095Y-68794380D02*
X76199761Y-69794380D01*
X76199761Y-68794380D02*
X75533095Y-69794380D01*
X76437857Y-68794380D02*
X77009285Y-68794380D01*
X76723571Y-69794380D02*
X76723571Y-68794380D01*
X77342619Y-69794380D02*
X77342619Y-68794380D01*
X77914047Y-69794380D01*
X77914047Y-68794380D01*
X117134000Y-56157761D02*
X117276857Y-56205380D01*
X117514952Y-56205380D01*
X117610190Y-56157761D01*
X117657809Y-56110142D01*
X117705428Y-56014904D01*
X117705428Y-55919666D01*
X117657809Y-55824428D01*
X117610190Y-55776809D01*
X117514952Y-55729190D01*
X117324476Y-55681571D01*
X117229238Y-55633952D01*
X117181619Y-55586333D01*
X117134000Y-55491095D01*
X117134000Y-55395857D01*
X117181619Y-55300619D01*
X117229238Y-55253000D01*
X117324476Y-55205380D01*
X117562571Y-55205380D01*
X117705428Y-55253000D01*
X118038761Y-55205380D02*
X118276857Y-56205380D01*
X118467333Y-55491095D01*
X118657809Y-56205380D01*
X118895904Y-55205380D01*
X119276857Y-56205380D02*
X119276857Y-55205380D01*
X119610190Y-55205380D02*
X120181619Y-55205380D01*
X119895904Y-56205380D02*
X119895904Y-55205380D01*
X121086380Y-56110142D02*
X121038761Y-56157761D01*
X120895904Y-56205380D01*
X120800666Y-56205380D01*
X120657809Y-56157761D01*
X120562571Y-56062523D01*
X120514952Y-55967285D01*
X120467333Y-55776809D01*
X120467333Y-55633952D01*
X120514952Y-55443476D01*
X120562571Y-55348238D01*
X120657809Y-55253000D01*
X120800666Y-55205380D01*
X120895904Y-55205380D01*
X121038761Y-55253000D01*
X121086380Y-55300619D01*
X121514952Y-56205380D02*
X121514952Y-55205380D01*
X121514952Y-55681571D02*
X122086380Y-55681571D01*
X122086380Y-56205380D02*
X122086380Y-55205380D01*
X51935142Y-50014142D02*
X51887523Y-50061761D01*
X51744666Y-50109380D01*
X51649428Y-50109380D01*
X51506571Y-50061761D01*
X51411333Y-49966523D01*
X51363714Y-49871285D01*
X51316095Y-49680809D01*
X51316095Y-49537952D01*
X51363714Y-49347476D01*
X51411333Y-49252238D01*
X51506571Y-49157000D01*
X51649428Y-49109380D01*
X51744666Y-49109380D01*
X51887523Y-49157000D01*
X51935142Y-49204619D01*
X52887523Y-50109380D02*
X52316095Y-50109380D01*
X52601809Y-50109380D02*
X52601809Y-49109380D01*
X52506571Y-49252238D01*
X52411333Y-49347476D01*
X52316095Y-49395095D01*
X53220857Y-49109380D02*
X53887523Y-49109380D01*
X53458952Y-50109380D01*
X59436095Y-52919380D02*
X59436095Y-53728904D01*
X59483714Y-53824142D01*
X59531333Y-53871761D01*
X59626571Y-53919380D01*
X59817047Y-53919380D01*
X59912285Y-53871761D01*
X59959904Y-53824142D01*
X60007523Y-53728904D01*
X60007523Y-52919380D01*
X60912285Y-53252714D02*
X60912285Y-53919380D01*
X60674190Y-52871761D02*
X60436095Y-53586047D01*
X61055142Y-53586047D01*
X92964095Y-53173380D02*
X92964095Y-53982904D01*
X93011714Y-54078142D01*
X93059333Y-54125761D01*
X93154571Y-54173380D01*
X93345047Y-54173380D01*
X93440285Y-54125761D01*
X93487904Y-54078142D01*
X93535523Y-53982904D01*
X93535523Y-53173380D01*
X93916476Y-53173380D02*
X94535523Y-53173380D01*
X94202190Y-53554333D01*
X94345047Y-53554333D01*
X94440285Y-53601952D01*
X94487904Y-53649571D01*
X94535523Y-53744809D01*
X94535523Y-53982904D01*
X94487904Y-54078142D01*
X94440285Y-54125761D01*
X94345047Y-54173380D01*
X94059333Y-54173380D01*
X93964095Y-54125761D01*
X93916476Y-54078142D01*
X76708095Y-32218380D02*
X76708095Y-33027904D01*
X76755714Y-33123142D01*
X76803333Y-33170761D01*
X76898571Y-33218380D01*
X77089047Y-33218380D01*
X77184285Y-33170761D01*
X77231904Y-33123142D01*
X77279523Y-33027904D01*
X77279523Y-32218380D01*
X78279523Y-33218380D02*
X77708095Y-33218380D01*
X77993809Y-33218380D02*
X77993809Y-32218380D01*
X77898571Y-32361238D01*
X77803333Y-32456476D01*
X77708095Y-32504095D01*
X68209142Y-49093380D02*
X67875809Y-48617190D01*
X67637714Y-49093380D02*
X67637714Y-48093380D01*
X68018666Y-48093380D01*
X68113904Y-48141000D01*
X68161523Y-48188619D01*
X68209142Y-48283857D01*
X68209142Y-48426714D01*
X68161523Y-48521952D01*
X68113904Y-48569571D01*
X68018666Y-48617190D01*
X67637714Y-48617190D01*
X68590095Y-48188619D02*
X68637714Y-48141000D01*
X68732952Y-48093380D01*
X68971047Y-48093380D01*
X69066285Y-48141000D01*
X69113904Y-48188619D01*
X69161523Y-48283857D01*
X69161523Y-48379095D01*
X69113904Y-48521952D01*
X68542476Y-49093380D01*
X69161523Y-49093380D01*
X70018666Y-48093380D02*
X69828190Y-48093380D01*
X69732952Y-48141000D01*
X69685333Y-48188619D01*
X69590095Y-48331476D01*
X69542476Y-48521952D01*
X69542476Y-48902904D01*
X69590095Y-48998142D01*
X69637714Y-49045761D01*
X69732952Y-49093380D01*
X69923428Y-49093380D01*
X70018666Y-49045761D01*
X70066285Y-48998142D01*
X70113904Y-48902904D01*
X70113904Y-48664809D01*
X70066285Y-48569571D01*
X70018666Y-48521952D01*
X69923428Y-48474333D01*
X69732952Y-48474333D01*
X69637714Y-48521952D01*
X69590095Y-48569571D01*
X69542476Y-48664809D01*
X52189142Y-53919380D02*
X51855809Y-53443190D01*
X51617714Y-53919380D02*
X51617714Y-52919380D01*
X51998666Y-52919380D01*
X52093904Y-52967000D01*
X52141523Y-53014619D01*
X52189142Y-53109857D01*
X52189142Y-53252714D01*
X52141523Y-53347952D01*
X52093904Y-53395571D01*
X51998666Y-53443190D01*
X51617714Y-53443190D01*
X52570095Y-53014619D02*
X52617714Y-52967000D01*
X52712952Y-52919380D01*
X52951047Y-52919380D01*
X53046285Y-52967000D01*
X53093904Y-53014619D01*
X53141523Y-53109857D01*
X53141523Y-53205095D01*
X53093904Y-53347952D01*
X52522476Y-53919380D01*
X53141523Y-53919380D01*
X54046285Y-52919380D02*
X53570095Y-52919380D01*
X53522476Y-53395571D01*
X53570095Y-53347952D01*
X53665333Y-53300333D01*
X53903428Y-53300333D01*
X53998666Y-53347952D01*
X54046285Y-53395571D01*
X54093904Y-53490809D01*
X54093904Y-53728904D01*
X54046285Y-53824142D01*
X53998666Y-53871761D01*
X53903428Y-53919380D01*
X53665333Y-53919380D01*
X53570095Y-53871761D01*
X53522476Y-53824142D01*
X52062142Y-46299380D02*
X51728809Y-45823190D01*
X51490714Y-46299380D02*
X51490714Y-45299380D01*
X51871666Y-45299380D01*
X51966904Y-45347000D01*
X52014523Y-45394619D01*
X52062142Y-45489857D01*
X52062142Y-45632714D01*
X52014523Y-45727952D01*
X51966904Y-45775571D01*
X51871666Y-45823190D01*
X51490714Y-45823190D01*
X52443095Y-45394619D02*
X52490714Y-45347000D01*
X52585952Y-45299380D01*
X52824047Y-45299380D01*
X52919285Y-45347000D01*
X52966904Y-45394619D01*
X53014523Y-45489857D01*
X53014523Y-45585095D01*
X52966904Y-45727952D01*
X52395476Y-46299380D01*
X53014523Y-46299380D01*
X53871666Y-45632714D02*
X53871666Y-46299380D01*
X53633571Y-45251761D02*
X53395476Y-45966047D01*
X54014523Y-45966047D01*
X108069142Y-58364380D02*
X107735809Y-57888190D01*
X107497714Y-58364380D02*
X107497714Y-57364380D01*
X107878666Y-57364380D01*
X107973904Y-57412000D01*
X108021523Y-57459619D01*
X108069142Y-57554857D01*
X108069142Y-57697714D01*
X108021523Y-57792952D01*
X107973904Y-57840571D01*
X107878666Y-57888190D01*
X107497714Y-57888190D01*
X108450095Y-57459619D02*
X108497714Y-57412000D01*
X108592952Y-57364380D01*
X108831047Y-57364380D01*
X108926285Y-57412000D01*
X108973904Y-57459619D01*
X109021523Y-57554857D01*
X109021523Y-57650095D01*
X108973904Y-57792952D01*
X108402476Y-58364380D01*
X109021523Y-58364380D01*
X109354857Y-57364380D02*
X109973904Y-57364380D01*
X109640571Y-57745333D01*
X109783428Y-57745333D01*
X109878666Y-57792952D01*
X109926285Y-57840571D01*
X109973904Y-57935809D01*
X109973904Y-58173904D01*
X109926285Y-58269142D01*
X109878666Y-58316761D01*
X109783428Y-58364380D01*
X109497714Y-58364380D01*
X109402476Y-58316761D01*
X109354857Y-58269142D01*
X115054142Y-66111380D02*
X114720809Y-65635190D01*
X114482714Y-66111380D02*
X114482714Y-65111380D01*
X114863666Y-65111380D01*
X114958904Y-65159000D01*
X115006523Y-65206619D01*
X115054142Y-65301857D01*
X115054142Y-65444714D01*
X115006523Y-65539952D01*
X114958904Y-65587571D01*
X114863666Y-65635190D01*
X114482714Y-65635190D01*
X115435095Y-65206619D02*
X115482714Y-65159000D01*
X115577952Y-65111380D01*
X115816047Y-65111380D01*
X115911285Y-65159000D01*
X115958904Y-65206619D01*
X116006523Y-65301857D01*
X116006523Y-65397095D01*
X115958904Y-65539952D01*
X115387476Y-66111380D01*
X116006523Y-66111380D01*
X116387476Y-65206619D02*
X116435095Y-65159000D01*
X116530333Y-65111380D01*
X116768428Y-65111380D01*
X116863666Y-65159000D01*
X116911285Y-65206619D01*
X116958904Y-65301857D01*
X116958904Y-65397095D01*
X116911285Y-65539952D01*
X116339857Y-66111380D01*
X116958904Y-66111380D01*
X62857142Y-66238380D02*
X62523809Y-65762190D01*
X62285714Y-66238380D02*
X62285714Y-65238380D01*
X62666666Y-65238380D01*
X62761904Y-65286000D01*
X62809523Y-65333619D01*
X62857142Y-65428857D01*
X62857142Y-65571714D01*
X62809523Y-65666952D01*
X62761904Y-65714571D01*
X62666666Y-65762190D01*
X62285714Y-65762190D01*
X63238095Y-65333619D02*
X63285714Y-65286000D01*
X63380952Y-65238380D01*
X63619047Y-65238380D01*
X63714285Y-65286000D01*
X63761904Y-65333619D01*
X63809523Y-65428857D01*
X63809523Y-65524095D01*
X63761904Y-65666952D01*
X63190476Y-66238380D01*
X63809523Y-66238380D01*
X64761904Y-66238380D02*
X64190476Y-66238380D01*
X64476190Y-66238380D02*
X64476190Y-65238380D01*
X64380952Y-65381238D01*
X64285714Y-65476476D01*
X64190476Y-65524095D01*
X42283142Y-25471380D02*
X41949809Y-24995190D01*
X41711714Y-25471380D02*
X41711714Y-24471380D01*
X42092666Y-24471380D01*
X42187904Y-24519000D01*
X42235523Y-24566619D01*
X42283142Y-24661857D01*
X42283142Y-24804714D01*
X42235523Y-24899952D01*
X42187904Y-24947571D01*
X42092666Y-24995190D01*
X41711714Y-24995190D01*
X42664095Y-24566619D02*
X42711714Y-24519000D01*
X42806952Y-24471380D01*
X43045047Y-24471380D01*
X43140285Y-24519000D01*
X43187904Y-24566619D01*
X43235523Y-24661857D01*
X43235523Y-24757095D01*
X43187904Y-24899952D01*
X42616476Y-25471380D01*
X43235523Y-25471380D01*
X43854571Y-24471380D02*
X43949809Y-24471380D01*
X44045047Y-24519000D01*
X44092666Y-24566619D01*
X44140285Y-24661857D01*
X44187904Y-24852333D01*
X44187904Y-25090428D01*
X44140285Y-25280904D01*
X44092666Y-25376142D01*
X44045047Y-25423761D01*
X43949809Y-25471380D01*
X43854571Y-25471380D01*
X43759333Y-25423761D01*
X43711714Y-25376142D01*
X43664095Y-25280904D01*
X43616476Y-25090428D01*
X43616476Y-24852333D01*
X43664095Y-24661857D01*
X43711714Y-24566619D01*
X43759333Y-24519000D01*
X43854571Y-24471380D01*
X115435142Y-47188380D02*
X115101809Y-46712190D01*
X114863714Y-47188380D02*
X114863714Y-46188380D01*
X115244666Y-46188380D01*
X115339904Y-46236000D01*
X115387523Y-46283619D01*
X115435142Y-46378857D01*
X115435142Y-46521714D01*
X115387523Y-46616952D01*
X115339904Y-46664571D01*
X115244666Y-46712190D01*
X114863714Y-46712190D01*
X116387523Y-47188380D02*
X115816095Y-47188380D01*
X116101809Y-47188380D02*
X116101809Y-46188380D01*
X116006571Y-46331238D01*
X115911333Y-46426476D01*
X115816095Y-46474095D01*
X116863714Y-47188380D02*
X117054190Y-47188380D01*
X117149428Y-47140761D01*
X117197047Y-47093142D01*
X117292285Y-46950285D01*
X117339904Y-46759809D01*
X117339904Y-46378857D01*
X117292285Y-46283619D01*
X117244666Y-46236000D01*
X117149428Y-46188380D01*
X116958952Y-46188380D01*
X116863714Y-46236000D01*
X116816095Y-46283619D01*
X116768476Y-46378857D01*
X116768476Y-46616952D01*
X116816095Y-46712190D01*
X116863714Y-46759809D01*
X116958952Y-46807428D01*
X117149428Y-46807428D01*
X117244666Y-46759809D01*
X117292285Y-46712190D01*
X117339904Y-46616952D01*
X52951142Y-66238380D02*
X52617809Y-65762190D01*
X52379714Y-66238380D02*
X52379714Y-65238380D01*
X52760666Y-65238380D01*
X52855904Y-65286000D01*
X52903523Y-65333619D01*
X52951142Y-65428857D01*
X52951142Y-65571714D01*
X52903523Y-65666952D01*
X52855904Y-65714571D01*
X52760666Y-65762190D01*
X52379714Y-65762190D01*
X53903523Y-66238380D02*
X53332095Y-66238380D01*
X53617809Y-66238380D02*
X53617809Y-65238380D01*
X53522571Y-65381238D01*
X53427333Y-65476476D01*
X53332095Y-65524095D01*
X54474952Y-65666952D02*
X54379714Y-65619333D01*
X54332095Y-65571714D01*
X54284476Y-65476476D01*
X54284476Y-65428857D01*
X54332095Y-65333619D01*
X54379714Y-65286000D01*
X54474952Y-65238380D01*
X54665428Y-65238380D01*
X54760666Y-65286000D01*
X54808285Y-65333619D01*
X54855904Y-65428857D01*
X54855904Y-65476476D01*
X54808285Y-65571714D01*
X54760666Y-65619333D01*
X54665428Y-65666952D01*
X54474952Y-65666952D01*
X54379714Y-65714571D01*
X54332095Y-65762190D01*
X54284476Y-65857428D01*
X54284476Y-66047904D01*
X54332095Y-66143142D01*
X54379714Y-66190761D01*
X54474952Y-66238380D01*
X54665428Y-66238380D01*
X54760666Y-66190761D01*
X54808285Y-66143142D01*
X54855904Y-66047904D01*
X54855904Y-65857428D01*
X54808285Y-65762190D01*
X54760666Y-65714571D01*
X54665428Y-65666952D01*
X108450142Y-43378380D02*
X108116809Y-42902190D01*
X107878714Y-43378380D02*
X107878714Y-42378380D01*
X108259666Y-42378380D01*
X108354904Y-42426000D01*
X108402523Y-42473619D01*
X108450142Y-42568857D01*
X108450142Y-42711714D01*
X108402523Y-42806952D01*
X108354904Y-42854571D01*
X108259666Y-42902190D01*
X107878714Y-42902190D01*
X109402523Y-43378380D02*
X108831095Y-43378380D01*
X109116809Y-43378380D02*
X109116809Y-42378380D01*
X109021571Y-42521238D01*
X108926333Y-42616476D01*
X108831095Y-42664095D01*
X109735857Y-42378380D02*
X110402523Y-42378380D01*
X109973952Y-43378380D01*
X23995142Y-47315380D02*
X23661809Y-46839190D01*
X23423714Y-47315380D02*
X23423714Y-46315380D01*
X23804666Y-46315380D01*
X23899904Y-46363000D01*
X23947523Y-46410619D01*
X23995142Y-46505857D01*
X23995142Y-46648714D01*
X23947523Y-46743952D01*
X23899904Y-46791571D01*
X23804666Y-46839190D01*
X23423714Y-46839190D01*
X24947523Y-47315380D02*
X24376095Y-47315380D01*
X24661809Y-47315380D02*
X24661809Y-46315380D01*
X24566571Y-46458238D01*
X24471333Y-46553476D01*
X24376095Y-46601095D01*
X25804666Y-46315380D02*
X25614190Y-46315380D01*
X25518952Y-46363000D01*
X25471333Y-46410619D01*
X25376095Y-46553476D01*
X25328476Y-46743952D01*
X25328476Y-47124904D01*
X25376095Y-47220142D01*
X25423714Y-47267761D01*
X25518952Y-47315380D01*
X25709428Y-47315380D01*
X25804666Y-47267761D01*
X25852285Y-47220142D01*
X25899904Y-47124904D01*
X25899904Y-46886809D01*
X25852285Y-46791571D01*
X25804666Y-46743952D01*
X25709428Y-46696333D01*
X25518952Y-46696333D01*
X25423714Y-46743952D01*
X25376095Y-46791571D01*
X25328476Y-46886809D01*
X108196142Y-39187380D02*
X107862809Y-38711190D01*
X107624714Y-39187380D02*
X107624714Y-38187380D01*
X108005666Y-38187380D01*
X108100904Y-38235000D01*
X108148523Y-38282619D01*
X108196142Y-38377857D01*
X108196142Y-38520714D01*
X108148523Y-38615952D01*
X108100904Y-38663571D01*
X108005666Y-38711190D01*
X107624714Y-38711190D01*
X109148523Y-39187380D02*
X108577095Y-39187380D01*
X108862809Y-39187380D02*
X108862809Y-38187380D01*
X108767571Y-38330238D01*
X108672333Y-38425476D01*
X108577095Y-38473095D01*
X110053285Y-38187380D02*
X109577095Y-38187380D01*
X109529476Y-38663571D01*
X109577095Y-38615952D01*
X109672333Y-38568333D01*
X109910428Y-38568333D01*
X110005666Y-38615952D01*
X110053285Y-38663571D01*
X110100904Y-38758809D01*
X110100904Y-38996904D01*
X110053285Y-39092142D01*
X110005666Y-39139761D01*
X109910428Y-39187380D01*
X109672333Y-39187380D01*
X109577095Y-39139761D01*
X109529476Y-39092142D01*
X43807142Y-19883380D02*
X43473809Y-19407190D01*
X43235714Y-19883380D02*
X43235714Y-18883380D01*
X43616666Y-18883380D01*
X43711904Y-18931000D01*
X43759523Y-18978619D01*
X43807142Y-19073857D01*
X43807142Y-19216714D01*
X43759523Y-19311952D01*
X43711904Y-19359571D01*
X43616666Y-19407190D01*
X43235714Y-19407190D01*
X44759523Y-19883380D02*
X44188095Y-19883380D01*
X44473809Y-19883380D02*
X44473809Y-18883380D01*
X44378571Y-19026238D01*
X44283333Y-19121476D01*
X44188095Y-19169095D01*
X45092857Y-18883380D02*
X45711904Y-18883380D01*
X45378571Y-19264333D01*
X45521428Y-19264333D01*
X45616666Y-19311952D01*
X45664285Y-19359571D01*
X45711904Y-19454809D01*
X45711904Y-19692904D01*
X45664285Y-19788142D01*
X45616666Y-19835761D01*
X45521428Y-19883380D01*
X45235714Y-19883380D01*
X45140476Y-19835761D01*
X45092857Y-19788142D01*
X47490142Y-68397380D02*
X47156809Y-67921190D01*
X46918714Y-68397380D02*
X46918714Y-67397380D01*
X47299666Y-67397380D01*
X47394904Y-67445000D01*
X47442523Y-67492619D01*
X47490142Y-67587857D01*
X47490142Y-67730714D01*
X47442523Y-67825952D01*
X47394904Y-67873571D01*
X47299666Y-67921190D01*
X46918714Y-67921190D01*
X48442523Y-68397380D02*
X47871095Y-68397380D01*
X48156809Y-68397380D02*
X48156809Y-67397380D01*
X48061571Y-67540238D01*
X47966333Y-67635476D01*
X47871095Y-67683095D01*
X48823476Y-67492619D02*
X48871095Y-67445000D01*
X48966333Y-67397380D01*
X49204428Y-67397380D01*
X49299666Y-67445000D01*
X49347285Y-67492619D01*
X49394904Y-67587857D01*
X49394904Y-67683095D01*
X49347285Y-67825952D01*
X48775857Y-68397380D01*
X49394904Y-68397380D01*
X17899142Y-25217380D02*
X17565809Y-24741190D01*
X17327714Y-25217380D02*
X17327714Y-24217380D01*
X17708666Y-24217380D01*
X17803904Y-24265000D01*
X17851523Y-24312619D01*
X17899142Y-24407857D01*
X17899142Y-24550714D01*
X17851523Y-24645952D01*
X17803904Y-24693571D01*
X17708666Y-24741190D01*
X17327714Y-24741190D01*
X18851523Y-25217380D02*
X18280095Y-25217380D01*
X18565809Y-25217380D02*
X18565809Y-24217380D01*
X18470571Y-24360238D01*
X18375333Y-24455476D01*
X18280095Y-24503095D01*
X19803904Y-25217380D02*
X19232476Y-25217380D01*
X19518190Y-25217380D02*
X19518190Y-24217380D01*
X19422952Y-24360238D01*
X19327714Y-24455476D01*
X19232476Y-24503095D01*
X19296142Y-36647380D02*
X18962809Y-36171190D01*
X18724714Y-36647380D02*
X18724714Y-35647380D01*
X19105666Y-35647380D01*
X19200904Y-35695000D01*
X19248523Y-35742619D01*
X19296142Y-35837857D01*
X19296142Y-35980714D01*
X19248523Y-36075952D01*
X19200904Y-36123571D01*
X19105666Y-36171190D01*
X18724714Y-36171190D01*
X20248523Y-36647380D02*
X19677095Y-36647380D01*
X19962809Y-36647380D02*
X19962809Y-35647380D01*
X19867571Y-35790238D01*
X19772333Y-35885476D01*
X19677095Y-35933095D01*
X20867571Y-35647380D02*
X20962809Y-35647380D01*
X21058047Y-35695000D01*
X21105666Y-35742619D01*
X21153285Y-35837857D01*
X21200904Y-36028333D01*
X21200904Y-36266428D01*
X21153285Y-36456904D01*
X21105666Y-36552142D01*
X21058047Y-36599761D01*
X20962809Y-36647380D01*
X20867571Y-36647380D01*
X20772333Y-36599761D01*
X20724714Y-36552142D01*
X20677095Y-36456904D01*
X20629476Y-36266428D01*
X20629476Y-36028333D01*
X20677095Y-35837857D01*
X20724714Y-35742619D01*
X20772333Y-35695000D01*
X20867571Y-35647380D01*
X31964333Y-36647380D02*
X31631000Y-36171190D01*
X31392904Y-36647380D02*
X31392904Y-35647380D01*
X31773857Y-35647380D01*
X31869095Y-35695000D01*
X31916714Y-35742619D01*
X31964333Y-35837857D01*
X31964333Y-35980714D01*
X31916714Y-36075952D01*
X31869095Y-36123571D01*
X31773857Y-36171190D01*
X31392904Y-36171190D01*
X32535761Y-36075952D02*
X32440523Y-36028333D01*
X32392904Y-35980714D01*
X32345285Y-35885476D01*
X32345285Y-35837857D01*
X32392904Y-35742619D01*
X32440523Y-35695000D01*
X32535761Y-35647380D01*
X32726238Y-35647380D01*
X32821476Y-35695000D01*
X32869095Y-35742619D01*
X32916714Y-35837857D01*
X32916714Y-35885476D01*
X32869095Y-35980714D01*
X32821476Y-36028333D01*
X32726238Y-36075952D01*
X32535761Y-36075952D01*
X32440523Y-36123571D01*
X32392904Y-36171190D01*
X32345285Y-36266428D01*
X32345285Y-36456904D01*
X32392904Y-36552142D01*
X32440523Y-36599761D01*
X32535761Y-36647380D01*
X32726238Y-36647380D01*
X32821476Y-36599761D01*
X32869095Y-36552142D01*
X32916714Y-36456904D01*
X32916714Y-36266428D01*
X32869095Y-36171190D01*
X32821476Y-36123571D01*
X32726238Y-36075952D01*
X20026333Y-47315380D02*
X19693000Y-46839190D01*
X19454904Y-47315380D02*
X19454904Y-46315380D01*
X19835857Y-46315380D01*
X19931095Y-46363000D01*
X19978714Y-46410619D01*
X20026333Y-46505857D01*
X20026333Y-46648714D01*
X19978714Y-46743952D01*
X19931095Y-46791571D01*
X19835857Y-46839190D01*
X19454904Y-46839190D01*
X20359666Y-46315380D02*
X21026333Y-46315380D01*
X20597761Y-47315380D01*
X28916333Y-47315380D02*
X28583000Y-46839190D01*
X28344904Y-47315380D02*
X28344904Y-46315380D01*
X28725857Y-46315380D01*
X28821095Y-46363000D01*
X28868714Y-46410619D01*
X28916333Y-46505857D01*
X28916333Y-46648714D01*
X28868714Y-46743952D01*
X28821095Y-46791571D01*
X28725857Y-46839190D01*
X28344904Y-46839190D01*
X29773476Y-46315380D02*
X29583000Y-46315380D01*
X29487761Y-46363000D01*
X29440142Y-46410619D01*
X29344904Y-46553476D01*
X29297285Y-46743952D01*
X29297285Y-47124904D01*
X29344904Y-47220142D01*
X29392523Y-47267761D01*
X29487761Y-47315380D01*
X29678238Y-47315380D01*
X29773476Y-47267761D01*
X29821095Y-47220142D01*
X29868714Y-47124904D01*
X29868714Y-46886809D01*
X29821095Y-46791571D01*
X29773476Y-46743952D01*
X29678238Y-46696333D01*
X29487761Y-46696333D01*
X29392523Y-46743952D01*
X29344904Y-46791571D01*
X29297285Y-46886809D01*
X25614333Y-36647380D02*
X25281000Y-36171190D01*
X25042904Y-36647380D02*
X25042904Y-35647380D01*
X25423857Y-35647380D01*
X25519095Y-35695000D01*
X25566714Y-35742619D01*
X25614333Y-35837857D01*
X25614333Y-35980714D01*
X25566714Y-36075952D01*
X25519095Y-36123571D01*
X25423857Y-36171190D01*
X25042904Y-36171190D01*
X26519095Y-35647380D02*
X26042904Y-35647380D01*
X25995285Y-36123571D01*
X26042904Y-36075952D01*
X26138142Y-36028333D01*
X26376238Y-36028333D01*
X26471476Y-36075952D01*
X26519095Y-36123571D01*
X26566714Y-36218809D01*
X26566714Y-36456904D01*
X26519095Y-36552142D01*
X26471476Y-36599761D01*
X26376238Y-36647380D01*
X26138142Y-36647380D01*
X26042904Y-36599761D01*
X25995285Y-36552142D01*
X37933333Y-47315380D02*
X37600000Y-46839190D01*
X37361904Y-47315380D02*
X37361904Y-46315380D01*
X37742857Y-46315380D01*
X37838095Y-46363000D01*
X37885714Y-46410619D01*
X37933333Y-46505857D01*
X37933333Y-46648714D01*
X37885714Y-46743952D01*
X37838095Y-46791571D01*
X37742857Y-46839190D01*
X37361904Y-46839190D01*
X38790476Y-46648714D02*
X38790476Y-47315380D01*
X38552380Y-46267761D02*
X38314285Y-46982047D01*
X38933333Y-46982047D01*
X33488333Y-47315380D02*
X33155000Y-46839190D01*
X32916904Y-47315380D02*
X32916904Y-46315380D01*
X33297857Y-46315380D01*
X33393095Y-46363000D01*
X33440714Y-46410619D01*
X33488333Y-46505857D01*
X33488333Y-46648714D01*
X33440714Y-46743952D01*
X33393095Y-46791571D01*
X33297857Y-46839190D01*
X32916904Y-46839190D01*
X33821666Y-46315380D02*
X34440714Y-46315380D01*
X34107380Y-46696333D01*
X34250238Y-46696333D01*
X34345476Y-46743952D01*
X34393095Y-46791571D01*
X34440714Y-46886809D01*
X34440714Y-47124904D01*
X34393095Y-47220142D01*
X34345476Y-47267761D01*
X34250238Y-47315380D01*
X33964523Y-47315380D01*
X33869285Y-47267761D01*
X33821666Y-47220142D01*
X36536333Y-36647380D02*
X36203000Y-36171190D01*
X35964904Y-36647380D02*
X35964904Y-35647380D01*
X36345857Y-35647380D01*
X36441095Y-35695000D01*
X36488714Y-35742619D01*
X36536333Y-35837857D01*
X36536333Y-35980714D01*
X36488714Y-36075952D01*
X36441095Y-36123571D01*
X36345857Y-36171190D01*
X35964904Y-36171190D01*
X36917285Y-35742619D02*
X36964904Y-35695000D01*
X37060142Y-35647380D01*
X37298238Y-35647380D01*
X37393476Y-35695000D01*
X37441095Y-35742619D01*
X37488714Y-35837857D01*
X37488714Y-35933095D01*
X37441095Y-36075952D01*
X36869666Y-36647380D01*
X37488714Y-36647380D01*
X41616333Y-68651380D02*
X41283000Y-68175190D01*
X41044904Y-68651380D02*
X41044904Y-67651380D01*
X41425857Y-67651380D01*
X41521095Y-67699000D01*
X41568714Y-67746619D01*
X41616333Y-67841857D01*
X41616333Y-67984714D01*
X41568714Y-68079952D01*
X41521095Y-68127571D01*
X41425857Y-68175190D01*
X41044904Y-68175190D01*
X42568714Y-68651380D02*
X41997285Y-68651380D01*
X42283000Y-68651380D02*
X42283000Y-67651380D01*
X42187761Y-67794238D01*
X42092523Y-67889476D01*
X41997285Y-67937095D01*
X37996904Y-17343380D02*
X37996904Y-16343380D01*
X38235000Y-16343380D01*
X38377857Y-16391000D01*
X38473095Y-16486238D01*
X38520714Y-16581476D01*
X38568333Y-16771952D01*
X38568333Y-16914809D01*
X38520714Y-17105285D01*
X38473095Y-17200523D01*
X38377857Y-17295761D01*
X38235000Y-17343380D01*
X37996904Y-17343380D01*
X39425476Y-16343380D02*
X39235000Y-16343380D01*
X39139761Y-16391000D01*
X39092142Y-16438619D01*
X38996904Y-16581476D01*
X38949285Y-16771952D01*
X38949285Y-17152904D01*
X38996904Y-17248142D01*
X39044523Y-17295761D01*
X39139761Y-17343380D01*
X39330238Y-17343380D01*
X39425476Y-17295761D01*
X39473095Y-17248142D01*
X39520714Y-17152904D01*
X39520714Y-16914809D01*
X39473095Y-16819571D01*
X39425476Y-16771952D01*
X39330238Y-16724333D01*
X39139761Y-16724333D01*
X39044523Y-16771952D01*
X38996904Y-16819571D01*
X38949285Y-16914809D01*
X44092904Y-17343380D02*
X44092904Y-16343380D01*
X44331000Y-16343380D01*
X44473857Y-16391000D01*
X44569095Y-16486238D01*
X44616714Y-16581476D01*
X44664333Y-16771952D01*
X44664333Y-16914809D01*
X44616714Y-17105285D01*
X44569095Y-17200523D01*
X44473857Y-17295761D01*
X44331000Y-17343380D01*
X44092904Y-17343380D01*
X45569095Y-16343380D02*
X45092904Y-16343380D01*
X45045285Y-16819571D01*
X45092904Y-16771952D01*
X45188142Y-16724333D01*
X45426238Y-16724333D01*
X45521476Y-16771952D01*
X45569095Y-16819571D01*
X45616714Y-16914809D01*
X45616714Y-17152904D01*
X45569095Y-17248142D01*
X45521476Y-17295761D01*
X45426238Y-17343380D01*
X45188142Y-17343380D01*
X45092904Y-17295761D01*
X45045285Y-17248142D01*
X47013904Y-72461380D02*
X47013904Y-71461380D01*
X47252000Y-71461380D01*
X47394857Y-71509000D01*
X47490095Y-71604238D01*
X47537714Y-71699476D01*
X47585333Y-71889952D01*
X47585333Y-72032809D01*
X47537714Y-72223285D01*
X47490095Y-72318523D01*
X47394857Y-72413761D01*
X47252000Y-72461380D01*
X47013904Y-72461380D01*
X48442476Y-71794714D02*
X48442476Y-72461380D01*
X48204380Y-71413761D02*
X47966285Y-72128047D01*
X48585333Y-72128047D01*
X40790904Y-72461380D02*
X40790904Y-71461380D01*
X41029000Y-71461380D01*
X41171857Y-71509000D01*
X41267095Y-71604238D01*
X41314714Y-71699476D01*
X41362333Y-71889952D01*
X41362333Y-72032809D01*
X41314714Y-72223285D01*
X41267095Y-72318523D01*
X41171857Y-72413761D01*
X41029000Y-72461380D01*
X40790904Y-72461380D01*
X41695666Y-71461380D02*
X42314714Y-71461380D01*
X41981380Y-71842333D01*
X42124238Y-71842333D01*
X42219476Y-71889952D01*
X42267095Y-71937571D01*
X42314714Y-72032809D01*
X42314714Y-72270904D01*
X42267095Y-72366142D01*
X42219476Y-72413761D01*
X42124238Y-72461380D01*
X41838523Y-72461380D01*
X41743285Y-72413761D01*
X41695666Y-72366142D01*
X57611904Y-30932380D02*
X57611904Y-29932380D01*
X57850000Y-29932380D01*
X57992857Y-29980000D01*
X58088095Y-30075238D01*
X58135714Y-30170476D01*
X58183333Y-30360952D01*
X58183333Y-30503809D01*
X58135714Y-30694285D01*
X58088095Y-30789523D01*
X57992857Y-30884761D01*
X57850000Y-30932380D01*
X57611904Y-30932380D01*
X58754761Y-30360952D02*
X58659523Y-30313333D01*
X58611904Y-30265714D01*
X58564285Y-30170476D01*
X58564285Y-30122857D01*
X58611904Y-30027619D01*
X58659523Y-29980000D01*
X58754761Y-29932380D01*
X58945238Y-29932380D01*
X59040476Y-29980000D01*
X59088095Y-30027619D01*
X59135714Y-30122857D01*
X59135714Y-30170476D01*
X59088095Y-30265714D01*
X59040476Y-30313333D01*
X58945238Y-30360952D01*
X58754761Y-30360952D01*
X58659523Y-30408571D01*
X58611904Y-30456190D01*
X58564285Y-30551428D01*
X58564285Y-30741904D01*
X58611904Y-30837142D01*
X58659523Y-30884761D01*
X58754761Y-30932380D01*
X58945238Y-30932380D01*
X59040476Y-30884761D01*
X59088095Y-30837142D01*
X59135714Y-30741904D01*
X59135714Y-30551428D01*
X59088095Y-30456190D01*
X59040476Y-30408571D01*
X58945238Y-30360952D01*
X57718095Y-25852380D02*
X57718095Y-24852380D01*
X58289523Y-25852380D02*
X57860952Y-25280952D01*
X58289523Y-24852380D02*
X57718095Y-25423809D01*
X19835904Y-63190380D02*
X19835904Y-62190380D01*
X20074000Y-62190380D01*
X20216857Y-62238000D01*
X20312095Y-62333238D01*
X20359714Y-62428476D01*
X20407333Y-62618952D01*
X20407333Y-62761809D01*
X20359714Y-62952285D01*
X20312095Y-63047523D01*
X20216857Y-63142761D01*
X20074000Y-63190380D01*
X19835904Y-63190380D01*
X21359714Y-63190380D02*
X20788285Y-63190380D01*
X21074000Y-63190380D02*
X21074000Y-62190380D01*
X20978761Y-62333238D01*
X20883523Y-62428476D01*
X20788285Y-62476095D01*
X21836095Y-54173380D02*
X21836095Y-53173380D01*
X22407523Y-54173380D02*
X21978952Y-53601952D01*
X22407523Y-53173380D02*
X21836095Y-53744809D01*
X86352142Y-50014142D02*
X86304523Y-50061761D01*
X86161666Y-50109380D01*
X86066428Y-50109380D01*
X85923571Y-50061761D01*
X85828333Y-49966523D01*
X85780714Y-49871285D01*
X85733095Y-49680809D01*
X85733095Y-49537952D01*
X85780714Y-49347476D01*
X85828333Y-49252238D01*
X85923571Y-49157000D01*
X86066428Y-49109380D01*
X86161666Y-49109380D01*
X86304523Y-49157000D01*
X86352142Y-49204619D01*
X86733095Y-49204619D02*
X86780714Y-49157000D01*
X86875952Y-49109380D01*
X87114047Y-49109380D01*
X87209285Y-49157000D01*
X87256904Y-49204619D01*
X87304523Y-49299857D01*
X87304523Y-49395095D01*
X87256904Y-49537952D01*
X86685476Y-50109380D01*
X87304523Y-50109380D01*
X87637857Y-49109380D02*
X88256904Y-49109380D01*
X87923571Y-49490333D01*
X88066428Y-49490333D01*
X88161666Y-49537952D01*
X88209285Y-49585571D01*
X88256904Y-49680809D01*
X88256904Y-49918904D01*
X88209285Y-50014142D01*
X88161666Y-50061761D01*
X88066428Y-50109380D01*
X87780714Y-50109380D01*
X87685476Y-50061761D01*
X87637857Y-50014142D01*
X68082142Y-53570142D02*
X68034523Y-53617761D01*
X67891666Y-53665380D01*
X67796428Y-53665380D01*
X67653571Y-53617761D01*
X67558333Y-53522523D01*
X67510714Y-53427285D01*
X67463095Y-53236809D01*
X67463095Y-53093952D01*
X67510714Y-52903476D01*
X67558333Y-52808238D01*
X67653571Y-52713000D01*
X67796428Y-52665380D01*
X67891666Y-52665380D01*
X68034523Y-52713000D01*
X68082142Y-52760619D01*
X68463095Y-52760619D02*
X68510714Y-52713000D01*
X68605952Y-52665380D01*
X68844047Y-52665380D01*
X68939285Y-52713000D01*
X68986904Y-52760619D01*
X69034523Y-52855857D01*
X69034523Y-52951095D01*
X68986904Y-53093952D01*
X68415476Y-53665380D01*
X69034523Y-53665380D01*
X69415476Y-52760619D02*
X69463095Y-52713000D01*
X69558333Y-52665380D01*
X69796428Y-52665380D01*
X69891666Y-52713000D01*
X69939285Y-52760619D01*
X69986904Y-52855857D01*
X69986904Y-52951095D01*
X69939285Y-53093952D01*
X69367857Y-53665380D01*
X69986904Y-53665380D01*
X114927142Y-58142142D02*
X114879523Y-58189761D01*
X114736666Y-58237380D01*
X114641428Y-58237380D01*
X114498571Y-58189761D01*
X114403333Y-58094523D01*
X114355714Y-57999285D01*
X114308095Y-57808809D01*
X114308095Y-57665952D01*
X114355714Y-57475476D01*
X114403333Y-57380238D01*
X114498571Y-57285000D01*
X114641428Y-57237380D01*
X114736666Y-57237380D01*
X114879523Y-57285000D01*
X114927142Y-57332619D01*
X115308095Y-57332619D02*
X115355714Y-57285000D01*
X115450952Y-57237380D01*
X115689047Y-57237380D01*
X115784285Y-57285000D01*
X115831904Y-57332619D01*
X115879523Y-57427857D01*
X115879523Y-57523095D01*
X115831904Y-57665952D01*
X115260476Y-58237380D01*
X115879523Y-58237380D01*
X116831904Y-58237380D02*
X116260476Y-58237380D01*
X116546190Y-58237380D02*
X116546190Y-57237380D01*
X116450952Y-57380238D01*
X116355714Y-57475476D01*
X116260476Y-57523095D01*
X115181142Y-39346142D02*
X115133523Y-39393761D01*
X114990666Y-39441380D01*
X114895428Y-39441380D01*
X114752571Y-39393761D01*
X114657333Y-39298523D01*
X114609714Y-39203285D01*
X114562095Y-39012809D01*
X114562095Y-38869952D01*
X114609714Y-38679476D01*
X114657333Y-38584238D01*
X114752571Y-38489000D01*
X114895428Y-38441380D01*
X114990666Y-38441380D01*
X115133523Y-38489000D01*
X115181142Y-38536619D01*
X115562095Y-38536619D02*
X115609714Y-38489000D01*
X115704952Y-38441380D01*
X115943047Y-38441380D01*
X116038285Y-38489000D01*
X116085904Y-38536619D01*
X116133523Y-38631857D01*
X116133523Y-38727095D01*
X116085904Y-38869952D01*
X115514476Y-39441380D01*
X116133523Y-39441380D01*
X116752571Y-38441380D02*
X116847809Y-38441380D01*
X116943047Y-38489000D01*
X116990666Y-38536619D01*
X117038285Y-38631857D01*
X117085904Y-38822333D01*
X117085904Y-39060428D01*
X117038285Y-39250904D01*
X116990666Y-39346142D01*
X116943047Y-39393761D01*
X116847809Y-39441380D01*
X116752571Y-39441380D01*
X116657333Y-39393761D01*
X116609714Y-39346142D01*
X116562095Y-39250904D01*
X116514476Y-39060428D01*
X116514476Y-38822333D01*
X116562095Y-38631857D01*
X116609714Y-38536619D01*
X116657333Y-38489000D01*
X116752571Y-38441380D01*
X115054142Y-43410142D02*
X115006523Y-43457761D01*
X114863666Y-43505380D01*
X114768428Y-43505380D01*
X114625571Y-43457761D01*
X114530333Y-43362523D01*
X114482714Y-43267285D01*
X114435095Y-43076809D01*
X114435095Y-42933952D01*
X114482714Y-42743476D01*
X114530333Y-42648238D01*
X114625571Y-42553000D01*
X114768428Y-42505380D01*
X114863666Y-42505380D01*
X115006523Y-42553000D01*
X115054142Y-42600619D01*
X116006523Y-43505380D02*
X115435095Y-43505380D01*
X115720809Y-43505380D02*
X115720809Y-42505380D01*
X115625571Y-42648238D01*
X115530333Y-42743476D01*
X115435095Y-42791095D01*
X116482714Y-43505380D02*
X116673190Y-43505380D01*
X116768428Y-43457761D01*
X116816047Y-43410142D01*
X116911285Y-43267285D01*
X116958904Y-43076809D01*
X116958904Y-42695857D01*
X116911285Y-42600619D01*
X116863666Y-42553000D01*
X116768428Y-42505380D01*
X116577952Y-42505380D01*
X116482714Y-42553000D01*
X116435095Y-42600619D01*
X116387476Y-42695857D01*
X116387476Y-42933952D01*
X116435095Y-43029190D01*
X116482714Y-43076809D01*
X116577952Y-43124428D01*
X116768428Y-43124428D01*
X116863666Y-43076809D01*
X116911285Y-43029190D01*
X116958904Y-42933952D01*
X68082142Y-46077142D02*
X68034523Y-46124761D01*
X67891666Y-46172380D01*
X67796428Y-46172380D01*
X67653571Y-46124761D01*
X67558333Y-46029523D01*
X67510714Y-45934285D01*
X67463095Y-45743809D01*
X67463095Y-45600952D01*
X67510714Y-45410476D01*
X67558333Y-45315238D01*
X67653571Y-45220000D01*
X67796428Y-45172380D01*
X67891666Y-45172380D01*
X68034523Y-45220000D01*
X68082142Y-45267619D01*
X69034523Y-46172380D02*
X68463095Y-46172380D01*
X68748809Y-46172380D02*
X68748809Y-45172380D01*
X68653571Y-45315238D01*
X68558333Y-45410476D01*
X68463095Y-45458095D01*
X69605952Y-45600952D02*
X69510714Y-45553333D01*
X69463095Y-45505714D01*
X69415476Y-45410476D01*
X69415476Y-45362857D01*
X69463095Y-45267619D01*
X69510714Y-45220000D01*
X69605952Y-45172380D01*
X69796428Y-45172380D01*
X69891666Y-45220000D01*
X69939285Y-45267619D01*
X69986904Y-45362857D01*
X69986904Y-45410476D01*
X69939285Y-45505714D01*
X69891666Y-45553333D01*
X69796428Y-45600952D01*
X69605952Y-45600952D01*
X69510714Y-45648571D01*
X69463095Y-45696190D01*
X69415476Y-45791428D01*
X69415476Y-45981904D01*
X69463095Y-46077142D01*
X69510714Y-46124761D01*
X69605952Y-46172380D01*
X69796428Y-46172380D01*
X69891666Y-46124761D01*
X69939285Y-46077142D01*
X69986904Y-45981904D01*
X69986904Y-45791428D01*
X69939285Y-45696190D01*
X69891666Y-45648571D01*
X69796428Y-45600952D01*
X115181142Y-35663142D02*
X115133523Y-35710761D01*
X114990666Y-35758380D01*
X114895428Y-35758380D01*
X114752571Y-35710761D01*
X114657333Y-35615523D01*
X114609714Y-35520285D01*
X114562095Y-35329809D01*
X114562095Y-35186952D01*
X114609714Y-34996476D01*
X114657333Y-34901238D01*
X114752571Y-34806000D01*
X114895428Y-34758380D01*
X114990666Y-34758380D01*
X115133523Y-34806000D01*
X115181142Y-34853619D01*
X116133523Y-35758380D02*
X115562095Y-35758380D01*
X115847809Y-35758380D02*
X115847809Y-34758380D01*
X115752571Y-34901238D01*
X115657333Y-34996476D01*
X115562095Y-35044095D01*
X116990666Y-34758380D02*
X116800190Y-34758380D01*
X116704952Y-34806000D01*
X116657333Y-34853619D01*
X116562095Y-34996476D01*
X116514476Y-35186952D01*
X116514476Y-35567904D01*
X116562095Y-35663142D01*
X116609714Y-35710761D01*
X116704952Y-35758380D01*
X116895428Y-35758380D01*
X116990666Y-35710761D01*
X117038285Y-35663142D01*
X117085904Y-35567904D01*
X117085904Y-35329809D01*
X117038285Y-35234571D01*
X116990666Y-35186952D01*
X116895428Y-35139333D01*
X116704952Y-35139333D01*
X116609714Y-35186952D01*
X116562095Y-35234571D01*
X116514476Y-35329809D01*
X87495142Y-66397142D02*
X87447523Y-66444761D01*
X87304666Y-66492380D01*
X87209428Y-66492380D01*
X87066571Y-66444761D01*
X86971333Y-66349523D01*
X86923714Y-66254285D01*
X86876095Y-66063809D01*
X86876095Y-65920952D01*
X86923714Y-65730476D01*
X86971333Y-65635238D01*
X87066571Y-65540000D01*
X87209428Y-65492380D01*
X87304666Y-65492380D01*
X87447523Y-65540000D01*
X87495142Y-65587619D01*
X88447523Y-66492380D02*
X87876095Y-66492380D01*
X88161809Y-66492380D02*
X88161809Y-65492380D01*
X88066571Y-65635238D01*
X87971333Y-65730476D01*
X87876095Y-65778095D01*
X89352285Y-65492380D02*
X88876095Y-65492380D01*
X88828476Y-65968571D01*
X88876095Y-65920952D01*
X88971333Y-65873333D01*
X89209428Y-65873333D01*
X89304666Y-65920952D01*
X89352285Y-65968571D01*
X89399904Y-66063809D01*
X89399904Y-66301904D01*
X89352285Y-66397142D01*
X89304666Y-66444761D01*
X89209428Y-66492380D01*
X88971333Y-66492380D01*
X88876095Y-66444761D01*
X88828476Y-66397142D01*
X108069142Y-66143142D02*
X108021523Y-66190761D01*
X107878666Y-66238380D01*
X107783428Y-66238380D01*
X107640571Y-66190761D01*
X107545333Y-66095523D01*
X107497714Y-66000285D01*
X107450095Y-65809809D01*
X107450095Y-65666952D01*
X107497714Y-65476476D01*
X107545333Y-65381238D01*
X107640571Y-65286000D01*
X107783428Y-65238380D01*
X107878666Y-65238380D01*
X108021523Y-65286000D01*
X108069142Y-65333619D01*
X109021523Y-66238380D02*
X108450095Y-66238380D01*
X108735809Y-66238380D02*
X108735809Y-65238380D01*
X108640571Y-65381238D01*
X108545333Y-65476476D01*
X108450095Y-65524095D01*
X109878666Y-65571714D02*
X109878666Y-66238380D01*
X109640571Y-65190761D02*
X109402476Y-65905047D01*
X110021523Y-65905047D01*
X47839333Y-23344142D02*
X47791714Y-23391761D01*
X47648857Y-23439380D01*
X47553619Y-23439380D01*
X47410761Y-23391761D01*
X47315523Y-23296523D01*
X47267904Y-23201285D01*
X47220285Y-23010809D01*
X47220285Y-22867952D01*
X47267904Y-22677476D01*
X47315523Y-22582238D01*
X47410761Y-22487000D01*
X47553619Y-22439380D01*
X47648857Y-22439380D01*
X47791714Y-22487000D01*
X47839333Y-22534619D01*
X48315523Y-23439380D02*
X48506000Y-23439380D01*
X48601238Y-23391761D01*
X48648857Y-23344142D01*
X48744095Y-23201285D01*
X48791714Y-23010809D01*
X48791714Y-22629857D01*
X48744095Y-22534619D01*
X48696476Y-22487000D01*
X48601238Y-22439380D01*
X48410761Y-22439380D01*
X48315523Y-22487000D01*
X48267904Y-22534619D01*
X48220285Y-22629857D01*
X48220285Y-22867952D01*
X48267904Y-22963190D01*
X48315523Y-23010809D01*
X48410761Y-23058428D01*
X48601238Y-23058428D01*
X48696476Y-23010809D01*
X48744095Y-22963190D01*
X48791714Y-22867952D01*
X103846333Y-35409142D02*
X103798714Y-35456761D01*
X103655857Y-35504380D01*
X103560619Y-35504380D01*
X103417761Y-35456761D01*
X103322523Y-35361523D01*
X103274904Y-35266285D01*
X103227285Y-35075809D01*
X103227285Y-34932952D01*
X103274904Y-34742476D01*
X103322523Y-34647238D01*
X103417761Y-34552000D01*
X103560619Y-34504380D01*
X103655857Y-34504380D01*
X103798714Y-34552000D01*
X103846333Y-34599619D01*
X104179666Y-34504380D02*
X104846333Y-34504380D01*
X104417761Y-35504380D01*
X70826333Y-35663142D02*
X70778714Y-35710761D01*
X70635857Y-35758380D01*
X70540619Y-35758380D01*
X70397761Y-35710761D01*
X70302523Y-35615523D01*
X70254904Y-35520285D01*
X70207285Y-35329809D01*
X70207285Y-35186952D01*
X70254904Y-34996476D01*
X70302523Y-34901238D01*
X70397761Y-34806000D01*
X70540619Y-34758380D01*
X70635857Y-34758380D01*
X70778714Y-34806000D01*
X70826333Y-34853619D01*
X71159666Y-34758380D02*
X71778714Y-34758380D01*
X71445380Y-35139333D01*
X71588238Y-35139333D01*
X71683476Y-35186952D01*
X71731095Y-35234571D01*
X71778714Y-35329809D01*
X71778714Y-35567904D01*
X71731095Y-35663142D01*
X71683476Y-35710761D01*
X71588238Y-35758380D01*
X71302523Y-35758380D01*
X71207285Y-35710761D01*
X71159666Y-35663142D01*
X53729047Y-62793571D02*
X53871904Y-62841190D01*
X53919523Y-62888809D01*
X53967142Y-62984047D01*
X53967142Y-63126904D01*
X53919523Y-63222142D01*
X53871904Y-63269761D01*
X53776666Y-63317380D01*
X53395714Y-63317380D01*
X53395714Y-62317380D01*
X53729047Y-62317380D01*
X53824285Y-62365000D01*
X53871904Y-62412619D01*
X53919523Y-62507857D01*
X53919523Y-62603095D01*
X53871904Y-62698333D01*
X53824285Y-62745952D01*
X53729047Y-62793571D01*
X53395714Y-62793571D01*
X54300476Y-62317380D02*
X54967142Y-62317380D01*
X54300476Y-63317380D01*
X54967142Y-63317380D01*
X55871904Y-63317380D02*
X55300476Y-63317380D01*
X55586190Y-63317380D02*
X55586190Y-62317380D01*
X55490952Y-62460238D01*
X55395714Y-62555476D01*
X55300476Y-62603095D01*
X48966428Y-55615952D02*
X48966428Y-54854047D01*
X49347380Y-55235000D02*
X48585476Y-55235000D01*
M02*
